<svg xmlns="http://www.w3.org/2000/svg" width="1080" height="1350" viewBox="0 0 1080 1350">
    <rect width="1080" height="1350" fill="#1c1917"/>
  <rect x="40" y="40" width="1000" height="1270" fill="none" stroke="#D4B378" stroke-width="1.5" opacity="0.5"/>
    <g transform="translate(418.4 198.4) scale(0.95)">
    <g fill="none" stroke="#F7F5F2" stroke-width="7" stroke-linecap="round" stroke-linejoin="round">
      <path d="M 160 60 Q 160 44 144 44 Q 128 44 128 58 L 128 110"/>
      <path d="M 128 110 L 62 184 L 194 184 Z"/>
    </g>
    <line x1="128" y1="184" x2="128" y2="206" stroke="#D4B378" stroke-width="1.5" stroke-linecap="round" opacity="0.85"/>
    <circle cx="128" cy="212" r="5" fill="#D4B378"/>
  </g>
    <g transform="translate(47.52 483.00) scale(0.72)"><path d="M403.060 90.340L456.740 228.720Q460.040 237.080 464.220 239.830Q468.400 242.580 471.920 242.800L471.920 247.200Q467.520 246.760 461.140 246.650Q454.760 246.540 448.380 246.540Q439.800 246.540 432.320 246.650Q424.840 246.760 420.220 247.200L420.220 242.800Q431.440 242.360 434.520 238.950Q437.600 235.540 433.200 224.320L392.280 114.980L395.800 112.120L357.520 211.560Q354 220.360 353.340 226.410Q352.680 232.460 354.550 235.980Q356.420 239.500 360.930 241.040Q365.440 242.580 372.260 242.800L372.260 247.200Q366.100 246.760 359.390 246.650Q352.680 246.540 346.960 246.540Q341.460 246.540 337.610 246.650Q333.760 246.760 330.460 247.200L330.460 242.800Q334.860 241.700 339.480 237.630Q344.100 233.560 347.840 223.660L399.540 90.340Q400.420 90.340 401.300 90.340Q402.180 90.340 403.060 90.340M366.540 183.840L429.900 183.840L429.900 188.240L364.340 188.240L366.540 183.840M512.400 97.380L512.400 134.120L544.960 134.120L544.960 138.520L512.400 138.520L512.400 223.660Q512.400 234 516.140 238.180Q519.880 242.360 526.480 242.360Q533.080 242.360 537.920 236.970Q542.760 231.580 546.280 218.820L550.680 219.920Q548.480 232.680 541.990 241.480Q535.500 250.280 522.080 250.280Q514.600 250.280 509.760 248.410Q504.920 246.540 501.180 243.020Q496.340 237.960 494.470 230.920Q492.600 223.880 492.600 212.220L492.600 138.520L471.480 138.520L471.480 134.120L492.600 134.120L492.600 100.460Q498.100 100.240 503.160 99.580Q508.220 98.920 512.400 97.380M608.320 130.820Q627.680 130.820 638.570 142.590Q649.460 154.360 649.460 179.220L571.800 179.220L571.580 175.040L628.340 175.040Q628.780 164.260 626.580 155.130Q624.380 146 619.650 140.500Q614.920 135 607.440 135Q597.320 135 589.510 145.120Q581.700 155.240 580.160 177.240L580.820 178.120Q580.380 181.420 580.160 185.380Q579.940 189.340 579.940 193.300Q579.940 208.260 584.780 219.040Q589.620 229.820 597.430 235.430Q605.240 241.040 613.600 241.040Q620.200 241.040 626.140 238.950Q632.080 236.860 637.140 232.020Q642.200 227.180 645.940 219.040L650.340 220.800Q647.920 228.060 642.420 234.880Q636.920 241.700 628.560 245.990Q620.200 250.280 609.200 250.280Q593.360 250.280 582.030 243.020Q570.700 235.760 564.650 222.890Q558.600 210.020 558.600 193.300Q558.600 173.940 564.760 159.970Q570.920 146 582.140 138.410Q593.360 130.820 608.320 130.820M701.160 74.720L701.160 226.740Q701.160 235.980 705.010 239.280Q708.860 242.580 717.880 242.580L717.880 247.200Q714.140 246.980 706.550 246.650Q698.960 246.320 691.260 246.320Q683.780 246.320 676.080 246.650Q668.380 246.980 664.640 247.200L664.640 242.580Q673.660 242.580 677.510 239.280Q681.360 235.980 681.360 226.740L681.360 101.120Q681.360 91.220 677.840 86.490Q674.320 81.760 664.640 81.760L664.640 77.140Q671.680 77.800 678.280 77.800Q684.660 77.800 690.490 77.030Q696.320 76.260 701.160 74.720M754.180 78.900Q759.900 78.900 764.080 83.080Q768.260 87.260 768.260 92.980Q768.260 98.700 764.080 102.880Q759.900 107.060 754.180 107.060Q748.460 107.060 744.280 102.880Q740.100 98.700 740.100 92.980Q740.100 87.260 744.280 83.080Q748.460 78.900 754.180 78.900M765.620 131.480L765.620 226.740Q765.620 235.980 769.470 239.280Q773.320 242.580 782.340 242.580L782.340 247.200Q778.600 246.980 771.010 246.650Q763.420 246.320 755.720 246.320Q748.240 246.320 740.540 246.650Q732.840 246.980 729.100 247.200L729.100 242.580Q738.120 242.580 741.970 239.280Q745.820 235.980 745.820 226.740L745.820 157.880Q745.820 147.980 742.300 143.250Q738.780 138.520 729.100 138.520L729.100 133.900Q736.140 134.560 742.740 134.560Q749.120 134.560 754.950 133.790Q760.780 133.020 765.620 131.480M847.020 130.820Q866.380 130.820 877.270 142.590Q888.160 154.360 888.160 179.220L810.500 179.220L810.280 175.040L867.040 175.040Q867.480 164.260 865.280 155.130Q863.080 146 858.350 140.500Q853.620 135 846.140 135Q836.020 135 828.210 145.120Q820.400 155.240 818.860 177.240L819.520 178.120Q819.080 181.420 818.860 185.380Q818.640 189.340 818.640 193.300Q818.640 208.260 823.480 219.040Q828.320 229.820 836.130 235.430Q843.940 241.040 852.300 241.040Q858.900 241.040 864.840 238.950Q870.780 236.860 875.840 232.020Q880.900 227.180 884.640 219.040L889.040 220.800Q886.620 228.060 881.120 234.880Q875.620 241.700 867.260 245.990Q858.900 250.280 847.900 250.280Q832.060 250.280 820.730 243.020Q809.400 235.760 803.350 222.890Q797.300 210.020 797.300 193.300Q797.300 173.940 803.460 159.970Q809.620 146 820.840 138.410Q832.060 130.820 847.020 130.820M973.300 130.820Q979.240 130.820 983.750 133.240Q988.260 135.660 990.790 139.510Q993.320 143.360 993.320 148.200Q993.320 153.700 989.910 157.880Q986.500 162.060 980.780 162.060Q976.160 162.060 972.640 159.090Q969.120 156.120 969.120 150.620Q969.120 146.440 971.430 143.470Q973.740 140.500 976.600 138.740Q975.060 136.540 971.980 136.540Q965.160 136.540 959.440 140.610Q953.720 144.680 949.760 151.060Q945.800 157.440 943.600 164.590Q941.400 171.740 941.400 177.900L941.400 224.540Q941.400 235.320 947.670 238.950Q953.940 242.580 964.720 242.580L964.720 247.200Q959.660 246.980 950.420 246.650Q941.180 246.320 930.840 246.320Q923.360 246.320 915.990 246.650Q908.620 246.980 904.880 247.200L904.880 242.580Q913.900 242.580 917.750 239.280Q921.600 235.980 921.600 226.740L921.600 157.880Q921.600 147.980 918.080 143.250Q914.560 138.520 904.880 138.520L904.880 133.900Q911.920 134.560 918.520 134.560Q924.900 134.560 930.730 133.790Q936.560 133.020 941.400 131.480L941.400 158.980Q943.820 152.600 948.330 146.110Q952.840 139.620 959.220 135.220Q965.600 130.820 973.300 130.820" fill="#F7F5F2"/><path d="M1024.120 222.120Q1029.840 222.120 1034.020 226.300Q1038.200 230.480 1038.200 236.200Q1038.200 241.920 1034.020 246.100Q1029.840 250.280 1024.120 250.280Q1018.400 250.280 1014.220 246.100Q1010.040 241.920 1010.040 236.200Q1010.040 230.480 1014.220 226.300Q1018.400 222.120 1024.120 222.120" fill="#D4B378"/></g>
    <line x1="450" y1="730" x2="630" y2="730" stroke="#D4B378" stroke-width="1.4" opacity="0.85"/>
    <text x="540" y="800" text-anchor="middle" fill="#D4B378" font-family="'Helvetica Neue', Arial, sans-serif" font-size="27" letter-spacing="8" style="text-transform:uppercase">Quiet luxury for your wardrobe</text>
    <path d="M 291.44 955.76 L 291.44 955.76 L 299.74 977.14 Q 300.25 978.44 300.89 978.86 Q 301.54 979.29 302.08 979.32 L 302.08 979.32 L 302.08 980.00 Q 301.40 979.93 300.42 979.91 Q 299.43 979.90 298.45 979.90 L 298.45 979.90 Q 297.12 979.90 295.96 979.91 Q 294.81 979.93 294.09 980.00 L 294.09 980.00 L 294.09 979.32 Q 295.83 979.25 296.30 978.73 Q 296.78 978.20 296.10 976.46 L 296.10 976.46 L 289.78 959.57 L 290.32 959.12 L 284.40 974.49 Q 283.86 975.85 283.76 976.79 Q 283.66 977.72 283.95 978.27 Q 284.23 978.81 284.93 979.05 Q 285.63 979.29 286.68 979.32 L 286.68 979.32 L 286.68 980.00 Q 285.73 979.93 284.69 979.91 Q 283.66 979.90 282.77 979.90 L 282.77 979.90 Q 281.92 979.90 281.33 979.91 Q 280.73 979.93 280.22 980.00 L 280.22 980.00 L 280.22 979.32 Q 280.90 979.15 281.62 978.52 Q 282.33 977.89 282.91 976.36 L 282.91 976.36 L 290.90 955.76 Q 291.03 955.76 291.17 955.76 Q 291.31 955.76 291.44 955.76 M 285.80 970.21 L 295.59 970.21 L 295.59 970.89 L 285.46 970.89 L 285.80 970.21 M 314.29 962.01 L 314.29 962.01 Q 315.58 962.01 316.45 962.35 Q 317.32 962.69 317.89 963.31 L 317.89 963.31 Q 318.54 963.99 318.81 965.01 Q 319.08 966.03 319.08 967.76 L 319.08 967.76 L 319.08 976.84 Q 319.08 978.27 319.68 978.78 Q 320.27 979.29 321.67 979.29 L 321.67 979.29 L 321.67 980.00 Q 321.09 979.97 319.90 979.91 Q 318.71 979.86 317.59 979.86 L 317.59 979.86 Q 316.47 979.86 315.40 979.91 Q 314.32 979.97 313.78 980.00 L 313.78 980.00 L 313.78 979.29 Q 315.00 979.29 315.51 978.78 Q 316.02 978.27 316.02 976.84 L 316.02 976.84 L 316.02 967.01 Q 316.02 965.96 315.85 965.07 Q 315.68 964.19 315.09 963.65 Q 314.49 963.10 313.27 963.10 L 313.27 963.10 Q 311.84 963.10 310.77 963.92 Q 309.70 964.73 309.11 966.14 Q 308.51 967.56 308.51 969.29 L 308.51 969.29 L 308.51 976.84 Q 308.51 978.27 309.02 978.78 Q 309.53 979.29 310.75 979.29 L 310.75 979.29 L 310.75 980.00 Q 310.21 979.97 309.14 979.91 Q 308.07 979.86 306.95 979.86 L 306.95 979.86 Q 305.82 979.86 304.63 979.91 Q 303.44 979.97 302.87 980.00 L 302.87 980.00 L 302.87 979.29 Q 304.26 979.29 304.86 978.78 Q 305.45 978.27 305.45 976.84 L 305.45 976.84 L 305.45 966.20 Q 305.45 964.67 304.91 963.93 Q 304.36 963.20 302.87 963.20 L 302.87 963.20 L 302.87 962.49 Q 303.95 962.59 304.97 962.59 L 304.97 962.59 Q 305.96 962.59 306.86 962.47 Q 307.76 962.35 308.51 962.12 L 308.51 962.12 L 308.51 966.13 Q 309.39 963.82 310.98 962.91 Q 312.56 962.01 314.29 962.01 M 336.46 980.24 L 336.46 980.24 Q 335.06 980.24 334.04 979.71 Q 333.02 979.18 332.50 978.23 Q 331.97 977.28 331.97 976.02 L 331.97 976.02 Q 331.97 974.53 332.67 973.57 Q 333.36 972.62 334.45 972.04 Q 335.54 971.47 336.75 971.08 Q 337.95 970.68 339.04 970.33 Q 340.13 969.97 340.83 969.49 Q 341.52 969.02 341.52 968.24 L 341.52 968.24 L 341.52 966.13 Q 341.52 964.70 341.10 963.95 Q 340.67 963.20 339.96 962.95 Q 339.25 962.69 338.36 962.69 L 338.36 962.69 Q 337.51 962.69 336.54 962.93 Q 335.57 963.17 335.00 963.92 L 335.00 963.92 Q 335.64 964.05 336.12 964.60 Q 336.59 965.14 336.59 965.99 L 336.59 965.99 Q 336.59 966.84 336.05 967.34 Q 335.51 967.83 334.66 967.83 L 334.66 967.83 Q 333.67 967.83 333.21 967.20 Q 332.75 966.57 332.75 965.79 L 332.75 965.79 Q 332.75 964.90 333.19 964.36 Q 333.64 963.82 334.32 963.34 L 334.32 963.34 Q 335.10 962.80 336.34 962.40 Q 337.58 962.01 339.14 962.01 L 339.14 962.01 Q 340.54 962.01 341.52 962.34 Q 342.51 962.66 343.16 963.27 L 343.16 963.27 Q 344.04 964.09 344.31 965.26 Q 344.58 966.43 344.58 968.07 L 344.58 968.07 L 344.58 977.52 Q 344.58 978.37 344.84 978.74 Q 345.09 979.12 345.64 979.12 L 345.64 979.12 Q 346.01 979.12 346.35 978.95 Q 346.69 978.78 347.17 978.40 L 347.17 978.40 L 347.54 978.98 Q 346.83 979.52 346.18 979.88 Q 345.54 980.24 344.45 980.24 L 344.45 980.24 Q 343.46 980.24 342.82 979.90 Q 342.17 979.56 341.85 978.89 Q 341.52 978.23 341.52 977.21 L 341.52 977.21 Q 340.61 978.74 339.33 979.49 Q 338.06 980.24 336.46 980.24 M 337.68 978.88 L 337.68 978.88 Q 338.80 978.88 339.77 978.23 Q 340.74 977.59 341.52 976.29 L 341.52 976.29 L 341.52 969.63 Q 341.12 970.21 340.33 970.60 Q 339.55 970.99 338.63 971.38 Q 337.72 971.77 336.88 972.30 Q 336.05 972.83 335.51 973.68 Q 334.96 974.53 334.96 975.89 L 334.96 975.89 Q 334.96 977.25 335.69 978.06 Q 336.42 978.88 337.68 978.88 M 359.14 962.01 L 359.14 962.01 Q 360.05 962.01 360.75 962.39 Q 361.45 962.76 361.84 963.36 Q 362.23 963.95 362.23 964.70 L 362.23 964.70 Q 362.23 965.55 361.70 966.20 Q 361.18 966.84 360.29 966.84 L 360.29 966.84 Q 359.58 966.84 359.03 966.38 Q 358.49 965.92 358.49 965.07 L 358.49 965.07 Q 358.49 964.43 358.85 963.97 Q 359.20 963.51 359.65 963.24 L 359.65 963.24 Q 359.41 962.90 358.93 962.90 L 358.93 962.90 Q 357.88 962.90 356.99 963.53 Q 356.11 964.16 355.50 965.14 Q 354.89 966.13 354.55 967.23 Q 354.21 968.34 354.21 969.29 L 354.21 969.29 L 354.21 976.50 Q 354.21 978.16 355.18 978.73 Q 356.14 979.29 357.81 979.29 L 357.81 979.29 L 357.81 980.00 Q 357.03 979.97 355.60 979.91 Q 354.17 979.86 352.57 979.86 L 352.57 979.86 Q 351.42 979.86 350.28 979.91 Q 349.14 979.97 348.56 980.00 L 348.56 980.00 L 348.56 979.29 Q 349.96 979.29 350.55 978.78 Q 351.15 978.27 351.15 976.84 L 351.15 976.84 L 351.15 966.20 Q 351.15 964.67 350.60 963.93 Q 350.06 963.20 348.56 963.20 L 348.56 963.20 L 348.56 962.49 Q 349.65 962.59 350.67 962.59 L 350.67 962.59 Q 351.66 962.59 352.56 962.47 Q 353.46 962.35 354.21 962.12 L 354.21 962.12 L 354.21 966.37 Q 354.58 965.38 355.28 964.38 Q 355.97 963.37 356.96 962.69 Q 357.95 962.01 359.14 962.01 M 372.19 962.01 L 372.19 962.01 Q 373.28 962.01 374.30 962.29 Q 375.32 962.56 376.14 963.10 L 376.14 963.10 Q 376.92 963.61 377.33 964.27 Q 377.73 964.94 377.73 965.72 L 377.73 965.72 Q 377.73 966.64 377.22 967.13 Q 376.71 967.62 375.93 967.62 L 375.93 967.62 Q 375.18 967.62 374.62 967.18 Q 374.06 966.74 374.06 965.92 L 374.06 965.92 Q 374.06 965.14 374.49 964.67 Q 374.91 964.19 375.49 964.05 L 375.49 964.05 Q 375.15 963.44 374.28 963.03 Q 373.42 962.63 372.43 962.63 L 372.43 962.63 Q 371.58 962.63 370.73 963.03 Q 369.88 963.44 369.17 964.38 Q 368.45 965.31 368.01 966.93 Q 367.57 968.54 367.57 970.96 L 367.57 970.96 Q 367.57 973.95 368.25 975.72 Q 368.93 977.48 370.03 978.25 Q 371.14 979.01 372.46 979.01 L 372.46 979.01 Q 373.35 979.01 374.27 978.67 Q 375.18 978.33 376.00 977.57 Q 376.82 976.80 377.39 975.51 L 377.39 975.51 L 378.04 975.75 Q 377.70 976.84 376.92 977.94 Q 376.14 979.05 374.88 979.76 Q 373.62 980.48 371.78 980.48 L 371.78 980.48 Q 369.68 980.48 367.98 979.39 Q 366.28 978.30 365.27 976.28 Q 364.27 974.25 364.27 971.47 L 364.27 971.47 Q 364.27 968.68 365.27 966.55 Q 366.28 964.43 368.08 963.22 Q 369.88 962.01 372.19 962.01 M 385.55 953.38 L 385.55 953.38 L 385.55 966.09 Q 386.44 963.78 388.02 962.90 Q 389.60 962.01 391.33 962.01 L 391.33 962.01 Q 392.63 962.01 393.49 962.35 Q 394.36 962.69 394.94 963.31 L 394.94 963.31 Q 395.58 963.99 395.86 965.01 Q 396.13 966.03 396.13 967.76 L 396.13 967.76 L 396.13 976.84 Q 396.13 978.27 396.72 978.78 Q 397.32 979.29 398.71 979.29 L 398.71 979.29 L 398.71 980.00 Q 398.13 979.97 396.94 979.91 Q 395.75 979.86 394.63 979.86 L 394.63 979.86 Q 393.51 979.86 392.44 979.91 Q 391.37 979.97 390.82 980.00 L 390.82 980.00 L 390.82 979.29 Q 392.05 979.29 392.56 978.78 Q 393.07 978.27 393.07 976.84 L 393.07 976.84 L 393.07 967.01 Q 393.07 965.96 392.90 965.07 Q 392.73 964.19 392.13 963.65 Q 391.54 963.10 390.31 963.10 L 390.31 963.10 Q 388.92 963.10 387.85 963.88 Q 386.78 964.67 386.17 966.06 Q 385.55 967.45 385.55 969.26 L 385.55 969.26 L 385.55 976.84 Q 385.55 978.27 386.06 978.78 Q 386.57 979.29 387.80 979.29 L 387.80 979.29 L 387.80 980.00 Q 387.25 979.97 386.18 979.91 Q 385.11 979.86 383.99 979.86 L 383.99 979.86 Q 382.87 979.86 381.68 979.91 Q 380.49 979.97 379.91 980.00 L 379.91 980.00 L 379.91 979.29 Q 381.30 979.29 381.90 978.78 Q 382.49 978.27 382.49 976.84 L 382.49 976.84 L 382.49 957.46 Q 382.49 955.93 381.95 955.20 Q 381.41 954.47 379.91 954.47 L 379.91 954.47 L 379.91 953.75 Q 381.00 953.85 382.02 953.85 L 382.02 953.85 Q 383.00 953.85 383.91 953.74 Q 384.81 953.62 385.55 953.38 M 404.08 953.99 L 404.08 953.99 Q 404.97 953.99 405.61 954.64 Q 406.26 955.28 406.26 956.17 L 406.26 956.17 Q 406.26 957.05 405.61 957.70 Q 404.97 958.34 404.08 958.34 L 404.08 958.34 Q 403.20 958.34 402.55 957.70 Q 401.91 957.05 401.91 956.17 L 401.91 956.17 Q 401.91 955.28 402.55 954.64 Q 403.20 953.99 404.08 953.99 M 405.85 962.12 L 405.85 962.12 L 405.85 976.84 Q 405.85 978.27 406.45 978.78 Q 407.04 979.29 408.44 979.29 L 408.44 979.29 L 408.44 980.00 Q 407.86 979.97 406.69 979.91 Q 405.51 979.86 404.32 979.86 L 404.32 979.86 Q 403.17 979.86 401.98 979.91 Q 400.79 979.97 400.21 980.00 L 400.21 980.00 L 400.21 979.29 Q 401.60 979.29 402.20 978.78 Q 402.79 978.27 402.79 976.84 L 402.79 976.84 L 402.79 966.20 Q 402.79 964.67 402.25 963.93 Q 401.70 963.20 400.21 963.20 L 400.21 963.20 L 400.21 962.49 Q 401.30 962.59 402.32 962.59 L 402.32 962.59 Q 403.30 962.59 404.20 962.47 Q 405.10 962.35 405.85 962.12 M 425.71 962.49 L 425.71 962.49 L 425.71 963.17 Q 425.06 963.24 424.52 963.75 Q 423.97 964.26 423.50 965.55 L 423.50 965.55 L 417.92 980.17 Q 417.79 980.17 417.65 980.17 Q 417.51 980.17 417.34 980.17 L 417.34 980.17 L 411.09 965.11 Q 410.54 963.78 410.02 963.49 Q 409.49 963.20 409.12 963.20 L 409.12 963.20 L 409.12 962.49 Q 409.80 962.52 410.53 962.58 Q 411.26 962.63 412.11 962.63 L 412.11 962.63 Q 413.16 962.63 414.34 962.59 Q 415.51 962.56 416.53 962.49 L 416.53 962.49 L 416.53 963.20 Q 415.68 963.20 415.02 963.32 Q 414.35 963.44 414.17 963.99 Q 413.98 964.53 414.49 965.86 L 414.49 965.86 L 418.74 976.36 L 418.53 976.53 L 422.41 966.37 Q 422.85 965.24 422.77 964.58 Q 422.68 963.92 422.09 963.58 Q 421.49 963.24 420.27 963.17 L 420.27 963.17 L 420.27 962.49 Q 420.88 962.52 421.32 962.54 Q 421.76 962.56 422.19 962.58 Q 422.61 962.59 423.12 962.59 L 423.12 962.59 Q 423.91 962.59 424.54 962.56 Q 425.16 962.52 425.71 962.49 M 435.06 962.01 L 435.06 962.01 Q 438.05 962.01 439.73 963.83 Q 441.42 965.65 441.42 969.49 L 441.42 969.49 L 429.41 969.49 L 429.38 968.85 L 438.15 968.85 Q 438.22 967.18 437.88 965.77 Q 437.54 964.36 436.81 963.51 Q 436.08 962.66 434.92 962.66 L 434.92 962.66 Q 433.36 962.66 432.15 964.22 Q 430.94 965.79 430.71 969.19 L 430.71 969.19 L 430.81 969.32 Q 430.74 969.83 430.71 970.45 Q 430.67 971.06 430.67 971.67 L 430.67 971.67 Q 430.67 973.98 431.42 975.65 Q 432.17 977.31 433.38 978.18 Q 434.58 979.05 435.87 979.05 L 435.87 979.05 Q 436.89 979.05 437.81 978.73 Q 438.73 978.40 439.51 977.65 Q 440.29 976.91 440.87 975.65 L 440.87 975.65 L 441.55 975.92 Q 441.18 977.04 440.33 978.10 Q 439.48 979.15 438.19 979.81 Q 436.89 980.48 435.19 980.48 L 435.19 980.48 Q 432.75 980.48 431.00 979.35 Q 429.24 978.23 428.31 976.24 Q 427.37 974.25 427.37 971.67 L 427.37 971.67 Q 427.37 968.68 428.33 966.52 Q 429.28 964.36 431.01 963.19 Q 432.75 962.01 435.06 962.01 M 460.80 962.01 L 460.80 962.01 Q 462.97 962.01 464.71 962.97 Q 466.44 963.92 467.48 965.96 Q 468.51 968.00 468.51 971.26 L 468.51 971.26 Q 468.51 974.53 467.48 976.55 Q 466.44 978.57 464.71 979.52 Q 462.97 980.48 460.80 980.48 L 460.80 980.48 Q 458.65 980.48 456.90 979.52 Q 455.15 978.57 454.12 976.55 Q 453.08 974.53 453.08 971.26 L 453.08 971.26 Q 453.08 968.00 454.12 965.96 Q 455.15 963.92 456.90 962.97 Q 458.65 962.01 460.80 962.01 M 460.80 962.69 L 460.80 962.69 Q 458.86 962.69 457.62 964.70 Q 456.38 966.71 456.38 971.26 L 456.38 971.26 Q 456.38 975.82 457.62 977.81 Q 458.86 979.80 460.80 979.80 L 460.80 979.80 Q 462.73 979.80 463.98 977.81 Q 465.22 975.82 465.22 971.26 L 465.22 971.26 Q 465.22 966.71 463.98 964.70 Q 462.73 962.69 460.80 962.69 M 479.50 953.41 L 479.50 953.41 Q 480.45 953.41 481.18 953.67 Q 481.91 953.92 482.45 954.33 L 482.45 954.33 Q 482.96 954.74 483.24 955.28 Q 483.51 955.83 483.51 956.44 L 483.51 956.44 Q 483.51 957.22 483.00 957.73 Q 482.49 958.24 481.71 958.24 L 481.71 958.24 Q 480.96 958.24 480.40 957.75 Q 479.84 957.25 479.84 956.40 L 479.84 956.40 Q 479.84 955.69 480.23 955.25 Q 480.62 954.81 481.26 954.67 L 481.26 954.67 Q 481.16 954.36 480.74 954.14 Q 480.31 953.92 479.60 953.92 L 479.60 953.92 Q 478.82 953.92 478.26 954.26 Q 477.69 954.60 477.39 955.18 L 477.39 955.18 Q 476.98 955.89 476.88 957.30 Q 476.78 958.72 476.78 961.64 L 476.78 961.64 L 476.78 962.52 L 480.41 962.52 L 480.41 963.20 L 476.78 963.20 L 476.78 976.50 Q 476.78 978.16 477.75 978.73 Q 478.71 979.29 480.38 979.29 L 480.38 979.29 L 480.38 980.00 Q 479.60 979.97 478.17 979.91 Q 476.74 979.86 475.14 979.86 L 475.14 979.86 Q 473.99 979.86 472.85 979.91 Q 471.71 979.97 471.13 980.00 L 471.13 980.00 L 471.13 979.29 Q 472.53 979.29 473.12 978.78 Q 473.72 978.27 473.72 976.84 L 473.72 976.84 L 473.72 963.20 L 471.00 963.20 L 471.00 962.52 L 473.72 962.52 Q 473.72 960.52 473.89 959.16 Q 474.06 957.80 474.43 956.83 Q 474.80 955.86 475.45 955.11 L 475.45 955.11 Q 476.13 954.33 477.18 953.87 Q 478.24 953.41 479.50 953.41 M 499.11 962.01 L 499.11 962.01 Q 502.11 962.01 503.79 963.83 Q 505.47 965.65 505.47 969.49 L 505.47 969.49 L 493.47 969.49 L 493.44 968.85 L 502.21 968.85 Q 502.28 967.18 501.94 965.77 Q 501.60 964.36 500.87 963.51 Q 500.13 962.66 498.98 962.66 L 498.98 962.66 Q 497.41 962.66 496.21 964.22 Q 495.00 965.79 494.76 969.19 L 494.76 969.19 L 494.86 969.32 Q 494.80 969.83 494.76 970.45 Q 494.73 971.06 494.73 971.67 L 494.73 971.67 Q 494.73 973.98 495.48 975.65 Q 496.22 977.31 497.43 978.18 Q 498.64 979.05 499.93 979.05 L 499.93 979.05 Q 500.95 979.05 501.87 978.73 Q 502.79 978.40 503.57 977.65 Q 504.35 976.91 504.93 975.65 L 504.93 975.65 L 505.61 975.92 Q 505.23 977.04 504.38 978.10 Q 503.53 979.15 502.24 979.81 Q 500.95 980.48 499.25 980.48 L 499.25 980.48 Q 496.80 980.48 495.05 979.35 Q 493.30 978.23 492.37 976.24 Q 491.43 974.25 491.43 971.67 L 491.43 971.67 Q 491.43 968.68 492.38 966.52 Q 493.33 964.36 495.07 963.19 Q 496.80 962.01 499.11 962.01 M 523.60 962.49 L 523.60 962.49 L 523.60 963.17 Q 522.95 963.24 522.40 963.75 Q 521.86 964.26 521.38 965.55 L 521.38 965.55 L 515.81 980.17 Q 515.67 980.17 515.54 980.17 Q 515.40 980.17 515.23 980.17 L 515.23 980.17 L 508.97 965.11 Q 508.43 963.78 507.90 963.49 Q 507.38 963.20 507.00 963.20 L 507.00 963.20 L 507.00 962.49 Q 507.68 962.52 508.41 962.58 Q 509.14 962.63 509.99 962.63 L 509.99 962.63 Q 511.05 962.63 512.22 962.59 Q 513.39 962.56 514.41 962.49 L 514.41 962.49 L 514.41 963.20 Q 513.56 963.20 512.90 963.32 Q 512.24 963.44 512.05 963.99 Q 511.86 964.53 512.38 965.86 L 512.38 965.86 L 516.63 976.36 L 516.42 976.53 L 520.30 966.37 Q 520.74 965.24 520.65 964.58 Q 520.57 963.92 519.97 963.58 Q 519.38 963.24 518.15 963.17 L 518.15 963.17 L 518.15 962.49 Q 518.77 962.52 519.21 962.54 Q 519.65 962.56 520.08 962.58 Q 520.50 962.59 521.01 962.59 L 521.01 962.59 Q 521.79 962.59 522.42 962.56 Q 523.05 962.52 523.60 962.49 M 532.95 962.01 L 532.95 962.01 Q 535.94 962.01 537.62 963.83 Q 539.30 965.65 539.30 969.49 L 539.30 969.49 L 527.30 969.49 L 527.27 968.85 L 536.04 968.85 Q 536.11 967.18 535.77 965.77 Q 535.43 964.36 534.70 963.51 Q 533.97 962.66 532.81 962.66 L 532.81 962.66 Q 531.25 962.66 530.04 964.22 Q 528.83 965.79 528.59 969.19 L 528.59 969.19 L 528.70 969.32 Q 528.63 969.83 528.59 970.45 Q 528.56 971.06 528.56 971.67 L 528.56 971.67 Q 528.56 973.98 529.31 975.65 Q 530.05 977.31 531.26 978.18 Q 532.47 979.05 533.76 979.05 L 533.76 979.05 Q 534.78 979.05 535.70 978.73 Q 536.62 978.40 537.40 977.65 Q 538.18 976.91 538.76 975.65 L 538.76 975.65 L 539.44 975.92 Q 539.07 977.04 538.22 978.10 Q 537.37 979.15 536.07 979.81 Q 534.78 980.48 533.08 980.48 L 533.08 980.48 Q 530.63 980.48 528.88 979.35 Q 527.13 978.23 526.20 976.24 Q 525.26 974.25 525.26 971.67 L 525.26 971.67 Q 525.26 968.68 526.21 966.52 Q 527.16 964.36 528.90 963.19 Q 530.63 962.01 532.95 962.01 M 552.46 962.01 L 552.46 962.01 Q 553.38 962.01 554.08 962.39 Q 554.77 962.76 555.16 963.36 Q 555.55 963.95 555.55 964.70 L 555.55 964.70 Q 555.55 965.55 555.03 966.20 Q 554.50 966.84 553.62 966.84 L 553.62 966.84 Q 552.90 966.84 552.36 966.38 Q 551.81 965.92 551.81 965.07 L 551.81 965.07 Q 551.81 964.43 552.17 963.97 Q 552.53 963.51 552.97 963.24 L 552.97 963.24 Q 552.73 962.90 552.26 962.90 L 552.26 962.90 Q 551.20 962.90 550.32 963.53 Q 549.43 964.16 548.82 965.14 Q 548.21 966.13 547.87 967.23 Q 547.53 968.34 547.53 969.29 L 547.53 969.29 L 547.53 976.50 Q 547.53 978.16 548.50 978.73 Q 549.47 979.29 551.13 979.29 L 551.13 979.29 L 551.13 980.00 Q 550.35 979.97 548.92 979.91 Q 547.50 979.86 545.90 979.86 L 545.90 979.86 Q 544.74 979.86 543.60 979.91 Q 542.46 979.97 541.89 980.00 L 541.89 980.00 L 541.89 979.29 Q 543.28 979.29 543.88 978.78 Q 544.47 978.27 544.47 976.84 L 544.47 976.84 L 544.47 966.20 Q 544.47 964.67 543.93 963.93 Q 543.38 963.20 541.89 963.20 L 541.89 963.20 L 541.89 962.49 Q 542.97 962.59 544.00 962.59 L 544.00 962.59 Q 544.98 962.59 545.88 962.47 Q 546.78 962.35 547.53 962.12 L 547.53 962.12 L 547.53 966.37 Q 547.90 965.38 548.60 964.38 Q 549.30 963.37 550.28 962.69 Q 551.27 962.01 552.46 962.01 M 572.83 962.49 L 572.83 962.49 L 572.83 963.17 Q 572.18 963.24 571.64 963.75 Q 571.09 964.26 570.62 965.55 L 570.62 965.55 L 565.04 980.17 L 564.46 980.17 L 558.21 965.11 Q 557.56 963.78 556.93 963.49 Q 556.30 963.20 555.89 963.20 L 555.89 963.20 L 555.89 962.49 Q 556.64 962.59 557.46 962.64 Q 558.27 962.69 559.23 962.69 L 559.23 962.69 Q 560.28 962.69 561.45 962.63 Q 562.63 962.56 563.65 962.49 L 563.65 962.49 L 563.65 963.20 Q 562.80 963.20 562.13 963.32 Q 561.47 963.44 561.30 964.04 Q 561.13 964.63 561.71 966.06 L 561.71 966.06 L 565.89 976.43 L 565.69 976.50 L 569.56 966.37 Q 570.00 965.24 569.92 964.58 Q 569.83 963.92 569.22 963.58 Q 568.61 963.24 567.39 963.17 L 567.39 963.17 L 567.39 962.49 Q 568.00 962.52 568.44 962.54 Q 568.88 962.56 569.31 962.58 Q 569.73 962.59 570.24 962.59 L 570.24 962.59 Q 571.02 962.59 571.65 962.56 Q 572.28 962.52 572.83 962.49 M 564.39 979.90 L 565.04 980.17 L 563.88 983.13 Q 563.54 983.98 563.19 984.56 Q 562.83 985.13 562.42 985.51 L 562.42 985.51 Q 561.88 986.02 561.13 986.21 Q 560.38 986.39 559.77 986.39 L 559.77 986.39 Q 559.13 986.39 558.60 986.15 Q 558.07 985.92 557.76 985.46 Q 557.46 985.00 557.46 984.35 L 557.46 984.35 Q 557.46 983.54 557.93 983.04 Q 558.41 982.55 559.26 982.55 L 559.26 982.55 Q 559.97 982.55 560.48 982.96 Q 561.00 983.37 561.00 984.15 L 561.00 984.15 Q 561.00 984.73 560.72 985.10 Q 560.45 985.47 560.08 985.68 L 560.08 985.68 Q 560.14 985.71 560.20 985.71 Q 560.25 985.71 560.28 985.71 L 560.28 985.71 Q 561.20 985.71 561.91 985.08 Q 562.63 984.45 563.17 983.06 L 563.17 983.06 L 564.39 979.90 M 579.63 956.85 L 579.63 956.85 L 579.63 962.52 L 584.66 962.52 L 584.66 963.20 L 579.63 963.20 L 579.63 976.36 Q 579.63 977.96 580.20 978.61 Q 580.78 979.25 581.80 979.25 L 581.80 979.25 Q 582.82 979.25 583.57 978.42 Q 584.32 977.59 584.86 975.61 L 584.86 975.61 L 585.54 975.78 Q 585.20 977.76 584.20 979.12 Q 583.20 980.48 581.12 980.48 L 581.12 980.48 Q 579.97 980.48 579.22 980.19 Q 578.47 979.90 577.89 979.35 L 577.89 979.35 Q 577.14 978.57 576.86 977.48 Q 576.57 976.40 576.57 974.59 L 576.57 974.59 L 576.57 963.20 L 573.30 963.20 L 573.30 962.52 L 576.57 962.52 L 576.57 957.32 Q 577.42 957.29 578.20 957.19 Q 578.98 957.08 579.63 956.85 M 591.53 953.38 L 591.53 953.38 L 591.53 966.09 Q 592.41 963.78 593.99 962.90 Q 595.57 962.01 597.31 962.01 L 597.31 962.01 Q 598.60 962.01 599.47 962.35 Q 600.33 962.69 600.91 963.31 L 600.91 963.31 Q 601.56 963.99 601.83 965.01 Q 602.10 966.03 602.10 967.76 L 602.10 967.76 L 602.10 976.84 Q 602.10 978.27 602.70 978.78 Q 603.29 979.29 604.68 979.29 L 604.68 979.29 L 604.68 980.00 Q 604.11 979.97 602.92 979.91 Q 601.73 979.86 600.61 979.86 L 600.61 979.86 Q 599.48 979.86 598.41 979.91 Q 597.34 979.97 596.80 980.00 L 596.80 980.00 L 596.80 979.29 Q 598.02 979.29 598.53 978.78 Q 599.04 978.27 599.04 976.84 L 599.04 976.84 L 599.04 967.01 Q 599.04 965.96 598.87 965.07 Q 598.70 964.19 598.11 963.65 Q 597.51 963.10 596.29 963.10 L 596.29 963.10 Q 594.89 963.10 593.82 963.88 Q 592.75 964.67 592.14 966.06 Q 591.53 967.45 591.53 969.26 L 591.53 969.26 L 591.53 976.84 Q 591.53 978.27 592.04 978.78 Q 592.55 979.29 593.77 979.29 L 593.77 979.29 L 593.77 980.00 Q 593.23 979.97 592.16 979.91 Q 591.08 979.86 589.96 979.86 L 589.96 979.86 Q 588.84 979.86 587.65 979.91 Q 586.46 979.97 585.88 980.00 L 585.88 980.00 L 585.88 979.29 Q 587.28 979.29 587.87 978.78 Q 588.47 978.27 588.47 976.84 L 588.47 976.84 L 588.47 957.46 Q 588.47 955.93 587.92 955.20 Q 587.38 954.47 585.88 954.47 L 585.88 954.47 L 585.88 953.75 Q 586.97 953.85 587.99 953.85 L 587.99 953.85 Q 588.98 953.85 589.88 953.74 Q 590.78 953.62 591.53 953.38 M 610.06 953.99 L 610.06 953.99 Q 610.94 953.99 611.59 954.64 Q 612.23 955.28 612.23 956.17 L 612.23 956.17 Q 612.23 957.05 611.59 957.70 Q 610.94 958.34 610.06 958.34 L 610.06 958.34 Q 609.17 958.34 608.53 957.70 Q 607.88 957.05 607.88 956.17 L 607.88 956.17 Q 607.88 955.28 608.53 954.64 Q 609.17 953.99 610.06 953.99 M 611.82 962.12 L 611.82 962.12 L 611.82 976.84 Q 611.82 978.27 612.42 978.78 Q 613.01 979.29 614.41 979.29 L 614.41 979.29 L 614.41 980.00 Q 613.83 979.97 612.66 979.91 Q 611.48 979.86 610.29 979.86 L 610.29 979.86 Q 609.14 979.86 607.95 979.91 Q 606.76 979.97 606.18 980.00 L 606.18 980.00 L 606.18 979.29 Q 607.57 979.29 608.17 978.78 Q 608.76 978.27 608.76 976.84 L 608.76 976.84 L 608.76 966.20 Q 608.76 964.67 608.22 963.93 Q 607.68 963.20 606.18 963.20 L 606.18 963.20 L 606.18 962.49 Q 607.27 962.59 608.29 962.59 L 608.29 962.59 Q 609.27 962.59 610.18 962.47 Q 611.08 962.35 611.82 962.12 M 627.57 962.01 L 627.57 962.01 Q 628.86 962.01 629.73 962.35 Q 630.59 962.69 631.17 963.31 L 631.17 963.31 Q 631.82 963.99 632.09 965.01 Q 632.36 966.03 632.36 967.76 L 632.36 967.76 L 632.36 976.84 Q 632.36 978.27 632.96 978.78 Q 633.55 979.29 634.94 979.29 L 634.94 979.29 L 634.94 980.00 Q 634.37 979.97 633.18 979.91 Q 631.99 979.86 630.86 979.86 L 630.86 979.86 Q 629.74 979.86 628.67 979.91 Q 627.60 979.97 627.06 980.00 L 627.06 980.00 L 627.06 979.29 Q 628.28 979.29 628.79 978.78 Q 629.30 978.27 629.30 976.84 L 629.30 976.84 L 629.30 967.01 Q 629.30 965.96 629.13 965.07 Q 628.96 964.19 628.37 963.65 Q 627.77 963.10 626.55 963.10 L 626.55 963.10 Q 625.12 963.10 624.05 963.92 Q 622.98 964.73 622.38 966.14 Q 621.79 967.56 621.79 969.29 L 621.79 969.29 L 621.79 976.84 Q 621.79 978.27 622.30 978.78 Q 622.81 979.29 624.03 979.29 L 624.03 979.29 L 624.03 980.00 Q 623.49 979.97 622.42 979.91 Q 621.34 979.86 620.22 979.86 L 620.22 979.86 Q 619.10 979.86 617.91 979.91 Q 616.72 979.97 616.14 980.00 L 616.14 980.00 L 616.14 979.29 Q 617.54 979.29 618.13 978.78 Q 618.73 978.27 618.73 976.84 L 618.73 976.84 L 618.73 966.20 Q 618.73 964.67 618.18 963.93 Q 617.64 963.20 616.14 963.20 L 616.14 963.20 L 616.14 962.49 Q 617.23 962.59 618.25 962.59 L 618.25 962.59 Q 619.24 962.59 620.14 962.47 Q 621.04 962.35 621.79 962.12 L 621.79 962.12 L 621.79 966.13 Q 622.67 963.82 624.25 962.91 Q 625.83 962.01 627.57 962.01 M 642.70 986.39 L 642.70 986.39 Q 640.89 986.39 639.30 986.02 Q 637.70 985.64 636.73 984.85 Q 635.76 984.05 635.76 982.82 L 635.76 982.82 Q 635.76 981.63 636.71 980.78 Q 637.66 979.93 639.30 979.49 L 639.30 979.49 L 639.50 980.03 Q 638.75 980.27 638.31 980.99 Q 637.87 981.70 637.87 982.58 L 637.87 982.58 Q 637.87 984.15 639.31 984.98 Q 640.76 985.81 643.07 985.81 L 643.07 985.81 Q 644.60 985.81 646.06 985.42 Q 647.52 985.03 648.48 984.11 Q 649.43 983.20 649.43 981.70 L 649.43 981.70 Q 649.43 980.58 648.63 979.85 Q 647.83 979.12 645.48 979.12 L 645.48 979.12 L 642.97 979.12 Q 641.88 979.12 640.86 978.95 Q 639.84 978.78 639.19 978.23 Q 638.55 977.69 638.55 976.57 L 638.55 976.57 Q 638.55 975.41 639.50 974.34 Q 640.45 973.27 643.00 972.15 L 643.00 972.15 L 643.41 972.45 Q 642.25 973.06 641.40 973.69 Q 640.55 974.32 640.55 975.17 L 640.55 975.17 Q 640.55 976.26 642.19 976.26 L 642.19 976.26 L 646.44 976.26 Q 647.86 976.26 649.07 976.67 Q 650.28 977.08 651.03 977.96 Q 651.77 978.84 651.77 980.27 L 651.77 980.27 Q 651.77 981.87 650.75 983.26 Q 649.73 984.66 647.71 985.52 Q 645.69 986.39 642.70 986.39 M 642.87 972.76 L 642.87 972.76 Q 641.20 972.76 639.84 972.20 Q 638.48 971.64 637.70 970.45 Q 636.92 969.26 636.92 967.39 L 636.92 967.39 Q 636.92 965.52 637.70 964.33 Q 638.48 963.14 639.84 962.58 Q 641.20 962.01 642.87 962.01 L 642.87 962.01 Q 644.57 962.01 645.91 962.58 Q 647.25 963.14 648.03 964.33 Q 648.82 965.52 648.82 967.39 L 648.82 967.39 Q 648.82 969.26 648.03 970.45 Q 647.25 971.64 645.91 972.20 Q 644.57 972.76 642.87 972.76 M 642.87 972.15 L 642.87 972.15 Q 644.16 972.15 644.89 971.13 Q 645.62 970.11 645.62 967.39 L 645.62 967.39 Q 645.62 964.67 644.89 963.65 Q 644.16 962.63 642.87 962.63 L 642.87 962.63 Q 641.61 962.63 640.86 963.65 Q 640.11 964.67 640.11 967.39 L 640.11 967.39 Q 640.11 970.11 640.86 971.13 Q 641.61 972.15 642.87 972.15 M 647.76 964.84 L 647.76 964.84 L 647.15 964.60 Q 647.63 963.44 648.78 962.56 Q 649.94 961.67 651.20 961.67 L 651.20 961.67 Q 652.08 961.67 652.62 962.17 Q 653.17 962.66 653.17 963.65 L 653.17 963.65 Q 653.17 964.70 652.61 965.13 Q 652.05 965.55 651.47 965.55 L 651.47 965.55 Q 650.96 965.55 650.52 965.19 Q 650.07 964.84 650.01 964.05 Q 649.94 963.27 650.48 962.05 L 650.48 962.05 L 650.92 962.15 Q 649.50 962.69 648.88 963.29 Q 648.27 963.88 647.76 964.84 M 678.67 962.49 L 678.67 962.49 L 678.67 963.17 Q 678.02 963.24 677.48 963.75 Q 676.93 964.26 676.46 965.55 L 676.46 965.55 L 670.88 980.17 L 670.30 980.17 L 664.05 965.11 Q 663.40 963.78 662.77 963.49 Q 662.14 963.20 661.74 963.20 L 661.74 963.20 L 661.74 962.49 Q 662.48 962.59 663.30 962.64 Q 664.12 962.69 665.07 962.69 L 665.07 962.69 Q 666.12 962.69 667.30 962.63 Q 668.47 962.56 669.49 962.49 L 669.49 962.49 L 669.49 963.20 Q 668.64 963.20 667.98 963.32 Q 667.31 963.44 667.14 964.04 Q 666.97 964.63 667.55 966.06 L 667.55 966.06 L 671.73 976.43 L 671.53 976.50 L 675.40 966.37 Q 675.85 965.24 675.76 964.58 Q 675.68 963.92 675.06 963.58 Q 674.45 963.24 673.23 963.17 L 673.23 963.17 L 673.23 962.49 Q 673.84 962.52 674.28 962.54 Q 674.72 962.56 675.15 962.58 Q 675.57 962.59 676.08 962.59 L 676.08 962.59 Q 676.87 962.59 677.50 962.56 Q 678.12 962.52 678.67 962.49 M 670.24 979.90 L 670.88 980.17 L 669.73 983.13 Q 669.39 983.98 669.03 984.56 Q 668.67 985.13 668.26 985.51 L 668.26 985.51 Q 667.72 986.02 666.97 986.21 Q 666.22 986.39 665.61 986.39 L 665.61 986.39 Q 664.97 986.39 664.44 986.15 Q 663.91 985.92 663.61 985.46 Q 663.30 985.00 663.30 984.35 L 663.30 984.35 Q 663.30 983.54 663.78 983.04 Q 664.25 982.55 665.10 982.55 L 665.10 982.55 Q 665.82 982.55 666.33 982.96 Q 666.84 983.37 666.84 984.15 L 666.84 984.15 Q 666.84 984.73 666.56 985.10 Q 666.29 985.47 665.92 985.68 L 665.92 985.68 Q 665.99 985.71 666.04 985.71 Q 666.09 985.71 666.12 985.71 L 666.12 985.71 Q 667.04 985.71 667.75 985.08 Q 668.47 984.45 669.01 983.06 L 669.01 983.06 L 670.24 979.90 M 688.32 962.01 L 688.32 962.01 Q 690.50 962.01 692.23 962.97 Q 693.97 963.92 695.01 965.96 Q 696.04 968.00 696.04 971.26 L 696.04 971.26 Q 696.04 974.53 695.01 976.55 Q 693.97 978.57 692.23 979.52 Q 690.50 980.48 688.32 980.48 L 688.32 980.48 Q 686.18 980.48 684.43 979.52 Q 682.68 978.57 681.64 976.55 Q 680.61 974.53 680.61 971.26 L 680.61 971.26 Q 680.61 968.00 681.64 965.96 Q 682.68 963.92 684.43 962.97 Q 686.18 962.01 688.32 962.01 M 688.32 962.69 L 688.32 962.69 Q 686.39 962.69 685.15 964.70 Q 683.90 966.71 683.90 971.26 L 683.90 971.26 Q 683.90 975.82 685.15 977.81 Q 686.39 979.80 688.32 979.80 L 688.32 979.80 Q 690.26 979.80 691.50 977.81 Q 692.74 975.82 692.74 971.26 L 692.74 971.26 Q 692.74 966.71 691.50 964.70 Q 690.26 962.69 688.32 962.69 M 714.06 962.12 L 714.06 962.12 L 714.06 976.33 Q 714.06 977.86 714.62 978.59 Q 715.18 979.32 716.65 979.32 L 716.65 979.32 L 716.65 980.03 Q 715.59 979.93 714.54 979.93 L 714.54 979.93 Q 713.55 979.93 712.65 980.03 Q 711.75 980.14 711.00 980.41 L 711.00 980.41 L 711.00 976.40 Q 710.15 978.61 708.61 979.54 Q 707.06 980.48 705.43 980.48 L 705.43 980.48 Q 704.24 980.48 703.35 980.14 Q 702.47 979.80 701.89 979.18 L 701.89 979.18 Q 701.24 978.50 701.01 977.42 Q 700.77 976.33 700.77 974.73 L 700.77 974.73 L 700.77 966.20 Q 700.77 964.67 700.22 963.93 Q 699.68 963.20 698.18 963.20 L 698.18 963.20 L 698.18 962.49 Q 699.27 962.59 700.29 962.59 L 700.29 962.59 Q 701.28 962.59 702.18 962.47 Q 703.08 962.35 703.83 962.12 L 703.83 962.12 L 703.83 975.48 Q 703.83 976.53 703.96 977.42 Q 704.10 978.30 704.64 978.84 Q 705.19 979.39 706.41 979.39 L 706.41 979.39 Q 707.74 979.39 708.78 978.57 Q 709.81 977.76 710.41 976.36 Q 711.00 974.97 711.00 973.23 L 711.00 973.23 L 711.00 966.20 Q 711.00 964.67 710.46 963.93 Q 709.91 963.20 708.42 963.20 L 708.42 963.20 L 708.42 962.49 Q 709.51 962.59 710.53 962.59 L 710.53 962.59 Q 711.51 962.59 712.41 962.47 Q 713.31 962.35 714.06 962.12 M 735.18 962.01 L 735.18 962.01 Q 737.35 962.01 739.09 962.97 Q 740.82 963.92 741.86 965.96 Q 742.89 968.00 742.89 971.26 L 742.89 971.26 Q 742.89 974.53 741.86 976.55 Q 740.82 978.57 739.09 979.52 Q 737.35 980.48 735.18 980.48 L 735.18 980.48 Q 733.03 980.48 731.28 979.52 Q 729.53 978.57 728.50 976.55 Q 727.46 974.53 727.46 971.26 L 727.46 971.26 Q 727.46 968.00 728.50 965.96 Q 729.53 963.92 731.28 962.97 Q 733.03 962.01 735.18 962.01 M 735.18 962.69 L 735.18 962.69 Q 733.24 962.69 732.00 964.70 Q 730.76 966.71 730.76 971.26 L 730.76 971.26 Q 730.76 975.82 732.00 977.81 Q 733.24 979.80 735.18 979.80 L 735.18 979.80 Q 737.11 979.80 738.36 977.81 Q 739.60 975.82 739.60 971.26 L 739.60 971.26 Q 739.60 966.71 738.36 964.70 Q 737.11 962.69 735.18 962.69 M 751.90 962.49 L 751.90 962.49 L 751.90 963.20 Q 751.05 963.20 750.41 963.32 Q 749.76 963.44 749.56 964.02 Q 749.35 964.60 749.86 966.06 L 749.86 966.06 L 753.40 976.19 L 753.16 976.16 L 758.16 962.35 L 758.84 962.63 L 752.62 980.17 Q 752.48 980.17 752.35 980.17 Q 752.21 980.17 752.04 980.17 L 752.04 980.17 L 746.46 965.11 Q 745.92 963.75 745.39 963.48 Q 744.87 963.20 744.49 963.20 L 744.49 963.20 L 744.49 962.49 Q 745.17 962.59 745.90 962.64 Q 746.63 962.69 747.48 962.69 L 747.48 962.69 Q 748.54 962.69 749.71 962.63 Q 750.88 962.56 751.90 962.49 M 770.57 962.49 L 770.57 962.49 L 770.57 963.17 Q 769.92 963.24 769.36 963.73 Q 768.80 964.22 768.36 965.55 L 768.36 965.55 L 763.43 980.17 Q 763.29 980.17 763.16 980.17 Q 763.02 980.17 762.85 980.17 L 762.85 980.17 L 757.38 966.26 L 758.16 962.35 Q 758.36 962.35 758.55 962.35 Q 758.74 962.35 758.94 962.35 L 758.94 962.35 L 764.25 976.40 L 763.97 976.60 L 767.34 966.37 Q 767.71 965.21 767.63 964.55 Q 767.54 963.88 766.95 963.56 Q 766.35 963.24 765.13 963.17 L 765.13 963.17 L 765.13 962.49 Q 765.74 962.52 766.18 962.54 Q 766.63 962.56 767.05 962.58 Q 767.48 962.59 767.99 962.59 L 767.99 962.59 Q 768.77 962.59 769.40 962.56 Q 770.03 962.52 770.57 962.49 M 783.08 962.01 L 783.08 962.01 Q 784.37 962.01 785.24 962.35 Q 786.11 962.69 786.69 963.31 L 786.69 963.31 Q 787.33 963.99 787.60 965.01 Q 787.88 966.03 787.88 967.76 L 787.88 967.76 L 787.88 976.84 Q 787.88 978.27 788.47 978.78 Q 789.07 979.29 790.46 979.29 L 790.46 979.29 L 790.46 980.00 Q 789.88 979.97 788.69 979.91 Q 787.50 979.86 786.38 979.86 L 786.38 979.86 Q 785.26 979.86 784.19 979.91 Q 783.12 979.97 782.57 980.00 L 782.57 980.00 L 782.57 979.29 Q 783.80 979.29 784.31 978.78 Q 784.82 978.27 784.82 976.84 L 784.82 976.84 L 784.82 967.01 Q 784.82 965.96 784.65 965.07 Q 784.48 964.19 783.88 963.65 Q 783.29 963.10 782.06 963.10 L 782.06 963.10 Q 780.63 963.10 779.56 963.92 Q 778.49 964.73 777.90 966.14 Q 777.30 967.56 777.30 969.29 L 777.30 969.29 L 777.30 976.84 Q 777.30 978.27 777.81 978.78 Q 778.32 979.29 779.55 979.29 L 779.55 979.29 L 779.55 980.00 Q 779.00 979.97 777.93 979.91 Q 776.86 979.86 775.74 979.86 L 775.74 979.86 Q 774.62 979.86 773.43 979.91 Q 772.24 979.97 771.66 980.00 L 771.66 980.00 L 771.66 979.29 Q 773.05 979.29 773.65 978.78 Q 774.24 978.27 774.24 976.84 L 774.24 976.84 L 774.24 966.20 Q 774.24 964.67 773.70 963.93 Q 773.15 963.20 771.66 963.20 L 771.66 963.20 L 771.66 962.49 Q 772.75 962.59 773.77 962.59 L 773.77 962.59 Q 774.75 962.59 775.65 962.47 Q 776.55 962.35 777.30 962.12 L 777.30 962.12 L 777.30 966.13 Q 778.19 963.82 779.77 962.91 Q 781.35 962.01 783.08 962.01 M 795.25 976.12 L 795.25 976.12 Q 796.14 976.12 796.78 976.77 Q 797.43 977.42 797.43 978.30 L 797.43 978.30 Q 797.43 979.18 796.78 979.83 Q 796.14 980.48 795.25 980.48 L 795.25 980.48 Q 794.37 980.48 793.72 979.83 Q 793.08 979.18 793.08 978.30 L 793.08 978.30 Q 793.08 977.42 793.72 976.77 Q 794.37 976.12 795.25 976.12" fill="#78716c"/>
  </svg>