<svg xmlns="http://www.w3.org/2000/svg" width="1080" height="1350" viewBox="0 0 1080 1350">
    <rect width="1080" height="1350" fill="#F7F5F2"/>
  <rect x="40" y="40" width="1000" height="1270" fill="none" stroke="#D4B378" stroke-width="1.5" opacity="0.5"/>
    <text x="540" y="210" text-anchor="middle" fill="#D4B378" font-family="'Helvetica Neue', Arial, sans-serif" font-size="27" letter-spacing="8" style="text-transform:uppercase">On Colour</text>
    <line x1="500" y1="270" x2="580" y2="270" stroke="#D4B378" stroke-width="1.4" opacity="0.85"/>
    <path d="M 206.82 582.10 L 206.82 582.10 Q 206.59 584.30 206.50 586.36 Q 206.41 588.42 206.41 589.52 L 206.41 589.52 Q 206.41 590.91 206.47 592.13 Q 206.53 593.35 206.59 594.28 L 206.59 594.28 L 205.25 594.28 Q 204.85 590.22 204.15 587.87 Q 203.46 585.52 201.72 584.47 Q 199.97 583.43 196.32 583.43 L 196.32 583.43 L 193.19 583.43 L 193.19 616.43 Q 193.19 618.75 193.62 619.91 Q 194.06 621.07 195.34 621.48 Q 196.61 621.88 199.05 622.00 L 199.05 622.00 L 199.05 623.16 Q 197.54 623.04 195.22 623.01 Q 192.90 622.99 190.52 622.99 L 190.52 622.99 Q 187.91 622.99 185.62 623.01 Q 183.33 623.04 181.94 623.16 L 181.94 623.16 L 181.94 622.00 Q 184.37 621.88 185.65 621.48 Q 186.93 621.07 187.36 619.91 Q 187.80 618.75 187.80 616.43 L 187.80 616.43 L 187.80 583.43 L 184.66 583.43 Q 181.07 583.43 179.30 584.47 Q 177.53 585.52 176.83 587.87 Q 176.14 590.22 175.73 594.28 L 175.73 594.28 L 174.40 594.28 Q 174.51 593.35 174.54 592.13 Q 174.57 590.91 174.57 589.52 L 174.57 589.52 Q 174.57 588.42 174.48 586.36 Q 174.40 584.30 174.16 582.10 L 174.16 582.10 Q 176.60 582.15 179.47 582.21 Q 182.34 582.27 185.24 582.27 Q 188.14 582.27 190.52 582.27 L 190.52 582.27 Q 192.90 582.27 195.77 582.27 Q 198.64 582.27 201.54 582.21 Q 204.44 582.15 206.82 582.10 M 219.29 577.75 L 219.29 577.75 L 219.29 599.44 Q 220.80 595.49 223.49 593.99 Q 226.19 592.48 229.15 592.48 L 229.15 592.48 Q 231.35 592.48 232.83 593.06 Q 234.31 593.64 235.30 594.68 L 235.30 594.68 Q 236.40 595.84 236.86 597.58 Q 237.33 599.32 237.33 602.28 L 237.33 602.28 L 237.33 617.77 Q 237.33 620.20 238.34 621.07 Q 239.36 621.94 241.74 621.94 L 241.74 621.94 L 241.74 623.16 Q 240.75 623.10 238.72 623.01 Q 236.69 622.93 234.78 622.93 L 234.78 622.93 Q 232.86 622.93 231.03 623.01 Q 229.21 623.10 228.28 623.16 L 228.28 623.16 L 228.28 621.94 Q 230.37 621.94 231.24 621.07 Q 232.11 620.20 232.11 617.77 L 232.11 617.77 L 232.11 601.00 Q 232.11 599.21 231.82 597.70 Q 231.53 596.19 230.51 595.26 Q 229.50 594.33 227.41 594.33 L 227.41 594.33 Q 225.03 594.33 223.20 595.67 Q 221.38 597.00 220.33 599.38 Q 219.29 601.76 219.29 604.83 L 219.29 604.83 L 219.29 617.77 Q 219.29 620.20 220.16 621.07 Q 221.03 621.94 223.12 621.94 L 223.12 621.94 L 223.12 623.16 Q 222.19 623.10 220.36 623.01 Q 218.53 622.93 216.62 622.93 L 216.62 622.93 Q 214.71 622.93 212.68 623.01 Q 210.65 623.10 209.66 623.16 L 209.66 623.16 L 209.66 621.94 Q 212.04 621.94 213.05 621.07 Q 214.07 620.20 214.07 617.77 L 214.07 617.77 L 214.07 584.71 Q 214.07 582.10 213.14 580.85 Q 212.21 579.60 209.66 579.60 L 209.66 579.60 L 209.66 578.38 Q 211.52 578.56 213.26 578.56 L 213.26 578.56 Q 214.94 578.56 216.48 578.36 Q 218.01 578.15 219.29 577.75 M 258.38 592.48 L 258.38 592.48 Q 263.49 592.48 266.36 595.58 Q 269.23 598.68 269.23 605.24 L 269.23 605.24 L 248.75 605.24 L 248.70 604.14 L 263.66 604.14 Q 263.78 601.29 263.19 598.89 Q 262.62 596.48 261.37 595.03 Q 260.12 593.58 258.15 593.58 L 258.15 593.58 Q 255.48 593.58 253.42 596.25 Q 251.36 598.92 250.96 604.72 L 250.96 604.72 L 251.13 604.95 Q 251.02 605.82 250.96 606.86 Q 250.90 607.91 250.90 608.95 L 250.90 608.95 Q 250.90 612.89 252.18 615.74 Q 253.45 618.58 255.51 620.06 Q 257.57 621.54 259.77 621.54 L 259.77 621.54 Q 261.51 621.54 263.08 620.99 Q 264.65 620.43 265.98 619.16 Q 267.31 617.88 268.30 615.74 L 268.30 615.74 L 269.46 616.20 Q 268.82 618.11 267.37 619.91 Q 265.92 621.71 263.72 622.84 Q 261.51 623.97 258.61 623.97 L 258.61 623.97 Q 254.44 623.97 251.45 622.06 Q 248.46 620.14 246.87 616.75 Q 245.27 613.36 245.27 608.95 L 245.27 608.95 Q 245.27 603.85 246.90 600.16 Q 248.52 596.48 251.48 594.48 Q 254.44 592.48 258.38 592.48 M 297.30 592.65 L 297.30 592.65 L 297.30 628.26 Q 297.30 630.76 298.78 631.60 Q 300.26 632.44 302.87 632.44 L 302.87 632.44 L 302.87 633.66 Q 301.59 633.60 299.33 633.51 Q 297.07 633.43 294.52 633.43 L 294.52 633.43 Q 292.72 633.43 290.95 633.51 Q 289.18 633.60 288.25 633.66 L 288.25 633.66 L 288.25 632.44 Q 290.34 632.44 291.21 631.69 Q 292.08 630.93 292.08 628.84 L 292.08 628.84 L 292.08 599.61 Q 292.08 597.00 291.15 595.75 Q 290.22 594.51 287.67 594.51 L 287.67 594.51 L 287.67 593.29 Q 289.53 593.46 291.27 593.46 L 291.27 593.46 Q 292.95 593.46 294.49 593.26 Q 296.02 593.06 297.30 592.65 M 306.58 592.48 L 306.58 592.48 Q 309.65 592.48 312.09 594.13 Q 314.53 595.78 315.95 598.97 Q 317.37 602.16 317.37 606.86 L 317.37 606.86 Q 317.37 609.99 316.61 613.04 Q 315.86 616.08 314.26 618.55 Q 312.67 621.01 310.15 622.49 Q 307.62 623.97 304.09 623.97 L 304.09 623.97 Q 301.36 623.97 299.36 622.70 Q 297.36 621.42 296.66 619.62 L 296.66 619.62 L 297.24 618.81 Q 298.05 620.43 299.59 621.54 Q 301.13 622.64 303.45 622.64 L 303.45 622.64 Q 306.70 622.64 308.49 620.61 Q 310.29 618.58 311.02 615.18 Q 311.74 611.79 311.74 607.67 L 311.74 607.67 Q 311.74 603.03 310.99 600.08 Q 310.23 597.12 308.73 595.67 Q 307.22 594.22 305.01 594.22 L 305.01 594.22 Q 302.17 594.22 299.85 596.57 Q 297.53 598.92 296.89 603.67 L 296.89 603.67 L 296.20 602.86 Q 296.84 597.93 299.71 595.20 Q 302.58 592.48 306.58 592.48 M 330.01 623.57 L 330.01 623.57 Q 327.63 623.57 325.89 622.67 Q 324.15 621.77 323.25 620.14 Q 322.36 618.52 322.36 616.37 L 322.36 616.37 Q 322.36 613.82 323.54 612.20 Q 324.73 610.57 326.59 609.59 Q 328.44 608.60 330.50 607.93 Q 332.56 607.27 334.42 606.66 Q 336.28 606.05 337.46 605.24 Q 338.65 604.43 338.65 603.09 L 338.65 603.09 L 338.65 599.50 Q 338.65 597.06 337.93 595.78 Q 337.20 594.51 335.99 594.07 Q 334.77 593.64 333.26 593.64 L 333.26 593.64 Q 331.81 593.64 330.16 594.04 Q 328.50 594.45 327.52 595.73 L 327.52 595.73 Q 328.62 595.96 329.43 596.89 Q 330.24 597.81 330.24 599.26 L 330.24 599.26 Q 330.24 600.71 329.31 601.55 Q 328.39 602.40 326.94 602.40 L 326.94 602.40 Q 325.25 602.40 324.47 601.32 Q 323.69 600.25 323.69 598.92 L 323.69 598.92 Q 323.69 597.41 324.44 596.48 Q 325.20 595.55 326.36 594.74 L 326.36 594.74 Q 327.69 593.81 329.81 593.14 Q 331.93 592.48 334.59 592.48 L 334.59 592.48 Q 336.97 592.48 338.65 593.03 Q 340.34 593.58 341.44 594.62 L 341.44 594.62 Q 342.94 596.02 343.41 598.02 Q 343.87 600.02 343.87 602.80 L 343.87 602.80 L 343.87 618.93 Q 343.87 620.38 344.31 621.01 Q 344.74 621.65 345.67 621.65 L 345.67 621.65 Q 346.31 621.65 346.89 621.36 Q 347.47 621.07 348.28 620.43 L 348.28 620.43 L 348.92 621.42 Q 347.70 622.35 346.60 622.96 Q 345.50 623.57 343.64 623.57 L 343.64 623.57 Q 341.96 623.57 340.86 622.99 Q 339.75 622.41 339.20 621.27 Q 338.65 620.14 338.65 618.40 L 338.65 618.40 Q 337.09 621.01 334.91 622.29 Q 332.74 623.57 330.01 623.57 M 332.10 621.25 L 332.10 621.25 Q 334.01 621.25 335.67 620.14 Q 337.32 619.04 338.65 616.84 L 338.65 616.84 L 338.65 605.47 Q 337.96 606.46 336.62 607.12 Q 335.29 607.79 333.72 608.46 Q 332.16 609.12 330.74 610.02 Q 329.31 610.92 328.39 612.37 Q 327.46 613.82 327.46 616.14 L 327.46 616.14 Q 327.46 618.46 328.71 619.85 Q 329.95 621.25 332.10 621.25 M 359.88 577.69 L 359.88 577.69 L 359.88 617.77 Q 359.88 620.20 360.90 621.07 Q 361.91 621.94 364.29 621.94 L 364.29 621.94 L 364.29 623.16 Q 363.30 623.10 361.30 623.01 Q 359.30 622.93 357.27 622.93 L 357.27 622.93 Q 355.30 622.93 353.27 623.01 Q 351.24 623.10 350.25 623.16 L 350.25 623.16 L 350.25 621.94 Q 352.63 621.94 353.65 621.07 Q 354.66 620.20 354.66 617.77 L 354.66 617.77 L 354.66 584.65 Q 354.66 582.04 353.73 580.79 Q 352.81 579.54 350.25 579.54 L 350.25 579.54 L 350.25 578.33 Q 352.11 578.50 353.85 578.50 L 353.85 578.50 Q 355.53 578.50 357.07 578.30 Q 358.61 578.09 359.88 577.69 M 381.34 592.48 L 381.34 592.48 Q 386.45 592.48 389.32 595.58 Q 392.19 598.68 392.19 605.24 L 392.19 605.24 L 371.71 605.24 L 371.66 604.14 L 386.62 604.14 Q 386.74 601.29 386.16 598.89 Q 385.58 596.48 384.33 595.03 Q 383.08 593.58 381.11 593.58 L 381.11 593.58 Q 378.44 593.58 376.38 596.25 Q 374.32 598.92 373.92 604.72 L 373.92 604.72 L 374.09 604.95 Q 373.98 605.82 373.92 606.86 Q 373.86 607.91 373.86 608.95 L 373.86 608.95 Q 373.86 612.89 375.14 615.74 Q 376.41 618.58 378.47 620.06 Q 380.53 621.54 382.73 621.54 L 382.73 621.54 Q 384.47 621.54 386.04 620.99 Q 387.61 620.43 388.94 619.16 Q 390.27 617.88 391.26 615.74 L 391.26 615.74 L 392.42 616.20 Q 391.78 618.11 390.33 619.91 Q 388.88 621.71 386.68 622.84 Q 384.47 623.97 381.57 623.97 L 381.57 623.97 Q 377.40 623.97 374.41 622.06 Q 371.42 620.14 369.83 616.75 Q 368.23 613.36 368.23 608.95 L 368.23 608.95 Q 368.23 603.85 369.86 600.16 Q 371.48 596.48 374.44 594.48 Q 377.40 592.48 381.34 592.48 M 405.93 583.66 L 405.93 583.66 L 405.93 593.35 L 414.52 593.35 L 414.52 594.51 L 405.93 594.51 L 405.93 616.95 Q 405.93 619.68 406.92 620.78 Q 407.91 621.88 409.65 621.88 L 409.65 621.88 Q 411.39 621.88 412.66 620.46 Q 413.94 619.04 414.87 615.68 L 414.87 615.68 L 416.03 615.97 Q 415.45 619.33 413.73 621.65 Q 412.02 623.97 408.49 623.97 L 408.49 623.97 Q 406.51 623.97 405.24 623.48 Q 403.96 622.99 402.98 622.06 L 402.98 622.06 Q 401.70 620.72 401.21 618.87 Q 400.71 617.01 400.71 613.94 L 400.71 613.94 L 400.71 594.51 L 395.15 594.51 L 395.15 593.35 L 400.71 593.35 L 400.71 584.47 Q 402.16 584.42 403.50 584.24 Q 404.83 584.07 405.93 583.66 M 426.47 583.66 L 426.47 583.66 L 426.47 593.35 L 435.05 593.35 L 435.05 594.51 L 426.47 594.51 L 426.47 616.95 Q 426.47 619.68 427.45 620.78 Q 428.44 621.88 430.18 621.88 L 430.18 621.88 Q 431.92 621.88 433.19 620.46 Q 434.47 619.04 435.40 615.68 L 435.40 615.68 L 436.56 615.97 Q 435.98 619.33 434.27 621.65 Q 432.56 623.97 429.02 623.97 L 429.02 623.97 Q 427.05 623.97 425.77 623.48 Q 424.49 622.99 423.51 622.06 L 423.51 622.06 Q 422.23 620.72 421.74 618.87 Q 421.25 617.01 421.25 613.94 L 421.25 613.94 L 421.25 594.51 L 415.68 594.51 L 415.68 593.35 L 421.25 593.35 L 421.25 584.47 Q 422.70 584.42 424.03 584.24 Q 425.36 584.07 426.47 583.66 M 451.75 592.48 L 451.75 592.48 Q 456.86 592.48 459.73 595.58 Q 462.60 598.68 462.60 605.24 L 462.60 605.24 L 442.13 605.24 L 442.07 604.14 L 457.03 604.14 Q 457.15 601.29 456.57 598.89 Q 455.99 596.48 454.74 595.03 Q 453.49 593.58 451.52 593.58 L 451.52 593.58 Q 448.85 593.58 446.79 596.25 Q 444.74 598.92 444.33 604.72 L 444.33 604.72 L 444.50 604.95 Q 444.39 605.82 444.33 606.86 Q 444.27 607.91 444.27 608.95 L 444.27 608.95 Q 444.27 612.89 445.55 615.74 Q 446.82 618.58 448.88 620.06 Q 450.94 621.54 453.15 621.54 L 453.15 621.54 Q 454.89 621.54 456.45 620.99 Q 458.02 620.43 459.35 619.16 Q 460.69 617.88 461.67 615.74 L 461.67 615.74 L 462.83 616.20 Q 462.19 618.11 460.74 619.91 Q 459.29 621.71 457.09 622.84 Q 454.89 623.97 451.99 623.97 L 451.99 623.97 Q 447.81 623.97 444.82 622.06 Q 441.84 620.14 440.24 616.75 Q 438.65 613.36 438.65 608.95 L 438.65 608.95 Q 438.65 603.85 440.27 600.16 Q 441.89 596.48 444.85 594.48 Q 447.81 592.48 451.75 592.48 M 488.06 578.79 L 488.06 578.79 Q 489.57 578.79 490.67 579.89 Q 491.77 580.99 491.77 582.50 L 491.77 582.50 Q 491.77 584.01 490.67 585.11 Q 489.57 586.21 488.06 586.21 L 488.06 586.21 Q 486.55 586.21 485.45 585.11 Q 484.35 584.01 484.35 582.50 L 484.35 582.50 Q 484.35 580.99 485.45 579.89 Q 486.55 578.79 488.06 578.79 M 491.08 592.65 L 491.08 592.65 L 491.08 617.77 Q 491.08 620.20 492.09 621.07 Q 493.11 621.94 495.49 621.94 L 495.49 621.94 L 495.49 623.16 Q 494.50 623.10 492.50 623.01 Q 490.50 622.93 488.47 622.93 L 488.47 622.93 Q 486.50 622.93 484.47 623.01 Q 482.44 623.10 481.45 623.16 L 481.45 623.16 L 481.45 621.94 Q 483.83 621.94 484.84 621.07 Q 485.86 620.20 485.86 617.77 L 485.86 617.77 L 485.86 599.61 Q 485.86 597.00 484.93 595.75 Q 484.00 594.51 481.45 594.51 L 481.45 594.51 L 481.45 593.29 Q 483.31 593.46 485.05 593.46 L 485.05 593.46 Q 486.73 593.46 488.26 593.26 Q 489.80 593.06 491.08 592.65 M 508.83 592.48 L 508.83 592.48 Q 511.15 592.48 512.77 593.23 Q 514.39 593.99 515.15 594.62 L 515.15 594.62 Q 517.06 596.19 517.47 592.54 L 517.47 592.54 L 518.80 592.54 Q 518.69 594.16 518.63 596.39 Q 518.57 598.63 518.57 602.40 L 518.57 602.40 L 517.24 602.40 Q 516.89 600.25 516.05 598.22 Q 515.21 596.19 513.58 594.88 Q 511.96 593.58 509.35 593.58 L 509.35 593.58 Q 507.32 593.58 505.95 594.71 Q 504.59 595.84 504.59 598.05 L 504.59 598.05 Q 504.59 599.79 505.64 601.03 Q 506.68 602.28 508.36 603.35 Q 510.04 604.43 512.02 605.70 L 512.02 605.70 Q 514.22 607.09 516.02 608.54 Q 517.82 609.99 518.89 611.73 Q 519.96 613.47 519.96 615.85 L 519.96 615.85 Q 519.96 618.52 518.57 620.32 Q 517.18 622.12 514.94 623.04 Q 512.71 623.97 510.04 623.97 L 510.04 623.97 Q 508.77 623.97 507.64 623.77 Q 506.51 623.57 505.46 623.16 L 505.46 623.16 Q 504.88 622.87 504.27 622.46 Q 503.66 622.06 503.08 621.59 L 503.08 621.59 Q 502.50 621.13 502.04 621.62 Q 501.58 622.12 501.34 623.57 L 501.34 623.57 L 500.01 623.57 Q 500.13 621.71 500.18 619.04 Q 500.24 616.37 500.24 611.97 L 500.24 611.97 L 501.58 611.97 Q 501.98 615.21 502.74 617.65 Q 503.49 620.09 505.11 621.45 Q 506.74 622.81 509.64 622.81 L 509.64 622.81 Q 510.80 622.81 511.99 622.29 Q 513.18 621.77 513.99 620.55 Q 514.80 619.33 514.80 617.30 L 514.80 617.30 Q 514.80 614.75 512.94 613.13 Q 511.09 611.50 508.25 609.70 L 508.25 609.70 Q 506.16 608.37 504.33 607.04 Q 502.50 605.70 501.37 604.02 Q 500.24 602.34 500.24 599.96 L 500.24 599.96 Q 500.24 597.35 501.43 595.70 Q 502.62 594.04 504.59 593.26 Q 506.56 592.48 508.83 592.48 M 545.42 578.79 L 545.42 578.79 Q 546.93 578.79 548.03 579.89 Q 549.14 580.99 549.14 582.50 L 549.14 582.50 Q 549.14 584.01 548.03 585.11 Q 546.93 586.21 545.42 586.21 L 545.42 586.21 Q 543.92 586.21 542.81 585.11 Q 541.71 584.01 541.71 582.50 L 541.71 582.50 Q 541.71 580.99 542.81 579.89 Q 543.92 578.79 545.42 578.79 M 548.44 592.65 L 548.44 592.65 L 548.44 617.77 Q 548.44 620.20 549.45 621.07 Q 550.47 621.94 552.85 621.94 L 552.85 621.94 L 552.85 623.16 Q 551.86 623.10 549.86 623.01 Q 547.86 622.93 545.83 622.93 L 545.83 622.93 Q 543.86 622.93 541.83 623.01 Q 539.80 623.10 538.81 623.16 L 538.81 623.16 L 538.81 621.94 Q 541.19 621.94 542.20 621.07 Q 543.22 620.20 543.22 617.77 L 543.22 617.77 L 543.22 599.61 Q 543.22 597.00 542.29 595.75 Q 541.36 594.51 538.81 594.51 L 538.81 594.51 L 538.81 593.29 Q 540.67 593.46 542.41 593.46 L 542.41 593.46 Q 544.09 593.46 545.63 593.26 Q 547.16 593.06 548.44 592.65 M 575.29 592.48 L 575.29 592.48 Q 577.50 592.48 578.98 593.06 Q 580.46 593.64 581.44 594.68 L 581.44 594.68 Q 582.54 595.84 583.01 597.58 Q 583.47 599.32 583.47 602.28 L 583.47 602.28 L 583.47 617.77 Q 583.47 620.20 584.49 621.07 Q 585.50 621.94 587.88 621.94 L 587.88 621.94 L 587.88 623.16 Q 586.89 623.10 584.86 623.01 Q 582.83 622.93 580.92 622.93 L 580.92 622.93 Q 579.01 622.93 577.18 623.01 Q 575.35 623.10 574.42 623.16 L 574.42 623.16 L 574.42 621.94 Q 576.51 621.94 577.38 621.07 Q 578.25 620.20 578.25 617.77 L 578.25 617.77 L 578.25 601.00 Q 578.25 599.21 577.96 597.70 Q 577.67 596.19 576.66 595.26 Q 575.64 594.33 573.55 594.33 L 573.55 594.33 Q 571.12 594.33 569.29 595.73 Q 567.46 597.12 566.45 599.52 Q 565.43 601.93 565.43 604.89 L 565.43 604.89 L 565.43 617.77 Q 565.43 620.20 566.30 621.07 Q 567.17 621.94 569.26 621.94 L 569.26 621.94 L 569.26 623.16 Q 568.33 623.10 566.51 623.01 Q 564.68 622.93 562.77 622.93 L 562.77 622.93 Q 560.85 622.93 558.82 623.01 Q 556.79 623.10 555.81 623.16 L 555.81 623.16 L 555.81 621.94 Q 558.18 621.94 559.20 621.07 Q 560.21 620.20 560.21 617.77 L 560.21 617.77 L 560.21 599.61 Q 560.21 597.00 559.29 595.75 Q 558.36 594.51 555.81 594.51 L 555.81 594.51 L 555.81 593.29 Q 557.66 593.46 559.40 593.46 L 559.40 593.46 Q 561.08 593.46 562.62 593.26 Q 564.16 593.06 565.43 592.65 L 565.43 592.65 L 565.43 599.50 Q 566.94 595.55 569.64 594.01 Q 572.34 592.48 575.29 592.48 M 616.94 593.29 L 616.94 593.29 L 616.94 594.45 Q 615.84 594.57 614.91 595.44 Q 613.98 596.31 613.17 598.51 L 613.17 598.51 L 603.66 623.45 Q 603.42 623.45 603.19 623.45 Q 602.96 623.45 602.67 623.45 L 602.67 623.45 L 592.00 597.76 Q 591.07 595.49 590.17 595.00 Q 589.27 594.51 588.63 594.51 L 588.63 594.51 L 588.63 593.29 Q 589.79 593.35 591.04 593.43 Q 592.29 593.52 593.74 593.52 L 593.74 593.52 Q 595.54 593.52 597.54 593.46 Q 599.54 593.41 601.28 593.29 L 601.28 593.29 L 601.28 594.51 Q 599.83 594.51 598.70 594.71 Q 597.57 594.91 597.25 595.84 Q 596.93 596.77 597.80 599.03 L 597.80 599.03 L 605.05 616.95 L 604.70 617.24 L 611.31 599.90 Q 612.07 597.99 611.92 596.86 Q 611.78 595.73 610.76 595.15 Q 609.75 594.57 607.66 594.45 L 607.66 594.45 L 607.66 593.29 Q 608.70 593.35 609.46 593.38 Q 610.21 593.41 610.93 593.43 Q 611.66 593.46 612.53 593.46 L 612.53 593.46 Q 613.86 593.46 614.94 593.41 Q 616.01 593.35 616.94 593.29 M 633.00 592.48 L 633.00 592.48 Q 636.72 592.48 639.67 594.10 Q 642.63 595.73 644.40 599.21 Q 646.17 602.69 646.17 608.25 L 646.17 608.25 Q 646.17 613.82 644.40 617.27 Q 642.63 620.72 639.67 622.35 Q 636.72 623.97 633.00 623.97 L 633.00 623.97 Q 629.35 623.97 626.36 622.35 Q 623.38 620.72 621.61 617.27 Q 619.84 613.82 619.84 608.25 L 619.84 608.25 Q 619.84 602.69 621.61 599.21 Q 623.38 595.73 626.36 594.10 Q 629.35 592.48 633.00 592.48 M 633.00 593.64 L 633.00 593.64 Q 629.70 593.64 627.58 597.06 Q 625.46 600.48 625.46 608.25 L 625.46 608.25 Q 625.46 616.03 627.58 619.42 Q 629.70 622.81 633.00 622.81 L 633.00 622.81 Q 636.31 622.81 638.43 619.42 Q 640.54 616.03 640.54 608.25 L 640.54 608.25 Q 640.54 600.48 638.43 597.06 Q 636.31 593.64 633.00 593.64 M 659.80 577.69 L 659.80 577.69 L 659.80 617.77 Q 659.80 620.20 660.81 621.07 Q 661.83 621.94 664.21 621.94 L 664.21 621.94 L 664.21 623.16 Q 663.22 623.10 661.22 623.01 Q 659.22 622.93 657.19 622.93 L 657.19 622.93 Q 655.22 622.93 653.19 623.01 Q 651.16 623.10 650.17 623.16 L 650.17 623.16 L 650.17 621.94 Q 652.55 621.94 653.56 621.07 Q 654.58 620.20 654.58 617.77 L 654.58 617.77 L 654.58 584.65 Q 654.58 582.04 653.65 580.79 Q 652.72 579.54 650.17 579.54 L 650.17 579.54 L 650.17 578.33 Q 652.03 578.50 653.77 578.50 L 653.77 578.50 Q 655.45 578.50 656.99 578.30 Q 658.52 578.09 659.80 577.69 M 693.50 592.65 L 693.50 592.65 L 693.50 616.90 Q 693.50 619.51 694.45 620.75 Q 695.41 622.00 697.91 622.00 L 697.91 622.00 L 697.91 623.22 Q 696.11 623.04 694.31 623.04 L 694.31 623.04 Q 692.63 623.04 691.09 623.22 Q 689.55 623.39 688.28 623.86 L 688.28 623.86 L 688.28 617.01 Q 686.83 620.78 684.19 622.38 Q 681.55 623.97 678.77 623.97 L 678.77 623.97 Q 676.74 623.97 675.23 623.39 Q 673.72 622.81 672.73 621.77 L 672.73 621.77 Q 671.63 620.61 671.23 618.75 Q 670.82 616.90 670.82 614.17 L 670.82 614.17 L 670.82 599.61 Q 670.82 597.00 669.89 595.75 Q 668.96 594.51 666.41 594.51 L 666.41 594.51 L 666.41 593.29 Q 668.27 593.46 670.01 593.46 L 670.01 593.46 Q 671.69 593.46 673.23 593.26 Q 674.76 593.06 676.04 592.65 L 676.04 592.65 L 676.04 615.45 Q 676.04 617.24 676.27 618.75 Q 676.50 620.26 677.43 621.19 Q 678.36 622.12 680.45 622.12 L 680.45 622.12 Q 682.71 622.12 684.48 620.72 Q 686.25 619.33 687.26 616.95 Q 688.28 614.58 688.28 611.62 L 688.28 611.62 L 688.28 599.61 Q 688.28 597.00 687.35 595.75 Q 686.42 594.51 683.87 594.51 L 683.87 594.51 L 683.87 593.29 Q 685.73 593.46 687.47 593.46 L 687.47 593.46 Q 689.15 593.46 690.68 593.26 Q 692.22 593.06 693.50 592.65 M 720.35 592.48 L 720.35 592.48 Q 722.56 592.48 724.03 593.06 Q 725.51 593.64 726.50 594.68 L 726.50 594.68 Q 727.60 595.84 728.07 597.58 Q 728.53 599.32 728.53 602.28 L 728.53 602.28 L 728.53 617.77 Q 728.53 620.20 729.54 621.07 Q 730.56 621.94 732.94 621.94 L 732.94 621.94 L 732.94 623.16 Q 731.95 623.10 729.92 623.01 Q 727.89 622.93 725.98 622.93 L 725.98 622.93 Q 724.06 622.93 722.24 623.01 Q 720.41 623.10 719.48 623.16 L 719.48 623.16 L 719.48 621.94 Q 721.57 621.94 722.44 621.07 Q 723.31 620.20 723.31 617.77 L 723.31 617.77 L 723.31 601.00 Q 723.31 599.21 723.02 597.70 Q 722.73 596.19 721.71 595.26 Q 720.70 594.33 718.61 594.33 L 718.61 594.33 Q 716.18 594.33 714.35 595.73 Q 712.52 597.12 711.51 599.52 Q 710.49 601.93 710.49 604.89 L 710.49 604.89 L 710.49 617.77 Q 710.49 620.20 711.36 621.07 Q 712.23 621.94 714.32 621.94 L 714.32 621.94 L 714.32 623.16 Q 713.39 623.10 711.56 623.01 Q 709.74 622.93 707.82 622.93 L 707.82 622.93 Q 705.91 622.93 703.88 623.01 Q 701.85 623.10 700.86 623.16 L 700.86 623.16 L 700.86 621.94 Q 703.24 621.94 704.26 621.07 Q 705.27 620.20 705.27 617.77 L 705.27 617.77 L 705.27 599.61 Q 705.27 597.00 704.34 595.75 Q 703.42 594.51 700.86 594.51 L 700.86 594.51 L 700.86 593.29 Q 702.72 593.46 704.46 593.46 L 704.46 593.46 Q 706.14 593.46 707.68 593.26 Q 709.22 593.06 710.49 592.65 L 710.49 592.65 L 710.49 599.50 Q 712.00 595.55 714.70 594.01 Q 717.39 592.48 720.35 592.48 M 744.83 583.66 L 744.83 583.66 L 744.83 593.35 L 753.41 593.35 L 753.41 594.51 L 744.83 594.51 L 744.83 616.95 Q 744.83 619.68 745.81 620.78 Q 746.80 621.88 748.54 621.88 L 748.54 621.88 Q 750.28 621.88 751.56 620.46 Q 752.83 619.04 753.76 615.68 L 753.76 615.68 L 754.92 615.97 Q 754.34 619.33 752.63 621.65 Q 750.92 623.97 747.38 623.97 L 747.38 623.97 Q 745.41 623.97 744.13 623.48 Q 742.86 622.99 741.87 622.06 L 741.87 622.06 Q 740.59 620.72 740.10 618.87 Q 739.61 617.01 739.61 613.94 L 739.61 613.94 L 739.61 594.51 L 734.04 594.51 L 734.04 593.35 L 739.61 593.35 L 739.61 584.47 Q 741.06 584.42 742.39 584.24 Q 743.73 584.07 744.83 583.66 M 764.26 623.57 L 764.26 623.57 Q 761.88 623.57 760.14 622.67 Q 758.40 621.77 757.50 620.14 Q 756.60 618.52 756.60 616.37 L 756.60 616.37 Q 756.60 613.82 757.79 612.20 Q 758.98 610.57 760.84 609.59 Q 762.69 608.60 764.75 607.93 Q 766.81 607.27 768.67 606.66 Q 770.52 606.05 771.71 605.24 Q 772.90 604.43 772.90 603.09 L 772.90 603.09 L 772.90 599.50 Q 772.90 597.06 772.17 595.78 Q 771.45 594.51 770.23 594.07 Q 769.01 593.64 767.51 593.64 L 767.51 593.64 Q 766.06 593.64 764.40 594.04 Q 762.75 594.45 761.76 595.73 L 761.76 595.73 Q 762.87 595.96 763.68 596.89 Q 764.49 597.81 764.49 599.26 L 764.49 599.26 Q 764.49 600.71 763.56 601.55 Q 762.63 602.40 761.18 602.40 L 761.18 602.40 Q 759.50 602.40 758.72 601.32 Q 757.94 600.25 757.94 598.92 L 757.94 598.92 Q 757.94 597.41 758.69 596.48 Q 759.44 595.55 760.60 594.74 L 760.60 594.74 Q 761.94 593.81 764.05 593.14 Q 766.17 592.48 768.84 592.48 L 768.84 592.48 Q 771.22 592.48 772.90 593.03 Q 774.58 593.58 775.68 594.62 L 775.68 594.62 Q 777.19 596.02 777.66 598.02 Q 778.12 600.02 778.12 602.80 L 778.12 602.80 L 778.12 618.93 Q 778.12 620.38 778.55 621.01 Q 778.99 621.65 779.92 621.65 L 779.92 621.65 Q 780.56 621.65 781.14 621.36 Q 781.72 621.07 782.53 620.43 L 782.53 620.43 L 783.17 621.42 Q 781.95 622.35 780.85 622.96 Q 779.74 623.57 777.89 623.57 L 777.89 623.57 Q 776.21 623.57 775.10 622.99 Q 774.00 622.41 773.45 621.27 Q 772.90 620.14 772.90 618.40 L 772.90 618.40 Q 771.33 621.01 769.16 622.29 Q 766.98 623.57 764.26 623.57 M 766.35 621.25 L 766.35 621.25 Q 768.26 621.25 769.91 620.14 Q 771.57 619.04 772.90 616.84 L 772.90 616.84 L 772.90 605.47 Q 772.20 606.46 770.87 607.12 Q 769.54 607.79 767.97 608.46 Q 766.40 609.12 764.98 610.02 Q 763.56 610.92 762.63 612.37 Q 761.71 613.82 761.71 616.14 L 761.71 616.14 Q 761.71 618.46 762.95 619.85 Q 764.20 621.25 766.35 621.25 M 802.94 592.48 L 802.94 592.48 Q 804.51 592.48 805.70 593.12 Q 806.89 593.75 807.55 594.77 Q 808.22 595.78 808.22 597.06 L 808.22 597.06 Q 808.22 598.51 807.32 599.61 Q 806.42 600.71 804.92 600.71 L 804.92 600.71 Q 803.70 600.71 802.77 599.93 Q 801.84 599.15 801.84 597.70 L 801.84 597.70 Q 801.84 596.60 802.45 595.81 Q 803.06 595.03 803.81 594.57 L 803.81 594.57 Q 803.41 593.99 802.60 593.99 L 802.60 593.99 Q 800.80 593.99 799.29 595.06 Q 797.78 596.13 796.74 597.81 Q 795.69 599.50 795.11 601.38 Q 794.53 603.27 794.53 604.89 L 794.53 604.89 L 794.53 617.19 Q 794.53 620.03 796.19 620.99 Q 797.84 621.94 800.68 621.94 L 800.68 621.94 L 800.68 623.16 Q 799.35 623.10 796.91 623.01 Q 794.48 622.93 791.75 622.93 L 791.75 622.93 Q 789.78 622.93 787.83 623.01 Q 785.89 623.10 784.91 623.16 L 784.91 623.16 L 784.91 621.94 Q 787.28 621.94 788.30 621.07 Q 789.31 620.20 789.31 617.77 L 789.31 617.77 L 789.31 599.61 Q 789.31 597.00 788.39 595.75 Q 787.46 594.51 784.91 594.51 L 784.91 594.51 L 784.91 593.29 Q 786.76 593.46 788.50 593.46 L 788.50 593.46 Q 790.18 593.46 791.72 593.26 Q 793.26 593.06 794.53 592.65 L 794.53 592.65 L 794.53 599.90 Q 795.17 598.22 796.36 596.51 Q 797.55 594.80 799.23 593.64 Q 800.91 592.48 802.94 592.48 M 837.69 593.29 L 837.69 593.29 L 837.69 594.45 Q 836.58 594.57 835.66 595.44 Q 834.73 596.31 833.92 598.51 L 833.92 598.51 L 824.40 623.45 L 823.42 623.45 L 812.75 597.76 Q 811.64 595.49 810.57 595.00 Q 809.50 594.51 808.80 594.51 L 808.80 594.51 L 808.80 593.29 Q 810.08 593.46 811.47 593.55 Q 812.86 593.64 814.49 593.64 L 814.49 593.64 Q 816.28 593.64 818.28 593.52 Q 820.29 593.41 822.03 593.29 L 822.03 593.29 L 822.03 594.51 Q 820.58 594.51 819.44 594.71 Q 818.31 594.91 818.02 595.93 Q 817.73 596.94 818.72 599.38 L 818.72 599.38 L 825.85 617.07 L 825.51 617.19 L 832.12 599.90 Q 832.87 597.99 832.73 596.86 Q 832.58 595.73 831.54 595.15 Q 830.49 594.57 828.41 594.45 L 828.41 594.45 L 828.41 593.29 Q 829.45 593.35 830.20 593.38 Q 830.96 593.41 831.68 593.43 Q 832.41 593.46 833.28 593.46 L 833.28 593.46 Q 834.61 593.46 835.68 593.41 Q 836.76 593.35 837.69 593.29 M 823.30 622.99 L 824.40 623.45 L 822.43 628.50 Q 821.85 629.95 821.24 630.93 Q 820.63 631.92 819.94 632.56 L 819.94 632.56 Q 819.01 633.43 817.73 633.75 Q 816.46 634.06 815.41 634.06 L 815.41 634.06 Q 814.31 634.06 813.41 633.66 Q 812.51 633.25 811.99 632.47 Q 811.47 631.69 811.47 630.58 L 811.47 630.58 Q 811.47 629.19 812.28 628.35 Q 813.09 627.51 814.54 627.51 L 814.54 627.51 Q 815.76 627.51 816.63 628.21 Q 817.50 628.90 817.50 630.24 L 817.50 630.24 Q 817.50 631.22 817.04 631.86 Q 816.57 632.50 815.94 632.85 L 815.94 632.85 Q 816.05 632.90 816.14 632.90 Q 816.23 632.90 816.28 632.90 L 816.28 632.90 Q 817.85 632.90 819.07 631.83 Q 820.29 630.76 821.21 628.38 L 821.21 628.38 L 823.30 622.99 M 845.57 616.55 L 845.57 616.55 Q 847.08 616.55 848.18 617.65 Q 849.29 618.75 849.29 620.26 L 849.29 620.26 Q 849.29 621.77 848.18 622.87 Q 847.08 623.97 845.57 623.97 L 845.57 623.97 Q 844.07 623.97 842.96 622.87 Q 841.86 621.77 841.86 620.26 L 841.86 620.26 Q 841.86 618.75 842.96 617.65 Q 844.07 616.55 845.57 616.55 M 884.55 582.10 L 884.55 582.10 L 884.55 583.26 Q 882.58 583.31 881.56 583.69 Q 880.55 584.07 880.20 585.08 Q 879.85 586.10 879.85 588.24 L 879.85 588.24 L 879.85 617.01 Q 879.85 619.10 880.20 620.14 Q 880.55 621.19 881.56 621.54 Q 882.58 621.88 884.55 622.00 L 884.55 622.00 L 884.55 623.16 Q 883.22 623.04 881.21 623.01 Q 879.21 622.99 877.18 622.99 L 877.18 622.99 Q 874.92 622.99 872.95 623.01 Q 870.98 623.04 869.76 623.16 L 869.76 623.16 L 869.76 622.00 Q 871.73 621.88 872.75 621.54 Q 873.76 621.19 874.11 620.14 Q 874.46 619.10 874.46 617.01 L 874.46 617.01 L 874.46 588.24 Q 874.46 586.10 874.11 585.08 Q 873.76 584.07 872.75 583.69 Q 871.73 583.31 869.76 583.26 L 869.76 583.26 L 869.76 582.10 Q 870.98 582.15 872.95 582.21 Q 874.92 582.27 877.18 582.27 L 877.18 582.27 Q 879.21 582.27 881.21 582.21 Q 883.22 582.15 884.55 582.10 M 898.01 583.66 L 898.01 583.66 L 898.01 593.35 L 906.59 593.35 L 906.59 594.51 L 898.01 594.51 L 898.01 616.95 Q 898.01 619.68 898.99 620.78 Q 899.98 621.88 901.72 621.88 L 901.72 621.88 Q 903.46 621.88 904.73 620.46 Q 906.01 619.04 906.94 615.68 L 906.94 615.68 L 908.10 615.97 Q 907.52 619.33 905.81 621.65 Q 904.10 623.97 900.56 623.97 L 900.56 623.97 Q 898.59 623.97 897.31 623.48 Q 896.03 622.99 895.05 622.06 L 895.05 622.06 Q 893.77 620.72 893.28 618.87 Q 892.79 617.01 892.79 613.94 L 892.79 613.94 L 892.79 594.51 L 887.22 594.51 L 887.22 593.35 L 892.79 593.35 L 892.79 584.47 Q 894.24 584.42 895.57 584.24 Q 896.90 584.07 898.01 583.66" fill="#1c1917"/><path d="M 136.15 661.38 L 136.15 661.38 L 136.15 671.07 L 144.73 671.07 L 144.73 672.23 L 136.15 672.23 L 136.15 694.67 Q 136.15 697.40 137.13 698.50 Q 138.12 699.60 139.86 699.60 L 139.86 699.60 Q 141.60 699.60 142.87 698.18 Q 144.15 696.76 145.08 693.40 L 145.08 693.40 L 146.24 693.69 Q 145.66 697.05 143.95 699.37 Q 142.24 701.69 138.70 701.69 L 138.70 701.69 Q 136.73 701.69 135.45 701.20 Q 134.17 700.71 133.19 699.78 L 133.19 699.78 Q 131.91 698.44 131.42 696.59 Q 130.93 694.73 130.93 691.66 L 130.93 691.66 L 130.93 672.23 L 125.36 672.23 L 125.36 671.07 L 130.93 671.07 L 130.93 662.19 Q 132.38 662.14 133.71 661.96 Q 135.04 661.79 136.15 661.38 M 161.43 670.20 L 161.43 670.20 Q 166.54 670.20 169.41 673.30 Q 172.28 676.40 172.28 682.96 L 172.28 682.96 L 151.81 682.96 L 151.75 681.86 L 166.71 681.86 Q 166.83 679.01 166.25 676.61 Q 165.67 674.20 164.42 672.75 Q 163.17 671.30 161.20 671.30 L 161.20 671.30 Q 158.53 671.30 156.47 673.97 Q 154.42 676.64 154.01 682.44 L 154.01 682.44 L 154.18 682.67 Q 154.07 683.54 154.01 684.58 Q 153.95 685.63 153.95 686.67 L 153.95 686.67 Q 153.95 690.61 155.23 693.46 Q 156.50 696.30 158.56 697.78 Q 160.62 699.26 162.83 699.26 L 162.83 699.26 Q 164.57 699.26 166.13 698.71 Q 167.70 698.15 169.03 696.88 Q 170.37 695.60 171.35 693.46 L 171.35 693.46 L 172.51 693.92 Q 171.87 695.83 170.42 697.63 Q 168.97 699.43 166.77 700.56 Q 164.57 701.69 161.67 701.69 L 161.67 701.69 Q 157.49 701.69 154.50 699.78 Q 151.52 697.86 149.92 694.47 Q 148.33 691.08 148.33 686.67 L 148.33 686.67 Q 148.33 681.57 149.95 677.88 Q 151.57 674.20 154.53 672.20 Q 157.49 670.20 161.43 670.20 M 185.91 655.41 L 185.91 655.41 L 185.91 695.49 Q 185.91 697.92 186.93 698.79 Q 187.94 699.66 190.32 699.66 L 190.32 699.66 L 190.32 700.88 Q 189.33 700.82 187.33 700.74 Q 185.33 700.65 183.30 700.65 L 183.30 700.65 Q 181.33 700.65 179.30 700.74 Q 177.27 700.82 176.28 700.88 L 176.28 700.88 L 176.28 699.66 Q 178.66 699.66 179.68 698.79 Q 180.69 697.92 180.69 695.49 L 180.69 695.49 L 180.69 662.37 Q 180.69 659.76 179.76 658.51 Q 178.83 657.26 176.28 657.26 L 176.28 657.26 L 176.28 656.05 Q 178.14 656.22 179.88 656.22 L 179.88 656.22 Q 181.56 656.22 183.10 656.02 Q 184.63 655.81 185.91 655.41 M 202.50 655.41 L 202.50 655.41 L 202.50 695.49 Q 202.50 697.92 203.51 698.79 Q 204.53 699.66 206.91 699.66 L 206.91 699.66 L 206.91 700.88 Q 205.92 700.82 203.92 700.74 Q 201.92 700.65 199.89 700.65 L 199.89 700.65 Q 197.92 700.65 195.89 700.74 Q 193.86 700.82 192.87 700.88 L 192.87 700.88 L 192.87 699.66 Q 195.25 699.66 196.26 698.79 Q 197.28 697.92 197.28 695.49 L 197.28 695.49 L 197.28 662.37 Q 197.28 659.76 196.35 658.51 Q 195.42 657.26 192.87 657.26 L 192.87 657.26 L 192.87 656.05 Q 194.73 656.22 196.47 656.22 L 196.47 656.22 Q 198.15 656.22 199.69 656.02 Q 201.22 655.81 202.50 655.41 M 220.25 670.20 L 220.25 670.20 Q 222.57 670.20 224.19 670.95 Q 225.81 671.71 226.57 672.34 L 226.57 672.34 Q 228.48 673.91 228.89 670.26 L 228.89 670.26 L 230.22 670.26 Q 230.11 671.88 230.05 674.11 Q 229.99 676.35 229.99 680.12 L 229.99 680.12 L 228.66 680.12 Q 228.31 677.97 227.47 675.94 Q 226.63 673.91 225.00 672.61 Q 223.38 671.30 220.77 671.30 L 220.77 671.30 Q 218.74 671.30 217.38 672.43 Q 216.01 673.56 216.01 675.77 L 216.01 675.77 Q 216.01 677.51 217.06 678.75 Q 218.10 680.00 219.78 681.07 Q 221.46 682.15 223.44 683.42 L 223.44 683.42 Q 225.64 684.81 227.44 686.26 Q 229.24 687.71 230.31 689.45 Q 231.38 691.19 231.38 693.57 L 231.38 693.57 Q 231.38 696.24 229.99 698.04 Q 228.60 699.84 226.36 700.76 Q 224.13 701.69 221.46 701.69 L 221.46 701.69 Q 220.19 701.69 219.06 701.49 Q 217.93 701.29 216.88 700.88 L 216.88 700.88 Q 216.30 700.59 215.69 700.18 Q 215.08 699.78 214.50 699.31 L 214.50 699.31 Q 213.92 698.85 213.46 699.34 Q 213.00 699.84 212.76 701.29 L 212.76 701.29 L 211.43 701.29 Q 211.55 699.43 211.60 696.76 Q 211.66 694.09 211.66 689.69 L 211.66 689.69 L 213.00 689.69 Q 213.40 692.93 214.16 695.37 Q 214.91 697.81 216.53 699.17 Q 218.16 700.53 221.06 700.53 L 221.06 700.53 Q 222.22 700.53 223.41 700.01 Q 224.60 699.49 225.41 698.27 Q 226.22 697.05 226.22 695.02 L 226.22 695.02 Q 226.22 692.47 224.36 690.85 Q 222.51 689.22 219.67 687.42 L 219.67 687.42 Q 217.58 686.09 215.75 684.76 Q 213.92 683.42 212.79 681.74 Q 211.66 680.06 211.66 677.68 L 211.66 677.68 Q 211.66 675.07 212.85 673.42 Q 214.04 671.76 216.01 670.98 Q 217.98 670.20 220.25 670.20 M 259.57 661.38 L 259.57 661.38 L 259.57 671.07 L 268.15 671.07 L 268.15 672.23 L 259.57 672.23 L 259.57 694.67 Q 259.57 697.40 260.56 698.50 Q 261.54 699.60 263.28 699.60 L 263.28 699.60 Q 265.02 699.60 266.30 698.18 Q 267.57 696.76 268.50 693.40 L 268.50 693.40 L 269.66 693.69 Q 269.08 697.05 267.37 699.37 Q 265.66 701.69 262.12 701.69 L 262.12 701.69 Q 260.15 701.69 258.87 701.20 Q 257.60 700.71 256.61 699.78 L 256.61 699.78 Q 255.34 698.44 254.84 696.59 Q 254.35 694.73 254.35 691.66 L 254.35 691.66 L 254.35 672.23 L 248.78 672.23 L 248.78 671.07 L 254.35 671.07 L 254.35 662.19 Q 255.80 662.14 257.13 661.96 Q 258.47 661.79 259.57 661.38 M 279.87 655.47 L 279.87 655.47 L 279.87 677.16 Q 281.38 673.21 284.07 671.71 Q 286.77 670.20 289.73 670.20 L 289.73 670.20 Q 291.93 670.20 293.41 670.78 Q 294.89 671.36 295.88 672.40 L 295.88 672.40 Q 296.98 673.56 297.44 675.30 Q 297.91 677.04 297.91 680.00 L 297.91 680.00 L 297.91 695.49 Q 297.91 697.92 298.92 698.79 Q 299.94 699.66 302.32 699.66 L 302.32 699.66 L 302.32 700.88 Q 301.33 700.82 299.30 700.74 Q 297.27 700.65 295.36 700.65 L 295.36 700.65 Q 293.44 700.65 291.62 700.74 Q 289.79 700.82 288.86 700.88 L 288.86 700.88 L 288.86 699.66 Q 290.95 699.66 291.82 698.79 Q 292.69 697.92 292.69 695.49 L 292.69 695.49 L 292.69 678.72 Q 292.69 676.93 292.40 675.42 Q 292.11 673.91 291.09 672.98 Q 290.08 672.05 287.99 672.05 L 287.99 672.05 Q 285.61 672.05 283.78 673.39 Q 281.96 674.72 280.91 677.10 Q 279.87 679.48 279.87 682.55 L 279.87 682.55 L 279.87 695.49 Q 279.87 697.92 280.74 698.79 Q 281.61 699.66 283.70 699.66 L 283.70 699.66 L 283.70 700.88 Q 282.77 700.82 280.94 700.74 Q 279.12 700.65 277.20 700.65 L 277.20 700.65 Q 275.29 700.65 273.26 700.74 Q 271.23 700.82 270.24 700.88 L 270.24 700.88 L 270.24 699.66 Q 272.62 699.66 273.63 698.79 Q 274.65 697.92 274.65 695.49 L 274.65 695.49 L 274.65 662.43 Q 274.65 659.82 273.72 658.57 Q 272.79 657.32 270.24 657.32 L 270.24 657.32 L 270.24 656.10 Q 272.10 656.28 273.84 656.28 L 273.84 656.28 Q 275.52 656.28 277.06 656.08 Q 278.59 655.87 279.87 655.47 M 318.96 670.20 L 318.96 670.20 Q 324.07 670.20 326.94 673.30 Q 329.81 676.40 329.81 682.96 L 329.81 682.96 L 309.33 682.96 L 309.28 681.86 L 324.24 681.86 Q 324.36 679.01 323.78 676.61 Q 323.20 674.20 321.95 672.75 Q 320.70 671.30 318.73 671.30 L 318.73 671.30 Q 316.06 671.30 314.00 673.97 Q 311.94 676.64 311.54 682.44 L 311.54 682.44 L 311.71 682.67 Q 311.60 683.54 311.54 684.58 Q 311.48 685.63 311.48 686.67 L 311.48 686.67 Q 311.48 690.61 312.76 693.46 Q 314.03 696.30 316.09 697.78 Q 318.15 699.26 320.35 699.26 L 320.35 699.26 Q 322.09 699.26 323.66 698.71 Q 325.23 698.15 326.56 696.88 Q 327.89 695.60 328.88 693.46 L 328.88 693.46 L 330.04 693.92 Q 329.40 695.83 327.95 697.63 Q 326.50 699.43 324.30 700.56 Q 322.09 701.69 319.19 701.69 L 319.19 701.69 Q 315.02 701.69 312.03 699.78 Q 309.04 697.86 307.45 694.47 Q 305.85 691.08 305.85 686.67 L 305.85 686.67 Q 305.85 681.57 307.48 677.88 Q 309.10 674.20 312.06 672.20 Q 315.02 670.20 318.96 670.20 M 358.00 661.38 L 358.00 661.38 L 358.00 671.07 L 366.58 671.07 L 366.58 672.23 L 358.00 672.23 L 358.00 694.67 Q 358.00 697.40 358.98 698.50 Q 359.97 699.60 361.71 699.60 L 361.71 699.60 Q 363.45 699.60 364.72 698.18 Q 366.00 696.76 366.93 693.40 L 366.93 693.40 L 368.09 693.69 Q 367.51 697.05 365.80 699.37 Q 364.09 701.69 360.55 701.69 L 360.55 701.69 Q 358.58 701.69 357.30 701.20 Q 356.02 700.71 355.04 699.78 L 355.04 699.78 Q 353.76 698.44 353.27 696.59 Q 352.78 694.73 352.78 691.66 L 352.78 691.66 L 352.78 672.23 L 347.21 672.23 L 347.21 671.07 L 352.78 671.07 L 352.78 662.19 Q 354.23 662.14 355.56 661.96 Q 356.89 661.79 358.00 661.38 M 387.23 670.20 L 387.23 670.20 Q 388.79 670.20 389.98 670.84 Q 391.17 671.47 391.84 672.49 Q 392.51 673.50 392.51 674.78 L 392.51 674.78 Q 392.51 676.23 391.61 677.33 Q 390.71 678.43 389.20 678.43 L 389.20 678.43 Q 387.98 678.43 387.05 677.65 Q 386.13 676.87 386.13 675.42 L 386.13 675.42 Q 386.13 674.32 386.73 673.53 Q 387.34 672.75 388.10 672.29 L 388.10 672.29 Q 387.69 671.71 386.88 671.71 L 386.88 671.71 Q 385.08 671.71 383.57 672.78 Q 382.07 673.85 381.02 675.53 Q 379.98 677.22 379.40 679.10 Q 378.82 680.99 378.82 682.61 L 378.82 682.61 L 378.82 694.91 Q 378.82 697.75 380.47 698.71 Q 382.12 699.66 384.97 699.66 L 384.97 699.66 L 384.97 700.88 Q 383.63 700.82 381.20 700.74 Q 378.76 700.65 376.03 700.65 L 376.03 700.65 Q 374.06 700.65 372.12 700.74 Q 370.18 700.82 369.19 700.88 L 369.19 700.88 L 369.19 699.66 Q 371.57 699.66 372.58 698.79 Q 373.60 697.92 373.60 695.49 L 373.60 695.49 L 373.60 677.33 Q 373.60 674.72 372.67 673.48 Q 371.74 672.23 369.19 672.23 L 369.19 672.23 L 369.19 671.01 Q 371.05 671.18 372.79 671.18 L 372.79 671.18 Q 374.47 671.18 376.00 670.98 Q 377.54 670.78 378.82 670.37 L 378.82 670.37 L 378.82 677.62 Q 379.46 675.94 380.64 674.23 Q 381.83 672.52 383.52 671.36 Q 385.20 670.20 387.23 670.20 M 421.33 670.37 L 421.33 670.37 L 421.33 694.62 Q 421.33 697.23 422.29 698.47 Q 423.25 699.72 425.74 699.72 L 425.74 699.72 L 425.74 700.94 Q 423.94 700.76 422.14 700.76 L 422.14 700.76 Q 420.46 700.76 418.93 700.94 Q 417.39 701.11 416.11 701.58 L 416.11 701.58 L 416.11 694.73 Q 414.66 698.50 412.02 700.10 Q 409.38 701.69 406.60 701.69 L 406.60 701.69 Q 404.57 701.69 403.06 701.11 Q 401.55 700.53 400.57 699.49 L 400.57 699.49 Q 399.47 698.33 399.06 696.47 Q 398.65 694.62 398.65 691.89 L 398.65 691.89 L 398.65 677.33 Q 398.65 674.72 397.73 673.48 Q 396.80 672.23 394.25 672.23 L 394.25 672.23 L 394.25 671.01 Q 396.10 671.18 397.84 671.18 L 397.84 671.18 Q 399.52 671.18 401.06 670.98 Q 402.60 670.78 403.87 670.37 L 403.87 670.37 L 403.87 693.17 Q 403.87 694.96 404.11 696.47 Q 404.34 697.98 405.27 698.91 Q 406.19 699.84 408.28 699.84 L 408.28 699.84 Q 410.54 699.84 412.31 698.44 Q 414.08 697.05 415.10 694.67 Q 416.11 692.30 416.11 689.34 L 416.11 689.34 L 416.11 677.33 Q 416.11 674.72 415.18 673.48 Q 414.26 672.23 411.70 672.23 L 411.70 672.23 L 411.70 671.01 Q 413.56 671.18 415.30 671.18 L 415.30 671.18 Q 416.98 671.18 418.52 670.98 Q 420.06 670.78 421.33 670.37 M 438.04 661.38 L 438.04 661.38 L 438.04 671.07 L 446.62 671.07 L 446.62 672.23 L 438.04 672.23 L 438.04 694.67 Q 438.04 697.40 439.02 698.50 Q 440.01 699.60 441.75 699.60 L 441.75 699.60 Q 443.49 699.60 444.76 698.18 Q 446.04 696.76 446.97 693.40 L 446.97 693.40 L 448.13 693.69 Q 447.55 697.05 445.84 699.37 Q 444.13 701.69 440.59 701.69 L 440.59 701.69 Q 438.62 701.69 437.34 701.20 Q 436.06 700.71 435.08 699.78 L 435.08 699.78 Q 433.80 698.44 433.31 696.59 Q 432.82 694.73 432.82 691.66 L 432.82 691.66 L 432.82 672.23 L 427.25 672.23 L 427.25 671.07 L 432.82 671.07 L 432.82 662.19 Q 434.27 662.14 435.60 661.96 Q 436.93 661.79 438.04 661.38 M 458.34 655.47 L 458.34 655.47 L 458.34 677.16 Q 459.84 673.21 462.54 671.71 Q 465.24 670.20 468.20 670.20 L 468.20 670.20 Q 470.40 670.20 471.88 670.78 Q 473.36 671.36 474.34 672.40 L 474.34 672.40 Q 475.45 673.56 475.91 675.30 Q 476.37 677.04 476.37 680.00 L 476.37 680.00 L 476.37 695.49 Q 476.37 697.92 477.39 698.79 Q 478.40 699.66 480.78 699.66 L 480.78 699.66 L 480.78 700.88 Q 479.80 700.82 477.77 700.74 Q 475.74 700.65 473.82 700.65 L 473.82 700.65 Q 471.91 700.65 470.08 700.74 Q 468.25 700.82 467.33 700.88 L 467.33 700.88 L 467.33 699.66 Q 469.41 699.66 470.28 698.79 Q 471.15 697.92 471.15 695.49 L 471.15 695.49 L 471.15 678.72 Q 471.15 676.93 470.86 675.42 Q 470.57 673.91 469.56 672.98 Q 468.54 672.05 466.46 672.05 L 466.46 672.05 Q 464.08 672.05 462.25 673.39 Q 460.42 674.72 459.38 677.10 Q 458.34 679.48 458.34 682.55 L 458.34 682.55 L 458.34 695.49 Q 458.34 697.92 459.21 698.79 Q 460.08 699.66 462.16 699.66 L 462.16 699.66 L 462.16 700.88 Q 461.24 700.82 459.41 700.74 Q 457.58 700.65 455.67 700.65 L 455.67 700.65 Q 453.75 700.65 451.72 700.74 Q 449.69 700.82 448.71 700.88 L 448.71 700.88 L 448.71 699.66 Q 451.09 699.66 452.10 698.79 Q 453.12 697.92 453.12 695.49 L 453.12 695.49 L 453.12 662.43 Q 453.12 659.82 452.19 658.57 Q 451.26 657.32 448.71 657.32 L 448.71 657.32 L 448.71 656.10 Q 450.56 656.28 452.30 656.28 L 452.30 656.28 Q 453.99 656.28 455.52 656.08 Q 457.06 655.87 458.34 655.47 M 515.00 670.20 L 515.00 670.20 Q 519.76 670.20 522.89 674.11 Q 526.02 678.03 526.02 685.97 L 526.02 685.97 Q 526.02 691.19 524.25 694.70 Q 522.48 698.21 519.53 699.95 Q 516.57 701.69 513.09 701.69 L 513.09 701.69 Q 510.19 701.69 507.49 700.04 Q 504.79 698.39 503.46 695.14 L 503.46 695.14 L 504.62 695.78 Q 506.07 698.10 508.22 699.23 Q 510.36 700.36 512.62 700.36 L 512.62 700.36 Q 516.51 700.36 518.45 696.85 Q 520.40 693.34 520.40 685.97 L 520.40 685.97 Q 520.40 681.28 519.64 678.14 Q 518.89 675.01 517.32 673.48 Q 515.76 671.94 513.32 671.94 L 513.32 671.94 Q 510.65 671.94 508.36 674.35 Q 506.07 676.75 505.55 681.39 L 505.55 681.39 L 504.85 680.58 Q 505.49 675.65 508.30 672.92 Q 511.12 670.20 515.00 670.20 M 505.95 655.47 L 505.95 655.47 L 505.95 697.86 Q 505.20 698.50 504.42 699.17 Q 503.63 699.84 502.88 700.47 Q 502.13 701.11 501.31 701.81 L 501.31 701.81 L 500.33 701.40 Q 500.56 700.59 500.65 699.75 Q 500.73 698.91 500.73 698.04 L 500.73 698.04 L 500.73 662.43 Q 500.73 659.82 499.81 658.57 Q 498.88 657.32 496.33 657.32 L 496.33 657.32 L 496.33 656.10 Q 498.18 656.28 499.92 656.28 L 499.92 656.28 Q 501.60 656.28 503.14 656.08 Q 504.68 655.87 505.95 655.47 M 544.52 670.20 L 544.52 670.20 Q 549.63 670.20 552.50 673.30 Q 555.37 676.40 555.37 682.96 L 555.37 682.96 L 534.90 682.96 L 534.84 681.86 L 549.80 681.86 Q 549.92 679.01 549.34 676.61 Q 548.76 674.20 547.51 672.75 Q 546.26 671.30 544.29 671.30 L 544.29 671.30 Q 541.62 671.30 539.56 673.97 Q 537.51 676.64 537.10 682.44 L 537.10 682.44 L 537.27 682.67 Q 537.16 683.54 537.10 684.58 Q 537.04 685.63 537.04 686.67 L 537.04 686.67 Q 537.04 690.61 538.32 693.46 Q 539.59 696.30 541.65 697.78 Q 543.71 699.26 545.92 699.26 L 545.92 699.26 Q 547.66 699.26 549.22 698.71 Q 550.79 698.15 552.12 696.88 Q 553.46 695.60 554.44 693.46 L 554.44 693.46 L 555.60 693.92 Q 554.96 695.83 553.51 697.63 Q 552.06 699.43 549.86 700.56 Q 547.66 701.69 544.76 701.69 L 544.76 701.69 Q 540.58 701.69 537.59 699.78 Q 534.61 697.86 533.01 694.47 Q 531.42 691.08 531.42 686.67 L 531.42 686.67 Q 531.42 681.57 533.04 677.88 Q 534.66 674.20 537.62 672.20 Q 540.58 670.20 544.52 670.20 M 574.10 655.52 L 574.10 655.52 Q 575.73 655.52 576.97 655.96 Q 578.22 656.39 579.15 657.09 L 579.15 657.09 Q 580.02 657.79 580.48 658.71 Q 580.95 659.64 580.95 660.69 L 580.95 660.69 Q 580.95 662.02 580.08 662.89 Q 579.21 663.76 577.87 663.76 L 577.87 663.76 Q 576.60 663.76 575.64 662.92 Q 574.68 662.08 574.68 660.63 L 574.68 660.63 Q 574.68 659.41 575.35 658.66 Q 576.02 657.90 577.12 657.67 L 577.12 657.67 Q 576.95 657.15 576.22 656.77 Q 575.50 656.39 574.28 656.39 L 574.28 656.39 Q 572.94 656.39 571.99 656.97 Q 571.03 657.55 570.51 658.54 L 570.51 658.54 Q 569.81 659.76 569.64 662.16 Q 569.46 664.57 569.46 669.56 L 569.46 669.56 L 569.46 671.07 L 575.67 671.07 L 575.67 672.23 L 569.46 672.23 L 569.46 694.91 Q 569.46 697.75 571.12 698.71 Q 572.77 699.66 575.61 699.66 L 575.61 699.66 L 575.61 700.88 Q 574.28 700.82 571.84 700.74 Q 569.41 700.65 566.68 700.65 L 566.68 700.65 Q 564.71 700.65 562.76 700.74 Q 560.82 700.82 559.84 700.88 L 559.84 700.88 L 559.84 699.66 Q 562.21 699.66 563.23 698.79 Q 564.24 697.92 564.24 695.49 L 564.24 695.49 L 564.24 672.23 L 559.60 672.23 L 559.60 671.07 L 564.24 671.07 Q 564.24 667.65 564.53 665.33 Q 564.82 663.01 565.46 661.35 Q 566.10 659.70 567.20 658.42 L 567.20 658.42 Q 568.36 657.09 570.16 656.31 Q 571.96 655.52 574.10 655.52 M 593.24 670.20 L 593.24 670.20 Q 596.96 670.20 599.91 671.82 Q 602.87 673.45 604.64 676.93 Q 606.41 680.41 606.41 685.97 L 606.41 685.97 Q 606.41 691.54 604.64 694.99 Q 602.87 698.44 599.91 700.07 Q 596.96 701.69 593.24 701.69 L 593.24 701.69 Q 589.59 701.69 586.60 700.07 Q 583.62 698.44 581.85 694.99 Q 580.08 691.54 580.08 685.97 L 580.08 685.97 Q 580.08 680.41 581.85 676.93 Q 583.62 673.45 586.60 671.82 Q 589.59 670.20 593.24 670.20 M 593.24 671.36 L 593.24 671.36 Q 589.94 671.36 587.82 674.78 Q 585.70 678.20 585.70 685.97 L 585.70 685.97 Q 585.70 693.75 587.82 697.14 Q 589.94 700.53 593.24 700.53 L 593.24 700.53 Q 596.55 700.53 598.67 697.14 Q 600.78 693.75 600.78 685.97 L 600.78 685.97 Q 600.78 678.20 598.67 674.78 Q 596.55 671.36 593.24 671.36 M 628.86 670.20 L 628.86 670.20 Q 630.42 670.20 631.61 670.84 Q 632.80 671.47 633.47 672.49 Q 634.13 673.50 634.13 674.78 L 634.13 674.78 Q 634.13 676.23 633.23 677.33 Q 632.34 678.43 630.83 678.43 L 630.83 678.43 Q 629.61 678.43 628.68 677.65 Q 627.75 676.87 627.75 675.42 L 627.75 675.42 Q 627.75 674.32 628.36 673.53 Q 628.97 672.75 629.73 672.29 L 629.73 672.29 Q 629.32 671.71 628.51 671.71 L 628.51 671.71 Q 626.71 671.71 625.20 672.78 Q 623.69 673.85 622.65 675.53 Q 621.61 677.22 621.03 679.10 Q 620.45 680.99 620.45 682.61 L 620.45 682.61 L 620.45 694.91 Q 620.45 697.75 622.10 698.71 Q 623.75 699.66 626.59 699.66 L 626.59 699.66 L 626.59 700.88 Q 625.26 700.82 622.82 700.74 Q 620.39 700.65 617.66 700.65 L 617.66 700.65 Q 615.69 700.65 613.75 700.74 Q 611.80 700.82 610.82 700.88 L 610.82 700.88 L 610.82 699.66 Q 613.20 699.66 614.21 698.79 Q 615.23 697.92 615.23 695.49 L 615.23 695.49 L 615.23 677.33 Q 615.23 674.72 614.30 673.48 Q 613.37 672.23 610.82 672.23 L 610.82 672.23 L 610.82 671.01 Q 612.67 671.18 614.41 671.18 L 614.41 671.18 Q 616.10 671.18 617.63 670.98 Q 619.17 670.78 620.45 670.37 L 620.45 670.37 L 620.45 677.62 Q 621.08 675.94 622.27 674.23 Q 623.46 672.52 625.14 671.36 Q 626.83 670.20 628.86 670.20 M 650.72 670.20 L 650.72 670.20 Q 655.83 670.20 658.70 673.30 Q 661.57 676.40 661.57 682.96 L 661.57 682.96 L 641.09 682.96 L 641.04 681.86 L 656.00 681.86 Q 656.12 679.01 655.54 676.61 Q 654.96 674.20 653.71 672.75 Q 652.46 671.30 650.49 671.30 L 650.49 671.30 Q 647.82 671.30 645.76 673.97 Q 643.70 676.64 643.30 682.44 L 643.30 682.44 L 643.47 682.67 Q 643.36 683.54 643.30 684.58 Q 643.24 685.63 643.24 686.67 L 643.24 686.67 Q 643.24 690.61 644.52 693.46 Q 645.79 696.30 647.85 697.78 Q 649.91 699.26 652.11 699.26 L 652.11 699.26 Q 653.85 699.26 655.42 698.71 Q 656.99 698.15 658.32 696.88 Q 659.65 695.60 660.64 693.46 L 660.64 693.46 L 661.80 693.92 Q 661.16 695.83 659.71 697.63 Q 658.26 699.43 656.06 700.56 Q 653.85 701.69 650.95 701.69 L 650.95 701.69 Q 646.78 701.69 643.79 699.78 Q 640.80 697.86 639.21 694.47 Q 637.61 691.08 637.61 686.67 L 637.61 686.67 Q 637.61 681.57 639.24 677.88 Q 640.86 674.20 643.82 672.20 Q 646.78 670.20 650.72 670.20 M 689.76 661.38 L 689.76 661.38 L 689.76 671.07 L 698.34 671.07 L 698.34 672.23 L 689.76 672.23 L 689.76 694.67 Q 689.76 697.40 690.74 698.50 Q 691.73 699.60 693.47 699.60 L 693.47 699.60 Q 695.21 699.60 696.48 698.18 Q 697.76 696.76 698.69 693.40 L 698.69 693.40 L 699.85 693.69 Q 699.27 697.05 697.56 699.37 Q 695.85 701.69 692.31 701.69 L 692.31 701.69 Q 690.34 701.69 689.06 701.20 Q 687.78 700.71 686.80 699.78 L 686.80 699.78 Q 685.52 698.44 685.03 696.59 Q 684.54 694.73 684.54 691.66 L 684.54 691.66 L 684.54 672.23 L 678.97 672.23 L 678.97 671.07 L 684.54 671.07 L 684.54 662.19 Q 685.99 662.14 687.32 661.96 Q 688.65 661.79 689.76 661.38 M 710.06 655.47 L 710.06 655.47 L 710.06 677.16 Q 711.56 673.21 714.26 671.71 Q 716.96 670.20 719.92 670.20 L 719.92 670.20 Q 722.12 670.20 723.60 670.78 Q 725.08 671.36 726.06 672.40 L 726.06 672.40 Q 727.17 673.56 727.63 675.30 Q 728.09 677.04 728.09 680.00 L 728.09 680.00 L 728.09 695.49 Q 728.09 697.92 729.11 698.79 Q 730.12 699.66 732.50 699.66 L 732.50 699.66 L 732.50 700.88 Q 731.52 700.82 729.49 700.74 Q 727.46 700.65 725.54 700.65 L 725.54 700.65 Q 723.63 700.65 721.80 700.74 Q 719.97 700.82 719.05 700.88 L 719.05 700.88 L 719.05 699.66 Q 721.13 699.66 722.00 698.79 Q 722.87 697.92 722.87 695.49 L 722.87 695.49 L 722.87 678.72 Q 722.87 676.93 722.58 675.42 Q 722.29 673.91 721.28 672.98 Q 720.26 672.05 718.18 672.05 L 718.18 672.05 Q 715.80 672.05 713.97 673.39 Q 712.14 674.72 711.10 677.10 Q 710.06 679.48 710.06 682.55 L 710.06 682.55 L 710.06 695.49 Q 710.06 697.92 710.93 698.79 Q 711.80 699.66 713.88 699.66 L 713.88 699.66 L 713.88 700.88 Q 712.96 700.82 711.13 700.74 Q 709.30 700.65 707.39 700.65 L 707.39 700.65 Q 705.47 700.65 703.44 700.74 Q 701.41 700.82 700.43 700.88 L 700.43 700.88 L 700.43 699.66 Q 702.81 699.66 703.82 698.79 Q 704.84 697.92 704.84 695.49 L 704.84 695.49 L 704.84 662.43 Q 704.84 659.82 703.91 658.57 Q 702.98 657.32 700.43 657.32 L 700.43 657.32 L 700.43 656.10 Q 702.28 656.28 704.02 656.28 L 704.02 656.28 Q 705.71 656.28 707.24 656.08 Q 708.78 655.87 710.06 655.47 M 749.15 670.20 L 749.15 670.20 Q 754.25 670.20 757.12 673.30 Q 759.99 676.40 759.99 682.96 L 759.99 682.96 L 739.52 682.96 L 739.46 681.86 L 754.43 681.86 Q 754.54 679.01 753.96 676.61 Q 753.38 674.20 752.13 672.75 Q 750.89 671.30 748.92 671.30 L 748.92 671.30 Q 746.25 671.30 744.19 673.97 Q 742.13 676.64 741.72 682.44 L 741.72 682.44 L 741.90 682.67 Q 741.78 683.54 741.72 684.58 Q 741.67 685.63 741.67 686.67 L 741.67 686.67 Q 741.67 690.61 742.94 693.46 Q 744.22 696.30 746.28 697.78 Q 748.34 699.26 750.54 699.26 L 750.54 699.26 Q 752.28 699.26 753.85 698.71 Q 755.41 698.15 756.75 696.88 Q 758.08 695.60 759.07 693.46 L 759.07 693.46 L 760.23 693.92 Q 759.59 695.83 758.14 697.63 Q 756.69 699.43 754.48 700.56 Q 752.28 701.69 749.38 701.69 L 749.38 701.69 Q 745.20 701.69 742.22 699.78 Q 739.23 697.86 737.63 694.47 Q 736.04 691.08 736.04 686.67 L 736.04 686.67 Q 736.04 681.57 737.66 677.88 Q 739.29 674.20 742.25 672.20 Q 745.20 670.20 749.15 670.20 M 797.98 670.20 L 797.98 670.20 Q 800.01 670.20 801.52 670.78 Q 803.03 671.36 804.02 672.40 L 804.02 672.40 Q 805.12 673.56 805.52 675.42 Q 805.93 677.27 805.93 680.00 L 805.93 680.00 L 805.93 695.49 Q 805.93 697.92 806.94 698.79 Q 807.96 699.66 810.34 699.66 L 810.34 699.66 L 810.34 700.88 Q 809.35 700.82 807.32 700.74 Q 805.29 700.65 803.38 700.65 L 803.38 700.65 Q 801.46 700.65 799.64 700.74 Q 797.81 700.82 796.88 700.88 L 796.88 700.88 L 796.88 699.66 Q 798.97 699.66 799.84 698.79 Q 800.71 697.92 800.71 695.49 L 800.71 695.49 L 800.71 678.72 Q 800.71 676.93 800.48 675.42 Q 800.25 673.91 799.32 672.98 Q 798.39 672.05 796.30 672.05 L 796.30 672.05 Q 794.04 672.05 792.27 673.45 Q 790.50 674.84 789.49 677.25 Q 788.47 679.65 788.47 682.61 L 788.47 682.61 L 788.47 695.49 Q 788.47 697.92 789.34 698.79 Q 790.21 699.66 792.30 699.66 L 792.30 699.66 L 792.30 700.88 Q 791.37 700.82 789.54 700.74 Q 787.72 700.65 785.80 700.65 L 785.80 700.65 Q 783.89 700.65 781.86 700.74 Q 779.83 700.82 778.84 700.88 L 778.84 700.88 L 778.84 699.66 Q 781.22 699.66 782.24 698.79 Q 783.25 697.92 783.25 695.49 L 783.25 695.49 L 783.25 677.33 Q 783.25 674.72 782.32 673.48 Q 781.40 672.23 778.84 672.23 L 778.84 672.23 L 778.84 671.01 Q 780.70 671.18 782.44 671.18 L 782.44 671.18 Q 784.12 671.18 785.66 670.98 Q 787.20 670.78 788.47 670.37 L 788.47 670.37 L 788.47 677.22 Q 789.98 673.45 792.59 671.82 Q 795.20 670.20 797.98 670.20 M 815.44 670.20 L 815.44 670.20 Q 817.47 670.20 818.98 670.78 Q 820.49 671.36 821.47 672.40 L 821.47 672.40 Q 822.58 673.56 822.98 675.42 Q 823.39 677.27 823.39 680.00 L 823.39 680.00 L 823.39 695.49 Q 823.39 697.92 824.40 698.79 Q 825.42 699.66 827.80 699.66 L 827.80 699.66 L 827.80 700.88 Q 826.81 700.82 824.78 700.74 Q 822.75 700.65 820.84 700.65 L 820.84 700.65 Q 818.92 700.65 817.09 700.74 Q 815.27 700.82 814.34 700.88 L 814.34 700.88 L 814.34 699.66 Q 816.43 699.66 817.30 698.79 Q 818.17 697.92 818.17 695.49 L 818.17 695.49 L 818.17 678.72 Q 818.17 676.93 817.94 675.42 Q 817.70 673.91 816.78 672.98 Q 815.85 672.05 813.76 672.05 L 813.76 672.05 Q 811.50 672.05 809.73 673.45 Q 807.96 674.84 806.94 677.22 Q 805.93 679.59 805.93 682.55 L 805.93 682.55 L 805.76 677.16 Q 807.32 673.16 809.99 671.68 Q 812.66 670.20 815.44 670.20 M 836.96 656.51 L 836.96 656.51 Q 838.47 656.51 839.57 657.61 Q 840.67 658.71 840.67 660.22 L 840.67 660.22 Q 840.67 661.73 839.57 662.83 Q 838.47 663.93 836.96 663.93 L 836.96 663.93 Q 835.45 663.93 834.35 662.83 Q 833.25 661.73 833.25 660.22 L 833.25 660.22 Q 833.25 658.71 834.35 657.61 Q 835.45 656.51 836.96 656.51 M 839.98 670.37 L 839.98 670.37 L 839.98 695.49 Q 839.98 697.92 840.99 698.79 Q 842.01 699.66 844.38 699.66 L 844.38 699.66 L 844.38 700.88 Q 843.40 700.82 841.40 700.74 Q 839.40 700.65 837.37 700.65 L 837.37 700.65 Q 835.39 700.65 833.36 700.74 Q 831.33 700.82 830.35 700.88 L 830.35 700.88 L 830.35 699.66 Q 832.73 699.66 833.74 698.79 Q 834.76 697.92 834.76 695.49 L 834.76 695.49 L 834.76 677.33 Q 834.76 674.72 833.83 673.48 Q 832.90 672.23 830.35 672.23 L 830.35 672.23 L 830.35 671.01 Q 832.20 671.18 833.94 671.18 L 833.94 671.18 Q 835.63 671.18 837.16 670.98 Q 838.70 670.78 839.98 670.37 M 865.38 670.20 L 865.38 670.20 Q 866.95 670.20 868.13 670.84 Q 869.32 671.47 869.99 672.49 Q 870.66 673.50 870.66 674.78 L 870.66 674.78 Q 870.66 676.23 869.76 677.33 Q 868.86 678.43 867.35 678.43 L 867.35 678.43 Q 866.13 678.43 865.21 677.65 Q 864.28 676.87 864.28 675.42 L 864.28 675.42 Q 864.28 674.32 864.89 673.53 Q 865.50 672.75 866.25 672.29 L 866.25 672.29 Q 865.84 671.71 865.03 671.71 L 865.03 671.71 Q 863.23 671.71 861.73 672.78 Q 860.22 673.85 859.17 675.53 Q 858.13 677.22 857.55 679.10 Q 856.97 680.99 856.97 682.61 L 856.97 682.61 L 856.97 694.91 Q 856.97 697.75 858.62 698.71 Q 860.28 699.66 863.12 699.66 L 863.12 699.66 L 863.12 700.88 Q 861.78 700.82 859.35 700.74 Q 856.91 700.65 854.19 700.65 L 854.19 700.65 Q 852.21 700.65 850.27 700.74 Q 848.33 700.82 847.34 700.88 L 847.34 700.88 L 847.34 699.66 Q 849.72 699.66 850.74 698.79 Q 851.75 697.92 851.75 695.49 L 851.75 695.49 L 851.75 677.33 Q 851.75 674.72 850.82 673.48 Q 849.89 672.23 847.34 672.23 L 847.34 672.23 L 847.34 671.01 Q 849.20 671.18 850.94 671.18 L 850.94 671.18 Q 852.62 671.18 854.16 670.98 Q 855.69 670.78 856.97 670.37 L 856.97 670.37 L 856.97 677.62 Q 857.61 675.94 858.80 674.23 Q 859.99 672.52 861.67 671.36 Q 863.35 670.20 865.38 670.20 M 891.19 670.20 L 891.19 670.20 Q 892.76 670.20 893.95 670.84 Q 895.13 671.47 895.80 672.49 Q 896.47 673.50 896.47 674.78 L 896.47 674.78 Q 896.47 676.23 895.57 677.33 Q 894.67 678.43 893.16 678.43 L 893.16 678.43 Q 891.94 678.43 891.02 677.65 Q 890.09 676.87 890.09 675.42 L 890.09 675.42 Q 890.09 674.32 890.70 673.53 Q 891.31 672.75 892.06 672.29 L 892.06 672.29 Q 891.65 671.71 890.84 671.71 L 890.84 671.71 Q 889.04 671.71 887.54 672.78 Q 886.03 673.85 884.98 675.53 Q 883.94 677.22 883.36 679.10 Q 882.78 680.99 882.78 682.61 L 882.78 682.61 L 882.78 694.91 Q 882.78 697.75 884.43 698.71 Q 886.09 699.66 888.93 699.66 L 888.93 699.66 L 888.93 700.88 Q 887.59 700.82 885.16 700.74 Q 882.72 700.65 880.00 700.65 L 880.00 700.65 Q 878.02 700.65 876.08 700.74 Q 874.14 700.82 873.15 700.88 L 873.15 700.88 L 873.15 699.66 Q 875.53 699.66 876.55 698.79 Q 877.56 697.92 877.56 695.49 L 877.56 695.49 L 877.56 677.33 Q 877.56 674.72 876.63 673.48 Q 875.70 672.23 873.15 672.23 L 873.15 672.23 L 873.15 671.01 Q 875.01 671.18 876.75 671.18 L 876.75 671.18 Q 878.43 671.18 879.97 670.98 Q 881.50 670.78 882.78 670.37 L 882.78 670.37 L 882.78 677.62 Q 883.42 675.94 884.61 674.23 Q 885.80 672.52 887.48 671.36 Q 889.16 670.20 891.19 670.20 M 913.17 670.20 L 913.17 670.20 Q 916.88 670.20 919.84 671.82 Q 922.80 673.45 924.57 676.93 Q 926.34 680.41 926.34 685.97 L 926.34 685.97 Q 926.34 691.54 924.57 694.99 Q 922.80 698.44 919.84 700.07 Q 916.88 701.69 913.17 701.69 L 913.17 701.69 Q 909.52 701.69 906.53 700.07 Q 903.54 698.44 901.77 694.99 Q 900.01 691.54 900.01 685.97 L 900.01 685.97 Q 900.01 680.41 901.77 676.93 Q 903.54 673.45 906.53 671.82 Q 909.52 670.20 913.17 670.20 M 913.17 671.36 L 913.17 671.36 Q 909.87 671.36 907.75 674.78 Q 905.63 678.20 905.63 685.97 L 905.63 685.97 Q 905.63 693.75 907.75 697.14 Q 909.87 700.53 913.17 700.53 L 913.17 700.53 Q 916.48 700.53 918.60 697.14 Q 920.71 693.75 920.71 685.97 L 920.71 685.97 Q 920.71 678.20 918.60 674.78 Q 916.48 671.36 913.17 671.36 M 948.78 670.20 L 948.78 670.20 Q 950.35 670.20 951.54 670.84 Q 952.73 671.47 953.39 672.49 Q 954.06 673.50 954.06 674.78 L 954.06 674.78 Q 954.06 676.23 953.16 677.33 Q 952.26 678.43 950.76 678.43 L 950.76 678.43 Q 949.54 678.43 948.61 677.65 Q 947.68 676.87 947.68 675.42 L 947.68 675.42 Q 947.68 674.32 948.29 673.53 Q 948.90 672.75 949.65 672.29 L 949.65 672.29 Q 949.25 671.71 948.44 671.71 L 948.44 671.71 Q 946.64 671.71 945.13 672.78 Q 943.62 673.85 942.58 675.53 Q 941.53 677.22 940.95 679.10 Q 940.37 680.99 940.37 682.61 L 940.37 682.61 L 940.37 694.91 Q 940.37 697.75 942.03 698.71 Q 943.68 699.66 946.52 699.66 L 946.52 699.66 L 946.52 700.88 Q 945.19 700.82 942.75 700.74 Q 940.32 700.65 937.59 700.65 L 937.59 700.65 Q 935.62 700.65 933.67 700.74 Q 931.73 700.82 930.75 700.88 L 930.75 700.88 L 930.75 699.66 Q 933.12 699.66 934.14 698.79 Q 935.15 697.92 935.15 695.49 L 935.15 695.49 L 935.15 677.33 Q 935.15 674.72 934.23 673.48 Q 933.30 672.23 930.75 672.23 L 930.75 672.23 L 930.75 671.01 Q 932.60 671.18 934.34 671.18 L 934.34 671.18 Q 936.02 671.18 937.56 670.98 Q 939.10 670.78 940.37 670.37 L 940.37 670.37 L 940.37 677.62 Q 941.01 675.94 942.20 674.23 Q 943.39 672.52 945.07 671.36 Q 946.75 670.20 948.78 670.20" fill="#1c1917"/><path d="M 500.39 733.13 L 500.39 733.13 L 500.39 772.28 Q 500.39 774.89 501.34 776.13 Q 502.30 777.38 504.79 777.38 L 504.79 777.38 L 504.79 778.60 Q 503.00 778.43 501.20 778.43 L 501.20 778.43 Q 499.52 778.43 497.98 778.60 Q 496.44 778.77 495.17 779.24 L 495.17 779.24 L 495.17 740.09 Q 495.17 737.48 494.24 736.23 Q 493.31 734.98 490.76 734.98 L 490.76 734.98 L 490.76 733.77 Q 492.61 733.94 494.35 733.94 L 494.35 733.94 Q 496.04 733.94 497.57 733.74 Q 499.11 733.53 500.39 733.13 M 488.21 747.92 L 488.21 747.92 Q 490.76 747.92 492.99 749.14 Q 495.22 750.35 495.98 753.31 L 495.98 753.31 L 495.22 753.89 Q 494.41 751.46 492.70 750.35 Q 490.99 749.25 488.67 749.25 L 488.67 749.25 Q 485.25 749.25 482.96 752.79 Q 480.67 756.33 480.72 763.69 L 480.72 763.69 Q 480.72 768.39 481.62 771.49 Q 482.52 774.60 484.29 776.13 Q 486.06 777.67 488.61 777.67 L 488.61 777.67 Q 491.05 777.67 493.02 775.58 Q 494.99 773.50 495.40 769.44 L 495.40 769.44 L 496.09 770.25 Q 495.63 774.66 493.28 777.03 Q 490.93 779.41 486.93 779.41 L 486.93 779.41 Q 483.33 779.41 480.64 777.67 Q 477.94 775.93 476.52 772.45 Q 475.10 768.97 475.10 763.69 L 475.10 763.69 Q 475.10 758.42 476.92 754.91 Q 478.75 751.40 481.74 749.66 Q 484.73 747.92 488.21 747.92 M 521.90 747.92 L 521.90 747.92 Q 525.62 747.92 528.57 749.54 Q 531.53 751.17 533.30 754.65 Q 535.07 758.13 535.07 763.69 L 535.07 763.69 Q 535.07 769.26 533.30 772.71 Q 531.53 776.16 528.57 777.79 Q 525.62 779.41 521.90 779.41 L 521.90 779.41 Q 518.25 779.41 515.26 777.79 Q 512.28 776.16 510.51 772.71 Q 508.74 769.26 508.74 763.69 L 508.74 763.69 Q 508.74 758.13 510.51 754.65 Q 512.28 751.17 515.26 749.54 Q 518.25 747.92 521.90 747.92 M 521.90 749.08 L 521.90 749.08 Q 518.60 749.08 516.48 752.50 Q 514.36 755.92 514.36 763.69 L 514.36 763.69 Q 514.36 771.47 516.48 774.86 Q 518.60 778.25 521.90 778.25 L 521.90 778.25 Q 525.21 778.25 527.33 774.86 Q 529.44 771.47 529.44 763.69 L 529.44 763.69 Q 529.44 755.92 527.33 752.50 Q 525.21 749.08 521.90 749.08 M 553.57 747.92 L 553.57 747.92 Q 558.68 747.92 561.55 751.02 Q 564.42 754.12 564.42 760.68 L 564.42 760.68 L 543.94 760.68 L 543.89 759.58 L 558.85 759.58 Q 558.97 756.73 558.39 754.33 Q 557.81 751.92 556.56 750.47 Q 555.31 749.02 553.34 749.02 L 553.34 749.02 Q 550.67 749.02 548.61 751.69 Q 546.55 754.36 546.15 760.16 L 546.15 760.16 L 546.32 760.39 Q 546.21 761.26 546.15 762.30 Q 546.09 763.35 546.09 764.39 L 546.09 764.39 Q 546.09 768.33 547.37 771.18 Q 548.64 774.02 550.70 775.50 Q 552.76 776.98 554.96 776.98 L 554.96 776.98 Q 556.70 776.98 558.27 776.42 Q 559.84 775.87 561.17 774.60 Q 562.50 773.32 563.49 771.18 L 563.49 771.18 L 564.65 771.64 Q 564.01 773.55 562.56 775.35 Q 561.11 777.15 558.91 778.28 Q 556.70 779.41 553.80 779.41 L 553.80 779.41 Q 549.63 779.41 546.64 777.50 Q 543.65 775.58 542.06 772.19 Q 540.46 768.80 540.46 764.39 L 540.46 764.39 Q 540.46 759.29 542.09 755.60 Q 543.71 751.92 546.67 749.92 Q 549.63 747.92 553.57 747.92 M 579.21 747.92 L 579.21 747.92 Q 581.53 747.92 583.15 748.67 Q 584.78 749.43 585.53 750.06 L 585.53 750.06 Q 587.44 751.63 587.85 747.98 L 587.85 747.98 L 589.18 747.98 Q 589.07 749.60 589.01 751.83 Q 588.95 754.07 588.95 757.84 L 588.95 757.84 L 587.62 757.84 Q 587.27 755.69 586.43 753.66 Q 585.59 751.63 583.96 750.32 Q 582.34 749.02 579.73 749.02 L 579.73 749.02 Q 577.70 749.02 576.34 750.15 Q 574.97 751.28 574.97 753.49 L 574.97 753.49 Q 574.97 755.23 576.02 756.47 Q 577.06 757.72 578.74 758.79 Q 580.43 759.87 582.40 761.14 L 582.40 761.14 Q 584.60 762.53 586.40 763.98 Q 588.20 765.43 589.27 767.17 Q 590.34 768.91 590.34 771.29 L 590.34 771.29 Q 590.34 773.96 588.95 775.76 Q 587.56 777.56 585.33 778.48 Q 583.09 779.41 580.43 779.41 L 580.43 779.41 Q 579.15 779.41 578.02 779.21 Q 576.89 779.01 575.84 778.60 L 575.84 778.60 Q 575.26 778.31 574.65 777.90 Q 574.05 777.50 573.47 777.03 L 573.47 777.03 Q 572.89 776.57 572.42 777.06 Q 571.96 777.56 571.73 779.01 L 571.73 779.01 L 570.39 779.01 Q 570.51 777.15 570.57 774.48 Q 570.62 771.81 570.62 767.41 L 570.62 767.41 L 571.96 767.41 Q 572.36 770.65 573.12 773.09 Q 573.87 775.53 575.50 776.89 Q 577.12 778.25 580.02 778.25 L 580.02 778.25 Q 581.18 778.25 582.37 777.73 Q 583.56 777.21 584.37 775.99 Q 585.18 774.77 585.18 772.74 L 585.18 772.74 Q 585.18 770.19 583.33 768.57 Q 581.47 766.94 578.63 765.14 L 578.63 765.14 Q 576.54 763.81 574.71 762.48 Q 572.89 761.14 571.75 759.46 Q 570.62 757.78 570.62 755.40 L 570.62 755.40 Q 570.62 752.79 571.81 751.14 Q 573.00 749.48 574.97 748.70 Q 576.95 747.92 579.21 747.92 M 600.38 771.99 L 600.38 771.99 Q 601.89 771.99 602.99 773.09 Q 604.09 774.19 604.09 775.70 L 604.09 775.70 Q 604.09 777.21 602.99 778.31 Q 601.89 779.41 600.38 779.41 L 600.38 779.41 Q 598.87 779.41 597.77 778.31 Q 596.67 777.21 596.67 775.70 L 596.67 775.70 Q 596.67 774.19 597.77 773.09 Q 598.87 771.99 600.38 771.99" fill="#1c1917"/>
    <text x="540" y="1120" text-anchor="middle" fill="#78716c" font-family="'Helvetica Neue', Arial, sans-serif" font-size="22" letter-spacing="5" style="text-transform:uppercase">From the Atelier Journal</text>
    <text x="540" y="1295" text-anchor="middle" fill="#D4B378" font-family="'Helvetica Neue', Arial, sans-serif" font-size="20" letter-spacing="7" style="text-transform:uppercase">Atelier</text>
  </svg>