<svg xmlns="http://www.w3.org/2000/svg" width="1080" height="1350" viewBox="0 0 1080 1350">
    <rect width="1080" height="1350" fill="#F7F5F2"/>
  <rect x="40" y="40" width="1000" height="1270" fill="none" stroke="#D4B378" stroke-width="1.5" opacity="0.5"/>
    <text x="540" y="210" text-anchor="middle" fill="#D4B378" font-family="'Helvetica Neue', Arial, sans-serif" font-size="27" letter-spacing="8" style="text-transform:uppercase">The Atelier Palette</text>
    <rect x="150" y="350" width="130" height="100" rx="8" fill="#F7F5F2" stroke="#78716c" stroke-width="1"/>
      <path d="M 344.84 369.12 L 344.84 369.12 Q 347.48 369.12 349.18 369.90 Q 350.88 370.68 352.20 371.72 L 352.20 371.72 Q 353.00 372.32 353.42 371.86 Q 353.84 371.40 354.00 369.68 L 354.00 369.68 L 354.92 369.68 Q 354.84 371.16 354.80 373.28 Q 354.76 375.40 354.76 378.88 L 354.76 378.88 L 353.84 378.88 Q 353.56 377.16 353.32 376.14 Q 353.08 375.12 352.74 374.40 Q 352.40 373.68 351.84 372.96 L 351.84 372.96 Q 350.60 371.32 348.72 370.58 Q 346.84 369.84 344.76 369.84 L 344.76 369.84 Q 342.80 369.84 341.22 370.82 Q 339.64 371.80 338.50 373.64 Q 337.36 375.48 336.74 378.08 Q 336.12 380.68 336.12 383.92 L 336.12 383.92 Q 336.12 387.28 336.80 389.86 Q 337.48 392.44 338.70 394.20 Q 339.92 395.96 341.58 396.86 Q 343.24 397.76 345.16 397.76 L 345.16 397.76 Q 346.96 397.76 348.92 397.04 Q 350.88 396.32 352.00 394.72 L 352.00 394.72 Q 352.88 393.56 353.22 392.20 Q 353.56 390.84 353.84 388.40 L 353.84 388.40 L 354.76 388.40 Q 354.76 392.04 354.80 394.26 Q 354.84 396.48 354.92 398.00 L 354.92 398.00 L 354.00 398.00 Q 353.84 396.28 353.46 395.84 Q 353.08 395.40 352.20 395.96 L 352.20 395.96 Q 350.72 397.00 349.06 397.78 Q 347.40 398.56 344.80 398.56 L 344.80 398.56 Q 341.00 398.56 338.14 396.84 Q 335.28 395.12 333.70 391.88 Q 332.12 388.64 332.12 384.08 L 332.12 384.08 Q 332.12 379.60 333.76 376.24 Q 335.40 372.88 338.26 371.00 Q 341.12 369.12 344.84 369.12 M 371.12 376.84 L 371.12 376.84 Q 372.20 376.84 373.02 377.28 Q 373.84 377.72 374.30 378.42 Q 374.76 379.12 374.76 380.00 L 374.76 380.00 Q 374.76 381.00 374.14 381.76 Q 373.52 382.52 372.48 382.52 L 372.48 382.52 Q 371.64 382.52 371.00 381.98 Q 370.36 381.44 370.36 380.44 L 370.36 380.44 Q 370.36 379.68 370.78 379.14 Q 371.20 378.60 371.72 378.28 L 371.72 378.28 Q 371.44 377.88 370.88 377.88 L 370.88 377.88 Q 369.64 377.88 368.60 378.62 Q 367.56 379.36 366.84 380.52 Q 366.12 381.68 365.72 382.98 Q 365.32 384.28 365.32 385.40 L 365.32 385.40 L 365.32 393.88 Q 365.32 395.84 366.46 396.50 Q 367.60 397.16 369.56 397.16 L 369.56 397.16 L 369.56 398.00 Q 368.64 397.96 366.96 397.90 Q 365.28 397.84 363.40 397.84 L 363.40 397.84 Q 362.04 397.84 360.70 397.90 Q 359.36 397.96 358.68 398.00 L 358.68 398.00 L 358.68 397.16 Q 360.32 397.16 361.02 396.56 Q 361.72 395.96 361.72 394.28 L 361.72 394.28 L 361.72 381.76 Q 361.72 379.96 361.08 379.10 Q 360.44 378.24 358.68 378.24 L 358.68 378.24 L 358.68 377.40 Q 359.96 377.52 361.16 377.52 L 361.16 377.52 Q 362.32 377.52 363.38 377.38 Q 364.44 377.24 365.32 376.96 L 365.32 376.96 L 365.32 381.96 Q 365.76 380.80 366.58 379.62 Q 367.40 378.44 368.56 377.64 Q 369.72 376.84 371.12 376.84 M 386.20 376.84 L 386.20 376.84 Q 389.72 376.84 391.70 378.98 Q 393.68 381.12 393.68 385.64 L 393.68 385.64 L 379.56 385.64 L 379.52 384.88 L 389.84 384.88 Q 389.92 382.92 389.52 381.26 Q 389.12 379.60 388.26 378.60 Q 387.40 377.60 386.04 377.60 L 386.04 377.60 Q 384.20 377.60 382.78 379.44 Q 381.36 381.28 381.08 385.28 L 381.08 385.28 L 381.20 385.44 Q 381.12 386.04 381.08 386.76 Q 381.04 387.48 381.04 388.20 L 381.04 388.20 Q 381.04 390.92 381.92 392.88 Q 382.80 394.84 384.22 395.86 Q 385.64 396.88 387.16 396.88 L 387.16 396.88 Q 388.36 396.88 389.44 396.50 Q 390.52 396.12 391.44 395.24 Q 392.36 394.36 393.04 392.88 L 393.04 392.88 L 393.84 393.20 Q 393.40 394.52 392.40 395.76 Q 391.40 397.00 389.88 397.78 Q 388.36 398.56 386.36 398.56 L 386.36 398.56 Q 383.48 398.56 381.42 397.24 Q 379.36 395.92 378.26 393.58 Q 377.16 391.24 377.16 388.20 L 377.16 388.20 Q 377.16 384.68 378.28 382.14 Q 379.40 379.60 381.44 378.22 Q 383.48 376.84 386.20 376.84 M 402.40 398.28 L 402.40 398.28 Q 400.76 398.28 399.56 397.66 Q 398.36 397.04 397.74 395.92 Q 397.12 394.80 397.12 393.32 L 397.12 393.32 Q 397.12 391.56 397.94 390.44 Q 398.76 389.32 400.04 388.64 Q 401.32 387.96 402.74 387.50 Q 404.16 387.04 405.44 386.62 Q 406.72 386.20 407.54 385.64 Q 408.36 385.08 408.36 384.16 L 408.36 384.16 L 408.36 381.68 Q 408.36 380.00 407.86 379.12 Q 407.36 378.24 406.52 377.94 Q 405.68 377.64 404.64 377.64 L 404.64 377.64 Q 403.64 377.64 402.50 377.92 Q 401.36 378.20 400.68 379.08 L 400.68 379.08 Q 401.44 379.24 402.00 379.88 Q 402.56 380.52 402.56 381.52 L 402.56 381.52 Q 402.56 382.52 401.92 383.10 Q 401.28 383.68 400.28 383.68 L 400.28 383.68 Q 399.12 383.68 398.58 382.94 Q 398.04 382.20 398.04 381.28 L 398.04 381.28 Q 398.04 380.24 398.56 379.60 Q 399.08 378.96 399.88 378.40 L 399.88 378.40 Q 400.80 377.76 402.26 377.30 Q 403.72 376.84 405.56 376.84 L 405.56 376.84 Q 407.20 376.84 408.36 377.22 Q 409.52 377.60 410.28 378.32 L 410.28 378.32 Q 411.32 379.28 411.64 380.66 Q 411.96 382.04 411.96 383.96 L 411.96 383.96 L 411.96 395.08 Q 411.96 396.08 412.26 396.52 Q 412.56 396.96 413.20 396.96 L 413.20 396.96 Q 413.64 396.96 414.04 396.76 Q 414.44 396.56 415.00 396.12 L 415.00 396.12 L 415.44 396.80 Q 414.60 397.44 413.84 397.86 Q 413.08 398.28 411.80 398.28 L 411.80 398.28 Q 410.64 398.28 409.88 397.88 Q 409.12 397.48 408.74 396.70 Q 408.36 395.92 408.36 394.72 L 408.36 394.72 Q 407.28 396.52 405.78 397.40 Q 404.28 398.28 402.40 398.28 M 403.84 396.68 L 403.84 396.68 Q 405.16 396.68 406.30 395.92 Q 407.44 395.16 408.36 393.64 L 408.36 393.64 L 408.36 385.80 Q 407.88 386.48 406.96 386.94 Q 406.04 387.40 404.96 387.86 Q 403.88 388.32 402.90 388.94 Q 401.92 389.56 401.28 390.56 Q 400.64 391.56 400.64 393.16 L 400.64 393.16 Q 400.64 394.76 401.50 395.72 Q 402.36 396.68 403.84 396.68 M 429.84 376.84 L 429.84 376.84 Q 431.24 376.84 432.28 377.24 Q 433.32 377.64 434.00 378.36 L 434.00 378.36 Q 434.76 379.16 435.04 380.44 Q 435.32 381.72 435.32 383.60 L 435.32 383.60 L 435.32 394.28 Q 435.32 395.96 436.02 396.56 Q 436.72 397.16 438.36 397.16 L 438.36 397.16 L 438.36 398.00 Q 437.68 397.96 436.28 397.90 Q 434.88 397.84 433.56 397.84 L 433.56 397.84 Q 432.24 397.84 430.98 397.90 Q 429.72 397.96 429.08 398.00 L 429.08 398.00 L 429.08 397.16 Q 430.52 397.16 431.12 396.56 Q 431.72 395.96 431.72 394.28 L 431.72 394.28 L 431.72 382.72 Q 431.72 381.48 431.56 380.44 Q 431.40 379.40 430.76 378.76 Q 430.12 378.12 428.68 378.12 L 428.68 378.12 Q 427.12 378.12 425.90 379.08 Q 424.68 380.04 423.98 381.70 Q 423.28 383.36 423.28 385.40 L 423.28 385.40 L 423.28 394.28 Q 423.28 395.96 423.88 396.56 Q 424.48 397.16 425.92 397.16 L 425.92 397.16 L 425.92 398.00 Q 425.28 397.96 424.02 397.90 Q 422.76 397.84 421.44 397.84 L 421.44 397.84 Q 420.12 397.84 418.72 397.90 Q 417.32 397.96 416.64 398.00 L 416.64 398.00 L 416.64 397.16 Q 418.28 397.16 418.98 396.56 Q 419.68 395.96 419.68 394.28 L 419.68 394.28 L 419.68 381.76 Q 419.68 379.96 419.04 379.10 Q 418.40 378.24 416.64 378.24 L 416.64 378.24 L 416.64 377.40 Q 417.92 377.52 419.12 377.52 L 419.12 377.52 Q 420.28 377.52 421.34 377.38 Q 422.40 377.24 423.28 376.96 L 423.28 376.96 L 423.28 381.68 Q 424.32 379.08 426.12 377.96 Q 427.92 376.84 429.84 376.84 M 441.88 376.84 L 441.88 376.84 Q 443.28 376.84 444.32 377.24 Q 445.36 377.64 446.04 378.36 L 446.04 378.36 Q 446.80 379.16 447.08 380.44 Q 447.36 381.72 447.36 383.60 L 447.36 383.60 L 447.36 394.28 Q 447.36 395.96 448.06 396.56 Q 448.76 397.16 450.40 397.16 L 450.40 397.16 L 450.40 398.00 Q 449.72 397.96 448.32 397.90 Q 446.92 397.84 445.60 397.84 L 445.60 397.84 Q 444.28 397.84 443.02 397.90 Q 441.76 397.96 441.12 398.00 L 441.12 398.00 L 441.12 397.16 Q 442.56 397.16 443.16 396.56 Q 443.76 395.96 443.76 394.28 L 443.76 394.28 L 443.76 382.72 Q 443.76 381.48 443.60 380.44 Q 443.44 379.40 442.80 378.76 Q 442.16 378.12 440.72 378.12 L 440.72 378.12 Q 439.16 378.12 437.94 379.08 Q 436.72 380.04 436.02 381.68 Q 435.32 383.32 435.32 385.36 L 435.32 385.36 L 435.20 381.64 Q 436.28 378.88 438.12 377.86 Q 439.96 376.84 441.88 376.84" fill="#1c1917"/>
      <text x="330" y="432" fill="#78716c" font-family="'Helvetica Neue', Arial, sans-serif" font-size="24" letter-spacing="2">#F7F5F2</text><rect x="150" y="480" width="130" height="100" rx="8" fill="#78716c" />
      <path d="M 340.24 499.24 L 340.24 499.24 Q 342.24 499.24 343.28 499.70 Q 344.32 500.16 345.12 500.72 L 345.12 500.72 Q 345.60 501.00 345.90 501.14 Q 346.20 501.28 346.48 501.28 L 346.48 501.28 Q 346.88 501.28 347.06 500.84 Q 347.24 500.40 347.36 499.52 L 347.36 499.52 L 348.28 499.52 Q 348.24 500.20 348.18 501.14 Q 348.12 502.08 348.10 503.62 Q 348.08 505.16 348.08 507.68 L 348.08 507.68 L 347.16 507.68 Q 347.04 505.76 346.32 504.00 Q 345.60 502.24 344.22 501.12 Q 342.84 500.00 340.60 500.00 L 340.60 500.00 Q 338.48 500.00 337.10 501.28 Q 335.72 502.56 335.72 504.64 L 335.72 504.64 Q 335.72 506.44 336.64 507.66 Q 337.56 508.88 339.10 509.86 Q 340.64 510.84 342.44 511.96 L 342.44 511.96 Q 344.52 513.24 346.14 514.50 Q 347.76 515.76 348.70 517.28 Q 349.64 518.80 349.64 520.96 L 349.64 520.96 Q 349.64 523.52 348.48 525.20 Q 347.32 526.88 345.40 527.72 Q 343.48 528.56 341.16 528.56 L 341.16 528.56 Q 339.04 528.56 337.80 528.08 Q 336.56 527.60 335.68 527.08 L 335.68 527.08 Q 334.80 526.52 334.32 526.52 L 334.32 526.52 Q 333.92 526.52 333.74 526.96 Q 333.56 527.40 333.44 528.28 L 333.44 528.28 L 332.52 528.28 Q 332.60 527.44 332.62 526.30 Q 332.64 525.16 332.66 523.32 Q 332.68 521.48 332.68 518.68 L 332.68 518.68 L 333.60 518.68 Q 333.76 521.08 334.50 523.16 Q 335.24 525.24 336.78 526.50 Q 338.32 527.76 340.88 527.76 L 340.88 527.76 Q 342.20 527.76 343.38 527.22 Q 344.56 526.68 345.32 525.50 Q 346.08 524.32 346.08 522.44 L 346.08 522.44 Q 346.08 520.80 345.30 519.58 Q 344.52 518.36 343.12 517.30 Q 341.72 516.24 339.84 515.12 L 339.84 515.12 Q 337.96 513.96 336.32 512.76 Q 334.68 511.56 333.70 509.98 Q 332.72 508.40 332.72 506.16 L 332.72 506.16 Q 332.72 503.80 333.78 502.26 Q 334.84 500.72 336.56 499.98 Q 338.28 499.24 340.24 499.24 M 359.20 500.76 L 359.20 500.76 L 359.20 507.44 L 365.12 507.44 L 365.12 508.24 L 359.20 508.24 L 359.20 523.72 Q 359.20 525.60 359.88 526.36 Q 360.56 527.12 361.76 527.12 L 361.76 527.12 Q 362.96 527.12 363.84 526.14 Q 364.72 525.16 365.36 522.84 L 365.36 522.84 L 366.16 523.04 Q 365.76 525.36 364.58 526.96 Q 363.40 528.56 360.96 528.56 L 360.96 528.56 Q 359.60 528.56 358.72 528.22 Q 357.84 527.88 357.16 527.24 L 357.16 527.24 Q 356.28 526.32 355.94 525.04 Q 355.60 523.76 355.60 521.64 L 355.60 521.64 L 355.60 508.24 L 351.76 508.24 L 351.76 507.44 L 355.60 507.44 L 355.60 501.32 Q 356.60 501.28 357.52 501.16 Q 358.44 501.04 359.20 500.76 M 376.72 506.84 L 376.72 506.84 Q 379.28 506.84 381.32 507.96 Q 383.36 509.08 384.58 511.48 Q 385.80 513.88 385.80 517.72 L 385.80 517.72 Q 385.80 521.56 384.58 523.94 Q 383.36 526.32 381.32 527.44 Q 379.28 528.56 376.72 528.56 L 376.72 528.56 Q 374.20 528.56 372.14 527.44 Q 370.08 526.32 368.86 523.94 Q 367.64 521.56 367.64 517.72 L 367.64 517.72 Q 367.64 513.88 368.86 511.48 Q 370.08 509.08 372.14 507.96 Q 374.20 506.84 376.72 506.84 M 376.72 507.64 L 376.72 507.64 Q 374.44 507.64 372.98 510.00 Q 371.52 512.36 371.52 517.72 L 371.52 517.72 Q 371.52 523.08 372.98 525.42 Q 374.44 527.76 376.72 527.76 L 376.72 527.76 Q 379.00 527.76 380.46 525.42 Q 381.92 523.08 381.92 517.72 L 381.92 517.72 Q 381.92 512.36 380.46 510.00 Q 379.00 507.64 376.72 507.64 M 402.28 506.84 L 402.28 506.84 Q 403.80 506.84 404.82 507.24 Q 405.84 507.64 406.52 508.36 L 406.52 508.36 Q 407.28 509.16 407.60 510.36 Q 407.92 511.56 407.92 513.60 L 407.92 513.60 L 407.92 524.28 Q 407.92 525.96 408.62 526.56 Q 409.32 527.16 410.96 527.16 L 410.96 527.16 L 410.96 528.00 Q 410.28 527.96 408.88 527.90 Q 407.48 527.84 406.16 527.84 L 406.16 527.84 Q 404.84 527.84 403.58 527.90 Q 402.32 527.96 401.68 528.00 L 401.68 528.00 L 401.68 527.16 Q 403.12 527.16 403.72 526.56 Q 404.32 525.96 404.32 524.28 L 404.32 524.28 L 404.32 512.72 Q 404.32 511.48 404.12 510.44 Q 403.92 509.40 403.22 508.76 Q 402.52 508.12 401.08 508.12 L 401.08 508.12 Q 399.40 508.12 398.14 509.08 Q 396.88 510.04 396.18 511.70 Q 395.48 513.36 395.48 515.40 L 395.48 515.40 L 395.48 524.28 Q 395.48 525.96 396.08 526.56 Q 396.68 527.16 398.12 527.16 L 398.12 527.16 L 398.12 528.00 Q 397.48 527.96 396.22 527.90 Q 394.96 527.84 393.64 527.84 L 393.64 527.84 Q 392.32 527.84 390.92 527.90 Q 389.52 527.96 388.84 528.00 L 388.84 528.00 L 388.84 527.16 Q 390.48 527.16 391.18 526.56 Q 391.88 525.96 391.88 524.28 L 391.88 524.28 L 391.88 511.76 Q 391.88 509.96 391.24 509.10 Q 390.60 508.24 388.84 508.24 L 388.84 508.24 L 388.84 507.40 Q 390.12 507.52 391.32 507.52 L 391.32 507.52 Q 392.48 507.52 393.54 507.38 Q 394.60 507.24 395.48 506.96 L 395.48 506.96 L 395.48 511.68 Q 396.52 508.96 398.38 507.90 Q 400.24 506.84 402.28 506.84 M 422.44 506.84 L 422.44 506.84 Q 425.96 506.84 427.94 508.98 Q 429.92 511.12 429.92 515.64 L 429.92 515.64 L 415.80 515.64 L 415.76 514.88 L 426.08 514.88 Q 426.16 512.92 425.76 511.26 Q 425.36 509.60 424.50 508.60 Q 423.64 507.60 422.28 507.60 L 422.28 507.60 Q 420.44 507.60 419.02 509.44 Q 417.60 511.28 417.32 515.28 L 417.32 515.28 L 417.44 515.44 Q 417.36 516.04 417.32 516.76 Q 417.28 517.48 417.28 518.20 L 417.28 518.20 Q 417.28 520.92 418.16 522.88 Q 419.04 524.84 420.46 525.86 Q 421.88 526.88 423.40 526.88 L 423.40 526.88 Q 424.60 526.88 425.68 526.50 Q 426.76 526.12 427.68 525.24 Q 428.60 524.36 429.28 522.88 L 429.28 522.88 L 430.08 523.20 Q 429.64 524.52 428.64 525.76 Q 427.64 527.00 426.12 527.78 Q 424.60 528.56 422.60 528.56 L 422.60 528.56 Q 419.72 528.56 417.66 527.24 Q 415.60 525.92 414.50 523.58 Q 413.40 521.24 413.40 518.20 L 413.40 518.20 Q 413.40 514.68 414.52 512.14 Q 415.64 509.60 417.68 508.22 Q 419.72 506.84 422.44 506.84" fill="#1c1917"/>
      <text x="330" y="562" fill="#78716c" font-family="'Helvetica Neue', Arial, sans-serif" font-size="24" letter-spacing="2">#78716C</text><rect x="150" y="610" width="130" height="100" rx="8" fill="#D4B378" />
      <path d="M 331.68 630.48 L 331.68 629.68 Q 332.52 629.72 333.88 629.76 Q 335.24 629.80 336.56 629.80 L 336.56 629.80 Q 338.44 629.80 340.16 629.76 Q 341.88 629.72 342.60 629.72 L 342.60 629.72 Q 346.80 629.72 348.92 631.48 Q 351.04 633.24 351.04 636.00 L 351.04 636.00 Q 351.04 637.40 350.46 638.74 Q 349.88 640.08 348.54 641.18 Q 347.20 642.28 344.96 642.96 L 344.96 642.96 L 344.96 643.04 Q 348.12 643.44 349.90 644.54 Q 351.68 645.64 352.40 647.12 Q 353.12 648.60 353.12 650.24 L 353.12 650.24 Q 353.12 652.52 351.98 654.26 Q 350.84 656.00 348.68 657.00 Q 346.52 658.00 343.52 658.00 L 343.52 658.00 Q 342.64 658.00 340.88 657.94 Q 339.12 657.88 336.64 657.88 L 336.64 657.88 Q 335.24 657.88 333.88 657.90 Q 332.52 657.92 331.68 658.00 L 331.68 658.00 L 331.68 657.20 Q 333.04 657.12 333.74 656.88 Q 334.44 656.64 334.68 655.92 Q 334.92 655.20 334.92 653.76 L 334.92 653.76 L 334.92 633.92 Q 334.92 632.44 334.68 631.74 Q 334.44 631.04 333.74 630.78 Q 333.04 630.52 331.68 630.48 L 331.68 630.48 M 341.60 630.48 L 341.60 630.48 Q 339.76 630.48 339.20 631.16 Q 338.64 631.84 338.64 633.92 L 338.64 633.92 L 338.64 653.76 Q 338.64 655.16 338.88 655.88 Q 339.12 656.60 339.76 656.84 Q 340.40 657.08 341.64 657.08 L 341.64 657.08 Q 345.56 657.08 347.34 655.26 Q 349.12 653.44 349.12 650.08 L 349.12 650.08 Q 349.12 647.00 347.46 645.32 Q 345.80 643.64 342.00 643.64 L 342.00 643.64 L 337.88 643.64 Q 337.88 643.64 337.88 643.30 Q 337.88 642.96 337.88 642.96 L 337.88 642.96 L 341.32 642.96 Q 343.68 642.96 344.96 642.06 Q 346.24 641.16 346.72 639.66 Q 347.20 638.16 347.20 636.44 L 347.20 636.44 Q 347.20 633.48 345.90 631.98 Q 344.60 630.48 341.60 630.48 M 368.52 636.84 L 368.52 636.84 Q 369.60 636.84 370.42 637.28 Q 371.24 637.72 371.70 638.42 Q 372.16 639.12 372.16 640.00 L 372.16 640.00 Q 372.16 641.00 371.54 641.76 Q 370.92 642.52 369.88 642.52 L 369.88 642.52 Q 369.04 642.52 368.40 641.98 Q 367.76 641.44 367.76 640.44 L 367.76 640.44 Q 367.76 639.68 368.18 639.14 Q 368.60 638.60 369.12 638.28 L 369.12 638.28 Q 368.84 637.88 368.28 637.88 L 368.28 637.88 Q 367.04 637.88 366.00 638.62 Q 364.96 639.36 364.24 640.52 Q 363.52 641.68 363.12 642.98 Q 362.72 644.28 362.72 645.40 L 362.72 645.40 L 362.72 653.88 Q 362.72 655.84 363.86 656.50 Q 365.00 657.16 366.96 657.16 L 366.96 657.16 L 366.96 658.00 Q 366.04 657.96 364.36 657.90 Q 362.68 657.84 360.80 657.84 L 360.80 657.84 Q 359.44 657.84 358.10 657.90 Q 356.76 657.96 356.08 658.00 L 356.08 658.00 L 356.08 657.16 Q 357.72 657.16 358.42 656.56 Q 359.12 655.96 359.12 654.28 L 359.12 654.28 L 359.12 641.76 Q 359.12 639.96 358.48 639.10 Q 357.84 638.24 356.08 638.24 L 356.08 638.24 L 356.08 637.40 Q 357.36 637.52 358.56 637.52 L 358.56 637.52 Q 359.72 637.52 360.78 637.38 Q 361.84 637.24 362.72 636.96 L 362.72 636.96 L 362.72 641.96 Q 363.16 640.80 363.98 639.62 Q 364.80 638.44 365.96 637.64 Q 367.12 636.84 368.52 636.84 M 379.56 658.28 L 379.56 658.28 Q 377.92 658.28 376.72 657.66 Q 375.52 657.04 374.90 655.92 Q 374.28 654.80 374.28 653.32 L 374.28 653.32 Q 374.28 651.56 375.10 650.44 Q 375.92 649.32 377.20 648.64 Q 378.48 647.96 379.90 647.50 Q 381.32 647.04 382.60 646.62 Q 383.88 646.20 384.70 645.64 Q 385.52 645.08 385.52 644.16 L 385.52 644.16 L 385.52 641.68 Q 385.52 640.00 385.02 639.12 Q 384.52 638.24 383.68 637.94 Q 382.84 637.64 381.80 637.64 L 381.80 637.64 Q 380.80 637.64 379.66 637.92 Q 378.52 638.20 377.84 639.08 L 377.84 639.08 Q 378.60 639.24 379.16 639.88 Q 379.72 640.52 379.72 641.52 L 379.72 641.52 Q 379.72 642.52 379.08 643.10 Q 378.44 643.68 377.44 643.68 L 377.44 643.68 Q 376.28 643.68 375.74 642.94 Q 375.20 642.20 375.20 641.28 L 375.20 641.28 Q 375.20 640.24 375.72 639.60 Q 376.24 638.96 377.04 638.40 L 377.04 638.40 Q 377.96 637.76 379.42 637.30 Q 380.88 636.84 382.72 636.84 L 382.72 636.84 Q 384.36 636.84 385.52 637.22 Q 386.68 637.60 387.44 638.32 L 387.44 638.32 Q 388.48 639.28 388.80 640.66 Q 389.12 642.04 389.12 643.96 L 389.12 643.96 L 389.12 655.08 Q 389.12 656.08 389.42 656.52 Q 389.72 656.96 390.36 656.96 L 390.36 656.96 Q 390.80 656.96 391.20 656.76 Q 391.60 656.56 392.16 656.12 L 392.16 656.12 L 392.60 656.80 Q 391.76 657.44 391.00 657.86 Q 390.24 658.28 388.96 658.28 L 388.96 658.28 Q 387.80 658.28 387.04 657.88 Q 386.28 657.48 385.90 656.70 Q 385.52 655.92 385.52 654.72 L 385.52 654.72 Q 384.44 656.52 382.94 657.40 Q 381.44 658.28 379.56 658.28 M 381.00 656.68 L 381.00 656.68 Q 382.32 656.68 383.46 655.92 Q 384.60 655.16 385.52 653.64 L 385.52 653.64 L 385.52 645.80 Q 385.04 646.48 384.12 646.94 Q 383.20 647.40 382.12 647.86 Q 381.04 648.32 380.06 648.94 Q 379.08 649.56 378.44 650.56 Q 377.80 651.56 377.80 653.16 L 377.80 653.16 Q 377.80 654.76 378.66 655.72 Q 379.52 656.68 381.00 656.68 M 400.96 636.84 L 400.96 636.84 Q 402.56 636.84 403.68 637.36 Q 404.80 637.88 405.32 638.32 L 405.32 638.32 Q 406.64 639.40 406.92 636.88 L 406.92 636.88 L 407.84 636.88 Q 407.76 638.00 407.72 639.54 Q 407.68 641.08 407.68 643.68 L 407.68 643.68 L 406.76 643.68 Q 406.52 642.20 405.94 640.80 Q 405.36 639.40 404.24 638.50 Q 403.12 637.60 401.32 637.60 L 401.32 637.60 Q 399.92 637.60 398.98 638.38 Q 398.04 639.16 398.04 640.68 L 398.04 640.68 Q 398.04 641.88 398.76 642.74 Q 399.48 643.60 400.64 644.34 Q 401.80 645.08 403.16 645.96 L 403.16 645.96 Q 404.68 646.92 405.92 647.92 Q 407.16 648.92 407.90 650.12 Q 408.64 651.32 408.64 652.96 L 408.64 652.96 Q 408.64 654.80 407.68 656.04 Q 406.72 657.28 405.18 657.92 Q 403.64 658.56 401.80 658.56 L 401.80 658.56 Q 400.92 658.56 400.14 658.42 Q 399.36 658.28 398.64 658.00 L 398.64 658.00 Q 398.24 657.80 397.82 657.52 Q 397.40 657.24 397.00 656.92 L 397.00 656.92 Q 396.60 656.60 396.28 656.94 Q 395.96 657.28 395.80 658.28 L 395.80 658.28 L 394.88 658.28 Q 394.96 657.00 395.00 655.16 Q 395.04 653.32 395.04 650.28 L 395.04 650.28 L 395.96 650.28 Q 396.24 652.52 396.76 654.20 Q 397.28 655.88 398.40 656.82 Q 399.52 657.76 401.52 657.76 L 401.52 657.76 Q 402.32 657.76 403.14 657.40 Q 403.96 657.04 404.52 656.20 Q 405.08 655.36 405.08 653.96 L 405.08 653.96 Q 405.08 652.20 403.80 651.08 Q 402.52 649.96 400.56 648.72 L 400.56 648.72 Q 399.12 647.80 397.86 646.88 Q 396.60 645.96 395.82 644.80 Q 395.04 643.64 395.04 642.00 L 395.04 642.00 Q 395.04 640.20 395.86 639.06 Q 396.68 637.92 398.04 637.38 Q 399.40 636.84 400.96 636.84 M 418.84 636.84 L 418.84 636.84 Q 420.44 636.84 421.56 637.36 Q 422.68 637.88 423.20 638.32 L 423.20 638.32 Q 424.52 639.40 424.80 636.88 L 424.80 636.88 L 425.72 636.88 Q 425.64 638.00 425.60 639.54 Q 425.56 641.08 425.56 643.68 L 425.56 643.68 L 424.64 643.68 Q 424.40 642.20 423.82 640.80 Q 423.24 639.40 422.12 638.50 Q 421.00 637.60 419.20 637.60 L 419.20 637.60 Q 417.80 637.60 416.86 638.38 Q 415.92 639.16 415.92 640.68 L 415.92 640.68 Q 415.92 641.88 416.64 642.74 Q 417.36 643.60 418.52 644.34 Q 419.68 645.08 421.04 645.96 L 421.04 645.96 Q 422.56 646.92 423.80 647.92 Q 425.04 648.92 425.78 650.12 Q 426.52 651.32 426.52 652.96 L 426.52 652.96 Q 426.52 654.80 425.56 656.04 Q 424.60 657.28 423.06 657.92 Q 421.52 658.56 419.68 658.56 L 419.68 658.56 Q 418.80 658.56 418.02 658.42 Q 417.24 658.28 416.52 658.00 L 416.52 658.00 Q 416.12 657.80 415.70 657.52 Q 415.28 657.24 414.88 656.92 L 414.88 656.92 Q 414.48 656.60 414.16 656.94 Q 413.84 657.28 413.68 658.28 L 413.68 658.28 L 412.76 658.28 Q 412.84 657.00 412.88 655.16 Q 412.92 653.32 412.92 650.28 L 412.92 650.28 L 413.84 650.28 Q 414.12 652.52 414.64 654.20 Q 415.16 655.88 416.28 656.82 Q 417.40 657.76 419.40 657.76 L 419.40 657.76 Q 420.20 657.76 421.02 657.40 Q 421.84 657.04 422.40 656.20 Q 422.96 655.36 422.96 653.96 L 422.96 653.96 Q 422.96 652.20 421.68 651.08 Q 420.40 649.96 418.44 648.72 L 418.44 648.72 Q 417.00 647.80 415.74 646.88 Q 414.48 645.96 413.70 644.80 Q 412.92 643.64 412.92 642.00 L 412.92 642.00 Q 412.92 640.20 413.74 639.06 Q 414.56 637.92 415.92 637.38 Q 417.28 636.84 418.84 636.84" fill="#1c1917"/>
      <text x="330" y="692" fill="#78716c" font-family="'Helvetica Neue', Arial, sans-serif" font-size="24" letter-spacing="2">#D4B378</text><rect x="150" y="740" width="130" height="100" rx="8" fill="#1c1917" />
      <path d="M 341.88 759.68 L 341.88 759.68 L 341.88 760.48 Q 340.52 760.52 339.82 760.78 Q 339.12 761.04 338.88 761.74 Q 338.64 762.44 338.64 763.92 L 338.64 763.92 L 338.64 783.76 Q 338.64 785.20 338.88 785.92 Q 339.12 786.64 339.82 786.88 Q 340.52 787.12 341.88 787.20 L 341.88 787.20 L 341.88 788.00 Q 340.96 787.92 339.58 787.90 Q 338.20 787.88 336.80 787.88 L 336.80 787.88 Q 335.24 787.88 333.88 787.90 Q 332.52 787.92 331.68 788.00 L 331.68 788.00 L 331.68 787.20 Q 333.04 787.12 333.74 786.88 Q 334.44 786.64 334.68 785.92 Q 334.92 785.20 334.92 783.76 L 334.92 783.76 L 334.92 763.92 Q 334.92 762.44 334.68 761.74 Q 334.44 761.04 333.74 760.78 Q 333.04 760.52 331.68 760.48 L 331.68 760.48 L 331.68 759.68 Q 332.52 759.72 333.88 759.76 Q 335.24 759.80 336.80 759.80 L 336.80 759.80 Q 338.20 759.80 339.58 759.76 Q 340.96 759.72 341.88 759.68 M 358.16 766.84 L 358.16 766.84 Q 359.68 766.84 360.70 767.24 Q 361.72 767.64 362.40 768.36 L 362.40 768.36 Q 363.16 769.16 363.48 770.36 Q 363.80 771.56 363.80 773.60 L 363.80 773.60 L 363.80 784.28 Q 363.80 785.96 364.50 786.56 Q 365.20 787.16 366.84 787.16 L 366.84 787.16 L 366.84 788.00 Q 366.16 787.96 364.76 787.90 Q 363.36 787.84 362.04 787.84 L 362.04 787.84 Q 360.72 787.84 359.46 787.90 Q 358.20 787.96 357.56 788.00 L 357.56 788.00 L 357.56 787.16 Q 359.00 787.16 359.60 786.56 Q 360.20 785.96 360.20 784.28 L 360.20 784.28 L 360.20 772.72 Q 360.20 771.48 360.00 770.44 Q 359.80 769.40 359.10 768.76 Q 358.40 768.12 356.96 768.12 L 356.96 768.12 Q 355.28 768.12 354.02 769.08 Q 352.76 770.04 352.06 771.70 Q 351.36 773.36 351.36 775.40 L 351.36 775.40 L 351.36 784.28 Q 351.36 785.96 351.96 786.56 Q 352.56 787.16 354.00 787.16 L 354.00 787.16 L 354.00 788.00 Q 353.36 787.96 352.10 787.90 Q 350.84 787.84 349.52 787.84 L 349.52 787.84 Q 348.20 787.84 346.80 787.90 Q 345.40 787.96 344.72 788.00 L 344.72 788.00 L 344.72 787.16 Q 346.36 787.16 347.06 786.56 Q 347.76 785.96 347.76 784.28 L 347.76 784.28 L 347.76 771.76 Q 347.76 769.96 347.12 769.10 Q 346.48 768.24 344.72 768.24 L 344.72 768.24 L 344.72 767.40 Q 346.00 767.52 347.20 767.52 L 347.20 767.52 Q 348.36 767.52 349.42 767.38 Q 350.48 767.24 351.36 766.96 L 351.36 766.96 L 351.36 771.68 Q 352.40 768.96 354.26 767.90 Q 356.12 766.84 358.16 766.84 M 374.88 756.64 L 374.88 756.64 L 374.88 784.28 Q 374.88 785.96 375.48 786.56 Q 376.08 787.16 377.52 787.16 L 377.52 787.16 L 377.52 788.00 Q 376.88 787.96 375.62 787.90 Q 374.36 787.84 373.08 787.84 L 373.08 787.84 Q 371.72 787.84 370.32 787.90 Q 368.92 787.96 368.24 788.00 L 368.24 788.00 L 368.24 787.16 Q 369.88 787.16 370.58 786.56 Q 371.28 785.96 371.28 784.28 L 371.28 784.28 L 371.28 761.44 Q 371.28 759.64 370.64 758.78 Q 370.00 757.92 368.24 757.92 L 368.24 757.92 L 368.24 757.08 Q 369.52 757.20 370.72 757.20 L 370.72 757.20 Q 371.88 757.20 372.94 757.06 Q 374.00 756.92 374.88 756.64 M 387.60 767.40 L 387.60 767.40 L 387.60 768.20 Q 386.60 768.28 385.72 768.74 Q 384.84 769.20 384.00 770.08 L 384.00 770.08 L 378.36 776.00 L 378.92 774.88 L 386.36 785.08 Q 387.04 786.00 387.66 786.52 Q 388.28 787.04 389.16 787.16 L 389.16 787.16 L 389.16 788.00 Q 388.72 787.96 387.78 787.90 Q 386.84 787.84 385.92 787.84 L 385.92 787.84 Q 384.68 787.84 383.40 787.90 Q 382.12 787.96 381.48 788.00 L 381.48 788.00 L 381.48 787.16 Q 382.28 787.16 382.60 786.76 Q 382.92 786.36 382.48 785.80 L 382.48 785.80 L 377.88 779.08 Q 377.12 778.00 376.50 777.68 Q 375.88 777.36 374.72 777.32 L 374.72 777.32 L 374.72 776.52 Q 376.00 776.36 376.80 775.98 Q 377.60 775.60 378.32 774.84 L 378.32 774.84 L 381.28 771.76 Q 382.56 770.44 382.56 769.66 Q 382.56 768.88 381.74 768.54 Q 380.92 768.20 379.60 768.20 L 379.60 768.20 L 379.60 767.40 Q 380.64 767.44 381.94 767.50 Q 383.24 767.56 384.12 767.56 L 384.12 767.56 Q 384.80 767.56 385.44 767.54 Q 386.08 767.52 386.64 767.48 Q 387.20 767.44 387.60 767.40" fill="#1c1917"/>
      <text x="330" y="822" fill="#78716c" font-family="'Helvetica Neue', Arial, sans-serif" font-size="24" letter-spacing="2">#1C1917</text><rect x="150" y="870" width="130" height="100" rx="8" fill="#7d3a32" />
      <path d="M 344.84 889.12 L 344.84 889.12 Q 347.48 889.12 349.18 889.90 Q 350.88 890.68 352.20 891.72 L 352.20 891.72 Q 353.00 892.32 353.42 891.86 Q 353.84 891.40 354.00 889.68 L 354.00 889.68 L 354.92 889.68 Q 354.84 891.16 354.80 893.28 Q 354.76 895.40 354.76 898.88 L 354.76 898.88 L 353.84 898.88 Q 353.56 897.16 353.32 896.14 Q 353.08 895.12 352.74 894.40 Q 352.40 893.68 351.84 892.96 L 351.84 892.96 Q 350.60 891.32 348.72 890.58 Q 346.84 889.84 344.76 889.84 L 344.76 889.84 Q 342.80 889.84 341.22 890.82 Q 339.64 891.80 338.50 893.64 Q 337.36 895.48 336.74 898.08 Q 336.12 900.68 336.12 903.92 L 336.12 903.92 Q 336.12 907.28 336.80 909.86 Q 337.48 912.44 338.70 914.20 Q 339.92 915.96 341.58 916.86 Q 343.24 917.76 345.16 917.76 L 345.16 917.76 Q 346.96 917.76 348.92 917.04 Q 350.88 916.32 352.00 914.72 L 352.00 914.72 Q 352.88 913.56 353.22 912.20 Q 353.56 910.84 353.84 908.40 L 353.84 908.40 L 354.76 908.40 Q 354.76 912.04 354.80 914.26 Q 354.84 916.48 354.92 918.00 L 354.92 918.00 L 354.00 918.00 Q 353.84 916.28 353.46 915.84 Q 353.08 915.40 352.20 915.96 L 352.20 915.96 Q 350.72 917.00 349.06 917.78 Q 347.40 918.56 344.80 918.56 L 344.80 918.56 Q 341.00 918.56 338.14 916.84 Q 335.28 915.12 333.70 911.88 Q 332.12 908.64 332.12 904.08 L 332.12 904.08 Q 332.12 899.60 333.76 896.24 Q 335.40 892.88 338.26 891.00 Q 341.12 889.12 344.84 889.12 M 365.04 886.64 L 365.04 886.64 L 365.04 914.28 Q 365.04 915.96 365.74 916.56 Q 366.44 917.16 368.08 917.16 L 368.08 917.16 L 368.08 918.00 Q 367.40 917.96 366.02 917.90 Q 364.64 917.84 363.24 917.84 L 363.24 917.84 Q 361.88 917.84 360.48 917.90 Q 359.08 917.96 358.40 918.00 L 358.40 918.00 L 358.40 917.16 Q 360.04 917.16 360.74 916.56 Q 361.44 915.96 361.44 914.28 L 361.44 914.28 L 361.44 891.44 Q 361.44 889.64 360.80 888.78 Q 360.16 887.92 358.40 887.92 L 358.40 887.92 L 358.40 887.08 Q 359.68 887.20 360.88 887.20 L 360.88 887.20 Q 362.04 887.20 363.10 887.06 Q 364.16 886.92 365.04 886.64 M 375.80 918.28 L 375.80 918.28 Q 374.16 918.28 372.96 917.66 Q 371.76 917.04 371.14 915.92 Q 370.52 914.80 370.52 913.32 L 370.52 913.32 Q 370.52 911.56 371.34 910.44 Q 372.16 909.32 373.44 908.64 Q 374.72 907.96 376.14 907.50 Q 377.56 907.04 378.84 906.62 Q 380.12 906.20 380.94 905.64 Q 381.76 905.08 381.76 904.16 L 381.76 904.16 L 381.76 901.68 Q 381.76 900.00 381.26 899.12 Q 380.76 898.24 379.92 897.94 Q 379.08 897.64 378.04 897.64 L 378.04 897.64 Q 377.04 897.64 375.90 897.92 Q 374.76 898.20 374.08 899.08 L 374.08 899.08 Q 374.84 899.24 375.40 899.88 Q 375.96 900.52 375.96 901.52 L 375.96 901.52 Q 375.96 902.52 375.32 903.10 Q 374.68 903.68 373.68 903.68 L 373.68 903.68 Q 372.52 903.68 371.98 902.94 Q 371.44 902.20 371.44 901.28 L 371.44 901.28 Q 371.44 900.24 371.96 899.60 Q 372.48 898.96 373.28 898.40 L 373.28 898.40 Q 374.20 897.76 375.66 897.30 Q 377.12 896.84 378.96 896.84 L 378.96 896.84 Q 380.60 896.84 381.76 897.22 Q 382.92 897.60 383.68 898.32 L 383.68 898.32 Q 384.72 899.28 385.04 900.66 Q 385.36 902.04 385.36 903.96 L 385.36 903.96 L 385.36 915.08 Q 385.36 916.08 385.66 916.52 Q 385.96 916.96 386.60 916.96 L 386.60 916.96 Q 387.04 916.96 387.44 916.76 Q 387.84 916.56 388.40 916.12 L 388.40 916.12 L 388.84 916.80 Q 388.00 917.44 387.24 917.86 Q 386.48 918.28 385.20 918.28 L 385.20 918.28 Q 384.04 918.28 383.28 917.88 Q 382.52 917.48 382.14 916.70 Q 381.76 915.92 381.76 914.72 L 381.76 914.72 Q 380.68 916.52 379.18 917.40 Q 377.68 918.28 375.80 918.28 M 377.24 916.68 L 377.24 916.68 Q 378.56 916.68 379.70 915.92 Q 380.84 915.16 381.76 913.64 L 381.76 913.64 L 381.76 905.80 Q 381.28 906.48 380.36 906.94 Q 379.44 907.40 378.36 907.86 Q 377.28 908.32 376.30 908.94 Q 375.32 909.56 374.68 910.56 Q 374.04 911.56 374.04 913.16 L 374.04 913.16 Q 374.04 914.76 374.90 915.72 Q 375.76 916.68 377.24 916.68 M 402.48 896.84 L 402.48 896.84 Q 403.56 896.84 404.38 897.28 Q 405.20 897.72 405.66 898.42 Q 406.12 899.12 406.12 900.00 L 406.12 900.00 Q 406.12 901.00 405.50 901.76 Q 404.88 902.52 403.84 902.52 L 403.84 902.52 Q 403.00 902.52 402.36 901.98 Q 401.72 901.44 401.72 900.44 L 401.72 900.44 Q 401.72 899.68 402.14 899.14 Q 402.56 898.60 403.08 898.28 L 403.08 898.28 Q 402.80 897.88 402.24 897.88 L 402.24 897.88 Q 401.00 897.88 399.96 898.62 Q 398.92 899.36 398.20 900.52 Q 397.48 901.68 397.08 902.98 Q 396.68 904.28 396.68 905.40 L 396.68 905.40 L 396.68 913.88 Q 396.68 915.84 397.82 916.50 Q 398.96 917.16 400.92 917.16 L 400.92 917.16 L 400.92 918.00 Q 400.00 917.96 398.32 917.90 Q 396.64 917.84 394.76 917.84 L 394.76 917.84 Q 393.40 917.84 392.06 917.90 Q 390.72 917.96 390.04 918.00 L 390.04 918.00 L 390.04 917.16 Q 391.68 917.16 392.38 916.56 Q 393.08 915.96 393.08 914.28 L 393.08 914.28 L 393.08 901.76 Q 393.08 899.96 392.44 899.10 Q 391.80 898.24 390.04 898.24 L 390.04 898.24 L 390.04 897.40 Q 391.32 897.52 392.52 897.52 L 392.52 897.52 Q 393.68 897.52 394.74 897.38 Q 395.80 897.24 396.68 896.96 L 396.68 896.96 L 396.68 901.96 Q 397.12 900.80 397.94 899.62 Q 398.76 898.44 399.92 897.64 Q 401.08 896.84 402.48 896.84 M 417.56 896.84 L 417.56 896.84 Q 421.08 896.84 423.06 898.98 Q 425.04 901.12 425.04 905.64 L 425.04 905.64 L 410.92 905.64 L 410.88 904.88 L 421.20 904.88 Q 421.28 902.92 420.88 901.26 Q 420.48 899.60 419.62 898.60 Q 418.76 897.60 417.40 897.60 L 417.40 897.60 Q 415.56 897.60 414.14 899.44 Q 412.72 901.28 412.44 905.28 L 412.44 905.28 L 412.56 905.44 Q 412.48 906.04 412.44 906.76 Q 412.40 907.48 412.40 908.20 L 412.40 908.20 Q 412.40 910.92 413.28 912.88 Q 414.16 914.84 415.58 915.86 Q 417.00 916.88 418.52 916.88 L 418.52 916.88 Q 419.72 916.88 420.80 916.50 Q 421.88 916.12 422.80 915.24 Q 423.72 914.36 424.40 912.88 L 424.40 912.88 L 425.20 913.20 Q 424.76 914.52 423.76 915.76 Q 422.76 917.00 421.24 917.78 Q 419.72 918.56 417.72 918.56 L 417.72 918.56 Q 414.84 918.56 412.78 917.24 Q 410.72 915.92 409.62 913.58 Q 408.52 911.24 408.52 908.20 L 408.52 908.20 Q 408.52 904.68 409.64 902.14 Q 410.76 899.60 412.80 898.22 Q 414.84 896.84 417.56 896.84 M 434.52 890.76 L 434.52 890.76 L 434.52 897.44 L 440.44 897.44 L 440.44 898.24 L 434.52 898.24 L 434.52 913.72 Q 434.52 915.60 435.20 916.36 Q 435.88 917.12 437.08 917.12 L 437.08 917.12 Q 438.28 917.12 439.16 916.14 Q 440.04 915.16 440.68 912.84 L 440.68 912.84 L 441.48 913.04 Q 441.08 915.36 439.90 916.96 Q 438.72 918.56 436.28 918.56 L 436.28 918.56 Q 434.92 918.56 434.04 918.22 Q 433.16 917.88 432.48 917.24 L 432.48 917.24 Q 431.60 916.32 431.26 915.04 Q 430.92 913.76 430.92 911.64 L 430.92 911.64 L 430.92 898.24 L 427.08 898.24 L 427.08 897.44 L 430.92 897.44 L 430.92 891.32 Q 431.92 891.28 432.84 891.16 Q 433.76 891.04 434.52 890.76" fill="#1c1917"/>
      <text x="330" y="952" fill="#78716c" font-family="'Helvetica Neue', Arial, sans-serif" font-size="24" letter-spacing="2">#7D3A32</text>
    <path d="M 353.88 1105.93 L 353.88 1105.93 Q 353.75 1107.22 353.70 1108.43 Q 353.65 1109.63 353.65 1110.28 L 353.65 1110.28 Q 353.65 1111.10 353.68 1111.81 Q 353.71 1112.52 353.75 1113.07 L 353.75 1113.07 L 352.97 1113.07 Q 352.73 1110.69 352.32 1109.31 Q 351.91 1107.93 350.89 1107.32 Q 349.87 1106.71 347.73 1106.71 L 347.73 1106.71 L 345.89 1106.71 L 345.89 1126.06 Q 345.89 1127.42 346.15 1128.10 Q 346.40 1128.78 347.15 1129.01 Q 347.90 1129.25 349.33 1129.32 L 349.33 1129.32 L 349.33 1130.00 Q 348.44 1129.93 347.08 1129.91 Q 345.72 1129.90 344.33 1129.90 L 344.33 1129.90 Q 342.80 1129.90 341.46 1129.91 Q 340.11 1129.93 339.30 1130.00 L 339.30 1130.00 L 339.30 1129.32 Q 340.73 1129.25 341.47 1129.01 Q 342.22 1128.78 342.48 1128.10 Q 342.73 1127.42 342.73 1126.06 L 342.73 1126.06 L 342.73 1106.71 L 340.90 1106.71 Q 338.79 1106.71 337.75 1107.32 Q 336.71 1107.93 336.31 1109.31 Q 335.90 1110.69 335.66 1113.07 L 335.66 1113.07 L 334.88 1113.07 Q 334.95 1112.52 334.96 1111.81 Q 334.98 1111.10 334.98 1110.28 L 334.98 1110.28 Q 334.98 1109.63 334.93 1108.43 Q 334.88 1107.22 334.74 1105.93 L 334.74 1105.93 Q 336.17 1105.96 337.85 1106.00 Q 339.54 1106.03 341.24 1106.03 Q 342.94 1106.03 344.33 1106.03 L 344.33 1106.03 Q 345.72 1106.03 347.41 1106.03 Q 349.09 1106.03 350.79 1106.00 Q 352.49 1105.96 353.88 1105.93 M 361.19 1103.38 L 361.19 1103.38 L 361.19 1116.09 Q 362.08 1113.78 363.66 1112.90 Q 365.24 1112.01 366.97 1112.01 L 366.97 1112.01 Q 368.27 1112.01 369.13 1112.35 Q 370.00 1112.69 370.58 1113.31 L 370.58 1113.31 Q 371.22 1113.99 371.50 1115.01 Q 371.77 1116.03 371.77 1117.76 L 371.77 1117.76 L 371.77 1126.84 Q 371.77 1128.27 372.36 1128.78 Q 372.96 1129.29 374.35 1129.29 L 374.35 1129.29 L 374.35 1130.00 Q 373.77 1129.97 372.58 1129.91 Q 371.39 1129.86 370.27 1129.86 L 370.27 1129.86 Q 369.15 1129.86 368.08 1129.91 Q 367.01 1129.97 366.46 1130.00 L 366.46 1130.00 L 366.46 1129.29 Q 367.69 1129.29 368.20 1128.78 Q 368.71 1128.27 368.71 1126.84 L 368.71 1126.84 L 368.71 1117.01 Q 368.71 1115.96 368.54 1115.07 Q 368.37 1114.19 367.77 1113.65 Q 367.18 1113.10 365.95 1113.10 L 365.95 1113.10 Q 364.56 1113.10 363.49 1113.88 Q 362.42 1114.67 361.81 1116.06 Q 361.19 1117.45 361.19 1119.26 L 361.19 1119.26 L 361.19 1126.84 Q 361.19 1128.27 361.70 1128.78 Q 362.21 1129.29 363.44 1129.29 L 363.44 1129.29 L 363.44 1130.00 Q 362.89 1129.97 361.82 1129.91 Q 360.75 1129.86 359.63 1129.86 L 359.63 1129.86 Q 358.51 1129.86 357.32 1129.91 Q 356.13 1129.97 355.55 1130.00 L 355.55 1130.00 L 355.55 1129.29 Q 356.94 1129.29 357.54 1128.78 Q 358.13 1128.27 358.13 1126.84 L 358.13 1126.84 L 358.13 1107.46 Q 358.13 1105.93 357.59 1105.20 Q 357.05 1104.47 355.55 1104.47 L 355.55 1104.47 L 355.55 1103.75 Q 356.64 1103.85 357.66 1103.85 L 357.66 1103.85 Q 358.64 1103.85 359.54 1103.73 Q 360.45 1103.62 361.19 1103.38 M 386.42 1112.01 L 386.42 1112.01 Q 387.34 1112.01 388.04 1112.39 Q 388.73 1112.76 389.12 1113.36 Q 389.52 1113.95 389.52 1114.70 L 389.52 1114.70 Q 389.52 1115.55 388.99 1116.20 Q 388.46 1116.84 387.58 1116.84 L 387.58 1116.84 Q 386.86 1116.84 386.32 1116.38 Q 385.78 1115.92 385.78 1115.07 L 385.78 1115.07 Q 385.78 1114.43 386.13 1113.97 Q 386.49 1113.51 386.93 1113.24 L 386.93 1113.24 Q 386.69 1112.90 386.22 1112.90 L 386.22 1112.90 Q 385.16 1112.90 384.28 1113.53 Q 383.40 1114.16 382.78 1115.14 Q 382.17 1116.13 381.83 1117.23 Q 381.49 1118.34 381.49 1119.29 L 381.49 1119.29 L 381.49 1126.50 Q 381.49 1128.16 382.46 1128.72 Q 383.43 1129.29 385.10 1129.29 L 385.10 1129.29 L 385.10 1130.00 Q 384.31 1129.97 382.89 1129.91 Q 381.46 1129.86 379.86 1129.86 L 379.86 1129.86 Q 378.70 1129.86 377.56 1129.91 Q 376.43 1129.97 375.85 1130.00 L 375.85 1130.00 L 375.85 1129.29 Q 377.24 1129.29 377.84 1128.78 Q 378.43 1128.27 378.43 1126.84 L 378.43 1126.84 L 378.43 1116.20 Q 378.43 1114.67 377.89 1113.93 Q 377.34 1113.20 375.85 1113.20 L 375.85 1113.20 L 375.85 1112.49 Q 376.94 1112.59 377.96 1112.59 L 377.96 1112.59 Q 378.94 1112.59 379.84 1112.47 Q 380.74 1112.35 381.49 1112.12 L 381.49 1112.12 L 381.49 1116.37 Q 381.87 1115.38 382.56 1114.38 Q 383.26 1113.37 384.25 1112.69 Q 385.23 1112.01 386.42 1112.01 M 399.24 1112.01 L 399.24 1112.01 Q 402.23 1112.01 403.91 1113.83 Q 405.60 1115.65 405.60 1119.49 L 405.60 1119.49 L 393.60 1119.49 L 393.56 1118.85 L 402.33 1118.85 Q 402.40 1117.18 402.06 1115.77 Q 401.72 1114.36 400.99 1113.51 Q 400.26 1112.66 399.10 1112.66 L 399.10 1112.66 Q 397.54 1112.66 396.33 1114.22 Q 395.13 1115.79 394.89 1119.19 L 394.89 1119.19 L 394.99 1119.32 Q 394.92 1119.83 394.89 1120.45 Q 394.85 1121.06 394.85 1121.67 L 394.85 1121.67 Q 394.85 1123.98 395.60 1125.65 Q 396.35 1127.31 397.56 1128.18 Q 398.76 1129.05 400.06 1129.05 L 400.06 1129.05 Q 401.08 1129.05 401.99 1128.72 Q 402.91 1128.40 403.69 1127.65 Q 404.48 1126.91 405.05 1125.65 L 405.05 1125.65 L 405.73 1125.92 Q 405.36 1127.04 404.51 1128.10 Q 403.66 1129.15 402.37 1129.81 Q 401.08 1130.48 399.38 1130.48 L 399.38 1130.48 Q 396.93 1130.48 395.18 1129.35 Q 393.43 1128.23 392.49 1126.24 Q 391.56 1124.25 391.56 1121.67 L 391.56 1121.67 Q 391.56 1118.68 392.51 1116.52 Q 393.46 1114.36 395.19 1113.19 Q 396.93 1112.01 399.24 1112.01 M 416.44 1112.01 L 416.44 1112.01 Q 419.44 1112.01 421.12 1113.83 Q 422.80 1115.65 422.80 1119.49 L 422.80 1119.49 L 410.80 1119.49 L 410.77 1118.85 L 419.54 1118.85 Q 419.61 1117.18 419.27 1115.77 Q 418.93 1114.36 418.19 1113.51 Q 417.46 1112.66 416.31 1112.66 L 416.31 1112.66 Q 414.74 1112.66 413.54 1114.22 Q 412.33 1115.79 412.09 1119.19 L 412.09 1119.19 L 412.19 1119.32 Q 412.13 1119.83 412.09 1120.45 Q 412.06 1121.06 412.06 1121.67 L 412.06 1121.67 Q 412.06 1123.98 412.81 1125.65 Q 413.55 1127.31 414.76 1128.18 Q 415.97 1129.05 417.26 1129.05 L 417.26 1129.05 Q 418.28 1129.05 419.20 1128.72 Q 420.12 1128.40 420.90 1127.65 Q 421.68 1126.91 422.26 1125.65 L 422.26 1125.65 L 422.94 1125.92 Q 422.56 1127.04 421.71 1128.10 Q 420.86 1129.15 419.57 1129.81 Q 418.28 1130.48 416.58 1130.48 L 416.58 1130.48 Q 414.13 1130.48 412.38 1129.35 Q 410.63 1128.23 409.69 1126.24 Q 408.76 1124.25 408.76 1121.67 L 408.76 1121.67 Q 408.76 1118.68 409.71 1116.52 Q 410.66 1114.36 412.40 1113.19 Q 414.13 1112.01 416.44 1112.01 M 442.35 1112.01 L 442.35 1112.01 Q 443.44 1112.01 444.46 1112.29 Q 445.48 1112.56 446.30 1113.10 L 446.30 1113.10 Q 447.08 1113.61 447.49 1114.28 Q 447.89 1114.94 447.89 1115.72 L 447.89 1115.72 Q 447.89 1116.64 447.38 1117.13 Q 446.87 1117.62 446.09 1117.62 L 446.09 1117.62 Q 445.34 1117.62 444.78 1117.18 Q 444.22 1116.74 444.22 1115.92 L 444.22 1115.92 Q 444.22 1115.14 444.65 1114.67 Q 445.07 1114.19 445.65 1114.05 L 445.65 1114.05 Q 445.31 1113.44 444.44 1113.03 Q 443.58 1112.63 442.59 1112.63 L 442.59 1112.63 Q 441.74 1112.63 440.89 1113.03 Q 440.04 1113.44 439.33 1114.38 Q 438.61 1115.31 438.17 1116.93 Q 437.73 1118.54 437.73 1120.96 L 437.73 1120.96 Q 437.73 1123.95 438.41 1125.72 Q 439.09 1127.48 440.19 1128.25 Q 441.30 1129.01 442.62 1129.01 L 442.62 1129.01 Q 443.51 1129.01 444.43 1128.67 Q 445.34 1128.33 446.16 1127.57 Q 446.98 1126.80 447.55 1125.51 L 447.55 1125.51 L 448.20 1125.75 Q 447.86 1126.84 447.08 1127.94 Q 446.30 1129.05 445.04 1129.76 Q 443.78 1130.48 441.94 1130.48 L 441.94 1130.48 Q 439.84 1130.48 438.14 1129.39 Q 436.44 1128.30 435.43 1126.28 Q 434.43 1124.25 434.43 1121.47 L 434.43 1121.47 Q 434.43 1118.68 435.43 1116.55 Q 436.44 1114.43 438.24 1113.22 Q 440.04 1112.01 442.35 1112.01 M 458.71 1112.01 L 458.71 1112.01 Q 460.88 1112.01 462.62 1112.97 Q 464.35 1113.92 465.39 1115.96 Q 466.42 1118.00 466.42 1121.26 L 466.42 1121.26 Q 466.42 1124.53 465.39 1126.55 Q 464.35 1128.57 462.62 1129.52 Q 460.88 1130.48 458.71 1130.48 L 458.71 1130.48 Q 456.56 1130.48 454.81 1129.52 Q 453.06 1128.57 452.02 1126.55 Q 450.99 1124.53 450.99 1121.26 L 450.99 1121.26 Q 450.99 1118.00 452.02 1115.96 Q 453.06 1113.92 454.81 1112.97 Q 456.56 1112.01 458.71 1112.01 M 458.71 1112.69 L 458.71 1112.69 Q 456.77 1112.69 455.53 1114.70 Q 454.29 1116.71 454.29 1121.26 L 454.29 1121.26 Q 454.29 1125.82 455.53 1127.81 Q 456.77 1129.80 458.71 1129.80 L 458.71 1129.80 Q 460.64 1129.80 461.88 1127.81 Q 463.13 1125.82 463.13 1121.26 L 463.13 1121.26 Q 463.13 1116.71 461.88 1114.70 Q 460.64 1112.69 458.71 1112.69 M 474.41 1103.34 L 474.41 1103.34 L 474.41 1126.84 Q 474.41 1128.27 475.01 1128.78 Q 475.60 1129.29 477.00 1129.29 L 477.00 1129.29 L 477.00 1130.00 Q 476.42 1129.97 475.25 1129.91 Q 474.07 1129.86 472.88 1129.86 L 472.88 1129.86 Q 471.73 1129.86 470.54 1129.91 Q 469.35 1129.97 468.77 1130.00 L 468.77 1130.00 L 468.77 1129.29 Q 470.16 1129.29 470.76 1128.78 Q 471.35 1128.27 471.35 1126.84 L 471.35 1126.84 L 471.35 1107.42 Q 471.35 1105.89 470.81 1105.16 Q 470.27 1104.43 468.77 1104.43 L 468.77 1104.43 L 468.77 1103.72 Q 469.86 1103.82 470.88 1103.82 L 470.88 1103.82 Q 471.86 1103.82 472.76 1103.70 Q 473.67 1103.58 474.41 1103.34 M 487.06 1112.01 L 487.06 1112.01 Q 489.24 1112.01 490.97 1112.97 Q 492.71 1113.92 493.74 1115.96 Q 494.78 1118.00 494.78 1121.26 L 494.78 1121.26 Q 494.78 1124.53 493.74 1126.55 Q 492.71 1128.57 490.97 1129.52 Q 489.24 1130.48 487.06 1130.48 L 487.06 1130.48 Q 484.92 1130.48 483.17 1129.52 Q 481.42 1128.57 480.38 1126.55 Q 479.34 1124.53 479.34 1121.26 L 479.34 1121.26 Q 479.34 1118.00 480.38 1115.96 Q 481.42 1113.92 483.17 1112.97 Q 484.92 1112.01 487.06 1112.01 M 487.06 1112.69 L 487.06 1112.69 Q 485.12 1112.69 483.88 1114.70 Q 482.64 1116.71 482.64 1121.26 L 482.64 1121.26 Q 482.64 1125.82 483.88 1127.81 Q 485.12 1129.80 487.06 1129.80 L 487.06 1129.80 Q 489.00 1129.80 490.24 1127.81 Q 491.48 1125.82 491.48 1121.26 L 491.48 1121.26 Q 491.48 1116.71 490.24 1114.70 Q 489.00 1112.69 487.06 1112.69 M 512.80 1112.12 L 512.80 1112.12 L 512.80 1126.33 Q 512.80 1127.86 513.36 1128.59 Q 513.92 1129.32 515.38 1129.32 L 515.38 1129.32 L 515.38 1130.03 Q 514.33 1129.93 513.28 1129.93 L 513.28 1129.93 Q 512.29 1129.93 511.39 1130.03 Q 510.49 1130.14 509.74 1130.41 L 509.74 1130.41 L 509.74 1126.40 Q 508.89 1128.61 507.34 1129.54 Q 505.80 1130.48 504.16 1130.48 L 504.16 1130.48 Q 502.97 1130.48 502.09 1130.14 Q 501.21 1129.80 500.63 1129.18 L 500.63 1129.18 Q 499.98 1128.50 499.74 1127.42 Q 499.51 1126.33 499.51 1124.73 L 499.51 1124.73 L 499.51 1116.20 Q 499.51 1114.67 498.96 1113.93 Q 498.42 1113.20 496.92 1113.20 L 496.92 1113.20 L 496.92 1112.49 Q 498.01 1112.59 499.03 1112.59 L 499.03 1112.59 Q 500.02 1112.59 500.92 1112.47 Q 501.82 1112.35 502.57 1112.12 L 502.57 1112.12 L 502.57 1125.48 Q 502.57 1126.53 502.70 1127.42 Q 502.84 1128.30 503.38 1128.84 Q 503.93 1129.39 505.15 1129.39 L 505.15 1129.39 Q 506.48 1129.39 507.51 1128.57 Q 508.55 1127.76 509.14 1126.36 Q 509.74 1124.97 509.74 1123.23 L 509.74 1123.23 L 509.74 1116.20 Q 509.74 1114.67 509.20 1113.93 Q 508.65 1113.20 507.16 1113.20 L 507.16 1113.20 L 507.16 1112.49 Q 508.24 1112.59 509.26 1112.59 L 509.26 1112.59 Q 510.25 1112.59 511.15 1112.47 Q 512.05 1112.35 512.80 1112.12 M 527.69 1112.01 L 527.69 1112.01 Q 528.61 1112.01 529.31 1112.39 Q 530.00 1112.76 530.39 1113.36 Q 530.79 1113.95 530.79 1114.70 L 530.79 1114.70 Q 530.79 1115.55 530.26 1116.20 Q 529.73 1116.84 528.85 1116.84 L 528.85 1116.84 Q 528.13 1116.84 527.59 1116.38 Q 527.05 1115.92 527.05 1115.07 L 527.05 1115.07 Q 527.05 1114.43 527.40 1113.97 Q 527.76 1113.51 528.20 1113.24 L 528.20 1113.24 Q 527.96 1112.90 527.49 1112.90 L 527.49 1112.90 Q 526.43 1112.90 525.55 1113.53 Q 524.67 1114.16 524.05 1115.14 Q 523.44 1116.13 523.10 1117.23 Q 522.76 1118.34 522.76 1119.29 L 522.76 1119.29 L 522.76 1126.50 Q 522.76 1128.16 523.73 1128.72 Q 524.70 1129.29 526.37 1129.29 L 526.37 1129.29 L 526.37 1130.00 Q 525.58 1129.97 524.16 1129.91 Q 522.73 1129.86 521.13 1129.86 L 521.13 1129.86 Q 519.97 1129.86 518.83 1129.91 Q 517.70 1129.97 517.12 1130.00 L 517.12 1130.00 L 517.12 1129.29 Q 518.51 1129.29 519.11 1128.78 Q 519.70 1128.27 519.70 1126.84 L 519.70 1126.84 L 519.70 1116.20 Q 519.70 1114.67 519.16 1113.93 Q 518.61 1113.20 517.12 1113.20 L 517.12 1113.20 L 517.12 1112.49 Q 518.21 1112.59 519.23 1112.59 L 519.23 1112.59 Q 520.21 1112.59 521.11 1112.47 Q 522.01 1112.35 522.76 1112.12 L 522.76 1112.12 L 522.76 1116.37 Q 523.14 1115.38 523.83 1114.38 Q 524.53 1113.37 525.52 1112.69 Q 526.50 1112.01 527.69 1112.01 M 538.33 1112.01 L 538.33 1112.01 Q 539.69 1112.01 540.65 1112.46 Q 541.60 1112.90 542.04 1113.27 L 542.04 1113.27 Q 543.16 1114.19 543.40 1112.05 L 543.40 1112.05 L 544.18 1112.05 Q 544.11 1113.00 544.08 1114.31 Q 544.05 1115.62 544.05 1117.83 L 544.05 1117.83 L 543.26 1117.83 Q 543.06 1116.57 542.57 1115.38 Q 542.07 1114.19 541.12 1113.42 Q 540.17 1112.66 538.64 1112.66 L 538.64 1112.66 Q 537.45 1112.66 536.65 1113.32 Q 535.85 1113.99 535.85 1115.28 L 535.85 1115.28 Q 535.85 1116.30 536.46 1117.03 Q 537.08 1117.76 538.06 1118.39 Q 539.05 1119.02 540.20 1119.77 L 540.20 1119.77 Q 541.50 1120.58 542.55 1121.43 Q 543.60 1122.28 544.23 1123.30 Q 544.86 1124.32 544.86 1125.72 L 544.86 1125.72 Q 544.86 1127.28 544.05 1128.33 Q 543.23 1129.39 541.92 1129.93 Q 540.61 1130.48 539.05 1130.48 L 539.05 1130.48 Q 538.30 1130.48 537.64 1130.36 Q 536.97 1130.24 536.36 1130.00 L 536.36 1130.00 Q 536.02 1129.83 535.66 1129.59 Q 535.31 1129.35 534.97 1129.08 L 534.97 1129.08 Q 534.63 1128.81 534.36 1129.10 Q 534.08 1129.39 533.95 1130.24 L 533.95 1130.24 L 533.17 1130.24 Q 533.23 1129.15 533.27 1127.59 Q 533.30 1126.02 533.30 1123.44 L 533.30 1123.44 L 534.08 1123.44 Q 534.32 1125.34 534.76 1126.77 Q 535.21 1128.20 536.16 1129.00 Q 537.11 1129.80 538.81 1129.80 L 538.81 1129.80 Q 539.49 1129.80 540.19 1129.49 Q 540.88 1129.18 541.36 1128.47 Q 541.84 1127.76 541.84 1126.57 L 541.84 1126.57 Q 541.84 1125.07 540.75 1124.12 Q 539.66 1123.17 537.99 1122.11 L 537.99 1122.11 Q 536.77 1121.33 535.70 1120.55 Q 534.63 1119.77 533.96 1118.78 Q 533.30 1117.79 533.30 1116.40 L 533.30 1116.40 Q 533.30 1114.87 534.00 1113.90 Q 534.70 1112.93 535.85 1112.47 Q 537.01 1112.01 538.33 1112.01 M 550.74 1126.12 L 550.74 1126.12 Q 551.49 1126.12 551.97 1126.43 Q 552.44 1126.74 552.75 1127.21 L 552.75 1127.21 Q 553.12 1127.76 553.23 1128.40 Q 553.33 1129.05 553.33 1129.46 L 553.33 1129.46 Q 553.33 1131.12 552.48 1132.48 Q 551.63 1133.84 549.83 1134.69 L 549.83 1134.69 L 549.52 1134.08 Q 550.57 1133.64 551.34 1132.69 Q 552.10 1131.73 552.10 1130.75 L 552.10 1130.75 Q 552.10 1130.34 552.00 1130.03 L 552.00 1130.03 Q 551.46 1130.48 550.74 1130.48 L 550.74 1130.48 Q 549.86 1130.48 549.21 1129.90 Q 548.57 1129.32 548.57 1128.30 L 548.57 1128.30 Q 548.57 1127.35 549.21 1126.74 Q 549.86 1126.12 550.74 1126.12 M 576.01 1112.01 L 576.01 1112.01 Q 577.20 1112.01 578.08 1112.35 Q 578.96 1112.69 579.54 1113.31 L 579.54 1113.31 Q 580.19 1113.99 580.43 1115.07 Q 580.66 1116.16 580.66 1117.76 L 580.66 1117.76 L 580.66 1126.84 Q 580.66 1128.27 581.26 1128.78 Q 581.85 1129.29 583.25 1129.29 L 583.25 1129.29 L 583.25 1130.00 Q 582.67 1129.97 581.48 1129.91 Q 580.29 1129.86 579.17 1129.86 L 579.17 1129.86 Q 578.05 1129.86 576.97 1129.91 Q 575.90 1129.97 575.36 1130.00 L 575.36 1130.00 L 575.36 1129.29 Q 576.58 1129.29 577.09 1128.78 Q 577.60 1128.27 577.60 1126.84 L 577.60 1126.84 L 577.60 1117.01 Q 577.60 1115.96 577.47 1115.07 Q 577.33 1114.19 576.79 1113.65 Q 576.24 1113.10 575.02 1113.10 L 575.02 1113.10 Q 573.69 1113.10 572.66 1113.92 Q 571.62 1114.73 571.02 1116.14 Q 570.43 1117.56 570.43 1119.29 L 570.43 1119.29 L 570.43 1126.84 Q 570.43 1128.27 570.94 1128.78 Q 571.45 1129.29 572.67 1129.29 L 572.67 1129.29 L 572.67 1130.00 Q 572.13 1129.97 571.06 1129.91 Q 569.99 1129.86 568.87 1129.86 L 568.87 1129.86 Q 567.74 1129.86 566.55 1129.91 Q 565.36 1129.97 564.79 1130.00 L 564.79 1130.00 L 564.79 1129.29 Q 566.18 1129.29 566.77 1128.78 Q 567.37 1128.27 567.37 1126.84 L 567.37 1126.84 L 567.37 1116.20 Q 567.37 1114.67 566.83 1113.93 Q 566.28 1113.20 564.79 1113.20 L 564.79 1113.20 L 564.79 1112.49 Q 565.87 1112.59 566.89 1112.59 L 566.89 1112.59 Q 567.88 1112.59 568.78 1112.47 Q 569.68 1112.35 570.43 1112.12 L 570.43 1112.12 L 570.43 1116.13 Q 571.31 1113.92 572.84 1112.97 Q 574.37 1112.01 576.01 1112.01 M 586.24 1112.01 L 586.24 1112.01 Q 587.43 1112.01 588.31 1112.35 Q 589.20 1112.69 589.78 1113.31 L 589.78 1113.31 Q 590.42 1113.99 590.66 1115.07 Q 590.90 1116.16 590.90 1117.76 L 590.90 1117.76 L 590.90 1126.84 Q 590.90 1128.27 591.49 1128.78 Q 592.09 1129.29 593.48 1129.29 L 593.48 1129.29 L 593.48 1130.00 Q 592.90 1129.97 591.71 1129.91 Q 590.52 1129.86 589.40 1129.86 L 589.40 1129.86 Q 588.28 1129.86 587.21 1129.91 Q 586.14 1129.97 585.59 1130.00 L 585.59 1130.00 L 585.59 1129.29 Q 586.82 1129.29 587.33 1128.78 Q 587.84 1128.27 587.84 1126.84 L 587.84 1126.84 L 587.84 1117.01 Q 587.84 1115.96 587.70 1115.07 Q 587.57 1114.19 587.02 1113.65 Q 586.48 1113.10 585.25 1113.10 L 585.25 1113.10 Q 583.93 1113.10 582.89 1113.92 Q 581.85 1114.73 581.26 1116.13 Q 580.66 1117.52 580.66 1119.26 L 580.66 1119.26 L 580.56 1116.09 Q 581.48 1113.75 583.04 1112.88 Q 584.61 1112.01 586.24 1112.01 M 599.81 1130.24 L 599.81 1130.24 Q 598.41 1130.24 597.39 1129.71 Q 596.37 1129.18 595.84 1128.23 Q 595.32 1127.28 595.32 1126.02 L 595.32 1126.02 Q 595.32 1124.53 596.01 1123.57 Q 596.71 1122.62 597.80 1122.04 Q 598.89 1121.47 600.09 1121.08 Q 601.30 1120.68 602.39 1120.33 Q 603.48 1119.97 604.17 1119.49 Q 604.87 1119.02 604.87 1118.24 L 604.87 1118.24 L 604.87 1116.13 Q 604.87 1114.70 604.45 1113.95 Q 604.02 1113.20 603.31 1112.95 Q 602.59 1112.69 601.71 1112.69 L 601.71 1112.69 Q 600.86 1112.69 599.89 1112.93 Q 598.92 1113.17 598.34 1113.92 L 598.34 1113.92 Q 598.99 1114.05 599.47 1114.60 Q 599.94 1115.14 599.94 1115.99 L 599.94 1115.99 Q 599.94 1116.84 599.40 1117.34 Q 598.85 1117.83 598.00 1117.83 L 598.00 1117.83 Q 597.02 1117.83 596.56 1117.20 Q 596.10 1116.57 596.10 1115.79 L 596.10 1115.79 Q 596.10 1114.90 596.54 1114.36 Q 596.98 1113.82 597.66 1113.34 L 597.66 1113.34 Q 598.45 1112.80 599.69 1112.40 Q 600.93 1112.01 602.49 1112.01 L 602.49 1112.01 Q 603.89 1112.01 604.87 1112.34 Q 605.86 1112.66 606.50 1113.27 L 606.50 1113.27 Q 607.39 1114.09 607.66 1115.26 Q 607.93 1116.43 607.93 1118.07 L 607.93 1118.07 L 607.93 1127.52 Q 607.93 1128.37 608.19 1128.74 Q 608.44 1129.12 608.99 1129.12 L 608.99 1129.12 Q 609.36 1129.12 609.70 1128.95 Q 610.04 1128.78 610.52 1128.40 L 610.52 1128.40 L 610.89 1128.98 Q 610.18 1129.52 609.53 1129.88 Q 608.88 1130.24 607.80 1130.24 L 607.80 1130.24 Q 606.81 1130.24 606.16 1129.90 Q 605.52 1129.56 605.19 1128.89 Q 604.87 1128.23 604.87 1127.21 L 604.87 1127.21 Q 603.95 1128.74 602.68 1129.49 Q 601.40 1130.24 599.81 1130.24 M 601.03 1128.88 L 601.03 1128.88 Q 602.15 1128.88 603.12 1128.23 Q 604.09 1127.59 604.87 1126.29 L 604.87 1126.29 L 604.87 1119.63 Q 604.46 1120.21 603.68 1120.60 Q 602.90 1120.99 601.98 1121.38 Q 601.06 1121.77 600.23 1122.30 Q 599.40 1122.83 598.85 1123.68 Q 598.31 1124.53 598.31 1125.89 L 598.31 1125.89 Q 598.31 1127.25 599.04 1128.06 Q 599.77 1128.88 601.03 1128.88 M 627.72 1112.49 L 627.72 1112.49 L 627.72 1113.17 Q 627.07 1113.24 626.53 1113.75 Q 625.99 1114.26 625.51 1115.55 L 625.51 1115.55 L 619.93 1130.17 L 619.36 1130.17 L 613.10 1115.11 Q 612.45 1113.78 611.82 1113.49 Q 611.20 1113.20 610.79 1113.20 L 610.79 1113.20 L 610.79 1112.49 Q 611.54 1112.59 612.35 1112.64 Q 613.17 1112.69 614.12 1112.69 L 614.12 1112.69 Q 615.17 1112.69 616.35 1112.63 Q 617.52 1112.56 618.54 1112.49 L 618.54 1112.49 L 618.54 1113.20 Q 617.69 1113.20 617.03 1113.32 Q 616.36 1113.44 616.19 1114.04 Q 616.02 1114.63 616.60 1116.06 L 616.60 1116.06 L 620.78 1126.43 L 620.58 1126.50 L 624.46 1116.37 Q 624.90 1115.24 624.81 1114.58 Q 624.73 1113.92 624.12 1113.58 Q 623.50 1113.24 622.28 1113.17 L 622.28 1113.17 L 622.28 1112.49 Q 622.89 1112.52 623.33 1112.54 Q 623.78 1112.56 624.20 1112.58 Q 624.63 1112.59 625.14 1112.59 L 625.14 1112.59 Q 625.92 1112.59 626.55 1112.56 Q 627.18 1112.52 627.72 1112.49 M 619.29 1129.90 L 619.93 1130.17 L 618.78 1133.13 Q 618.44 1133.98 618.08 1134.56 Q 617.72 1135.13 617.32 1135.51 L 617.32 1135.51 Q 616.77 1136.02 616.02 1136.20 Q 615.28 1136.39 614.66 1136.39 L 614.66 1136.39 Q 614.02 1136.39 613.49 1136.15 Q 612.96 1135.92 612.66 1135.46 Q 612.35 1135.00 612.35 1134.35 L 612.35 1134.35 Q 612.35 1133.54 612.83 1133.04 Q 613.30 1132.55 614.15 1132.55 L 614.15 1132.55 Q 614.87 1132.55 615.38 1132.96 Q 615.89 1133.37 615.89 1134.15 L 615.89 1134.15 Q 615.89 1134.73 615.62 1135.10 Q 615.34 1135.47 614.97 1135.68 L 614.97 1135.68 Q 615.04 1135.71 615.09 1135.71 Q 615.14 1135.71 615.17 1135.71 L 615.17 1135.71 Q 616.09 1135.71 616.81 1135.08 Q 617.52 1134.45 618.06 1133.06 L 618.06 1133.06 L 619.29 1129.90 M 639.14 1112.01 L 639.14 1112.01 Q 641.93 1112.01 643.77 1114.31 Q 645.60 1116.60 645.60 1121.26 L 645.60 1121.26 Q 645.60 1124.32 644.57 1126.38 Q 643.53 1128.44 641.80 1129.46 Q 640.06 1130.48 638.02 1130.48 L 638.02 1130.48 Q 636.32 1130.48 634.74 1129.51 Q 633.16 1128.54 632.38 1126.63 L 632.38 1126.63 L 633.06 1127.01 Q 633.91 1128.37 635.17 1129.03 Q 636.42 1129.69 637.75 1129.69 L 637.75 1129.69 Q 640.03 1129.69 641.17 1127.64 Q 642.31 1125.58 642.31 1121.26 L 642.31 1121.26 Q 642.31 1118.51 641.86 1116.67 Q 641.42 1114.84 640.50 1113.93 Q 639.59 1113.03 638.16 1113.03 L 638.16 1113.03 Q 636.59 1113.03 635.25 1114.44 Q 633.91 1115.86 633.60 1118.58 L 633.60 1118.58 L 633.19 1118.10 Q 633.57 1115.21 635.22 1113.61 Q 636.87 1112.01 639.14 1112.01 M 633.84 1103.38 L 633.84 1103.38 L 633.84 1128.23 Q 633.40 1128.61 632.94 1129.00 Q 632.48 1129.39 632.04 1129.76 Q 631.60 1130.14 631.12 1130.54 L 631.12 1130.54 L 630.54 1130.31 Q 630.68 1129.83 630.73 1129.34 Q 630.78 1128.84 630.78 1128.33 L 630.78 1128.33 L 630.78 1107.46 Q 630.78 1105.93 630.24 1105.20 Q 629.69 1104.47 628.20 1104.47 L 628.20 1104.47 L 628.20 1103.75 Q 629.28 1103.85 630.30 1103.85 L 630.30 1103.85 Q 631.29 1103.85 632.19 1103.73 Q 633.09 1103.62 633.84 1103.38 M 656.45 1112.01 L 656.45 1112.01 Q 659.44 1112.01 661.13 1113.83 Q 662.81 1115.65 662.81 1119.49 L 662.81 1119.49 L 650.81 1119.49 L 650.77 1118.85 L 659.54 1118.85 Q 659.61 1117.18 659.27 1115.77 Q 658.93 1114.36 658.20 1113.51 Q 657.47 1112.66 656.31 1112.66 L 656.31 1112.66 Q 654.75 1112.66 653.54 1114.22 Q 652.34 1115.79 652.10 1119.19 L 652.10 1119.19 L 652.20 1119.32 Q 652.13 1119.83 652.10 1120.45 Q 652.06 1121.06 652.06 1121.67 L 652.06 1121.67 Q 652.06 1123.98 652.81 1125.65 Q 653.56 1127.31 654.77 1128.18 Q 655.97 1129.05 657.27 1129.05 L 657.27 1129.05 Q 658.29 1129.05 659.20 1128.72 Q 660.12 1128.40 660.90 1127.65 Q 661.69 1126.91 662.26 1125.65 L 662.26 1125.65 L 662.94 1125.92 Q 662.57 1127.04 661.72 1128.10 Q 660.87 1129.15 659.58 1129.81 Q 658.29 1130.48 656.59 1130.48 L 656.59 1130.48 Q 654.14 1130.48 652.39 1129.35 Q 650.64 1128.23 649.70 1126.24 Q 648.77 1124.25 648.77 1121.67 L 648.77 1121.67 Q 648.77 1118.68 649.72 1116.52 Q 650.67 1114.36 652.40 1113.19 Q 654.14 1112.01 656.45 1112.01 M 682.26 1103.41 L 682.26 1103.41 Q 683.21 1103.41 683.94 1103.67 Q 684.67 1103.92 685.21 1104.33 L 685.21 1104.33 Q 685.72 1104.74 686.00 1105.28 Q 686.27 1105.83 686.27 1106.44 L 686.27 1106.44 Q 686.27 1107.22 685.76 1107.73 Q 685.25 1108.24 684.47 1108.24 L 684.47 1108.24 Q 683.72 1108.24 683.16 1107.75 Q 682.60 1107.25 682.60 1106.40 L 682.60 1106.40 Q 682.60 1105.69 682.99 1105.25 Q 683.38 1104.81 684.02 1104.67 L 684.02 1104.67 Q 683.92 1104.36 683.50 1104.14 Q 683.07 1103.92 682.36 1103.92 L 682.36 1103.92 Q 681.58 1103.92 681.01 1104.26 Q 680.45 1104.60 680.15 1105.18 L 680.15 1105.18 Q 679.74 1105.89 679.64 1107.31 Q 679.54 1108.72 679.54 1111.64 L 679.54 1111.64 L 679.54 1112.52 L 683.17 1112.52 L 683.17 1113.20 L 679.54 1113.20 L 679.54 1126.50 Q 679.54 1128.16 680.50 1128.72 Q 681.47 1129.29 683.14 1129.29 L 683.14 1129.29 L 683.14 1130.00 Q 682.36 1129.97 680.93 1129.91 Q 679.50 1129.86 677.90 1129.86 L 677.90 1129.86 Q 676.75 1129.86 675.61 1129.91 Q 674.47 1129.97 673.89 1130.00 L 673.89 1130.00 L 673.89 1129.29 Q 675.29 1129.29 675.88 1128.78 Q 676.48 1128.27 676.48 1126.84 L 676.48 1126.84 L 676.48 1113.20 L 673.76 1113.20 L 673.76 1112.52 L 676.48 1112.52 Q 676.48 1110.52 676.65 1109.16 Q 676.82 1107.80 677.19 1106.83 Q 677.56 1105.86 678.21 1105.11 L 678.21 1105.11 Q 678.89 1104.33 679.94 1103.87 Q 681.00 1103.41 682.26 1103.41 M 693.48 1112.01 L 693.48 1112.01 Q 695.65 1112.01 697.39 1112.97 Q 699.12 1113.92 700.16 1115.96 Q 701.19 1118.00 701.19 1121.26 L 701.19 1121.26 Q 701.19 1124.53 700.16 1126.55 Q 699.12 1128.57 697.39 1129.52 Q 695.65 1130.48 693.48 1130.48 L 693.48 1130.48 Q 691.33 1130.48 689.58 1129.52 Q 687.83 1128.57 686.79 1126.55 Q 685.76 1124.53 685.76 1121.26 L 685.76 1121.26 Q 685.76 1118.00 686.79 1115.96 Q 687.83 1113.92 689.58 1112.97 Q 691.33 1112.01 693.48 1112.01 M 693.48 1112.69 L 693.48 1112.69 Q 691.54 1112.69 690.30 1114.70 Q 689.06 1116.71 689.06 1121.26 L 689.06 1121.26 Q 689.06 1125.82 690.30 1127.81 Q 691.54 1129.80 693.48 1129.80 L 693.48 1129.80 Q 695.41 1129.80 696.65 1127.81 Q 697.90 1125.82 697.90 1121.26 L 697.90 1121.26 Q 697.90 1116.71 696.65 1114.70 Q 695.41 1112.69 693.48 1112.69 M 719.21 1112.12 L 719.21 1112.12 L 719.21 1126.33 Q 719.21 1127.86 719.77 1128.59 Q 720.34 1129.32 721.80 1129.32 L 721.80 1129.32 L 721.80 1130.03 Q 720.74 1129.93 719.69 1129.93 L 719.69 1129.93 Q 718.70 1129.93 717.80 1130.03 Q 716.90 1130.14 716.15 1130.41 L 716.15 1130.41 L 716.15 1126.40 Q 715.30 1128.61 713.76 1129.54 Q 712.21 1130.48 710.58 1130.48 L 710.58 1130.48 Q 709.39 1130.48 708.50 1130.14 Q 707.62 1129.80 707.04 1129.18 L 707.04 1129.18 Q 706.40 1128.50 706.16 1127.42 Q 705.92 1126.33 705.92 1124.73 L 705.92 1124.73 L 705.92 1116.20 Q 705.92 1114.67 705.38 1113.93 Q 704.83 1113.20 703.34 1113.20 L 703.34 1113.20 L 703.34 1112.49 Q 704.42 1112.59 705.44 1112.59 L 705.44 1112.59 Q 706.43 1112.59 707.33 1112.47 Q 708.23 1112.35 708.98 1112.12 L 708.98 1112.12 L 708.98 1125.48 Q 708.98 1126.53 709.12 1127.42 Q 709.25 1128.30 709.80 1128.84 Q 710.34 1129.39 711.56 1129.39 L 711.56 1129.39 Q 712.89 1129.39 713.93 1128.57 Q 714.96 1127.76 715.56 1126.36 Q 716.15 1124.97 716.15 1123.23 L 716.15 1123.23 L 716.15 1116.20 Q 716.15 1114.67 715.61 1113.93 Q 715.07 1113.20 713.57 1113.20 L 713.57 1113.20 L 713.57 1112.49 Q 714.66 1112.59 715.68 1112.59 L 715.68 1112.59 Q 716.66 1112.59 717.56 1112.47 Q 718.47 1112.35 719.21 1112.12 M 734.11 1112.01 L 734.11 1112.01 Q 735.02 1112.01 735.72 1112.39 Q 736.42 1112.76 736.81 1113.36 Q 737.20 1113.95 737.20 1114.70 L 737.20 1114.70 Q 737.20 1115.55 736.67 1116.20 Q 736.15 1116.84 735.26 1116.84 L 735.26 1116.84 Q 734.55 1116.84 734.00 1116.38 Q 733.46 1115.92 733.46 1115.07 L 733.46 1115.07 Q 733.46 1114.43 733.82 1113.97 Q 734.17 1113.51 734.62 1113.24 L 734.62 1113.24 Q 734.38 1112.90 733.90 1112.90 L 733.90 1112.90 Q 732.85 1112.90 731.96 1113.53 Q 731.08 1114.16 730.47 1115.14 Q 729.86 1116.13 729.52 1117.23 Q 729.18 1118.34 729.18 1119.29 L 729.18 1119.29 L 729.18 1126.50 Q 729.18 1128.16 730.14 1128.72 Q 731.11 1129.29 732.78 1129.29 L 732.78 1129.29 L 732.78 1130.00 Q 732.00 1129.97 730.57 1129.91 Q 729.14 1129.86 727.54 1129.86 L 727.54 1129.86 Q 726.39 1129.86 725.25 1129.91 Q 724.11 1129.97 723.53 1130.00 L 723.53 1130.00 L 723.53 1129.29 Q 724.93 1129.29 725.52 1128.78 Q 726.12 1128.27 726.12 1126.84 L 726.12 1126.84 L 726.12 1116.20 Q 726.12 1114.67 725.57 1113.93 Q 725.03 1113.20 723.53 1113.20 L 723.53 1113.20 L 723.53 1112.49 Q 724.62 1112.59 725.64 1112.59 L 725.64 1112.59 Q 726.63 1112.59 727.53 1112.47 Q 728.43 1112.35 729.18 1112.12 L 729.18 1112.12 L 729.18 1116.37 Q 729.55 1115.38 730.25 1114.38 Q 730.94 1113.37 731.93 1112.69 Q 732.92 1112.01 734.11 1112.01 M 741.96 1126.12 L 741.96 1126.12 Q 742.84 1126.12 743.49 1126.77 Q 744.14 1127.42 744.14 1128.30 L 744.14 1128.30 Q 744.14 1129.18 743.49 1129.83 Q 742.84 1130.48 741.96 1130.48 L 741.96 1130.48 Q 741.08 1130.48 740.43 1129.83 Q 739.78 1129.18 739.78 1128.30 L 739.78 1128.30 Q 739.78 1127.42 740.43 1126.77 Q 741.08 1126.12 741.96 1126.12" fill="#44403c"/>
    <text x="540" y="1295" text-anchor="middle" fill="#D4B378" font-family="'Helvetica Neue', Arial, sans-serif" font-size="20" letter-spacing="7" style="text-transform:uppercase">Atelier</text>
  </svg>