<svg xmlns="http://www.w3.org/2000/svg" width="1080" height="1350" viewBox="0 0 1080 1350">
    <rect width="1080" height="1350" fill="#F7F5F2"/>
  <rect x="40" y="40" width="1000" height="1270" fill="none" stroke="#D4B378" stroke-width="1.5" opacity="0.5"/>
    <text x="540" y="210" text-anchor="middle" fill="#D4B378" font-family="'Helvetica Neue', Arial, sans-serif" font-size="27" letter-spacing="8" style="text-transform:uppercase">On Value</text>
    <line x1="500" y1="270" x2="580" y2="270" stroke="#D4B378" stroke-width="1.4" opacity="0.85"/>
    <path d="M 186.69 582.10 L 186.69 582.10 Q 186.46 584.30 186.37 586.36 Q 186.29 588.42 186.29 589.52 L 186.29 589.52 Q 186.29 590.91 186.34 592.13 Q 186.40 593.35 186.46 594.28 L 186.46 594.28 L 185.13 594.28 Q 184.72 590.22 184.02 587.87 Q 183.33 585.52 181.59 584.47 Q 179.85 583.43 176.19 583.43 L 176.19 583.43 L 173.06 583.43 L 173.06 616.43 Q 173.06 618.75 173.50 619.91 Q 173.93 621.07 175.21 621.48 Q 176.48 621.88 178.92 622.00 L 178.92 622.00 L 178.92 623.16 Q 177.41 623.04 175.09 623.01 Q 172.77 622.99 170.39 622.99 L 170.39 622.99 Q 167.78 622.99 165.49 623.01 Q 163.20 623.04 161.81 623.16 L 161.81 623.16 L 161.81 622.00 Q 164.25 621.88 165.52 621.48 Q 166.80 621.07 167.23 619.91 Q 167.67 618.75 167.67 616.43 L 167.67 616.43 L 167.67 583.43 L 164.54 583.43 Q 160.94 583.43 159.17 584.47 Q 157.40 585.52 156.71 587.87 Q 156.01 590.22 155.60 594.28 L 155.60 594.28 L 154.27 594.28 Q 154.39 593.35 154.42 592.13 Q 154.44 590.91 154.44 589.52 L 154.44 589.52 Q 154.44 588.42 154.36 586.36 Q 154.27 584.30 154.04 582.10 L 154.04 582.10 Q 156.47 582.15 159.35 582.21 Q 162.22 582.27 165.12 582.27 Q 168.02 582.27 170.39 582.27 L 170.39 582.27 Q 172.77 582.27 175.64 582.27 Q 178.51 582.27 181.41 582.21 Q 184.31 582.15 186.69 582.10 M 199.16 577.75 L 199.16 577.75 L 199.16 599.44 Q 200.67 595.49 203.37 593.99 Q 206.06 592.48 209.02 592.48 L 209.02 592.48 Q 211.23 592.48 212.71 593.06 Q 214.18 593.64 215.17 594.68 L 215.17 594.68 Q 216.27 595.84 216.74 597.58 Q 217.20 599.32 217.20 602.28 L 217.20 602.28 L 217.20 617.77 Q 217.20 620.20 218.22 621.07 Q 219.23 621.94 221.61 621.94 L 221.61 621.94 L 221.61 623.16 Q 220.62 623.10 218.59 623.01 Q 216.56 622.93 214.65 622.93 L 214.65 622.93 Q 212.73 622.93 210.91 623.01 Q 209.08 623.10 208.15 623.16 L 208.15 623.16 L 208.15 621.94 Q 210.24 621.94 211.11 621.07 Q 211.98 620.20 211.98 617.77 L 211.98 617.77 L 211.98 601.00 Q 211.98 599.21 211.69 597.70 Q 211.40 596.19 210.39 595.26 Q 209.37 594.33 207.28 594.33 L 207.28 594.33 Q 204.90 594.33 203.08 595.67 Q 201.25 597.00 200.21 599.38 Q 199.16 601.76 199.16 604.83 L 199.16 604.83 L 199.16 617.77 Q 199.16 620.20 200.03 621.07 Q 200.90 621.94 202.99 621.94 L 202.99 621.94 L 202.99 623.16 Q 202.06 623.10 200.24 623.01 Q 198.41 622.93 196.49 622.93 L 196.49 622.93 Q 194.58 622.93 192.55 623.01 Q 190.52 623.10 189.53 623.16 L 189.53 623.16 L 189.53 621.94 Q 191.91 621.94 192.93 621.07 Q 193.94 620.20 193.94 617.77 L 193.94 617.77 L 193.94 584.71 Q 193.94 582.10 193.01 580.85 Q 192.09 579.60 189.53 579.60 L 189.53 579.60 L 189.53 578.38 Q 191.39 578.56 193.13 578.56 L 193.13 578.56 Q 194.81 578.56 196.35 578.36 Q 197.89 578.15 199.16 577.75 M 238.25 592.48 L 238.25 592.48 Q 243.36 592.48 246.23 595.58 Q 249.10 598.68 249.10 605.24 L 249.10 605.24 L 228.63 605.24 L 228.57 604.14 L 243.53 604.14 Q 243.65 601.29 243.07 598.89 Q 242.49 596.48 241.24 595.03 Q 239.99 593.58 238.02 593.58 L 238.02 593.58 Q 235.35 593.58 233.30 596.25 Q 231.24 598.92 230.83 604.72 L 230.83 604.72 L 231.00 604.95 Q 230.89 605.82 230.83 606.86 Q 230.77 607.91 230.77 608.95 L 230.77 608.95 Q 230.77 612.89 232.05 615.74 Q 233.32 618.58 235.38 620.06 Q 237.44 621.54 239.65 621.54 L 239.65 621.54 Q 241.39 621.54 242.95 620.99 Q 244.52 620.43 245.85 619.16 Q 247.19 617.88 248.17 615.74 L 248.17 615.74 L 249.33 616.20 Q 248.69 618.11 247.24 619.91 Q 245.79 621.71 243.59 622.84 Q 241.39 623.97 238.49 623.97 L 238.49 623.97 Q 234.31 623.97 231.32 622.06 Q 228.34 620.14 226.74 616.75 Q 225.15 613.36 225.15 608.95 L 225.15 608.95 Q 225.15 603.85 226.77 600.16 Q 228.39 596.48 231.35 594.48 Q 234.31 592.48 238.25 592.48 M 282.05 592.48 L 282.05 592.48 Q 287.15 592.48 290.02 595.58 Q 292.89 598.68 292.89 605.24 L 292.89 605.24 L 272.42 605.24 L 272.36 604.14 L 287.32 604.14 Q 287.44 601.29 286.86 598.89 Q 286.28 596.48 285.03 595.03 Q 283.79 593.58 281.81 593.58 L 281.81 593.58 Q 279.14 593.58 277.09 596.25 Q 275.03 598.92 274.62 604.72 L 274.62 604.72 L 274.80 604.95 Q 274.68 605.82 274.62 606.86 Q 274.56 607.91 274.56 608.95 L 274.56 608.95 Q 274.56 612.89 275.84 615.74 Q 277.12 618.58 279.17 620.06 Q 281.23 621.54 283.44 621.54 L 283.44 621.54 Q 285.18 621.54 286.74 620.99 Q 288.31 620.43 289.64 619.16 Q 290.98 617.88 291.96 615.74 L 291.96 615.74 L 293.12 616.20 Q 292.49 618.11 291.04 619.91 Q 289.59 621.71 287.38 622.84 Q 285.18 623.97 282.28 623.97 L 282.28 623.97 Q 278.10 623.97 275.11 622.06 Q 272.13 620.14 270.53 616.75 Q 268.94 613.36 268.94 608.95 L 268.94 608.95 Q 268.94 603.85 270.56 600.16 Q 272.19 596.48 275.14 594.48 Q 278.10 592.48 282.05 592.48 M 307.91 593.29 L 307.91 593.29 L 307.91 594.51 Q 306.81 594.51 306.06 595.03 Q 305.30 595.55 305.88 596.48 L 305.88 596.48 L 321.37 619.04 Q 322.36 620.49 323.11 621.10 Q 323.86 621.71 324.97 621.94 L 324.97 621.94 L 324.97 623.16 Q 324.38 623.10 323.20 623.01 Q 322.01 622.93 320.85 622.93 L 320.85 622.93 Q 319.05 622.93 316.99 623.01 Q 314.93 623.10 314.00 623.16 L 314.00 623.16 L 314.00 621.94 Q 315.16 621.94 315.92 621.39 Q 316.67 620.84 316.03 619.97 L 316.03 619.97 L 300.55 597.41 Q 299.39 595.73 298.69 595.17 Q 298.00 594.62 296.95 594.51 L 296.95 594.51 L 296.95 593.29 Q 297.53 593.35 298.75 593.43 Q 299.97 593.52 301.07 593.52 L 301.07 593.52 Q 302.93 593.52 304.96 593.43 Q 306.99 593.35 307.91 593.29 M 301.94 617.94 L 309.48 608.02 Q 309.48 608.02 309.60 608.40 Q 309.71 608.78 309.86 609.18 Q 310.00 609.59 310.00 609.59 L 310.00 609.59 L 305.19 615.85 Q 303.68 617.82 303.59 619.16 Q 303.50 620.49 304.67 621.16 Q 305.83 621.83 307.86 622.00 L 307.86 622.00 L 307.86 623.16 Q 306.87 623.10 305.65 623.07 Q 304.43 623.04 303.30 623.01 Q 302.17 622.99 301.24 622.99 L 301.24 622.99 Q 299.91 622.99 298.84 623.01 Q 297.76 623.04 296.84 623.16 L 296.84 623.16 L 296.84 622.00 Q 297.94 621.88 299.13 620.99 Q 300.31 620.09 301.94 617.94 L 301.94 617.94 M 323.81 593.29 L 323.81 593.29 L 323.81 594.45 Q 322.70 594.57 321.40 595.58 Q 320.09 596.60 318.70 598.51 L 318.70 598.51 L 312.03 607.73 Q 312.03 607.73 311.92 607.36 Q 311.80 606.98 311.68 606.60 Q 311.57 606.22 311.57 606.22 L 311.57 606.22 L 316.09 599.90 Q 317.37 598.10 317.72 596.94 Q 318.06 595.78 317.34 595.17 Q 316.61 594.57 314.53 594.45 L 314.53 594.45 L 314.53 593.29 Q 316.03 593.35 317.05 593.41 Q 318.06 593.46 319.40 593.46 L 319.40 593.46 Q 320.73 593.46 321.80 593.41 Q 322.88 593.35 323.81 593.29 M 336.62 592.65 L 336.62 592.65 L 336.62 628.26 Q 336.62 630.76 338.10 631.60 Q 339.58 632.44 342.19 632.44 L 342.19 632.44 L 342.19 633.66 Q 340.92 633.60 338.65 633.51 Q 336.39 633.43 333.84 633.43 L 333.84 633.43 Q 332.04 633.43 330.27 633.51 Q 328.50 633.60 327.57 633.66 L 327.57 633.66 L 327.57 632.44 Q 329.66 632.44 330.53 631.69 Q 331.40 630.93 331.40 628.84 L 331.40 628.84 L 331.40 599.61 Q 331.40 597.00 330.48 595.75 Q 329.55 594.51 327.00 594.51 L 327.00 594.51 L 327.00 593.29 Q 328.85 593.46 330.59 593.46 L 330.59 593.46 Q 332.27 593.46 333.81 593.26 Q 335.35 593.06 336.62 592.65 M 345.90 592.48 L 345.90 592.48 Q 348.98 592.48 351.41 594.13 Q 353.85 595.78 355.27 598.97 Q 356.69 602.16 356.69 606.86 L 356.69 606.86 Q 356.69 609.99 355.94 613.04 Q 355.18 616.08 353.59 618.55 Q 351.99 621.01 349.47 622.49 Q 346.95 623.97 343.41 623.97 L 343.41 623.97 Q 340.68 623.97 338.68 622.70 Q 336.68 621.42 335.99 619.62 L 335.99 619.62 L 336.56 618.81 Q 337.38 620.43 338.91 621.54 Q 340.45 622.64 342.77 622.64 L 342.77 622.64 Q 346.02 622.64 347.82 620.61 Q 349.62 618.58 350.34 615.18 Q 351.06 611.79 351.06 607.67 L 351.06 607.67 Q 351.06 603.03 350.31 600.08 Q 349.56 597.12 348.05 595.67 Q 346.54 594.22 344.34 594.22 L 344.34 594.22 Q 341.50 594.22 339.18 596.57 Q 336.86 598.92 336.22 603.67 L 336.22 603.67 L 335.52 602.86 Q 336.16 597.93 339.03 595.20 Q 341.90 592.48 345.90 592.48 M 375.19 592.48 L 375.19 592.48 Q 380.30 592.48 383.17 595.58 Q 386.04 598.68 386.04 605.24 L 386.04 605.24 L 365.56 605.24 L 365.51 604.14 L 380.47 604.14 Q 380.59 601.29 380.01 598.89 Q 379.43 596.48 378.18 595.03 Q 376.93 593.58 374.96 593.58 L 374.96 593.58 Q 372.29 593.58 370.23 596.25 Q 368.17 598.92 367.77 604.72 L 367.77 604.72 L 367.94 604.95 Q 367.83 605.82 367.77 606.86 Q 367.71 607.91 367.71 608.95 L 367.71 608.95 Q 367.71 612.89 368.99 615.74 Q 370.26 618.58 372.32 620.06 Q 374.38 621.54 376.58 621.54 L 376.58 621.54 Q 378.32 621.54 379.89 620.99 Q 381.46 620.43 382.79 619.16 Q 384.13 617.88 385.11 615.74 L 385.11 615.74 L 386.27 616.20 Q 385.63 618.11 384.18 619.91 Q 382.73 621.71 380.53 622.84 Q 378.32 623.97 375.42 623.97 L 375.42 623.97 Q 371.25 623.97 368.26 622.06 Q 365.27 620.14 363.68 616.75 Q 362.08 613.36 362.08 608.95 L 362.08 608.95 Q 362.08 603.85 363.71 600.16 Q 365.33 596.48 368.29 594.48 Q 371.25 592.48 375.19 592.48 M 409.94 592.48 L 409.94 592.48 Q 412.14 592.48 413.62 593.06 Q 415.10 593.64 416.08 594.68 L 416.08 594.68 Q 417.19 595.84 417.65 597.58 Q 418.11 599.32 418.11 602.28 L 418.11 602.28 L 418.11 617.77 Q 418.11 620.20 419.13 621.07 Q 420.14 621.94 422.52 621.94 L 422.52 621.94 L 422.52 623.16 Q 421.53 623.10 419.50 623.01 Q 417.47 622.93 415.56 622.93 L 415.56 622.93 Q 413.65 622.93 411.82 623.01 Q 409.99 623.10 409.06 623.16 L 409.06 623.16 L 409.06 621.94 Q 411.15 621.94 412.02 621.07 Q 412.89 620.20 412.89 617.77 L 412.89 617.77 L 412.89 601.00 Q 412.89 599.21 412.60 597.70 Q 412.31 596.19 411.30 595.26 Q 410.28 594.33 408.19 594.33 L 408.19 594.33 Q 405.76 594.33 403.93 595.73 Q 402.10 597.12 401.09 599.52 Q 400.07 601.93 400.07 604.89 L 400.07 604.89 L 400.07 617.77 Q 400.07 620.20 400.94 621.07 Q 401.81 621.94 403.90 621.94 L 403.90 621.94 L 403.90 623.16 Q 402.97 623.10 401.15 623.01 Q 399.32 622.93 397.41 622.93 L 397.41 622.93 Q 395.49 622.93 393.46 623.01 Q 391.43 623.10 390.45 623.16 L 390.45 623.16 L 390.45 621.94 Q 392.82 621.94 393.84 621.07 Q 394.85 620.20 394.85 617.77 L 394.85 617.77 L 394.85 599.61 Q 394.85 597.00 393.93 595.75 Q 393.00 594.51 390.45 594.51 L 390.45 594.51 L 390.45 593.29 Q 392.30 593.46 394.04 593.46 L 394.04 593.46 Q 395.72 593.46 397.26 593.26 Q 398.80 593.06 400.07 592.65 L 400.07 592.65 L 400.07 599.50 Q 401.58 595.55 404.28 594.01 Q 406.98 592.48 409.94 592.48 M 435.45 592.48 L 435.45 592.48 Q 437.77 592.48 439.40 593.23 Q 441.02 593.99 441.78 594.62 L 441.78 594.62 Q 443.69 596.19 444.10 592.54 L 444.10 592.54 L 445.43 592.54 Q 445.31 594.16 445.26 596.39 Q 445.20 598.63 445.20 602.40 L 445.20 602.40 L 443.86 602.40 Q 443.52 600.25 442.68 598.22 Q 441.83 596.19 440.21 594.88 Q 438.59 593.58 435.98 593.58 L 435.98 593.58 Q 433.95 593.58 432.58 594.71 Q 431.22 595.84 431.22 598.05 L 431.22 598.05 Q 431.22 599.79 432.26 601.03 Q 433.31 602.28 434.99 603.35 Q 436.67 604.43 438.64 605.70 L 438.64 605.70 Q 440.85 607.09 442.65 608.54 Q 444.44 609.99 445.52 611.73 Q 446.59 613.47 446.59 615.85 L 446.59 615.85 Q 446.59 618.52 445.20 620.32 Q 443.81 622.12 441.57 623.04 Q 439.34 623.97 436.67 623.97 L 436.67 623.97 Q 435.40 623.97 434.27 623.77 Q 433.13 623.57 432.09 623.16 L 432.09 623.16 Q 431.51 622.87 430.90 622.46 Q 430.29 622.06 429.71 621.59 L 429.71 621.59 Q 429.13 621.13 428.67 621.62 Q 428.20 622.12 427.97 623.57 L 427.97 623.57 L 426.64 623.57 Q 426.75 621.71 426.81 619.04 Q 426.87 616.37 426.87 611.97 L 426.87 611.97 L 428.20 611.97 Q 428.61 615.21 429.36 617.65 Q 430.12 620.09 431.74 621.45 Q 433.37 622.81 436.27 622.81 L 436.27 622.81 Q 437.43 622.81 438.62 622.29 Q 439.80 621.77 440.62 620.55 Q 441.43 619.33 441.43 617.30 L 441.43 617.30 Q 441.43 614.75 439.57 613.13 Q 437.72 611.50 434.87 609.70 L 434.87 609.70 Q 432.79 608.37 430.96 607.04 Q 429.13 605.70 428.00 604.02 Q 426.87 602.34 426.87 599.96 L 426.87 599.96 Q 426.87 597.35 428.06 595.70 Q 429.25 594.04 431.22 593.26 Q 433.19 592.48 435.45 592.48 M 457.61 578.79 L 457.61 578.79 Q 459.12 578.79 460.22 579.89 Q 461.32 580.99 461.32 582.50 L 461.32 582.50 Q 461.32 584.01 460.22 585.11 Q 459.12 586.21 457.61 586.21 L 457.61 586.21 Q 456.10 586.21 455.00 585.11 Q 453.90 584.01 453.90 582.50 L 453.90 582.50 Q 453.90 580.99 455.00 579.89 Q 456.10 578.79 457.61 578.79 M 460.63 592.65 L 460.63 592.65 L 460.63 617.77 Q 460.63 620.20 461.64 621.07 Q 462.66 621.94 465.03 621.94 L 465.03 621.94 L 465.03 623.16 Q 464.05 623.10 462.05 623.01 Q 460.05 622.93 458.02 622.93 L 458.02 622.93 Q 456.04 622.93 454.01 623.01 Q 451.98 623.10 451.00 623.16 L 451.00 623.16 L 451.00 621.94 Q 453.38 621.94 454.39 621.07 Q 455.41 620.20 455.41 617.77 L 455.41 617.77 L 455.41 599.61 Q 455.41 597.00 454.48 595.75 Q 453.55 594.51 451.00 594.51 L 451.00 594.51 L 451.00 593.29 Q 452.85 593.46 454.59 593.46 L 454.59 593.46 Q 456.28 593.46 457.81 593.26 Q 459.35 593.06 460.63 592.65 M 494.50 593.29 L 494.50 593.29 L 494.50 594.45 Q 493.40 594.57 492.47 595.44 Q 491.54 596.31 490.73 598.51 L 490.73 598.51 L 481.22 623.45 Q 480.98 623.45 480.75 623.45 Q 480.52 623.45 480.23 623.45 L 480.23 623.45 L 469.56 597.76 Q 468.63 595.49 467.73 595.00 Q 466.83 594.51 466.19 594.51 L 466.19 594.51 L 466.19 593.29 Q 467.35 593.35 468.60 593.43 Q 469.85 593.52 471.30 593.52 L 471.30 593.52 Q 473.10 593.52 475.10 593.46 Q 477.10 593.41 478.84 593.29 L 478.84 593.29 L 478.84 594.51 Q 477.39 594.51 476.26 594.71 Q 475.13 594.91 474.81 595.84 Q 474.49 596.77 475.36 599.03 L 475.36 599.03 L 482.61 616.95 L 482.26 617.24 L 488.87 599.90 Q 489.63 597.99 489.48 596.86 Q 489.34 595.73 488.32 595.15 Q 487.31 594.57 485.22 594.45 L 485.22 594.45 L 485.22 593.29 Q 486.26 593.35 487.02 593.38 Q 487.77 593.41 488.50 593.43 Q 489.22 593.46 490.09 593.46 L 490.09 593.46 Q 491.42 593.46 492.50 593.41 Q 493.57 593.35 494.50 593.29 M 510.45 592.48 L 510.45 592.48 Q 515.55 592.48 518.42 595.58 Q 521.29 598.68 521.29 605.24 L 521.29 605.24 L 500.82 605.24 L 500.76 604.14 L 515.73 604.14 Q 515.84 601.29 515.26 598.89 Q 514.68 596.48 513.44 595.03 Q 512.19 593.58 510.22 593.58 L 510.22 593.58 Q 507.55 593.58 505.49 596.25 Q 503.43 598.92 503.02 604.72 L 503.02 604.72 L 503.20 604.95 Q 503.08 605.82 503.02 606.86 Q 502.97 607.91 502.97 608.95 L 502.97 608.95 Q 502.97 612.89 504.24 615.74 Q 505.52 618.58 507.58 620.06 Q 509.64 621.54 511.84 621.54 L 511.84 621.54 Q 513.58 621.54 515.15 620.99 Q 516.71 620.43 518.05 619.16 Q 519.38 617.88 520.37 615.74 L 520.37 615.74 L 521.53 616.20 Q 520.89 618.11 519.44 619.91 Q 517.99 621.71 515.78 622.84 Q 513.58 623.97 510.68 623.97 L 510.68 623.97 Q 506.50 623.97 503.52 622.06 Q 500.53 620.14 498.94 616.75 Q 497.34 613.36 497.34 608.95 L 497.34 608.95 Q 497.34 603.85 498.96 600.16 Q 500.59 596.48 503.55 594.48 Q 506.50 592.48 510.45 592.48 M 549.48 583.66 L 549.48 583.66 L 549.48 593.35 L 558.07 593.35 L 558.07 594.51 L 549.48 594.51 L 549.48 616.95 Q 549.48 619.68 550.47 620.78 Q 551.45 621.88 553.19 621.88 L 553.19 621.88 Q 554.93 621.88 556.21 620.46 Q 557.49 619.04 558.41 615.68 L 558.41 615.68 L 559.57 615.97 Q 559.00 619.33 557.28 621.65 Q 555.57 623.97 552.03 623.97 L 552.03 623.97 Q 550.06 623.97 548.79 623.48 Q 547.51 622.99 546.52 622.06 L 546.52 622.06 Q 545.25 620.72 544.76 618.87 Q 544.26 617.01 544.26 613.94 L 544.26 613.94 L 544.26 594.51 L 538.69 594.51 L 538.69 593.35 L 544.26 593.35 L 544.26 584.47 Q 545.71 584.42 547.05 584.24 Q 548.38 584.07 549.48 583.66 M 569.78 577.75 L 569.78 577.75 L 569.78 599.44 Q 571.29 595.49 573.99 593.99 Q 576.69 592.48 579.64 592.48 L 579.64 592.48 Q 581.85 592.48 583.33 593.06 Q 584.81 593.64 585.79 594.68 L 585.79 594.68 Q 586.89 595.84 587.36 597.58 Q 587.82 599.32 587.82 602.28 L 587.82 602.28 L 587.82 617.77 Q 587.82 620.20 588.84 621.07 Q 589.85 621.94 592.23 621.94 L 592.23 621.94 L 592.23 623.16 Q 591.24 623.10 589.21 623.01 Q 587.18 622.93 585.27 622.93 L 585.27 622.93 Q 583.36 622.93 581.53 623.01 Q 579.70 623.10 578.77 623.16 L 578.77 623.16 L 578.77 621.94 Q 580.86 621.94 581.73 621.07 Q 582.60 620.20 582.60 617.77 L 582.60 617.77 L 582.60 601.00 Q 582.60 599.21 582.31 597.70 Q 582.02 596.19 581.01 595.26 Q 579.99 594.33 577.90 594.33 L 577.90 594.33 Q 575.52 594.33 573.70 595.67 Q 571.87 597.00 570.83 599.38 Q 569.78 601.76 569.78 604.83 L 569.78 604.83 L 569.78 617.77 Q 569.78 620.20 570.65 621.07 Q 571.52 621.94 573.61 621.94 L 573.61 621.94 L 573.61 623.16 Q 572.68 623.10 570.86 623.01 Q 569.03 622.93 567.12 622.93 L 567.12 622.93 Q 565.20 622.93 563.17 623.01 Q 561.14 623.10 560.15 623.16 L 560.15 623.16 L 560.15 621.94 Q 562.53 621.94 563.55 621.07 Q 564.56 620.20 564.56 617.77 L 564.56 617.77 L 564.56 584.71 Q 564.56 582.10 563.63 580.85 Q 562.71 579.60 560.15 579.60 L 560.15 579.60 L 560.15 578.38 Q 562.01 578.56 563.75 578.56 L 563.75 578.56 Q 565.43 578.56 566.97 578.36 Q 568.51 578.15 569.78 577.75 M 601.39 578.79 L 601.39 578.79 Q 602.90 578.79 604.00 579.89 Q 605.11 580.99 605.11 582.50 L 605.11 582.50 Q 605.11 584.01 604.00 585.11 Q 602.90 586.21 601.39 586.21 L 601.39 586.21 Q 599.88 586.21 598.78 585.11 Q 597.68 584.01 597.68 582.50 L 597.68 582.50 Q 597.68 580.99 598.78 579.89 Q 599.88 578.79 601.39 578.79 M 604.41 592.65 L 604.41 592.65 L 604.41 617.77 Q 604.41 620.20 605.42 621.07 Q 606.44 621.94 608.82 621.94 L 608.82 621.94 L 608.82 623.16 Q 607.83 623.10 605.83 623.01 Q 603.83 622.93 601.80 622.93 L 601.80 622.93 Q 599.83 622.93 597.80 623.01 Q 595.77 623.10 594.78 623.16 L 594.78 623.16 L 594.78 621.94 Q 597.16 621.94 598.17 621.07 Q 599.19 620.20 599.19 617.77 L 599.19 617.77 L 599.19 599.61 Q 599.19 597.00 598.26 595.75 Q 597.33 594.51 594.78 594.51 L 594.78 594.51 L 594.78 593.29 Q 596.64 593.46 598.38 593.46 L 598.38 593.46 Q 600.06 593.46 601.60 593.26 Q 603.13 593.06 604.41 592.65 M 631.26 592.48 L 631.26 592.48 Q 633.47 592.48 634.95 593.06 Q 636.43 593.64 637.41 594.68 L 637.41 594.68 Q 638.51 595.84 638.98 597.58 Q 639.44 599.32 639.44 602.28 L 639.44 602.28 L 639.44 617.77 Q 639.44 620.20 640.46 621.07 Q 641.47 621.94 643.85 621.94 L 643.85 621.94 L 643.85 623.16 Q 642.86 623.10 640.83 623.01 Q 638.80 622.93 636.89 622.93 L 636.89 622.93 Q 634.98 622.93 633.15 623.01 Q 631.32 623.10 630.39 623.16 L 630.39 623.16 L 630.39 621.94 Q 632.48 621.94 633.35 621.07 Q 634.22 620.20 634.22 617.77 L 634.22 617.77 L 634.22 601.00 Q 634.22 599.21 633.93 597.70 Q 633.64 596.19 632.63 595.26 Q 631.61 594.33 629.52 594.33 L 629.52 594.33 Q 627.09 594.33 625.26 595.73 Q 623.43 597.12 622.42 599.52 Q 621.40 601.93 621.40 604.89 L 621.40 604.89 L 621.40 617.77 Q 621.40 620.20 622.27 621.07 Q 623.14 621.94 625.23 621.94 L 625.23 621.94 L 625.23 623.16 Q 624.30 623.10 622.48 623.01 Q 620.65 622.93 618.74 622.93 L 618.74 622.93 Q 616.82 622.93 614.79 623.01 Q 612.76 623.10 611.78 623.16 L 611.78 623.16 L 611.78 621.94 Q 614.15 621.94 615.17 621.07 Q 616.18 620.20 616.18 617.77 L 616.18 617.77 L 616.18 599.61 Q 616.18 597.00 615.26 595.75 Q 614.33 594.51 611.78 594.51 L 611.78 594.51 L 611.78 593.29 Q 613.63 593.46 615.37 593.46 L 615.37 593.46 Q 617.05 593.46 618.59 593.26 Q 620.13 593.06 621.40 592.65 L 621.40 592.65 L 621.40 599.50 Q 622.91 595.55 625.61 594.01 Q 628.31 592.48 631.26 592.48 M 657.07 634.06 L 657.07 634.06 Q 654.00 634.06 651.27 633.43 Q 648.55 632.79 646.89 631.42 Q 645.24 630.06 645.24 627.97 L 645.24 627.97 Q 645.24 625.94 646.87 624.49 Q 648.49 623.04 651.27 622.29 L 651.27 622.29 L 651.62 623.22 Q 650.35 623.62 649.59 624.84 Q 648.84 626.06 648.84 627.57 L 648.84 627.57 Q 648.84 630.24 651.30 631.66 Q 653.77 633.08 657.71 633.08 L 657.71 633.08 Q 660.32 633.08 662.82 632.41 Q 665.31 631.74 666.93 630.18 Q 668.56 628.61 668.56 626.06 L 668.56 626.06 Q 668.56 624.15 667.19 622.90 Q 665.83 621.65 661.83 621.65 L 661.83 621.65 L 657.54 621.65 Q 655.68 621.65 653.94 621.36 Q 652.20 621.07 651.10 620.14 Q 650.00 619.22 650.00 617.30 L 650.00 617.30 Q 650.00 615.33 651.62 613.50 Q 653.25 611.68 657.60 609.76 L 657.60 609.76 L 658.29 610.28 Q 656.32 611.33 654.87 612.40 Q 653.42 613.47 653.42 614.92 L 653.42 614.92 Q 653.42 616.78 656.20 616.78 L 656.20 616.78 L 663.45 616.78 Q 665.89 616.78 667.95 617.48 Q 670.01 618.17 671.28 619.68 Q 672.56 621.19 672.56 623.62 L 672.56 623.62 Q 672.56 626.35 670.82 628.73 Q 669.08 631.11 665.63 632.58 Q 662.18 634.06 657.07 634.06 M 657.36 610.81 L 657.36 610.81 Q 654.52 610.81 652.20 609.85 Q 649.88 608.89 648.55 606.86 Q 647.21 604.83 647.21 601.64 L 647.21 601.64 Q 647.21 598.45 648.55 596.42 Q 649.88 594.39 652.20 593.43 Q 654.52 592.48 657.36 592.48 L 657.36 592.48 Q 660.26 592.48 662.55 593.43 Q 664.85 594.39 666.18 596.42 Q 667.51 598.45 667.51 601.64 L 667.51 601.64 Q 667.51 604.83 666.18 606.86 Q 664.85 608.89 662.55 609.85 Q 660.26 610.81 657.36 610.81 M 657.36 609.76 L 657.36 609.76 Q 659.57 609.76 660.81 608.02 Q 662.06 606.28 662.06 601.64 L 662.06 601.64 Q 662.06 597.00 660.81 595.26 Q 659.57 593.52 657.36 593.52 L 657.36 593.52 Q 655.22 593.52 653.94 595.26 Q 652.67 597.00 652.67 601.64 L 652.67 601.64 Q 652.67 606.28 653.94 608.02 Q 655.22 609.76 657.36 609.76 M 665.72 597.29 L 665.72 597.29 L 664.67 596.89 Q 665.48 594.91 667.46 593.41 Q 669.43 591.90 671.57 591.90 L 671.57 591.90 Q 673.08 591.90 674.01 592.74 Q 674.94 593.58 674.94 595.26 L 674.94 595.26 Q 674.94 597.06 673.98 597.78 Q 673.02 598.51 672.04 598.51 L 672.04 598.51 Q 671.17 598.51 670.41 597.90 Q 669.66 597.29 669.54 595.96 Q 669.43 594.62 670.36 592.54 L 670.36 592.54 L 671.11 592.71 Q 668.67 593.64 667.63 594.65 Q 666.59 595.67 665.72 597.29 M 718.44 593.29 L 718.44 593.29 L 718.44 594.45 Q 717.34 594.57 716.41 595.44 Q 715.48 596.31 714.67 598.51 L 714.67 598.51 L 705.16 623.45 L 704.17 623.45 L 693.50 597.76 Q 692.40 595.49 691.32 595.00 Q 690.25 594.51 689.55 594.51 L 689.55 594.51 L 689.55 593.29 Q 690.83 593.46 692.22 593.55 Q 693.61 593.64 695.24 593.64 L 695.24 593.64 Q 697.04 593.64 699.04 593.52 Q 701.04 593.41 702.78 593.29 L 702.78 593.29 L 702.78 594.51 Q 701.33 594.51 700.20 594.71 Q 699.07 594.91 698.78 595.93 Q 698.49 596.94 699.47 599.38 L 699.47 599.38 L 706.61 617.07 L 706.26 617.19 L 712.87 599.90 Q 713.62 597.99 713.48 596.86 Q 713.33 595.73 712.29 595.15 Q 711.25 594.57 709.16 594.45 L 709.16 594.45 L 709.16 593.29 Q 710.20 593.35 710.96 593.38 Q 711.71 593.41 712.43 593.43 Q 713.16 593.46 714.03 593.46 L 714.03 593.46 Q 715.36 593.46 716.44 593.41 Q 717.51 593.35 718.44 593.29 M 704.05 622.99 L 705.16 623.45 L 703.18 628.50 Q 702.60 629.95 701.99 630.93 Q 701.39 631.92 700.69 632.56 L 700.69 632.56 Q 699.76 633.43 698.49 633.75 Q 697.21 634.06 696.17 634.06 L 696.17 634.06 Q 695.06 634.06 694.16 633.66 Q 693.27 633.25 692.74 632.47 Q 692.22 631.69 692.22 630.58 L 692.22 630.58 Q 692.22 629.19 693.03 628.35 Q 693.85 627.51 695.30 627.51 L 695.30 627.51 Q 696.51 627.51 697.38 628.21 Q 698.25 628.90 698.25 630.24 L 698.25 630.24 Q 698.25 631.22 697.79 631.86 Q 697.33 632.50 696.69 632.85 L 696.69 632.85 Q 696.80 632.90 696.89 632.90 Q 696.98 632.90 697.04 632.90 L 697.04 632.90 Q 698.60 632.90 699.82 631.83 Q 701.04 630.76 701.97 628.38 L 701.97 628.38 L 704.05 622.99 M 734.91 592.48 L 734.91 592.48 Q 738.62 592.48 741.58 594.10 Q 744.54 595.73 746.31 599.21 Q 748.08 602.69 748.08 608.25 L 748.08 608.25 Q 748.08 613.82 746.31 617.27 Q 744.54 620.72 741.58 622.35 Q 738.62 623.97 734.91 623.97 L 734.91 623.97 Q 731.26 623.97 728.27 622.35 Q 725.28 620.72 723.51 617.27 Q 721.74 613.82 721.74 608.25 L 721.74 608.25 Q 721.74 602.69 723.51 599.21 Q 725.28 595.73 728.27 594.10 Q 731.26 592.48 734.91 592.48 M 734.91 593.64 L 734.91 593.64 Q 731.60 593.64 729.49 597.06 Q 727.37 600.48 727.37 608.25 L 727.37 608.25 Q 727.37 616.03 729.49 619.42 Q 731.60 622.81 734.91 622.81 L 734.91 622.81 Q 738.22 622.81 740.33 619.42 Q 742.45 616.03 742.45 608.25 L 742.45 608.25 Q 742.45 600.48 740.33 597.06 Q 738.22 593.64 734.91 593.64 M 778.82 592.65 L 778.82 592.65 L 778.82 616.90 Q 778.82 619.51 779.77 620.75 Q 780.73 622.00 783.22 622.00 L 783.22 622.00 L 783.22 623.22 Q 781.43 623.04 779.63 623.04 L 779.63 623.04 Q 777.95 623.04 776.41 623.22 Q 774.87 623.39 773.60 623.86 L 773.60 623.86 L 773.60 617.01 Q 772.15 620.78 769.51 622.38 Q 766.87 623.97 764.08 623.97 L 764.08 623.97 Q 762.05 623.97 760.55 623.39 Q 759.04 622.81 758.05 621.77 L 758.05 621.77 Q 756.95 620.61 756.54 618.75 Q 756.14 616.90 756.14 614.17 L 756.14 614.17 L 756.14 599.61 Q 756.14 597.00 755.21 595.75 Q 754.28 594.51 751.73 594.51 L 751.73 594.51 L 751.73 593.29 Q 753.59 593.46 755.33 593.46 L 755.33 593.46 Q 757.01 593.46 758.54 593.26 Q 760.08 593.06 761.36 592.65 L 761.36 592.65 L 761.36 615.45 Q 761.36 617.24 761.59 618.75 Q 761.82 620.26 762.75 621.19 Q 763.68 622.12 765.77 622.12 L 765.77 622.12 Q 768.03 622.12 769.80 620.72 Q 771.57 619.33 772.58 616.95 Q 773.60 614.58 773.60 611.62 L 773.60 611.62 L 773.60 599.61 Q 773.60 597.00 772.67 595.75 Q 771.74 594.51 769.19 594.51 L 769.19 594.51 L 769.19 593.29 Q 771.04 593.46 772.78 593.46 L 772.78 593.46 Q 774.47 593.46 776.00 593.26 Q 777.54 593.06 778.82 592.65 M 811.59 593.29 L 811.59 593.29 L 811.59 594.51 Q 810.13 594.51 809.03 594.71 Q 807.93 594.91 807.58 595.90 Q 807.24 596.89 808.11 599.38 L 808.11 599.38 L 814.14 616.66 L 813.73 616.61 L 822.26 593.06 L 823.42 593.52 L 812.80 623.45 Q 812.57 623.45 812.34 623.45 Q 812.11 623.45 811.82 623.45 L 811.82 623.45 L 802.31 597.76 Q 801.38 595.44 800.48 594.97 Q 799.58 594.51 798.94 594.51 L 798.94 594.51 L 798.94 593.29 Q 800.10 593.46 801.35 593.55 Q 802.60 593.64 804.05 593.64 L 804.05 593.64 Q 805.84 593.64 807.84 593.52 Q 809.85 593.41 811.59 593.29 M 843.43 593.29 L 843.43 593.29 L 843.43 594.45 Q 842.33 594.57 841.37 595.41 Q 840.41 596.25 839.66 598.51 L 839.66 598.51 L 831.25 623.45 Q 831.01 623.45 830.78 623.45 Q 830.55 623.45 830.26 623.45 L 830.26 623.45 L 820.92 599.73 L 822.26 593.06 Q 822.61 593.06 822.92 593.06 Q 823.24 593.06 823.59 593.06 L 823.59 593.06 L 832.64 617.01 L 832.18 617.36 L 837.92 599.90 Q 838.56 597.93 838.41 596.80 Q 838.26 595.67 837.25 595.12 Q 836.24 594.57 834.15 594.45 L 834.15 594.45 L 834.15 593.29 Q 835.19 593.35 835.95 593.38 Q 836.70 593.41 837.42 593.43 Q 838.15 593.46 839.02 593.46 L 839.02 593.46 Q 840.35 593.46 841.43 593.41 Q 842.50 593.35 843.43 593.29 M 859.38 592.48 L 859.38 592.48 Q 864.48 592.48 867.35 595.58 Q 870.22 598.68 870.22 605.24 L 870.22 605.24 L 849.75 605.24 L 849.69 604.14 L 864.65 604.14 Q 864.77 601.29 864.19 598.89 Q 863.61 596.48 862.36 595.03 Q 861.12 593.58 859.14 593.58 L 859.14 593.58 Q 856.48 593.58 854.42 596.25 Q 852.36 598.92 851.95 604.72 L 851.95 604.72 L 852.13 604.95 Q 852.01 605.82 851.95 606.86 Q 851.89 607.91 851.89 608.95 L 851.89 608.95 Q 851.89 612.89 853.17 615.74 Q 854.45 618.58 856.51 620.06 Q 858.57 621.54 860.77 621.54 L 860.77 621.54 Q 862.51 621.54 864.08 620.99 Q 865.64 620.43 866.98 619.16 Q 868.31 617.88 869.29 615.74 L 869.29 615.74 L 870.46 616.20 Q 869.82 618.11 868.37 619.91 Q 866.92 621.71 864.71 622.84 Q 862.51 623.97 859.61 623.97 L 859.61 623.97 Q 855.43 623.97 852.45 622.06 Q 849.46 620.14 847.86 616.75 Q 846.27 613.36 846.27 608.95 L 846.27 608.95 Q 846.27 603.85 847.89 600.16 Q 849.52 596.48 852.48 594.48 Q 855.43 592.48 859.38 592.48 M 882.87 623.57 L 882.87 623.57 Q 880.49 623.57 878.75 622.67 Q 877.01 621.77 876.11 620.14 Q 875.21 618.52 875.21 616.37 L 875.21 616.37 Q 875.21 613.82 876.40 612.20 Q 877.59 610.57 879.44 609.59 Q 881.30 608.60 883.36 607.93 Q 885.42 607.27 887.27 606.66 Q 889.13 606.05 890.32 605.24 Q 891.51 604.43 891.51 603.09 L 891.51 603.09 L 891.51 599.50 Q 891.51 597.06 890.78 595.78 Q 890.06 594.51 888.84 594.07 Q 887.62 593.64 886.12 593.64 L 886.12 593.64 Q 884.66 593.64 883.01 594.04 Q 881.36 594.45 880.37 595.73 L 880.37 595.73 Q 881.47 595.96 882.29 596.89 Q 883.10 597.81 883.10 599.26 L 883.10 599.26 Q 883.10 600.71 882.17 601.55 Q 881.24 602.40 879.79 602.40 L 879.79 602.40 Q 878.11 602.40 877.33 601.32 Q 876.54 600.25 876.54 598.92 L 876.54 598.92 Q 876.54 597.41 877.30 596.48 Q 878.05 595.55 879.21 594.74 L 879.21 594.74 Q 880.55 593.81 882.66 593.14 Q 884.78 592.48 887.45 592.48 L 887.45 592.48 Q 889.83 592.48 891.51 593.03 Q 893.19 593.58 894.29 594.62 L 894.29 594.62 Q 895.80 596.02 896.26 598.02 Q 896.73 600.02 896.73 602.80 L 896.73 602.80 L 896.73 618.93 Q 896.73 620.38 897.16 621.01 Q 897.60 621.65 898.53 621.65 L 898.53 621.65 Q 899.16 621.65 899.75 621.36 Q 900.32 621.07 901.14 620.43 L 901.14 620.43 L 901.77 621.42 Q 900.56 622.35 899.45 622.96 Q 898.35 623.57 896.50 623.57 L 896.50 623.57 Q 894.81 623.57 893.71 622.99 Q 892.61 622.41 892.06 621.27 Q 891.51 620.14 891.51 618.40 L 891.51 618.40 Q 889.94 621.01 887.77 622.29 Q 885.59 623.57 882.87 623.57 M 884.95 621.25 L 884.95 621.25 Q 886.87 621.25 888.52 620.14 Q 890.17 619.04 891.51 616.84 L 891.51 616.84 L 891.51 605.47 Q 890.81 606.46 889.48 607.12 Q 888.14 607.79 886.58 608.46 Q 885.01 609.12 883.59 610.02 Q 882.17 610.92 881.24 612.37 Q 880.31 613.82 880.31 616.14 L 880.31 616.14 Q 880.31 618.46 881.56 619.85 Q 882.81 621.25 884.95 621.25 M 921.55 592.48 L 921.55 592.48 Q 923.12 592.48 924.31 593.12 Q 925.50 593.75 926.16 594.77 Q 926.83 595.78 926.83 597.06 L 926.83 597.06 Q 926.83 598.51 925.93 599.61 Q 925.03 600.71 923.52 600.71 L 923.52 600.71 Q 922.31 600.71 921.38 599.93 Q 920.45 599.15 920.45 597.70 L 920.45 597.70 Q 920.45 596.60 921.06 595.81 Q 921.67 595.03 922.42 594.57 L 922.42 594.57 Q 922.02 593.99 921.20 593.99 L 921.20 593.99 Q 919.41 593.99 917.90 595.06 Q 916.39 596.13 915.35 597.81 Q 914.30 599.50 913.72 601.38 Q 913.14 603.27 913.14 604.89 L 913.14 604.89 L 913.14 617.19 Q 913.14 620.03 914.80 620.99 Q 916.45 621.94 919.29 621.94 L 919.29 621.94 L 919.29 623.16 Q 917.96 623.10 915.52 623.01 Q 913.08 622.93 910.36 622.93 L 910.36 622.93 Q 908.39 622.93 906.44 623.01 Q 904.50 623.10 903.51 623.16 L 903.51 623.16 L 903.51 621.94 Q 905.89 621.94 906.91 621.07 Q 907.92 620.20 907.92 617.77 L 907.92 617.77 L 907.92 599.61 Q 907.92 597.00 907.00 595.75 Q 906.07 594.51 903.51 594.51 L 903.51 594.51 L 903.51 593.29 Q 905.37 593.46 907.11 593.46 L 907.11 593.46 Q 908.79 593.46 910.33 593.26 Q 911.87 593.06 913.14 592.65 L 913.14 592.65 L 913.14 599.90 Q 913.78 598.22 914.97 596.51 Q 916.16 594.80 917.84 593.64 Q 919.52 592.48 921.55 592.48" fill="#1c1917"/><path d="M 143.92 670.20 L 143.92 670.20 Q 145.77 670.20 147.51 670.66 Q 149.25 671.13 150.65 672.05 L 150.65 672.05 Q 151.98 672.92 152.68 674.05 Q 153.37 675.19 153.37 676.52 L 153.37 676.52 Q 153.37 678.09 152.50 678.93 Q 151.63 679.77 150.30 679.77 L 150.30 679.77 Q 149.02 679.77 148.07 679.01 Q 147.11 678.26 147.11 676.87 L 147.11 676.87 Q 147.11 675.53 147.83 674.72 Q 148.56 673.91 149.54 673.68 L 149.54 673.68 Q 148.96 672.63 147.49 671.94 Q 146.01 671.24 144.32 671.24 L 144.32 671.24 Q 142.87 671.24 141.42 671.94 Q 139.97 672.63 138.76 674.23 Q 137.54 675.82 136.78 678.58 Q 136.03 681.33 136.03 685.45 L 136.03 685.45 Q 136.03 690.56 137.19 693.57 Q 138.35 696.59 140.24 697.89 Q 142.12 699.20 144.38 699.20 L 144.38 699.20 Q 145.89 699.20 147.46 698.62 Q 149.02 698.04 150.41 696.73 Q 151.81 695.43 152.79 693.22 L 152.79 693.22 L 153.89 693.63 Q 153.31 695.49 151.98 697.37 Q 150.65 699.26 148.50 700.47 Q 146.35 701.69 143.22 701.69 L 143.22 701.69 Q 139.63 701.69 136.73 699.84 Q 133.83 697.98 132.12 694.53 Q 130.40 691.08 130.40 686.32 L 130.40 686.32 Q 130.40 681.57 132.12 677.94 Q 133.83 674.32 136.90 672.26 Q 139.97 670.20 143.92 670.20 M 171.82 670.20 L 171.82 670.20 Q 175.53 670.20 178.49 671.82 Q 181.44 673.45 183.21 676.93 Q 184.98 680.41 184.98 685.97 L 184.98 685.97 Q 184.98 691.54 183.21 694.99 Q 181.44 698.44 178.49 700.07 Q 175.53 701.69 171.82 701.69 L 171.82 701.69 Q 168.16 701.69 165.18 700.07 Q 162.19 698.44 160.42 694.99 Q 158.65 691.54 158.65 685.97 L 158.65 685.97 Q 158.65 680.41 160.42 676.93 Q 162.19 673.45 165.18 671.82 Q 168.16 670.20 171.82 670.20 M 171.82 671.36 L 171.82 671.36 Q 168.51 671.36 166.39 674.78 Q 164.28 678.20 164.28 685.97 L 164.28 685.97 Q 164.28 693.75 166.39 697.14 Q 168.51 700.53 171.82 700.53 L 171.82 700.53 Q 175.12 700.53 177.24 697.14 Q 179.36 693.75 179.36 685.97 L 179.36 685.97 Q 179.36 678.20 177.24 674.78 Q 175.12 671.36 171.82 671.36 M 208.88 670.20 L 208.88 670.20 Q 211.08 670.20 212.56 670.78 Q 214.04 671.36 215.03 672.40 L 215.03 672.40 Q 216.13 673.56 216.59 675.30 Q 217.06 677.04 217.06 680.00 L 217.06 680.00 L 217.06 695.49 Q 217.06 697.92 218.07 698.79 Q 219.09 699.66 221.46 699.66 L 221.46 699.66 L 221.46 700.88 Q 220.48 700.82 218.45 700.74 Q 216.42 700.65 214.50 700.65 L 214.50 700.65 Q 212.59 700.65 210.76 700.74 Q 208.94 700.82 208.01 700.88 L 208.01 700.88 L 208.01 699.66 Q 210.10 699.66 210.97 698.79 Q 211.84 697.92 211.84 695.49 L 211.84 695.49 L 211.84 678.72 Q 211.84 676.93 211.55 675.42 Q 211.26 673.91 210.24 672.98 Q 209.23 672.05 207.14 672.05 L 207.14 672.05 Q 204.70 672.05 202.88 673.45 Q 201.05 674.84 200.03 677.25 Q 199.02 679.65 199.02 682.61 L 199.02 682.61 L 199.02 695.49 Q 199.02 697.92 199.89 698.79 Q 200.76 699.66 202.85 699.66 L 202.85 699.66 L 202.85 700.88 Q 201.92 700.82 200.09 700.74 Q 198.26 700.65 196.35 700.65 L 196.35 700.65 Q 194.44 700.65 192.41 700.74 Q 190.38 700.82 189.39 700.88 L 189.39 700.88 L 189.39 699.66 Q 191.77 699.66 192.78 698.79 Q 193.80 697.92 193.80 695.49 L 193.80 695.49 L 193.80 677.33 Q 193.80 674.72 192.87 673.48 Q 191.94 672.23 189.39 672.23 L 189.39 672.23 L 189.39 671.01 Q 191.25 671.18 192.99 671.18 L 192.99 671.18 Q 194.67 671.18 196.21 670.98 Q 197.74 670.78 199.02 670.37 L 199.02 670.37 L 199.02 677.22 Q 200.53 673.27 203.22 671.74 Q 205.92 670.20 208.88 670.20 M 234.40 670.20 L 234.40 670.20 Q 236.72 670.20 238.34 670.95 Q 239.97 671.71 240.72 672.34 L 240.72 672.34 Q 242.63 673.91 243.04 670.26 L 243.04 670.26 L 244.37 670.26 Q 244.26 671.88 244.20 674.11 Q 244.14 676.35 244.14 680.12 L 244.14 680.12 L 242.81 680.12 Q 242.46 677.97 241.62 675.94 Q 240.78 673.91 239.15 672.61 Q 237.53 671.30 234.92 671.30 L 234.92 671.30 Q 232.89 671.30 231.53 672.43 Q 230.16 673.56 230.16 675.77 L 230.16 675.77 Q 230.16 677.51 231.21 678.75 Q 232.25 680.00 233.93 681.07 Q 235.62 682.15 237.59 683.42 L 237.59 683.42 Q 239.79 684.81 241.59 686.26 Q 243.39 687.71 244.46 689.45 Q 245.53 691.19 245.53 693.57 L 245.53 693.57 Q 245.53 696.24 244.14 698.04 Q 242.75 699.84 240.52 700.76 Q 238.28 701.69 235.62 701.69 L 235.62 701.69 Q 234.34 701.69 233.21 701.49 Q 232.08 701.29 231.03 700.88 L 231.03 700.88 Q 230.45 700.59 229.85 700.18 Q 229.24 699.78 228.66 699.31 L 228.66 699.31 Q 228.08 698.85 227.61 699.34 Q 227.15 699.84 226.92 701.29 L 226.92 701.29 L 225.58 701.29 Q 225.70 699.43 225.76 696.76 Q 225.81 694.09 225.81 689.69 L 225.81 689.69 L 227.15 689.69 Q 227.55 692.93 228.31 695.37 Q 229.06 697.81 230.69 699.17 Q 232.31 700.53 235.21 700.53 L 235.21 700.53 Q 236.37 700.53 237.56 700.01 Q 238.75 699.49 239.56 698.27 Q 240.37 697.05 240.37 695.02 L 240.37 695.02 Q 240.37 692.47 238.52 690.85 Q 236.66 689.22 233.82 687.42 L 233.82 687.42 Q 231.73 686.09 229.90 684.76 Q 228.08 683.42 226.95 681.74 Q 225.81 680.06 225.81 677.68 L 225.81 677.68 Q 225.81 675.07 227.00 673.42 Q 228.19 671.76 230.16 670.98 Q 232.14 670.20 234.40 670.20 M 259.28 661.38 L 259.28 661.38 L 259.28 671.07 L 267.86 671.07 L 267.86 672.23 L 259.28 672.23 L 259.28 694.67 Q 259.28 697.40 260.27 698.50 Q 261.25 699.60 262.99 699.60 L 262.99 699.60 Q 264.73 699.60 266.01 698.18 Q 267.28 696.76 268.21 693.40 L 268.21 693.40 L 269.37 693.69 Q 268.79 697.05 267.08 699.37 Q 265.37 701.69 261.83 701.69 L 261.83 701.69 Q 259.86 701.69 258.58 701.20 Q 257.31 700.71 256.32 699.78 L 256.32 699.78 Q 255.05 698.44 254.55 696.59 Q 254.06 694.73 254.06 691.66 L 254.06 691.66 L 254.06 672.23 L 248.49 672.23 L 248.49 671.07 L 254.06 671.07 L 254.06 662.19 Q 255.51 662.14 256.84 661.96 Q 258.18 661.79 259.28 661.38 M 278.71 701.29 L 278.71 701.29 Q 276.33 701.29 274.59 700.39 Q 272.85 699.49 271.95 697.86 Q 271.05 696.24 271.05 694.09 L 271.05 694.09 Q 271.05 691.54 272.24 689.92 Q 273.43 688.29 275.29 687.31 Q 277.14 686.32 279.20 685.65 Q 281.26 684.99 283.12 684.38 Q 284.97 683.77 286.16 682.96 Q 287.35 682.15 287.35 680.81 L 287.35 680.81 L 287.35 677.22 Q 287.35 674.78 286.63 673.50 Q 285.90 672.23 284.68 671.79 Q 283.47 671.36 281.96 671.36 L 281.96 671.36 Q 280.51 671.36 278.86 671.76 Q 277.20 672.17 276.22 673.45 L 276.22 673.45 Q 277.32 673.68 278.13 674.61 Q 278.94 675.53 278.94 676.98 L 278.94 676.98 Q 278.94 678.43 278.01 679.27 Q 277.09 680.12 275.64 680.12 L 275.64 680.12 Q 273.95 680.12 273.17 679.04 Q 272.39 677.97 272.39 676.64 L 272.39 676.64 Q 272.39 675.13 273.14 674.20 Q 273.90 673.27 275.06 672.46 L 275.06 672.46 Q 276.39 671.53 278.51 670.87 Q 280.62 670.20 283.29 670.20 L 283.29 670.20 Q 285.67 670.20 287.35 670.75 Q 289.03 671.30 290.14 672.34 L 290.14 672.34 Q 291.64 673.74 292.11 675.74 Q 292.57 677.74 292.57 680.52 L 292.57 680.52 L 292.57 696.65 Q 292.57 698.10 293.01 698.73 Q 293.44 699.37 294.37 699.37 L 294.37 699.37 Q 295.01 699.37 295.59 699.08 Q 296.17 698.79 296.98 698.15 L 296.98 698.15 L 297.62 699.14 Q 296.40 700.07 295.30 700.68 Q 294.20 701.29 292.34 701.29 L 292.34 701.29 Q 290.66 701.29 289.56 700.71 Q 288.45 700.13 287.90 699.00 Q 287.35 697.86 287.35 696.12 L 287.35 696.12 Q 285.79 698.73 283.61 700.01 Q 281.44 701.29 278.71 701.29 M 280.80 698.97 L 280.80 698.97 Q 282.71 698.97 284.37 697.86 Q 286.02 696.76 287.35 694.56 L 287.35 694.56 L 287.35 683.19 Q 286.66 684.18 285.32 684.84 Q 283.99 685.51 282.42 686.18 Q 280.86 686.84 279.44 687.74 Q 278.01 688.64 277.09 690.09 Q 276.16 691.54 276.16 693.86 L 276.16 693.86 Q 276.16 696.18 277.41 697.57 Q 278.65 698.97 280.80 698.97 M 318.85 670.20 L 318.85 670.20 Q 321.05 670.20 322.53 670.78 Q 324.01 671.36 324.99 672.40 L 324.99 672.40 Q 326.10 673.56 326.56 675.30 Q 327.02 677.04 327.02 680.00 L 327.02 680.00 L 327.02 695.49 Q 327.02 697.92 328.04 698.79 Q 329.05 699.66 331.43 699.66 L 331.43 699.66 L 331.43 700.88 Q 330.45 700.82 328.42 700.74 Q 326.39 700.65 324.47 700.65 L 324.47 700.65 Q 322.56 700.65 320.73 700.74 Q 318.90 700.82 317.98 700.88 L 317.98 700.88 L 317.98 699.66 Q 320.06 699.66 320.93 698.79 Q 321.80 697.92 321.80 695.49 L 321.80 695.49 L 321.80 678.72 Q 321.80 676.93 321.51 675.42 Q 321.22 673.91 320.21 672.98 Q 319.19 672.05 317.11 672.05 L 317.11 672.05 Q 314.67 672.05 312.84 673.45 Q 311.02 674.84 310.00 677.25 Q 308.99 679.65 308.99 682.61 L 308.99 682.61 L 308.99 695.49 Q 308.99 697.92 309.86 698.79 Q 310.73 699.66 312.81 699.66 L 312.81 699.66 L 312.81 700.88 Q 311.89 700.82 310.06 700.74 Q 308.23 700.65 306.32 700.65 L 306.32 700.65 Q 304.40 700.65 302.37 700.74 Q 300.34 700.82 299.36 700.88 L 299.36 700.88 L 299.36 699.66 Q 301.74 699.66 302.75 698.79 Q 303.77 697.92 303.77 695.49 L 303.77 695.49 L 303.77 677.33 Q 303.77 674.72 302.84 673.48 Q 301.91 672.23 299.36 672.23 L 299.36 672.23 L 299.36 671.01 Q 301.21 671.18 302.95 671.18 L 302.95 671.18 Q 304.64 671.18 306.17 670.98 Q 307.71 670.78 308.99 670.37 L 308.99 670.37 L 308.99 677.22 Q 310.49 673.27 313.19 671.74 Q 315.89 670.20 318.85 670.20 M 343.32 661.38 L 343.32 661.38 L 343.32 671.07 L 351.91 671.07 L 351.91 672.23 L 343.32 672.23 L 343.32 694.67 Q 343.32 697.40 344.31 698.50 Q 345.29 699.60 347.03 699.60 L 347.03 699.60 Q 348.77 699.60 350.05 698.18 Q 351.33 696.76 352.25 693.40 L 352.25 693.40 L 353.41 693.69 Q 352.83 697.05 351.12 699.37 Q 349.41 701.69 345.87 701.69 L 345.87 701.69 Q 343.90 701.69 342.63 701.20 Q 341.35 700.71 340.36 699.78 L 340.36 699.78 Q 339.09 698.44 338.60 696.59 Q 338.10 694.73 338.10 691.66 L 338.10 691.66 L 338.10 672.23 L 332.53 672.23 L 332.53 671.07 L 338.10 671.07 L 338.10 662.19 Q 339.55 662.14 340.89 661.96 Q 342.22 661.79 343.32 661.38 M 363.74 655.41 L 363.74 655.41 L 363.74 695.49 Q 363.74 697.92 364.75 698.79 Q 365.77 699.66 368.15 699.66 L 368.15 699.66 L 368.15 700.88 Q 367.16 700.82 365.16 700.74 Q 363.16 700.65 361.13 700.65 L 361.13 700.65 Q 359.16 700.65 357.13 700.74 Q 355.10 700.82 354.11 700.88 L 354.11 700.88 L 354.11 699.66 Q 356.49 699.66 357.50 698.79 Q 358.52 697.92 358.52 695.49 L 358.52 695.49 L 358.52 662.37 Q 358.52 659.76 357.59 658.51 Q 356.66 657.26 354.11 657.26 L 354.11 657.26 L 354.11 656.05 Q 355.97 656.22 357.71 656.22 L 357.71 656.22 Q 359.39 656.22 360.93 656.02 Q 362.46 655.81 363.74 655.41 M 398.07 671.01 L 398.07 671.01 L 398.07 672.17 Q 396.97 672.29 396.04 673.16 Q 395.12 674.03 394.30 676.23 L 394.30 676.23 L 384.79 701.17 L 383.81 701.17 L 373.13 675.48 Q 372.03 673.21 370.96 672.72 Q 369.89 672.23 369.19 672.23 L 369.19 672.23 L 369.19 671.01 Q 370.47 671.18 371.86 671.27 Q 373.25 671.36 374.87 671.36 L 374.87 671.36 Q 376.67 671.36 378.67 671.24 Q 380.67 671.13 382.41 671.01 L 382.41 671.01 L 382.41 672.23 Q 380.96 672.23 379.83 672.43 Q 378.70 672.63 378.41 673.65 Q 378.12 674.66 379.11 677.10 L 379.11 677.10 L 386.24 694.79 L 385.89 694.91 L 392.51 677.62 Q 393.26 675.71 393.12 674.58 Q 392.97 673.45 391.93 672.87 Q 390.88 672.29 388.79 672.17 L 388.79 672.17 L 388.79 671.01 Q 389.84 671.07 390.59 671.10 Q 391.35 671.13 392.07 671.15 Q 392.80 671.18 393.67 671.18 L 393.67 671.18 Q 395.00 671.18 396.07 671.13 Q 397.15 671.07 398.07 671.01 M 383.69 700.71 L 384.79 701.17 L 382.82 706.22 Q 382.24 707.67 381.63 708.65 Q 381.02 709.64 380.33 710.28 L 380.33 710.28 Q 379.40 711.15 378.12 711.47 Q 376.85 711.78 375.80 711.78 L 375.80 711.78 Q 374.70 711.78 373.80 711.38 Q 372.90 710.97 372.38 710.19 Q 371.86 709.41 371.86 708.30 L 371.86 708.30 Q 371.86 706.91 372.67 706.07 Q 373.48 705.23 374.93 705.23 L 374.93 705.23 Q 376.15 705.23 377.02 705.93 Q 377.89 706.62 377.89 707.96 L 377.89 707.96 Q 377.89 708.94 377.43 709.58 Q 376.96 710.22 376.32 710.57 L 376.32 710.57 Q 376.44 710.62 376.53 710.62 Q 376.61 710.62 376.67 710.62 L 376.67 710.62 Q 378.24 710.62 379.46 709.55 Q 380.67 708.48 381.60 706.10 L 381.60 706.10 L 383.69 700.71 M 425.45 711.78 L 425.45 711.78 Q 422.38 711.78 419.65 711.15 Q 416.92 710.51 415.27 709.14 Q 413.62 707.78 413.62 705.69 L 413.62 705.69 Q 413.62 703.66 415.24 702.21 Q 416.87 700.76 419.65 700.01 L 419.65 700.01 L 420.00 700.94 Q 418.72 701.34 417.97 702.56 Q 417.21 703.78 417.21 705.29 L 417.21 705.29 Q 417.21 707.96 419.68 709.38 Q 422.14 710.80 426.09 710.80 L 426.09 710.80 Q 428.70 710.80 431.19 710.13 Q 433.69 709.46 435.31 707.90 Q 436.93 706.33 436.93 703.78 L 436.93 703.78 Q 436.93 701.87 435.57 700.62 Q 434.21 699.37 430.21 699.37 L 430.21 699.37 L 425.91 699.37 Q 424.06 699.37 422.32 699.08 Q 420.58 698.79 419.48 697.86 Q 418.37 696.94 418.37 695.02 L 418.37 695.02 Q 418.37 693.05 420.00 691.22 Q 421.62 689.40 425.97 687.48 L 425.97 687.48 L 426.67 688.00 Q 424.70 689.05 423.25 690.12 Q 421.80 691.19 421.80 692.64 L 421.80 692.64 Q 421.80 694.50 424.58 694.50 L 424.58 694.50 L 431.83 694.50 Q 434.27 694.50 436.33 695.20 Q 438.38 695.89 439.66 697.40 Q 440.94 698.91 440.94 701.34 L 440.94 701.34 Q 440.94 704.07 439.20 706.45 Q 437.46 708.83 434.01 710.30 Q 430.55 711.78 425.45 711.78 M 425.74 688.53 L 425.74 688.53 Q 422.90 688.53 420.58 687.57 Q 418.26 686.61 416.92 684.58 Q 415.59 682.55 415.59 679.36 L 415.59 679.36 Q 415.59 676.17 416.92 674.14 Q 418.26 672.11 420.58 671.15 Q 422.90 670.20 425.74 670.20 L 425.74 670.20 Q 428.64 670.20 430.93 671.15 Q 433.22 672.11 434.56 674.14 Q 435.89 676.17 435.89 679.36 L 435.89 679.36 Q 435.89 682.55 434.56 684.58 Q 433.22 686.61 430.93 687.57 Q 428.64 688.53 425.74 688.53 M 425.74 687.48 L 425.74 687.48 Q 427.94 687.48 429.19 685.74 Q 430.44 684.00 430.44 679.36 L 430.44 679.36 Q 430.44 674.72 429.19 672.98 Q 427.94 671.24 425.74 671.24 L 425.74 671.24 Q 423.59 671.24 422.32 672.98 Q 421.04 674.72 421.04 679.36 L 421.04 679.36 Q 421.04 684.00 422.32 685.74 Q 423.59 687.48 425.74 687.48 M 434.09 675.01 L 434.09 675.01 L 433.05 674.61 Q 433.86 672.63 435.83 671.13 Q 437.80 669.62 439.95 669.62 L 439.95 669.62 Q 441.46 669.62 442.39 670.46 Q 443.31 671.30 443.31 672.98 L 443.31 672.98 Q 443.31 674.78 442.36 675.50 Q 441.40 676.23 440.41 676.23 L 440.41 676.23 Q 439.54 676.23 438.79 675.62 Q 438.04 675.01 437.92 673.68 Q 437.80 672.34 438.73 670.26 L 438.73 670.26 L 439.49 670.43 Q 437.05 671.36 436.01 672.37 Q 434.96 673.39 434.09 675.01 M 463.44 670.20 L 463.44 670.20 Q 465.01 670.20 466.20 670.84 Q 467.38 671.47 468.05 672.49 Q 468.72 673.50 468.72 674.78 L 468.72 674.78 Q 468.72 676.23 467.82 677.33 Q 466.92 678.43 465.41 678.43 L 465.41 678.43 Q 464.19 678.43 463.27 677.65 Q 462.34 676.87 462.34 675.42 L 462.34 675.42 Q 462.34 674.32 462.95 673.53 Q 463.56 672.75 464.31 672.29 L 464.31 672.29 Q 463.90 671.71 463.09 671.71 L 463.09 671.71 Q 461.29 671.71 459.79 672.78 Q 458.28 673.85 457.23 675.53 Q 456.19 677.22 455.61 679.10 Q 455.03 680.99 455.03 682.61 L 455.03 682.61 L 455.03 694.91 Q 455.03 697.75 456.68 698.71 Q 458.34 699.66 461.18 699.66 L 461.18 699.66 L 461.18 700.88 Q 459.84 700.82 457.41 700.74 Q 454.97 700.65 452.25 700.65 L 452.25 700.65 Q 450.27 700.65 448.33 700.74 Q 446.39 700.82 445.40 700.88 L 445.40 700.88 L 445.40 699.66 Q 447.78 699.66 448.80 698.79 Q 449.81 697.92 449.81 695.49 L 449.81 695.49 L 449.81 677.33 Q 449.81 674.72 448.88 673.48 Q 447.95 672.23 445.40 672.23 L 445.40 672.23 L 445.40 671.01 Q 447.26 671.18 449.00 671.18 L 449.00 671.18 Q 450.68 671.18 452.22 670.98 Q 453.75 670.78 455.03 670.37 L 455.03 670.37 L 455.03 677.62 Q 455.67 675.94 456.86 674.23 Q 458.05 672.52 459.73 671.36 Q 461.41 670.20 463.44 670.20 M 485.42 670.20 L 485.42 670.20 Q 489.13 670.20 492.09 671.82 Q 495.05 673.45 496.82 676.93 Q 498.59 680.41 498.59 685.97 L 498.59 685.97 Q 498.59 691.54 496.82 694.99 Q 495.05 698.44 492.09 700.07 Q 489.13 701.69 485.42 701.69 L 485.42 701.69 Q 481.77 701.69 478.78 700.07 Q 475.79 698.44 474.03 694.99 Q 472.26 691.54 472.26 685.97 L 472.26 685.97 Q 472.26 680.41 474.03 676.93 Q 475.79 673.45 478.78 671.82 Q 481.77 670.20 485.42 670.20 M 485.42 671.36 L 485.42 671.36 Q 482.12 671.36 480.00 674.78 Q 477.88 678.20 477.88 685.97 L 477.88 685.97 Q 477.88 693.75 480.00 697.14 Q 482.12 700.53 485.42 700.53 L 485.42 700.53 Q 488.73 700.53 490.85 697.14 Q 492.96 693.75 492.96 685.97 L 492.96 685.97 Q 492.96 678.20 490.85 674.78 Q 488.73 671.36 485.42 671.36 M 513.96 671.01 L 513.96 671.01 L 513.96 672.23 Q 512.51 672.23 511.41 672.43 Q 510.30 672.63 509.96 673.62 Q 509.61 674.61 510.48 677.10 L 510.48 677.10 L 516.51 694.38 L 516.10 694.33 L 524.63 670.78 L 525.79 671.24 L 515.18 701.17 Q 514.94 701.17 514.71 701.17 Q 514.48 701.17 514.19 701.17 L 514.19 701.17 L 504.68 675.48 Q 503.75 673.16 502.85 672.69 Q 501.95 672.23 501.31 672.23 L 501.31 672.23 L 501.31 671.01 Q 502.47 671.18 503.72 671.27 Q 504.97 671.36 506.42 671.36 L 506.42 671.36 Q 508.22 671.36 510.22 671.24 Q 512.22 671.13 513.96 671.01 M 545.80 671.01 L 545.80 671.01 L 545.80 672.17 Q 544.70 672.29 543.74 673.13 Q 542.78 673.97 542.03 676.23 L 542.03 676.23 L 533.62 701.17 Q 533.39 701.17 533.16 701.17 Q 532.92 701.17 532.63 701.17 L 532.63 701.17 L 523.30 677.45 L 524.63 670.78 Q 524.98 670.78 525.30 670.78 Q 525.62 670.78 525.96 670.78 L 525.96 670.78 L 535.01 694.73 L 534.55 695.08 L 540.29 677.62 Q 540.93 675.65 540.78 674.52 Q 540.64 673.39 539.62 672.84 Q 538.61 672.29 536.52 672.17 L 536.52 672.17 L 536.52 671.01 Q 537.56 671.07 538.32 671.10 Q 539.07 671.13 539.80 671.15 Q 540.52 671.18 541.39 671.18 L 541.39 671.18 Q 542.73 671.18 543.80 671.13 Q 544.87 671.07 545.80 671.01 M 558.04 670.20 L 558.04 670.20 Q 560.36 670.20 561.98 670.95 Q 563.61 671.71 564.36 672.34 L 564.36 672.34 Q 566.27 673.91 566.68 670.26 L 566.68 670.26 L 568.01 670.26 Q 567.90 671.88 567.84 674.11 Q 567.78 676.35 567.78 680.12 L 567.78 680.12 L 566.45 680.12 Q 566.10 677.97 565.26 675.94 Q 564.42 673.91 562.79 672.61 Q 561.17 671.30 558.56 671.30 L 558.56 671.30 Q 556.53 671.30 555.17 672.43 Q 553.80 673.56 553.80 675.77 L 553.80 675.77 Q 553.80 677.51 554.85 678.75 Q 555.89 680.00 557.57 681.07 Q 559.26 682.15 561.23 683.42 L 561.23 683.42 Q 563.43 684.81 565.23 686.26 Q 567.03 687.71 568.10 689.45 Q 569.17 691.19 569.17 693.57 L 569.17 693.57 Q 569.17 696.24 567.78 698.04 Q 566.39 699.84 564.16 700.76 Q 561.92 701.69 559.26 701.69 L 559.26 701.69 Q 557.98 701.69 556.85 701.49 Q 555.72 701.29 554.67 700.88 L 554.67 700.88 Q 554.09 700.59 553.49 700.18 Q 552.88 699.78 552.30 699.31 L 552.30 699.31 Q 551.72 698.85 551.25 699.34 Q 550.79 699.84 550.56 701.29 L 550.56 701.29 L 549.22 701.29 Q 549.34 699.43 549.40 696.76 Q 549.45 694.09 549.45 689.69 L 549.45 689.69 L 550.79 689.69 Q 551.19 692.93 551.95 695.37 Q 552.70 697.81 554.33 699.17 Q 555.95 700.53 558.85 700.53 L 558.85 700.53 Q 560.01 700.53 561.20 700.01 Q 562.39 699.49 563.20 698.27 Q 564.01 697.05 564.01 695.02 L 564.01 695.02 Q 564.01 692.47 562.16 690.85 Q 560.30 689.22 557.46 687.42 L 557.46 687.42 Q 555.37 686.09 553.54 684.76 Q 551.72 683.42 550.59 681.74 Q 549.45 680.06 549.45 677.68 L 549.45 677.68 Q 549.45 675.07 550.64 673.42 Q 551.83 671.76 553.80 670.98 Q 555.78 670.20 558.04 670.20 M 602.52 670.20 L 602.52 670.20 Q 604.38 670.20 606.12 670.66 Q 607.86 671.13 609.25 672.05 L 609.25 672.05 Q 610.59 672.92 611.28 674.05 Q 611.98 675.19 611.98 676.52 L 611.98 676.52 Q 611.98 678.09 611.11 678.93 Q 610.24 679.77 608.90 679.77 L 608.90 679.77 Q 607.63 679.77 606.67 679.01 Q 605.71 678.26 605.71 676.87 L 605.71 676.87 Q 605.71 675.53 606.44 674.72 Q 607.16 673.91 608.15 673.68 L 608.15 673.68 Q 607.57 672.63 606.09 671.94 Q 604.61 671.24 602.93 671.24 L 602.93 671.24 Q 601.48 671.24 600.03 671.94 Q 598.58 672.63 597.36 674.23 Q 596.14 675.82 595.39 678.58 Q 594.64 681.33 594.64 685.45 L 594.64 685.45 Q 594.64 690.56 595.80 693.57 Q 596.96 696.59 598.84 697.89 Q 600.73 699.20 602.99 699.20 L 602.99 699.20 Q 604.50 699.20 606.06 698.62 Q 607.63 698.04 609.02 696.73 Q 610.41 695.43 611.40 693.22 L 611.40 693.22 L 612.50 693.63 Q 611.92 695.49 610.59 697.37 Q 609.25 699.26 607.11 700.47 Q 604.96 701.69 601.83 701.69 L 601.83 701.69 Q 598.23 701.69 595.33 699.84 Q 592.43 697.98 590.72 694.53 Q 589.01 691.08 589.01 686.32 L 589.01 686.32 Q 589.01 681.57 590.72 677.94 Q 592.43 674.32 595.51 672.26 Q 598.58 670.20 602.52 670.20 M 625.32 655.47 L 625.32 655.47 L 625.32 677.16 Q 626.83 673.21 629.52 671.71 Q 632.22 670.20 635.18 670.20 L 635.18 670.20 Q 637.38 670.20 638.86 670.78 Q 640.34 671.36 641.33 672.40 L 641.33 672.40 Q 642.43 673.56 642.89 675.30 Q 643.36 677.04 643.36 680.00 L 643.36 680.00 L 643.36 695.49 Q 643.36 697.92 644.37 698.79 Q 645.39 699.66 647.76 699.66 L 647.76 699.66 L 647.76 700.88 Q 646.78 700.82 644.75 700.74 Q 642.72 700.65 640.80 700.65 L 640.80 700.65 Q 638.89 700.65 637.06 700.74 Q 635.24 700.82 634.31 700.88 L 634.31 700.88 L 634.31 699.66 Q 636.40 699.66 637.27 698.79 Q 638.14 697.92 638.14 695.49 L 638.14 695.49 L 638.14 678.72 Q 638.14 676.93 637.85 675.42 Q 637.56 673.91 636.54 672.98 Q 635.53 672.05 633.44 672.05 L 633.44 672.05 Q 631.06 672.05 629.23 673.39 Q 627.41 674.72 626.36 677.10 Q 625.32 679.48 625.32 682.55 L 625.32 682.55 L 625.32 695.49 Q 625.32 697.92 626.19 698.79 Q 627.06 699.66 629.15 699.66 L 629.15 699.66 L 629.15 700.88 Q 628.22 700.82 626.39 700.74 Q 624.56 700.65 622.65 700.65 L 622.65 700.65 Q 620.74 700.65 618.71 700.74 Q 616.68 700.82 615.69 700.88 L 615.69 700.88 L 615.69 699.66 Q 618.07 699.66 619.08 698.79 Q 620.10 697.92 620.10 695.49 L 620.10 695.49 L 620.10 662.43 Q 620.10 659.82 619.17 658.57 Q 618.24 657.32 615.69 657.32 L 615.69 657.32 L 615.69 656.10 Q 617.55 656.28 619.29 656.28 L 619.29 656.28 Q 620.97 656.28 622.51 656.08 Q 624.04 655.87 625.32 655.47 M 664.41 670.20 L 664.41 670.20 Q 669.51 670.20 672.39 673.30 Q 675.26 676.40 675.26 682.96 L 675.26 682.96 L 654.78 682.96 L 654.72 681.86 L 669.69 681.86 Q 669.80 679.01 669.22 676.61 Q 668.64 674.20 667.40 672.75 Q 666.15 671.30 664.18 671.30 L 664.18 671.30 Q 661.51 671.30 659.45 673.97 Q 657.39 676.64 656.99 682.44 L 656.99 682.44 L 657.16 682.67 Q 657.04 683.54 656.99 684.58 Q 656.93 685.63 656.93 686.67 L 656.93 686.67 Q 656.93 690.61 658.20 693.46 Q 659.48 696.30 661.54 697.78 Q 663.60 699.26 665.80 699.26 L 665.80 699.26 Q 667.54 699.26 669.11 698.71 Q 670.67 698.15 672.01 696.88 Q 673.34 695.60 674.33 693.46 L 674.33 693.46 L 675.49 693.92 Q 674.85 695.83 673.40 697.63 Q 671.95 699.43 669.75 700.56 Q 667.54 701.69 664.64 701.69 L 664.64 701.69 Q 660.47 701.69 657.48 699.78 Q 654.49 697.86 652.90 694.47 Q 651.30 691.08 651.30 686.67 L 651.30 686.67 Q 651.30 681.57 652.93 677.88 Q 654.55 674.20 657.51 672.20 Q 660.47 670.20 664.41 670.20 M 687.90 701.29 L 687.90 701.29 Q 685.52 701.29 683.78 700.39 Q 682.04 699.49 681.14 697.86 Q 680.24 696.24 680.24 694.09 L 680.24 694.09 Q 680.24 691.54 681.43 689.92 Q 682.62 688.29 684.48 687.31 Q 686.33 686.32 688.39 685.65 Q 690.45 684.99 692.31 684.38 Q 694.16 683.77 695.35 682.96 Q 696.54 682.15 696.54 680.81 L 696.54 680.81 L 696.54 677.22 Q 696.54 674.78 695.82 673.50 Q 695.09 672.23 693.87 671.79 Q 692.66 671.36 691.15 671.36 L 691.15 671.36 Q 689.70 671.36 688.05 671.76 Q 686.39 672.17 685.41 673.45 L 685.41 673.45 Q 686.51 673.68 687.32 674.61 Q 688.13 675.53 688.13 676.98 L 688.13 676.98 Q 688.13 678.43 687.20 679.27 Q 686.28 680.12 684.83 680.12 L 684.83 680.12 Q 683.14 680.12 682.36 679.04 Q 681.58 677.97 681.58 676.64 L 681.58 676.64 Q 681.58 675.13 682.33 674.20 Q 683.09 673.27 684.25 672.46 L 684.25 672.46 Q 685.58 671.53 687.70 670.87 Q 689.81 670.20 692.48 670.20 L 692.48 670.20 Q 694.86 670.20 696.54 670.75 Q 698.22 671.30 699.33 672.34 L 699.33 672.34 Q 700.83 673.74 701.30 675.74 Q 701.76 677.74 701.76 680.52 L 701.76 680.52 L 701.76 696.65 Q 701.76 698.10 702.20 698.73 Q 702.63 699.37 703.56 699.37 L 703.56 699.37 Q 704.20 699.37 704.78 699.08 Q 705.36 698.79 706.17 698.15 L 706.17 698.15 L 706.81 699.14 Q 705.59 700.07 704.49 700.68 Q 703.39 701.29 701.53 701.29 L 701.53 701.29 Q 699.85 701.29 698.75 700.71 Q 697.64 700.13 697.09 699.00 Q 696.54 697.86 696.54 696.12 L 696.54 696.12 Q 694.98 698.73 692.80 700.01 Q 690.63 701.29 687.90 701.29 M 689.99 698.97 L 689.99 698.97 Q 691.90 698.97 693.56 697.86 Q 695.21 696.76 696.54 694.56 L 696.54 694.56 L 696.54 683.19 Q 695.85 684.18 694.51 684.84 Q 693.18 685.51 691.61 686.18 Q 690.05 686.84 688.63 687.74 Q 687.20 688.64 686.28 690.09 Q 685.35 691.54 685.35 693.86 L 685.35 693.86 Q 685.35 696.18 686.60 697.57 Q 687.84 698.97 689.99 698.97 M 717.77 670.37 L 717.77 670.37 L 717.77 705.98 Q 717.77 708.48 719.25 709.32 Q 720.73 710.16 723.34 710.16 L 723.34 710.16 L 723.34 711.38 Q 722.06 711.32 719.80 711.23 Q 717.54 711.15 714.99 711.15 L 714.99 711.15 Q 713.19 711.15 711.42 711.23 Q 709.65 711.32 708.72 711.38 L 708.72 711.38 L 708.72 710.16 Q 710.81 710.16 711.68 709.41 Q 712.55 708.65 712.55 706.56 L 712.55 706.56 L 712.55 677.33 Q 712.55 674.72 711.62 673.48 Q 710.69 672.23 708.14 672.23 L 708.14 672.23 L 708.14 671.01 Q 710.00 671.18 711.74 671.18 L 711.74 671.18 Q 713.42 671.18 714.96 670.98 Q 716.49 670.78 717.77 670.37 M 727.05 670.20 L 727.05 670.20 Q 730.12 670.20 732.56 671.85 Q 735.00 673.50 736.42 676.69 Q 737.84 679.88 737.84 684.58 L 737.84 684.58 Q 737.84 687.71 737.08 690.76 Q 736.33 693.80 734.74 696.27 Q 733.14 698.73 730.62 700.21 Q 728.09 701.69 724.56 701.69 L 724.56 701.69 Q 721.83 701.69 719.83 700.42 Q 717.83 699.14 717.13 697.34 L 717.13 697.34 L 717.71 696.53 Q 718.52 698.15 720.06 699.26 Q 721.60 700.36 723.92 700.36 L 723.92 700.36 Q 727.17 700.36 728.96 698.33 Q 730.76 696.30 731.49 692.90 Q 732.21 689.51 732.21 685.39 L 732.21 685.39 Q 732.21 680.75 731.46 677.80 Q 730.70 674.84 729.20 673.39 Q 727.69 671.94 725.48 671.94 L 725.48 671.94 Q 722.64 671.94 720.32 674.29 Q 718.00 676.64 717.36 681.39 L 717.36 681.39 L 716.67 680.58 Q 717.31 675.65 720.18 672.92 Q 723.05 670.20 727.05 670.20 M 756.34 670.20 L 756.34 670.20 Q 761.44 670.20 764.32 673.30 Q 767.19 676.40 767.19 682.96 L 767.19 682.96 L 746.71 682.96 L 746.65 681.86 L 761.62 681.86 Q 761.73 679.01 761.15 676.61 Q 760.57 674.20 759.33 672.75 Q 758.08 671.30 756.11 671.30 L 756.11 671.30 Q 753.44 671.30 751.38 673.97 Q 749.32 676.64 748.92 682.44 L 748.92 682.44 L 749.09 682.67 Q 748.97 683.54 748.92 684.58 Q 748.86 685.63 748.86 686.67 L 748.86 686.67 Q 748.86 690.61 750.13 693.46 Q 751.41 696.30 753.47 697.78 Q 755.53 699.26 757.73 699.26 L 757.73 699.26 Q 759.47 699.26 761.04 698.71 Q 762.60 698.15 763.94 696.88 Q 765.27 695.60 766.26 693.46 L 766.26 693.46 L 767.42 693.92 Q 766.78 695.83 765.33 697.63 Q 763.88 699.43 761.68 700.56 Q 759.47 701.69 756.57 701.69 L 756.57 701.69 Q 752.40 701.69 749.41 699.78 Q 746.42 697.86 744.83 694.47 Q 743.23 691.08 743.23 686.67 L 743.23 686.67 Q 743.23 681.57 744.86 677.88 Q 746.48 674.20 749.44 672.20 Q 752.40 670.20 756.34 670.20 M 789.63 670.20 L 789.63 670.20 Q 791.20 670.20 792.39 670.84 Q 793.58 671.47 794.24 672.49 Q 794.91 673.50 794.91 674.78 L 794.91 674.78 Q 794.91 676.23 794.01 677.33 Q 793.11 678.43 791.60 678.43 L 791.60 678.43 Q 790.39 678.43 789.46 677.65 Q 788.53 676.87 788.53 675.42 L 788.53 675.42 Q 788.53 674.32 789.14 673.53 Q 789.75 672.75 790.50 672.29 L 790.50 672.29 Q 790.10 671.71 789.28 671.71 L 789.28 671.71 Q 787.49 671.71 785.98 672.78 Q 784.47 673.85 783.43 675.53 Q 782.38 677.22 781.80 679.10 Q 781.22 680.99 781.22 682.61 L 781.22 682.61 L 781.22 694.91 Q 781.22 697.75 782.88 698.71 Q 784.53 699.66 787.37 699.66 L 787.37 699.66 L 787.37 700.88 Q 786.04 700.82 783.60 700.74 Q 781.16 700.65 778.44 700.65 L 778.44 700.65 Q 776.47 700.65 774.52 700.74 Q 772.58 700.82 771.59 700.88 L 771.59 700.88 L 771.59 699.66 Q 773.97 699.66 774.99 698.79 Q 776.00 697.92 776.00 695.49 L 776.00 695.49 L 776.00 677.33 Q 776.00 674.72 775.07 673.48 Q 774.15 672.23 771.59 672.23 L 771.59 672.23 L 771.59 671.01 Q 773.45 671.18 775.19 671.18 L 775.19 671.18 Q 776.87 671.18 778.41 670.98 Q 779.95 670.78 781.22 670.37 L 781.22 670.37 L 781.22 677.62 Q 781.86 675.94 783.05 674.23 Q 784.24 672.52 785.92 671.36 Q 787.60 670.20 789.63 670.20 M 825.94 670.20 L 825.94 670.20 Q 831.04 670.20 833.92 673.30 Q 836.79 676.40 836.79 682.96 L 836.79 682.96 L 816.31 682.96 L 816.25 681.86 L 831.22 681.86 Q 831.33 679.01 830.75 676.61 Q 830.17 674.20 828.93 672.75 Q 827.68 671.30 825.71 671.30 L 825.71 671.30 Q 823.04 671.30 820.98 673.97 Q 818.92 676.64 818.52 682.44 L 818.52 682.44 L 818.69 682.67 Q 818.57 683.54 818.52 684.58 Q 818.46 685.63 818.46 686.67 L 818.46 686.67 Q 818.46 690.61 819.73 693.46 Q 821.01 696.30 823.07 697.78 Q 825.13 699.26 827.33 699.26 L 827.33 699.26 Q 829.07 699.26 830.64 698.71 Q 832.20 698.15 833.54 696.88 Q 834.87 695.60 835.86 693.46 L 835.86 693.46 L 837.02 693.92 Q 836.38 695.83 834.93 697.63 Q 833.48 699.43 831.28 700.56 Q 829.07 701.69 826.17 701.69 L 826.17 701.69 Q 822.00 701.69 819.01 699.78 Q 816.02 697.86 814.43 694.47 Q 812.83 691.08 812.83 686.67 L 812.83 686.67 Q 812.83 681.57 814.46 677.88 Q 816.08 674.20 819.04 672.20 Q 822.00 670.20 825.94 670.20 M 867.70 671.01 L 867.70 671.01 L 867.70 672.17 Q 866.60 672.29 865.67 673.16 Q 864.74 674.03 863.93 676.23 L 863.93 676.23 L 854.42 701.17 Q 854.19 701.17 853.95 701.17 Q 853.72 701.17 853.43 701.17 L 853.43 701.17 L 842.76 675.48 Q 841.83 673.21 840.93 672.72 Q 840.03 672.23 839.40 672.23 L 839.40 672.23 L 839.40 671.01 Q 840.56 671.07 841.80 671.15 Q 843.05 671.24 844.50 671.24 L 844.50 671.24 Q 846.30 671.24 848.30 671.18 Q 850.30 671.13 852.04 671.01 L 852.04 671.01 L 852.04 672.23 Q 850.59 672.23 849.46 672.43 Q 848.33 672.63 848.01 673.56 Q 847.69 674.49 848.56 676.75 L 848.56 676.75 L 855.81 694.67 L 855.46 694.96 L 862.07 677.62 Q 862.83 675.71 862.68 674.58 Q 862.54 673.45 861.52 672.87 Q 860.51 672.29 858.42 672.17 L 858.42 672.17 L 858.42 671.01 Q 859.46 671.07 860.22 671.10 Q 860.97 671.13 861.70 671.15 Q 862.42 671.18 863.29 671.18 L 863.29 671.18 Q 864.63 671.18 865.70 671.13 Q 866.77 671.07 867.70 671.01 M 883.65 670.20 L 883.65 670.20 Q 888.75 670.20 891.63 673.30 Q 894.50 676.40 894.50 682.96 L 894.50 682.96 L 874.02 682.96 L 873.96 681.86 L 888.93 681.86 Q 889.04 679.01 888.46 676.61 Q 887.88 674.20 886.64 672.75 Q 885.39 671.30 883.42 671.30 L 883.42 671.30 Q 880.75 671.30 878.69 673.97 Q 876.63 676.64 876.23 682.44 L 876.23 682.44 L 876.40 682.67 Q 876.28 683.54 876.23 684.58 Q 876.17 685.63 876.17 686.67 L 876.17 686.67 Q 876.17 690.61 877.44 693.46 Q 878.72 696.30 880.78 697.78 Q 882.84 699.26 885.04 699.26 L 885.04 699.26 Q 886.78 699.26 888.35 698.71 Q 889.91 698.15 891.25 696.88 Q 892.58 695.60 893.57 693.46 L 893.57 693.46 L 894.73 693.92 Q 894.09 695.83 892.64 697.63 Q 891.19 699.43 888.99 700.56 Q 886.78 701.69 883.88 701.69 L 883.88 701.69 Q 879.71 701.69 876.72 699.78 Q 873.73 697.86 872.14 694.47 Q 870.54 691.08 870.54 686.67 L 870.54 686.67 Q 870.54 681.57 872.17 677.88 Q 873.79 674.20 876.75 672.20 Q 879.71 670.20 883.65 670.20 M 916.94 670.20 L 916.94 670.20 Q 918.51 670.20 919.70 670.84 Q 920.89 671.47 921.55 672.49 Q 922.22 673.50 922.22 674.78 L 922.22 674.78 Q 922.22 676.23 921.32 677.33 Q 920.42 678.43 918.91 678.43 L 918.91 678.43 Q 917.70 678.43 916.77 677.65 Q 915.84 676.87 915.84 675.42 L 915.84 675.42 Q 915.84 674.32 916.45 673.53 Q 917.06 672.75 917.81 672.29 L 917.81 672.29 Q 917.41 671.71 916.59 671.71 L 916.59 671.71 Q 914.80 671.71 913.29 672.78 Q 911.78 673.85 910.74 675.53 Q 909.69 677.22 909.11 679.10 Q 908.53 680.99 908.53 682.61 L 908.53 682.61 L 908.53 694.91 Q 908.53 697.75 910.19 698.71 Q 911.84 699.66 914.68 699.66 L 914.68 699.66 L 914.68 700.88 Q 913.35 700.82 910.91 700.74 Q 908.47 700.65 905.75 700.65 L 905.75 700.65 Q 903.78 700.65 901.83 700.74 Q 899.89 700.82 898.90 700.88 L 898.90 700.88 L 898.90 699.66 Q 901.28 699.66 902.30 698.79 Q 903.31 697.92 903.31 695.49 L 903.31 695.49 L 903.31 677.33 Q 903.31 674.72 902.38 673.48 Q 901.46 672.23 898.90 672.23 L 898.90 672.23 L 898.90 671.01 Q 900.76 671.18 902.50 671.18 L 902.50 671.18 Q 904.18 671.18 905.72 670.98 Q 907.26 670.78 908.53 670.37 L 908.53 670.37 L 908.53 677.62 Q 909.17 675.94 910.36 674.23 Q 911.55 672.52 913.23 671.36 Q 914.91 670.20 916.94 670.20 M 951.68 671.01 L 951.68 671.01 L 951.68 672.17 Q 950.58 672.29 949.65 673.16 Q 948.73 674.03 947.91 676.23 L 947.91 676.23 L 938.40 701.17 L 937.42 701.17 L 926.74 675.48 Q 925.64 673.21 924.57 672.72 Q 923.50 672.23 922.80 672.23 L 922.80 672.23 L 922.80 671.01 Q 924.08 671.18 925.47 671.27 Q 926.86 671.36 928.48 671.36 L 928.48 671.36 Q 930.28 671.36 932.28 671.24 Q 934.28 671.13 936.02 671.01 L 936.02 671.01 L 936.02 672.23 Q 934.57 672.23 933.44 672.43 Q 932.31 672.63 932.02 673.65 Q 931.73 674.66 932.72 677.10 L 932.72 677.10 L 939.85 694.79 L 939.50 694.91 L 946.12 677.62 Q 946.87 675.71 946.73 674.58 Q 946.58 673.45 945.54 672.87 Q 944.49 672.29 942.40 672.17 L 942.40 672.17 L 942.40 671.01 Q 943.45 671.07 944.20 671.10 Q 944.96 671.13 945.68 671.15 Q 946.41 671.18 947.28 671.18 L 947.28 671.18 Q 948.61 671.18 949.68 671.13 Q 950.76 671.07 951.68 671.01 M 937.30 700.71 L 938.40 701.17 L 936.43 706.22 Q 935.85 707.67 935.24 708.65 Q 934.63 709.64 933.94 710.28 L 933.94 710.28 Q 933.01 711.15 931.73 711.47 Q 930.46 711.78 929.41 711.78 L 929.41 711.78 Q 928.31 711.78 927.41 711.38 Q 926.51 710.97 925.99 710.19 Q 925.47 709.41 925.47 708.30 L 925.47 708.30 Q 925.47 706.91 926.28 706.07 Q 927.09 705.23 928.54 705.23 L 928.54 705.23 Q 929.76 705.23 930.63 705.93 Q 931.50 706.62 931.50 707.96 L 931.50 707.96 Q 931.50 708.94 931.04 709.58 Q 930.57 710.22 929.93 710.57 L 929.93 710.57 Q 930.05 710.62 930.14 710.62 Q 930.22 710.62 930.28 710.62 L 930.28 710.62 Q 931.85 710.62 933.07 709.55 Q 934.28 708.48 935.21 706.10 L 935.21 706.10 L 937.30 700.71" fill="#1c1917"/><path d="M 458.63 737.54 L 458.63 737.54 Q 458.39 739.74 458.31 741.80 Q 458.22 743.86 458.22 744.96 L 458.22 744.96 Q 458.22 746.35 458.28 747.57 Q 458.34 748.79 458.39 749.72 L 458.39 749.72 L 457.06 749.72 Q 456.65 745.66 455.96 743.31 Q 455.26 740.96 453.52 739.91 Q 451.78 738.87 448.13 738.87 L 448.13 738.87 L 445.00 738.87 L 445.00 771.87 Q 445.00 774.19 445.43 775.35 Q 445.87 776.51 447.14 776.92 Q 448.42 777.32 450.85 777.44 L 450.85 777.44 L 450.85 778.60 Q 449.35 778.48 447.03 778.45 Q 444.71 778.43 442.33 778.43 L 442.33 778.43 Q 439.72 778.43 437.43 778.45 Q 435.14 778.48 433.74 778.60 L 433.74 778.60 L 433.74 777.44 Q 436.18 777.32 437.46 776.92 Q 438.73 776.51 439.17 775.35 Q 439.60 774.19 439.60 771.87 L 439.60 771.87 L 439.60 738.87 L 436.47 738.87 Q 432.87 738.87 431.10 739.91 Q 429.34 740.96 428.64 743.31 Q 427.94 745.66 427.54 749.72 L 427.54 749.72 L 426.20 749.72 Q 426.32 748.79 426.35 747.57 Q 426.38 746.35 426.38 744.96 L 426.38 744.96 Q 426.38 743.86 426.29 741.80 Q 426.20 739.74 425.97 737.54 L 425.97 737.54 Q 428.41 737.59 431.28 737.65 Q 434.15 737.71 437.05 737.71 Q 439.95 737.71 442.33 737.71 L 442.33 737.71 Q 444.71 737.71 447.58 737.71 Q 450.45 737.71 453.35 737.65 Q 456.25 737.59 458.63 737.54 M 488.32 748.09 L 488.32 748.09 L 488.32 772.34 Q 488.32 774.95 489.28 776.19 Q 490.24 777.44 492.73 777.44 L 492.73 777.44 L 492.73 778.66 Q 490.93 778.48 489.13 778.48 L 489.13 778.48 Q 487.45 778.48 485.92 778.66 Q 484.38 778.83 483.10 779.30 L 483.10 779.30 L 483.10 772.45 Q 481.65 776.22 479.01 777.82 Q 476.37 779.41 473.59 779.41 L 473.59 779.41 Q 471.56 779.41 470.05 778.83 Q 468.54 778.25 467.56 777.21 L 467.56 777.21 Q 466.46 776.05 466.05 774.19 Q 465.64 772.34 465.64 769.61 L 465.64 769.61 L 465.64 755.05 Q 465.64 752.44 464.72 751.19 Q 463.79 749.95 461.24 749.95 L 461.24 749.95 L 461.24 748.73 Q 463.09 748.90 464.83 748.90 L 464.83 748.90 Q 466.51 748.90 468.05 748.70 Q 469.59 748.50 470.86 748.09 L 470.86 748.09 L 470.86 770.89 Q 470.86 772.68 471.10 774.19 Q 471.33 775.70 472.26 776.63 Q 473.18 777.56 475.27 777.56 L 475.27 777.56 Q 477.53 777.56 479.30 776.16 Q 481.07 774.77 482.09 772.39 Q 483.10 770.02 483.10 767.06 L 483.10 767.06 L 483.10 755.05 Q 483.10 752.44 482.17 751.19 Q 481.25 749.95 478.69 749.95 L 478.69 749.95 L 478.69 748.73 Q 480.55 748.90 482.29 748.90 L 482.29 748.90 Q 483.97 748.90 485.51 748.70 Q 487.05 748.50 488.32 748.09 M 509.78 747.92 L 509.78 747.92 Q 514.89 747.92 517.76 751.02 Q 520.63 754.12 520.63 760.68 L 520.63 760.68 L 500.15 760.68 L 500.10 759.58 L 515.06 759.58 Q 515.18 756.73 514.60 754.33 Q 514.02 751.92 512.77 750.47 Q 511.52 749.02 509.55 749.02 L 509.55 749.02 Q 506.88 749.02 504.82 751.69 Q 502.76 754.36 502.36 760.16 L 502.36 760.16 L 502.53 760.39 Q 502.42 761.26 502.36 762.30 Q 502.30 763.35 502.30 764.39 L 502.30 764.39 Q 502.30 768.33 503.58 771.18 Q 504.85 774.02 506.91 775.50 Q 508.97 776.98 511.17 776.98 L 511.17 776.98 Q 512.91 776.98 514.48 776.42 Q 516.05 775.87 517.38 774.60 Q 518.71 773.32 519.70 771.18 L 519.70 771.18 L 520.86 771.64 Q 520.22 773.55 518.77 775.35 Q 517.32 777.15 515.12 778.28 Q 512.91 779.41 510.01 779.41 L 510.01 779.41 Q 505.84 779.41 502.85 777.50 Q 499.86 775.58 498.27 772.19 Q 496.67 768.80 496.67 764.39 L 496.67 764.39 Q 496.67 759.29 498.30 755.60 Q 499.92 751.92 502.88 749.92 Q 505.84 747.92 509.78 747.92 M 535.42 747.92 L 535.42 747.92 Q 537.74 747.92 539.36 748.67 Q 540.99 749.43 541.74 750.06 L 541.74 750.06 Q 543.65 751.63 544.06 747.98 L 544.06 747.98 L 545.39 747.98 Q 545.28 749.60 545.22 751.83 Q 545.16 754.07 545.16 757.84 L 545.16 757.84 L 543.83 757.84 Q 543.48 755.69 542.64 753.66 Q 541.80 751.63 540.17 750.32 Q 538.55 749.02 535.94 749.02 L 535.94 749.02 Q 533.91 749.02 532.55 750.15 Q 531.18 751.28 531.18 753.49 L 531.18 753.49 Q 531.18 755.23 532.23 756.47 Q 533.27 757.72 534.95 758.79 Q 536.64 759.87 538.61 761.14 L 538.61 761.14 Q 540.81 762.53 542.61 763.98 Q 544.41 765.43 545.48 767.17 Q 546.55 768.91 546.55 771.29 L 546.55 771.29 Q 546.55 773.96 545.16 775.76 Q 543.77 777.56 541.54 778.48 Q 539.30 779.41 536.64 779.41 L 536.64 779.41 Q 535.36 779.41 534.23 779.21 Q 533.10 779.01 532.05 778.60 L 532.05 778.60 Q 531.47 778.31 530.86 777.90 Q 530.26 777.50 529.68 777.03 L 529.68 777.03 Q 529.10 776.57 528.63 777.06 Q 528.17 777.56 527.94 779.01 L 527.94 779.01 L 526.60 779.01 Q 526.72 777.15 526.78 774.48 Q 526.83 771.81 526.83 767.41 L 526.83 767.41 L 528.17 767.41 Q 528.57 770.65 529.33 773.09 Q 530.08 775.53 531.71 776.89 Q 533.33 778.25 536.23 778.25 L 536.23 778.25 Q 537.39 778.25 538.58 777.73 Q 539.77 777.21 540.58 775.99 Q 541.39 774.77 541.39 772.74 L 541.39 772.74 Q 541.39 770.19 539.54 768.57 Q 537.68 766.94 534.84 765.14 L 534.84 765.14 Q 532.75 763.81 530.92 762.48 Q 529.10 761.14 527.96 759.46 Q 526.83 757.78 526.83 755.40 L 526.83 755.40 Q 526.83 752.79 528.02 751.14 Q 529.21 749.48 531.18 748.70 Q 533.16 747.92 535.42 747.92 M 577.35 733.13 L 577.35 733.13 L 577.35 772.28 Q 577.35 774.89 578.31 776.13 Q 579.27 777.38 581.76 777.38 L 581.76 777.38 L 581.76 778.60 Q 579.96 778.43 578.16 778.43 L 578.16 778.43 Q 576.48 778.43 574.94 778.60 Q 573.41 778.77 572.13 779.24 L 572.13 779.24 L 572.13 740.09 Q 572.13 737.48 571.20 736.23 Q 570.28 734.98 567.72 734.98 L 567.72 734.98 L 567.72 733.77 Q 569.58 733.94 571.32 733.94 L 571.32 733.94 Q 573.00 733.94 574.54 733.74 Q 576.08 733.53 577.35 733.13 M 565.17 747.92 L 565.17 747.92 Q 567.72 747.92 569.96 749.14 Q 572.19 750.35 572.94 753.31 L 572.94 753.31 L 572.19 753.89 Q 571.38 751.46 569.67 750.35 Q 567.96 749.25 565.64 749.25 L 565.64 749.25 Q 562.21 749.25 559.92 752.79 Q 557.63 756.33 557.69 763.69 L 557.69 763.69 Q 557.69 768.39 558.59 771.49 Q 559.49 774.60 561.26 776.13 Q 563.03 777.67 565.58 777.67 L 565.58 777.67 Q 568.01 777.67 569.99 775.58 Q 571.96 773.50 572.36 769.44 L 572.36 769.44 L 573.06 770.25 Q 572.60 774.66 570.25 777.03 Q 567.90 779.41 563.90 779.41 L 563.90 779.41 Q 560.30 779.41 557.60 777.67 Q 554.91 775.93 553.49 772.45 Q 552.06 768.97 552.06 763.69 L 552.06 763.69 Q 552.06 758.42 553.89 754.91 Q 555.72 751.40 558.70 749.66 Q 561.69 747.92 565.17 747.92 M 592.90 779.01 L 592.90 779.01 Q 590.52 779.01 588.78 778.11 Q 587.04 777.21 586.14 775.58 Q 585.24 773.96 585.24 771.81 L 585.24 771.81 Q 585.24 769.26 586.43 767.64 Q 587.62 766.01 589.47 765.03 Q 591.33 764.04 593.39 763.37 Q 595.45 762.71 597.30 762.10 Q 599.16 761.49 600.35 760.68 Q 601.54 759.87 601.54 758.53 L 601.54 758.53 L 601.54 754.94 Q 601.54 752.50 600.81 751.22 Q 600.09 749.95 598.87 749.51 Q 597.65 749.08 596.14 749.08 L 596.14 749.08 Q 594.69 749.08 593.04 749.48 Q 591.39 749.89 590.40 751.17 L 590.40 751.17 Q 591.50 751.40 592.32 752.33 Q 593.13 753.25 593.13 754.70 L 593.13 754.70 Q 593.13 756.15 592.20 756.99 Q 591.27 757.84 589.82 757.84 L 589.82 757.84 Q 588.14 757.84 587.36 756.76 Q 586.57 755.69 586.57 754.36 L 586.57 754.36 Q 586.57 752.85 587.33 751.92 Q 588.08 750.99 589.24 750.18 L 589.24 750.18 Q 590.58 749.25 592.69 748.58 Q 594.81 747.92 597.48 747.92 L 597.48 747.92 Q 599.86 747.92 601.54 748.47 Q 603.22 749.02 604.32 750.06 L 604.32 750.06 Q 605.83 751.46 606.29 753.46 Q 606.76 755.46 606.76 758.24 L 606.76 758.24 L 606.76 774.37 Q 606.76 775.82 607.19 776.45 Q 607.63 777.09 608.56 777.09 L 608.56 777.09 Q 609.19 777.09 609.77 776.80 Q 610.35 776.51 611.17 775.87 L 611.17 775.87 L 611.80 776.86 Q 610.59 777.79 609.48 778.40 Q 608.38 779.01 606.53 779.01 L 606.53 779.01 Q 604.84 779.01 603.74 778.43 Q 602.64 777.85 602.09 776.71 Q 601.54 775.58 601.54 773.84 L 601.54 773.84 Q 599.97 776.45 597.80 777.73 Q 595.62 779.01 592.90 779.01 M 594.98 776.69 L 594.98 776.69 Q 596.90 776.69 598.55 775.58 Q 600.20 774.48 601.54 772.28 L 601.54 772.28 L 601.54 760.91 Q 600.84 761.90 599.51 762.56 Q 598.17 763.23 596.61 763.90 Q 595.04 764.56 593.62 765.46 Q 592.20 766.36 591.27 767.81 Q 590.34 769.26 590.34 771.58 L 590.34 771.58 Q 590.34 773.90 591.59 775.29 Q 592.84 776.69 594.98 776.69 M 640.51 748.73 L 640.51 748.73 L 640.51 749.89 Q 639.41 750.01 638.48 750.88 Q 637.56 751.75 636.74 753.95 L 636.74 753.95 L 627.23 778.89 L 626.25 778.89 L 615.57 753.20 Q 614.47 750.93 613.40 750.44 Q 612.33 749.95 611.63 749.95 L 611.63 749.95 L 611.63 748.73 Q 612.91 748.90 614.30 748.99 Q 615.69 749.08 617.31 749.08 L 617.31 749.08 Q 619.11 749.08 621.11 748.96 Q 623.11 748.85 624.85 748.73 L 624.85 748.73 L 624.85 749.95 Q 623.40 749.95 622.27 750.15 Q 621.14 750.35 620.85 751.37 Q 620.56 752.38 621.55 754.82 L 621.55 754.82 L 628.68 772.51 L 628.33 772.63 L 634.95 755.34 Q 635.70 753.43 635.55 752.30 Q 635.41 751.17 634.37 750.59 Q 633.32 750.01 631.23 749.89 L 631.23 749.89 L 631.23 748.73 Q 632.28 748.79 633.03 748.82 Q 633.79 748.85 634.51 748.87 Q 635.24 748.90 636.11 748.90 L 636.11 748.90 Q 637.44 748.90 638.51 748.85 Q 639.59 748.79 640.51 748.73 M 626.13 778.43 L 627.23 778.89 L 625.26 783.94 Q 624.68 785.39 624.07 786.37 Q 623.46 787.36 622.77 788.00 L 622.77 788.00 Q 621.84 788.87 620.56 789.18 Q 619.29 789.50 618.24 789.50 L 618.24 789.50 Q 617.14 789.50 616.24 789.10 Q 615.34 788.69 614.82 787.91 Q 614.30 787.13 614.30 786.02 L 614.30 786.02 Q 614.30 784.63 615.11 783.79 Q 615.92 782.95 617.37 782.95 L 617.37 782.95 Q 618.59 782.95 619.46 783.65 Q 620.33 784.34 620.33 785.68 L 620.33 785.68 Q 620.33 786.66 619.87 787.30 Q 619.40 787.94 618.76 788.29 L 618.76 788.29 Q 618.88 788.34 618.97 788.34 Q 619.05 788.34 619.11 788.34 L 619.11 788.34 Q 620.68 788.34 621.90 787.27 Q 623.11 786.20 624.04 783.82 L 624.04 783.82 L 626.13 778.43 M 648.40 771.99 L 648.40 771.99 Q 649.91 771.99 651.01 773.09 Q 652.11 774.19 652.11 775.70 L 652.11 775.70 Q 652.11 777.21 651.01 778.31 Q 649.91 779.41 648.40 779.41 L 648.40 779.41 Q 646.89 779.41 645.79 778.31 Q 644.69 777.21 644.69 775.70 L 644.69 775.70 Q 644.69 774.19 645.79 773.09 Q 646.89 771.99 648.40 771.99" fill="#1c1917"/>
    <text x="540" y="1120" text-anchor="middle" fill="#78716c" font-family="'Helvetica Neue', Arial, sans-serif" font-size="22" letter-spacing="5" style="text-transform:uppercase">From the Atelier Journal</text>
    <text x="540" y="1295" text-anchor="middle" fill="#D4B378" font-family="'Helvetica Neue', Arial, sans-serif" font-size="20" letter-spacing="7" style="text-transform:uppercase">Atelier</text>
  </svg>