<svg xmlns="http://www.w3.org/2000/svg" width="1080" height="1350" viewBox="0 0 1080 1350">
    <rect width="1080" height="1350" fill="#1c1917"/>
  <rect x="40" y="40" width="1000" height="1270" fill="none" stroke="#D4B378" stroke-width="1.5" opacity="0.5"/>
    <text x="540" y="210" text-anchor="middle" fill="#D4B378" font-family="'Helvetica Neue', Arial, sans-serif" font-size="27" letter-spacing="8" style="text-transform:uppercase">Your Style DNA</text>
    <circle cx="540.0" cy="325.0" r="30" fill="#E9D3A6"/><circle cx="627.5" cy="348.4" r="30" fill="#D4B378"/><circle cx="691.6" cy="412.5" r="30" fill="#A8884C"/><circle cx="715.0" cy="500.0" r="30" fill="#8C7040"/><circle cx="691.6" cy="587.5" r="30" fill="#78716c"/><circle cx="627.5" cy="651.6" r="30" fill="#44403c"/><circle cx="540.0" cy="675.0" r="30" fill="#b97a72"/><circle cx="452.5" cy="651.6" r="30" fill="#7d3a32"/><circle cx="388.4" cy="587.5" r="30" fill="#d6d3d1"/><circle cx="365.0" cy="500.0" r="30" fill="#a8a29e"/><circle cx="388.4" cy="412.5" r="30" fill="#F5EAD1"/><circle cx="452.5" cy="348.4" r="30" fill="#6E5833"/>
    <circle cx="540" cy="500" r="6" fill="#F7F5F2"/>
    <path d="M 216.10 800.35 L 216.10 800.35 L 216.10 801.47 Q 215.03 801.70 213.97 802.84 Q 212.90 803.99 211.62 806.46 L 211.62 806.46 L 200.30 828.86 L 199.35 828.86 L 186.25 804.66 Q 185.13 802.59 184.37 802.06 Q 183.62 801.53 183.00 801.53 L 183.00 801.53 L 183.00 800.35 Q 184.12 800.41 185.32 800.46 Q 186.53 800.52 187.93 800.52 L 187.93 800.52 Q 189.78 800.52 191.88 800.49 Q 193.98 800.46 195.77 800.35 L 195.77 800.35 L 195.77 801.53 Q 194.37 801.53 193.30 801.86 Q 192.24 802.20 191.90 803.10 Q 191.57 803.99 192.41 805.62 L 192.41 805.62 L 201.87 823.76 L 201.42 824.10 L 208.87 809.26 Q 210.44 806.18 210.41 804.50 Q 210.38 802.82 209.10 802.17 Q 207.81 801.53 205.46 801.47 L 205.46 801.47 L 205.46 800.35 Q 207.08 800.41 208.76 800.46 Q 210.44 800.52 211.90 800.52 L 211.90 800.52 Q 213.35 800.52 214.30 800.46 Q 215.26 800.41 216.10 800.35 M 200.64 826.06 L 202.82 822.98 L 202.82 834.06 Q 202.82 836.08 203.16 837.09 Q 203.50 838.10 204.48 838.43 Q 205.46 838.77 207.36 838.88 L 207.36 838.88 L 207.36 840.00 Q 206.07 839.89 204.14 839.86 Q 202.21 839.83 200.25 839.83 L 200.25 839.83 Q 198.06 839.83 196.16 839.86 Q 194.26 839.89 193.08 840.00 L 193.08 840.00 L 193.08 838.88 Q 194.98 838.77 195.96 838.43 Q 196.94 838.10 197.28 837.09 Q 197.62 836.08 197.62 834.06 L 197.62 834.06 L 197.62 822.58 L 200.64 826.06 M 231.61 810.38 L 231.61 810.38 Q 235.19 810.38 238.05 811.94 Q 240.90 813.51 242.61 816.87 Q 244.32 820.23 244.32 825.61 L 244.32 825.61 Q 244.32 830.98 242.61 834.32 Q 240.90 837.65 238.05 839.22 Q 235.19 840.78 231.61 840.78 L 231.61 840.78 Q 228.08 840.78 225.20 839.22 Q 222.31 837.65 220.60 834.32 Q 218.90 830.98 218.90 825.61 L 218.90 825.61 Q 218.90 820.23 220.60 816.87 Q 222.31 813.51 225.20 811.94 Q 228.08 810.38 231.61 810.38 M 231.61 811.50 L 231.61 811.50 Q 228.42 811.50 226.37 814.80 Q 224.33 818.10 224.33 825.61 L 224.33 825.61 Q 224.33 833.11 226.37 836.39 Q 228.42 839.66 231.61 839.66 L 231.61 839.66 Q 234.80 839.66 236.84 836.39 Q 238.89 833.11 238.89 825.61 L 238.89 825.61 Q 238.89 818.10 236.84 814.80 Q 234.80 811.50 231.61 811.50 M 274.00 810.54 L 274.00 810.54 L 274.00 833.95 Q 274.00 836.47 274.92 837.68 Q 275.85 838.88 278.26 838.88 L 278.26 838.88 L 278.26 840.06 Q 276.52 839.89 274.78 839.89 L 274.78 839.89 Q 273.16 839.89 271.68 840.06 Q 270.19 840.22 268.96 840.67 L 268.96 840.67 L 268.96 834.06 Q 267.56 837.70 265.01 839.24 Q 262.46 840.78 259.78 840.78 L 259.78 840.78 Q 257.82 840.78 256.36 840.22 Q 254.90 839.66 253.95 838.66 L 253.95 838.66 Q 252.89 837.54 252.50 835.74 Q 252.10 833.95 252.10 831.32 L 252.10 831.32 L 252.10 817.26 Q 252.10 814.74 251.21 813.54 Q 250.31 812.34 247.85 812.34 L 247.85 812.34 L 247.85 811.16 Q 249.64 811.33 251.32 811.33 L 251.32 811.33 Q 252.94 811.33 254.43 811.13 Q 255.91 810.94 257.14 810.54 L 257.14 810.54 L 257.14 832.55 Q 257.14 834.29 257.37 835.74 Q 257.59 837.20 258.49 838.10 Q 259.38 838.99 261.40 838.99 L 261.40 838.99 Q 263.58 838.99 265.29 837.65 Q 267.00 836.30 267.98 834.01 Q 268.96 831.71 268.96 828.86 L 268.96 828.86 L 268.96 817.26 Q 268.96 814.74 268.06 813.54 Q 267.17 812.34 264.70 812.34 L 264.70 812.34 L 264.70 811.16 Q 266.50 811.33 268.18 811.33 L 268.18 811.33 Q 269.80 811.33 271.28 811.13 Q 272.77 810.94 274.00 810.54 M 298.53 810.38 L 298.53 810.38 Q 300.04 810.38 301.19 810.99 Q 302.34 811.61 302.98 812.59 Q 303.62 813.57 303.62 814.80 L 303.62 814.80 Q 303.62 816.20 302.76 817.26 Q 301.89 818.33 300.43 818.33 L 300.43 818.33 Q 299.26 818.33 298.36 817.57 Q 297.46 816.82 297.46 815.42 L 297.46 815.42 Q 297.46 814.35 298.05 813.60 Q 298.64 812.84 299.37 812.39 L 299.37 812.39 Q 298.98 811.83 298.19 811.83 L 298.19 811.83 Q 296.46 811.83 295.00 812.87 Q 293.54 813.90 292.54 815.53 Q 291.53 817.15 290.97 818.97 Q 290.41 820.79 290.41 822.36 L 290.41 822.36 L 290.41 834.23 Q 290.41 836.98 292.00 837.90 Q 293.60 838.82 296.34 838.82 L 296.34 838.82 L 296.34 840.00 Q 295.06 839.94 292.70 839.86 Q 290.35 839.78 287.72 839.78 L 287.72 839.78 Q 285.82 839.78 283.94 839.86 Q 282.06 839.94 281.11 840.00 L 281.11 840.00 L 281.11 838.82 Q 283.41 838.82 284.39 837.98 Q 285.37 837.14 285.37 834.79 L 285.37 834.79 L 285.37 817.26 Q 285.37 814.74 284.47 813.54 Q 283.58 812.34 281.11 812.34 L 281.11 812.34 L 281.11 811.16 Q 282.90 811.33 284.58 811.33 L 284.58 811.33 Q 286.21 811.33 287.69 811.13 Q 289.18 810.94 290.41 810.54 L 290.41 810.54 L 290.41 817.54 Q 291.02 815.92 292.17 814.27 Q 293.32 812.62 294.94 811.50 Q 296.57 810.38 298.53 810.38 M 328.99 801.86 L 328.99 801.86 L 328.99 811.22 L 337.28 811.22 L 337.28 812.34 L 328.99 812.34 L 328.99 834.01 Q 328.99 836.64 329.94 837.70 Q 330.90 838.77 332.58 838.77 L 332.58 838.77 Q 334.26 838.77 335.49 837.40 Q 336.72 836.02 337.62 832.78 L 337.62 832.78 L 338.74 833.06 Q 338.18 836.30 336.52 838.54 Q 334.87 840.78 331.46 840.78 L 331.46 840.78 Q 329.55 840.78 328.32 840.31 Q 327.09 839.83 326.14 838.94 L 326.14 838.94 Q 324.90 837.65 324.43 835.86 Q 323.95 834.06 323.95 831.10 L 323.95 831.10 L 323.95 812.34 L 318.58 812.34 L 318.58 811.22 L 323.95 811.22 L 323.95 802.65 Q 325.35 802.59 326.64 802.42 Q 327.93 802.26 328.99 801.86 M 347.75 840.39 L 347.75 840.39 Q 345.46 840.39 343.78 839.52 Q 342.10 838.66 341.23 837.09 Q 340.36 835.52 340.36 833.45 L 340.36 833.45 Q 340.36 830.98 341.51 829.42 Q 342.66 827.85 344.45 826.90 Q 346.24 825.94 348.23 825.30 Q 350.22 824.66 352.01 824.07 Q 353.80 823.48 354.95 822.70 Q 356.10 821.91 356.10 820.62 L 356.10 820.62 L 356.10 817.15 Q 356.10 814.80 355.40 813.57 Q 354.70 812.34 353.52 811.92 Q 352.34 811.50 350.89 811.50 L 350.89 811.50 Q 349.49 811.50 347.89 811.89 Q 346.30 812.28 345.34 813.51 L 345.34 813.51 Q 346.41 813.74 347.19 814.63 Q 347.98 815.53 347.98 816.93 L 347.98 816.93 Q 347.98 818.33 347.08 819.14 Q 346.18 819.95 344.78 819.95 L 344.78 819.95 Q 343.16 819.95 342.40 818.92 Q 341.65 817.88 341.65 816.59 L 341.65 816.59 Q 341.65 815.14 342.38 814.24 Q 343.10 813.34 344.22 812.56 L 344.22 812.56 Q 345.51 811.66 347.56 811.02 Q 349.60 810.38 352.18 810.38 L 352.18 810.38 Q 354.47 810.38 356.10 810.91 Q 357.72 811.44 358.78 812.45 L 358.78 812.45 Q 360.24 813.79 360.69 815.72 Q 361.14 817.66 361.14 820.34 L 361.14 820.34 L 361.14 835.91 Q 361.14 837.31 361.56 837.93 Q 361.98 838.54 362.87 838.54 L 362.87 838.54 Q 363.49 838.54 364.05 838.26 Q 364.61 837.98 365.39 837.37 L 365.39 837.37 L 366.01 838.32 Q 364.83 839.22 363.77 839.80 Q 362.70 840.39 360.91 840.39 L 360.91 840.39 Q 359.29 840.39 358.22 839.83 Q 357.16 839.27 356.63 838.18 Q 356.10 837.09 356.10 835.41 L 356.10 835.41 Q 354.58 837.93 352.48 839.16 Q 350.38 840.39 347.75 840.39 M 349.77 838.15 L 349.77 838.15 Q 351.62 838.15 353.21 837.09 Q 354.81 836.02 356.10 833.90 L 356.10 833.90 L 356.10 822.92 Q 355.42 823.87 354.14 824.52 Q 352.85 825.16 351.34 825.80 Q 349.82 826.45 348.45 827.32 Q 347.08 828.18 346.18 829.58 Q 345.29 830.98 345.29 833.22 L 345.29 833.22 Q 345.29 835.46 346.49 836.81 Q 347.70 838.15 349.77 838.15 M 377.71 810.38 L 377.71 810.38 Q 379.95 810.38 381.52 811.10 Q 383.09 811.83 383.82 812.45 L 383.82 812.45 Q 385.66 813.96 386.06 810.43 L 386.06 810.43 L 387.34 810.43 Q 387.23 812.00 387.18 814.16 Q 387.12 816.31 387.12 819.95 L 387.12 819.95 L 385.83 819.95 Q 385.50 817.88 384.68 815.92 Q 383.87 813.96 382.30 812.70 Q 380.74 811.44 378.22 811.44 L 378.22 811.44 Q 376.26 811.44 374.94 812.53 Q 373.62 813.62 373.62 815.75 L 373.62 815.75 Q 373.62 817.43 374.63 818.64 Q 375.64 819.84 377.26 820.88 Q 378.89 821.91 380.79 823.14 L 380.79 823.14 Q 382.92 824.49 384.66 825.89 Q 386.39 827.29 387.43 828.97 Q 388.46 830.65 388.46 832.94 L 388.46 832.94 Q 388.46 835.52 387.12 837.26 Q 385.78 838.99 383.62 839.89 Q 381.46 840.78 378.89 840.78 L 378.89 840.78 Q 377.66 840.78 376.56 840.59 Q 375.47 840.39 374.46 840.00 L 374.46 840.00 Q 373.90 839.72 373.32 839.33 Q 372.73 838.94 372.17 838.49 L 372.17 838.49 Q 371.61 838.04 371.16 838.52 Q 370.71 838.99 370.49 840.39 L 370.49 840.39 L 369.20 840.39 Q 369.31 838.60 369.37 836.02 Q 369.42 833.45 369.42 829.19 L 369.42 829.19 L 370.71 829.19 Q 371.10 832.33 371.83 834.68 Q 372.56 837.03 374.13 838.35 Q 375.70 839.66 378.50 839.66 L 378.50 839.66 Q 379.62 839.66 380.76 839.16 Q 381.91 838.66 382.70 837.48 Q 383.48 836.30 383.48 834.34 L 383.48 834.34 Q 383.48 831.88 381.69 830.31 Q 379.90 828.74 377.15 827.01 L 377.15 827.01 Q 375.14 825.72 373.37 824.43 Q 371.61 823.14 370.52 821.52 Q 369.42 819.90 369.42 817.60 L 369.42 817.60 Q 369.42 815.08 370.57 813.48 Q 371.72 811.89 373.62 811.13 Q 375.53 810.38 377.71 810.38 M 401.74 801.86 L 401.74 801.86 L 401.74 811.22 L 410.02 811.22 L 410.02 812.34 L 401.74 812.34 L 401.74 834.01 Q 401.74 836.64 402.69 837.70 Q 403.64 838.77 405.32 838.77 L 405.32 838.77 Q 407.00 838.77 408.23 837.40 Q 409.46 836.02 410.36 832.78 L 410.36 832.78 L 411.48 833.06 Q 410.92 836.30 409.27 838.54 Q 407.62 840.78 404.20 840.78 L 404.20 840.78 Q 402.30 840.78 401.06 840.31 Q 399.83 839.83 398.88 838.94 L 398.88 838.94 Q 397.65 837.65 397.17 835.86 Q 396.70 834.06 396.70 831.10 L 396.70 831.10 L 396.70 812.34 L 391.32 812.34 L 391.32 811.22 L 396.70 811.22 L 396.70 802.65 Q 398.10 802.59 399.38 802.42 Q 400.67 802.26 401.74 801.86 M 426.15 810.38 L 426.15 810.38 Q 431.08 810.38 433.85 813.37 Q 436.62 816.37 436.62 822.70 L 436.62 822.70 L 416.86 822.70 L 416.80 821.63 L 431.25 821.63 Q 431.36 818.89 430.80 816.56 Q 430.24 814.24 429.04 812.84 Q 427.83 811.44 425.93 811.44 L 425.93 811.44 Q 423.35 811.44 421.36 814.02 Q 419.38 816.59 418.98 822.19 L 418.98 822.19 L 419.15 822.42 Q 419.04 823.26 418.98 824.26 Q 418.93 825.27 418.93 826.28 L 418.93 826.28 Q 418.93 830.09 420.16 832.83 Q 421.39 835.58 423.38 837.00 Q 425.37 838.43 427.50 838.43 L 427.50 838.43 Q 429.18 838.43 430.69 837.90 Q 432.20 837.37 433.49 836.14 Q 434.78 834.90 435.73 832.83 L 435.73 832.83 L 436.85 833.28 Q 436.23 835.13 434.83 836.86 Q 433.43 838.60 431.30 839.69 Q 429.18 840.78 426.38 840.78 L 426.38 840.78 Q 422.34 840.78 419.46 838.94 Q 416.58 837.09 415.04 833.81 Q 413.50 830.54 413.50 826.28 L 413.50 826.28 Q 413.50 821.35 415.06 817.80 Q 416.63 814.24 419.49 812.31 Q 422.34 810.38 426.15 810.38 M 446.31 833.62 L 446.31 833.62 Q 447.54 833.62 448.33 834.12 Q 449.11 834.62 449.62 835.41 L 449.62 835.41 Q 450.23 836.30 450.40 837.37 Q 450.57 838.43 450.57 839.10 L 450.57 839.10 Q 450.57 841.85 449.17 844.09 Q 447.77 846.33 444.80 847.73 L 444.80 847.73 L 444.30 846.72 Q 446.03 845.99 447.29 844.42 Q 448.55 842.86 448.55 841.23 L 448.55 841.23 Q 448.55 840.56 448.38 840.06 L 448.38 840.06 Q 447.49 840.78 446.31 840.78 L 446.31 840.78 Q 444.86 840.78 443.79 839.83 Q 442.73 838.88 442.73 837.20 L 442.73 837.20 Q 442.73 835.63 443.79 834.62 Q 444.86 833.62 446.31 833.62 M 486.86 810.38 L 486.86 810.38 Q 488.37 810.38 489.52 810.99 Q 490.66 811.61 491.31 812.59 Q 491.95 813.57 491.95 814.80 L 491.95 814.80 Q 491.95 816.20 491.08 817.26 Q 490.22 818.33 488.76 818.33 L 488.76 818.33 Q 487.58 818.33 486.69 817.57 Q 485.79 816.82 485.79 815.42 L 485.79 815.42 Q 485.79 814.35 486.38 813.60 Q 486.97 812.84 487.70 812.39 L 487.70 812.39 Q 487.30 811.83 486.52 811.83 L 486.52 811.83 Q 484.78 811.83 483.33 812.87 Q 481.87 813.90 480.86 815.53 Q 479.86 817.15 479.30 818.97 Q 478.74 820.79 478.74 822.36 L 478.74 822.36 L 478.74 834.23 Q 478.74 836.98 480.33 837.90 Q 481.93 838.82 484.67 838.82 L 484.67 838.82 L 484.67 840.00 Q 483.38 839.94 481.03 839.86 Q 478.68 839.78 476.05 839.78 L 476.05 839.78 Q 474.14 839.78 472.27 839.86 Q 470.39 839.94 469.44 840.00 L 469.44 840.00 L 469.44 838.82 Q 471.74 838.82 472.72 837.98 Q 473.70 837.14 473.70 834.79 L 473.70 834.79 L 473.70 817.26 Q 473.70 814.74 472.80 813.54 Q 471.90 812.34 469.44 812.34 L 469.44 812.34 L 469.44 811.16 Q 471.23 811.33 472.91 811.33 L 472.91 811.33 Q 474.54 811.33 476.02 811.13 Q 477.50 810.94 478.74 810.54 L 478.74 810.54 L 478.74 817.54 Q 479.35 815.92 480.50 814.27 Q 481.65 812.62 483.27 811.50 Q 484.90 810.38 486.86 810.38 M 507.97 810.38 L 507.97 810.38 Q 512.90 810.38 515.67 813.37 Q 518.44 816.37 518.44 822.70 L 518.44 822.70 L 498.67 822.70 L 498.62 821.63 L 513.06 821.63 Q 513.18 818.89 512.62 816.56 Q 512.06 814.24 510.85 812.84 Q 509.65 811.44 507.74 811.44 L 507.74 811.44 Q 505.17 811.44 503.18 814.02 Q 501.19 816.59 500.80 822.19 L 500.80 822.19 L 500.97 822.42 Q 500.86 823.26 500.80 824.26 Q 500.74 825.27 500.74 826.28 L 500.74 826.28 Q 500.74 830.09 501.98 832.83 Q 503.21 835.58 505.20 837.00 Q 507.18 838.43 509.31 838.43 L 509.31 838.43 Q 510.99 838.43 512.50 837.90 Q 514.02 837.37 515.30 836.14 Q 516.59 834.90 517.54 832.83 L 517.54 832.83 L 518.66 833.28 Q 518.05 835.13 516.65 836.86 Q 515.25 838.60 513.12 839.69 Q 510.99 840.78 508.19 840.78 L 508.19 840.78 Q 504.16 840.78 501.28 838.94 Q 498.39 837.09 496.85 833.81 Q 495.31 830.54 495.31 826.28 L 495.31 826.28 Q 495.31 821.35 496.88 817.80 Q 498.45 814.24 501.30 812.31 Q 504.16 810.38 507.97 810.38 M 530.65 840.39 L 530.65 840.39 Q 528.35 840.39 526.67 839.52 Q 524.99 838.66 524.12 837.09 Q 523.26 835.52 523.26 833.45 L 523.26 833.45 Q 523.26 830.98 524.40 829.42 Q 525.55 827.85 527.34 826.90 Q 529.14 825.94 531.12 825.30 Q 533.11 824.66 534.90 824.07 Q 536.70 823.48 537.84 822.70 Q 538.99 821.91 538.99 820.62 L 538.99 820.62 L 538.99 817.15 Q 538.99 814.80 538.29 813.57 Q 537.59 812.34 536.42 811.92 Q 535.24 811.50 533.78 811.50 L 533.78 811.50 Q 532.38 811.50 530.79 811.89 Q 529.19 812.28 528.24 813.51 L 528.24 813.51 Q 529.30 813.74 530.09 814.63 Q 530.87 815.53 530.87 816.93 L 530.87 816.93 Q 530.87 818.33 529.98 819.14 Q 529.08 819.95 527.68 819.95 L 527.68 819.95 Q 526.06 819.95 525.30 818.92 Q 524.54 817.88 524.54 816.59 L 524.54 816.59 Q 524.54 815.14 525.27 814.24 Q 526.00 813.34 527.12 812.56 L 527.12 812.56 Q 528.41 811.66 530.45 811.02 Q 532.50 810.38 535.07 810.38 L 535.07 810.38 Q 537.37 810.38 538.99 810.91 Q 540.62 811.44 541.68 812.45 L 541.68 812.45 Q 543.14 813.79 543.58 815.72 Q 544.03 817.66 544.03 820.34 L 544.03 820.34 L 544.03 835.91 Q 544.03 837.31 544.45 837.93 Q 544.87 838.54 545.77 838.54 L 545.77 838.54 Q 546.38 838.54 546.94 838.26 Q 547.50 837.98 548.29 837.37 L 548.29 837.37 L 548.90 838.32 Q 547.73 839.22 546.66 839.80 Q 545.60 840.39 543.81 840.39 L 543.81 840.39 Q 542.18 840.39 541.12 839.83 Q 540.06 839.27 539.52 838.18 Q 538.99 837.09 538.99 835.41 L 538.99 835.41 Q 537.48 837.93 535.38 839.16 Q 533.28 840.39 530.65 840.39 M 532.66 838.15 L 532.66 838.15 Q 534.51 838.15 536.11 837.09 Q 537.70 836.02 538.99 833.90 L 538.99 833.90 L 538.99 822.92 Q 538.32 823.87 537.03 824.52 Q 535.74 825.16 534.23 825.80 Q 532.72 826.45 531.35 827.32 Q 529.98 828.18 529.08 829.58 Q 528.18 830.98 528.18 833.22 L 528.18 833.22 Q 528.18 835.46 529.39 836.81 Q 530.59 838.15 532.66 838.15 M 576.06 796.10 L 576.06 796.10 L 576.06 833.90 Q 576.06 836.42 576.99 837.62 Q 577.91 838.82 580.32 838.82 L 580.32 838.82 L 580.32 840.00 Q 578.58 839.83 576.85 839.83 L 576.85 839.83 Q 575.22 839.83 573.74 840.00 Q 572.26 840.17 571.02 840.62 L 571.02 840.62 L 571.02 802.82 Q 571.02 800.30 570.13 799.09 Q 569.23 797.89 566.77 797.89 L 566.77 797.89 L 566.77 796.71 Q 568.56 796.88 570.24 796.88 L 570.24 796.88 Q 571.86 796.88 573.35 796.68 Q 574.83 796.49 576.06 796.10 M 564.30 810.38 L 564.30 810.38 Q 566.77 810.38 568.92 811.55 Q 571.08 812.73 571.81 815.58 L 571.81 815.58 L 571.08 816.14 Q 570.30 813.79 568.64 812.73 Q 566.99 811.66 564.75 811.66 L 564.75 811.66 Q 561.45 811.66 559.24 815.08 Q 557.02 818.50 557.08 825.61 L 557.08 825.61 Q 557.08 830.14 557.95 833.14 Q 558.82 836.14 560.52 837.62 Q 562.23 839.10 564.70 839.10 L 564.70 839.10 Q 567.05 839.10 568.95 837.09 Q 570.86 835.07 571.25 831.15 L 571.25 831.15 L 571.92 831.94 Q 571.47 836.19 569.20 838.49 Q 566.94 840.78 563.07 840.78 L 563.07 840.78 Q 559.60 840.78 557.00 839.10 Q 554.39 837.42 553.02 834.06 Q 551.65 830.70 551.65 825.61 L 551.65 825.61 Q 551.65 820.51 553.41 817.12 Q 555.18 813.74 558.06 812.06 Q 560.94 810.38 564.30 810.38 M 613.70 810.38 L 613.70 810.38 Q 618.29 810.38 621.31 814.16 Q 624.34 817.94 624.34 825.61 L 624.34 825.61 Q 624.34 830.65 622.63 834.04 Q 620.92 837.42 618.06 839.10 Q 615.21 840.78 611.85 840.78 L 611.85 840.78 Q 609.05 840.78 606.44 839.19 Q 603.84 837.59 602.55 834.46 L 602.55 834.46 L 603.67 835.07 Q 605.07 837.31 607.14 838.40 Q 609.22 839.50 611.40 839.50 L 611.40 839.50 Q 615.15 839.50 617.03 836.11 Q 618.90 832.72 618.90 825.61 L 618.90 825.61 Q 618.90 821.07 618.18 818.05 Q 617.45 815.02 615.94 813.54 Q 614.42 812.06 612.07 812.06 L 612.07 812.06 Q 609.50 812.06 607.28 814.38 Q 605.07 816.70 604.57 821.18 L 604.57 821.18 L 603.90 820.40 Q 604.51 815.64 607.23 813.01 Q 609.94 810.38 613.70 810.38 M 604.96 796.15 L 604.96 796.15 L 604.96 837.09 Q 604.23 837.70 603.48 838.35 Q 602.72 838.99 601.99 839.61 Q 601.26 840.22 600.48 840.90 L 600.48 840.90 L 599.53 840.50 Q 599.75 839.72 599.84 838.91 Q 599.92 838.10 599.92 837.26 L 599.92 837.26 L 599.92 802.87 Q 599.92 800.35 599.02 799.15 Q 598.13 797.94 595.66 797.94 L 595.66 797.94 L 595.66 796.77 Q 597.46 796.94 599.14 796.94 L 599.14 796.94 Q 600.76 796.94 602.24 796.74 Q 603.73 796.54 604.96 796.15 M 636.54 840.39 L 636.54 840.39 Q 634.25 840.39 632.57 839.52 Q 630.89 838.66 630.02 837.09 Q 629.15 835.52 629.15 833.45 L 629.15 833.45 Q 629.15 830.98 630.30 829.42 Q 631.45 827.85 633.24 826.90 Q 635.03 825.94 637.02 825.30 Q 639.01 824.66 640.80 824.07 Q 642.59 823.48 643.74 822.70 Q 644.89 821.91 644.89 820.62 L 644.89 820.62 L 644.89 817.15 Q 644.89 814.80 644.19 813.57 Q 643.49 812.34 642.31 811.92 Q 641.14 811.50 639.68 811.50 L 639.68 811.50 Q 638.28 811.50 636.68 811.89 Q 635.09 812.28 634.14 813.51 L 634.14 813.51 Q 635.20 813.74 635.98 814.63 Q 636.77 815.53 636.77 816.93 L 636.77 816.93 Q 636.77 818.33 635.87 819.14 Q 634.98 819.95 633.58 819.95 L 633.58 819.95 Q 631.95 819.95 631.20 818.92 Q 630.44 817.88 630.44 816.59 L 630.44 816.59 Q 630.44 815.14 631.17 814.24 Q 631.90 813.34 633.02 812.56 L 633.02 812.56 Q 634.30 811.66 636.35 811.02 Q 638.39 810.38 640.97 810.38 L 640.97 810.38 Q 643.26 810.38 644.89 810.91 Q 646.51 811.44 647.58 812.45 L 647.58 812.45 Q 649.03 813.79 649.48 815.72 Q 649.93 817.66 649.93 820.34 L 649.93 820.34 L 649.93 835.91 Q 649.93 837.31 650.35 837.93 Q 650.77 838.54 651.66 838.54 L 651.66 838.54 Q 652.28 838.54 652.84 838.26 Q 653.40 837.98 654.18 837.37 L 654.18 837.37 L 654.80 838.32 Q 653.62 839.22 652.56 839.80 Q 651.50 840.39 649.70 840.39 L 649.70 840.39 Q 648.08 840.39 647.02 839.83 Q 645.95 839.27 645.42 838.18 Q 644.89 837.09 644.89 835.41 L 644.89 835.41 Q 643.38 837.93 641.28 839.16 Q 639.18 840.39 636.54 840.39 M 638.56 838.15 L 638.56 838.15 Q 640.41 838.15 642.00 837.09 Q 643.60 836.02 644.89 833.90 L 644.89 833.90 L 644.89 822.92 Q 644.22 823.87 642.93 824.52 Q 641.64 825.16 640.13 825.80 Q 638.62 826.45 637.24 827.32 Q 635.87 828.18 634.98 829.58 Q 634.08 830.98 634.08 833.22 L 634.08 833.22 Q 634.08 835.46 635.28 836.81 Q 636.49 838.15 638.56 838.15 M 670.48 810.38 L 670.48 810.38 Q 672.27 810.38 673.95 810.82 Q 675.63 811.27 676.98 812.17 L 676.98 812.17 Q 678.26 813.01 678.94 814.10 Q 679.61 815.19 679.61 816.48 L 679.61 816.48 Q 679.61 817.99 678.77 818.80 Q 677.93 819.62 676.64 819.62 L 676.64 819.62 Q 675.41 819.62 674.48 818.89 Q 673.56 818.16 673.56 816.82 L 673.56 816.82 Q 673.56 815.53 674.26 814.74 Q 674.96 813.96 675.91 813.74 L 675.91 813.74 Q 675.35 812.73 673.92 812.06 Q 672.50 811.38 670.87 811.38 L 670.87 811.38 Q 669.47 811.38 668.07 812.06 Q 666.67 812.73 665.50 814.27 Q 664.32 815.81 663.59 818.47 Q 662.86 821.13 662.86 825.10 L 662.86 825.10 Q 662.86 830.03 663.98 832.94 Q 665.10 835.86 666.92 837.12 Q 668.74 838.38 670.93 838.38 L 670.93 838.38 Q 672.38 838.38 673.90 837.82 Q 675.41 837.26 676.75 836.00 Q 678.10 834.74 679.05 832.61 L 679.05 832.61 L 680.11 833.00 Q 679.55 834.79 678.26 836.61 Q 676.98 838.43 674.90 839.61 Q 672.83 840.78 669.81 840.78 L 669.81 840.78 Q 666.34 840.78 663.54 838.99 Q 660.74 837.20 659.08 833.87 Q 657.43 830.54 657.43 825.94 L 657.43 825.94 Q 657.43 821.35 659.08 817.85 Q 660.74 814.35 663.70 812.36 Q 666.67 810.38 670.48 810.38 M 692.49 796.10 L 692.49 796.10 L 692.49 834.79 Q 692.49 837.14 693.33 837.98 Q 694.17 838.82 696.18 838.82 L 696.18 838.82 L 696.18 840.00 Q 695.29 839.94 693.52 839.86 Q 691.76 839.78 689.97 839.78 L 689.97 839.78 Q 688.06 839.78 686.10 839.86 Q 684.14 839.94 683.19 840.00 L 683.19 840.00 L 683.19 838.82 Q 685.49 838.82 686.47 837.98 Q 687.45 837.14 687.45 834.79 L 687.45 834.79 L 687.45 802.82 Q 687.45 800.30 686.55 799.09 Q 685.66 797.89 683.19 797.89 L 683.19 797.89 L 683.19 796.71 Q 684.98 796.88 686.66 796.88 L 686.66 796.88 Q 688.29 796.88 689.77 796.68 Q 691.26 796.49 692.49 796.10 M 710.30 811.16 L 710.30 811.16 L 710.30 812.28 Q 708.90 812.39 707.66 813.04 Q 706.43 813.68 705.26 814.91 L 705.26 814.91 L 697.36 823.20 L 698.14 821.63 L 708.56 835.91 Q 709.51 837.20 710.38 837.93 Q 711.25 838.66 712.48 838.82 L 712.48 838.82 L 712.48 840.00 Q 711.86 839.94 710.55 839.86 Q 709.23 839.78 707.94 839.78 L 707.94 839.78 Q 706.21 839.78 704.42 839.86 Q 702.62 839.94 701.73 840.00 L 701.73 840.00 L 701.73 838.82 Q 702.85 838.82 703.30 838.26 Q 703.74 837.70 703.13 836.92 L 703.13 836.92 L 696.69 827.51 Q 695.62 826.00 694.76 825.55 Q 693.89 825.10 692.26 825.05 L 692.26 825.05 L 692.26 823.93 Q 694.06 823.70 695.18 823.17 Q 696.30 822.64 697.30 821.58 L 697.30 821.58 L 701.45 817.26 Q 703.24 815.42 703.24 814.32 Q 703.24 813.23 702.09 812.76 Q 700.94 812.28 699.10 812.28 L 699.10 812.28 L 699.10 811.16 Q 700.55 811.22 702.37 811.30 Q 704.19 811.38 705.42 811.38 L 705.42 811.38 Q 706.38 811.38 707.27 811.36 Q 708.17 811.33 708.95 811.27 Q 709.74 811.22 710.30 811.16 M 737.46 801.86 L 737.46 801.86 L 737.46 811.22 L 745.74 811.22 L 745.74 812.34 L 737.46 812.34 L 737.46 834.01 Q 737.46 836.64 738.41 837.70 Q 739.36 838.77 741.04 838.77 L 741.04 838.77 Q 742.72 838.77 743.95 837.40 Q 745.18 836.02 746.08 832.78 L 746.08 832.78 L 747.20 833.06 Q 746.64 836.30 744.99 838.54 Q 743.34 840.78 739.92 840.78 L 739.92 840.78 Q 738.02 840.78 736.78 840.31 Q 735.55 839.83 734.60 838.94 L 734.60 838.94 Q 733.37 837.65 732.89 835.86 Q 732.42 834.06 732.42 831.10 L 732.42 831.10 L 732.42 812.34 L 727.04 812.34 L 727.04 811.22 L 732.42 811.22 L 732.42 802.65 Q 733.82 802.59 735.10 802.42 Q 736.39 802.26 737.46 801.86 M 761.98 810.38 L 761.98 810.38 Q 765.57 810.38 768.42 811.94 Q 771.28 813.51 772.99 816.87 Q 774.70 820.23 774.70 825.61 L 774.70 825.61 Q 774.70 830.98 772.99 834.32 Q 771.28 837.65 768.42 839.22 Q 765.57 840.78 761.98 840.78 L 761.98 840.78 Q 758.46 840.78 755.57 839.22 Q 752.69 837.65 750.98 834.32 Q 749.27 830.98 749.27 825.61 L 749.27 825.61 Q 749.27 820.23 750.98 816.87 Q 752.69 813.51 755.57 811.94 Q 758.46 810.38 761.98 810.38 M 761.98 811.50 L 761.98 811.50 Q 758.79 811.50 756.75 814.80 Q 754.70 818.10 754.70 825.61 L 754.70 825.61 Q 754.70 833.11 756.75 836.39 Q 758.79 839.66 761.98 839.66 L 761.98 839.66 Q 765.18 839.66 767.22 836.39 Q 769.26 833.11 769.26 825.61 L 769.26 825.61 Q 769.26 818.10 767.22 814.80 Q 765.18 811.50 761.98 811.50 M 818.94 811.16 L 818.94 811.16 L 818.94 812.28 Q 817.87 812.39 816.98 813.23 Q 816.08 814.07 815.30 816.20 L 815.30 816.20 L 806.11 840.28 L 805.16 840.28 L 794.86 815.47 Q 793.79 813.29 792.76 812.81 Q 791.72 812.34 791.05 812.34 L 791.05 812.34 L 791.05 811.16 Q 792.28 811.33 793.62 811.41 Q 794.97 811.50 796.54 811.50 L 796.54 811.50 Q 798.27 811.50 800.20 811.38 Q 802.14 811.27 803.82 811.16 L 803.82 811.16 L 803.82 812.34 Q 802.42 812.34 801.32 812.53 Q 800.23 812.73 799.95 813.71 Q 799.67 814.69 800.62 817.04 L 800.62 817.04 L 807.51 834.12 L 807.18 834.23 L 813.56 817.54 Q 814.29 815.70 814.15 814.60 Q 814.01 813.51 813.00 812.95 Q 811.99 812.39 809.98 812.28 L 809.98 812.28 L 809.98 811.16 Q 810.98 811.22 811.71 811.24 Q 812.44 811.27 813.14 811.30 Q 813.84 811.33 814.68 811.33 L 814.68 811.33 Q 815.97 811.33 817.00 811.27 Q 818.04 811.22 818.94 811.16 M 805.05 839.83 L 806.11 840.28 L 804.21 845.15 Q 803.65 846.55 803.06 847.50 Q 802.47 848.46 801.80 849.07 L 801.80 849.07 Q 800.90 849.91 799.67 850.22 Q 798.44 850.53 797.43 850.53 L 797.43 850.53 Q 796.37 850.53 795.50 850.14 Q 794.63 849.74 794.13 848.99 Q 793.62 848.23 793.62 847.17 L 793.62 847.17 Q 793.62 845.82 794.41 845.01 Q 795.19 844.20 796.59 844.20 L 796.59 844.20 Q 797.77 844.20 798.61 844.87 Q 799.45 845.54 799.45 846.83 L 799.45 846.83 Q 799.45 847.78 799.00 848.40 Q 798.55 849.02 797.94 849.35 L 797.94 849.35 Q 798.05 849.41 798.13 849.41 Q 798.22 849.41 798.27 849.41 L 798.27 849.41 Q 799.78 849.41 800.96 848.37 Q 802.14 847.34 803.03 845.04 L 803.03 845.04 L 805.05 839.83 M 834.84 810.38 L 834.84 810.38 Q 838.42 810.38 841.28 811.94 Q 844.14 813.51 845.84 816.87 Q 847.55 820.23 847.55 825.61 L 847.55 825.61 Q 847.55 830.98 845.84 834.32 Q 844.14 837.65 841.28 839.22 Q 838.42 840.78 834.84 840.78 L 834.84 840.78 Q 831.31 840.78 828.43 839.22 Q 825.54 837.65 823.84 834.32 Q 822.13 830.98 822.13 825.61 L 822.13 825.61 Q 822.13 820.23 823.84 816.87 Q 825.54 813.51 828.43 811.94 Q 831.31 810.38 834.84 810.38 M 834.84 811.50 L 834.84 811.50 Q 831.65 811.50 829.60 814.80 Q 827.56 818.10 827.56 825.61 L 827.56 825.61 Q 827.56 833.11 829.60 836.39 Q 831.65 839.66 834.84 839.66 L 834.84 839.66 Q 838.03 839.66 840.08 836.39 Q 842.12 833.11 842.12 825.61 L 842.12 825.61 Q 842.12 818.10 840.08 814.80 Q 838.03 811.50 834.84 811.50 M 877.23 810.54 L 877.23 810.54 L 877.23 833.95 Q 877.23 836.47 878.16 837.68 Q 879.08 838.88 881.49 838.88 L 881.49 838.88 L 881.49 840.06 Q 879.75 839.89 878.02 839.89 L 878.02 839.89 Q 876.39 839.89 874.91 840.06 Q 873.42 840.22 872.19 840.67 L 872.19 840.67 L 872.19 834.06 Q 870.79 837.70 868.24 839.24 Q 865.70 840.78 863.01 840.78 L 863.01 840.78 Q 861.05 840.78 859.59 840.22 Q 858.14 839.66 857.18 838.66 L 857.18 838.66 Q 856.12 837.54 855.73 835.74 Q 855.34 833.95 855.34 831.32 L 855.34 831.32 L 855.34 817.26 Q 855.34 814.74 854.44 813.54 Q 853.54 812.34 851.08 812.34 L 851.08 812.34 L 851.08 811.16 Q 852.87 811.33 854.55 811.33 L 854.55 811.33 Q 856.18 811.33 857.66 811.13 Q 859.14 810.94 860.38 810.54 L 860.38 810.54 L 860.38 832.55 Q 860.38 834.29 860.60 835.74 Q 860.82 837.20 861.72 838.10 Q 862.62 838.99 864.63 838.99 L 864.63 838.99 Q 866.82 838.99 868.52 837.65 Q 870.23 836.30 871.21 834.01 Q 872.19 831.71 872.19 828.86 L 872.19 828.86 L 872.19 817.26 Q 872.19 814.74 871.30 813.54 Q 870.40 812.34 867.94 812.34 L 867.94 812.34 L 867.94 811.16 Q 869.73 811.33 871.41 811.33 L 871.41 811.33 Q 873.03 811.33 874.52 811.13 Q 876.00 810.94 877.23 810.54 M 889.78 833.62 L 889.78 833.62 Q 891.23 833.62 892.30 834.68 Q 893.36 835.74 893.36 837.20 L 893.36 837.20 Q 893.36 838.66 892.30 839.72 Q 891.23 840.78 889.78 840.78 L 889.78 840.78 Q 888.32 840.78 887.26 839.72 Q 886.19 838.66 886.19 837.20 L 886.19 837.20 Q 886.19 835.74 887.26 834.68 Q 888.32 833.62 889.78 833.62" fill="#F7F5F2"/>
    <text x="540" y="930" text-anchor="middle" fill="#D4B378" font-family="'Helvetica Neue', Arial, sans-serif" font-size="27" letter-spacing="4">A colour portrait of everything you own</text>
    <text x="540" y="1295" text-anchor="middle" fill="#D4B378" font-family="'Helvetica Neue', Arial, sans-serif" font-size="20" letter-spacing="7" style="text-transform:uppercase">Atelier</text>
  </svg>