<svg xmlns="http://www.w3.org/2000/svg" width="1080" height="1350" viewBox="0 0 1080 1350">
    <rect width="1080" height="1350" fill="#F7F5F2"/>
  <rect x="40" y="40" width="1000" height="1270" fill="none" stroke="#D4B378" stroke-width="1.5" opacity="0.5"/>
    <text x="540" y="210" text-anchor="middle" fill="#D4B378" font-family="'Helvetica Neue', Arial, sans-serif" font-size="27" letter-spacing="8" style="text-transform:uppercase">On Self-Knowledge</text>
    <line x1="500" y1="270" x2="580" y2="270" stroke="#D4B378" stroke-width="1.4" opacity="0.85"/>
    <path d="M 157.00 581.81 L 157.00 581.81 L 171.15 618.29 Q 172.02 620.49 173.12 621.22 Q 174.22 621.94 175.15 622.00 L 175.15 622.00 L 175.15 623.16 Q 173.99 623.04 172.31 623.01 Q 170.63 622.99 168.94 622.99 L 168.94 622.99 Q 166.68 622.99 164.71 623.01 Q 162.74 623.04 161.52 623.16 L 161.52 623.16 L 161.52 622.00 Q 164.48 621.88 165.29 620.99 Q 166.10 620.09 164.94 617.13 L 164.94 617.13 L 154.15 588.30 L 155.08 587.55 L 144.99 613.76 Q 144.06 616.08 143.89 617.68 Q 143.71 619.27 144.21 620.20 Q 144.70 621.13 145.89 621.54 Q 147.08 621.94 148.88 622.00 L 148.88 622.00 L 148.88 623.16 Q 147.25 623.04 145.48 623.01 Q 143.71 622.99 142.21 622.99 L 142.21 622.99 Q 140.76 622.99 139.74 623.01 Q 138.73 623.04 137.86 623.16 L 137.86 623.16 L 137.86 622.00 Q 139.02 621.71 140.23 620.64 Q 141.45 619.56 142.44 616.95 L 142.44 616.95 L 156.07 581.81 Q 156.30 581.81 156.53 581.81 Q 156.76 581.81 157.00 581.81 M 147.37 606.46 L 164.07 606.46 L 164.07 607.62 L 146.79 607.62 L 147.37 606.46 M 201.89 593.29 L 201.89 593.29 L 201.89 594.51 Q 200.44 594.51 199.34 594.71 Q 198.23 594.91 197.89 595.90 Q 197.54 596.89 198.41 599.38 L 198.41 599.38 L 204.44 616.66 L 204.03 616.61 L 212.56 593.06 L 213.72 593.52 L 203.11 623.45 Q 202.87 623.45 202.64 623.45 Q 202.41 623.45 202.12 623.45 L 202.12 623.45 L 192.61 597.76 Q 191.68 595.44 190.78 594.97 Q 189.88 594.51 189.24 594.51 L 189.24 594.51 L 189.24 593.29 Q 190.40 593.46 191.65 593.55 Q 192.90 593.64 194.35 593.64 L 194.35 593.64 Q 196.15 593.64 198.15 593.52 Q 200.15 593.41 201.89 593.29 M 233.73 593.29 L 233.73 593.29 L 233.73 594.45 Q 232.63 594.57 231.67 595.41 Q 230.71 596.25 229.96 598.51 L 229.96 598.51 L 221.55 623.45 Q 221.32 623.45 221.09 623.45 Q 220.85 623.45 220.56 623.45 L 220.56 623.45 L 211.23 599.73 L 212.56 593.06 Q 212.91 593.06 213.23 593.06 Q 213.55 593.06 213.89 593.06 L 213.89 593.06 L 222.94 617.01 L 222.48 617.36 L 228.22 599.90 Q 228.86 597.93 228.71 596.80 Q 228.57 595.67 227.55 595.12 Q 226.54 594.57 224.45 594.45 L 224.45 594.45 L 224.45 593.29 Q 225.49 593.35 226.25 593.38 Q 227.00 593.41 227.73 593.43 Q 228.45 593.46 229.32 593.46 L 229.32 593.46 Q 230.66 593.46 231.73 593.41 Q 232.80 593.35 233.73 593.29 M 243.82 623.57 L 243.82 623.57 Q 241.44 623.57 239.70 622.67 Q 237.96 621.77 237.07 620.14 Q 236.17 618.52 236.17 616.37 L 236.17 616.37 Q 236.17 613.82 237.36 612.20 Q 238.54 610.57 240.40 609.59 Q 242.26 608.60 244.32 607.93 Q 246.37 607.27 248.23 606.66 Q 250.09 606.05 251.28 605.24 Q 252.46 604.43 252.46 603.09 L 252.46 603.09 L 252.46 599.50 Q 252.46 597.06 251.74 595.78 Q 251.01 594.51 249.80 594.07 Q 248.58 593.64 247.07 593.64 L 247.07 593.64 Q 245.62 593.64 243.97 594.04 Q 242.31 594.45 241.33 595.73 L 241.33 595.73 Q 242.43 595.96 243.24 596.89 Q 244.05 597.81 244.05 599.26 L 244.05 599.26 Q 244.05 600.71 243.13 601.55 Q 242.20 602.40 240.75 602.40 L 240.75 602.40 Q 239.07 602.40 238.28 601.32 Q 237.50 600.25 237.50 598.92 L 237.50 598.92 Q 237.50 597.41 238.25 596.48 Q 239.01 595.55 240.17 594.74 L 240.17 594.74 Q 241.50 593.81 243.62 593.14 Q 245.74 592.48 248.40 592.48 L 248.40 592.48 Q 250.78 592.48 252.46 593.03 Q 254.15 593.58 255.25 594.62 L 255.25 594.62 Q 256.76 596.02 257.22 598.02 Q 257.68 600.02 257.68 602.80 L 257.68 602.80 L 257.68 618.93 Q 257.68 620.38 258.12 621.01 Q 258.55 621.65 259.48 621.65 L 259.48 621.65 Q 260.12 621.65 260.70 621.36 Q 261.28 621.07 262.09 620.43 L 262.09 620.43 L 262.73 621.42 Q 261.51 622.35 260.41 622.96 Q 259.31 623.57 257.45 623.57 L 257.45 623.57 Q 255.77 623.57 254.67 622.99 Q 253.57 622.41 253.02 621.27 Q 252.46 620.14 252.46 618.40 L 252.46 618.40 Q 250.90 621.01 248.72 622.29 Q 246.55 623.57 243.82 623.57 M 245.91 621.25 L 245.91 621.25 Q 247.82 621.25 249.48 620.14 Q 251.13 619.04 252.46 616.84 L 252.46 616.84 L 252.46 605.47 Q 251.77 606.46 250.43 607.12 Q 249.10 607.79 247.53 608.46 Q 245.97 609.12 244.55 610.02 Q 243.13 610.92 242.20 612.37 Q 241.27 613.82 241.27 616.14 L 241.27 616.14 Q 241.27 618.46 242.52 619.85 Q 243.76 621.25 245.91 621.25 M 282.51 592.48 L 282.51 592.48 Q 284.07 592.48 285.26 593.12 Q 286.45 593.75 287.12 594.77 Q 287.79 595.78 287.79 597.06 L 287.79 597.06 Q 287.79 598.51 286.89 599.61 Q 285.99 600.71 284.48 600.71 L 284.48 600.71 Q 283.26 600.71 282.33 599.93 Q 281.41 599.15 281.41 597.70 L 281.41 597.70 Q 281.41 596.60 282.02 595.81 Q 282.62 595.03 283.38 594.57 L 283.38 594.57 Q 282.97 593.99 282.16 593.99 L 282.16 593.99 Q 280.36 593.99 278.85 595.06 Q 277.35 596.13 276.30 597.81 Q 275.26 599.50 274.68 601.38 Q 274.10 603.27 274.10 604.89 L 274.10 604.89 L 274.10 617.19 Q 274.10 620.03 275.75 620.99 Q 277.40 621.94 280.25 621.94 L 280.25 621.94 L 280.25 623.16 Q 278.91 623.10 276.48 623.01 Q 274.04 622.93 271.31 622.93 L 271.31 622.93 Q 269.34 622.93 267.40 623.01 Q 265.46 623.10 264.47 623.16 L 264.47 623.16 L 264.47 621.94 Q 266.85 621.94 267.86 621.07 Q 268.88 620.20 268.88 617.77 L 268.88 617.77 L 268.88 599.61 Q 268.88 597.00 267.95 595.75 Q 267.02 594.51 264.47 594.51 L 264.47 594.51 L 264.47 593.29 Q 266.33 593.46 268.07 593.46 L 268.07 593.46 Q 269.75 593.46 271.29 593.26 Q 272.82 593.06 274.10 592.65 L 274.10 592.65 L 274.10 599.90 Q 274.74 598.22 275.93 596.51 Q 277.11 594.80 278.80 593.64 Q 280.48 592.48 282.51 592.48 M 316.67 577.69 L 316.67 577.69 L 316.67 616.84 Q 316.67 619.45 317.63 620.69 Q 318.58 621.94 321.08 621.94 L 321.08 621.94 L 321.08 623.16 Q 319.28 622.99 317.48 622.99 L 317.48 622.99 Q 315.80 622.99 314.26 623.16 Q 312.73 623.33 311.45 623.80 L 311.45 623.80 L 311.45 584.65 Q 311.45 582.04 310.52 580.79 Q 309.59 579.54 307.04 579.54 L 307.04 579.54 L 307.04 578.33 Q 308.90 578.50 310.64 578.50 L 310.64 578.50 Q 312.32 578.50 313.86 578.30 Q 315.39 578.09 316.67 577.69 M 304.49 592.48 L 304.49 592.48 Q 307.04 592.48 309.28 593.70 Q 311.51 594.91 312.26 597.87 L 312.26 597.87 L 311.51 598.45 Q 310.70 596.02 308.99 594.91 Q 307.27 593.81 304.95 593.81 L 304.95 593.81 Q 301.53 593.81 299.24 597.35 Q 296.95 600.89 297.01 608.25 L 297.01 608.25 Q 297.01 612.95 297.91 616.05 Q 298.81 619.16 300.58 620.69 Q 302.34 622.23 304.90 622.23 L 304.90 622.23 Q 307.33 622.23 309.30 620.14 Q 311.28 618.06 311.68 614.00 L 311.68 614.00 L 312.38 614.81 Q 311.91 619.22 309.57 621.59 Q 307.22 623.97 303.21 623.97 L 303.21 623.97 Q 299.62 623.97 296.92 622.23 Q 294.22 620.49 292.80 617.01 Q 291.38 613.53 291.38 608.25 L 291.38 608.25 Q 291.38 602.98 293.21 599.47 Q 295.04 595.96 298.02 594.22 Q 301.01 592.48 304.49 592.48 M 342.02 592.48 L 342.02 592.48 Q 343.58 592.48 344.77 593.12 Q 345.96 593.75 346.63 594.77 Q 347.29 595.78 347.29 597.06 L 347.29 597.06 Q 347.29 598.51 346.40 599.61 Q 345.50 600.71 343.99 600.71 L 343.99 600.71 Q 342.77 600.71 341.84 599.93 Q 340.91 599.15 340.91 597.70 L 340.91 597.70 Q 340.91 596.60 341.52 595.81 Q 342.13 595.03 342.89 594.57 L 342.89 594.57 Q 342.48 593.99 341.67 593.99 L 341.67 593.99 Q 339.87 593.99 338.36 595.06 Q 336.85 596.13 335.81 597.81 Q 334.77 599.50 334.19 601.38 Q 333.61 603.27 333.61 604.89 L 333.61 604.89 L 333.61 617.19 Q 333.61 620.03 335.26 620.99 Q 336.91 621.94 339.75 621.94 L 339.75 621.94 L 339.75 623.16 Q 338.42 623.10 335.98 623.01 Q 333.55 622.93 330.82 622.93 L 330.82 622.93 Q 328.85 622.93 326.91 623.01 Q 324.96 623.10 323.98 623.16 L 323.98 623.16 L 323.98 621.94 Q 326.36 621.94 327.37 621.07 Q 328.39 620.20 328.39 617.77 L 328.39 617.77 L 328.39 599.61 Q 328.39 597.00 327.46 595.75 Q 326.53 594.51 323.98 594.51 L 323.98 594.51 L 323.98 593.29 Q 325.83 593.46 327.57 593.46 L 327.57 593.46 Q 329.26 593.46 330.79 593.26 Q 332.33 593.06 333.61 592.65 L 333.61 592.65 L 333.61 599.90 Q 334.24 598.22 335.43 596.51 Q 336.62 594.80 338.30 593.64 Q 339.99 592.48 342.02 592.48 M 364.00 592.48 L 364.00 592.48 Q 367.71 592.48 370.67 594.10 Q 373.63 595.73 375.40 599.21 Q 377.16 602.69 377.16 608.25 L 377.16 608.25 Q 377.16 613.82 375.40 617.27 Q 373.63 620.72 370.67 622.35 Q 367.71 623.97 364.00 623.97 L 364.00 623.97 Q 360.34 623.97 357.36 622.35 Q 354.37 620.72 352.60 617.27 Q 350.83 613.82 350.83 608.25 L 350.83 608.25 Q 350.83 602.69 352.60 599.21 Q 354.37 595.73 357.36 594.10 Q 360.34 592.48 364.00 592.48 M 364.00 593.64 L 364.00 593.64 Q 360.69 593.64 358.58 597.06 Q 356.46 600.48 356.46 608.25 L 356.46 608.25 Q 356.46 616.03 358.58 619.42 Q 360.69 622.81 364.00 622.81 L 364.00 622.81 Q 367.30 622.81 369.42 619.42 Q 371.54 616.03 371.54 608.25 L 371.54 608.25 Q 371.54 600.48 369.42 597.06 Q 367.30 593.64 364.00 593.64 M 398.80 592.48 L 398.80 592.48 Q 403.55 592.48 406.69 596.39 Q 409.82 600.31 409.82 608.25 L 409.82 608.25 Q 409.82 613.47 408.05 616.98 Q 406.28 620.49 403.32 622.23 Q 400.36 623.97 396.88 623.97 L 396.88 623.97 Q 393.98 623.97 391.29 622.32 Q 388.59 620.67 387.26 617.42 L 387.26 617.42 L 388.42 618.06 Q 389.87 620.38 392.01 621.51 Q 394.16 622.64 396.42 622.64 L 396.42 622.64 Q 400.31 622.64 402.25 619.13 Q 404.19 615.62 404.19 608.25 L 404.19 608.25 Q 404.19 603.56 403.44 600.42 Q 402.68 597.29 401.12 595.75 Q 399.55 594.22 397.12 594.22 L 397.12 594.22 Q 394.45 594.22 392.16 596.63 Q 389.87 599.03 389.34 603.67 L 389.34 603.67 L 388.65 602.86 Q 389.29 597.93 392.10 595.20 Q 394.91 592.48 398.80 592.48 M 389.75 577.75 L 389.75 577.75 L 389.75 620.14 Q 389.00 620.78 388.21 621.45 Q 387.43 622.12 386.68 622.75 Q 385.92 623.39 385.11 624.09 L 385.11 624.09 L 384.12 623.68 Q 384.36 622.87 384.44 622.03 Q 384.53 621.19 384.53 620.32 L 384.53 620.32 L 384.53 584.71 Q 384.53 582.10 383.60 580.85 Q 382.67 579.60 380.12 579.60 L 380.12 579.60 L 380.12 578.38 Q 381.98 578.56 383.72 578.56 L 383.72 578.56 Q 385.40 578.56 386.94 578.36 Q 388.47 578.15 389.75 577.75 M 428.32 592.48 L 428.32 592.48 Q 433.42 592.48 436.30 595.58 Q 439.17 598.68 439.17 605.24 L 439.17 605.24 L 418.69 605.24 L 418.63 604.14 L 433.60 604.14 Q 433.71 601.29 433.13 598.89 Q 432.55 596.48 431.31 595.03 Q 430.06 593.58 428.09 593.58 L 428.09 593.58 Q 425.42 593.58 423.36 596.25 Q 421.30 598.92 420.90 604.72 L 420.90 604.72 L 421.07 604.95 Q 420.95 605.82 420.90 606.86 Q 420.84 607.91 420.84 608.95 L 420.84 608.95 Q 420.84 612.89 422.11 615.74 Q 423.39 618.58 425.45 620.06 Q 427.51 621.54 429.71 621.54 L 429.71 621.54 Q 431.45 621.54 433.02 620.99 Q 434.58 620.43 435.92 619.16 Q 437.25 617.88 438.24 615.74 L 438.24 615.74 L 439.40 616.20 Q 438.76 618.11 437.31 619.91 Q 435.86 621.71 433.66 622.84 Q 431.45 623.97 428.55 623.97 L 428.55 623.97 Q 424.38 623.97 421.39 622.06 Q 418.40 620.14 416.81 616.75 Q 415.21 613.36 415.21 608.95 L 415.21 608.95 Q 415.21 603.85 416.84 600.16 Q 418.46 596.48 421.42 594.48 Q 424.38 592.48 428.32 592.48 M 464.63 578.79 L 464.63 578.79 Q 466.14 578.79 467.24 579.89 Q 468.34 580.99 468.34 582.50 L 468.34 582.50 Q 468.34 584.01 467.24 585.11 Q 466.14 586.21 464.63 586.21 L 464.63 586.21 Q 463.12 586.21 462.02 585.11 Q 460.92 584.01 460.92 582.50 L 460.92 582.50 Q 460.92 580.99 462.02 579.89 Q 463.12 578.79 464.63 578.79 M 467.64 592.65 L 467.64 592.65 L 467.64 617.77 Q 467.64 620.20 468.66 621.07 Q 469.67 621.94 472.05 621.94 L 472.05 621.94 L 472.05 623.16 Q 471.07 623.10 469.07 623.01 Q 467.06 622.93 465.03 622.93 L 465.03 622.93 Q 463.06 622.93 461.03 623.01 Q 459.00 623.10 458.02 623.16 L 458.02 623.16 L 458.02 621.94 Q 460.39 621.94 461.41 621.07 Q 462.42 620.20 462.42 617.77 L 462.42 617.77 L 462.42 599.61 Q 462.42 597.00 461.50 595.75 Q 460.57 594.51 458.02 594.51 L 458.02 594.51 L 458.02 593.29 Q 459.87 593.46 461.61 593.46 L 461.61 593.46 Q 463.29 593.46 464.83 593.26 Q 466.37 593.06 467.64 592.65 M 485.39 592.48 L 485.39 592.48 Q 487.71 592.48 489.34 593.23 Q 490.96 593.99 491.71 594.62 L 491.71 594.62 Q 493.63 596.19 494.03 592.54 L 494.03 592.54 L 495.37 592.54 Q 495.25 594.16 495.19 596.39 Q 495.14 598.63 495.14 602.40 L 495.14 602.40 L 493.80 602.40 Q 493.45 600.25 492.61 598.22 Q 491.77 596.19 490.15 594.88 Q 488.52 593.58 485.91 593.58 L 485.91 593.58 Q 483.88 593.58 482.52 594.71 Q 481.16 595.84 481.16 598.05 L 481.16 598.05 Q 481.16 599.79 482.20 601.03 Q 483.25 602.28 484.93 603.35 Q 486.61 604.43 488.58 605.70 L 488.58 605.70 Q 490.79 607.09 492.58 608.54 Q 494.38 609.99 495.46 611.73 Q 496.53 613.47 496.53 615.85 L 496.53 615.85 Q 496.53 618.52 495.14 620.32 Q 493.74 622.12 491.51 623.04 Q 489.28 623.97 486.61 623.97 L 486.61 623.97 Q 485.33 623.97 484.20 623.77 Q 483.07 623.57 482.03 623.16 L 482.03 623.16 Q 481.45 622.87 480.84 622.46 Q 480.23 622.06 479.65 621.59 L 479.65 621.59 Q 479.07 621.13 478.61 621.62 Q 478.14 622.12 477.91 623.57 L 477.91 623.57 L 476.58 623.57 Q 476.69 621.71 476.75 619.04 Q 476.81 616.37 476.81 611.97 L 476.81 611.97 L 478.14 611.97 Q 478.55 615.21 479.30 617.65 Q 480.06 620.09 481.68 621.45 Q 483.30 622.81 486.20 622.81 L 486.20 622.81 Q 487.36 622.81 488.55 622.29 Q 489.74 621.77 490.55 620.55 Q 491.37 619.33 491.37 617.30 L 491.37 617.30 Q 491.37 614.75 489.51 613.13 Q 487.65 611.50 484.81 609.70 L 484.81 609.70 Q 482.72 608.37 480.90 607.04 Q 479.07 605.70 477.94 604.02 Q 476.81 602.34 476.81 599.96 L 476.81 599.96 Q 476.81 597.35 478.00 595.70 Q 479.19 594.04 481.16 593.26 Q 483.13 592.48 485.39 592.48 M 524.72 583.66 L 524.72 583.66 L 524.72 593.35 L 533.30 593.35 L 533.30 594.51 L 524.72 594.51 L 524.72 616.95 Q 524.72 619.68 525.70 620.78 Q 526.69 621.88 528.43 621.88 L 528.43 621.88 Q 530.17 621.88 531.44 620.46 Q 532.72 619.04 533.65 615.68 L 533.65 615.68 L 534.81 615.97 Q 534.23 619.33 532.52 621.65 Q 530.81 623.97 527.27 623.97 L 527.27 623.97 Q 525.30 623.97 524.02 623.48 Q 522.74 622.99 521.76 622.06 L 521.76 622.06 Q 520.48 620.72 519.99 618.87 Q 519.50 617.01 519.50 613.94 L 519.50 613.94 L 519.50 594.51 L 513.93 594.51 L 513.93 593.35 L 519.50 593.35 L 519.50 584.47 Q 520.95 584.42 522.28 584.24 Q 523.61 584.07 524.72 583.66 M 545.02 577.75 L 545.02 577.75 L 545.02 599.44 Q 546.52 595.49 549.22 593.99 Q 551.92 592.48 554.88 592.48 L 554.88 592.48 Q 557.08 592.48 558.56 593.06 Q 560.04 593.64 561.02 594.68 L 561.02 594.68 Q 562.13 595.84 562.59 597.58 Q 563.05 599.32 563.05 602.28 L 563.05 602.28 L 563.05 617.77 Q 563.05 620.20 564.07 621.07 Q 565.08 621.94 567.46 621.94 L 567.46 621.94 L 567.46 623.16 Q 566.48 623.10 564.45 623.01 Q 562.42 622.93 560.50 622.93 L 560.50 622.93 Q 558.59 622.93 556.76 623.01 Q 554.93 623.10 554.01 623.16 L 554.01 623.16 L 554.01 621.94 Q 556.09 621.94 556.96 621.07 Q 557.83 620.20 557.83 617.77 L 557.83 617.77 L 557.83 601.00 Q 557.83 599.21 557.54 597.70 Q 557.25 596.19 556.24 595.26 Q 555.22 594.33 553.14 594.33 L 553.14 594.33 Q 550.76 594.33 548.93 595.67 Q 547.10 597.00 546.06 599.38 Q 545.02 601.76 545.02 604.83 L 545.02 604.83 L 545.02 617.77 Q 545.02 620.20 545.89 621.07 Q 546.76 621.94 548.84 621.94 L 548.84 621.94 L 548.84 623.16 Q 547.92 623.10 546.09 623.01 Q 544.26 622.93 542.35 622.93 L 542.35 622.93 Q 540.43 622.93 538.40 623.01 Q 536.37 623.10 535.39 623.16 L 535.39 623.16 L 535.39 621.94 Q 537.77 621.94 538.78 621.07 Q 539.80 620.20 539.80 617.77 L 539.80 617.77 L 539.80 584.71 Q 539.80 582.10 538.87 580.85 Q 537.94 579.60 535.39 579.60 L 535.39 579.60 L 535.39 578.38 Q 537.24 578.56 538.98 578.56 L 538.98 578.56 Q 540.67 578.56 542.20 578.36 Q 543.74 578.15 545.02 577.75 M 584.11 592.48 L 584.11 592.48 Q 589.21 592.48 592.08 595.58 Q 594.95 598.68 594.95 605.24 L 594.95 605.24 L 574.48 605.24 L 574.42 604.14 L 589.39 604.14 Q 589.50 601.29 588.92 598.89 Q 588.34 596.48 587.10 595.03 Q 585.85 593.58 583.88 593.58 L 583.88 593.58 Q 581.21 593.58 579.15 596.25 Q 577.09 598.92 576.68 604.72 L 576.68 604.72 L 576.86 604.95 Q 576.74 605.82 576.68 606.86 Q 576.63 607.91 576.63 608.95 L 576.63 608.95 Q 576.63 612.89 577.90 615.74 Q 579.18 618.58 581.24 620.06 Q 583.30 621.54 585.50 621.54 L 585.50 621.54 Q 587.24 621.54 588.81 620.99 Q 590.37 620.43 591.71 619.16 Q 593.04 617.88 594.03 615.74 L 594.03 615.74 L 595.19 616.20 Q 594.55 618.11 593.10 619.91 Q 591.65 621.71 589.44 622.84 Q 587.24 623.97 584.34 623.97 L 584.34 623.97 Q 580.16 623.97 577.18 622.06 Q 574.19 620.14 572.60 616.75 Q 571.00 613.36 571.00 608.95 L 571.00 608.95 Q 571.00 603.85 572.63 600.16 Q 574.25 596.48 577.21 594.48 Q 580.16 592.48 584.11 592.48 M 628.30 592.48 L 628.30 592.48 Q 630.16 592.48 631.90 592.94 Q 633.64 593.41 635.03 594.33 L 635.03 594.33 Q 636.37 595.20 637.06 596.33 Q 637.76 597.47 637.76 598.80 L 637.76 598.80 Q 637.76 600.37 636.89 601.21 Q 636.02 602.05 634.68 602.05 L 634.68 602.05 Q 633.41 602.05 632.45 601.29 Q 631.49 600.54 631.49 599.15 L 631.49 599.15 Q 631.49 597.81 632.22 597.00 Q 632.94 596.19 633.93 595.96 L 633.93 595.96 Q 633.35 594.91 631.87 594.22 Q 630.39 593.52 628.71 593.52 L 628.71 593.52 Q 627.26 593.52 625.81 594.22 Q 624.36 594.91 623.14 596.51 Q 621.92 598.10 621.17 600.86 Q 620.42 603.61 620.42 607.73 L 620.42 607.73 Q 620.42 612.84 621.58 615.85 Q 622.74 618.87 624.62 620.17 Q 626.51 621.48 628.77 621.48 L 628.77 621.48 Q 630.28 621.48 631.84 620.90 Q 633.41 620.32 634.80 619.01 Q 636.19 617.71 637.18 615.50 L 637.18 615.50 L 638.28 615.91 Q 637.70 617.77 636.37 619.65 Q 635.03 621.54 632.89 622.75 Q 630.74 623.97 627.61 623.97 L 627.61 623.97 Q 624.01 623.97 621.11 622.12 Q 618.21 620.26 616.50 616.81 Q 614.79 613.36 614.79 608.60 L 614.79 608.60 Q 614.79 603.85 616.50 600.22 Q 618.21 596.60 621.29 594.54 Q 624.36 592.48 628.30 592.48 M 651.21 577.69 L 651.21 577.69 L 651.21 617.77 Q 651.21 620.20 652.23 621.07 Q 653.24 621.94 655.62 621.94 L 655.62 621.94 L 655.62 623.16 Q 654.64 623.10 652.64 623.01 Q 650.63 622.93 648.60 622.93 L 648.60 622.93 Q 646.63 622.93 644.60 623.01 Q 642.57 623.10 641.59 623.16 L 641.59 623.16 L 641.59 621.94 Q 643.96 621.94 644.98 621.07 Q 645.99 620.20 645.99 617.77 L 645.99 617.77 L 645.99 584.65 Q 645.99 582.04 645.07 580.79 Q 644.14 579.54 641.59 579.54 L 641.59 579.54 L 641.59 578.33 Q 643.44 578.50 645.18 578.50 L 645.18 578.50 Q 646.86 578.50 648.40 578.30 Q 649.94 578.09 651.21 577.69 M 672.79 592.48 L 672.79 592.48 Q 676.50 592.48 679.46 594.10 Q 682.42 595.73 684.19 599.21 Q 685.96 602.69 685.96 608.25 L 685.96 608.25 Q 685.96 613.82 684.19 617.27 Q 682.42 620.72 679.46 622.35 Q 676.50 623.97 672.79 623.97 L 672.79 623.97 Q 669.14 623.97 666.15 622.35 Q 663.16 620.72 661.39 617.27 Q 659.62 613.82 659.62 608.25 L 659.62 608.25 Q 659.62 602.69 661.39 599.21 Q 663.16 595.73 666.15 594.10 Q 669.14 592.48 672.79 592.48 M 672.79 593.64 L 672.79 593.64 Q 669.48 593.64 667.37 597.06 Q 665.25 600.48 665.25 608.25 L 665.25 608.25 Q 665.25 616.03 667.37 619.42 Q 669.48 622.81 672.79 622.81 L 672.79 622.81 Q 676.10 622.81 678.21 619.42 Q 680.33 616.03 680.33 608.25 L 680.33 608.25 Q 680.33 600.48 678.21 597.06 Q 676.10 593.64 672.79 593.64 M 700.75 592.48 L 700.75 592.48 Q 703.07 592.48 704.69 593.23 Q 706.31 593.99 707.07 594.62 L 707.07 594.62 Q 708.98 596.19 709.39 592.54 L 709.39 592.54 L 710.72 592.54 Q 710.61 594.16 710.55 596.39 Q 710.49 598.63 710.49 602.40 L 710.49 602.40 L 709.16 602.40 Q 708.81 600.25 707.97 598.22 Q 707.13 596.19 705.50 594.88 Q 703.88 593.58 701.27 593.58 L 701.27 593.58 Q 699.24 593.58 697.88 594.71 Q 696.51 595.84 696.51 598.05 L 696.51 598.05 Q 696.51 599.79 697.56 601.03 Q 698.60 602.28 700.28 603.35 Q 701.96 604.43 703.94 605.70 L 703.94 605.70 Q 706.14 607.09 707.94 608.54 Q 709.74 609.99 710.81 611.73 Q 711.88 613.47 711.88 615.85 L 711.88 615.85 Q 711.88 618.52 710.49 620.32 Q 709.10 622.12 706.87 623.04 Q 704.63 623.97 701.96 623.97 L 701.96 623.97 Q 700.69 623.97 699.56 623.77 Q 698.43 623.57 697.38 623.16 L 697.38 623.16 Q 696.80 622.87 696.19 622.46 Q 695.58 622.06 695.00 621.59 L 695.00 621.59 Q 694.42 621.13 693.96 621.62 Q 693.50 622.12 693.26 623.57 L 693.26 623.57 L 691.93 623.57 Q 692.05 621.71 692.10 619.04 Q 692.16 616.37 692.16 611.97 L 692.16 611.97 L 693.50 611.97 Q 693.90 615.21 694.66 617.65 Q 695.41 620.09 697.03 621.45 Q 698.66 622.81 701.56 622.81 L 701.56 622.81 Q 702.72 622.81 703.91 622.29 Q 705.10 621.77 705.91 620.55 Q 706.72 619.33 706.72 617.30 L 706.72 617.30 Q 706.72 614.75 704.86 613.13 Q 703.01 611.50 700.17 609.70 L 700.17 609.70 Q 698.08 608.37 696.25 607.04 Q 694.42 605.70 693.29 604.02 Q 692.16 602.34 692.16 599.96 L 692.16 599.96 Q 692.16 597.35 693.35 595.70 Q 694.54 594.04 696.51 593.26 Q 698.48 592.48 700.75 592.48 M 730.38 592.48 L 730.38 592.48 Q 735.49 592.48 738.36 595.58 Q 741.23 598.68 741.23 605.24 L 741.23 605.24 L 720.76 605.24 L 720.70 604.14 L 735.66 604.14 Q 735.78 601.29 735.20 598.89 Q 734.62 596.48 733.37 595.03 Q 732.12 593.58 730.15 593.58 L 730.15 593.58 Q 727.48 593.58 725.43 596.25 Q 723.37 598.92 722.96 604.72 L 722.96 604.72 L 723.13 604.95 Q 723.02 605.82 722.96 606.86 Q 722.90 607.91 722.90 608.95 L 722.90 608.95 Q 722.90 612.89 724.18 615.74 Q 725.45 618.58 727.51 620.06 Q 729.57 621.54 731.78 621.54 L 731.78 621.54 Q 733.52 621.54 735.08 620.99 Q 736.65 620.43 737.98 619.16 Q 739.32 617.88 740.30 615.74 L 740.30 615.74 L 741.46 616.20 Q 740.82 618.11 739.37 619.91 Q 737.92 621.71 735.72 622.84 Q 733.52 623.97 730.62 623.97 L 730.62 623.97 Q 726.44 623.97 723.45 622.06 Q 720.47 620.14 718.87 616.75 Q 717.28 613.36 717.28 608.95 L 717.28 608.95 Q 717.28 603.85 718.90 600.16 Q 720.52 596.48 723.48 594.48 Q 726.44 592.48 730.38 592.48 M 756.02 592.48 L 756.02 592.48 Q 758.34 592.48 759.96 593.23 Q 761.59 593.99 762.34 594.62 L 762.34 594.62 Q 764.26 596.19 764.66 592.54 L 764.66 592.54 L 766.00 592.54 Q 765.88 594.16 765.82 596.39 Q 765.76 598.63 765.76 602.40 L 765.76 602.40 L 764.43 602.40 Q 764.08 600.25 763.24 598.22 Q 762.40 596.19 760.78 594.88 Q 759.15 593.58 756.54 593.58 L 756.54 593.58 Q 754.51 593.58 753.15 594.71 Q 751.79 595.84 751.79 598.05 L 751.79 598.05 Q 751.79 599.79 752.83 601.03 Q 753.87 602.28 755.56 603.35 Q 757.24 604.43 759.21 605.70 L 759.21 605.70 Q 761.41 607.09 763.21 608.54 Q 765.01 609.99 766.08 611.73 Q 767.16 613.47 767.16 615.85 L 767.16 615.85 Q 767.16 618.52 765.76 620.32 Q 764.37 622.12 762.14 623.04 Q 759.91 623.97 757.24 623.97 L 757.24 623.97 Q 755.96 623.97 754.83 623.77 Q 753.70 623.57 752.66 623.16 L 752.66 623.16 Q 752.08 622.87 751.47 622.46 Q 750.86 622.06 750.28 621.59 L 750.28 621.59 Q 749.70 621.13 749.23 621.62 Q 748.77 622.12 748.54 623.57 L 748.54 623.57 L 747.20 623.57 Q 747.32 621.71 747.38 619.04 Q 747.44 616.37 747.44 611.97 L 747.44 611.97 L 748.77 611.97 Q 749.18 615.21 749.93 617.65 Q 750.68 620.09 752.31 621.45 Q 753.93 622.81 756.83 622.81 L 756.83 622.81 Q 757.99 622.81 759.18 622.29 Q 760.37 621.77 761.18 620.55 Q 761.99 619.33 761.99 617.30 L 761.99 617.30 Q 761.99 614.75 760.14 613.13 Q 758.28 611.50 755.44 609.70 L 755.44 609.70 Q 753.35 608.37 751.53 607.04 Q 749.70 605.70 748.57 604.02 Q 747.44 602.34 747.44 599.96 L 747.44 599.96 Q 747.44 597.35 748.63 595.70 Q 749.81 594.04 751.79 593.26 Q 753.76 592.48 756.02 592.48 M 780.90 583.66 L 780.90 583.66 L 780.90 593.35 L 789.49 593.35 L 789.49 594.51 L 780.90 594.51 L 780.90 616.95 Q 780.90 619.68 781.89 620.78 Q 782.87 621.88 784.61 621.88 L 784.61 621.88 Q 786.35 621.88 787.63 620.46 Q 788.91 619.04 789.83 615.68 L 789.83 615.68 L 790.99 615.97 Q 790.41 619.33 788.70 621.65 Q 786.99 623.97 783.45 623.97 L 783.45 623.97 Q 781.48 623.97 780.21 623.48 Q 778.93 622.99 777.94 622.06 L 777.94 622.06 Q 776.67 620.72 776.18 618.87 Q 775.68 617.01 775.68 613.94 L 775.68 613.94 L 775.68 594.51 L 770.11 594.51 L 770.11 593.35 L 775.68 593.35 L 775.68 584.47 Q 777.13 584.42 778.47 584.24 Q 779.80 584.07 780.90 583.66 M 815.88 583.66 L 815.88 583.66 L 815.88 593.35 L 824.46 593.35 L 824.46 594.51 L 815.88 594.51 L 815.88 616.95 Q 815.88 619.68 816.86 620.78 Q 817.85 621.88 819.59 621.88 L 819.59 621.88 Q 821.33 621.88 822.61 620.46 Q 823.88 619.04 824.81 615.68 L 824.81 615.68 L 825.97 615.97 Q 825.39 619.33 823.68 621.65 Q 821.97 623.97 818.43 623.97 L 818.43 623.97 Q 816.46 623.97 815.18 623.48 Q 813.90 622.99 812.92 622.06 L 812.92 622.06 Q 811.64 620.72 811.15 618.87 Q 810.66 617.01 810.66 613.94 L 810.66 613.94 L 810.66 594.51 L 805.09 594.51 L 805.09 593.35 L 810.66 593.35 L 810.66 584.47 Q 812.11 584.42 813.44 584.24 Q 814.77 584.07 815.88 583.66 M 836.18 577.75 L 836.18 577.75 L 836.18 599.44 Q 837.69 595.49 840.38 593.99 Q 843.08 592.48 846.04 592.48 L 846.04 592.48 Q 848.24 592.48 849.72 593.06 Q 851.20 593.64 852.19 594.68 L 852.19 594.68 Q 853.29 595.84 853.75 597.58 Q 854.22 599.32 854.22 602.28 L 854.22 602.28 L 854.22 617.77 Q 854.22 620.20 855.23 621.07 Q 856.25 621.94 858.62 621.94 L 858.62 621.94 L 858.62 623.16 Q 857.64 623.10 855.61 623.01 Q 853.58 622.93 851.66 622.93 L 851.66 622.93 Q 849.75 622.93 847.92 623.01 Q 846.10 623.10 845.17 623.16 L 845.17 623.16 L 845.17 621.94 Q 847.25 621.94 848.13 621.07 Q 849.00 620.20 849.00 617.77 L 849.00 617.77 L 849.00 601.00 Q 849.00 599.21 848.71 597.70 Q 848.41 596.19 847.40 595.26 Q 846.38 594.33 844.30 594.33 L 844.30 594.33 Q 841.92 594.33 840.09 595.67 Q 838.26 597.00 837.22 599.38 Q 836.18 601.76 836.18 604.83 L 836.18 604.83 L 836.18 617.77 Q 836.18 620.20 837.05 621.07 Q 837.92 621.94 840.00 621.94 L 840.00 621.94 L 840.00 623.16 Q 839.08 623.10 837.25 623.01 Q 835.42 622.93 833.51 622.93 L 833.51 622.93 Q 831.60 622.93 829.57 623.01 Q 827.53 623.10 826.55 623.16 L 826.55 623.16 L 826.55 621.94 Q 828.93 621.94 829.94 621.07 Q 830.96 620.20 830.96 617.77 L 830.96 617.77 L 830.96 584.71 Q 830.96 582.10 830.03 580.85 Q 829.10 579.60 826.55 579.60 L 826.55 579.60 L 826.55 578.38 Q 828.40 578.56 830.14 578.56 L 830.14 578.56 Q 831.83 578.56 833.36 578.36 Q 834.90 578.15 836.18 577.75 M 867.79 578.79 L 867.79 578.79 Q 869.30 578.79 870.40 579.89 Q 871.50 580.99 871.50 582.50 L 871.50 582.50 Q 871.50 584.01 870.40 585.11 Q 869.30 586.21 867.79 586.21 L 867.79 586.21 Q 866.28 586.21 865.18 585.11 Q 864.08 584.01 864.08 582.50 L 864.08 582.50 Q 864.08 580.99 865.18 579.89 Q 866.28 578.79 867.79 578.79 M 870.80 592.65 L 870.80 592.65 L 870.80 617.77 Q 870.80 620.20 871.82 621.07 Q 872.83 621.94 875.21 621.94 L 875.21 621.94 L 875.21 623.16 Q 874.23 623.10 872.22 623.01 Q 870.22 622.93 868.19 622.93 L 868.19 622.93 Q 866.22 622.93 864.19 623.01 Q 862.16 623.10 861.18 623.16 L 861.18 623.16 L 861.18 621.94 Q 863.55 621.94 864.57 621.07 Q 865.58 620.20 865.58 617.77 L 865.58 617.77 L 865.58 599.61 Q 865.58 597.00 864.66 595.75 Q 863.73 594.51 861.18 594.51 L 861.18 594.51 L 861.18 593.29 Q 863.03 593.46 864.77 593.46 L 864.77 593.46 Q 866.45 593.46 867.99 593.26 Q 869.53 593.06 870.80 592.65 M 897.66 592.48 L 897.66 592.48 Q 899.86 592.48 901.34 593.06 Q 902.82 593.64 903.81 594.68 L 903.81 594.68 Q 904.91 595.84 905.37 597.58 Q 905.84 599.32 905.84 602.28 L 905.84 602.28 L 905.84 617.77 Q 905.84 620.20 906.85 621.07 Q 907.87 621.94 910.24 621.94 L 910.24 621.94 L 910.24 623.16 Q 909.26 623.10 907.23 623.01 Q 905.20 622.93 903.28 622.93 L 903.28 622.93 Q 901.37 622.93 899.54 623.01 Q 897.72 623.10 896.79 623.16 L 896.79 623.16 L 896.79 621.94 Q 898.88 621.94 899.75 621.07 Q 900.62 620.20 900.62 617.77 L 900.62 617.77 L 900.62 601.00 Q 900.62 599.21 900.33 597.70 Q 900.04 596.19 899.02 595.26 Q 898.01 594.33 895.92 594.33 L 895.92 594.33 Q 893.48 594.33 891.65 595.73 Q 889.83 597.12 888.81 599.52 Q 887.80 601.93 887.80 604.89 L 887.80 604.89 L 887.80 617.77 Q 887.80 620.20 888.67 621.07 Q 889.54 621.94 891.63 621.94 L 891.63 621.94 L 891.63 623.16 Q 890.70 623.10 888.87 623.01 Q 887.04 622.93 885.13 622.93 L 885.13 622.93 Q 883.22 622.93 881.19 623.01 Q 879.16 623.10 878.17 623.16 L 878.17 623.16 L 878.17 621.94 Q 880.55 621.94 881.56 621.07 Q 882.58 620.20 882.58 617.77 L 882.58 617.77 L 882.58 599.61 Q 882.58 597.00 881.65 595.75 Q 880.72 594.51 878.17 594.51 L 878.17 594.51 L 878.17 593.29 Q 880.03 593.46 881.77 593.46 L 881.77 593.46 Q 883.45 593.46 884.98 593.26 Q 886.52 593.06 887.80 592.65 L 887.80 592.65 L 887.80 599.50 Q 889.31 595.55 892.00 594.01 Q 894.70 592.48 897.66 592.48 M 923.47 634.06 L 923.47 634.06 Q 920.39 634.06 917.67 633.43 Q 914.94 632.79 913.29 631.42 Q 911.64 630.06 911.64 627.97 L 911.64 627.97 Q 911.64 625.94 913.26 624.49 Q 914.88 623.04 917.67 622.29 L 917.67 622.29 L 918.02 623.22 Q 916.74 623.62 915.99 624.84 Q 915.23 626.06 915.23 627.57 L 915.23 627.57 Q 915.23 630.24 917.70 631.66 Q 920.16 633.08 924.11 633.08 L 924.11 633.08 Q 926.72 633.08 929.21 632.41 Q 931.70 631.74 933.33 630.18 Q 934.95 628.61 934.95 626.06 L 934.95 626.06 Q 934.95 624.15 933.59 622.90 Q 932.23 621.65 928.22 621.65 L 928.22 621.65 L 923.93 621.65 Q 922.08 621.65 920.34 621.36 Q 918.60 621.07 917.49 620.14 Q 916.39 619.22 916.39 617.30 L 916.39 617.30 Q 916.39 615.33 918.02 613.50 Q 919.64 611.68 923.99 609.76 L 923.99 609.76 L 924.69 610.28 Q 922.71 611.33 921.26 612.40 Q 919.81 613.47 919.81 614.92 L 919.81 614.92 Q 919.81 616.78 922.60 616.78 L 922.60 616.78 L 929.85 616.78 Q 932.28 616.78 934.34 617.48 Q 936.40 618.17 937.68 619.68 Q 938.95 621.19 938.95 623.62 L 938.95 623.62 Q 938.95 626.35 937.21 628.73 Q 935.47 631.11 932.02 632.58 Q 928.57 634.06 923.47 634.06 M 923.76 610.81 L 923.76 610.81 Q 920.92 610.81 918.60 609.85 Q 916.28 608.89 914.94 606.86 Q 913.61 604.83 913.61 601.64 L 913.61 601.64 Q 913.61 598.45 914.94 596.42 Q 916.28 594.39 918.60 593.43 Q 920.92 592.48 923.76 592.48 L 923.76 592.48 Q 926.66 592.48 928.95 593.43 Q 931.24 594.39 932.57 596.42 Q 933.91 598.45 933.91 601.64 L 933.91 601.64 Q 933.91 604.83 932.57 606.86 Q 931.24 608.89 928.95 609.85 Q 926.66 610.81 923.76 610.81 M 923.76 609.76 L 923.76 609.76 Q 925.96 609.76 927.21 608.02 Q 928.46 606.28 928.46 601.64 L 928.46 601.64 Q 928.46 597.00 927.21 595.26 Q 925.96 593.52 923.76 593.52 L 923.76 593.52 Q 921.61 593.52 920.34 595.26 Q 919.06 597.00 919.06 601.64 L 919.06 601.64 Q 919.06 606.28 920.34 608.02 Q 921.61 609.76 923.76 609.76 M 932.11 597.29 L 932.11 597.29 L 931.07 596.89 Q 931.88 594.91 933.85 593.41 Q 935.82 591.90 937.97 591.90 L 937.97 591.90 Q 939.48 591.90 940.40 592.74 Q 941.33 593.58 941.33 595.26 L 941.33 595.26 Q 941.33 597.06 940.37 597.78 Q 939.42 598.51 938.43 598.51 L 938.43 598.51 Q 937.56 598.51 936.81 597.90 Q 936.05 597.29 935.94 595.96 Q 935.82 594.62 936.75 592.54 L 936.75 592.54 L 937.50 592.71 Q 935.07 593.64 934.02 594.65 Q 932.98 595.67 932.11 597.29" fill="#1c1917"/><path d="M 204.53 670.20 L 204.53 670.20 Q 206.56 670.20 208.07 670.78 Q 209.57 671.36 210.56 672.40 L 210.56 672.40 Q 211.66 673.56 212.07 675.42 Q 212.47 677.27 212.47 680.00 L 212.47 680.00 L 212.47 695.49 Q 212.47 697.92 213.49 698.79 Q 214.50 699.66 216.88 699.66 L 216.88 699.66 L 216.88 700.88 Q 215.90 700.82 213.87 700.74 Q 211.84 700.65 209.92 700.65 L 209.92 700.65 Q 208.01 700.65 206.18 700.74 Q 204.35 700.82 203.43 700.88 L 203.43 700.88 L 203.43 699.66 Q 205.51 699.66 206.38 698.79 Q 207.25 697.92 207.25 695.49 L 207.25 695.49 L 207.25 678.72 Q 207.25 676.93 207.02 675.42 Q 206.79 673.91 205.86 672.98 Q 204.93 672.05 202.85 672.05 L 202.85 672.05 Q 200.58 672.05 198.81 673.45 Q 197.05 674.84 196.03 677.25 Q 195.02 679.65 195.02 682.61 L 195.02 682.61 L 195.02 695.49 Q 195.02 697.92 195.89 698.79 Q 196.76 699.66 198.84 699.66 L 198.84 699.66 L 198.84 700.88 Q 197.92 700.82 196.09 700.74 Q 194.26 700.65 192.35 700.65 L 192.35 700.65 Q 190.43 700.65 188.40 700.74 Q 186.37 700.82 185.39 700.88 L 185.39 700.88 L 185.39 699.66 Q 187.77 699.66 188.78 698.79 Q 189.80 697.92 189.80 695.49 L 189.80 695.49 L 189.80 677.33 Q 189.80 674.72 188.87 673.48 Q 187.94 672.23 185.39 672.23 L 185.39 672.23 L 185.39 671.01 Q 187.24 671.18 188.98 671.18 L 188.98 671.18 Q 190.67 671.18 192.20 670.98 Q 193.74 670.78 195.02 670.37 L 195.02 670.37 L 195.02 677.22 Q 196.52 673.45 199.13 671.82 Q 201.74 670.20 204.53 670.20 M 221.99 670.20 L 221.99 670.20 Q 224.02 670.20 225.52 670.78 Q 227.03 671.36 228.02 672.40 L 228.02 672.40 Q 229.12 673.56 229.53 675.42 Q 229.93 677.27 229.93 680.00 L 229.93 680.00 L 229.93 695.49 Q 229.93 697.92 230.95 698.79 Q 231.96 699.66 234.34 699.66 L 234.34 699.66 L 234.34 700.88 Q 233.35 700.82 231.32 700.74 Q 229.29 700.65 227.38 700.65 L 227.38 700.65 Q 225.47 700.65 223.64 700.74 Q 221.81 700.82 220.88 700.88 L 220.88 700.88 L 220.88 699.66 Q 222.97 699.66 223.84 698.79 Q 224.71 697.92 224.71 695.49 L 224.71 695.49 L 224.71 678.72 Q 224.71 676.93 224.48 675.42 Q 224.25 673.91 223.32 672.98 Q 222.39 672.05 220.30 672.05 L 220.30 672.05 Q 218.04 672.05 216.27 673.45 Q 214.50 674.84 213.49 677.22 Q 212.47 679.59 212.47 682.55 L 212.47 682.55 L 212.30 677.16 Q 213.87 673.16 216.53 671.68 Q 219.20 670.20 221.99 670.20 M 251.10 670.20 L 251.10 670.20 Q 254.81 670.20 257.77 671.82 Q 260.73 673.45 262.50 676.93 Q 264.27 680.41 264.27 685.97 L 264.27 685.97 Q 264.27 691.54 262.50 694.99 Q 260.73 698.44 257.77 700.07 Q 254.81 701.69 251.10 701.69 L 251.10 701.69 Q 247.45 701.69 244.46 700.07 Q 241.47 698.44 239.70 694.99 Q 237.94 691.54 237.94 685.97 L 237.94 685.97 Q 237.94 680.41 239.70 676.93 Q 241.47 673.45 244.46 671.82 Q 247.45 670.20 251.10 670.20 M 251.10 671.36 L 251.10 671.36 Q 247.80 671.36 245.68 674.78 Q 243.56 678.20 243.56 685.97 L 243.56 685.97 Q 243.56 693.75 245.68 697.14 Q 247.80 700.53 251.10 700.53 L 251.10 700.53 Q 254.41 700.53 256.52 697.14 Q 258.64 693.75 258.64 685.97 L 258.64 685.97 Q 258.64 678.20 256.52 674.78 Q 254.41 671.36 251.10 671.36 M 279.06 670.20 L 279.06 670.20 Q 281.38 670.20 283.00 670.95 Q 284.63 671.71 285.38 672.34 L 285.38 672.34 Q 287.29 673.91 287.70 670.26 L 287.70 670.26 L 289.03 670.26 Q 288.92 671.88 288.86 674.11 Q 288.80 676.35 288.80 680.12 L 288.80 680.12 L 287.47 680.12 Q 287.12 677.97 286.28 675.94 Q 285.44 673.91 283.81 672.61 Q 282.19 671.30 279.58 671.30 L 279.58 671.30 Q 277.55 671.30 276.19 672.43 Q 274.82 673.56 274.82 675.77 L 274.82 675.77 Q 274.82 677.51 275.87 678.75 Q 276.91 680.00 278.59 681.07 Q 280.28 682.15 282.25 683.42 L 282.25 683.42 Q 284.45 684.81 286.25 686.26 Q 288.05 687.71 289.12 689.45 Q 290.19 691.19 290.19 693.57 L 290.19 693.57 Q 290.19 696.24 288.80 698.04 Q 287.41 699.84 285.18 700.76 Q 282.94 701.69 280.28 701.69 L 280.28 701.69 Q 279.00 701.69 277.87 701.49 Q 276.74 701.29 275.69 700.88 L 275.69 700.88 Q 275.11 700.59 274.50 700.18 Q 273.90 699.78 273.32 699.31 L 273.32 699.31 Q 272.74 698.85 272.27 699.34 Q 271.81 699.84 271.58 701.29 L 271.58 701.29 L 270.24 701.29 Q 270.36 699.43 270.42 696.76 Q 270.47 694.09 270.47 689.69 L 270.47 689.69 L 271.81 689.69 Q 272.21 692.93 272.97 695.37 Q 273.72 697.81 275.35 699.17 Q 276.97 700.53 279.87 700.53 L 279.87 700.53 Q 281.03 700.53 282.22 700.01 Q 283.41 699.49 284.22 698.27 Q 285.03 697.05 285.03 695.02 L 285.03 695.02 Q 285.03 692.47 283.18 690.85 Q 281.32 689.22 278.48 687.42 L 278.48 687.42 Q 276.39 686.09 274.56 684.76 Q 272.74 683.42 271.60 681.74 Q 270.47 680.06 270.47 677.68 L 270.47 677.68 Q 270.47 675.07 271.66 673.42 Q 272.85 671.76 274.82 670.98 Q 276.80 670.20 279.06 670.20 M 303.94 661.38 L 303.94 661.38 L 303.94 671.07 L 312.52 671.07 L 312.52 672.23 L 303.94 672.23 L 303.94 694.67 Q 303.94 697.40 304.93 698.50 Q 305.91 699.60 307.65 699.60 L 307.65 699.60 Q 309.39 699.60 310.67 698.18 Q 311.94 696.76 312.87 693.40 L 312.87 693.40 L 314.03 693.69 Q 313.45 697.05 311.74 699.37 Q 310.03 701.69 306.49 701.69 L 306.49 701.69 Q 304.52 701.69 303.24 701.20 Q 301.97 700.71 300.98 699.78 L 300.98 699.78 Q 299.71 698.44 299.21 696.59 Q 298.72 694.73 298.72 691.66 L 298.72 691.66 L 298.72 672.23 L 293.15 672.23 L 293.15 671.07 L 298.72 671.07 L 298.72 662.19 Q 300.17 662.14 301.50 661.96 Q 302.84 661.79 303.94 661.38 M 343.79 670.20 L 343.79 670.20 Q 347.50 670.20 350.46 671.82 Q 353.41 673.45 355.18 676.93 Q 356.95 680.41 356.95 685.97 L 356.95 685.97 Q 356.95 691.54 355.18 694.99 Q 353.41 698.44 350.46 700.07 Q 347.50 701.69 343.79 701.69 L 343.79 701.69 Q 340.13 701.69 337.14 700.07 Q 334.16 698.44 332.39 694.99 Q 330.62 691.54 330.62 685.97 L 330.62 685.97 Q 330.62 680.41 332.39 676.93 Q 334.16 673.45 337.14 671.82 Q 340.13 670.20 343.79 670.20 M 343.79 671.36 L 343.79 671.36 Q 340.48 671.36 338.36 674.78 Q 336.25 678.20 336.25 685.97 L 336.25 685.97 Q 336.25 693.75 338.36 697.14 Q 340.48 700.53 343.79 700.53 L 343.79 700.53 Q 347.09 700.53 349.21 697.14 Q 351.33 693.75 351.33 685.97 L 351.33 685.97 Q 351.33 678.20 349.21 674.78 Q 347.09 671.36 343.79 671.36 M 375.69 655.52 L 375.69 655.52 Q 377.31 655.52 378.56 655.96 Q 379.80 656.39 380.73 657.09 L 380.73 657.09 Q 381.60 657.79 382.07 658.71 Q 382.53 659.64 382.53 660.69 L 382.53 660.69 Q 382.53 662.02 381.66 662.89 Q 380.79 663.76 379.46 663.76 L 379.46 663.76 Q 378.18 663.76 377.22 662.92 Q 376.27 662.08 376.27 660.63 L 376.27 660.63 Q 376.27 659.41 376.93 658.66 Q 377.60 657.90 378.70 657.67 L 378.70 657.67 Q 378.53 657.15 377.80 656.77 Q 377.08 656.39 375.86 656.39 L 375.86 656.39 Q 374.53 656.39 373.57 656.97 Q 372.61 657.55 372.09 658.54 L 372.09 658.54 Q 371.39 659.76 371.22 662.16 Q 371.05 664.57 371.05 669.56 L 371.05 669.56 L 371.05 671.07 L 377.25 671.07 L 377.25 672.23 L 371.05 672.23 L 371.05 694.91 Q 371.05 697.75 372.70 698.71 Q 374.35 699.66 377.19 699.66 L 377.19 699.66 L 377.19 700.88 Q 375.86 700.82 373.42 700.74 Q 370.99 700.65 368.26 700.65 L 368.26 700.65 Q 366.29 700.65 364.35 700.74 Q 362.40 700.82 361.42 700.88 L 361.42 700.88 L 361.42 699.66 Q 363.80 699.66 364.81 698.79 Q 365.83 697.92 365.83 695.49 L 365.83 695.49 L 365.83 672.23 L 361.19 672.23 L 361.19 671.07 L 365.83 671.07 Q 365.83 667.65 366.12 665.33 Q 366.41 663.01 367.04 661.35 Q 367.68 659.70 368.78 658.42 L 368.78 658.42 Q 369.94 657.09 371.74 656.31 Q 373.54 655.52 375.69 655.52 M 421.39 670.37 L 421.39 670.37 L 421.39 694.62 Q 421.39 697.23 422.35 698.47 Q 423.30 699.72 425.80 699.72 L 425.80 699.72 L 425.80 700.94 Q 424.00 700.76 422.20 700.76 L 422.20 700.76 Q 420.52 700.76 418.98 700.94 Q 417.45 701.11 416.17 701.58 L 416.17 701.58 L 416.17 694.73 Q 414.72 698.50 412.08 700.10 Q 409.44 701.69 406.66 701.69 L 406.66 701.69 Q 404.63 701.69 403.12 701.11 Q 401.61 700.53 400.63 699.49 L 400.63 699.49 Q 399.52 698.33 399.12 696.47 Q 398.71 694.62 398.71 691.89 L 398.71 691.89 L 398.71 677.33 Q 398.71 674.72 397.78 673.48 Q 396.86 672.23 394.30 672.23 L 394.30 672.23 L 394.30 671.01 Q 396.16 671.18 397.90 671.18 L 397.90 671.18 Q 399.58 671.18 401.12 670.98 Q 402.66 670.78 403.93 670.37 L 403.93 670.37 L 403.93 693.17 Q 403.93 694.96 404.16 696.47 Q 404.40 697.98 405.32 698.91 Q 406.25 699.84 408.34 699.84 L 408.34 699.84 Q 410.60 699.84 412.37 698.44 Q 414.14 697.05 415.15 694.67 Q 416.17 692.30 416.17 689.34 L 416.17 689.34 L 416.17 677.33 Q 416.17 674.72 415.24 673.48 Q 414.31 672.23 411.76 672.23 L 411.76 672.23 L 411.76 671.01 Q 413.62 671.18 415.36 671.18 L 415.36 671.18 Q 417.04 671.18 418.58 670.98 Q 420.11 670.78 421.39 670.37 M 439.14 670.20 L 439.14 670.20 Q 441.46 670.20 443.08 670.95 Q 444.71 671.71 445.46 672.34 L 445.46 672.34 Q 447.37 673.91 447.78 670.26 L 447.78 670.26 L 449.11 670.26 Q 449.00 671.88 448.94 674.11 Q 448.88 676.35 448.88 680.12 L 448.88 680.12 L 447.55 680.12 Q 447.20 677.97 446.36 675.94 Q 445.52 673.91 443.89 672.61 Q 442.27 671.30 439.66 671.30 L 439.66 671.30 Q 437.63 671.30 436.27 672.43 Q 434.90 673.56 434.90 675.77 L 434.90 675.77 Q 434.90 677.51 435.95 678.75 Q 436.99 680.00 438.67 681.07 Q 440.36 682.15 442.33 683.42 L 442.33 683.42 Q 444.53 684.81 446.33 686.26 Q 448.13 687.71 449.20 689.45 Q 450.27 691.19 450.27 693.57 L 450.27 693.57 Q 450.27 696.24 448.88 698.04 Q 447.49 699.84 445.26 700.76 Q 443.02 701.69 440.36 701.69 L 440.36 701.69 Q 439.08 701.69 437.95 701.49 Q 436.82 701.29 435.77 700.88 L 435.77 700.88 Q 435.19 700.59 434.58 700.18 Q 433.98 699.78 433.40 699.31 L 433.40 699.31 Q 432.82 698.85 432.35 699.34 Q 431.89 699.84 431.66 701.29 L 431.66 701.29 L 430.32 701.29 Q 430.44 699.43 430.50 696.76 Q 430.55 694.09 430.55 689.69 L 430.55 689.69 L 431.89 689.69 Q 432.29 692.93 433.05 695.37 Q 433.80 697.81 435.43 699.17 Q 437.05 700.53 439.95 700.53 L 439.95 700.53 Q 441.11 700.53 442.30 700.01 Q 443.49 699.49 444.30 698.27 Q 445.11 697.05 445.11 695.02 L 445.11 695.02 Q 445.11 692.47 443.26 690.85 Q 441.40 689.22 438.56 687.42 L 438.56 687.42 Q 436.47 686.09 434.64 684.76 Q 432.82 683.42 431.68 681.74 Q 430.55 680.06 430.55 677.68 L 430.55 677.68 Q 430.55 675.07 431.74 673.42 Q 432.93 671.76 434.90 670.98 Q 436.88 670.20 439.14 670.20 M 478.23 655.47 L 478.23 655.47 L 478.23 677.16 Q 479.74 673.21 482.43 671.71 Q 485.13 670.20 488.09 670.20 L 488.09 670.20 Q 490.29 670.20 491.77 670.78 Q 493.25 671.36 494.24 672.40 L 494.24 672.40 Q 495.34 673.56 495.80 675.30 Q 496.27 677.04 496.27 680.00 L 496.27 680.00 L 496.27 695.49 Q 496.27 697.92 497.28 698.79 Q 498.30 699.66 500.68 699.66 L 500.68 699.66 L 500.68 700.88 Q 499.69 700.82 497.66 700.74 Q 495.63 700.65 493.72 700.65 L 493.72 700.65 Q 491.80 700.65 489.97 700.74 Q 488.15 700.82 487.22 700.88 L 487.22 700.88 L 487.22 699.66 Q 489.31 699.66 490.18 698.79 Q 491.05 697.92 491.05 695.49 L 491.05 695.49 L 491.05 678.72 Q 491.05 676.93 490.76 675.42 Q 490.47 673.91 489.45 672.98 Q 488.44 672.05 486.35 672.05 L 486.35 672.05 Q 483.97 672.05 482.14 673.39 Q 480.32 674.72 479.27 677.10 Q 478.23 679.48 478.23 682.55 L 478.23 682.55 L 478.23 695.49 Q 478.23 697.92 479.10 698.79 Q 479.97 699.66 482.06 699.66 L 482.06 699.66 L 482.06 700.88 Q 481.13 700.82 479.30 700.74 Q 477.48 700.65 475.56 700.65 L 475.56 700.65 Q 473.65 700.65 471.62 700.74 Q 469.59 700.82 468.60 700.88 L 468.60 700.88 L 468.60 699.66 Q 470.98 699.66 471.99 698.79 Q 473.01 697.92 473.01 695.49 L 473.01 695.49 L 473.01 662.43 Q 473.01 659.82 472.08 658.57 Q 471.15 657.32 468.60 657.32 L 468.60 657.32 L 468.60 656.10 Q 470.46 656.28 472.20 656.28 L 472.20 656.28 Q 473.88 656.28 475.42 656.08 Q 476.95 655.87 478.23 655.47 M 511.46 701.29 L 511.46 701.29 Q 509.09 701.29 507.35 700.39 Q 505.61 699.49 504.71 697.86 Q 503.81 696.24 503.81 694.09 L 503.81 694.09 Q 503.81 691.54 505.00 689.92 Q 506.19 688.29 508.04 687.31 Q 509.90 686.32 511.96 685.65 Q 514.02 684.99 515.87 684.38 Q 517.73 683.77 518.92 682.96 Q 520.11 682.15 520.11 680.81 L 520.11 680.81 L 520.11 677.22 Q 520.11 674.78 519.38 673.50 Q 518.66 672.23 517.44 671.79 Q 516.22 671.36 514.71 671.36 L 514.71 671.36 Q 513.26 671.36 511.61 671.76 Q 509.96 672.17 508.97 673.45 L 508.97 673.45 Q 510.07 673.68 510.88 674.61 Q 511.70 675.53 511.70 676.98 L 511.70 676.98 Q 511.70 678.43 510.77 679.27 Q 509.84 680.12 508.39 680.12 L 508.39 680.12 Q 506.71 680.12 505.92 679.04 Q 505.14 677.97 505.14 676.64 L 505.14 676.64 Q 505.14 675.13 505.90 674.20 Q 506.65 673.27 507.81 672.46 L 507.81 672.46 Q 509.14 671.53 511.26 670.87 Q 513.38 670.20 516.05 670.20 L 516.05 670.20 Q 518.42 670.20 520.11 670.75 Q 521.79 671.30 522.89 672.34 L 522.89 672.34 Q 524.40 673.74 524.86 675.74 Q 525.33 677.74 525.33 680.52 L 525.33 680.52 L 525.33 696.65 Q 525.33 698.10 525.76 698.73 Q 526.20 699.37 527.12 699.37 L 527.12 699.37 Q 527.76 699.37 528.34 699.08 Q 528.92 698.79 529.73 698.15 L 529.73 698.15 L 530.37 699.14 Q 529.15 700.07 528.05 700.68 Q 526.95 701.29 525.09 701.29 L 525.09 701.29 Q 523.41 701.29 522.31 700.71 Q 521.21 700.13 520.66 699.00 Q 520.11 697.86 520.11 696.12 L 520.11 696.12 Q 518.54 698.73 516.36 700.01 Q 514.19 701.29 511.46 701.29 M 513.55 698.97 L 513.55 698.97 Q 515.47 698.97 517.12 697.86 Q 518.77 696.76 520.11 694.56 L 520.11 694.56 L 520.11 683.19 Q 519.41 684.18 518.08 684.84 Q 516.74 685.51 515.18 686.18 Q 513.61 686.84 512.19 687.74 Q 510.77 688.64 509.84 690.09 Q 508.91 691.54 508.91 693.86 L 508.91 693.86 Q 508.91 696.18 510.16 697.57 Q 511.41 698.97 513.55 698.97 M 558.62 671.01 L 558.62 671.01 L 558.62 672.17 Q 557.52 672.29 556.59 673.16 Q 555.66 674.03 554.85 676.23 L 554.85 676.23 L 545.34 701.17 Q 545.10 701.17 544.87 701.17 Q 544.64 701.17 544.35 701.17 L 544.35 701.17 L 533.68 675.48 Q 532.75 673.21 531.85 672.72 Q 530.95 672.23 530.31 672.23 L 530.31 672.23 L 530.31 671.01 Q 531.47 671.07 532.72 671.15 Q 533.97 671.24 535.42 671.24 L 535.42 671.24 Q 537.22 671.24 539.22 671.18 Q 541.22 671.13 542.96 671.01 L 542.96 671.01 L 542.96 672.23 Q 541.51 672.23 540.38 672.43 Q 539.25 672.63 538.93 673.56 Q 538.61 674.49 539.48 676.75 L 539.48 676.75 L 546.73 694.67 L 546.38 694.96 L 552.99 677.62 Q 553.75 675.71 553.60 674.58 Q 553.46 673.45 552.44 672.87 Q 551.43 672.29 549.34 672.17 L 549.34 672.17 L 549.34 671.01 Q 550.38 671.07 551.14 671.10 Q 551.89 671.13 552.62 671.15 Q 553.34 671.18 554.21 671.18 L 554.21 671.18 Q 555.54 671.18 556.62 671.13 Q 557.69 671.07 558.62 671.01 M 574.57 670.20 L 574.57 670.20 Q 579.67 670.20 582.54 673.30 Q 585.41 676.40 585.41 682.96 L 585.41 682.96 L 564.94 682.96 L 564.88 681.86 L 579.85 681.86 Q 579.96 679.01 579.38 676.61 Q 578.80 674.20 577.55 672.75 Q 576.31 671.30 574.34 671.30 L 574.34 671.30 Q 571.67 671.30 569.61 673.97 Q 567.55 676.64 567.14 682.44 L 567.14 682.44 L 567.32 682.67 Q 567.20 683.54 567.14 684.58 Q 567.09 685.63 567.09 686.67 L 567.09 686.67 Q 567.09 690.61 568.36 693.46 Q 569.64 696.30 571.70 697.78 Q 573.76 699.26 575.96 699.26 L 575.96 699.26 Q 577.70 699.26 579.27 698.71 Q 580.83 698.15 582.17 696.88 Q 583.50 695.60 584.49 693.46 L 584.49 693.46 L 585.65 693.92 Q 585.01 695.83 583.56 697.63 Q 582.11 699.43 579.90 700.56 Q 577.70 701.69 574.80 701.69 L 574.80 701.69 Q 570.62 701.69 567.64 699.78 Q 564.65 697.86 563.05 694.47 Q 561.46 691.08 561.46 686.67 L 561.46 686.67 Q 561.46 681.57 563.08 677.88 Q 564.71 674.20 567.67 672.20 Q 570.62 670.20 574.57 670.20 M 613.60 661.38 L 613.60 661.38 L 613.60 671.07 L 622.19 671.07 L 622.19 672.23 L 613.60 672.23 L 613.60 694.67 Q 613.60 697.40 614.59 698.50 Q 615.57 699.60 617.31 699.60 L 617.31 699.60 Q 619.05 699.60 620.33 698.18 Q 621.61 696.76 622.53 693.40 L 622.53 693.40 L 623.69 693.69 Q 623.11 697.05 621.40 699.37 Q 619.69 701.69 616.15 701.69 L 616.15 701.69 Q 614.18 701.69 612.91 701.20 Q 611.63 700.71 610.64 699.78 L 610.64 699.78 Q 609.37 698.44 608.87 696.59 Q 608.38 694.73 608.38 691.66 L 608.38 691.66 L 608.38 672.23 L 602.81 672.23 L 602.81 671.07 L 608.38 671.07 L 608.38 662.19 Q 609.83 662.14 611.17 661.96 Q 612.50 661.79 613.60 661.38 M 639.01 670.20 L 639.01 670.20 Q 642.72 670.20 645.68 671.82 Q 648.63 673.45 650.40 676.93 Q 652.17 680.41 652.17 685.97 L 652.17 685.97 Q 652.17 691.54 650.40 694.99 Q 648.63 698.44 645.68 700.07 Q 642.72 701.69 639.01 701.69 L 639.01 701.69 Q 635.35 701.69 632.36 700.07 Q 629.38 698.44 627.61 694.99 Q 625.84 691.54 625.84 685.97 L 625.84 685.97 Q 625.84 680.41 627.61 676.93 Q 629.38 673.45 632.36 671.82 Q 635.35 670.20 639.01 670.20 M 639.01 671.36 L 639.01 671.36 Q 635.70 671.36 633.58 674.78 Q 631.47 678.20 631.47 685.97 L 631.47 685.97 Q 631.47 693.75 633.58 697.14 Q 635.70 700.53 639.01 700.53 L 639.01 700.53 Q 642.31 700.53 644.43 697.14 Q 646.55 693.75 646.55 685.97 L 646.55 685.97 Q 646.55 678.20 644.43 674.78 Q 642.31 671.36 639.01 671.36 M 679.26 701.29 L 679.26 701.29 Q 676.88 701.29 675.14 700.39 Q 673.40 699.49 672.50 697.86 Q 671.60 696.24 671.60 694.09 L 671.60 694.09 Q 671.60 691.54 672.79 689.92 Q 673.98 688.29 675.84 687.31 Q 677.69 686.32 679.75 685.65 Q 681.81 684.99 683.67 684.38 Q 685.52 683.77 686.71 682.96 Q 687.90 682.15 687.90 680.81 L 687.90 680.81 L 687.90 677.22 Q 687.90 674.78 687.17 673.50 Q 686.45 672.23 685.23 671.79 Q 684.01 671.36 682.51 671.36 L 682.51 671.36 Q 681.06 671.36 679.40 671.76 Q 677.75 672.17 676.76 673.45 L 676.76 673.45 Q 677.87 673.68 678.68 674.61 Q 679.49 675.53 679.49 676.98 L 679.49 676.98 Q 679.49 678.43 678.56 679.27 Q 677.63 680.12 676.18 680.12 L 676.18 680.12 Q 674.50 680.12 673.72 679.04 Q 672.94 677.97 672.94 676.64 L 672.94 676.64 Q 672.94 675.13 673.69 674.20 Q 674.44 673.27 675.60 672.46 L 675.60 672.46 Q 676.94 671.53 679.05 670.87 Q 681.17 670.20 683.84 670.20 L 683.84 670.20 Q 686.22 670.20 687.90 670.75 Q 689.58 671.30 690.68 672.34 L 690.68 672.34 Q 692.19 673.74 692.66 675.74 Q 693.12 677.74 693.12 680.52 L 693.12 680.52 L 693.12 696.65 Q 693.12 698.10 693.55 698.73 Q 693.99 699.37 694.92 699.37 L 694.92 699.37 Q 695.56 699.37 696.14 699.08 Q 696.72 698.79 697.53 698.15 L 697.53 698.15 L 698.17 699.14 Q 696.95 700.07 695.85 700.68 Q 694.74 701.29 692.89 701.29 L 692.89 701.29 Q 691.21 701.29 690.10 700.71 Q 689.00 700.13 688.45 699.00 Q 687.90 697.86 687.90 696.12 L 687.90 696.12 Q 686.33 698.73 684.16 700.01 Q 681.98 701.29 679.26 701.29 M 681.35 698.97 L 681.35 698.97 Q 683.26 698.97 684.91 697.86 Q 686.57 696.76 687.90 694.56 L 687.90 694.56 L 687.90 683.19 Q 687.20 684.18 685.87 684.84 Q 684.54 685.51 682.97 686.18 Q 681.40 686.84 679.98 687.74 Q 678.56 688.64 677.63 690.09 Q 676.71 691.54 676.71 693.86 L 676.71 693.86 Q 676.71 696.18 677.95 697.57 Q 679.20 698.97 681.35 698.97 M 723.57 670.37 L 723.57 670.37 L 723.57 705.98 Q 723.57 708.48 725.05 709.32 Q 726.53 710.16 729.14 710.16 L 729.14 710.16 L 729.14 711.38 Q 727.86 711.32 725.60 711.23 Q 723.34 711.15 720.79 711.15 L 720.79 711.15 Q 718.99 711.15 717.22 711.23 Q 715.45 711.32 714.52 711.38 L 714.52 711.38 L 714.52 710.16 Q 716.61 710.16 717.48 709.41 Q 718.35 708.65 718.35 706.56 L 718.35 706.56 L 718.35 677.33 Q 718.35 674.72 717.42 673.48 Q 716.49 672.23 713.94 672.23 L 713.94 672.23 L 713.94 671.01 Q 715.80 671.18 717.54 671.18 L 717.54 671.18 Q 719.22 671.18 720.76 670.98 Q 722.29 670.78 723.57 670.37 M 732.85 670.20 L 732.85 670.20 Q 735.92 670.20 738.36 671.85 Q 740.80 673.50 742.22 676.69 Q 743.64 679.88 743.64 684.58 L 743.64 684.58 Q 743.64 687.71 742.88 690.76 Q 742.13 693.80 740.53 696.27 Q 738.94 698.73 736.42 700.21 Q 733.89 701.69 730.36 701.69 L 730.36 701.69 Q 727.63 701.69 725.63 700.42 Q 723.63 699.14 722.93 697.34 L 722.93 697.34 L 723.51 696.53 Q 724.32 698.15 725.86 699.26 Q 727.40 700.36 729.72 700.36 L 729.72 700.36 Q 732.97 700.36 734.76 698.33 Q 736.56 696.30 737.29 692.90 Q 738.01 689.51 738.01 685.39 L 738.01 685.39 Q 738.01 680.75 737.26 677.80 Q 736.50 674.84 735.00 673.39 Q 733.49 671.94 731.28 671.94 L 731.28 671.94 Q 728.44 671.94 726.12 674.29 Q 723.80 676.64 723.16 681.39 L 723.16 681.39 L 722.47 680.58 Q 723.11 675.65 725.98 672.92 Q 728.85 670.20 732.85 670.20 M 766.08 670.20 L 766.08 670.20 Q 767.65 670.20 768.84 670.84 Q 770.03 671.47 770.69 672.49 Q 771.36 673.50 771.36 674.78 L 771.36 674.78 Q 771.36 676.23 770.46 677.33 Q 769.56 678.43 768.06 678.43 L 768.06 678.43 Q 766.84 678.43 765.91 677.65 Q 764.98 676.87 764.98 675.42 L 764.98 675.42 Q 764.98 674.32 765.59 673.53 Q 766.20 672.75 766.95 672.29 L 766.95 672.29 Q 766.55 671.71 765.74 671.71 L 765.74 671.71 Q 763.94 671.71 762.43 672.78 Q 760.92 673.85 759.88 675.53 Q 758.83 677.22 758.25 679.10 Q 757.67 680.99 757.67 682.61 L 757.67 682.61 L 757.67 694.91 Q 757.67 697.75 759.33 698.71 Q 760.98 699.66 763.82 699.66 L 763.82 699.66 L 763.82 700.88 Q 762.49 700.82 760.05 700.74 Q 757.62 700.65 754.89 700.65 L 754.89 700.65 Q 752.92 700.65 750.97 700.74 Q 749.03 700.82 748.05 700.88 L 748.05 700.88 L 748.05 699.66 Q 750.42 699.66 751.44 698.79 Q 752.45 697.92 752.45 695.49 L 752.45 695.49 L 752.45 677.33 Q 752.45 674.72 751.53 673.48 Q 750.60 672.23 748.05 672.23 L 748.05 672.23 L 748.05 671.01 Q 749.90 671.18 751.64 671.18 L 751.64 671.18 Q 753.32 671.18 754.86 670.98 Q 756.40 670.78 757.67 670.37 L 757.67 670.37 L 757.67 677.62 Q 758.31 675.94 759.50 674.23 Q 760.69 672.52 762.37 671.36 Q 764.05 670.20 766.08 670.20 M 780.47 656.51 L 780.47 656.51 Q 781.98 656.51 783.08 657.61 Q 784.18 658.71 784.18 660.22 L 784.18 660.22 Q 784.18 661.73 783.08 662.83 Q 781.98 663.93 780.47 663.93 L 780.47 663.93 Q 778.96 663.93 777.86 662.83 Q 776.76 661.73 776.76 660.22 L 776.76 660.22 Q 776.76 658.71 777.86 657.61 Q 778.96 656.51 780.47 656.51 M 783.48 670.37 L 783.48 670.37 L 783.48 695.49 Q 783.48 697.92 784.50 698.79 Q 785.51 699.66 787.89 699.66 L 787.89 699.66 L 787.89 700.88 Q 786.91 700.82 784.90 700.74 Q 782.90 700.65 780.87 700.65 L 780.87 700.65 Q 778.90 700.65 776.87 700.74 Q 774.84 700.82 773.86 700.88 L 773.86 700.88 L 773.86 699.66 Q 776.23 699.66 777.25 698.79 Q 778.26 697.92 778.26 695.49 L 778.26 695.49 L 778.26 677.33 Q 778.26 674.72 777.34 673.48 Q 776.41 672.23 773.86 672.23 L 773.86 672.23 L 773.86 671.01 Q 775.71 671.18 777.45 671.18 L 777.45 671.18 Q 779.13 671.18 780.67 670.98 Q 782.21 670.78 783.48 670.37 M 817.36 671.01 L 817.36 671.01 L 817.36 672.17 Q 816.25 672.29 815.33 673.16 Q 814.40 674.03 813.59 676.23 L 813.59 676.23 L 804.07 701.17 Q 803.84 701.17 803.61 701.17 Q 803.38 701.17 803.09 701.17 L 803.09 701.17 L 792.42 675.48 Q 791.49 673.21 790.59 672.72 Q 789.69 672.23 789.05 672.23 L 789.05 672.23 L 789.05 671.01 Q 790.21 671.07 791.46 671.15 Q 792.71 671.24 794.16 671.24 L 794.16 671.24 Q 795.95 671.24 797.96 671.18 Q 799.96 671.13 801.70 671.01 L 801.70 671.01 L 801.70 672.23 Q 800.25 672.23 799.12 672.43 Q 797.98 672.63 797.66 673.56 Q 797.35 674.49 798.22 676.75 L 798.22 676.75 L 805.47 694.67 L 805.12 694.96 L 811.73 677.62 Q 812.48 675.71 812.34 674.58 Q 812.19 673.45 811.18 672.87 Q 810.16 672.29 808.08 672.17 L 808.08 672.17 L 808.08 671.01 Q 809.12 671.07 809.87 671.10 Q 810.63 671.13 811.35 671.15 Q 812.08 671.18 812.95 671.18 L 812.95 671.18 Q 814.28 671.18 815.36 671.13 Q 816.43 671.07 817.36 671.01 M 827.45 701.29 L 827.45 701.29 Q 825.07 701.29 823.33 700.39 Q 821.59 699.49 820.69 697.86 Q 819.79 696.24 819.79 694.09 L 819.79 694.09 Q 819.79 691.54 820.98 689.92 Q 822.17 688.29 824.03 687.31 Q 825.88 686.32 827.94 685.65 Q 830.00 684.99 831.86 684.38 Q 833.71 683.77 834.90 682.96 Q 836.09 682.15 836.09 680.81 L 836.09 680.81 L 836.09 677.22 Q 836.09 674.78 835.37 673.50 Q 834.64 672.23 833.42 671.79 Q 832.20 671.36 830.70 671.36 L 830.70 671.36 Q 829.25 671.36 827.59 671.76 Q 825.94 672.17 824.95 673.45 L 824.95 673.45 Q 826.06 673.68 826.87 674.61 Q 827.68 675.53 827.68 676.98 L 827.68 676.98 Q 827.68 678.43 826.75 679.27 Q 825.82 680.12 824.37 680.12 L 824.37 680.12 Q 822.69 680.12 821.91 679.04 Q 821.13 677.97 821.13 676.64 L 821.13 676.64 Q 821.13 675.13 821.88 674.20 Q 822.63 673.27 823.79 672.46 L 823.79 672.46 Q 825.13 671.53 827.25 670.87 Q 829.36 670.20 832.03 670.20 L 832.03 670.20 Q 834.41 670.20 836.09 670.75 Q 837.77 671.30 838.87 672.34 L 838.87 672.34 Q 840.38 673.74 840.85 675.74 Q 841.31 677.74 841.31 680.52 L 841.31 680.52 L 841.31 696.65 Q 841.31 698.10 841.75 698.73 Q 842.18 699.37 843.11 699.37 L 843.11 699.37 Q 843.75 699.37 844.33 699.08 Q 844.91 698.79 845.72 698.15 L 845.72 698.15 L 846.36 699.14 Q 845.14 700.07 844.04 700.68 Q 842.93 701.29 841.08 701.29 L 841.08 701.29 Q 839.40 701.29 838.29 700.71 Q 837.19 700.13 836.64 699.00 Q 836.09 697.86 836.09 696.12 L 836.09 696.12 Q 834.52 698.73 832.35 700.01 Q 830.17 701.29 827.45 701.29 M 829.54 698.97 L 829.54 698.97 Q 831.45 698.97 833.10 697.86 Q 834.76 696.76 836.09 694.56 L 836.09 694.56 L 836.09 683.19 Q 835.39 684.18 834.06 684.84 Q 832.73 685.51 831.16 686.18 Q 829.59 686.84 828.17 687.74 Q 826.75 688.64 825.82 690.09 Q 824.90 691.54 824.90 693.86 L 824.90 693.86 Q 824.90 696.18 826.14 697.57 Q 827.39 698.97 829.54 698.97 M 857.43 661.38 L 857.43 661.38 L 857.43 671.07 L 866.02 671.07 L 866.02 672.23 L 857.43 672.23 L 857.43 694.67 Q 857.43 697.40 858.42 698.50 Q 859.41 699.60 861.15 699.60 L 861.15 699.60 Q 862.89 699.60 864.16 698.18 Q 865.44 696.76 866.37 693.40 L 866.37 693.40 L 867.53 693.69 Q 866.95 697.05 865.24 699.37 Q 863.52 701.69 859.99 701.69 L 859.99 701.69 Q 858.01 701.69 856.74 701.20 Q 855.46 700.71 854.48 699.78 L 854.48 699.78 Q 853.20 698.44 852.71 696.59 Q 852.21 694.73 852.21 691.66 L 852.21 691.66 L 852.21 672.23 L 846.65 672.23 L 846.65 671.07 L 852.21 671.07 L 852.21 662.19 Q 853.66 662.14 855.00 661.96 Q 856.33 661.79 857.43 661.38 M 882.72 670.20 L 882.72 670.20 Q 887.83 670.20 890.70 673.30 Q 893.57 676.40 893.57 682.96 L 893.57 682.96 L 873.09 682.96 L 873.04 681.86 L 888.00 681.86 Q 888.12 679.01 887.54 676.61 Q 886.96 674.20 885.71 672.75 Q 884.46 671.30 882.49 671.30 L 882.49 671.30 Q 879.82 671.30 877.76 673.97 Q 875.70 676.64 875.30 682.44 L 875.30 682.44 L 875.47 682.67 Q 875.36 683.54 875.30 684.58 Q 875.24 685.63 875.24 686.67 L 875.24 686.67 Q 875.24 690.61 876.52 693.46 Q 877.79 696.30 879.85 697.78 Q 881.91 699.26 884.11 699.26 L 884.11 699.26 Q 885.85 699.26 887.42 698.71 Q 888.99 698.15 890.32 696.88 Q 891.65 695.60 892.64 693.46 L 892.64 693.46 L 893.80 693.92 Q 893.16 695.83 891.71 697.63 Q 890.26 699.43 888.06 700.56 Q 885.85 701.69 882.95 701.69 L 882.95 701.69 Q 878.78 701.69 875.79 699.78 Q 872.80 697.86 871.21 694.47 Q 869.61 691.08 869.61 686.67 L 869.61 686.67 Q 869.61 681.57 871.24 677.88 Q 872.86 674.20 875.82 672.20 Q 878.78 670.20 882.72 670.20" fill="#1c1917"/><path d="M 353.27 779.01 L 353.27 779.01 Q 350.89 779.01 349.15 778.11 Q 347.41 777.21 346.51 775.58 Q 345.61 773.96 345.61 771.81 L 345.61 771.81 Q 345.61 769.26 346.80 767.64 Q 347.99 766.01 349.85 765.03 Q 351.70 764.04 353.76 763.37 Q 355.82 762.71 357.68 762.10 Q 359.53 761.49 360.72 760.68 Q 361.91 759.87 361.91 758.53 L 361.91 758.53 L 361.91 754.94 Q 361.91 752.50 361.19 751.22 Q 360.46 749.95 359.24 749.51 Q 358.02 749.08 356.52 749.08 L 356.52 749.08 Q 355.07 749.08 353.41 749.48 Q 351.76 749.89 350.77 751.17 L 350.77 751.17 Q 351.88 751.40 352.69 752.33 Q 353.50 753.25 353.50 754.70 L 353.50 754.70 Q 353.50 756.15 352.57 756.99 Q 351.64 757.84 350.19 757.84 L 350.19 757.84 Q 348.51 757.84 347.73 756.76 Q 346.95 755.69 346.95 754.36 L 346.95 754.36 Q 346.95 752.85 347.70 751.92 Q 348.45 750.99 349.62 750.18 L 349.62 750.18 Q 350.95 749.25 353.07 748.58 Q 355.18 747.92 357.85 747.92 L 357.85 747.92 Q 360.23 747.92 361.91 748.47 Q 363.59 749.02 364.69 750.06 L 364.69 750.06 Q 366.20 751.46 366.67 753.46 Q 367.13 755.46 367.13 758.24 L 367.13 758.24 L 367.13 774.37 Q 367.13 775.82 367.57 776.45 Q 368.00 777.09 368.93 777.09 L 368.93 777.09 Q 369.57 777.09 370.15 776.80 Q 370.73 776.51 371.54 775.87 L 371.54 775.87 L 372.18 776.86 Q 370.96 777.79 369.86 778.40 Q 368.75 779.01 366.90 779.01 L 366.90 779.01 Q 365.22 779.01 364.12 778.43 Q 363.01 777.85 362.46 776.71 Q 361.91 775.58 361.91 773.84 L 361.91 773.84 Q 360.35 776.45 358.17 777.73 Q 356.00 779.01 353.27 779.01 M 355.36 776.69 L 355.36 776.69 Q 357.27 776.69 358.92 775.58 Q 360.58 774.48 361.91 772.28 L 361.91 772.28 L 361.91 760.91 Q 361.21 761.90 359.88 762.56 Q 358.55 763.23 356.98 763.90 Q 355.42 764.56 353.99 765.46 Q 352.57 766.36 351.64 767.81 Q 350.72 769.26 350.72 771.58 L 350.72 771.58 Q 350.72 773.90 351.96 775.29 Q 353.21 776.69 355.36 776.69 M 400.25 748.09 L 400.25 748.09 L 400.25 772.34 Q 400.25 774.95 401.21 776.19 Q 402.16 777.44 404.66 777.44 L 404.66 777.44 L 404.66 778.66 Q 402.86 778.48 401.06 778.48 L 401.06 778.48 Q 399.38 778.48 397.84 778.66 Q 396.31 778.83 395.03 779.30 L 395.03 779.30 L 395.03 772.45 Q 393.58 776.22 390.94 777.82 Q 388.30 779.41 385.52 779.41 L 385.52 779.41 Q 383.49 779.41 381.98 778.83 Q 380.47 778.25 379.49 777.21 L 379.49 777.21 Q 378.38 776.05 377.98 774.19 Q 377.57 772.34 377.57 769.61 L 377.57 769.61 L 377.57 755.05 Q 377.57 752.44 376.64 751.19 Q 375.72 749.95 373.16 749.95 L 373.16 749.95 L 373.16 748.73 Q 375.02 748.90 376.76 748.90 L 376.76 748.90 Q 378.44 748.90 379.98 748.70 Q 381.51 748.50 382.79 748.09 L 382.79 748.09 L 382.79 770.89 Q 382.79 772.68 383.02 774.19 Q 383.25 775.70 384.18 776.63 Q 385.11 777.56 387.20 777.56 L 387.20 777.56 Q 389.46 777.56 391.23 776.16 Q 393.00 774.77 394.01 772.39 Q 395.03 770.02 395.03 767.06 L 395.03 767.06 L 395.03 755.05 Q 395.03 752.44 394.10 751.19 Q 393.17 749.95 390.62 749.95 L 390.62 749.95 L 390.62 748.73 Q 392.48 748.90 394.22 748.90 L 394.22 748.90 Q 395.90 748.90 397.44 748.70 Q 398.97 748.50 400.25 748.09 M 416.95 739.10 L 416.95 739.10 L 416.95 748.79 L 425.54 748.79 L 425.54 749.95 L 416.95 749.95 L 416.95 772.39 Q 416.95 775.12 417.94 776.22 Q 418.93 777.32 420.67 777.32 L 420.67 777.32 Q 422.40 777.32 423.68 775.90 Q 424.96 774.48 425.88 771.12 L 425.88 771.12 L 427.05 771.41 Q 426.46 774.77 424.75 777.09 Q 423.04 779.41 419.50 779.41 L 419.50 779.41 Q 417.53 779.41 416.26 778.92 Q 414.98 778.43 414.00 777.50 L 414.00 777.50 Q 412.72 776.16 412.23 774.31 Q 411.73 772.45 411.73 769.38 L 411.73 769.38 L 411.73 749.95 L 406.17 749.95 L 406.17 748.79 L 411.73 748.79 L 411.73 739.91 Q 413.18 739.86 414.52 739.68 Q 415.85 739.51 416.95 739.10 M 442.36 747.92 L 442.36 747.92 Q 446.07 747.92 449.03 749.54 Q 451.98 751.17 453.75 754.65 Q 455.52 758.13 455.52 763.69 L 455.52 763.69 Q 455.52 769.26 453.75 772.71 Q 451.98 776.16 449.03 777.79 Q 446.07 779.41 442.36 779.41 L 442.36 779.41 Q 438.70 779.41 435.72 777.79 Q 432.73 776.16 430.96 772.71 Q 429.19 769.26 429.19 763.69 L 429.19 763.69 Q 429.19 758.13 430.96 754.65 Q 432.73 751.17 435.72 749.54 Q 438.70 747.92 442.36 747.92 M 442.36 749.08 L 442.36 749.08 Q 439.05 749.08 436.93 752.50 Q 434.82 755.92 434.82 763.69 L 434.82 763.69 Q 434.82 771.47 436.93 774.86 Q 439.05 778.25 442.36 778.25 L 442.36 778.25 Q 445.66 778.25 447.78 774.86 Q 449.90 771.47 449.90 763.69 L 449.90 763.69 Q 449.90 755.92 447.78 752.50 Q 445.66 749.08 442.36 749.08 M 477.16 747.92 L 477.16 747.92 Q 481.91 747.92 485.04 751.83 Q 488.18 755.75 488.18 763.69 L 488.18 763.69 Q 488.18 768.91 486.41 772.42 Q 484.64 775.93 481.68 777.67 Q 478.72 779.41 475.24 779.41 L 475.24 779.41 Q 472.34 779.41 469.65 777.76 Q 466.95 776.11 465.61 772.86 L 465.61 772.86 L 466.77 773.50 Q 468.22 775.82 470.37 776.95 Q 472.52 778.08 474.78 778.08 L 474.78 778.08 Q 478.66 778.08 480.61 774.57 Q 482.55 771.06 482.55 763.69 L 482.55 763.69 Q 482.55 759.00 481.80 755.86 Q 481.04 752.73 479.48 751.19 Q 477.91 749.66 475.47 749.66 L 475.47 749.66 Q 472.81 749.66 470.52 752.06 Q 468.22 754.47 467.70 759.11 L 467.70 759.11 L 467.01 758.30 Q 467.64 753.37 470.46 750.64 Q 473.27 747.92 477.16 747.92 M 468.11 733.19 L 468.11 733.19 L 468.11 775.58 Q 467.35 776.22 466.57 776.89 Q 465.79 777.56 465.03 778.19 Q 464.28 778.83 463.47 779.53 L 463.47 779.53 L 462.48 779.12 Q 462.71 778.31 462.80 777.47 Q 462.89 776.63 462.89 775.76 L 462.89 775.76 L 462.89 740.15 Q 462.89 737.54 461.96 736.29 Q 461.03 735.04 458.48 735.04 L 458.48 735.04 L 458.48 733.82 Q 460.34 734.00 462.08 734.00 L 462.08 734.00 Q 463.76 734.00 465.30 733.79 Q 466.83 733.59 468.11 733.19 M 499.20 734.23 L 499.20 734.23 Q 500.70 734.23 501.81 735.33 Q 502.91 736.43 502.91 737.94 L 502.91 737.94 Q 502.91 739.45 501.81 740.55 Q 500.70 741.65 499.20 741.65 L 499.20 741.65 Q 497.69 741.65 496.59 740.55 Q 495.48 739.45 495.48 737.94 L 495.48 737.94 Q 495.48 736.43 496.59 735.33 Q 497.69 734.23 499.20 734.23 M 502.21 748.09 L 502.21 748.09 L 502.21 773.21 Q 502.21 775.64 503.23 776.51 Q 504.24 777.38 506.62 777.38 L 506.62 777.38 L 506.62 778.60 Q 505.63 778.54 503.63 778.45 Q 501.63 778.37 499.60 778.37 L 499.60 778.37 Q 497.63 778.37 495.60 778.45 Q 493.57 778.54 492.58 778.60 L 492.58 778.60 L 492.58 777.38 Q 494.96 777.38 495.98 776.51 Q 496.99 775.64 496.99 773.21 L 496.99 773.21 L 496.99 755.05 Q 496.99 752.44 496.06 751.19 Q 495.14 749.95 492.58 749.95 L 492.58 749.95 L 492.58 748.73 Q 494.44 748.90 496.18 748.90 L 496.18 748.90 Q 497.86 748.90 499.40 748.70 Q 500.94 748.50 502.21 748.09 M 523.79 747.92 L 523.79 747.92 Q 527.50 747.92 530.46 749.54 Q 533.42 751.17 535.19 754.65 Q 536.95 758.13 536.95 763.69 L 536.95 763.69 Q 536.95 769.26 535.19 772.71 Q 533.42 776.16 530.46 777.79 Q 527.50 779.41 523.79 779.41 L 523.79 779.41 Q 520.13 779.41 517.15 777.79 Q 514.16 776.16 512.39 772.71 Q 510.62 769.26 510.62 763.69 L 510.62 763.69 Q 510.62 758.13 512.39 754.65 Q 514.16 751.17 517.15 749.54 Q 520.13 747.92 523.79 747.92 M 523.79 749.08 L 523.79 749.08 Q 520.48 749.08 518.37 752.50 Q 516.25 755.92 516.25 763.69 L 516.25 763.69 Q 516.25 771.47 518.37 774.86 Q 520.48 778.25 523.79 778.25 L 523.79 778.25 Q 527.09 778.25 529.21 774.86 Q 531.33 771.47 531.33 763.69 L 531.33 763.69 Q 531.33 755.92 529.21 752.50 Q 527.09 749.08 523.79 749.08 M 552.03 789.50 L 552.03 789.50 Q 548.96 789.50 546.23 788.87 Q 543.51 788.23 541.86 786.86 Q 540.20 785.50 540.20 783.41 L 540.20 783.41 Q 540.20 781.38 541.83 779.93 Q 543.45 778.48 546.23 777.73 L 546.23 777.73 L 546.58 778.66 Q 545.31 779.06 544.55 780.28 Q 543.80 781.50 543.80 783.01 L 543.80 783.01 Q 543.80 785.68 546.26 787.10 Q 548.73 788.52 552.67 788.52 L 552.67 788.52 Q 555.28 788.52 557.78 787.85 Q 560.27 787.18 561.89 785.62 Q 563.52 784.05 563.52 781.50 L 563.52 781.50 Q 563.52 779.59 562.16 778.34 Q 560.79 777.09 556.79 777.09 L 556.79 777.09 L 552.50 777.09 Q 550.64 777.09 548.90 776.80 Q 547.16 776.51 546.06 775.58 Q 544.96 774.66 544.96 772.74 L 544.96 772.74 Q 544.96 770.77 546.58 768.94 Q 548.21 767.12 552.56 765.20 L 552.56 765.20 L 553.25 765.72 Q 551.28 766.77 549.83 767.84 Q 548.38 768.91 548.38 770.36 L 548.38 770.36 Q 548.38 772.22 551.16 772.22 L 551.16 772.22 L 558.41 772.22 Q 560.85 772.22 562.91 772.92 Q 564.97 773.61 566.24 775.12 Q 567.52 776.63 567.52 779.06 L 567.52 779.06 Q 567.52 781.79 565.78 784.17 Q 564.04 786.55 560.59 788.02 Q 557.14 789.50 552.03 789.50 M 552.32 766.25 L 552.32 766.25 Q 549.48 766.25 547.16 765.29 Q 544.84 764.33 543.51 762.30 Q 542.17 760.27 542.17 757.08 L 542.17 757.08 Q 542.17 753.89 543.51 751.86 Q 544.84 749.83 547.16 748.87 Q 549.48 747.92 552.32 747.92 L 552.32 747.92 Q 555.22 747.92 557.52 748.87 Q 559.81 749.83 561.14 751.86 Q 562.47 753.89 562.47 757.08 L 562.47 757.08 Q 562.47 760.27 561.14 762.30 Q 559.81 764.33 557.52 765.29 Q 555.22 766.25 552.32 766.25 M 552.32 765.20 L 552.32 765.20 Q 554.53 765.20 555.78 763.46 Q 557.02 761.72 557.02 757.08 L 557.02 757.08 Q 557.02 752.44 555.78 750.70 Q 554.53 748.96 552.32 748.96 L 552.32 748.96 Q 550.18 748.96 548.90 750.70 Q 547.63 752.44 547.63 757.08 L 547.63 757.08 Q 547.63 761.72 548.90 763.46 Q 550.18 765.20 552.32 765.20 M 560.68 752.73 L 560.68 752.73 L 559.63 752.33 Q 560.44 750.35 562.42 748.85 Q 564.39 747.34 566.53 747.34 L 566.53 747.34 Q 568.04 747.34 568.97 748.18 Q 569.90 749.02 569.90 750.70 L 569.90 750.70 Q 569.90 752.50 568.94 753.22 Q 567.98 753.95 567.00 753.95 L 567.00 753.95 Q 566.13 753.95 565.37 753.34 Q 564.62 752.73 564.50 751.40 Q 564.39 750.06 565.32 747.98 L 565.32 747.98 L 566.07 748.15 Q 563.63 749.08 562.59 750.09 Q 561.55 751.11 560.68 752.73 M 590.02 747.92 L 590.02 747.92 Q 591.59 747.92 592.78 748.56 Q 593.97 749.19 594.64 750.21 Q 595.30 751.22 595.30 752.50 L 595.30 752.50 Q 595.30 753.95 594.40 755.05 Q 593.50 756.15 592.00 756.15 L 592.00 756.15 Q 590.78 756.15 589.85 755.37 Q 588.92 754.59 588.92 753.14 L 588.92 753.14 Q 588.92 752.04 589.53 751.25 Q 590.14 750.47 590.89 750.01 L 590.89 750.01 Q 590.49 749.43 589.68 749.43 L 589.68 749.43 Q 587.88 749.43 586.37 750.50 Q 584.86 751.57 583.82 753.25 Q 582.77 754.94 582.19 756.82 Q 581.61 758.71 581.61 760.33 L 581.61 760.33 L 581.61 772.63 Q 581.61 775.47 583.27 776.42 Q 584.92 777.38 587.76 777.38 L 587.76 777.38 L 587.76 778.60 Q 586.43 778.54 583.99 778.45 Q 581.56 778.37 578.83 778.37 L 578.83 778.37 Q 576.86 778.37 574.92 778.45 Q 572.97 778.54 571.99 778.60 L 571.99 778.60 L 571.99 777.38 Q 574.36 777.38 575.38 776.51 Q 576.39 775.64 576.39 773.21 L 576.39 773.21 L 576.39 755.05 Q 576.39 752.44 575.47 751.19 Q 574.54 749.95 571.99 749.95 L 571.99 749.95 L 571.99 748.73 Q 573.84 748.90 575.58 748.90 L 575.58 748.90 Q 577.26 748.90 578.80 748.70 Q 580.34 748.50 581.61 748.09 L 581.61 748.09 L 581.61 755.34 Q 582.25 753.66 583.44 751.95 Q 584.63 750.24 586.31 749.08 Q 588.00 747.92 590.02 747.92 M 606.03 779.01 L 606.03 779.01 Q 603.65 779.01 601.91 778.11 Q 600.17 777.21 599.28 775.58 Q 598.38 773.96 598.38 771.81 L 598.38 771.81 Q 598.38 769.26 599.57 767.64 Q 600.75 766.01 602.61 765.03 Q 604.47 764.04 606.53 763.37 Q 608.59 762.71 610.44 762.10 Q 612.30 761.49 613.49 760.68 Q 614.67 759.87 614.67 758.53 L 614.67 758.53 L 614.67 754.94 Q 614.67 752.50 613.95 751.22 Q 613.23 749.95 612.01 749.51 Q 610.79 749.08 609.28 749.08 L 609.28 749.08 Q 607.83 749.08 606.18 749.48 Q 604.52 749.89 603.54 751.17 L 603.54 751.17 Q 604.64 751.40 605.45 752.33 Q 606.26 753.25 606.26 754.70 L 606.26 754.70 Q 606.26 756.15 605.34 756.99 Q 604.41 757.84 602.96 757.84 L 602.96 757.84 Q 601.28 757.84 600.49 756.76 Q 599.71 755.69 599.71 754.36 L 599.71 754.36 Q 599.71 752.85 600.47 751.92 Q 601.22 750.99 602.38 750.18 L 602.38 750.18 Q 603.71 749.25 605.83 748.58 Q 607.95 747.92 610.62 747.92 L 610.62 747.92 Q 612.99 747.92 614.67 748.47 Q 616.36 749.02 617.46 750.06 L 617.46 750.06 Q 618.97 751.46 619.43 753.46 Q 619.89 755.46 619.89 758.24 L 619.89 758.24 L 619.89 774.37 Q 619.89 775.82 620.33 776.45 Q 620.76 777.09 621.69 777.09 L 621.69 777.09 Q 622.33 777.09 622.91 776.80 Q 623.49 776.51 624.30 775.87 L 624.30 775.87 L 624.94 776.86 Q 623.72 777.79 622.62 778.40 Q 621.52 779.01 619.66 779.01 L 619.66 779.01 Q 617.98 779.01 616.88 778.43 Q 615.78 777.85 615.23 776.71 Q 614.67 775.58 614.67 773.84 L 614.67 773.84 Q 613.11 776.45 610.93 777.73 Q 608.76 779.01 606.03 779.01 M 608.12 776.69 L 608.12 776.69 Q 610.03 776.69 611.69 775.58 Q 613.34 774.48 614.67 772.28 L 614.67 772.28 L 614.67 760.91 Q 613.98 761.90 612.64 762.56 Q 611.31 763.23 609.75 763.90 Q 608.18 764.56 606.76 765.46 Q 605.34 766.36 604.41 767.81 Q 603.48 769.26 603.48 771.58 L 603.48 771.58 Q 603.48 773.90 604.73 775.29 Q 605.98 776.69 608.12 776.69 M 635.90 748.09 L 635.90 748.09 L 635.90 783.70 Q 635.90 786.20 637.38 787.04 Q 638.86 787.88 641.47 787.88 L 641.47 787.88 L 641.47 789.10 Q 640.20 789.04 637.93 788.95 Q 635.67 788.87 633.12 788.87 L 633.12 788.87 Q 631.32 788.87 629.55 788.95 Q 627.78 789.04 626.86 789.10 L 626.86 789.10 L 626.86 787.88 Q 628.94 787.88 629.81 787.13 Q 630.68 786.37 630.68 784.28 L 630.68 784.28 L 630.68 755.05 Q 630.68 752.44 629.75 751.19 Q 628.83 749.95 626.27 749.95 L 626.27 749.95 L 626.27 748.73 Q 628.13 748.90 629.87 748.90 L 629.87 748.90 Q 631.55 748.90 633.09 748.70 Q 634.63 748.50 635.90 748.09 M 645.18 747.92 L 645.18 747.92 Q 648.26 747.92 650.69 749.57 Q 653.13 751.22 654.55 754.41 Q 655.97 757.60 655.97 762.30 L 655.97 762.30 Q 655.97 765.43 655.22 768.48 Q 654.46 771.52 652.87 773.99 Q 651.27 776.45 648.75 777.93 Q 646.23 779.41 642.69 779.41 L 642.69 779.41 Q 639.96 779.41 637.96 778.14 Q 635.96 776.86 635.26 775.06 L 635.26 775.06 L 635.85 774.25 Q 636.66 775.87 638.19 776.98 Q 639.73 778.08 642.05 778.08 L 642.05 778.08 Q 645.30 778.08 647.10 776.05 Q 648.89 774.02 649.62 770.62 Q 650.35 767.23 650.35 763.11 L 650.35 763.11 Q 650.35 758.47 649.59 755.52 Q 648.84 752.56 647.33 751.11 Q 645.82 749.66 643.62 749.66 L 643.62 749.66 Q 640.77 749.66 638.46 752.01 Q 636.13 754.36 635.50 759.11 L 635.50 759.11 L 634.80 758.30 Q 635.44 753.37 638.31 750.64 Q 641.18 747.92 645.18 747.92 M 669.49 733.19 L 669.49 733.19 L 669.49 754.88 Q 670.99 750.93 673.69 749.43 Q 676.39 747.92 679.35 747.92 L 679.35 747.92 Q 681.55 747.92 683.03 748.50 Q 684.51 749.08 685.49 750.12 L 685.49 750.12 Q 686.60 751.28 687.06 753.02 Q 687.52 754.76 687.52 757.72 L 687.52 757.72 L 687.52 773.21 Q 687.52 775.64 688.54 776.51 Q 689.55 777.38 691.93 777.38 L 691.93 777.38 L 691.93 778.60 Q 690.95 778.54 688.91 778.45 Q 686.88 778.37 684.97 778.37 L 684.97 778.37 Q 683.06 778.37 681.23 778.45 Q 679.40 778.54 678.48 778.60 L 678.48 778.60 L 678.48 777.38 Q 680.56 777.38 681.43 776.51 Q 682.30 775.64 682.30 773.21 L 682.30 773.21 L 682.30 756.44 Q 682.30 754.65 682.01 753.14 Q 681.72 751.63 680.71 750.70 Q 679.69 749.77 677.61 749.77 L 677.61 749.77 Q 675.23 749.77 673.40 751.11 Q 671.57 752.44 670.53 754.82 Q 669.49 757.20 669.49 760.27 L 669.49 760.27 L 669.49 773.21 Q 669.49 775.64 670.36 776.51 Q 671.23 777.38 673.31 777.38 L 673.31 777.38 L 673.31 778.60 Q 672.38 778.54 670.56 778.45 Q 668.73 778.37 666.82 778.37 L 666.82 778.37 Q 664.90 778.37 662.87 778.45 Q 660.84 778.54 659.86 778.60 L 659.86 778.60 L 659.86 777.38 Q 662.24 777.38 663.25 776.51 Q 664.26 775.64 664.26 773.21 L 664.26 773.21 L 664.26 740.15 Q 664.26 737.54 663.34 736.29 Q 662.41 735.04 659.86 735.04 L 659.86 735.04 L 659.86 733.82 Q 661.71 734.00 663.45 734.00 L 663.45 734.00 Q 665.13 734.00 666.67 733.79 Q 668.21 733.59 669.49 733.19 M 721.45 748.73 L 721.45 748.73 L 721.45 749.89 Q 720.35 750.01 719.42 750.88 Q 718.50 751.75 717.68 753.95 L 717.68 753.95 L 708.17 778.89 L 707.19 778.89 L 696.51 753.20 Q 695.41 750.93 694.34 750.44 Q 693.27 749.95 692.57 749.95 L 692.57 749.95 L 692.57 748.73 Q 693.85 748.90 695.24 748.99 Q 696.63 749.08 698.25 749.08 L 698.25 749.08 Q 700.05 749.08 702.05 748.96 Q 704.05 748.85 705.79 748.73 L 705.79 748.73 L 705.79 749.95 Q 704.34 749.95 703.21 750.15 Q 702.08 750.35 701.79 751.37 Q 701.50 752.38 702.49 754.82 L 702.49 754.82 L 709.62 772.51 L 709.27 772.63 L 715.88 755.34 Q 716.64 753.43 716.49 752.30 Q 716.35 751.17 715.31 750.59 Q 714.26 750.01 712.17 749.89 L 712.17 749.89 L 712.17 748.73 Q 713.22 748.79 713.97 748.82 Q 714.73 748.85 715.45 748.87 Q 716.18 748.90 717.05 748.90 L 717.05 748.90 Q 718.38 748.90 719.45 748.85 Q 720.53 748.79 721.45 748.73 M 707.07 778.43 L 708.17 778.89 L 706.20 783.94 Q 705.62 785.39 705.01 786.37 Q 704.40 787.36 703.71 788.00 L 703.71 788.00 Q 702.78 788.87 701.50 789.18 Q 700.23 789.50 699.18 789.50 L 699.18 789.50 Q 698.08 789.50 697.18 789.10 Q 696.28 788.69 695.76 787.91 Q 695.24 787.13 695.24 786.02 L 695.24 786.02 Q 695.24 784.63 696.05 783.79 Q 696.86 782.95 698.31 782.95 L 698.31 782.95 Q 699.53 782.95 700.40 783.65 Q 701.27 784.34 701.27 785.68 L 701.27 785.68 Q 701.27 786.66 700.81 787.30 Q 700.34 787.94 699.70 788.29 L 699.70 788.29 Q 699.82 788.34 699.91 788.34 Q 699.99 788.34 700.05 788.34 L 700.05 788.34 Q 701.62 788.34 702.84 787.27 Q 704.05 786.20 704.98 783.82 L 704.98 783.82 L 707.07 778.43 M 729.34 771.99 L 729.34 771.99 Q 730.85 771.99 731.95 773.09 Q 733.05 774.19 733.05 775.70 L 733.05 775.70 Q 733.05 777.21 731.95 778.31 Q 730.85 779.41 729.34 779.41 L 729.34 779.41 Q 727.83 779.41 726.73 778.31 Q 725.63 777.21 725.63 775.70 L 725.63 775.70 Q 725.63 774.19 726.73 773.09 Q 727.83 771.99 729.34 771.99" fill="#1c1917"/>
    <text x="540" y="1120" text-anchor="middle" fill="#78716c" font-family="'Helvetica Neue', Arial, sans-serif" font-size="22" letter-spacing="5" style="text-transform:uppercase">From the Atelier Journal</text>
    <text x="540" y="1295" text-anchor="middle" fill="#D4B378" font-family="'Helvetica Neue', Arial, sans-serif" font-size="20" letter-spacing="7" style="text-transform:uppercase">Atelier</text>
  </svg>