<svg xmlns="http://www.w3.org/2000/svg" width="1080" height="1350" viewBox="0 0 1080 1350">
    <rect width="1080" height="1350" fill="#F7F5F2"/>
  <rect x="40" y="40" width="1000" height="1270" fill="none" stroke="#D4B378" stroke-width="1.5" opacity="0.5"/>
    <text x="540" y="210" text-anchor="middle" fill="#D4B378" font-family="'Helvetica Neue', Arial, sans-serif" font-size="27" letter-spacing="8" style="text-transform:uppercase">Cost Per Wear</text>
    <path d="M 395.31 480.16 L 395.31 480.16 Q 401.39 480.16 405.76 481.59 Q 410.13 483.01 413.18 485.29 L 413.18 485.29 Q 416.03 487.57 417.45 490.32 Q 418.88 493.08 418.88 495.74 L 418.88 495.74 Q 418.88 499.92 416.22 502.49 Q 413.56 505.05 409.95 505.05 L 409.95 505.05 Q 406.72 505.05 403.96 502.68 Q 401.21 500.30 401.21 496.50 L 401.21 496.50 Q 401.21 493.27 402.82 490.99 Q 404.44 488.71 407.48 487.57 L 407.48 487.57 Q 407.10 485.67 403.39 484.34 Q 399.69 483.01 395.70 483.01 L 395.70 483.01 Q 386.58 483.01 381.44 487.10 Q 376.31 491.18 374.13 498.12 Q 371.94 505.05 371.38 513.79 Q 370.81 522.53 370.81 531.65 L 370.81 531.65 L 370.81 559.77 Q 370.81 566.61 370.05 572.31 Q 369.29 578.01 367.67 583.04 Q 366.06 588.08 363.78 593.02 Q 361.50 597.96 358.46 603.28 L 358.46 603.28 Q 362.25 601.57 366.15 600.52 Q 370.05 599.48 374.80 599.48 L 374.80 599.48 Q 381.44 599.48 387.62 601.66 Q 393.80 603.85 400.16 605.94 Q 406.53 608.03 413.75 608.03 L 413.75 608.03 Q 420.59 608.03 423.63 604.71 Q 426.67 601.38 426.67 597.20 L 426.67 597.20 Q 426.67 590.55 422.20 586.37 Q 417.74 582.19 410.51 580.86 L 410.51 580.86 L 411.28 577.82 Q 417.36 578.77 422.96 581.72 Q 428.56 584.66 432.08 589.60 Q 435.60 594.54 435.60 601.57 L 435.60 601.57 Q 435.60 606.89 433.31 611.74 Q 431.04 616.58 426.38 619.62 Q 421.73 622.66 414.88 622.66 L 414.88 622.66 Q 407.48 622.66 401.11 619.43 Q 394.75 616.20 388.76 612.30 Q 382.78 608.41 376.50 606.32 L 376.50 606.32 Q 374.61 605.56 372.23 605.18 Q 369.86 604.80 367.19 604.80 L 367.19 604.80 Q 361.88 604.80 356.75 606.70 L 356.75 606.70 Q 352.38 614.30 347.15 618.48 Q 341.93 622.66 336.99 622.66 L 336.99 622.66 Q 335.66 622.66 334.80 622.38 Q 333.94 622.09 333.94 620.76 L 333.94 620.76 Q 333.94 618.86 336.51 616.01 Q 339.07 613.16 342.97 610.40 Q 346.87 607.65 351.05 606.13 L 351.05 606.13 Q 352.00 601.76 352.47 597.11 Q 352.94 592.45 353.04 586.18 Q 353.13 579.91 353.13 570.98 L 353.13 570.98 L 353.13 536.59 Q 353.13 524.81 355.23 514.64 Q 357.31 504.48 362.16 496.69 Q 367.00 488.90 375.08 484.53 Q 383.16 480.16 395.31 480.16 M 338.50 559.77 L 398.36 559.77 L 398.36 563.57 L 338.50 563.57 L 338.50 559.77 M 338.50 540.77 L 398.36 540.77 L 398.36 544.57 L 338.50 544.57 L 338.50 540.77 M 489.75 520.06 L 489.75 520.06 L 489.75 600.43 Q 489.75 609.55 493.93 612.78 Q 498.11 616.01 507.99 616.01 L 507.99 616.01 L 507.99 620.00 Q 504.19 619.81 496.87 619.52 Q 489.56 619.24 481.76 619.24 L 481.76 619.24 Q 473.03 619.24 464.95 619.52 Q 456.88 619.81 452.50 620.00 L 452.50 620.00 L 452.50 616.01 Q 462.00 616.01 467.32 612.88 Q 472.64 609.74 472.64 600.43 L 472.64 600.43 L 472.64 554.45 Q 472.64 545.33 470.75 540.96 Q 468.85 536.59 464.00 535.26 Q 459.16 533.93 450.61 533.93 L 450.61 533.93 L 450.61 529.75 Q 464.29 529.37 473.41 527.28 Q 482.53 525.19 489.75 520.06 M 535.92 598.34 L 535.92 598.34 Q 540.86 598.34 544.47 601.95 Q 548.08 605.56 548.08 610.50 L 548.08 610.50 Q 548.08 615.44 544.47 619.05 Q 540.86 622.66 535.92 622.66 L 535.92 622.66 Q 530.98 622.66 527.37 619.05 Q 523.75 615.44 523.75 610.50 L 523.75 610.50 Q 523.75 605.56 527.37 601.95 Q 530.98 598.34 535.92 598.34 M 619.71 512.65 L 623.32 512.65 Q 623.32 523.48 623.50 529.56 Q 623.70 535.64 624.08 540.39 L 624.08 540.39 Q 622.56 540.01 618.28 539.82 Q 614.00 539.63 608.50 539.53 Q 602.99 539.44 597.66 539.44 L 597.66 539.44 L 577.52 539.44 L 575.25 576.11 Q 579.43 574.02 584.56 572.22 Q 589.69 570.41 597.48 570.41 L 597.48 570.41 Q 609.07 570.41 616.48 574.21 Q 623.88 578.01 627.50 584.66 Q 631.11 591.31 631.11 599.67 L 631.11 599.67 Q 631.11 610.69 625.60 619.62 Q 620.09 628.55 610.87 634.91 Q 601.65 641.28 590.63 644.70 Q 579.62 648.12 568.40 648.12 L 568.40 648.12 L 568.40 644.70 Q 576.76 644.70 584.75 641.95 Q 592.73 639.19 599.09 633.77 Q 605.46 628.36 609.25 620.38 Q 613.06 612.40 613.06 601.57 L 613.06 601.57 Q 613.06 589.60 606.88 582.86 Q 600.71 576.11 589.12 576.11 L 589.12 576.11 Q 584.18 576.11 580.85 576.97 Q 577.52 577.82 573.53 579.34 L 573.53 579.34 L 571.63 578.20 L 575.25 521.58 Q 577.34 521.96 580.09 522.15 Q 582.85 522.34 585.50 522.34 L 585.50 522.34 L 606.98 522.34 Q 614.76 522.34 616.86 520.15 Q 618.95 517.97 619.71 512.65 L 619.71 512.65 M 696.66 519.49 L 696.66 519.49 Q 710.14 519.49 720.50 525.66 Q 730.86 531.84 736.75 543.05 Q 742.63 554.26 742.63 569.46 L 742.63 569.46 Q 742.63 584.66 736.56 596.73 Q 730.48 608.79 719.74 615.73 Q 709.00 622.66 694.57 622.66 L 694.57 622.66 Q 681.46 622.66 671.00 616.49 Q 660.56 610.31 654.57 599.00 Q 648.59 587.70 648.59 572.50 L 648.59 572.50 Q 648.59 557.49 654.57 545.52 Q 660.56 533.55 671.38 526.52 Q 682.22 519.49 696.66 519.49 M 694.95 522.91 L 694.95 522.91 Q 682.79 522.91 674.90 535.83 Q 667.01 548.75 667.01 571.93 L 667.01 571.93 Q 667.01 589.03 671.00 599.38 Q 675.00 609.74 681.74 614.49 Q 688.49 619.24 696.28 619.24 L 696.28 619.24 Q 708.63 619.24 716.42 606.23 Q 724.21 593.21 724.21 570.03 L 724.21 570.03 Q 724.21 552.93 720.22 542.58 Q 716.23 532.22 709.58 527.57 Q 702.93 522.91 694.95 522.91" fill="#1c1917"/>
    <text x="540" y="700" text-anchor="middle" fill="#78716c" font-family="'Helvetica Neue', Arial, sans-serif" font-size="30" letter-spacing="2">a £300 coat, worn 200 times</text>
    <line x1="480" y1="800" x2="600" y2="800" stroke="#D4B378" stroke-width="1.4" opacity="0.85"/>
    <path d="M 401.29 870.26 L 401.29 870.26 L 401.29 871.10 Q 399.87 871.15 399.13 871.52 Q 398.40 871.90 398.14 872.74 Q 397.89 873.58 397.89 875.14 L 397.89 875.14 L 397.89 900.21 Q 397.64 900.21 397.41 900.21 Q 397.18 900.21 396.93 900.21 L 396.93 900.21 L 379.29 872.95 L 379.29 895.13 Q 379.29 896.64 379.56 897.50 Q 379.83 898.36 380.65 898.72 Q 381.47 899.08 383.11 899.16 L 383.11 899.16 L 383.11 900.00 Q 382.35 899.92 381.13 899.89 Q 379.92 899.87 378.82 899.87 L 378.82 899.87 Q 377.77 899.87 376.70 899.89 Q 375.63 899.92 374.92 900.00 L 374.92 900.00 L 374.92 899.16 Q 376.35 899.08 377.08 898.72 Q 377.82 898.36 378.07 897.50 Q 378.32 896.64 378.32 895.13 L 378.32 895.13 L 378.32 874.72 Q 378.32 873.16 378.07 872.43 Q 377.82 871.69 377.08 871.42 Q 376.35 871.15 374.92 871.10 L 374.92 871.10 L 374.92 870.26 Q 375.63 870.31 376.70 870.35 Q 377.77 870.39 378.82 870.39 L 378.82 870.39 Q 379.75 870.39 380.59 870.35 Q 381.43 870.31 382.10 870.26 L 382.10 870.26 L 396.93 893.11 L 396.93 875.14 Q 396.93 873.58 396.65 872.74 Q 396.38 871.90 395.56 871.52 Q 394.74 871.15 393.10 871.10 L 393.10 871.10 L 393.10 870.26 Q 393.86 870.31 395.10 870.35 Q 396.34 870.39 397.39 870.39 L 397.39 870.39 Q 398.48 870.39 399.55 870.35 Q 400.62 870.31 401.29 870.26 M 414.31 877.78 L 414.31 877.78 Q 417.00 877.78 419.14 878.96 Q 421.29 880.13 422.57 882.65 Q 423.85 885.17 423.85 889.21 L 423.85 889.21 Q 423.85 893.24 422.57 895.74 Q 421.29 898.24 419.14 899.41 Q 417.00 900.59 414.31 900.59 L 414.31 900.59 Q 411.67 900.59 409.51 899.41 Q 407.34 898.24 406.06 895.74 Q 404.78 893.24 404.78 889.21 L 404.78 889.21 Q 404.78 885.17 406.06 882.65 Q 407.34 880.13 409.51 878.96 Q 411.67 877.78 414.31 877.78 M 414.31 878.62 L 414.31 878.62 Q 411.92 878.62 410.39 881.10 Q 408.85 883.58 408.85 889.21 L 408.85 889.21 Q 408.85 894.83 410.39 897.29 Q 411.92 899.75 414.31 899.75 L 414.31 899.75 Q 416.71 899.75 418.24 897.29 Q 419.77 894.83 419.77 889.21 L 419.77 889.21 Q 419.77 883.58 418.24 881.10 Q 416.71 878.62 414.31 878.62 M 433.80 871.40 L 433.80 871.40 L 433.80 878.41 L 440.02 878.41 L 440.02 879.25 L 433.80 879.25 L 433.80 895.51 Q 433.80 897.48 434.52 898.28 Q 435.23 899.08 436.49 899.08 L 436.49 899.08 Q 437.75 899.08 438.67 898.05 Q 439.60 897.02 440.27 894.58 L 440.27 894.58 L 441.11 894.79 Q 440.69 897.23 439.45 898.91 Q 438.21 900.59 435.65 900.59 L 435.65 900.59 Q 434.22 900.59 433.30 900.23 Q 432.38 899.87 431.66 899.20 L 431.66 899.20 Q 430.74 898.24 430.38 896.89 Q 430.02 895.55 430.02 893.32 L 430.02 893.32 L 430.02 879.25 L 425.99 879.25 L 425.99 878.41 L 430.02 878.41 L 430.02 871.99 Q 431.07 871.94 432.04 871.82 Q 433.00 871.69 433.80 871.40 M 458.33 900.29 L 458.33 900.29 Q 456.61 900.29 455.35 899.64 Q 454.09 898.99 453.44 897.82 Q 452.79 896.64 452.79 895.09 L 452.79 895.09 Q 452.79 893.24 453.65 892.06 Q 454.51 890.89 455.85 890.17 Q 457.20 889.46 458.69 888.98 Q 460.18 888.49 461.52 888.05 Q 462.87 887.61 463.73 887.02 Q 464.59 886.43 464.59 885.47 L 464.59 885.47 L 464.59 882.86 Q 464.59 881.10 464.06 880.18 Q 463.54 879.25 462.66 878.94 Q 461.77 878.62 460.68 878.62 L 460.68 878.62 Q 459.63 878.62 458.44 878.92 Q 457.24 879.21 456.52 880.13 L 456.52 880.13 Q 457.32 880.30 457.91 880.97 Q 458.50 881.65 458.50 882.70 L 458.50 882.70 Q 458.50 883.75 457.83 884.36 Q 457.15 884.96 456.11 884.96 L 456.11 884.96 Q 454.89 884.96 454.32 884.19 Q 453.75 883.41 453.75 882.44 L 453.75 882.44 Q 453.75 881.35 454.30 880.68 Q 454.85 880.01 455.69 879.42 L 455.69 879.42 Q 456.65 878.75 458.18 878.26 Q 459.72 877.78 461.65 877.78 L 461.65 877.78 Q 463.37 877.78 464.59 878.18 Q 465.81 878.58 466.61 879.34 L 466.61 879.34 Q 467.70 880.34 468.03 881.79 Q 468.37 883.24 468.37 885.26 L 468.37 885.26 L 468.37 896.93 Q 468.37 897.98 468.68 898.45 Q 469.00 898.91 469.67 898.91 L 469.67 898.91 Q 470.13 898.91 470.55 898.70 Q 470.97 898.49 471.56 898.03 L 471.56 898.03 L 472.02 898.74 Q 471.14 899.41 470.34 899.85 Q 469.55 900.29 468.20 900.29 L 468.20 900.29 Q 466.98 900.29 466.19 899.87 Q 465.39 899.45 464.99 898.63 Q 464.59 897.82 464.59 896.56 L 464.59 896.56 Q 463.45 898.45 461.88 899.37 Q 460.31 900.29 458.33 900.29 M 459.84 898.61 L 459.84 898.61 Q 461.23 898.61 462.43 897.82 Q 463.62 897.02 464.59 895.42 L 464.59 895.42 L 464.59 887.19 Q 464.08 887.90 463.12 888.39 Q 462.15 888.87 461.02 889.35 Q 459.88 889.84 458.86 890.49 Q 457.83 891.14 457.15 892.19 Q 456.48 893.24 456.48 894.92 L 456.48 894.92 Q 456.48 896.60 457.39 897.61 Q 458.29 898.61 459.84 898.61 M 485.76 877.78 L 485.76 877.78 Q 489.20 877.78 491.47 880.62 Q 493.74 883.45 493.74 889.21 L 493.74 889.21 Q 493.74 892.99 492.46 895.53 Q 491.18 898.07 489.03 899.33 Q 486.89 900.59 484.37 900.59 L 484.37 900.59 Q 482.27 900.59 480.32 899.39 Q 478.37 898.19 477.40 895.84 L 477.40 895.84 L 478.24 896.30 Q 479.29 897.98 480.84 898.80 Q 482.40 899.62 484.04 899.62 L 484.04 899.62 Q 486.85 899.62 488.26 897.08 Q 489.66 894.54 489.66 889.21 L 489.66 889.21 Q 489.66 885.80 489.12 883.54 Q 488.57 881.27 487.44 880.15 Q 486.30 879.04 484.54 879.04 L 484.54 879.04 Q 482.61 879.04 480.95 880.78 Q 479.29 882.53 478.91 885.89 L 478.91 885.89 L 478.41 885.30 Q 478.87 881.73 480.91 879.76 Q 482.94 877.78 485.76 877.78 M 479.20 867.11 L 479.20 867.11 L 479.20 897.82 Q 478.66 898.28 478.09 898.76 Q 477.52 899.24 476.98 899.71 Q 476.43 900.17 475.84 900.67 L 475.84 900.67 L 475.13 900.38 Q 475.30 899.79 475.36 899.18 Q 475.43 898.57 475.43 897.94 L 475.43 897.94 L 475.43 872.15 Q 475.43 870.26 474.75 869.36 Q 474.08 868.46 472.23 868.46 L 472.23 868.46 L 472.23 867.58 Q 473.58 867.70 474.84 867.70 L 474.84 867.70 Q 476.06 867.70 477.17 867.55 Q 478.28 867.41 479.20 867.11 M 507.22 877.78 L 507.22 877.78 Q 509.91 877.78 512.05 878.96 Q 514.19 880.13 515.47 882.65 Q 516.75 885.17 516.75 889.21 L 516.75 889.21 Q 516.75 893.24 515.47 895.74 Q 514.19 898.24 512.05 899.41 Q 509.91 900.59 507.22 900.59 L 507.22 900.59 Q 504.57 900.59 502.41 899.41 Q 500.25 898.24 498.97 895.74 Q 497.69 893.24 497.69 889.21 L 497.69 889.21 Q 497.69 885.17 498.97 882.65 Q 500.25 880.13 502.41 878.96 Q 504.57 877.78 507.22 877.78 M 507.22 878.62 L 507.22 878.62 Q 504.82 878.62 503.29 881.10 Q 501.76 883.58 501.76 889.21 L 501.76 889.21 Q 501.76 894.83 503.29 897.29 Q 504.82 899.75 507.22 899.75 L 507.22 899.75 Q 509.61 899.75 511.15 897.29 Q 512.68 894.83 512.68 889.21 L 512.68 889.21 Q 512.68 883.58 511.15 881.10 Q 509.61 878.62 507.22 878.62 M 539.01 877.91 L 539.01 877.91 L 539.01 895.46 Q 539.01 897.35 539.71 898.26 Q 540.40 899.16 542.20 899.16 L 542.20 899.16 L 542.20 900.04 Q 540.90 899.92 539.60 899.92 L 539.60 899.92 Q 538.38 899.92 537.27 900.04 Q 536.16 900.17 535.23 900.50 L 535.23 900.50 L 535.23 895.55 Q 534.18 898.28 532.27 899.43 Q 530.36 900.59 528.35 900.59 L 528.35 900.59 Q 526.88 900.59 525.78 900.17 Q 524.69 899.75 523.98 898.99 L 523.98 898.99 Q 523.18 898.15 522.88 896.81 Q 522.59 895.46 522.59 893.49 L 522.59 893.49 L 522.59 882.95 Q 522.59 881.06 521.92 880.15 Q 521.25 879.25 519.40 879.25 L 519.40 879.25 L 519.40 878.37 Q 520.74 878.50 522.00 878.50 L 522.00 878.50 Q 523.22 878.50 524.33 878.35 Q 525.45 878.20 526.37 877.91 L 526.37 877.91 L 526.37 894.41 Q 526.37 895.72 526.54 896.81 Q 526.71 897.90 527.38 898.57 Q 528.05 899.24 529.56 899.24 L 529.56 899.24 Q 531.20 899.24 532.48 898.24 Q 533.76 897.23 534.50 895.51 Q 535.23 893.78 535.23 891.64 L 535.23 891.64 L 535.23 882.95 Q 535.23 881.06 534.56 880.15 Q 533.89 879.25 532.04 879.25 L 532.04 879.25 L 532.04 878.37 Q 533.38 878.50 534.64 878.50 L 534.64 878.50 Q 535.86 878.50 536.98 878.35 Q 538.09 878.20 539.01 877.91 M 551.11 871.40 L 551.11 871.40 L 551.11 878.41 L 557.33 878.41 L 557.33 879.25 L 551.11 879.25 L 551.11 895.51 Q 551.11 897.48 551.82 898.28 Q 552.54 899.08 553.80 899.08 L 553.80 899.08 Q 555.06 899.08 555.98 898.05 Q 556.90 897.02 557.58 894.58 L 557.58 894.58 L 558.42 894.79 Q 558.00 897.23 556.76 898.91 Q 555.52 900.59 552.96 900.59 L 552.96 900.59 Q 551.53 900.59 550.61 900.23 Q 549.68 899.87 548.97 899.20 L 548.97 899.20 Q 548.04 898.24 547.69 896.89 Q 547.33 895.55 547.33 893.32 L 547.33 893.32 L 547.33 879.25 L 543.30 879.25 L 543.30 878.41 L 547.33 878.41 L 547.33 871.99 Q 548.38 871.94 549.35 871.82 Q 550.31 871.69 551.11 871.40 M 583.53 877.78 L 583.53 877.78 Q 585.00 877.78 586.10 878.20 Q 587.19 878.62 587.90 879.38 L 587.90 879.38 Q 588.70 880.22 588.99 881.56 Q 589.29 882.91 589.29 884.88 L 589.29 884.88 L 589.29 896.09 Q 589.29 897.86 590.02 898.49 Q 590.76 899.12 592.48 899.12 L 592.48 899.12 L 592.48 900.00 Q 591.77 899.96 590.30 899.89 Q 588.83 899.83 587.44 899.83 L 587.44 899.83 Q 586.05 899.83 584.73 899.89 Q 583.41 899.96 582.74 900.00 L 582.74 900.00 L 582.74 899.12 Q 584.25 899.12 584.88 898.49 Q 585.51 897.86 585.51 896.09 L 585.51 896.09 L 585.51 883.96 Q 585.51 882.65 585.34 881.56 Q 585.17 880.47 584.50 879.80 Q 583.83 879.13 582.32 879.13 L 582.32 879.13 Q 580.68 879.13 579.40 880.13 Q 578.12 881.14 577.38 882.88 Q 576.65 884.63 576.65 886.77 L 576.65 886.77 L 576.65 896.09 Q 576.65 897.86 577.28 898.49 Q 577.91 899.12 579.42 899.12 L 579.42 899.12 L 579.42 900.00 Q 578.75 899.96 577.42 899.89 Q 576.10 899.83 574.71 899.83 L 574.71 899.83 Q 573.33 899.83 571.86 899.89 Q 570.39 899.96 569.67 900.00 L 569.67 900.00 L 569.67 899.12 Q 571.40 899.12 572.13 898.49 Q 572.87 897.86 572.87 896.09 L 572.87 896.09 L 572.87 882.95 Q 572.87 881.06 572.19 880.15 Q 571.52 879.25 569.67 879.25 L 569.67 879.25 L 569.67 878.37 Q 571.02 878.50 572.28 878.50 L 572.28 878.50 Q 573.50 878.50 574.61 878.35 Q 575.72 878.20 576.65 877.91 L 576.65 877.91 L 576.65 882.86 Q 577.74 880.13 579.63 878.96 Q 581.52 877.78 583.53 877.78 M 596.18 877.78 L 596.18 877.78 Q 597.65 877.78 598.74 878.20 Q 599.83 878.62 600.54 879.38 L 600.54 879.38 Q 601.34 880.22 601.63 881.56 Q 601.93 882.91 601.93 884.88 L 601.93 884.88 L 601.93 896.09 Q 601.93 897.86 602.66 898.49 Q 603.40 899.12 605.12 899.12 L 605.12 899.12 L 605.12 900.00 Q 604.41 899.96 602.94 899.89 Q 601.47 899.83 600.08 899.83 L 600.08 899.83 Q 598.70 899.83 597.37 899.89 Q 596.05 899.96 595.38 900.00 L 595.38 900.00 L 595.38 899.12 Q 596.89 899.12 597.52 898.49 Q 598.15 897.86 598.15 896.09 L 598.15 896.09 L 598.15 883.96 Q 598.15 882.65 597.98 881.56 Q 597.81 880.47 597.14 879.80 Q 596.47 879.13 594.96 879.13 L 594.96 879.13 Q 593.32 879.13 592.04 880.13 Q 590.76 881.14 590.02 882.86 Q 589.29 884.59 589.29 886.73 L 589.29 886.73 L 589.16 882.82 Q 590.30 879.92 592.23 878.85 Q 594.16 877.78 596.18 877.78 M 617.26 877.78 L 617.26 877.78 Q 619.95 877.78 622.09 878.96 Q 624.23 880.13 625.51 882.65 Q 626.79 885.17 626.79 889.21 L 626.79 889.21 Q 626.79 893.24 625.51 895.74 Q 624.23 898.24 622.09 899.41 Q 619.95 900.59 617.26 900.59 L 617.26 900.59 Q 614.61 900.59 612.45 899.41 Q 610.29 898.24 609.01 895.74 Q 607.73 893.24 607.73 889.21 L 607.73 889.21 Q 607.73 885.17 609.01 882.65 Q 610.29 880.13 612.45 878.96 Q 614.61 877.78 617.26 877.78 M 617.26 878.62 L 617.26 878.62 Q 614.87 878.62 613.33 881.10 Q 611.80 883.58 611.80 889.21 L 611.80 889.21 Q 611.80 894.83 613.33 897.29 Q 614.87 899.75 617.26 899.75 L 617.26 899.75 Q 619.65 899.75 621.19 897.29 Q 622.72 894.83 622.72 889.21 L 622.72 889.21 Q 622.72 883.58 621.19 881.10 Q 619.65 878.62 617.26 878.62 M 644.10 877.78 L 644.10 877.78 Q 645.69 877.78 646.76 878.20 Q 647.84 878.62 648.55 879.38 L 648.55 879.38 Q 649.35 880.22 649.68 881.48 Q 650.02 882.74 650.02 884.88 L 650.02 884.88 L 650.02 896.09 Q 650.02 897.86 650.75 898.49 Q 651.49 899.12 653.21 899.12 L 653.21 899.12 L 653.21 900.00 Q 652.50 899.96 651.03 899.89 Q 649.56 899.83 648.17 899.83 L 648.17 899.83 Q 646.79 899.83 645.46 899.89 Q 644.14 899.96 643.47 900.00 L 643.47 900.00 L 643.47 899.12 Q 644.98 899.12 645.61 898.49 Q 646.24 897.86 646.24 896.09 L 646.24 896.09 L 646.24 883.96 Q 646.24 882.65 646.03 881.56 Q 645.82 880.47 645.08 879.80 Q 644.35 879.13 642.84 879.13 L 642.84 879.13 Q 641.07 879.13 639.75 880.13 Q 638.43 881.14 637.69 882.88 Q 636.96 884.63 636.96 886.77 L 636.96 886.77 L 636.96 896.09 Q 636.96 897.86 637.59 898.49 Q 638.22 899.12 639.73 899.12 L 639.73 899.12 L 639.73 900.00 Q 639.06 899.96 637.73 899.89 Q 636.41 899.83 635.03 899.83 L 635.03 899.83 Q 633.64 899.83 632.17 899.89 Q 630.70 899.96 629.99 900.00 L 629.99 900.00 L 629.99 899.12 Q 631.71 899.12 632.44 898.49 Q 633.18 897.86 633.18 896.09 L 633.18 896.09 L 633.18 882.95 Q 633.18 881.06 632.51 880.15 Q 631.83 879.25 629.99 879.25 L 629.99 879.25 L 629.99 878.37 Q 631.33 878.50 632.59 878.50 L 632.59 878.50 Q 633.81 878.50 634.92 878.35 Q 636.03 878.20 636.96 877.91 L 636.96 877.91 L 636.96 882.86 Q 638.05 880.01 640.00 878.89 Q 641.96 877.78 644.10 877.78 M 665.26 877.78 L 665.26 877.78 Q 668.96 877.78 671.04 880.03 Q 673.12 882.28 673.12 887.02 L 673.12 887.02 L 658.29 887.02 L 658.25 886.22 L 669.09 886.22 Q 669.17 884.17 668.75 882.42 Q 668.33 880.68 667.43 879.63 Q 666.52 878.58 665.10 878.58 L 665.10 878.58 Q 663.16 878.58 661.67 880.51 Q 660.18 882.44 659.89 886.64 L 659.89 886.64 L 660.01 886.81 Q 659.93 887.44 659.89 888.20 Q 659.85 888.95 659.85 889.71 L 659.85 889.71 Q 659.85 892.57 660.77 894.62 Q 661.70 896.68 663.19 897.75 Q 664.68 898.82 666.27 898.82 L 666.27 898.82 Q 667.53 898.82 668.67 898.42 Q 669.80 898.03 670.77 897.10 Q 671.73 896.18 672.45 894.62 L 672.45 894.62 L 673.29 894.96 Q 672.83 896.35 671.77 897.65 Q 670.73 898.95 669.13 899.77 Q 667.53 900.59 665.43 900.59 L 665.43 900.59 Q 662.41 900.59 660.25 899.20 Q 658.08 897.82 656.93 895.36 Q 655.77 892.90 655.77 889.71 L 655.77 889.71 Q 655.77 886.01 656.95 883.35 Q 658.13 880.68 660.27 879.23 Q 662.41 877.78 665.26 877.78 M 695.84 878.37 L 695.84 878.37 L 695.84 879.21 Q 695.04 879.29 694.37 879.92 Q 693.70 880.55 693.11 882.15 L 693.11 882.15 L 686.22 900.21 L 685.51 900.21 L 677.78 881.60 Q 676.98 879.97 676.21 879.61 Q 675.43 879.25 674.92 879.25 L 674.92 879.25 L 674.92 878.37 Q 675.85 878.50 676.86 878.56 Q 677.87 878.62 679.04 878.62 L 679.04 878.62 Q 680.34 878.62 681.79 878.54 Q 683.24 878.45 684.50 878.37 L 684.50 878.37 L 684.50 879.25 Q 683.45 879.25 682.63 879.40 Q 681.81 879.55 681.60 880.28 Q 681.39 881.02 682.11 882.78 L 682.11 882.78 L 687.27 895.59 L 687.02 895.67 L 691.81 883.16 Q 692.36 881.77 692.25 880.95 Q 692.14 880.13 691.39 879.71 Q 690.63 879.29 689.12 879.21 L 689.12 879.21 L 689.12 878.37 Q 689.88 878.41 690.42 878.43 Q 690.97 878.45 691.49 878.48 Q 692.02 878.50 692.65 878.50 L 692.65 878.50 Q 693.62 878.50 694.39 878.45 Q 695.17 878.41 695.84 878.37 M 685.42 899.87 L 686.22 900.21 L 684.79 903.86 Q 684.38 904.91 683.93 905.63 Q 683.49 906.34 682.99 906.80 L 682.99 906.80 Q 682.32 907.43 681.39 907.66 Q 680.47 907.90 679.71 907.90 L 679.71 907.90 Q 678.91 907.90 678.26 907.60 Q 677.61 907.31 677.24 906.74 Q 676.86 906.17 676.86 905.38 L 676.86 905.38 Q 676.86 904.37 677.44 903.76 Q 678.03 903.15 679.08 903.15 L 679.08 903.15 Q 679.96 903.15 680.59 903.65 Q 681.22 904.16 681.22 905.12 L 681.22 905.12 Q 681.22 905.84 680.89 906.30 Q 680.55 906.76 680.09 907.01 L 680.09 907.01 Q 680.17 907.06 680.24 907.06 Q 680.30 907.06 680.34 907.06 L 680.34 907.06 Q 681.48 907.06 682.36 906.28 Q 683.24 905.50 683.91 903.78 L 683.91 903.78 L 685.42 899.87 M 701.55 895.21 L 701.55 895.21 Q 702.64 895.21 703.44 896.01 Q 704.24 896.81 704.24 897.90 L 704.24 897.90 Q 704.24 898.99 703.44 899.79 Q 702.64 900.59 701.55 900.59 L 701.55 900.59 Q 700.46 900.59 699.66 899.79 Q 698.87 898.99 698.87 897.90 L 698.87 897.90 Q 698.87 896.81 699.66 896.01 Q 700.46 895.21 701.55 895.21" fill="#44403c"/>
    <path d="M 400.73 928.05 L 400.73 928.05 L 410.98 954.47 Q 411.61 956.07 412.40 956.59 Q 413.20 957.12 413.87 957.16 L 413.87 957.16 L 413.87 958.00 Q 413.03 957.92 411.82 957.89 Q 410.60 957.87 409.38 957.87 L 409.38 957.87 Q 407.74 957.87 406.31 957.89 Q 404.89 957.92 404.00 958.00 L 404.00 958.00 L 404.00 957.16 Q 406.15 957.08 406.73 956.42 Q 407.32 955.77 406.48 953.63 L 406.48 953.63 L 398.67 932.76 L 399.34 932.21 L 392.03 951.20 Q 391.36 952.88 391.24 954.03 Q 391.11 955.19 391.47 955.86 Q 391.82 956.53 392.69 956.82 Q 393.55 957.12 394.85 957.16 L 394.85 957.16 L 394.85 958.00 Q 393.67 957.92 392.39 957.89 Q 391.11 957.87 390.02 957.87 L 390.02 957.87 Q 388.97 957.87 388.23 957.89 Q 387.50 957.92 386.87 958.00 L 386.87 958.00 L 386.87 957.16 Q 387.71 956.95 388.59 956.17 Q 389.47 955.40 390.19 953.51 L 390.19 953.51 L 400.06 928.05 Q 400.22 928.05 400.39 928.05 Q 400.56 928.05 400.73 928.05 M 393.76 945.90 L 405.85 945.90 L 405.85 946.74 L 393.34 946.74 L 393.76 945.90 M 427.31 935.78 L 427.31 935.78 Q 430.76 935.78 433.03 938.62 Q 435.29 941.45 435.29 947.21 L 435.29 947.21 Q 435.29 950.99 434.01 953.53 Q 432.73 956.07 430.59 957.33 Q 428.45 958.59 425.93 958.59 L 425.93 958.59 Q 423.83 958.59 421.87 957.39 Q 419.92 956.19 418.96 953.84 L 418.96 953.84 L 419.80 954.30 Q 420.85 955.98 422.40 956.80 Q 423.95 957.62 425.59 957.62 L 425.59 957.62 Q 428.41 957.62 429.81 955.08 Q 431.22 952.54 431.22 947.21 L 431.22 947.21 Q 431.22 943.80 430.67 941.54 Q 430.13 939.27 428.99 938.15 Q 427.86 937.04 426.10 937.04 L 426.10 937.04 Q 424.16 937.04 422.50 938.78 Q 420.85 940.53 420.47 943.89 L 420.47 943.89 L 419.96 943.30 Q 420.43 939.73 422.46 937.76 Q 424.50 935.78 427.31 935.78 M 420.76 925.11 L 420.76 925.11 L 420.76 955.82 Q 420.22 956.28 419.65 956.76 Q 419.08 957.24 418.54 957.71 Q 417.99 958.17 417.40 958.67 L 417.40 958.67 L 416.69 958.38 Q 416.86 957.79 416.92 957.18 Q 416.98 956.57 416.98 955.94 L 416.98 955.94 L 416.98 930.15 Q 416.98 928.26 416.31 927.36 Q 415.64 926.46 413.79 926.46 L 413.79 926.46 L 413.79 925.58 Q 415.13 925.70 416.39 925.70 L 416.39 925.70 Q 417.61 925.70 418.72 925.55 Q 419.84 925.41 420.76 925.11 M 448.78 935.78 L 448.78 935.78 Q 451.46 935.78 453.61 936.96 Q 455.75 938.13 457.03 940.65 Q 458.31 943.17 458.31 947.21 L 458.31 947.21 Q 458.31 951.24 457.03 953.74 Q 455.75 956.24 453.61 957.41 Q 451.46 958.59 448.78 958.59 L 448.78 958.59 Q 446.13 958.59 443.97 957.41 Q 441.80 956.24 440.52 953.74 Q 439.24 951.24 439.24 947.21 L 439.24 947.21 Q 439.24 943.17 440.52 940.65 Q 441.80 938.13 443.97 936.96 Q 446.13 935.78 448.78 935.78 M 448.78 936.62 L 448.78 936.62 Q 446.38 936.62 444.85 939.10 Q 443.32 941.58 443.32 947.21 L 443.32 947.21 Q 443.32 952.83 444.85 955.29 Q 446.38 957.75 448.78 957.75 L 448.78 957.75 Q 451.17 957.75 452.70 955.29 Q 454.24 952.83 454.24 947.21 L 454.24 947.21 Q 454.24 941.58 452.70 939.10 Q 451.17 936.62 448.78 936.62 M 480.57 935.91 L 480.57 935.91 L 480.57 953.46 Q 480.57 955.35 481.26 956.26 Q 481.96 957.16 483.76 957.16 L 483.76 957.16 L 483.76 958.04 Q 482.46 957.92 481.16 957.92 L 481.16 957.92 Q 479.94 957.92 478.83 958.04 Q 477.71 958.17 476.79 958.50 L 476.79 958.50 L 476.79 953.55 Q 475.74 956.28 473.83 957.43 Q 471.92 958.59 469.90 958.59 L 469.90 958.59 Q 468.43 958.59 467.34 958.17 Q 466.25 957.75 465.53 956.99 L 465.53 956.99 Q 464.74 956.15 464.44 954.81 Q 464.15 953.46 464.15 951.49 L 464.15 951.49 L 464.15 940.95 Q 464.15 939.06 463.48 938.15 Q 462.80 937.25 460.96 937.25 L 460.96 937.25 L 460.96 936.37 Q 462.30 936.50 463.56 936.50 L 463.56 936.50 Q 464.78 936.50 465.89 936.35 Q 467.00 936.20 467.93 935.91 L 467.93 935.91 L 467.93 952.41 Q 467.93 953.72 468.10 954.81 Q 468.26 955.90 468.94 956.57 Q 469.61 957.24 471.12 957.24 L 471.12 957.24 Q 472.76 957.24 474.04 956.24 Q 475.32 955.23 476.06 953.51 Q 476.79 951.78 476.79 949.64 L 476.79 949.64 L 476.79 940.95 Q 476.79 939.06 476.12 938.15 Q 475.45 937.25 473.60 937.25 L 473.60 937.25 L 473.60 936.37 Q 474.94 936.50 476.20 936.50 L 476.20 936.50 Q 477.42 936.50 478.53 936.35 Q 479.65 936.20 480.57 935.91 M 492.67 929.40 L 492.67 929.40 L 492.67 936.41 L 498.88 936.41 L 498.88 937.25 L 492.67 937.25 L 492.67 953.51 Q 492.67 955.48 493.38 956.28 Q 494.09 957.08 495.35 957.08 L 495.35 957.08 Q 496.61 957.08 497.54 956.05 Q 498.46 955.02 499.13 952.58 L 499.13 952.58 L 499.97 952.79 Q 499.55 955.23 498.31 956.91 Q 497.08 958.59 494.51 958.59 L 494.51 958.59 Q 493.09 958.59 492.16 958.23 Q 491.24 957.87 490.52 957.20 L 490.52 957.20 Q 489.60 956.24 489.24 954.89 Q 488.89 953.55 488.89 951.32 L 488.89 951.32 L 488.89 937.25 L 484.85 937.25 L 484.85 936.41 L 488.89 936.41 L 488.89 929.99 Q 489.94 929.94 490.90 929.82 Q 491.87 929.69 492.67 929.40 M 517.19 958.29 L 517.19 958.29 Q 515.47 958.29 514.21 957.64 Q 512.95 956.99 512.30 955.82 Q 511.65 954.64 511.65 953.09 L 511.65 953.09 Q 511.65 951.24 512.51 950.06 Q 513.37 948.89 514.72 948.17 Q 516.06 947.46 517.55 946.98 Q 519.04 946.49 520.39 946.05 Q 521.73 945.61 522.59 945.02 Q 523.45 944.43 523.45 943.47 L 523.45 943.47 L 523.45 940.86 Q 523.45 939.10 522.93 938.18 Q 522.40 937.25 521.52 936.94 Q 520.64 936.62 519.55 936.62 L 519.55 936.62 Q 518.50 936.62 517.30 936.92 Q 516.10 937.21 515.39 938.13 L 515.39 938.13 Q 516.19 938.30 516.77 938.97 Q 517.36 939.65 517.36 940.70 L 517.36 940.70 Q 517.36 941.75 516.69 942.36 Q 516.02 942.96 514.97 942.96 L 514.97 942.96 Q 513.75 942.96 513.18 942.19 Q 512.62 941.41 512.62 940.44 L 512.62 940.44 Q 512.62 939.35 513.16 938.68 Q 513.71 938.01 514.55 937.42 L 514.55 937.42 Q 515.51 936.75 517.05 936.26 Q 518.58 935.78 520.51 935.78 L 520.51 935.78 Q 522.23 935.78 523.45 936.18 Q 524.67 936.58 525.47 937.34 L 525.47 937.34 Q 526.56 938.34 526.90 939.79 Q 527.23 941.24 527.23 943.26 L 527.23 943.26 L 527.23 954.93 Q 527.23 955.98 527.55 956.45 Q 527.86 956.91 528.53 956.91 L 528.53 956.91 Q 529.00 956.91 529.42 956.70 Q 529.84 956.49 530.42 956.03 L 530.42 956.03 L 530.89 956.74 Q 530.00 957.41 529.21 957.85 Q 528.41 958.29 527.06 958.29 L 527.06 958.29 Q 525.85 958.29 525.05 957.87 Q 524.25 957.45 523.85 956.63 Q 523.45 955.82 523.45 954.56 L 523.45 954.56 Q 522.32 956.45 520.74 957.37 Q 519.17 958.29 517.19 958.29 M 518.71 956.61 L 518.71 956.61 Q 520.09 956.61 521.29 955.82 Q 522.49 955.02 523.45 953.42 L 523.45 953.42 L 523.45 945.19 Q 522.95 945.90 521.98 946.39 Q 521.02 946.87 519.88 947.35 Q 518.75 947.84 517.72 948.49 Q 516.69 949.14 516.02 950.19 Q 515.35 951.24 515.35 952.92 L 515.35 952.92 Q 515.35 954.60 516.25 955.61 Q 517.15 956.61 518.71 956.61 M 538.91 929.40 L 538.91 929.40 L 538.91 936.41 L 545.12 936.41 L 545.12 937.25 L 538.91 937.25 L 538.91 953.51 Q 538.91 955.48 539.62 956.28 Q 540.34 957.08 541.60 957.08 L 541.60 957.08 Q 542.86 957.08 543.78 956.05 Q 544.70 955.02 545.38 952.58 L 545.38 952.58 L 546.22 952.79 Q 545.80 955.23 544.56 956.91 Q 543.32 958.59 540.76 958.59 L 540.76 958.59 Q 539.33 958.59 538.40 958.23 Q 537.48 957.87 536.77 957.20 L 536.77 957.20 Q 535.84 956.24 535.49 954.89 Q 535.13 953.55 535.13 951.32 L 535.13 951.32 L 535.13 937.25 L 531.10 937.25 L 531.10 936.41 L 535.13 936.41 L 535.13 929.99 Q 536.18 929.94 537.14 929.82 Q 538.11 929.69 538.91 929.40 M 553.78 929.40 L 553.78 929.40 L 553.78 936.41 L 559.99 936.41 L 559.99 937.25 L 553.78 937.25 L 553.78 953.51 Q 553.78 955.48 554.49 956.28 Q 555.20 957.08 556.46 957.08 L 556.46 957.08 Q 557.72 957.08 558.65 956.05 Q 559.57 955.02 560.24 952.58 L 560.24 952.58 L 561.08 952.79 Q 560.66 955.23 559.43 956.91 Q 558.19 958.59 555.62 958.59 L 555.62 958.59 Q 554.20 958.59 553.27 958.23 Q 552.35 957.87 551.63 957.20 L 551.63 957.20 Q 550.71 956.24 550.35 954.89 Q 550.00 953.55 550.00 951.32 L 550.00 951.32 L 550.00 937.25 L 545.96 937.25 L 545.96 936.41 L 550.00 936.41 L 550.00 929.99 Q 551.05 929.94 552.01 929.82 Q 552.98 929.69 553.78 929.40 M 572.09 935.78 L 572.09 935.78 Q 575.78 935.78 577.86 938.03 Q 579.94 940.28 579.94 945.02 L 579.94 945.02 L 565.12 945.02 L 565.07 944.22 L 575.91 944.22 Q 575.99 942.17 575.57 940.42 Q 575.15 938.68 574.25 937.63 Q 573.35 936.58 571.92 936.58 L 571.92 936.58 Q 569.99 936.58 568.50 938.51 Q 567.01 940.44 566.71 944.64 L 566.71 944.64 L 566.84 944.81 Q 566.75 945.44 566.71 946.20 Q 566.67 946.95 566.67 947.71 L 566.67 947.71 Q 566.67 950.57 567.59 952.62 Q 568.52 954.68 570.01 955.75 Q 571.50 956.82 573.10 956.82 L 573.10 956.82 Q 574.36 956.82 575.49 956.42 Q 576.62 956.03 577.59 955.10 Q 578.56 954.18 579.27 952.62 L 579.27 952.62 L 580.11 952.96 Q 579.65 954.35 578.60 955.65 Q 577.55 956.95 575.95 957.77 Q 574.36 958.59 572.26 958.59 L 572.26 958.59 Q 569.23 958.59 567.07 957.20 Q 564.91 955.82 563.75 953.36 Q 562.60 950.90 562.60 947.71 L 562.60 947.71 Q 562.60 944.01 563.77 941.35 Q 564.95 938.68 567.09 937.23 Q 569.23 935.78 572.09 935.78 M 597.25 935.78 L 597.25 935.78 Q 598.84 935.78 599.91 936.20 Q 600.98 936.62 601.70 937.38 L 601.70 937.38 Q 602.50 938.22 602.83 939.48 Q 603.17 940.74 603.17 942.88 L 603.17 942.88 L 603.17 954.09 Q 603.17 955.86 603.90 956.49 Q 604.64 957.12 606.36 957.12 L 606.36 957.12 L 606.36 958.00 Q 605.65 957.96 604.18 957.89 Q 602.71 957.83 601.32 957.83 L 601.32 957.83 Q 599.93 957.83 598.61 957.89 Q 597.29 957.96 596.62 958.00 L 596.62 958.00 L 596.62 957.12 Q 598.13 957.12 598.76 956.49 Q 599.39 955.86 599.39 954.09 L 599.39 954.09 L 599.39 941.96 Q 599.39 940.65 599.18 939.56 Q 598.97 938.47 598.23 937.80 Q 597.50 937.13 595.99 937.13 L 595.99 937.13 Q 594.22 937.13 592.90 938.13 Q 591.58 939.14 590.84 940.88 Q 590.11 942.63 590.11 944.77 L 590.11 944.77 L 590.11 954.09 Q 590.11 955.86 590.74 956.49 Q 591.37 957.12 592.88 957.12 L 592.88 957.12 L 592.88 958.00 Q 592.21 957.96 590.88 957.89 Q 589.56 957.83 588.17 957.83 L 588.17 957.83 Q 586.79 957.83 585.32 957.89 Q 583.85 957.96 583.13 958.00 L 583.13 958.00 L 583.13 957.12 Q 584.86 957.12 585.59 956.49 Q 586.33 955.86 586.33 954.09 L 586.33 954.09 L 586.33 940.95 Q 586.33 939.06 585.65 938.15 Q 584.98 937.25 583.13 937.25 L 583.13 937.25 L 583.13 936.37 Q 584.48 936.50 585.74 936.50 L 585.74 936.50 Q 586.96 936.50 588.07 936.35 Q 589.18 936.20 590.11 935.91 L 590.11 935.91 L 590.11 940.86 Q 591.20 938.01 593.15 936.89 Q 595.10 935.78 597.25 935.78 M 614.97 929.40 L 614.97 929.40 L 614.97 936.41 L 621.19 936.41 L 621.19 937.25 L 614.97 937.25 L 614.97 953.51 Q 614.97 955.48 615.68 956.28 Q 616.40 957.08 617.66 957.08 L 617.66 957.08 Q 618.92 957.08 619.84 956.05 Q 620.77 955.02 621.44 952.58 L 621.44 952.58 L 622.28 952.79 Q 621.86 955.23 620.62 956.91 Q 619.38 958.59 616.82 958.59 L 616.82 958.59 Q 615.39 958.59 614.47 958.23 Q 613.54 957.87 612.83 957.20 L 612.83 957.20 Q 611.90 956.24 611.55 954.89 Q 611.19 953.55 611.19 951.32 L 611.19 951.32 L 611.19 937.25 L 607.16 937.25 L 607.16 936.41 L 611.19 936.41 L 611.19 929.99 Q 612.24 929.94 613.21 929.82 Q 614.17 929.69 614.97 929.40 M 627.86 925.87 L 627.86 925.87 Q 628.96 925.87 629.75 926.67 Q 630.55 927.47 630.55 928.56 L 630.55 928.56 Q 630.55 929.65 629.75 930.45 Q 628.96 931.25 627.86 931.25 L 627.86 931.25 Q 626.77 931.25 625.97 930.45 Q 625.18 929.65 625.18 928.56 L 625.18 928.56 Q 625.18 927.47 625.97 926.67 Q 626.77 925.87 627.86 925.87 M 630.05 935.91 L 630.05 935.91 L 630.05 954.09 Q 630.05 955.86 630.78 956.49 Q 631.52 957.12 633.24 957.12 L 633.24 957.12 L 633.24 958.00 Q 632.53 957.96 631.08 957.89 Q 629.63 957.83 628.16 957.83 L 628.16 957.83 Q 626.73 957.83 625.26 957.89 Q 623.79 957.96 623.08 958.00 L 623.08 958.00 L 623.08 957.12 Q 624.80 957.12 625.53 956.49 Q 626.27 955.86 626.27 954.09 L 626.27 954.09 L 626.27 940.95 Q 626.27 939.06 625.60 938.15 Q 624.92 937.25 623.08 937.25 L 623.08 937.25 L 623.08 936.37 Q 624.42 936.50 625.68 936.50 L 625.68 936.50 Q 626.90 936.50 628.01 936.35 Q 629.12 936.20 630.05 935.91 M 645.67 935.78 L 645.67 935.78 Q 648.36 935.78 650.50 936.96 Q 652.64 938.13 653.93 940.65 Q 655.21 943.17 655.21 947.21 L 655.21 947.21 Q 655.21 951.24 653.93 953.74 Q 652.64 956.24 650.50 957.41 Q 648.36 958.59 645.67 958.59 L 645.67 958.59 Q 643.03 958.59 640.86 957.41 Q 638.70 956.24 637.42 953.74 Q 636.14 951.24 636.14 947.21 L 636.14 947.21 Q 636.14 943.17 637.42 940.65 Q 638.70 938.13 640.86 936.96 Q 643.03 935.78 645.67 935.78 M 645.67 936.62 L 645.67 936.62 Q 643.28 936.62 641.75 939.10 Q 640.21 941.58 640.21 947.21 L 640.21 947.21 Q 640.21 952.83 641.75 955.29 Q 643.28 957.75 645.67 957.75 L 645.67 957.75 Q 648.07 957.75 649.60 955.29 Q 651.13 952.83 651.13 947.21 L 651.13 947.21 Q 651.13 941.58 649.60 939.10 Q 648.07 936.62 645.67 936.62 M 672.51 935.78 L 672.51 935.78 Q 674.11 935.78 675.18 936.20 Q 676.25 936.62 676.96 937.38 L 676.96 937.38 Q 677.76 938.22 678.10 939.48 Q 678.43 940.74 678.43 942.88 L 678.43 942.88 L 678.43 954.09 Q 678.43 955.86 679.17 956.49 Q 679.90 957.12 681.62 957.12 L 681.62 957.12 L 681.62 958.00 Q 680.91 957.96 679.44 957.89 Q 677.97 957.83 676.58 957.83 L 676.58 957.83 Q 675.20 957.83 673.88 957.89 Q 672.55 957.96 671.88 958.00 L 671.88 958.00 L 671.88 957.12 Q 673.39 957.12 674.02 956.49 Q 674.65 955.86 674.65 954.09 L 674.65 954.09 L 674.65 941.96 Q 674.65 940.65 674.44 939.56 Q 674.23 938.47 673.50 937.80 Q 672.76 937.13 671.25 937.13 L 671.25 937.13 Q 669.49 937.13 668.16 938.13 Q 666.84 939.14 666.11 940.88 Q 665.37 942.63 665.37 944.77 L 665.37 944.77 L 665.37 954.09 Q 665.37 955.86 666.00 956.49 Q 666.63 957.12 668.14 957.12 L 668.14 957.12 L 668.14 958.00 Q 667.47 957.96 666.15 957.89 Q 664.82 957.83 663.44 957.83 L 663.44 957.83 Q 662.05 957.83 660.58 957.89 Q 659.11 957.96 658.40 958.00 L 658.40 958.00 L 658.40 957.12 Q 660.12 957.12 660.86 956.49 Q 661.59 955.86 661.59 954.09 L 661.59 954.09 L 661.59 940.95 Q 661.59 939.06 660.92 938.15 Q 660.25 937.25 658.40 937.25 L 658.40 937.25 L 658.40 936.37 Q 659.74 936.50 661.00 936.50 L 661.00 936.50 Q 662.22 936.50 663.33 936.35 Q 664.45 936.20 665.37 935.91 L 665.37 935.91 L 665.37 940.86 Q 666.46 938.01 668.42 936.89 Q 670.37 935.78 672.51 935.78 M 687.55 953.21 L 687.55 953.21 Q 688.64 953.21 689.44 954.01 Q 690.23 954.81 690.23 955.90 L 690.23 955.90 Q 690.23 956.99 689.44 957.79 Q 688.64 958.59 687.55 958.59 L 687.55 958.59 Q 686.45 958.59 685.66 957.79 Q 684.86 956.99 684.86 955.90 L 684.86 955.90 Q 684.86 954.81 685.66 954.01 Q 686.45 953.21 687.55 953.21" fill="#44403c"/>
    <text x="540" y="1295" text-anchor="middle" fill="#D4B378" font-family="'Helvetica Neue', Arial, sans-serif" font-size="20" letter-spacing="7" style="text-transform:uppercase">Atelier</text>
  </svg>