<svg xmlns="http://www.w3.org/2000/svg" width="1080" height="1350" viewBox="0 0 1080 1350">
    <rect width="1080" height="1350" fill="#F7F5F2"/>
  <rect x="40" y="40" width="1000" height="1270" fill="none" stroke="#D4B378" stroke-width="1.5" opacity="0.5"/>
    <text x="540" y="210" text-anchor="middle" fill="#D4B378" font-family="'Helvetica Neue', Arial, sans-serif" font-size="27" letter-spacing="8" style="text-transform:uppercase">On Intention</text>
    <line x1="500" y1="270" x2="580" y2="270" stroke="#D4B378" stroke-width="1.4" opacity="0.85"/>
    <path d="M 195.31 581.81 L 195.31 581.81 L 209.46 618.29 Q 210.33 620.49 211.43 621.22 Q 212.53 621.94 213.46 622.00 L 213.46 622.00 L 213.46 623.16 Q 212.30 623.04 210.62 623.01 Q 208.94 622.99 207.25 622.99 L 207.25 622.99 Q 204.99 622.99 203.02 623.01 Q 201.05 623.04 199.83 623.16 L 199.83 623.16 L 199.83 622.00 Q 202.79 621.88 203.60 620.99 Q 204.41 620.09 203.25 617.13 L 203.25 617.13 L 192.46 588.30 L 193.39 587.55 L 183.30 613.76 Q 182.37 616.08 182.20 617.68 Q 182.02 619.27 182.52 620.20 Q 183.01 621.13 184.20 621.54 Q 185.39 621.94 187.19 622.00 L 187.19 622.00 L 187.19 623.16 Q 185.56 623.04 183.79 623.01 Q 182.02 622.99 180.52 622.99 L 180.52 622.99 Q 179.07 622.99 178.05 623.01 Q 177.04 623.04 176.17 623.16 L 176.17 623.16 L 176.17 622.00 Q 177.33 621.71 178.54 620.64 Q 179.76 619.56 180.75 616.95 L 180.75 616.95 L 194.38 581.81 Q 194.61 581.81 194.84 581.81 Q 195.07 581.81 195.31 581.81 M 185.68 606.46 L 202.38 606.46 L 202.38 607.62 L 185.10 607.62 L 185.68 606.46 M 240.20 593.29 L 240.20 593.29 L 240.20 594.51 Q 238.75 594.51 237.65 594.71 Q 236.54 594.91 236.20 595.90 Q 235.85 596.89 236.72 599.38 L 236.72 599.38 L 242.75 616.66 L 242.34 616.61 L 250.87 593.06 L 252.03 593.52 L 241.42 623.45 Q 241.18 623.45 240.95 623.45 Q 240.72 623.45 240.43 623.45 L 240.43 623.45 L 230.92 597.76 Q 229.99 595.44 229.09 594.97 Q 228.19 594.51 227.55 594.51 L 227.55 594.51 L 227.55 593.29 Q 228.71 593.46 229.96 593.55 Q 231.21 593.64 232.66 593.64 L 232.66 593.64 Q 234.46 593.64 236.46 593.52 Q 238.46 593.41 240.20 593.29 M 272.04 593.29 L 272.04 593.29 L 272.04 594.45 Q 270.94 594.57 269.98 595.41 Q 269.02 596.25 268.27 598.51 L 268.27 598.51 L 259.86 623.45 Q 259.63 623.45 259.40 623.45 Q 259.16 623.45 258.87 623.45 L 258.87 623.45 L 249.54 599.73 L 250.87 593.06 Q 251.22 593.06 251.54 593.06 Q 251.86 593.06 252.20 593.06 L 252.20 593.06 L 261.25 617.01 L 260.79 617.36 L 266.53 599.90 Q 267.17 597.93 267.02 596.80 Q 266.88 595.67 265.86 595.12 Q 264.85 594.57 262.76 594.45 L 262.76 594.45 L 262.76 593.29 Q 263.80 593.35 264.56 593.38 Q 265.31 593.41 266.04 593.43 Q 266.76 593.46 267.63 593.46 L 267.63 593.46 Q 268.97 593.46 270.04 593.41 Q 271.11 593.35 272.04 593.29 M 282.13 623.57 L 282.13 623.57 Q 279.75 623.57 278.01 622.67 Q 276.27 621.77 275.37 620.14 Q 274.48 618.52 274.48 616.37 L 274.48 616.37 Q 274.48 613.82 275.66 612.20 Q 276.85 610.57 278.71 609.59 Q 280.57 608.60 282.62 607.93 Q 284.68 607.27 286.54 606.66 Q 288.40 606.05 289.58 605.24 Q 290.77 604.43 290.77 603.09 L 290.77 603.09 L 290.77 599.50 Q 290.77 597.06 290.05 595.78 Q 289.32 594.51 288.11 594.07 Q 286.89 593.64 285.38 593.64 L 285.38 593.64 Q 283.93 593.64 282.28 594.04 Q 280.62 594.45 279.64 595.73 L 279.64 595.73 Q 280.74 595.96 281.55 596.89 Q 282.36 597.81 282.36 599.26 L 282.36 599.26 Q 282.36 600.71 281.44 601.55 Q 280.51 602.40 279.06 602.40 L 279.06 602.40 Q 277.38 602.40 276.59 601.32 Q 275.81 600.25 275.81 598.92 L 275.81 598.92 Q 275.81 597.41 276.56 596.48 Q 277.32 595.55 278.48 594.74 L 278.48 594.74 Q 279.81 593.81 281.93 593.14 Q 284.05 592.48 286.71 592.48 L 286.71 592.48 Q 289.09 592.48 290.77 593.03 Q 292.46 593.58 293.56 594.62 L 293.56 594.62 Q 295.07 596.02 295.53 598.02 Q 295.99 600.02 295.99 602.80 L 295.99 602.80 L 295.99 618.93 Q 295.99 620.38 296.43 621.01 Q 296.86 621.65 297.79 621.65 L 297.79 621.65 Q 298.43 621.65 299.01 621.36 Q 299.59 621.07 300.40 620.43 L 300.40 620.43 L 301.04 621.42 Q 299.82 622.35 298.72 622.96 Q 297.62 623.57 295.76 623.57 L 295.76 623.57 Q 294.08 623.57 292.98 622.99 Q 291.88 622.41 291.32 621.27 Q 290.77 620.14 290.77 618.40 L 290.77 618.40 Q 289.21 621.01 287.03 622.29 Q 284.86 623.57 282.13 623.57 M 284.22 621.25 L 284.22 621.25 Q 286.13 621.25 287.79 620.14 Q 289.44 619.04 290.77 616.84 L 290.77 616.84 L 290.77 605.47 Q 290.08 606.46 288.74 607.12 Q 287.41 607.79 285.84 608.46 Q 284.28 609.12 282.86 610.02 Q 281.44 610.92 280.51 612.37 Q 279.58 613.82 279.58 616.14 L 279.58 616.14 Q 279.58 618.46 280.83 619.85 Q 282.07 621.25 284.22 621.25 M 320.82 592.48 L 320.82 592.48 Q 322.38 592.48 323.57 593.12 Q 324.76 593.75 325.43 594.77 Q 326.10 595.78 326.10 597.06 L 326.10 597.06 Q 326.10 598.51 325.20 599.61 Q 324.30 600.71 322.79 600.71 L 322.79 600.71 Q 321.57 600.71 320.64 599.93 Q 319.72 599.15 319.72 597.70 L 319.72 597.70 Q 319.72 596.60 320.32 595.81 Q 320.93 595.03 321.69 594.57 L 321.69 594.57 Q 321.28 593.99 320.47 593.99 L 320.47 593.99 Q 318.67 593.99 317.16 595.06 Q 315.66 596.13 314.61 597.81 Q 313.57 599.50 312.99 601.38 Q 312.41 603.27 312.41 604.89 L 312.41 604.89 L 312.41 617.19 Q 312.41 620.03 314.06 620.99 Q 315.71 621.94 318.56 621.94 L 318.56 621.94 L 318.56 623.16 Q 317.22 623.10 314.79 623.01 Q 312.35 622.93 309.62 622.93 L 309.62 622.93 Q 307.65 622.93 305.71 623.01 Q 303.77 623.10 302.78 623.16 L 302.78 623.16 L 302.78 621.94 Q 305.16 621.94 306.17 621.07 Q 307.19 620.20 307.19 617.77 L 307.19 617.77 L 307.19 599.61 Q 307.19 597.00 306.26 595.75 Q 305.33 594.51 302.78 594.51 L 302.78 594.51 L 302.78 593.29 Q 304.64 593.46 306.38 593.46 L 306.38 593.46 Q 308.06 593.46 309.59 593.26 Q 311.13 593.06 312.41 592.65 L 312.41 592.65 L 312.41 599.90 Q 313.05 598.22 314.23 596.51 Q 315.42 594.80 317.11 593.64 Q 318.79 592.48 320.82 592.48 M 354.98 577.69 L 354.98 577.69 L 354.98 616.84 Q 354.98 619.45 355.94 620.69 Q 356.89 621.94 359.39 621.94 L 359.39 621.94 L 359.39 623.16 Q 357.59 622.99 355.79 622.99 L 355.79 622.99 Q 354.11 622.99 352.57 623.16 Q 351.04 623.33 349.76 623.80 L 349.76 623.80 L 349.76 584.65 Q 349.76 582.04 348.83 580.79 Q 347.90 579.54 345.35 579.54 L 345.35 579.54 L 345.35 578.33 Q 347.21 578.50 348.95 578.50 L 348.95 578.50 Q 350.63 578.50 352.17 578.30 Q 353.70 578.09 354.98 577.69 M 342.80 592.48 L 342.80 592.48 Q 345.35 592.48 347.58 593.70 Q 349.82 594.91 350.57 597.87 L 350.57 597.87 L 349.82 598.45 Q 349.01 596.02 347.29 594.91 Q 345.58 593.81 343.26 593.81 L 343.26 593.81 Q 339.84 593.81 337.55 597.35 Q 335.26 600.89 335.32 608.25 L 335.32 608.25 Q 335.32 612.95 336.22 616.05 Q 337.12 619.16 338.88 620.69 Q 340.65 622.23 343.21 622.23 L 343.21 622.23 Q 345.64 622.23 347.61 620.14 Q 349.59 618.06 349.99 614.00 L 349.99 614.00 L 350.69 614.81 Q 350.22 619.22 347.87 621.59 Q 345.53 623.97 341.52 623.97 L 341.52 623.97 Q 337.93 623.97 335.23 622.23 Q 332.53 620.49 331.11 617.01 Q 329.69 613.53 329.69 608.25 L 329.69 608.25 Q 329.69 602.98 331.52 599.47 Q 333.35 595.96 336.33 594.22 Q 339.32 592.48 342.80 592.48 M 380.33 592.48 L 380.33 592.48 Q 381.89 592.48 383.08 593.12 Q 384.27 593.75 384.94 594.77 Q 385.60 595.78 385.60 597.06 L 385.60 597.06 Q 385.60 598.51 384.70 599.61 Q 383.81 600.71 382.30 600.71 L 382.30 600.71 Q 381.08 600.71 380.15 599.93 Q 379.22 599.15 379.22 597.70 L 379.22 597.70 Q 379.22 596.60 379.83 595.81 Q 380.44 595.03 381.20 594.57 L 381.20 594.57 Q 380.79 593.99 379.98 593.99 L 379.98 593.99 Q 378.18 593.99 376.67 595.06 Q 375.16 596.13 374.12 597.81 Q 373.08 599.50 372.50 601.38 Q 371.92 603.27 371.92 604.89 L 371.92 604.89 L 371.92 617.19 Q 371.92 620.03 373.57 620.99 Q 375.22 621.94 378.06 621.94 L 378.06 621.94 L 378.06 623.16 Q 376.73 623.10 374.29 623.01 Q 371.86 622.93 369.13 622.93 L 369.13 622.93 Q 367.16 622.93 365.22 623.01 Q 363.27 623.10 362.29 623.16 L 362.29 623.16 L 362.29 621.94 Q 364.67 621.94 365.68 621.07 Q 366.70 620.20 366.70 617.77 L 366.70 617.77 L 366.70 599.61 Q 366.70 597.00 365.77 595.75 Q 364.84 594.51 362.29 594.51 L 362.29 594.51 L 362.29 593.29 Q 364.14 593.46 365.88 593.46 L 365.88 593.46 Q 367.57 593.46 369.10 593.26 Q 370.64 593.06 371.92 592.65 L 371.92 592.65 L 371.92 599.90 Q 372.55 598.22 373.74 596.51 Q 374.93 594.80 376.61 593.64 Q 378.30 592.48 380.33 592.48 M 402.31 592.48 L 402.31 592.48 Q 406.02 592.48 408.98 594.10 Q 411.94 595.73 413.70 599.21 Q 415.47 602.69 415.47 608.25 L 415.47 608.25 Q 415.47 613.82 413.70 617.27 Q 411.94 620.72 408.98 622.35 Q 406.02 623.97 402.31 623.97 L 402.31 623.97 Q 398.65 623.97 395.67 622.35 Q 392.68 620.72 390.91 617.27 Q 389.14 613.82 389.14 608.25 L 389.14 608.25 Q 389.14 602.69 390.91 599.21 Q 392.68 595.73 395.67 594.10 Q 398.65 592.48 402.31 592.48 M 402.31 593.64 L 402.31 593.64 Q 399.00 593.64 396.88 597.06 Q 394.77 600.48 394.77 608.25 L 394.77 608.25 Q 394.77 616.03 396.88 619.42 Q 399.00 622.81 402.31 622.81 L 402.31 622.81 Q 405.61 622.81 407.73 619.42 Q 409.85 616.03 409.85 608.25 L 409.85 608.25 Q 409.85 600.48 407.73 597.06 Q 405.61 593.64 402.31 593.64 M 437.11 592.48 L 437.11 592.48 Q 441.86 592.48 445.00 596.39 Q 448.13 600.31 448.13 608.25 L 448.13 608.25 Q 448.13 613.47 446.36 616.98 Q 444.59 620.49 441.63 622.23 Q 438.67 623.97 435.19 623.97 L 435.19 623.97 Q 432.29 623.97 429.60 622.32 Q 426.90 620.67 425.57 617.42 L 425.57 617.42 L 426.73 618.06 Q 428.18 620.38 430.32 621.51 Q 432.47 622.64 434.73 622.64 L 434.73 622.64 Q 438.62 622.64 440.56 619.13 Q 442.50 615.62 442.50 608.25 L 442.50 608.25 Q 442.50 603.56 441.75 600.42 Q 440.99 597.29 439.43 595.75 Q 437.86 594.22 435.43 594.22 L 435.43 594.22 Q 432.76 594.22 430.47 596.63 Q 428.18 599.03 427.65 603.67 L 427.65 603.67 L 426.96 602.86 Q 427.60 597.93 430.41 595.20 Q 433.22 592.48 437.11 592.48 M 428.06 577.75 L 428.06 577.75 L 428.06 620.14 Q 427.31 620.78 426.52 621.45 Q 425.74 622.12 424.99 622.75 Q 424.23 623.39 423.42 624.09 L 423.42 624.09 L 422.43 623.68 Q 422.67 622.87 422.75 622.03 Q 422.84 621.19 422.84 620.32 L 422.84 620.32 L 422.84 584.71 Q 422.84 582.10 421.91 580.85 Q 420.98 579.60 418.43 579.60 L 418.43 579.60 L 418.43 578.38 Q 420.29 578.56 422.03 578.56 L 422.03 578.56 Q 423.71 578.56 425.25 578.36 Q 426.78 578.15 428.06 577.75 M 466.63 592.48 L 466.63 592.48 Q 471.73 592.48 474.60 595.58 Q 477.48 598.68 477.48 605.24 L 477.48 605.24 L 457.00 605.24 L 456.94 604.14 L 471.91 604.14 Q 472.02 601.29 471.44 598.89 Q 470.86 596.48 469.62 595.03 Q 468.37 593.58 466.40 593.58 L 466.40 593.58 Q 463.73 593.58 461.67 596.25 Q 459.61 598.92 459.21 604.72 L 459.21 604.72 L 459.38 604.95 Q 459.26 605.82 459.21 606.86 Q 459.15 607.91 459.15 608.95 L 459.15 608.95 Q 459.15 612.89 460.42 615.74 Q 461.70 618.58 463.76 620.06 Q 465.82 621.54 468.02 621.54 L 468.02 621.54 Q 469.76 621.54 471.33 620.99 Q 472.89 620.43 474.23 619.16 Q 475.56 617.88 476.55 615.74 L 476.55 615.74 L 477.71 616.20 Q 477.07 618.11 475.62 619.91 Q 474.17 621.71 471.97 622.84 Q 469.76 623.97 466.86 623.97 L 466.86 623.97 Q 462.69 623.97 459.70 622.06 Q 456.71 620.14 455.12 616.75 Q 453.52 613.36 453.52 608.95 L 453.52 608.95 Q 453.52 603.85 455.15 600.16 Q 456.77 596.48 459.73 594.48 Q 462.69 592.48 466.63 592.48 M 502.94 578.79 L 502.94 578.79 Q 504.45 578.79 505.55 579.89 Q 506.65 580.99 506.65 582.50 L 506.65 582.50 Q 506.65 584.01 505.55 585.11 Q 504.45 586.21 502.94 586.21 L 502.94 586.21 Q 501.43 586.21 500.33 585.11 Q 499.23 584.01 499.23 582.50 L 499.23 582.50 Q 499.23 580.99 500.33 579.89 Q 501.43 578.79 502.94 578.79 M 505.95 592.65 L 505.95 592.65 L 505.95 617.77 Q 505.95 620.20 506.97 621.07 Q 507.98 621.94 510.36 621.94 L 510.36 621.94 L 510.36 623.16 Q 509.38 623.10 507.37 623.01 Q 505.37 622.93 503.34 622.93 L 503.34 622.93 Q 501.37 622.93 499.34 623.01 Q 497.31 623.10 496.33 623.16 L 496.33 623.16 L 496.33 621.94 Q 498.70 621.94 499.72 621.07 Q 500.73 620.20 500.73 617.77 L 500.73 617.77 L 500.73 599.61 Q 500.73 597.00 499.81 595.75 Q 498.88 594.51 496.33 594.51 L 496.33 594.51 L 496.33 593.29 Q 498.18 593.46 499.92 593.46 L 499.92 593.46 Q 501.60 593.46 503.14 593.26 Q 504.68 593.06 505.95 592.65 M 523.70 592.48 L 523.70 592.48 Q 526.02 592.48 527.65 593.23 Q 529.27 593.99 530.02 594.62 L 530.02 594.62 Q 531.94 596.19 532.34 592.54 L 532.34 592.54 L 533.68 592.54 Q 533.56 594.16 533.50 596.39 Q 533.45 598.63 533.45 602.40 L 533.45 602.40 L 532.11 602.40 Q 531.76 600.25 530.92 598.22 Q 530.08 596.19 528.46 594.88 Q 526.83 593.58 524.22 593.58 L 524.22 593.58 Q 522.19 593.58 520.83 594.71 Q 519.47 595.84 519.47 598.05 L 519.47 598.05 Q 519.47 599.79 520.51 601.03 Q 521.56 602.28 523.24 603.35 Q 524.92 604.43 526.89 605.70 L 526.89 605.70 Q 529.10 607.09 530.89 608.54 Q 532.69 609.99 533.76 611.73 Q 534.84 613.47 534.84 615.85 L 534.84 615.85 Q 534.84 618.52 533.45 620.32 Q 532.05 622.12 529.82 623.04 Q 527.59 623.97 524.92 623.97 L 524.92 623.97 Q 523.64 623.97 522.51 623.77 Q 521.38 623.57 520.34 623.16 L 520.34 623.16 Q 519.76 622.87 519.15 622.46 Q 518.54 622.06 517.96 621.59 L 517.96 621.59 Q 517.38 621.13 516.92 621.62 Q 516.45 622.12 516.22 623.57 L 516.22 623.57 L 514.89 623.57 Q 515.00 621.71 515.06 619.04 Q 515.12 616.37 515.12 611.97 L 515.12 611.97 L 516.45 611.97 Q 516.86 615.21 517.61 617.65 Q 518.37 620.09 519.99 621.45 Q 521.61 622.81 524.51 622.81 L 524.51 622.81 Q 525.67 622.81 526.86 622.29 Q 528.05 621.77 528.86 620.55 Q 529.68 619.33 529.68 617.30 L 529.68 617.30 Q 529.68 614.75 527.82 613.13 Q 525.96 611.50 523.12 609.70 L 523.12 609.70 Q 521.03 608.37 519.21 607.04 Q 517.38 605.70 516.25 604.02 Q 515.12 602.34 515.12 599.96 L 515.12 599.96 Q 515.12 597.35 516.31 595.70 Q 517.50 594.04 519.47 593.26 Q 521.44 592.48 523.70 592.48 M 572.83 592.48 L 572.83 592.48 Q 574.86 592.48 576.37 593.06 Q 577.87 593.64 578.86 594.68 L 578.86 594.68 Q 579.96 595.84 580.37 597.70 Q 580.77 599.55 580.77 602.28 L 580.77 602.28 L 580.77 617.77 Q 580.77 620.20 581.79 621.07 Q 582.80 621.94 585.18 621.94 L 585.18 621.94 L 585.18 623.16 Q 584.20 623.10 582.17 623.01 Q 580.14 622.93 578.22 622.93 L 578.22 622.93 Q 576.31 622.93 574.48 623.01 Q 572.65 623.10 571.73 623.16 L 571.73 623.16 L 571.73 621.94 Q 573.81 621.94 574.68 621.07 Q 575.55 620.20 575.55 617.77 L 575.55 617.77 L 575.55 601.00 Q 575.55 599.21 575.32 597.70 Q 575.09 596.19 574.16 595.26 Q 573.23 594.33 571.15 594.33 L 571.15 594.33 Q 568.88 594.33 567.12 595.73 Q 565.35 597.12 564.33 599.52 Q 563.32 601.93 563.32 604.89 L 563.32 604.89 L 563.32 617.77 Q 563.32 620.20 564.19 621.07 Q 565.06 621.94 567.14 621.94 L 567.14 621.94 L 567.14 623.16 Q 566.22 623.10 564.39 623.01 Q 562.56 622.93 560.65 622.93 L 560.65 622.93 Q 558.73 622.93 556.70 623.01 Q 554.67 623.10 553.69 623.16 L 553.69 623.16 L 553.69 621.94 Q 556.07 621.94 557.08 621.07 Q 558.10 620.20 558.10 617.77 L 558.10 617.77 L 558.10 599.61 Q 558.10 597.00 557.17 595.75 Q 556.24 594.51 553.69 594.51 L 553.69 594.51 L 553.69 593.29 Q 555.54 593.46 557.28 593.46 L 557.28 593.46 Q 558.97 593.46 560.50 593.26 Q 562.04 593.06 563.32 592.65 L 563.32 592.65 L 563.32 599.50 Q 564.82 595.73 567.43 594.10 Q 570.04 592.48 572.83 592.48 M 590.29 592.48 L 590.29 592.48 Q 592.32 592.48 593.82 593.06 Q 595.33 593.64 596.32 594.68 L 596.32 594.68 Q 597.42 595.84 597.83 597.70 Q 598.23 599.55 598.23 602.28 L 598.23 602.28 L 598.23 617.77 Q 598.23 620.20 599.25 621.07 Q 600.26 621.94 602.64 621.94 L 602.64 621.94 L 602.64 623.16 Q 601.65 623.10 599.62 623.01 Q 597.59 622.93 595.68 622.93 L 595.68 622.93 Q 593.77 622.93 591.94 623.01 Q 590.11 623.10 589.18 623.16 L 589.18 623.16 L 589.18 621.94 Q 591.27 621.94 592.14 621.07 Q 593.01 620.20 593.01 617.77 L 593.01 617.77 L 593.01 601.00 Q 593.01 599.21 592.78 597.70 Q 592.55 596.19 591.62 595.26 Q 590.69 594.33 588.60 594.33 L 588.60 594.33 Q 586.34 594.33 584.57 595.73 Q 582.80 597.12 581.79 599.50 Q 580.77 601.87 580.77 604.83 L 580.77 604.83 L 580.60 599.44 Q 582.17 595.44 584.83 593.96 Q 587.50 592.48 590.29 592.48 M 619.29 592.48 L 619.29 592.48 Q 624.39 592.48 627.26 595.58 Q 630.13 598.68 630.13 605.24 L 630.13 605.24 L 609.66 605.24 L 609.60 604.14 L 624.56 604.14 Q 624.68 601.29 624.10 598.89 Q 623.52 596.48 622.27 595.03 Q 621.03 593.58 619.05 593.58 L 619.05 593.58 Q 616.39 593.58 614.33 596.25 Q 612.27 598.92 611.86 604.72 L 611.86 604.72 L 612.04 604.95 Q 611.92 605.82 611.86 606.86 Q 611.80 607.91 611.80 608.95 L 611.80 608.95 Q 611.80 612.89 613.08 615.74 Q 614.36 618.58 616.41 620.06 Q 618.47 621.54 620.68 621.54 L 620.68 621.54 Q 622.42 621.54 623.98 620.99 Q 625.55 620.43 626.88 619.16 Q 628.22 617.88 629.20 615.74 L 629.20 615.74 L 630.36 616.20 Q 629.73 618.11 628.28 619.91 Q 626.83 621.71 624.62 622.84 Q 622.42 623.97 619.52 623.97 L 619.52 623.97 Q 615.34 623.97 612.36 622.06 Q 609.37 620.14 607.77 616.75 Q 606.18 613.36 606.18 608.95 L 606.18 608.95 Q 606.18 603.85 607.80 600.16 Q 609.43 596.48 612.38 594.48 Q 615.34 592.48 619.29 592.48 M 642.78 623.57 L 642.78 623.57 Q 640.40 623.57 638.66 622.67 Q 636.92 621.77 636.02 620.14 Q 635.12 618.52 635.12 616.37 L 635.12 616.37 Q 635.12 613.82 636.31 612.20 Q 637.50 610.57 639.35 609.59 Q 641.21 608.60 643.27 607.93 Q 645.33 607.27 647.18 606.66 Q 649.04 606.05 650.23 605.24 Q 651.42 604.43 651.42 603.09 L 651.42 603.09 L 651.42 599.50 Q 651.42 597.06 650.69 595.78 Q 649.97 594.51 648.75 594.07 Q 647.53 593.64 646.02 593.64 L 646.02 593.64 Q 644.57 593.64 642.92 594.04 Q 641.27 594.45 640.28 595.73 L 640.28 595.73 Q 641.38 595.96 642.20 596.89 Q 643.01 597.81 643.01 599.26 L 643.01 599.26 Q 643.01 600.71 642.08 601.55 Q 641.15 602.40 639.70 602.40 L 639.70 602.40 Q 638.02 602.40 637.24 601.32 Q 636.45 600.25 636.45 598.92 L 636.45 598.92 Q 636.45 597.41 637.21 596.48 Q 637.96 595.55 639.12 594.74 L 639.12 594.74 Q 640.46 593.81 642.57 593.14 Q 644.69 592.48 647.36 592.48 L 647.36 592.48 Q 649.74 592.48 651.42 593.03 Q 653.10 593.58 654.20 594.62 L 654.20 594.62 Q 655.71 596.02 656.17 598.02 Q 656.64 600.02 656.64 602.80 L 656.64 602.80 L 656.64 618.93 Q 656.64 620.38 657.07 621.01 Q 657.51 621.65 658.44 621.65 L 658.44 621.65 Q 659.07 621.65 659.65 621.36 Q 660.23 621.07 661.05 620.43 L 661.05 620.43 L 661.68 621.42 Q 660.47 622.35 659.36 622.96 Q 658.26 623.57 656.41 623.57 L 656.41 623.57 Q 654.72 623.57 653.62 622.99 Q 652.52 622.41 651.97 621.27 Q 651.42 620.14 651.42 618.40 L 651.42 618.40 Q 649.85 621.01 647.68 622.29 Q 645.50 623.57 642.78 623.57 M 644.86 621.25 L 644.86 621.25 Q 646.78 621.25 648.43 620.14 Q 650.08 619.04 651.42 616.84 L 651.42 616.84 L 651.42 605.47 Q 650.72 606.46 649.39 607.12 Q 648.05 607.79 646.49 608.46 Q 644.92 609.12 643.50 610.02 Q 642.08 610.92 641.15 612.37 Q 640.22 613.82 640.22 616.14 L 640.22 616.14 Q 640.22 618.46 641.47 619.85 Q 642.72 621.25 644.86 621.25 M 682.91 592.48 L 682.91 592.48 Q 685.12 592.48 686.59 593.06 Q 688.07 593.64 689.06 594.68 L 689.06 594.68 Q 690.16 595.84 690.63 597.58 Q 691.09 599.32 691.09 602.28 L 691.09 602.28 L 691.09 617.77 Q 691.09 620.20 692.11 621.07 Q 693.12 621.94 695.50 621.94 L 695.50 621.94 L 695.50 623.16 Q 694.51 623.10 692.48 623.01 Q 690.45 622.93 688.54 622.93 L 688.54 622.93 Q 686.62 622.93 684.80 623.01 Q 682.97 623.10 682.04 623.16 L 682.04 623.16 L 682.04 621.94 Q 684.13 621.94 685.00 621.07 Q 685.87 620.20 685.87 617.77 L 685.87 617.77 L 685.87 601.00 Q 685.87 599.21 685.58 597.70 Q 685.29 596.19 684.27 595.26 Q 683.26 594.33 681.17 594.33 L 681.17 594.33 Q 678.74 594.33 676.91 595.73 Q 675.08 597.12 674.07 599.52 Q 673.05 601.93 673.05 604.89 L 673.05 604.89 L 673.05 617.77 Q 673.05 620.20 673.92 621.07 Q 674.79 621.94 676.88 621.94 L 676.88 621.94 L 676.88 623.16 Q 675.95 623.10 674.13 623.01 Q 672.30 622.93 670.38 622.93 L 670.38 622.93 Q 668.47 622.93 666.44 623.01 Q 664.41 623.10 663.42 623.16 L 663.42 623.16 L 663.42 621.94 Q 665.80 621.94 666.82 621.07 Q 667.83 620.20 667.83 617.77 L 667.83 617.77 L 667.83 599.61 Q 667.83 597.00 666.90 595.75 Q 665.98 594.51 663.42 594.51 L 663.42 594.51 L 663.42 593.29 Q 665.28 593.46 667.02 593.46 L 667.02 593.46 Q 668.70 593.46 670.24 593.26 Q 671.78 593.06 673.05 592.65 L 673.05 592.65 L 673.05 599.50 Q 674.56 595.55 677.26 594.01 Q 679.95 592.48 682.91 592.48 M 707.39 583.66 L 707.39 583.66 L 707.39 593.35 L 715.97 593.35 L 715.97 594.51 L 707.39 594.51 L 707.39 616.95 Q 707.39 619.68 708.37 620.78 Q 709.36 621.88 711.10 621.88 L 711.10 621.88 Q 712.84 621.88 714.12 620.46 Q 715.39 619.04 716.32 615.68 L 716.32 615.68 L 717.48 615.97 Q 716.90 619.33 715.19 621.65 Q 713.48 623.97 709.94 623.97 L 709.94 623.97 Q 707.97 623.97 706.69 623.48 Q 705.42 622.99 704.43 622.06 L 704.43 622.06 Q 703.15 620.72 702.66 618.87 Q 702.17 617.01 702.17 613.94 L 702.17 613.94 L 702.17 594.51 L 696.60 594.51 L 696.60 593.35 L 702.17 593.35 L 702.17 584.47 Q 703.62 584.42 704.95 584.24 Q 706.29 584.07 707.39 583.66 M 742.36 583.66 L 742.36 583.66 L 742.36 593.35 L 750.95 593.35 L 750.95 594.51 L 742.36 594.51 L 742.36 616.95 Q 742.36 619.68 743.35 620.78 Q 744.33 621.88 746.07 621.88 L 746.07 621.88 Q 747.81 621.88 749.09 620.46 Q 750.37 619.04 751.29 615.68 L 751.29 615.68 L 752.45 615.97 Q 751.87 619.33 750.16 621.65 Q 748.45 623.97 744.91 623.97 L 744.91 623.97 Q 742.94 623.97 741.67 623.48 Q 740.39 622.99 739.40 622.06 L 739.40 622.06 Q 738.13 620.72 737.63 618.87 Q 737.14 617.01 737.14 613.94 L 737.14 613.94 L 737.14 594.51 L 731.57 594.51 L 731.57 593.35 L 737.14 593.35 L 737.14 584.47 Q 738.59 584.42 739.93 584.24 Q 741.26 584.07 742.36 583.66 M 767.77 592.48 L 767.77 592.48 Q 771.48 592.48 774.44 594.10 Q 777.39 595.73 779.16 599.21 Q 780.93 602.69 780.93 608.25 L 780.93 608.25 Q 780.93 613.82 779.16 617.27 Q 777.39 620.72 774.44 622.35 Q 771.48 623.97 767.77 623.97 L 767.77 623.97 Q 764.11 623.97 761.13 622.35 Q 758.14 620.72 756.37 617.27 Q 754.60 613.82 754.60 608.25 L 754.60 608.25 Q 754.60 602.69 756.37 599.21 Q 758.14 595.73 761.13 594.10 Q 764.11 592.48 767.77 592.48 M 767.77 593.64 L 767.77 593.64 Q 764.46 593.64 762.34 597.06 Q 760.23 600.48 760.23 608.25 L 760.23 608.25 Q 760.23 616.03 762.34 619.42 Q 764.46 622.81 767.77 622.81 L 767.77 622.81 Q 771.07 622.81 773.19 619.42 Q 775.31 616.03 775.31 608.25 L 775.31 608.25 Q 775.31 600.48 773.19 597.06 Q 771.07 593.64 767.77 593.64 M 817.01 592.48 L 817.01 592.48 Q 821.76 592.48 824.90 596.39 Q 828.03 600.31 828.03 608.25 L 828.03 608.25 Q 828.03 613.47 826.26 616.98 Q 824.49 620.49 821.53 622.23 Q 818.57 623.97 815.09 623.97 L 815.09 623.97 Q 812.19 623.97 809.50 622.32 Q 806.80 620.67 805.47 617.42 L 805.47 617.42 L 806.63 618.06 Q 808.08 620.38 810.22 621.51 Q 812.37 622.64 814.63 622.64 L 814.63 622.64 Q 818.52 622.64 820.46 619.13 Q 822.40 615.62 822.40 608.25 L 822.40 608.25 Q 822.40 603.56 821.65 600.42 Q 820.89 597.29 819.33 595.75 Q 817.76 594.22 815.33 594.22 L 815.33 594.22 Q 812.66 594.22 810.37 596.63 Q 808.08 599.03 807.55 603.67 L 807.55 603.67 L 806.86 602.86 Q 807.50 597.93 810.31 595.20 Q 813.12 592.48 817.01 592.48 M 807.96 577.75 L 807.96 577.75 L 807.96 620.14 Q 807.21 620.78 806.42 621.45 Q 805.64 622.12 804.89 622.75 Q 804.13 623.39 803.32 624.09 L 803.32 624.09 L 802.33 623.68 Q 802.57 622.87 802.65 622.03 Q 802.74 621.19 802.74 620.32 L 802.74 620.32 L 802.74 584.71 Q 802.74 582.10 801.81 580.85 Q 800.88 579.60 798.33 579.60 L 798.33 579.60 L 798.33 578.38 Q 800.19 578.56 801.93 578.56 L 801.93 578.56 Q 803.61 578.56 805.15 578.36 Q 806.68 578.15 807.96 577.75 M 846.53 592.48 L 846.53 592.48 Q 851.63 592.48 854.50 595.58 Q 857.38 598.68 857.38 605.24 L 857.38 605.24 L 836.90 605.24 L 836.84 604.14 L 851.81 604.14 Q 851.92 601.29 851.34 598.89 Q 850.76 596.48 849.52 595.03 Q 848.27 593.58 846.30 593.58 L 846.30 593.58 Q 843.63 593.58 841.57 596.25 Q 839.51 598.92 839.11 604.72 L 839.11 604.72 L 839.28 604.95 Q 839.16 605.82 839.11 606.86 Q 839.05 607.91 839.05 608.95 L 839.05 608.95 Q 839.05 612.89 840.32 615.74 Q 841.60 618.58 843.66 620.06 Q 845.72 621.54 847.92 621.54 L 847.92 621.54 Q 849.66 621.54 851.23 620.99 Q 852.79 620.43 854.13 619.16 Q 855.46 617.88 856.45 615.74 L 856.45 615.74 L 857.61 616.20 Q 856.97 618.11 855.52 619.91 Q 854.07 621.71 851.87 622.84 Q 849.66 623.97 846.76 623.97 L 846.76 623.97 Q 842.59 623.97 839.60 622.06 Q 836.61 620.14 835.02 616.75 Q 833.42 613.36 833.42 608.95 L 833.42 608.95 Q 833.42 603.85 835.05 600.16 Q 836.67 596.48 839.63 594.48 Q 842.59 592.48 846.53 592.48 M 884.46 623.57 L 884.46 623.57 Q 882.08 623.57 880.34 622.67 Q 878.60 621.77 877.70 620.14 Q 876.81 618.52 876.81 616.37 L 876.81 616.37 Q 876.81 613.82 878.00 612.20 Q 879.18 610.57 881.04 609.59 Q 882.90 608.60 884.95 607.93 Q 887.01 607.27 888.87 606.66 Q 890.73 606.05 891.91 605.24 Q 893.10 604.43 893.10 603.09 L 893.10 603.09 L 893.10 599.50 Q 893.10 597.06 892.38 595.78 Q 891.65 594.51 890.44 594.07 Q 889.22 593.64 887.71 593.64 L 887.71 593.64 Q 886.26 593.64 884.61 594.04 Q 882.95 594.45 881.97 595.73 L 881.97 595.73 Q 883.07 595.96 883.88 596.89 Q 884.69 597.81 884.69 599.26 L 884.69 599.26 Q 884.69 600.71 883.77 601.55 Q 882.84 602.40 881.39 602.40 L 881.39 602.40 Q 879.71 602.40 878.92 601.32 Q 878.14 600.25 878.14 598.92 L 878.14 598.92 Q 878.14 597.41 878.89 596.48 Q 879.65 595.55 880.81 594.74 L 880.81 594.74 Q 882.14 593.81 884.26 593.14 Q 886.38 592.48 889.04 592.48 L 889.04 592.48 Q 891.42 592.48 893.10 593.03 Q 894.79 593.58 895.89 594.62 L 895.89 594.62 Q 897.40 596.02 897.86 598.02 Q 898.32 600.02 898.32 602.80 L 898.32 602.80 L 898.32 618.93 Q 898.32 620.38 898.76 621.01 Q 899.19 621.65 900.12 621.65 L 900.12 621.65 Q 900.76 621.65 901.34 621.36 Q 901.92 621.07 902.73 620.43 L 902.73 620.43 L 903.37 621.42 Q 902.15 622.35 901.05 622.96 Q 899.95 623.57 898.09 623.57 L 898.09 623.57 Q 896.41 623.57 895.31 622.99 Q 894.21 622.41 893.65 621.27 Q 893.10 620.14 893.10 618.40 L 893.10 618.40 Q 891.54 621.01 889.36 622.29 Q 887.19 623.57 884.46 623.57 M 886.55 621.25 L 886.55 621.25 Q 888.46 621.25 890.12 620.14 Q 891.77 619.04 893.10 616.84 L 893.10 616.84 L 893.10 605.47 Q 892.41 606.46 891.07 607.12 Q 889.74 607.79 888.17 608.46 Q 886.61 609.12 885.19 610.02 Q 883.77 610.92 882.84 612.37 Q 881.91 613.82 881.91 616.14 L 881.91 616.14 Q 881.91 618.46 883.16 619.85 Q 884.40 621.25 886.55 621.25" fill="#1c1917"/><path d="M 150.56 670.20 L 150.56 670.20 Q 152.88 670.20 154.50 670.95 Q 156.13 671.71 156.88 672.34 L 156.88 672.34 Q 158.79 673.91 159.20 670.26 L 159.20 670.26 L 160.53 670.26 Q 160.42 671.88 160.36 674.11 Q 160.30 676.35 160.30 680.12 L 160.30 680.12 L 158.97 680.12 Q 158.62 677.97 157.78 675.94 Q 156.94 673.91 155.31 672.61 Q 153.69 671.30 151.08 671.30 L 151.08 671.30 Q 149.05 671.30 147.69 672.43 Q 146.32 673.56 146.32 675.77 L 146.32 675.77 Q 146.32 677.51 147.37 678.75 Q 148.41 680.00 150.09 681.07 Q 151.78 682.15 153.75 683.42 L 153.75 683.42 Q 155.95 684.81 157.75 686.26 Q 159.55 687.71 160.62 689.45 Q 161.69 691.19 161.69 693.57 L 161.69 693.57 Q 161.69 696.24 160.30 698.04 Q 158.91 699.84 156.68 700.76 Q 154.44 701.69 151.78 701.69 L 151.78 701.69 Q 150.50 701.69 149.37 701.49 Q 148.24 701.29 147.19 700.88 L 147.19 700.88 Q 146.61 700.59 146.01 700.18 Q 145.40 699.78 144.82 699.31 L 144.82 699.31 Q 144.24 698.85 143.77 699.34 Q 143.31 699.84 143.08 701.29 L 143.08 701.29 L 141.74 701.29 Q 141.86 699.43 141.92 696.76 Q 141.97 694.09 141.97 689.69 L 141.97 689.69 L 143.31 689.69 Q 143.71 692.93 144.47 695.37 Q 145.22 697.81 146.85 699.17 Q 148.47 700.53 151.37 700.53 L 151.37 700.53 Q 152.53 700.53 153.72 700.01 Q 154.91 699.49 155.72 698.27 Q 156.53 697.05 156.53 695.02 L 156.53 695.02 Q 156.53 692.47 154.68 690.85 Q 152.82 689.22 149.98 687.42 L 149.98 687.42 Q 147.89 686.09 146.06 684.76 Q 144.24 683.42 143.11 681.74 Q 141.97 680.06 141.97 677.68 L 141.97 677.68 Q 141.97 675.07 143.16 673.42 Q 144.35 671.76 146.32 670.98 Q 148.30 670.20 150.56 670.20 M 185.24 670.20 L 185.24 670.20 Q 187.27 670.20 188.78 670.78 Q 190.29 671.36 191.27 672.40 L 191.27 672.40 Q 192.38 673.56 192.78 675.42 Q 193.19 677.27 193.19 680.00 L 193.19 680.00 L 193.19 695.49 Q 193.19 697.92 194.20 698.79 Q 195.22 699.66 197.60 699.66 L 197.60 699.66 L 197.60 700.88 Q 196.61 700.82 194.58 700.74 Q 192.55 700.65 190.64 700.65 L 190.64 700.65 Q 188.72 700.65 186.90 700.74 Q 185.07 700.82 184.14 700.88 L 184.14 700.88 L 184.14 699.66 Q 186.23 699.66 187.10 698.79 Q 187.97 697.92 187.97 695.49 L 187.97 695.49 L 187.97 678.72 Q 187.97 676.93 187.74 675.42 Q 187.50 673.91 186.58 672.98 Q 185.65 672.05 183.56 672.05 L 183.56 672.05 Q 181.30 672.05 179.53 673.45 Q 177.76 674.84 176.75 677.25 Q 175.73 679.65 175.73 682.61 L 175.73 682.61 L 175.73 695.49 Q 175.73 697.92 176.60 698.79 Q 177.47 699.66 179.56 699.66 L 179.56 699.66 L 179.56 700.88 Q 178.63 700.82 176.80 700.74 Q 174.98 700.65 173.06 700.65 L 173.06 700.65 Q 171.15 700.65 169.12 700.74 Q 167.09 700.82 166.10 700.88 L 166.10 700.88 L 166.10 699.66 Q 168.48 699.66 169.50 698.79 Q 170.51 697.92 170.51 695.49 L 170.51 695.49 L 170.51 677.33 Q 170.51 674.72 169.58 673.48 Q 168.65 672.23 166.10 672.23 L 166.10 672.23 L 166.10 671.01 Q 167.96 671.18 169.70 671.18 L 169.70 671.18 Q 171.38 671.18 172.92 670.98 Q 174.45 670.78 175.73 670.37 L 175.73 670.37 L 175.73 677.22 Q 177.24 673.45 179.85 671.82 Q 182.46 670.20 185.24 670.20 M 202.70 670.20 L 202.70 670.20 Q 204.73 670.20 206.24 670.78 Q 207.75 671.36 208.73 672.40 L 208.73 672.40 Q 209.83 673.56 210.24 675.42 Q 210.65 677.27 210.65 680.00 L 210.65 680.00 L 210.65 695.49 Q 210.65 697.92 211.66 698.79 Q 212.68 699.66 215.05 699.66 L 215.05 699.66 L 215.05 700.88 Q 214.07 700.82 212.04 700.74 Q 210.01 700.65 208.09 700.65 L 208.09 700.65 Q 206.18 700.65 204.35 700.74 Q 202.53 700.82 201.60 700.88 L 201.60 700.88 L 201.60 699.66 Q 203.69 699.66 204.56 698.79 Q 205.43 697.92 205.43 695.49 L 205.43 695.49 L 205.43 678.72 Q 205.43 676.93 205.19 675.42 Q 204.96 673.91 204.03 672.98 Q 203.11 672.05 201.02 672.05 L 201.02 672.05 Q 198.76 672.05 196.99 673.45 Q 195.22 674.84 194.20 677.22 Q 193.19 679.59 193.19 682.55 L 193.19 682.55 L 193.01 677.16 Q 194.58 673.16 197.25 671.68 Q 199.92 670.20 202.70 670.20 M 225.84 701.29 L 225.84 701.29 Q 223.46 701.29 221.72 700.39 Q 219.98 699.49 219.09 697.86 Q 218.19 696.24 218.19 694.09 L 218.19 694.09 Q 218.19 691.54 219.38 689.92 Q 220.56 688.29 222.42 687.31 Q 224.28 686.32 226.34 685.65 Q 228.39 684.99 230.25 684.38 Q 232.11 683.77 233.30 682.96 Q 234.48 682.15 234.48 680.81 L 234.48 680.81 L 234.48 677.22 Q 234.48 674.78 233.76 673.50 Q 233.03 672.23 231.82 671.79 Q 230.60 671.36 229.09 671.36 L 229.09 671.36 Q 227.64 671.36 225.99 671.76 Q 224.33 672.17 223.35 673.45 L 223.35 673.45 Q 224.45 673.68 225.26 674.61 Q 226.07 675.53 226.07 676.98 L 226.07 676.98 Q 226.07 678.43 225.15 679.27 Q 224.22 680.12 222.77 680.12 L 222.77 680.12 Q 221.09 680.12 220.30 679.04 Q 219.52 677.97 219.52 676.64 L 219.52 676.64 Q 219.52 675.13 220.27 674.20 Q 221.03 673.27 222.19 672.46 L 222.19 672.46 Q 223.52 671.53 225.64 670.87 Q 227.76 670.20 230.42 670.20 L 230.42 670.20 Q 232.80 670.20 234.48 670.75 Q 236.17 671.30 237.27 672.34 L 237.27 672.34 Q 238.78 673.74 239.24 675.74 Q 239.70 677.74 239.70 680.52 L 239.70 680.52 L 239.70 696.65 Q 239.70 698.10 240.14 698.73 Q 240.57 699.37 241.50 699.37 L 241.50 699.37 Q 242.14 699.37 242.72 699.08 Q 243.30 698.79 244.11 698.15 L 244.11 698.15 L 244.75 699.14 Q 243.53 700.07 242.43 700.68 Q 241.33 701.29 239.47 701.29 L 239.47 701.29 Q 237.79 701.29 236.69 700.71 Q 235.59 700.13 235.04 699.00 Q 234.48 697.86 234.48 696.12 L 234.48 696.12 Q 232.92 698.73 230.74 700.01 Q 228.57 701.29 225.84 701.29 M 227.93 698.97 L 227.93 698.97 Q 229.84 698.97 231.50 697.86 Q 233.15 696.76 234.48 694.56 L 234.48 694.56 L 234.48 683.19 Q 233.79 684.18 232.45 684.84 Q 231.12 685.51 229.55 686.18 Q 227.99 686.84 226.57 687.74 Q 225.15 688.64 224.22 690.09 Q 223.29 691.54 223.29 693.86 L 223.29 693.86 Q 223.29 696.18 224.54 697.57 Q 225.78 698.97 227.93 698.97 M 255.71 655.41 L 255.71 655.41 L 255.71 695.49 Q 255.71 697.92 256.73 698.79 Q 257.74 699.66 260.12 699.66 L 260.12 699.66 L 260.12 700.88 Q 259.13 700.82 257.13 700.74 Q 255.13 700.65 253.10 700.65 L 253.10 700.65 Q 251.13 700.65 249.10 700.74 Q 247.07 700.82 246.08 700.88 L 246.08 700.88 L 246.08 699.66 Q 248.46 699.66 249.48 698.79 Q 250.49 697.92 250.49 695.49 L 250.49 695.49 L 250.49 662.37 Q 250.49 659.76 249.56 658.51 Q 248.64 657.26 246.08 657.26 L 246.08 657.26 L 246.08 656.05 Q 247.94 656.22 249.68 656.22 L 249.68 656.22 Q 251.36 656.22 252.90 656.02 Q 254.44 655.81 255.71 655.41 M 272.30 655.41 L 272.30 655.41 L 272.30 695.49 Q 272.30 697.92 273.32 698.79 Q 274.33 699.66 276.71 699.66 L 276.71 699.66 L 276.71 700.88 Q 275.72 700.82 273.72 700.74 Q 271.72 700.65 269.69 700.65 L 269.69 700.65 Q 267.72 700.65 265.69 700.74 Q 263.66 700.82 262.67 700.88 L 262.67 700.88 L 262.67 699.66 Q 265.05 699.66 266.07 698.79 Q 267.08 697.92 267.08 695.49 L 267.08 695.49 L 267.08 662.37 Q 267.08 659.76 266.15 658.51 Q 265.22 657.26 262.67 657.26 L 262.67 657.26 L 262.67 656.05 Q 264.53 656.22 266.27 656.22 L 266.27 656.22 Q 267.95 656.22 269.49 656.02 Q 271.02 655.81 272.30 655.41 M 303.33 655.41 L 303.33 655.41 L 303.33 695.49 Q 303.33 697.92 304.35 698.79 Q 305.36 699.66 307.74 699.66 L 307.74 699.66 L 307.74 700.88 Q 306.75 700.82 304.75 700.74 Q 302.75 700.65 300.72 700.65 L 300.72 700.65 Q 298.75 700.65 296.72 700.74 Q 294.69 700.82 293.70 700.88 L 293.70 700.88 L 293.70 699.66 Q 296.08 699.66 297.10 698.79 Q 298.11 697.92 298.11 695.49 L 298.11 695.49 L 298.11 662.37 Q 298.11 659.76 297.18 658.51 Q 296.25 657.26 293.70 657.26 L 293.70 657.26 L 293.70 656.05 Q 295.56 656.22 297.30 656.22 L 297.30 656.22 Q 298.98 656.22 300.52 656.02 Q 302.05 655.81 303.33 655.41 M 317.31 656.51 L 317.31 656.51 Q 318.82 656.51 319.92 657.61 Q 321.02 658.71 321.02 660.22 L 321.02 660.22 Q 321.02 661.73 319.92 662.83 Q 318.82 663.93 317.31 663.93 L 317.31 663.93 Q 315.80 663.93 314.70 662.83 Q 313.60 661.73 313.60 660.22 L 313.60 660.22 Q 313.60 658.71 314.70 657.61 Q 315.80 656.51 317.31 656.51 M 320.32 670.37 L 320.32 670.37 L 320.32 695.49 Q 320.32 697.92 321.34 698.79 Q 322.35 699.66 324.73 699.66 L 324.73 699.66 L 324.73 700.88 Q 323.75 700.82 321.75 700.74 Q 319.75 700.65 317.71 700.65 L 317.71 700.65 Q 315.74 700.65 313.71 700.74 Q 311.68 700.82 310.70 700.88 L 310.70 700.88 L 310.70 699.66 Q 313.07 699.66 314.09 698.79 Q 315.10 697.92 315.10 695.49 L 315.10 695.49 L 315.10 677.33 Q 315.10 674.72 314.18 673.48 Q 313.25 672.23 310.70 672.23 L 310.70 672.23 L 310.70 671.01 Q 312.55 671.18 314.29 671.18 L 314.29 671.18 Q 315.97 671.18 317.51 670.98 Q 319.05 670.78 320.32 670.37 M 344.92 670.20 L 344.92 670.20 Q 349.67 670.20 352.81 674.11 Q 355.94 678.03 355.94 685.97 L 355.94 685.97 Q 355.94 691.19 354.17 694.70 Q 352.40 698.21 349.44 699.95 Q 346.48 701.69 343.00 701.69 L 343.00 701.69 Q 340.10 701.69 337.41 700.04 Q 334.71 698.39 333.38 695.14 L 333.38 695.14 L 334.54 695.78 Q 335.99 698.10 338.13 699.23 Q 340.28 700.36 342.54 700.36 L 342.54 700.36 Q 346.43 700.36 348.37 696.85 Q 350.31 693.34 350.31 685.97 L 350.31 685.97 Q 350.31 681.28 349.56 678.14 Q 348.80 675.01 347.24 673.48 Q 345.67 671.94 343.24 671.94 L 343.24 671.94 Q 340.57 671.94 338.28 674.35 Q 335.99 676.75 335.46 681.39 L 335.46 681.39 L 334.77 680.58 Q 335.41 675.65 338.22 672.92 Q 341.03 670.20 344.92 670.20 M 335.87 655.47 L 335.87 655.47 L 335.87 697.86 Q 335.12 698.50 334.33 699.17 Q 333.55 699.84 332.80 700.47 Q 332.04 701.11 331.23 701.81 L 331.23 701.81 L 330.24 701.40 Q 330.48 700.59 330.56 699.75 Q 330.65 698.91 330.65 698.04 L 330.65 698.04 L 330.65 662.43 Q 330.65 659.82 329.72 658.57 Q 328.79 657.32 326.24 657.32 L 326.24 657.32 L 326.24 656.10 Q 328.10 656.28 329.84 656.28 L 329.84 656.28 Q 331.52 656.28 333.06 656.08 Q 334.59 655.87 335.87 655.47 M 378.38 670.20 L 378.38 670.20 Q 379.95 670.20 381.14 670.84 Q 382.33 671.47 382.99 672.49 Q 383.66 673.50 383.66 674.78 L 383.66 674.78 Q 383.66 676.23 382.76 677.33 Q 381.86 678.43 380.36 678.43 L 380.36 678.43 Q 379.14 678.43 378.21 677.65 Q 377.28 676.87 377.28 675.42 L 377.28 675.42 Q 377.28 674.32 377.89 673.53 Q 378.50 672.75 379.25 672.29 L 379.25 672.29 Q 378.85 671.71 378.04 671.71 L 378.04 671.71 Q 376.24 671.71 374.73 672.78 Q 373.22 673.85 372.18 675.53 Q 371.13 677.22 370.55 679.10 Q 369.97 680.99 369.97 682.61 L 369.97 682.61 L 369.97 694.91 Q 369.97 697.75 371.63 698.71 Q 373.28 699.66 376.12 699.66 L 376.12 699.66 L 376.12 700.88 Q 374.79 700.82 372.35 700.74 Q 369.92 700.65 367.19 700.65 L 367.19 700.65 Q 365.22 700.65 363.27 700.74 Q 361.33 700.82 360.35 700.88 L 360.35 700.88 L 360.35 699.66 Q 362.72 699.66 363.74 698.79 Q 364.75 697.92 364.75 695.49 L 364.75 695.49 L 364.75 677.33 Q 364.75 674.72 363.82 673.48 Q 362.90 672.23 360.35 672.23 L 360.35 672.23 L 360.35 671.01 Q 362.20 671.18 363.94 671.18 L 363.94 671.18 Q 365.62 671.18 367.16 670.98 Q 368.70 670.78 369.97 670.37 L 369.97 670.37 L 369.97 677.62 Q 370.61 675.94 371.80 674.23 Q 372.99 672.52 374.67 671.36 Q 376.35 670.20 378.38 670.20 M 394.39 701.29 L 394.39 701.29 Q 392.01 701.29 390.27 700.39 Q 388.53 699.49 387.63 697.86 Q 386.74 696.24 386.74 694.09 L 386.74 694.09 Q 386.74 691.54 387.92 689.92 Q 389.11 688.29 390.97 687.31 Q 392.82 686.32 394.88 685.65 Q 396.94 684.99 398.80 684.38 Q 400.66 683.77 401.84 682.96 Q 403.03 682.15 403.03 680.81 L 403.03 680.81 L 403.03 677.22 Q 403.03 674.78 402.31 673.50 Q 401.58 672.23 400.37 671.79 Q 399.15 671.36 397.64 671.36 L 397.64 671.36 Q 396.19 671.36 394.54 671.76 Q 392.88 672.17 391.90 673.45 L 391.90 673.45 Q 393.00 673.68 393.81 674.61 Q 394.62 675.53 394.62 676.98 L 394.62 676.98 Q 394.62 678.43 393.69 679.27 Q 392.77 680.12 391.32 680.12 L 391.32 680.12 Q 389.63 680.12 388.85 679.04 Q 388.07 677.97 388.07 676.64 L 388.07 676.64 Q 388.07 675.13 388.82 674.20 Q 389.58 673.27 390.74 672.46 L 390.74 672.46 Q 392.07 671.53 394.19 670.87 Q 396.31 670.20 398.97 670.20 L 398.97 670.20 Q 401.35 670.20 403.03 670.75 Q 404.72 671.30 405.82 672.34 L 405.82 672.34 Q 407.32 673.74 407.79 675.74 Q 408.25 677.74 408.25 680.52 L 408.25 680.52 L 408.25 696.65 Q 408.25 698.10 408.69 698.73 Q 409.12 699.37 410.05 699.37 L 410.05 699.37 Q 410.69 699.37 411.27 699.08 Q 411.85 698.79 412.66 698.15 L 412.66 698.15 L 413.30 699.14 Q 412.08 700.07 410.98 700.68 Q 409.88 701.29 408.02 701.29 L 408.02 701.29 Q 406.34 701.29 405.24 700.71 Q 404.13 700.13 403.58 699.00 Q 403.03 697.86 403.03 696.12 L 403.03 696.12 Q 401.47 698.73 399.29 700.01 Q 397.12 701.29 394.39 701.29 M 396.48 698.97 L 396.48 698.97 Q 398.39 698.97 400.05 697.86 Q 401.70 696.76 403.03 694.56 L 403.03 694.56 L 403.03 683.19 Q 402.34 684.18 401.00 684.84 Q 399.67 685.51 398.10 686.18 Q 396.54 686.84 395.12 687.74 Q 393.69 688.64 392.77 690.09 Q 391.84 691.54 391.84 693.86 L 391.84 693.86 Q 391.84 696.18 393.09 697.57 Q 394.33 698.97 396.48 698.97 M 433.08 670.20 L 433.08 670.20 Q 434.64 670.20 435.83 670.84 Q 437.02 671.47 437.69 672.49 Q 438.36 673.50 438.36 674.78 L 438.36 674.78 Q 438.36 676.23 437.46 677.33 Q 436.56 678.43 435.05 678.43 L 435.05 678.43 Q 433.83 678.43 432.90 677.65 Q 431.98 676.87 431.98 675.42 L 431.98 675.42 Q 431.98 674.32 432.58 673.53 Q 433.19 672.75 433.95 672.29 L 433.95 672.29 Q 433.54 671.71 432.73 671.71 L 432.73 671.71 Q 430.93 671.71 429.42 672.78 Q 427.92 673.85 426.87 675.53 Q 425.83 677.22 425.25 679.10 Q 424.67 680.99 424.67 682.61 L 424.67 682.61 L 424.67 694.91 Q 424.67 697.75 426.32 698.71 Q 427.97 699.66 430.82 699.66 L 430.82 699.66 L 430.82 700.88 Q 429.48 700.82 427.05 700.74 Q 424.61 700.65 421.88 700.65 L 421.88 700.65 Q 419.91 700.65 417.97 700.74 Q 416.03 700.82 415.04 700.88 L 415.04 700.88 L 415.04 699.66 Q 417.42 699.66 418.43 698.79 Q 419.45 697.92 419.45 695.49 L 419.45 695.49 L 419.45 677.33 Q 419.45 674.72 418.52 673.48 Q 417.59 672.23 415.04 672.23 L 415.04 672.23 L 415.04 671.01 Q 416.90 671.18 418.64 671.18 L 418.64 671.18 Q 420.32 671.18 421.85 670.98 Q 423.39 670.78 424.67 670.37 L 424.67 670.37 L 424.67 677.62 Q 425.31 675.94 426.49 674.23 Q 427.68 672.52 429.37 671.36 Q 431.05 670.20 433.08 670.20 M 467.82 671.01 L 467.82 671.01 L 467.82 672.17 Q 466.72 672.29 465.79 673.16 Q 464.86 674.03 464.05 676.23 L 464.05 676.23 L 454.54 701.17 L 453.55 701.17 L 442.88 675.48 Q 441.78 673.21 440.70 672.72 Q 439.63 672.23 438.94 672.23 L 438.94 672.23 L 438.94 671.01 Q 440.21 671.18 441.60 671.27 Q 443.00 671.36 444.62 671.36 L 444.62 671.36 Q 446.42 671.36 448.42 671.24 Q 450.42 671.13 452.16 671.01 L 452.16 671.01 L 452.16 672.23 Q 450.71 672.23 449.58 672.43 Q 448.45 672.63 448.16 673.65 Q 447.87 674.66 448.85 677.10 L 448.85 677.10 L 455.99 694.79 L 455.64 694.91 L 462.25 677.62 Q 463.01 675.71 462.86 674.58 Q 462.72 673.45 461.67 672.87 Q 460.63 672.29 458.54 672.17 L 458.54 672.17 L 458.54 671.01 Q 459.58 671.07 460.34 671.10 Q 461.09 671.13 461.82 671.15 Q 462.54 671.18 463.41 671.18 L 463.41 671.18 Q 464.75 671.18 465.82 671.13 Q 466.89 671.07 467.82 671.01 M 453.44 700.71 L 454.54 701.17 L 452.57 706.22 Q 451.99 707.67 451.38 708.65 Q 450.77 709.64 450.07 710.28 L 450.07 710.28 Q 449.14 711.15 447.87 711.47 Q 446.59 711.78 445.55 711.78 L 445.55 711.78 Q 444.45 711.78 443.55 711.38 Q 442.65 710.97 442.13 710.19 Q 441.60 709.41 441.60 708.30 L 441.60 708.30 Q 441.60 706.91 442.42 706.07 Q 443.23 705.23 444.68 705.23 L 444.68 705.23 Q 445.90 705.23 446.77 705.93 Q 447.64 706.62 447.64 707.96 L 447.64 707.96 Q 447.64 708.94 447.17 709.58 Q 446.71 710.22 446.07 710.57 L 446.07 710.57 Q 446.19 710.62 446.27 710.62 Q 446.36 710.62 446.42 710.62 L 446.42 710.62 Q 447.98 710.62 449.20 709.55 Q 450.42 708.48 451.35 706.10 L 451.35 706.10 L 453.44 700.71 M 475.71 694.27 L 475.71 694.27 Q 476.98 694.27 477.80 694.79 Q 478.61 695.31 479.13 696.12 L 479.13 696.12 Q 479.77 697.05 479.94 698.15 Q 480.12 699.26 480.12 699.95 L 480.12 699.95 Q 480.12 702.79 478.67 705.11 Q 477.22 707.43 474.14 708.88 L 474.14 708.88 L 473.62 707.84 Q 475.42 707.09 476.72 705.46 Q 478.03 703.84 478.03 702.16 L 478.03 702.16 Q 478.03 701.46 477.85 700.94 L 477.85 700.94 Q 476.93 701.69 475.71 701.69 L 475.71 701.69 Q 474.20 701.69 473.10 700.71 Q 472.00 699.72 472.00 697.98 L 472.00 697.98 Q 472.00 696.36 473.10 695.31 Q 474.20 694.27 475.71 694.27 M 510.62 671.01 L 510.62 671.01 L 510.62 672.23 Q 509.17 672.23 508.07 672.43 Q 506.97 672.63 506.62 673.62 Q 506.27 674.61 507.14 677.10 L 507.14 677.10 L 513.18 694.38 L 512.77 694.33 L 521.30 670.78 L 522.46 671.24 L 511.84 701.17 Q 511.61 701.17 511.38 701.17 Q 511.15 701.17 510.86 701.17 L 510.86 701.17 L 501.34 675.48 Q 500.42 673.16 499.52 672.69 Q 498.62 672.23 497.98 672.23 L 497.98 672.23 L 497.98 671.01 Q 499.14 671.18 500.39 671.27 Q 501.63 671.36 503.08 671.36 L 503.08 671.36 Q 504.88 671.36 506.88 671.24 Q 508.88 671.13 510.62 671.01 M 542.47 671.01 L 542.47 671.01 L 542.47 672.17 Q 541.36 672.29 540.41 673.13 Q 539.45 673.97 538.70 676.23 L 538.70 676.23 L 530.29 701.17 Q 530.05 701.17 529.82 701.17 Q 529.59 701.17 529.30 701.17 L 529.30 701.17 L 519.96 677.45 L 521.30 670.78 Q 521.64 670.78 521.96 670.78 Q 522.28 670.78 522.63 670.78 L 522.63 670.78 L 531.68 694.73 L 531.21 695.08 L 536.96 677.62 Q 537.59 675.65 537.45 674.52 Q 537.30 673.39 536.29 672.84 Q 535.27 672.29 533.19 672.17 L 533.19 672.17 L 533.19 671.01 Q 534.23 671.07 534.98 671.10 Q 535.74 671.13 536.46 671.15 Q 537.19 671.18 538.06 671.18 L 538.06 671.18 Q 539.39 671.18 540.46 671.13 Q 541.54 671.07 542.47 671.01 M 552.56 701.29 L 552.56 701.29 Q 550.18 701.29 548.44 700.39 Q 546.70 699.49 545.80 697.86 Q 544.90 696.24 544.90 694.09 L 544.90 694.09 Q 544.90 691.54 546.09 689.92 Q 547.28 688.29 549.13 687.31 Q 550.99 686.32 553.05 685.65 Q 555.11 684.99 556.97 684.38 Q 558.82 683.77 560.01 682.96 Q 561.20 682.15 561.20 680.81 L 561.20 680.81 L 561.20 677.22 Q 561.20 674.78 560.47 673.50 Q 559.75 672.23 558.53 671.79 Q 557.31 671.36 555.81 671.36 L 555.81 671.36 Q 554.36 671.36 552.70 671.76 Q 551.05 672.17 550.06 673.45 L 550.06 673.45 Q 551.16 673.68 551.98 674.61 Q 552.79 675.53 552.79 676.98 L 552.79 676.98 Q 552.79 678.43 551.86 679.27 Q 550.93 680.12 549.48 680.12 L 549.48 680.12 Q 547.80 680.12 547.02 679.04 Q 546.24 677.97 546.24 676.64 L 546.24 676.64 Q 546.24 675.13 546.99 674.20 Q 547.74 673.27 548.90 672.46 L 548.90 672.46 Q 550.24 671.53 552.35 670.87 Q 554.47 670.20 557.14 670.20 L 557.14 670.20 Q 559.52 670.20 561.20 670.75 Q 562.88 671.30 563.98 672.34 L 563.98 672.34 Q 565.49 673.74 565.96 675.74 Q 566.42 677.74 566.42 680.52 L 566.42 680.52 L 566.42 696.65 Q 566.42 698.10 566.85 698.73 Q 567.29 699.37 568.22 699.37 L 568.22 699.37 Q 568.86 699.37 569.44 699.08 Q 570.01 698.79 570.83 698.15 L 570.83 698.15 L 571.47 699.14 Q 570.25 700.07 569.14 700.68 Q 568.04 701.29 566.19 701.29 L 566.19 701.29 Q 564.50 701.29 563.40 700.71 Q 562.30 700.13 561.75 699.00 Q 561.20 697.86 561.20 696.12 L 561.20 696.12 Q 559.63 698.73 557.46 700.01 Q 555.28 701.29 552.56 701.29 M 554.64 698.97 L 554.64 698.97 Q 556.56 698.97 558.21 697.86 Q 559.87 696.76 561.20 694.56 L 561.20 694.56 L 561.20 683.19 Q 560.50 684.18 559.17 684.84 Q 557.84 685.51 556.27 686.18 Q 554.70 686.84 553.28 687.74 Q 551.86 688.64 550.93 690.09 Q 550.00 691.54 550.00 693.86 L 550.00 693.86 Q 550.00 696.18 551.25 697.57 Q 552.50 698.97 554.64 698.97 M 582.43 655.41 L 582.43 655.41 L 582.43 695.49 Q 582.43 697.92 583.44 698.79 Q 584.46 699.66 586.84 699.66 L 586.84 699.66 L 586.84 700.88 Q 585.85 700.82 583.85 700.74 Q 581.85 700.65 579.82 700.65 L 579.82 700.65 Q 577.85 700.65 575.82 700.74 Q 573.78 700.82 572.80 700.88 L 572.80 700.88 L 572.80 699.66 Q 575.18 699.66 576.19 698.79 Q 577.21 697.92 577.21 695.49 L 577.21 695.49 L 577.21 662.37 Q 577.21 659.76 576.28 658.51 Q 575.35 657.26 572.80 657.26 L 572.80 657.26 L 572.80 656.05 Q 574.65 656.22 576.39 656.22 L 576.39 656.22 Q 578.08 656.22 579.61 656.02 Q 581.15 655.81 582.43 655.41 M 598.90 655.41 L 598.90 655.41 L 598.90 695.49 Q 598.90 697.92 599.77 698.79 Q 600.64 699.66 602.73 699.66 L 602.73 699.66 L 602.73 700.88 Q 601.80 700.82 599.97 700.74 Q 598.14 700.65 596.29 700.65 L 596.29 700.65 Q 594.32 700.65 592.29 700.74 Q 590.26 700.82 589.27 700.88 L 589.27 700.88 L 589.27 699.66 Q 591.65 699.66 592.66 698.79 Q 593.68 697.92 593.68 695.49 L 593.68 695.49 L 593.68 662.37 Q 593.68 659.76 592.75 658.51 Q 591.82 657.26 589.27 657.26 L 589.27 657.26 L 589.27 656.05 Q 591.13 656.22 592.87 656.22 L 592.87 656.22 Q 594.55 656.22 596.09 656.02 Q 597.62 655.81 598.90 655.41 M 617.34 671.01 L 617.34 671.01 L 617.34 672.17 Q 615.89 672.29 614.62 672.95 Q 613.34 673.62 612.12 674.90 L 612.12 674.90 L 603.94 683.48 L 604.76 681.86 L 615.54 696.65 Q 616.53 697.98 617.43 698.73 Q 618.33 699.49 619.61 699.66 L 619.61 699.66 L 619.61 700.88 Q 618.97 700.82 617.60 700.74 Q 616.24 700.65 614.91 700.65 L 614.91 700.65 Q 613.11 700.65 611.25 700.74 Q 609.40 700.82 608.47 700.88 L 608.47 700.88 L 608.47 699.66 Q 609.63 699.66 610.09 699.08 Q 610.56 698.50 609.92 697.69 L 609.92 697.69 L 603.25 687.95 Q 602.15 686.38 601.25 685.92 Q 600.35 685.45 598.67 685.39 L 598.67 685.39 L 598.67 684.23 Q 600.52 684.00 601.68 683.45 Q 602.84 682.90 603.89 681.80 L 603.89 681.80 L 608.18 677.33 Q 610.03 675.42 610.03 674.29 Q 610.03 673.16 608.85 672.66 Q 607.66 672.17 605.74 672.17 L 605.74 672.17 L 605.74 671.01 Q 607.25 671.07 609.14 671.15 Q 611.02 671.24 612.30 671.24 L 612.30 671.24 Q 613.28 671.24 614.21 671.21 Q 615.14 671.18 615.95 671.13 Q 616.76 671.07 617.34 671.01 M 635.79 670.20 L 635.79 670.20 Q 640.89 670.20 643.76 673.30 Q 646.63 676.40 646.63 682.96 L 646.63 682.96 L 626.16 682.96 L 626.10 681.86 L 641.06 681.86 Q 641.18 679.01 640.60 676.61 Q 640.02 674.20 638.77 672.75 Q 637.53 671.30 635.55 671.30 L 635.55 671.30 Q 632.89 671.30 630.83 673.97 Q 628.77 676.64 628.36 682.44 L 628.36 682.44 L 628.54 682.67 Q 628.42 683.54 628.36 684.58 Q 628.30 685.63 628.30 686.67 L 628.30 686.67 Q 628.30 690.61 629.58 693.46 Q 630.86 696.30 632.92 697.78 Q 634.98 699.26 637.18 699.26 L 637.18 699.26 Q 638.92 699.26 640.49 698.71 Q 642.05 698.15 643.38 696.88 Q 644.72 695.60 645.70 693.46 L 645.70 693.46 L 646.87 693.92 Q 646.23 695.83 644.78 697.63 Q 643.33 699.43 641.12 700.56 Q 638.92 701.69 636.02 701.69 L 636.02 701.69 Q 631.84 701.69 628.86 699.78 Q 625.87 697.86 624.27 694.47 Q 622.68 691.08 622.68 686.67 L 622.68 686.67 Q 622.68 681.57 624.30 677.88 Q 625.93 674.20 628.88 672.20 Q 631.84 670.20 635.79 670.20 M 677.43 655.41 L 677.43 655.41 L 677.43 694.56 Q 677.43 697.17 678.39 698.41 Q 679.34 699.66 681.84 699.66 L 681.84 699.66 L 681.84 700.88 Q 680.04 700.71 678.24 700.71 L 678.24 700.71 Q 676.56 700.71 675.02 700.88 Q 673.49 701.05 672.21 701.52 L 672.21 701.52 L 672.21 662.37 Q 672.21 659.76 671.28 658.51 Q 670.35 657.26 667.80 657.26 L 667.80 657.26 L 667.80 656.05 Q 669.66 656.22 671.40 656.22 L 671.40 656.22 Q 673.08 656.22 674.62 656.02 Q 676.15 655.81 677.43 655.41 M 665.25 670.20 L 665.25 670.20 Q 667.80 670.20 670.04 671.42 Q 672.27 672.63 673.02 675.59 L 673.02 675.59 L 672.27 676.17 Q 671.46 673.74 669.75 672.63 Q 668.03 671.53 665.71 671.53 L 665.71 671.53 Q 662.29 671.53 660.00 675.07 Q 657.71 678.61 657.77 685.97 L 657.77 685.97 Q 657.77 690.67 658.67 693.77 Q 659.57 696.88 661.34 698.41 Q 663.10 699.95 665.66 699.95 L 665.66 699.95 Q 668.09 699.95 670.06 697.86 Q 672.04 695.78 672.44 691.72 L 672.44 691.72 L 673.14 692.53 Q 672.67 696.94 670.33 699.31 Q 667.98 701.69 663.97 701.69 L 663.97 701.69 Q 660.38 701.69 657.68 699.95 Q 654.98 698.21 653.56 694.73 Q 652.14 691.25 652.14 685.97 L 652.14 685.97 Q 652.14 680.70 653.97 677.19 Q 655.80 673.68 658.78 671.94 Q 661.77 670.20 665.25 670.20 M 708.40 670.37 L 708.40 670.37 L 708.40 705.98 Q 708.40 708.48 709.88 709.32 Q 711.36 710.16 713.97 710.16 L 713.97 710.16 L 713.97 711.38 Q 712.69 711.32 710.43 711.23 Q 708.17 711.15 705.62 711.15 L 705.62 711.15 Q 703.82 711.15 702.05 711.23 Q 700.28 711.32 699.35 711.38 L 699.35 711.38 L 699.35 710.16 Q 701.44 710.16 702.31 709.41 Q 703.18 708.65 703.18 706.56 L 703.18 706.56 L 703.18 677.33 Q 703.18 674.72 702.25 673.48 Q 701.33 672.23 698.77 672.23 L 698.77 672.23 L 698.77 671.01 Q 700.63 671.18 702.37 671.18 L 702.37 671.18 Q 704.05 671.18 705.59 670.98 Q 707.13 670.78 708.40 670.37 M 717.68 670.20 L 717.68 670.20 Q 720.76 670.20 723.19 671.85 Q 725.63 673.50 727.05 676.69 Q 728.47 679.88 728.47 684.58 L 728.47 684.58 Q 728.47 687.71 727.72 690.76 Q 726.96 693.80 725.37 696.27 Q 723.77 698.73 721.25 700.21 Q 718.73 701.69 715.19 701.69 L 715.19 701.69 Q 712.46 701.69 710.46 700.42 Q 708.46 699.14 707.76 697.34 L 707.76 697.34 L 708.34 696.53 Q 709.16 698.15 710.69 699.26 Q 712.23 700.36 714.55 700.36 L 714.55 700.36 Q 717.80 700.36 719.60 698.33 Q 721.39 696.30 722.12 692.90 Q 722.84 689.51 722.84 685.39 L 722.84 685.39 Q 722.84 680.75 722.09 677.80 Q 721.34 674.84 719.83 673.39 Q 718.32 671.94 716.12 671.94 L 716.12 671.94 Q 713.27 671.94 710.95 674.29 Q 708.63 676.64 708.00 681.39 L 708.00 681.39 L 707.30 680.58 Q 707.94 675.65 710.81 672.92 Q 713.68 670.20 717.68 670.20 M 741.11 701.29 L 741.11 701.29 Q 738.74 701.29 737.00 700.39 Q 735.26 699.49 734.36 697.86 Q 733.46 696.24 733.46 694.09 L 733.46 694.09 Q 733.46 691.54 734.65 689.92 Q 735.84 688.29 737.69 687.31 Q 739.55 686.32 741.61 685.65 Q 743.67 684.99 745.52 684.38 Q 747.38 683.77 748.57 682.96 Q 749.76 682.15 749.76 680.81 L 749.76 680.81 L 749.76 677.22 Q 749.76 674.78 749.03 673.50 Q 748.31 672.23 747.09 671.79 Q 745.87 671.36 744.36 671.36 L 744.36 671.36 Q 742.91 671.36 741.26 671.76 Q 739.61 672.17 738.62 673.45 L 738.62 673.45 Q 739.72 673.68 740.53 674.61 Q 741.35 675.53 741.35 676.98 L 741.35 676.98 Q 741.35 678.43 740.42 679.27 Q 739.49 680.12 738.04 680.12 L 738.04 680.12 Q 736.36 680.12 735.58 679.04 Q 734.79 677.97 734.79 676.64 L 734.79 676.64 Q 734.79 675.13 735.55 674.20 Q 736.30 673.27 737.46 672.46 L 737.46 672.46 Q 738.79 671.53 740.91 670.87 Q 743.03 670.20 745.70 670.20 L 745.70 670.20 Q 748.07 670.20 749.76 670.75 Q 751.44 671.30 752.54 672.34 L 752.54 672.34 Q 754.05 673.74 754.51 675.74 Q 754.98 677.74 754.98 680.52 L 754.98 680.52 L 754.98 696.65 Q 754.98 698.10 755.41 698.73 Q 755.85 699.37 756.77 699.37 L 756.77 699.37 Q 757.41 699.37 757.99 699.08 Q 758.57 698.79 759.38 698.15 L 759.38 698.15 L 760.02 699.14 Q 758.80 700.07 757.70 700.68 Q 756.60 701.29 754.74 701.29 L 754.74 701.29 Q 753.06 701.29 751.96 700.71 Q 750.86 700.13 750.31 699.00 Q 749.76 697.86 749.76 696.12 L 749.76 696.12 Q 748.19 698.73 746.02 700.01 Q 743.84 701.29 741.11 701.29 M 743.20 698.97 L 743.20 698.97 Q 745.12 698.97 746.77 697.86 Q 748.42 696.76 749.76 694.56 L 749.76 694.56 L 749.76 683.19 Q 749.06 684.18 747.73 684.84 Q 746.39 685.51 744.83 686.18 Q 743.26 686.84 741.84 687.74 Q 740.42 688.64 739.49 690.09 Q 738.56 691.54 738.56 693.86 L 738.56 693.86 Q 738.56 696.18 739.81 697.57 Q 741.06 698.97 743.20 698.97 M 772.14 670.20 L 772.14 670.20 Q 774.46 670.20 776.09 670.95 Q 777.71 671.71 778.47 672.34 L 778.47 672.34 Q 780.38 673.91 780.79 670.26 L 780.79 670.26 L 782.12 670.26 Q 782.00 671.88 781.95 674.11 Q 781.89 676.35 781.89 680.12 L 781.89 680.12 L 780.55 680.12 Q 780.21 677.97 779.37 675.94 Q 778.52 673.91 776.90 672.61 Q 775.28 671.30 772.67 671.30 L 772.67 671.30 Q 770.64 671.30 769.27 672.43 Q 767.91 673.56 767.91 675.77 L 767.91 675.77 Q 767.91 677.51 768.95 678.75 Q 770.00 680.00 771.68 681.07 Q 773.36 682.15 775.33 683.42 L 775.33 683.42 Q 777.54 684.81 779.34 686.26 Q 781.13 687.71 782.21 689.45 Q 783.28 691.19 783.28 693.57 L 783.28 693.57 Q 783.28 696.24 781.89 698.04 Q 780.50 699.84 778.26 700.76 Q 776.03 701.69 773.36 701.69 L 773.36 701.69 Q 772.09 701.69 770.96 701.49 Q 769.82 701.29 768.78 700.88 L 768.78 700.88 Q 768.20 700.59 767.59 700.18 Q 766.98 699.78 766.40 699.31 L 766.40 699.31 Q 765.82 698.85 765.36 699.34 Q 764.89 699.84 764.66 701.29 L 764.66 701.29 L 763.33 701.29 Q 763.44 699.43 763.50 696.76 Q 763.56 694.09 763.56 689.69 L 763.56 689.69 L 764.89 689.69 Q 765.30 692.93 766.05 695.37 Q 766.81 697.81 768.43 699.17 Q 770.06 700.53 772.96 700.53 L 772.96 700.53 Q 774.12 700.53 775.31 700.01 Q 776.49 699.49 777.31 698.27 Q 778.12 697.05 778.12 695.02 L 778.12 695.02 Q 778.12 692.47 776.26 690.85 Q 774.41 689.22 771.56 687.42 L 771.56 687.42 Q 769.48 686.09 767.65 684.76 Q 765.82 683.42 764.69 681.74 Q 763.56 680.06 763.56 677.68 L 763.56 677.68 Q 763.56 675.07 764.75 673.42 Q 765.94 671.76 767.91 670.98 Q 769.88 670.20 772.14 670.20 M 797.03 661.38 L 797.03 661.38 L 797.03 671.07 L 805.61 671.07 L 805.61 672.23 L 797.03 672.23 L 797.03 694.67 Q 797.03 697.40 798.01 698.50 Q 799.00 699.60 800.74 699.60 L 800.74 699.60 Q 802.48 699.60 803.75 698.18 Q 805.03 696.76 805.96 693.40 L 805.96 693.40 L 807.12 693.69 Q 806.54 697.05 804.83 699.37 Q 803.12 701.69 799.58 701.69 L 799.58 701.69 Q 797.61 701.69 796.33 701.20 Q 795.05 700.71 794.07 699.78 L 794.07 699.78 Q 792.79 698.44 792.30 696.59 Q 791.81 694.73 791.81 691.66 L 791.81 691.66 L 791.81 672.23 L 786.24 672.23 L 786.24 671.07 L 791.81 671.07 L 791.81 662.19 Q 793.26 662.14 794.59 661.96 Q 795.92 661.79 797.03 661.38 M 836.76 670.20 L 836.76 670.20 Q 841.86 670.20 844.73 673.30 Q 847.60 676.40 847.60 682.96 L 847.60 682.96 L 827.13 682.96 L 827.07 681.86 L 842.03 681.86 Q 842.15 679.01 841.57 676.61 Q 840.99 674.20 839.74 672.75 Q 838.50 671.30 836.52 671.30 L 836.52 671.30 Q 833.86 671.30 831.80 673.97 Q 829.74 676.64 829.33 682.44 L 829.33 682.44 L 829.51 682.67 Q 829.39 683.54 829.33 684.58 Q 829.27 685.63 829.27 686.67 L 829.27 686.67 Q 829.27 690.61 830.55 693.46 Q 831.83 696.30 833.89 697.78 Q 835.95 699.26 838.15 699.26 L 838.15 699.26 Q 839.89 699.26 841.46 698.71 Q 843.02 698.15 844.36 696.88 Q 845.69 695.60 846.67 693.46 L 846.67 693.46 L 847.84 693.92 Q 847.20 695.83 845.75 697.63 Q 844.30 699.43 842.09 700.56 Q 839.89 701.69 836.99 701.69 L 836.99 701.69 Q 832.81 701.69 829.83 699.78 Q 826.84 697.86 825.24 694.47 Q 823.65 691.08 823.65 686.67 L 823.65 686.67 Q 823.65 681.57 825.27 677.88 Q 826.90 674.20 829.86 672.20 Q 832.81 670.20 836.76 670.20 M 860.25 701.29 L 860.25 701.29 Q 857.87 701.29 856.13 700.39 Q 854.39 699.49 853.49 697.86 Q 852.59 696.24 852.59 694.09 L 852.59 694.09 Q 852.59 691.54 853.78 689.92 Q 854.97 688.29 856.82 687.31 Q 858.68 686.32 860.74 685.65 Q 862.80 684.99 864.65 684.38 Q 866.51 683.77 867.70 682.96 Q 868.89 682.15 868.89 680.81 L 868.89 680.81 L 868.89 677.22 Q 868.89 674.78 868.16 673.50 Q 867.44 672.23 866.22 671.79 Q 865.00 671.36 863.50 671.36 L 863.50 671.36 Q 862.04 671.36 860.39 671.76 Q 858.74 672.17 857.75 673.45 L 857.75 673.45 Q 858.85 673.68 859.67 674.61 Q 860.48 675.53 860.48 676.98 L 860.48 676.98 Q 860.48 678.43 859.55 679.27 Q 858.62 680.12 857.17 680.12 L 857.17 680.12 Q 855.49 680.12 854.71 679.04 Q 853.92 677.97 853.92 676.64 L 853.92 676.64 Q 853.92 675.13 854.68 674.20 Q 855.43 673.27 856.59 672.46 L 856.59 672.46 Q 857.93 671.53 860.04 670.87 Q 862.16 670.20 864.83 670.20 L 864.83 670.20 Q 867.21 670.20 868.89 670.75 Q 870.57 671.30 871.67 672.34 L 871.67 672.34 Q 873.18 673.74 873.64 675.74 Q 874.11 677.74 874.11 680.52 L 874.11 680.52 L 874.11 696.65 Q 874.11 698.10 874.54 698.73 Q 874.98 699.37 875.91 699.37 L 875.91 699.37 Q 876.54 699.37 877.13 699.08 Q 877.70 698.79 878.52 698.15 L 878.52 698.15 L 879.15 699.14 Q 877.94 700.07 876.83 700.68 Q 875.73 701.29 873.88 701.29 L 873.88 701.29 Q 872.19 701.29 871.09 700.71 Q 869.99 700.13 869.44 699.00 Q 868.89 697.86 868.89 696.12 L 868.89 696.12 Q 867.32 698.73 865.15 700.01 Q 862.97 701.29 860.25 701.29 M 862.33 698.97 L 862.33 698.97 Q 864.25 698.97 865.90 697.86 Q 867.55 696.76 868.89 694.56 L 868.89 694.56 L 868.89 683.19 Q 868.19 684.18 866.86 684.84 Q 865.52 685.51 863.96 686.18 Q 862.39 686.84 860.97 687.74 Q 859.55 688.64 858.62 690.09 Q 857.69 691.54 857.69 693.86 L 857.69 693.86 Q 857.69 696.18 858.94 697.57 Q 860.19 698.97 862.33 698.97 M 895.39 670.20 L 895.39 670.20 Q 897.25 670.20 898.99 670.66 Q 900.73 671.13 902.12 672.05 L 902.12 672.05 Q 903.46 672.92 904.15 674.05 Q 904.85 675.19 904.85 676.52 L 904.85 676.52 Q 904.85 678.09 903.98 678.93 Q 903.11 679.77 901.77 679.77 L 901.77 679.77 Q 900.50 679.77 899.54 679.01 Q 898.58 678.26 898.58 676.87 L 898.58 676.87 Q 898.58 675.53 899.31 674.72 Q 900.03 673.91 901.02 673.68 L 901.02 673.68 Q 900.44 672.63 898.96 671.94 Q 897.48 671.24 895.80 671.24 L 895.80 671.24 Q 894.35 671.24 892.90 671.94 Q 891.45 672.63 890.23 674.23 Q 889.01 675.82 888.26 678.58 Q 887.51 681.33 887.51 685.45 L 887.51 685.45 Q 887.51 690.56 888.67 693.57 Q 889.83 696.59 891.71 697.89 Q 893.60 699.20 895.86 699.20 L 895.86 699.20 Q 897.37 699.20 898.93 698.62 Q 900.50 698.04 901.89 696.73 Q 903.28 695.43 904.27 693.22 L 904.27 693.22 L 905.37 693.63 Q 904.79 695.49 903.46 697.37 Q 902.12 699.26 899.98 700.47 Q 897.83 701.69 894.70 701.69 L 894.70 701.69 Q 891.10 701.69 888.20 699.84 Q 885.30 697.98 883.59 694.53 Q 881.88 691.08 881.88 686.32 L 881.88 686.32 Q 881.88 681.57 883.59 677.94 Q 885.30 674.32 888.38 672.26 Q 891.45 670.20 895.39 670.20 M 918.19 655.47 L 918.19 655.47 L 918.19 677.16 Q 919.70 673.21 922.39 671.71 Q 925.09 670.20 928.05 670.20 L 928.05 670.20 Q 930.25 670.20 931.73 670.78 Q 933.21 671.36 934.20 672.40 L 934.20 672.40 Q 935.30 673.56 935.76 675.30 Q 936.23 677.04 936.23 680.00 L 936.23 680.00 L 936.23 695.49 Q 936.23 697.92 937.24 698.79 Q 938.26 699.66 940.63 699.66 L 940.63 699.66 L 940.63 700.88 Q 939.65 700.82 937.62 700.74 Q 935.59 700.65 933.67 700.65 L 933.67 700.65 Q 931.76 700.65 929.93 700.74 Q 928.11 700.82 927.18 700.88 L 927.18 700.88 L 927.18 699.66 Q 929.27 699.66 930.14 698.79 Q 931.01 697.92 931.01 695.49 L 931.01 695.49 L 931.01 678.72 Q 931.01 676.93 930.72 675.42 Q 930.43 673.91 929.41 672.98 Q 928.40 672.05 926.31 672.05 L 926.31 672.05 Q 923.93 672.05 922.10 673.39 Q 920.28 674.72 919.23 677.10 Q 918.19 679.48 918.19 682.55 L 918.19 682.55 L 918.19 695.49 Q 918.19 697.92 919.06 698.79 Q 919.93 699.66 922.02 699.66 L 922.02 699.66 L 922.02 700.88 Q 921.09 700.82 919.26 700.74 Q 917.43 700.65 915.52 700.65 L 915.52 700.65 Q 913.61 700.65 911.58 700.74 Q 909.55 700.82 908.56 700.88 L 908.56 700.88 L 908.56 699.66 Q 910.94 699.66 911.95 698.79 Q 912.97 697.92 912.97 695.49 L 912.97 695.49 L 912.97 662.43 Q 912.97 659.82 912.04 658.57 Q 911.11 657.32 908.56 657.32 L 908.56 657.32 L 908.56 656.10 Q 910.42 656.28 912.16 656.28 L 912.16 656.28 Q 913.84 656.28 915.38 656.08 Q 916.91 655.87 918.19 655.47" fill="#1c1917"/><path d="M 440.53 747.92 L 440.53 747.92 Q 442.56 747.92 444.07 748.50 Q 445.58 749.08 446.56 750.12 L 446.56 750.12 Q 447.66 751.28 448.07 753.14 Q 448.48 754.99 448.48 757.72 L 448.48 757.72 L 448.48 773.21 Q 448.48 775.64 449.49 776.51 Q 450.51 777.38 452.88 777.38 L 452.88 777.38 L 452.88 778.60 Q 451.90 778.54 449.87 778.45 Q 447.84 778.37 445.92 778.37 L 445.92 778.37 Q 444.01 778.37 442.18 778.45 Q 440.36 778.54 439.43 778.60 L 439.43 778.60 L 439.43 777.38 Q 441.52 777.38 442.39 776.51 Q 443.26 775.64 443.26 773.21 L 443.26 773.21 L 443.26 756.44 Q 443.26 754.65 443.02 753.14 Q 442.79 751.63 441.86 750.70 Q 440.94 749.77 438.85 749.77 L 438.85 749.77 Q 436.59 749.77 434.82 751.17 Q 433.05 752.56 432.03 754.96 Q 431.02 757.37 431.02 760.33 L 431.02 760.33 L 431.02 773.21 Q 431.02 775.64 431.89 776.51 Q 432.76 777.38 434.85 777.38 L 434.85 777.38 L 434.85 778.60 Q 433.92 778.54 432.09 778.45 Q 430.26 778.37 428.35 778.37 L 428.35 778.37 Q 426.44 778.37 424.41 778.45 Q 422.38 778.54 421.39 778.60 L 421.39 778.60 L 421.39 777.38 Q 423.77 777.38 424.78 776.51 Q 425.80 775.64 425.80 773.21 L 425.80 773.21 L 425.80 755.05 Q 425.80 752.44 424.87 751.19 Q 423.94 749.95 421.39 749.95 L 421.39 749.95 L 421.39 748.73 Q 423.25 748.90 424.99 748.90 L 424.99 748.90 Q 426.67 748.90 428.20 748.70 Q 429.74 748.50 431.02 748.09 L 431.02 748.09 L 431.02 754.94 Q 432.53 751.17 435.14 749.54 Q 437.75 747.92 440.53 747.92 M 457.99 747.92 L 457.99 747.92 Q 460.02 747.92 461.53 748.50 Q 463.03 749.08 464.02 750.12 L 464.02 750.12 Q 465.12 751.28 465.53 753.14 Q 465.93 754.99 465.93 757.72 L 465.93 757.72 L 465.93 773.21 Q 465.93 775.64 466.95 776.51 Q 467.96 777.38 470.34 777.38 L 470.34 777.38 L 470.34 778.60 Q 469.36 778.54 467.33 778.45 Q 465.30 778.37 463.38 778.37 L 463.38 778.37 Q 461.47 778.37 459.64 778.45 Q 457.81 778.54 456.89 778.60 L 456.89 778.60 L 456.89 777.38 Q 458.97 777.38 459.84 776.51 Q 460.71 775.64 460.71 773.21 L 460.71 773.21 L 460.71 756.44 Q 460.71 754.65 460.48 753.14 Q 460.25 751.63 459.32 750.70 Q 458.39 749.77 456.31 749.77 L 456.31 749.77 Q 454.04 749.77 452.27 751.17 Q 450.51 752.56 449.49 754.94 Q 448.48 757.31 448.48 760.27 L 448.48 760.27 L 448.30 754.88 Q 449.87 750.88 452.54 749.40 Q 455.20 747.92 457.99 747.92 M 487.10 747.92 L 487.10 747.92 Q 490.82 747.92 493.77 749.54 Q 496.73 751.17 498.50 754.65 Q 500.27 758.13 500.27 763.69 L 500.27 763.69 Q 500.27 769.26 498.50 772.71 Q 496.73 776.16 493.77 777.79 Q 490.82 779.41 487.10 779.41 L 487.10 779.41 Q 483.45 779.41 480.46 777.79 Q 477.48 776.16 475.71 772.71 Q 473.94 769.26 473.94 763.69 L 473.94 763.69 Q 473.94 758.13 475.71 754.65 Q 477.48 751.17 480.46 749.54 Q 483.45 747.92 487.10 747.92 M 487.10 749.08 L 487.10 749.08 Q 483.80 749.08 481.68 752.50 Q 479.56 755.92 479.56 763.69 L 479.56 763.69 Q 479.56 771.47 481.68 774.86 Q 483.80 778.25 487.10 778.25 L 487.10 778.25 Q 490.41 778.25 492.53 774.86 Q 494.64 771.47 494.64 763.69 L 494.64 763.69 Q 494.64 755.92 492.53 752.50 Q 490.41 749.08 487.10 749.08 M 522.72 747.92 L 522.72 747.92 Q 524.28 747.92 525.47 748.56 Q 526.66 749.19 527.33 750.21 Q 527.99 751.22 527.99 752.50 L 527.99 752.50 Q 527.99 753.95 527.10 755.05 Q 526.20 756.15 524.69 756.15 L 524.69 756.15 Q 523.47 756.15 522.54 755.37 Q 521.61 754.59 521.61 753.14 L 521.61 753.14 Q 521.61 752.04 522.22 751.25 Q 522.83 750.47 523.59 750.01 L 523.59 750.01 Q 523.18 749.43 522.37 749.43 L 522.37 749.43 Q 520.57 749.43 519.06 750.50 Q 517.55 751.57 516.51 753.25 Q 515.47 754.94 514.89 756.82 Q 514.31 758.71 514.31 760.33 L 514.31 760.33 L 514.31 772.63 Q 514.31 775.47 515.96 776.42 Q 517.61 777.38 520.45 777.38 L 520.45 777.38 L 520.45 778.60 Q 519.12 778.54 516.68 778.45 Q 514.25 778.37 511.52 778.37 L 511.52 778.37 Q 509.55 778.37 507.61 778.45 Q 505.66 778.54 504.68 778.60 L 504.68 778.60 L 504.68 777.38 Q 507.06 777.38 508.07 776.51 Q 509.09 775.64 509.09 773.21 L 509.09 773.21 L 509.09 755.05 Q 509.09 752.44 508.16 751.19 Q 507.23 749.95 504.68 749.95 L 504.68 749.95 L 504.68 748.73 Q 506.53 748.90 508.27 748.90 L 508.27 748.90 Q 509.96 748.90 511.49 748.70 Q 513.03 748.50 514.31 748.09 L 514.31 748.09 L 514.31 755.34 Q 514.94 753.66 516.13 751.95 Q 517.32 750.24 519.00 749.08 Q 520.69 747.92 522.72 747.92 M 549.98 747.92 L 549.98 747.92 Q 552.18 747.92 553.66 748.50 Q 555.14 749.08 556.12 750.12 L 556.12 750.12 Q 557.23 751.28 557.69 753.02 Q 558.15 754.76 558.15 757.72 L 558.15 757.72 L 558.15 773.21 Q 558.15 775.64 559.17 776.51 Q 560.18 777.38 562.56 777.38 L 562.56 777.38 L 562.56 778.60 Q 561.58 778.54 559.55 778.45 Q 557.52 778.37 555.60 778.37 L 555.60 778.37 Q 553.69 778.37 551.86 778.45 Q 550.03 778.54 549.11 778.60 L 549.11 778.60 L 549.11 777.38 Q 551.19 777.38 552.06 776.51 Q 552.93 775.64 552.93 773.21 L 552.93 773.21 L 552.93 756.44 Q 552.93 754.65 552.64 753.14 Q 552.35 751.63 551.34 750.70 Q 550.32 749.77 548.24 749.77 L 548.24 749.77 Q 545.80 749.77 543.97 751.17 Q 542.15 752.56 541.13 754.96 Q 540.12 757.37 540.12 760.33 L 540.12 760.33 L 540.12 773.21 Q 540.12 775.64 540.99 776.51 Q 541.86 777.38 543.94 777.38 L 543.94 777.38 L 543.94 778.60 Q 543.02 778.54 541.19 778.45 Q 539.36 778.37 537.45 778.37 L 537.45 778.37 Q 535.53 778.37 533.50 778.45 Q 531.47 778.54 530.49 778.60 L 530.49 778.60 L 530.49 777.38 Q 532.87 777.38 533.88 776.51 Q 534.90 775.64 534.90 773.21 L 534.90 773.21 L 534.90 755.05 Q 534.90 752.44 533.97 751.19 Q 533.04 749.95 530.49 749.95 L 530.49 749.95 L 530.49 748.73 Q 532.34 748.90 534.08 748.90 L 534.08 748.90 Q 535.77 748.90 537.30 748.70 Q 538.84 748.50 540.12 748.09 L 540.12 748.09 L 540.12 754.94 Q 541.62 750.99 544.32 749.45 Q 547.02 747.92 549.98 747.92 M 571.73 734.23 L 571.73 734.23 Q 573.23 734.23 574.34 735.33 Q 575.44 736.43 575.44 737.94 L 575.44 737.94 Q 575.44 739.45 574.34 740.55 Q 573.23 741.65 571.73 741.65 L 571.73 741.65 Q 570.22 741.65 569.12 740.55 Q 568.01 739.45 568.01 737.94 L 568.01 737.94 Q 568.01 736.43 569.12 735.33 Q 570.22 734.23 571.73 734.23 M 574.74 748.09 L 574.74 748.09 L 574.74 773.21 Q 574.74 775.64 575.76 776.51 Q 576.77 777.38 579.15 777.38 L 579.15 777.38 L 579.15 778.60 Q 578.16 778.54 576.16 778.45 Q 574.16 778.37 572.13 778.37 L 572.13 778.37 Q 570.16 778.37 568.13 778.45 Q 566.10 778.54 565.11 778.60 L 565.11 778.60 L 565.11 777.38 Q 567.49 777.38 568.51 776.51 Q 569.52 775.64 569.52 773.21 L 569.52 773.21 L 569.52 755.05 Q 569.52 752.44 568.59 751.19 Q 567.67 749.95 565.11 749.95 L 565.11 749.95 L 565.11 748.73 Q 566.97 748.90 568.71 748.90 L 568.71 748.90 Q 570.39 748.90 571.93 748.70 Q 573.47 748.50 574.74 748.09 M 601.60 747.92 L 601.60 747.92 Q 603.80 747.92 605.28 748.50 Q 606.76 749.08 607.74 750.12 L 607.74 750.12 Q 608.85 751.28 609.31 753.02 Q 609.77 754.76 609.77 757.72 L 609.77 757.72 L 609.77 773.21 Q 609.77 775.64 610.79 776.51 Q 611.80 777.38 614.18 777.38 L 614.18 777.38 L 614.18 778.60 Q 613.20 778.54 611.17 778.45 Q 609.14 778.37 607.22 778.37 L 607.22 778.37 Q 605.31 778.37 603.48 778.45 Q 601.65 778.54 600.73 778.60 L 600.73 778.60 L 600.73 777.38 Q 602.81 777.38 603.68 776.51 Q 604.55 775.64 604.55 773.21 L 604.55 773.21 L 604.55 756.44 Q 604.55 754.65 604.26 753.14 Q 603.97 751.63 602.96 750.70 Q 601.94 749.77 599.86 749.77 L 599.86 749.77 Q 597.42 749.77 595.59 751.17 Q 593.77 752.56 592.75 754.96 Q 591.74 757.37 591.74 760.33 L 591.74 760.33 L 591.74 773.21 Q 591.74 775.64 592.61 776.51 Q 593.48 777.38 595.56 777.38 L 595.56 777.38 L 595.56 778.60 Q 594.64 778.54 592.81 778.45 Q 590.98 778.37 589.07 778.37 L 589.07 778.37 Q 587.15 778.37 585.12 778.45 Q 583.09 778.54 582.11 778.60 L 582.11 778.60 L 582.11 777.38 Q 584.49 777.38 585.50 776.51 Q 586.52 775.64 586.52 773.21 L 586.52 773.21 L 586.52 755.05 Q 586.52 752.44 585.59 751.19 Q 584.66 749.95 582.11 749.95 L 582.11 749.95 L 582.11 748.73 Q 583.96 748.90 585.70 748.90 L 585.70 748.90 Q 587.39 748.90 588.92 748.70 Q 590.46 748.50 591.74 748.09 L 591.74 748.09 L 591.74 754.94 Q 593.24 750.99 595.94 749.45 Q 598.64 747.92 601.60 747.92 M 627.41 789.50 L 627.41 789.50 Q 624.33 789.50 621.61 788.87 Q 618.88 788.23 617.23 786.86 Q 615.57 785.50 615.57 783.41 L 615.57 783.41 Q 615.57 781.38 617.20 779.93 Q 618.82 778.48 621.61 777.73 L 621.61 777.73 L 621.95 778.66 Q 620.68 779.06 619.92 780.28 Q 619.17 781.50 619.17 783.01 L 619.17 783.01 Q 619.17 785.68 621.63 787.10 Q 624.10 788.52 628.04 788.52 L 628.04 788.52 Q 630.65 788.52 633.15 787.85 Q 635.64 787.18 637.27 785.62 Q 638.89 784.05 638.89 781.50 L 638.89 781.50 Q 638.89 779.59 637.53 778.34 Q 636.16 777.09 632.16 777.09 L 632.16 777.09 L 627.87 777.09 Q 626.01 777.09 624.27 776.80 Q 622.53 776.51 621.43 775.58 Q 620.33 774.66 620.33 772.74 L 620.33 772.74 Q 620.33 770.77 621.95 768.94 Q 623.58 767.12 627.93 765.20 L 627.93 765.20 L 628.62 765.72 Q 626.65 766.77 625.20 767.84 Q 623.75 768.91 623.75 770.36 L 623.75 770.36 Q 623.75 772.22 626.54 772.22 L 626.54 772.22 L 633.79 772.22 Q 636.22 772.22 638.28 772.92 Q 640.34 773.61 641.62 775.12 Q 642.89 776.63 642.89 779.06 L 642.89 779.06 Q 642.89 781.79 641.15 784.17 Q 639.41 786.55 635.96 788.02 Q 632.51 789.50 627.41 789.50 M 627.70 766.25 L 627.70 766.25 Q 624.85 766.25 622.53 765.29 Q 620.21 764.33 618.88 762.30 Q 617.55 760.27 617.55 757.08 L 617.55 757.08 Q 617.55 753.89 618.88 751.86 Q 620.21 749.83 622.53 748.87 Q 624.85 747.92 627.70 747.92 L 627.70 747.92 Q 630.60 747.92 632.89 748.87 Q 635.18 749.83 636.51 751.86 Q 637.85 753.89 637.85 757.08 L 637.85 757.08 Q 637.85 760.27 636.51 762.30 Q 635.18 764.33 632.89 765.29 Q 630.60 766.25 627.70 766.25 M 627.70 765.20 L 627.70 765.20 Q 629.90 765.20 631.15 763.46 Q 632.39 761.72 632.39 757.08 L 632.39 757.08 Q 632.39 752.44 631.15 750.70 Q 629.90 748.96 627.70 748.96 L 627.70 748.96 Q 625.55 748.96 624.27 750.70 Q 623.00 752.44 623.00 757.08 L 623.00 757.08 Q 623.00 761.72 624.27 763.46 Q 625.55 765.20 627.70 765.20 M 636.05 752.73 L 636.05 752.73 L 635.00 752.33 Q 635.82 750.35 637.79 748.85 Q 639.76 747.34 641.91 747.34 L 641.91 747.34 Q 643.41 747.34 644.34 748.18 Q 645.27 749.02 645.27 750.70 L 645.27 750.70 Q 645.27 752.50 644.31 753.22 Q 643.36 753.95 642.37 753.95 L 642.37 753.95 Q 641.50 753.95 640.75 753.34 Q 639.99 752.73 639.88 751.40 Q 639.76 750.06 640.69 747.98 L 640.69 747.98 L 641.44 748.15 Q 639.01 749.08 637.96 750.09 Q 636.92 751.11 636.05 752.73 M 652.98 771.99 L 652.98 771.99 Q 654.49 771.99 655.59 773.09 Q 656.70 774.19 656.70 775.70 L 656.70 775.70 Q 656.70 777.21 655.59 778.31 Q 654.49 779.41 652.98 779.41 L 652.98 779.41 Q 651.48 779.41 650.37 778.31 Q 649.27 777.21 649.27 775.70 L 649.27 775.70 Q 649.27 774.19 650.37 773.09 Q 651.48 771.99 652.98 771.99" fill="#1c1917"/>
    <text x="540" y="1120" text-anchor="middle" fill="#78716c" font-family="'Helvetica Neue', Arial, sans-serif" font-size="22" letter-spacing="5" style="text-transform:uppercase">From the Atelier Journal</text>
    <text x="540" y="1295" text-anchor="middle" fill="#D4B378" font-family="'Helvetica Neue', Arial, sans-serif" font-size="20" letter-spacing="7" style="text-transform:uppercase">Atelier</text>
  </svg>