<svg xmlns="http://www.w3.org/2000/svg" width="1080" height="1350" viewBox="0 0 1080 1350">
    <rect width="1080" height="1350" fill="#1c1917"/>
  <rect x="40" y="40" width="1000" height="1270" fill="none" stroke="#D4B378" stroke-width="1.5" opacity="0.5"/>
    <g transform="translate(437.6 197.6) scale(0.8)">
    <g fill="none" stroke="#F7F5F2" stroke-width="7" stroke-linecap="round" stroke-linejoin="round">
      <path d="M 160 60 Q 160 44 144 44 Q 128 44 128 58 L 128 110"/>
      <path d="M 128 110 L 62 184 L 194 184 Z"/>
    </g>
    <line x1="128" y1="184" x2="128" y2="206" stroke="#D4B378" stroke-width="1.5" stroke-linecap="round" opacity="0.85"/>
    <circle cx="128" cy="212" r="5" fill="#D4B378"/>
  </g>
    <text x="540" y="520" text-anchor="middle" fill="#D4B378" font-family="'Helvetica Neue', Arial, sans-serif" font-size="27" letter-spacing="8" style="text-transform:uppercase">Come in</text>
    <path d="M 238.82 608.23 L 238.82 608.23 Q 242.42 608.23 244.30 609.06 Q 246.17 609.89 247.61 610.90 L 247.61 610.90 Q 248.47 611.40 249.01 611.65 Q 249.55 611.90 250.06 611.90 L 250.06 611.90 Q 250.78 611.90 251.10 611.11 Q 251.42 610.32 251.64 608.74 L 251.64 608.74 L 253.30 608.74 Q 253.22 609.96 253.12 611.65 Q 253.01 613.34 252.97 616.12 Q 252.94 618.89 252.94 623.42 L 252.94 623.42 L 251.28 623.42 Q 251.06 619.97 249.77 616.80 Q 248.47 613.63 245.99 611.62 Q 243.50 609.60 239.47 609.60 L 239.47 609.60 Q 235.66 609.60 233.17 611.90 Q 230.69 614.21 230.69 617.95 L 230.69 617.95 Q 230.69 621.19 232.34 623.39 Q 234.00 625.58 236.77 627.35 Q 239.54 629.11 242.78 631.13 L 242.78 631.13 Q 246.53 633.43 249.44 635.70 Q 252.36 637.97 254.05 640.70 Q 255.74 643.44 255.74 647.33 L 255.74 647.33 Q 255.74 651.94 253.66 654.96 Q 251.57 657.98 248.11 659.50 Q 244.66 661.01 240.48 661.01 L 240.48 661.01 Q 236.66 661.01 234.43 660.14 Q 232.20 659.28 230.62 658.34 L 230.62 658.34 Q 229.03 657.34 228.17 657.34 L 228.17 657.34 Q 227.45 657.34 227.12 658.13 Q 226.80 658.92 226.58 660.50 L 226.58 660.50 L 224.93 660.50 Q 225.07 658.99 225.11 656.94 Q 225.14 654.89 225.18 651.58 Q 225.22 648.26 225.22 643.22 L 225.22 643.22 L 226.87 643.22 Q 227.16 647.54 228.49 651.29 Q 229.82 655.03 232.60 657.30 Q 235.37 659.57 239.98 659.57 L 239.98 659.57 Q 242.35 659.57 244.48 658.60 Q 246.60 657.62 247.97 655.50 Q 249.34 653.38 249.34 649.99 L 249.34 649.99 Q 249.34 647.04 247.93 644.84 Q 246.53 642.65 244.01 640.74 Q 241.49 638.83 238.10 636.82 L 238.10 636.82 Q 234.72 634.73 231.77 632.57 Q 228.82 630.41 227.05 627.56 Q 225.29 624.72 225.29 620.69 L 225.29 620.69 Q 225.29 616.44 227.20 613.67 Q 229.10 610.90 232.20 609.56 Q 235.30 608.23 238.82 608.23 M 278.86 621.91 L 278.86 621.91 Q 285.19 621.91 288.76 625.76 Q 292.32 629.62 292.32 637.75 L 292.32 637.75 L 266.90 637.75 L 266.83 636.38 L 285.41 636.38 Q 285.55 632.86 284.83 629.87 Q 284.11 626.88 282.56 625.08 Q 281.02 623.28 278.57 623.28 L 278.57 623.28 Q 275.26 623.28 272.70 626.59 Q 270.14 629.90 269.64 637.10 L 269.64 637.10 L 269.86 637.39 Q 269.71 638.47 269.64 639.77 Q 269.57 641.06 269.57 642.36 L 269.57 642.36 Q 269.57 647.26 271.15 650.78 Q 272.74 654.31 275.29 656.15 Q 277.85 657.98 280.58 657.98 L 280.58 657.98 Q 282.74 657.98 284.69 657.30 Q 286.63 656.62 288.29 655.03 Q 289.94 653.45 291.17 650.78 L 291.17 650.78 L 292.61 651.36 Q 291.82 653.74 290.02 655.97 Q 288.22 658.20 285.48 659.60 Q 282.74 661.01 279.14 661.01 L 279.14 661.01 Q 273.96 661.01 270.25 658.63 Q 266.54 656.26 264.56 652.04 Q 262.58 647.83 262.58 642.36 L 262.58 642.36 Q 262.58 636.02 264.60 631.45 Q 266.62 626.88 270.29 624.40 Q 273.96 621.91 278.86 621.91 M 315.29 621.91 L 315.29 621.91 Q 321.62 621.91 325.19 625.76 Q 328.75 629.62 328.75 637.75 L 328.75 637.75 L 303.34 637.75 L 303.26 636.38 L 321.84 636.38 Q 321.98 632.86 321.26 629.87 Q 320.54 626.88 319.00 625.08 Q 317.45 623.28 315.00 623.28 L 315.00 623.28 Q 311.69 623.28 309.13 626.59 Q 306.58 629.90 306.07 637.10 L 306.07 637.10 L 306.29 637.39 Q 306.14 638.47 306.07 639.77 Q 306.00 641.06 306.00 642.36 L 306.00 642.36 Q 306.00 647.26 307.58 650.78 Q 309.17 654.31 311.72 656.15 Q 314.28 657.98 317.02 657.98 L 317.02 657.98 Q 319.18 657.98 321.12 657.30 Q 323.06 656.62 324.72 655.03 Q 326.38 653.45 327.60 650.78 L 327.60 650.78 L 329.04 651.36 Q 328.25 653.74 326.45 655.97 Q 324.65 658.20 321.91 659.60 Q 319.18 661.01 315.58 661.01 L 315.58 661.01 Q 310.39 661.01 306.68 658.63 Q 302.98 656.26 301.00 652.04 Q 299.02 647.83 299.02 642.36 L 299.02 642.36 Q 299.02 636.02 301.03 631.45 Q 303.05 626.88 306.72 624.40 Q 310.39 621.91 315.29 621.91 M 385.63 622.92 L 385.63 622.92 L 385.63 624.36 Q 384.26 624.50 383.11 625.58 Q 381.96 626.66 380.95 629.40 L 380.95 629.40 L 369.14 660.36 L 367.92 660.36 L 354.67 628.46 Q 353.30 625.66 351.97 625.04 Q 350.64 624.43 349.78 624.43 L 349.78 624.43 L 349.78 622.92 Q 351.36 623.14 353.09 623.24 Q 354.82 623.35 356.83 623.35 L 356.83 623.35 Q 359.06 623.35 361.55 623.21 Q 364.03 623.06 366.19 622.92 L 366.19 622.92 L 366.19 624.43 Q 364.39 624.43 362.99 624.68 Q 361.58 624.94 361.22 626.20 Q 360.86 627.46 362.09 630.48 L 362.09 630.48 L 370.94 652.44 L 370.51 652.58 L 378.72 631.13 Q 379.66 628.75 379.48 627.35 Q 379.30 625.94 378.00 625.22 Q 376.70 624.50 374.11 624.36 L 374.11 624.36 L 374.11 622.92 Q 375.41 622.99 376.34 623.03 Q 377.28 623.06 378.18 623.10 Q 379.08 623.14 380.16 623.14 L 380.16 623.14 Q 381.82 623.14 383.15 623.06 Q 384.48 622.99 385.63 622.92 M 367.78 659.78 L 369.14 660.36 L 366.70 666.62 Q 365.98 668.42 365.22 669.65 Q 364.46 670.87 363.60 671.66 L 363.60 671.66 Q 362.45 672.74 360.86 673.14 Q 359.28 673.54 357.98 673.54 L 357.98 673.54 Q 356.62 673.54 355.50 673.03 Q 354.38 672.53 353.74 671.56 Q 353.09 670.58 353.09 669.22 L 353.09 669.22 Q 353.09 667.49 354.10 666.44 Q 355.10 665.40 356.90 665.40 L 356.90 665.40 Q 358.42 665.40 359.50 666.26 Q 360.58 667.13 360.58 668.78 L 360.58 668.78 Q 360.58 670.01 360.00 670.80 Q 359.42 671.59 358.63 672.02 L 358.63 672.02 Q 358.78 672.10 358.88 672.10 Q 358.99 672.10 359.06 672.10 L 359.06 672.10 Q 361.01 672.10 362.52 670.76 Q 364.03 669.43 365.18 666.48 L 365.18 666.48 L 367.78 659.78 M 406.08 621.91 L 406.08 621.91 Q 410.69 621.91 414.36 623.93 Q 418.03 625.94 420.23 630.26 Q 422.42 634.58 422.42 641.50 L 422.42 641.50 Q 422.42 648.41 420.23 652.69 Q 418.03 656.98 414.36 658.99 Q 410.69 661.01 406.08 661.01 L 406.08 661.01 Q 401.54 661.01 397.84 658.99 Q 394.13 656.98 391.93 652.69 Q 389.74 648.41 389.74 641.50 L 389.74 641.50 Q 389.74 634.58 391.93 630.26 Q 394.13 625.94 397.84 623.93 Q 401.54 621.91 406.08 621.91 M 406.08 623.35 L 406.08 623.35 Q 401.98 623.35 399.35 627.60 Q 396.72 631.85 396.72 641.50 L 396.72 641.50 Q 396.72 651.14 399.35 655.36 Q 401.98 659.57 406.08 659.57 L 406.08 659.57 Q 410.18 659.57 412.81 655.36 Q 415.44 651.14 415.44 641.50 L 415.44 641.50 Q 415.44 631.85 412.81 627.60 Q 410.18 623.35 406.08 623.35 M 460.58 622.13 L 460.58 622.13 L 460.58 652.22 Q 460.58 655.46 461.77 657.01 Q 462.96 658.56 466.06 658.56 L 466.06 658.56 L 466.06 660.07 Q 463.82 659.86 461.59 659.86 L 461.59 659.86 Q 459.50 659.86 457.60 660.07 Q 455.69 660.29 454.10 660.86 L 454.10 660.86 L 454.10 652.37 Q 452.30 657.05 449.03 659.03 Q 445.75 661.01 442.30 661.01 L 442.30 661.01 Q 439.78 661.01 437.90 660.29 Q 436.03 659.57 434.81 658.27 L 434.81 658.27 Q 433.44 656.83 432.94 654.53 Q 432.43 652.22 432.43 648.84 L 432.43 648.84 L 432.43 630.77 Q 432.43 627.53 431.28 625.98 Q 430.13 624.43 426.96 624.43 L 426.96 624.43 L 426.96 622.92 Q 429.26 623.14 431.42 623.14 L 431.42 623.14 Q 433.51 623.14 435.42 622.88 Q 437.33 622.63 438.91 622.13 L 438.91 622.13 L 438.91 650.42 Q 438.91 652.66 439.20 654.53 Q 439.49 656.40 440.64 657.55 Q 441.79 658.70 444.38 658.70 L 444.38 658.70 Q 447.19 658.70 449.39 656.98 Q 451.58 655.25 452.84 652.30 Q 454.10 649.34 454.10 645.67 L 454.10 645.67 L 454.10 630.77 Q 454.10 627.53 452.95 625.98 Q 451.80 624.43 448.63 624.43 L 448.63 624.43 L 448.63 622.92 Q 450.94 623.14 453.10 623.14 L 453.10 623.14 Q 455.18 623.14 457.09 622.88 Q 459.00 622.63 460.58 622.13 M 492.12 621.91 L 492.12 621.91 Q 494.06 621.91 495.54 622.70 Q 497.02 623.50 497.84 624.76 Q 498.67 626.02 498.67 627.60 L 498.67 627.60 Q 498.67 629.40 497.56 630.77 Q 496.44 632.14 494.57 632.14 L 494.57 632.14 Q 493.06 632.14 491.90 631.16 Q 490.75 630.19 490.75 628.39 L 490.75 628.39 Q 490.75 627.02 491.51 626.05 Q 492.26 625.08 493.20 624.50 L 493.20 624.50 Q 492.70 623.78 491.69 623.78 L 491.69 623.78 Q 489.46 623.78 487.58 625.12 Q 485.71 626.45 484.42 628.54 Q 483.12 630.62 482.40 632.96 Q 481.68 635.30 481.68 637.32 L 481.68 637.32 L 481.68 652.58 Q 481.68 656.11 483.73 657.30 Q 485.78 658.49 489.31 658.49 L 489.31 658.49 L 489.31 660.00 Q 487.66 659.93 484.63 659.82 Q 481.61 659.71 478.22 659.71 L 478.22 659.71 Q 475.78 659.71 473.36 659.82 Q 470.95 659.93 469.73 660.00 L 469.73 660.00 L 469.73 658.49 Q 472.68 658.49 473.94 657.41 Q 475.20 656.33 475.20 653.30 L 475.20 653.30 L 475.20 630.77 Q 475.20 627.53 474.05 625.98 Q 472.90 624.43 469.73 624.43 L 469.73 624.43 L 469.73 622.92 Q 472.03 623.14 474.19 623.14 L 474.19 623.14 Q 476.28 623.14 478.19 622.88 Q 480.10 622.63 481.68 622.13 L 481.68 622.13 L 481.68 631.13 Q 482.47 629.04 483.95 626.92 Q 485.42 624.79 487.51 623.35 Q 489.60 621.91 492.12 621.91 M 536.04 608.23 L 536.04 608.23 Q 539.64 608.23 541.51 609.06 Q 543.38 609.89 544.82 610.90 L 544.82 610.90 Q 545.69 611.40 546.23 611.65 Q 546.77 611.90 547.27 611.90 L 547.27 611.90 Q 547.99 611.90 548.32 611.11 Q 548.64 610.32 548.86 608.74 L 548.86 608.74 L 550.51 608.74 Q 550.44 609.96 550.33 611.65 Q 550.22 613.34 550.19 616.12 Q 550.15 618.89 550.15 623.42 L 550.15 623.42 L 548.50 623.42 Q 548.28 619.97 546.98 616.80 Q 545.69 613.63 543.20 611.62 Q 540.72 609.60 536.69 609.60 L 536.69 609.60 Q 532.87 609.60 530.39 611.90 Q 527.90 614.21 527.90 617.95 L 527.90 617.95 Q 527.90 621.19 529.56 623.39 Q 531.22 625.58 533.99 627.35 Q 536.76 629.11 540.00 631.13 L 540.00 631.13 Q 543.74 633.43 546.66 635.70 Q 549.58 637.97 551.27 640.70 Q 552.96 643.44 552.96 647.33 L 552.96 647.33 Q 552.96 651.94 550.87 654.96 Q 548.78 657.98 545.33 659.50 Q 541.87 661.01 537.70 661.01 L 537.70 661.01 Q 533.88 661.01 531.65 660.14 Q 529.42 659.28 527.83 658.34 L 527.83 658.34 Q 526.25 657.34 525.38 657.34 L 525.38 657.34 Q 524.66 657.34 524.34 658.13 Q 524.02 658.92 523.80 660.50 L 523.80 660.50 L 522.14 660.50 Q 522.29 658.99 522.32 656.94 Q 522.36 654.89 522.40 651.58 Q 522.43 648.26 522.43 643.22 L 522.43 643.22 L 524.09 643.22 Q 524.38 647.54 525.71 651.29 Q 527.04 655.03 529.81 657.30 Q 532.58 659.57 537.19 659.57 L 537.19 659.57 Q 539.57 659.57 541.69 658.60 Q 543.82 657.62 545.18 655.50 Q 546.55 653.38 546.55 649.99 L 546.55 649.99 Q 546.55 647.04 545.15 644.84 Q 543.74 642.65 541.22 640.74 Q 538.70 638.83 535.32 636.82 L 535.32 636.82 Q 531.94 634.73 528.98 632.57 Q 526.03 630.41 524.27 627.56 Q 522.50 624.72 522.50 620.69 L 522.50 620.69 Q 522.50 616.44 524.41 613.67 Q 526.32 610.90 529.42 609.56 Q 532.51 608.23 536.04 608.23 M 570.17 610.97 L 570.17 610.97 L 570.17 622.99 L 580.82 622.99 L 580.82 624.43 L 570.17 624.43 L 570.17 652.30 Q 570.17 655.68 571.39 657.05 Q 572.62 658.42 574.78 658.42 L 574.78 658.42 Q 576.94 658.42 578.52 656.65 Q 580.10 654.89 581.26 650.71 L 581.26 650.71 L 582.70 651.07 Q 581.98 655.25 579.85 658.13 Q 577.73 661.01 573.34 661.01 L 573.34 661.01 Q 570.89 661.01 569.30 660.40 Q 567.72 659.78 566.50 658.63 L 566.50 658.63 Q 564.91 656.98 564.30 654.67 Q 563.69 652.37 563.69 648.55 L 563.69 648.55 L 563.69 624.43 L 556.78 624.43 L 556.78 622.99 L 563.69 622.99 L 563.69 611.98 Q 565.49 611.90 567.14 611.69 Q 568.80 611.47 570.17 610.97 M 617.54 622.92 L 617.54 622.92 L 617.54 624.36 Q 616.18 624.50 615.02 625.58 Q 613.87 626.66 612.86 629.40 L 612.86 629.40 L 601.06 660.36 L 599.83 660.36 L 586.58 628.46 Q 585.22 625.66 583.88 625.04 Q 582.55 624.43 581.69 624.43 L 581.69 624.43 L 581.69 622.92 Q 583.27 623.14 585.00 623.24 Q 586.73 623.35 588.74 623.35 L 588.74 623.35 Q 590.98 623.35 593.46 623.21 Q 595.94 623.06 598.10 622.92 L 598.10 622.92 L 598.10 624.43 Q 596.30 624.43 594.90 624.68 Q 593.50 624.94 593.14 626.20 Q 592.78 627.46 594.00 630.48 L 594.00 630.48 L 602.86 652.44 L 602.42 652.58 L 610.63 631.13 Q 611.57 628.75 611.39 627.35 Q 611.21 625.94 609.91 625.22 Q 608.62 624.50 606.02 624.36 L 606.02 624.36 L 606.02 622.92 Q 607.32 622.99 608.26 623.03 Q 609.19 623.06 610.09 623.10 Q 610.99 623.14 612.07 623.14 L 612.07 623.14 Q 613.73 623.14 615.06 623.06 Q 616.39 622.99 617.54 622.92 M 599.69 659.78 L 601.06 660.36 L 598.61 666.62 Q 597.89 668.42 597.13 669.65 Q 596.38 670.87 595.51 671.66 L 595.51 671.66 Q 594.36 672.74 592.78 673.14 Q 591.19 673.54 589.90 673.54 L 589.90 673.54 Q 588.53 673.54 587.41 673.03 Q 586.30 672.53 585.65 671.56 Q 585.00 670.58 585.00 669.22 L 585.00 669.22 Q 585.00 667.49 586.01 666.44 Q 587.02 665.40 588.82 665.40 L 588.82 665.40 Q 590.33 665.40 591.41 666.26 Q 592.49 667.13 592.49 668.78 L 592.49 668.78 Q 592.49 670.01 591.91 670.80 Q 591.34 671.59 590.54 672.02 L 590.54 672.02 Q 590.69 672.10 590.80 672.10 Q 590.90 672.10 590.98 672.10 L 590.98 672.10 Q 592.92 672.10 594.43 670.76 Q 595.94 669.43 597.10 666.48 L 597.10 666.48 L 599.69 659.78 M 631.80 603.55 L 631.80 603.55 L 631.80 653.30 Q 631.80 656.33 633.06 657.41 Q 634.32 658.49 637.27 658.49 L 637.27 658.49 L 637.27 660.00 Q 636.05 659.93 633.56 659.82 Q 631.08 659.71 628.56 659.71 L 628.56 659.71 Q 626.11 659.71 623.59 659.82 Q 621.07 659.93 619.85 660.00 L 619.85 660.00 L 619.85 658.49 Q 622.80 658.49 624.06 657.41 Q 625.32 656.33 625.32 653.30 L 625.32 653.30 L 625.32 612.19 Q 625.32 608.95 624.17 607.40 Q 623.02 605.86 619.85 605.86 L 619.85 605.86 L 619.85 604.34 Q 622.15 604.56 624.31 604.56 L 624.31 604.56 Q 626.40 604.56 628.31 604.31 Q 630.22 604.06 631.80 603.55 M 658.44 621.91 L 658.44 621.91 Q 664.78 621.91 668.34 625.76 Q 671.90 629.62 671.90 637.75 L 671.90 637.75 L 646.49 637.75 L 646.42 636.38 L 664.99 636.38 Q 665.14 632.86 664.42 629.87 Q 663.70 626.88 662.15 625.08 Q 660.60 623.28 658.15 623.28 L 658.15 623.28 Q 654.84 623.28 652.28 626.59 Q 649.73 629.90 649.22 637.10 L 649.22 637.10 L 649.44 637.39 Q 649.30 638.47 649.22 639.77 Q 649.15 641.06 649.15 642.36 L 649.15 642.36 Q 649.15 647.26 650.74 650.78 Q 652.32 654.31 654.88 656.15 Q 657.43 657.98 660.17 657.98 L 660.17 657.98 Q 662.33 657.98 664.27 657.30 Q 666.22 656.62 667.87 655.03 Q 669.53 653.45 670.75 650.78 L 670.75 650.78 L 672.19 651.36 Q 671.40 653.74 669.60 655.97 Q 667.80 658.20 665.06 659.60 Q 662.33 661.01 658.73 661.01 L 658.73 661.01 Q 653.54 661.01 649.84 658.63 Q 646.13 656.26 644.15 652.04 Q 642.17 647.83 642.17 642.36 L 642.17 642.36 Q 642.17 636.02 644.18 631.45 Q 646.20 626.88 649.87 624.40 Q 653.54 621.91 658.44 621.91 M 715.90 609.02 L 715.90 609.02 Q 728.78 609.02 735.05 615.47 Q 741.31 621.91 741.31 633.94 L 741.31 633.94 Q 741.31 641.78 738.25 647.65 Q 735.19 653.52 729.36 656.76 Q 723.53 660.00 715.25 660.00 L 715.25 660.00 Q 714.17 660.00 712.37 659.93 Q 710.57 659.86 708.66 659.82 Q 706.75 659.78 705.17 659.78 L 705.17 659.78 Q 702.65 659.78 700.20 659.82 Q 697.75 659.86 696.24 660.00 L 696.24 660.00 L 696.24 658.56 Q 698.69 658.42 699.95 657.98 Q 701.21 657.55 701.64 656.26 Q 702.07 654.96 702.07 652.37 L 702.07 652.37 L 702.07 616.66 Q 702.07 613.99 701.64 612.73 Q 701.21 611.47 699.95 611.00 Q 698.69 610.54 696.24 610.46 L 696.24 610.46 L 696.24 609.02 Q 697.75 609.10 700.20 609.20 Q 702.65 609.31 705.02 609.24 L 705.02 609.24 Q 707.54 609.17 710.71 609.10 Q 713.88 609.02 715.90 609.02 M 714.10 610.32 L 714.10 610.32 Q 710.78 610.32 709.78 611.54 Q 708.77 612.77 708.77 616.51 L 708.77 616.51 L 708.77 652.51 Q 708.77 656.26 709.81 657.48 Q 710.86 658.70 714.17 658.70 L 714.17 658.70 Q 722.02 658.70 726.34 655.86 Q 730.66 653.02 732.38 647.54 Q 734.11 642.07 734.11 634.22 L 734.11 634.22 Q 734.11 626.16 732.20 620.87 Q 730.30 615.58 725.94 612.95 Q 721.58 610.32 714.10 610.32 M 793.51 609.02 L 793.51 609.02 L 793.51 610.46 Q 791.06 610.54 789.80 611.18 Q 788.54 611.83 788.11 613.27 Q 787.68 614.71 787.68 617.38 L 787.68 617.38 L 787.68 660.36 Q 787.25 660.36 786.85 660.36 Q 786.46 660.36 786.02 660.36 L 786.02 660.36 L 755.78 613.63 L 755.78 651.65 Q 755.78 654.24 756.25 655.72 Q 756.72 657.19 758.12 657.80 Q 759.53 658.42 762.34 658.56 L 762.34 658.56 L 762.34 660.00 Q 761.04 659.86 758.95 659.82 Q 756.86 659.78 754.99 659.78 L 754.99 659.78 Q 753.19 659.78 751.36 659.82 Q 749.52 659.86 748.30 660.00 L 748.30 660.00 L 748.30 658.56 Q 750.74 658.42 752.00 657.80 Q 753.26 657.19 753.70 655.72 Q 754.13 654.24 754.13 651.65 L 754.13 651.65 L 754.13 616.66 Q 754.13 613.99 753.70 612.73 Q 753.26 611.47 752.00 611.00 Q 750.74 610.54 748.30 610.46 L 748.30 610.46 L 748.30 609.02 Q 749.52 609.10 751.36 609.17 Q 753.19 609.24 754.99 609.24 L 754.99 609.24 Q 756.58 609.24 758.02 609.17 Q 759.46 609.10 760.61 609.02 L 760.61 609.02 L 786.02 648.19 L 786.02 617.38 Q 786.02 614.71 785.56 613.27 Q 785.09 611.83 783.68 611.18 Q 782.28 610.54 779.47 610.46 L 779.47 610.46 L 779.47 609.02 Q 780.77 609.10 782.89 609.17 Q 785.02 609.24 786.82 609.24 L 786.82 609.24 Q 788.69 609.24 790.52 609.17 Q 792.36 609.10 793.51 609.02 M 819.36 608.66 L 819.36 608.66 L 836.93 653.95 Q 838.01 656.69 839.38 657.59 Q 840.74 658.49 841.90 658.56 L 841.90 658.56 L 841.90 660.00 Q 840.46 659.86 838.37 659.82 Q 836.28 659.78 834.19 659.78 L 834.19 659.78 Q 831.38 659.78 828.94 659.82 Q 826.49 659.86 824.98 660.00 L 824.98 660.00 L 824.98 658.56 Q 828.65 658.42 829.66 657.30 Q 830.66 656.18 829.22 652.51 L 829.22 652.51 L 815.83 616.73 L 816.98 615.79 L 804.46 648.34 Q 803.30 651.22 803.09 653.20 Q 802.87 655.18 803.48 656.33 Q 804.10 657.48 805.57 657.98 Q 807.05 658.49 809.28 658.56 L 809.28 658.56 L 809.28 660.00 Q 807.26 659.86 805.07 659.82 Q 802.87 659.78 801.00 659.78 L 801.00 659.78 Q 799.20 659.78 797.94 659.82 Q 796.68 659.86 795.60 660.00 L 795.60 660.00 L 795.60 658.56 Q 797.04 658.20 798.55 656.87 Q 800.06 655.54 801.29 652.30 L 801.29 652.30 L 818.21 608.66 Q 818.50 608.66 818.78 608.66 Q 819.07 608.66 819.36 608.66 M 807.41 639.26 L 828.14 639.26 L 828.14 640.70 L 806.69 640.70 L 807.41 639.26 M 850.54 651.79 L 850.54 651.79 Q 852.41 651.79 853.78 653.16 Q 855.14 654.53 855.14 656.40 L 855.14 656.40 Q 855.14 658.27 853.78 659.64 Q 852.41 661.01 850.54 661.01 L 850.54 661.01 Q 848.66 661.01 847.30 659.64 Q 845.93 658.27 845.93 656.40 L 845.93 656.40 Q 845.93 654.53 847.30 653.16 Q 848.66 651.79 850.54 651.79" fill="#F7F5F2"/>
    <line x1="470" y1="760" x2="610" y2="760" stroke="#D4B378" stroke-width="1.4" opacity="0.85"/>
    <text x="540" y="860" text-anchor="middle" fill="#F7F5F2" font-family="'Helvetica Neue', Arial, sans-serif" font-size="34" letter-spacing="3">14-day free trial</text>
    <text x="540" y="960" text-anchor="middle" fill="#D4B378" font-family="'Helvetica Neue', Arial, sans-serif" font-size="40" letter-spacing="6">myatelier.style</text>
  </svg>