<svg xmlns="http://www.w3.org/2000/svg" width="1080" height="1080" viewBox="0 0 1080 1080"><rect width="1080" height="1080" fill="#F7F5F2"/><rect x="34" y="34" width="1012" height="1012" fill="none" stroke="#D4B378" stroke-width="1.5" opacity="0.5"/><text x="540" y="175" text-anchor="middle" fill="#D4B378" font-family="'Helvetica Neue', Arial, sans-serif" font-size="27" letter-spacing="8" style="text-transform:uppercase">Cost Per Wear</text><path d="M 349.63 371.00 L 349.63 371.00 Q 357.63 371.00 363.38 372.88 Q 369.13 374.75 373.13 377.75 L 373.13 377.75 Q 376.88 380.75 378.75 384.38 Q 380.63 388.00 380.63 391.50 L 380.63 391.50 Q 380.63 397.00 377.13 400.38 Q 373.63 403.75 368.88 403.75 L 368.88 403.75 Q 364.63 403.75 361.00 400.63 Q 357.38 397.50 357.38 392.50 L 357.38 392.50 Q 357.38 388.25 359.50 385.25 Q 361.63 382.25 365.63 380.75 L 365.63 380.75 Q 365.13 378.25 360.25 376.50 Q 355.38 374.75 350.13 374.75 L 350.13 374.75 Q 338.13 374.75 331.38 380.13 Q 324.63 385.50 321.75 394.63 Q 318.88 403.75 318.13 415.25 Q 317.38 426.75 317.38 438.75 L 317.38 438.75 L 317.38 475.75 Q 317.38 484.75 316.38 492.25 Q 315.38 499.75 313.25 506.38 Q 311.13 513.00 308.13 519.50 Q 305.13 526.00 301.13 533.00 L 301.13 533.00 Q 306.13 530.75 311.25 529.38 Q 316.38 528.00 322.63 528.00 L 322.63 528.00 Q 331.38 528.00 339.50 530.88 Q 347.63 533.75 356.00 536.50 Q 364.38 539.25 373.88 539.25 L 373.88 539.25 Q 382.88 539.25 386.88 534.88 Q 390.88 530.50 390.88 525.00 L 390.88 525.00 Q 390.88 516.25 385.00 510.75 Q 379.13 505.25 369.63 503.50 L 369.63 503.50 L 370.63 499.50 Q 378.63 500.75 386.00 504.63 Q 393.38 508.50 398.00 515.00 Q 402.63 521.50 402.63 530.75 L 402.63 530.75 Q 402.63 537.75 399.63 544.13 Q 396.63 550.50 390.50 554.50 Q 384.38 558.50 375.38 558.50 L 375.38 558.50 Q 365.63 558.50 357.25 554.25 Q 348.88 550.00 341.00 544.88 Q 333.13 539.75 324.88 537.00 L 324.88 537.00 Q 322.38 536.00 319.25 535.50 Q 316.13 535.00 312.63 535.00 L 312.63 535.00 Q 305.63 535.00 298.88 537.50 L 298.88 537.50 Q 293.13 547.50 286.25 553.00 Q 279.38 558.50 272.88 558.50 L 272.88 558.50 Q 271.13 558.50 270.00 558.13 Q 268.88 557.75 268.88 556.00 L 268.88 556.00 Q 268.88 553.50 272.25 549.75 Q 275.63 546.00 280.75 542.38 Q 285.88 538.75 291.38 536.75 L 291.38 536.75 Q 292.63 531.00 293.25 524.88 Q 293.88 518.75 294.00 510.50 Q 294.13 502.25 294.13 490.50 L 294.13 490.50 L 294.13 445.25 Q 294.13 429.75 296.88 416.38 Q 299.63 403.00 306.00 392.75 Q 312.38 382.50 323.00 376.75 Q 333.63 371.00 349.63 371.00 M 274.88 475.75 L 353.63 475.75 L 353.63 480.75 L 274.88 480.75 L 274.88 475.75 M 274.88 450.75 L 353.63 450.75 L 353.63 455.75 L 274.88 455.75 L 274.88 450.75 M 473.88 423.50 L 473.88 423.50 L 473.88 529.25 Q 473.88 541.25 479.38 545.50 Q 484.88 549.75 497.88 549.75 L 497.88 549.75 L 497.88 555.00 Q 492.88 554.75 483.25 554.38 Q 473.63 554.00 463.38 554.00 L 463.38 554.00 Q 451.88 554.00 441.25 554.38 Q 430.63 554.75 424.88 555.00 L 424.88 555.00 L 424.88 549.75 Q 437.38 549.75 444.38 545.63 Q 451.38 541.50 451.38 529.25 L 451.38 529.25 L 451.38 468.75 Q 451.38 456.75 448.88 451.00 Q 446.38 445.25 440.00 443.50 Q 433.63 441.75 422.38 441.75 L 422.38 441.75 L 422.38 436.25 Q 440.38 435.75 452.38 433.00 Q 464.38 430.25 473.88 423.50 M 534.63 526.50 L 534.63 526.50 Q 541.13 526.50 545.88 531.25 Q 550.63 536.00 550.63 542.50 L 550.63 542.50 Q 550.63 549.00 545.88 553.75 Q 541.13 558.50 534.63 558.50 L 534.63 558.50 Q 528.13 558.50 523.38 553.75 Q 518.63 549.00 518.63 542.50 L 518.63 542.50 Q 518.63 536.00 523.38 531.25 Q 528.13 526.50 534.63 526.50 M 644.88 413.75 L 649.63 413.75 Q 649.63 428.00 649.88 436.00 Q 650.13 444.00 650.63 450.25 L 650.63 450.25 Q 648.63 449.75 643.00 449.50 Q 637.38 449.25 630.13 449.13 Q 622.88 449.00 615.88 449.00 L 615.88 449.00 L 589.38 449.00 L 586.38 497.25 Q 591.88 494.50 598.63 492.13 Q 605.38 489.75 615.63 489.75 L 615.63 489.75 Q 630.88 489.75 640.63 494.75 Q 650.38 499.75 655.13 508.50 Q 659.88 517.25 659.88 528.25 L 659.88 528.25 Q 659.88 542.75 652.63 554.50 Q 645.38 566.25 633.25 574.63 Q 621.13 583.00 606.63 587.50 Q 592.13 592.00 577.38 592.00 L 577.38 592.00 L 577.38 587.50 Q 588.38 587.50 598.88 583.88 Q 609.38 580.25 617.75 573.13 Q 626.13 566.00 631.13 555.50 Q 636.13 545.00 636.13 530.75 L 636.13 530.75 Q 636.13 515.00 628.00 506.13 Q 619.88 497.25 604.63 497.25 L 604.63 497.25 Q 598.13 497.25 593.75 498.38 Q 589.38 499.50 584.13 501.50 L 584.13 501.50 L 581.63 500.00 L 586.38 425.50 Q 589.13 426.00 592.75 426.25 Q 596.38 426.50 599.88 426.50 L 599.88 426.50 L 628.13 426.50 Q 638.38 426.50 641.13 423.63 Q 643.88 420.75 644.88 413.75 L 644.88 413.75 M 746.13 422.75 L 746.13 422.75 Q 763.88 422.75 777.50 430.88 Q 791.13 439.00 798.88 453.75 Q 806.63 468.50 806.63 488.50 L 806.63 488.50 Q 806.63 508.50 798.63 524.38 Q 790.63 540.25 776.50 549.38 Q 762.38 558.50 743.38 558.50 L 743.38 558.50 Q 726.13 558.50 712.38 550.38 Q 698.63 542.25 690.75 527.38 Q 682.88 512.50 682.88 492.50 L 682.88 492.50 Q 682.88 472.75 690.75 457.00 Q 698.63 441.25 712.88 432.00 Q 727.13 422.75 746.13 422.75 M 743.88 427.25 L 743.88 427.25 Q 727.88 427.25 717.50 444.25 Q 707.13 461.25 707.13 491.75 L 707.13 491.75 Q 707.13 514.25 712.38 527.88 Q 717.63 541.50 726.50 547.75 Q 735.38 554.00 745.63 554.00 L 745.63 554.00 Q 761.88 554.00 772.13 536.88 Q 782.38 519.75 782.38 489.25 L 782.38 489.25 Q 782.38 466.75 777.13 453.13 Q 771.88 439.50 763.13 433.38 Q 754.38 427.25 743.88 427.25" fill="#1c1917"/><text x="540" y="655" text-anchor="middle" fill="#78716c" font-family="'Helvetica Neue', Arial, sans-serif" font-size="30" letter-spacing="1">a £300 coat, worn two hundred times</text><line x1="470" y1="755" x2="610" y2="755" stroke="#D4B378" stroke-width="1.4" opacity="0.85"/><path d="M 263.63 821.76 L 263.63 821.76 L 263.63 822.92 Q 261.66 822.97 260.64 823.50 Q 259.63 824.02 259.28 825.18 Q 258.93 826.34 258.93 828.48 L 258.93 828.48 L 258.93 863.11 Q 258.58 863.11 258.26 863.11 Q 257.95 863.11 257.60 863.11 L 257.60 863.11 L 233.24 825.47 L 233.24 856.09 Q 233.24 858.18 233.61 859.37 Q 233.99 860.56 235.12 861.05 Q 236.25 861.54 238.52 861.66 L 238.52 861.66 L 238.52 862.82 Q 237.47 862.70 235.79 862.67 Q 234.11 862.65 232.60 862.65 L 232.60 862.65 Q 231.15 862.65 229.67 862.67 Q 228.19 862.70 227.21 862.82 L 227.21 862.82 L 227.21 861.66 Q 229.18 861.54 230.19 861.05 Q 231.21 860.56 231.56 859.37 Q 231.90 858.18 231.90 856.09 L 231.90 856.09 L 231.90 827.90 Q 231.90 825.76 231.56 824.74 Q 231.21 823.73 230.19 823.35 Q 229.18 822.97 227.21 822.92 L 227.21 822.92 L 227.21 821.76 Q 228.19 821.81 229.67 821.87 Q 231.15 821.93 232.60 821.93 L 232.60 821.93 Q 233.88 821.93 235.04 821.87 Q 236.20 821.81 237.12 821.76 L 237.12 821.76 L 257.60 853.31 L 257.60 828.48 Q 257.60 826.34 257.22 825.18 Q 256.84 824.02 255.71 823.50 Q 254.58 822.97 252.32 822.92 L 252.32 822.92 L 252.32 821.76 Q 253.36 821.81 255.07 821.87 Q 256.79 821.93 258.24 821.93 L 258.24 821.93 Q 259.74 821.93 261.22 821.87 Q 262.70 821.81 263.63 821.76 M 281.61 832.14 L 281.61 832.14 Q 285.32 832.14 288.28 833.76 Q 291.24 835.39 293.01 838.87 Q 294.78 842.35 294.78 847.91 L 294.78 847.91 Q 294.78 853.48 293.01 856.93 Q 291.24 860.38 288.28 862.01 Q 285.32 863.63 281.61 863.63 L 281.61 863.63 Q 277.96 863.63 274.97 862.01 Q 271.98 860.38 270.21 856.93 Q 268.44 853.48 268.44 847.91 L 268.44 847.91 Q 268.44 842.35 270.21 838.87 Q 271.98 835.39 274.97 833.76 Q 277.96 832.14 281.61 832.14 M 281.61 833.30 L 281.61 833.30 Q 278.30 833.30 276.19 836.72 Q 274.07 840.14 274.07 847.91 L 274.07 847.91 Q 274.07 855.69 276.19 859.08 Q 278.30 862.47 281.61 862.47 L 281.61 862.47 Q 284.92 862.47 287.03 859.08 Q 289.15 855.69 289.15 847.91 L 289.15 847.91 Q 289.15 840.14 287.03 836.72 Q 284.92 833.30 281.61 833.30 M 308.52 823.32 L 308.52 823.32 L 308.52 833.01 L 317.11 833.01 L 317.11 834.17 L 308.52 834.17 L 308.52 856.61 Q 308.52 859.34 309.51 860.44 Q 310.49 861.54 312.23 861.54 L 312.23 861.54 Q 313.97 861.54 315.25 860.12 Q 316.53 858.70 317.45 855.34 L 317.45 855.34 L 318.61 855.63 Q 318.03 858.99 316.32 861.31 Q 314.61 863.63 311.07 863.63 L 311.07 863.63 Q 309.10 863.63 307.83 863.14 Q 306.55 862.65 305.56 861.72 L 305.56 861.72 Q 304.29 860.38 303.79 858.53 Q 303.30 856.67 303.30 853.60 L 303.30 853.60 L 303.30 834.17 L 297.73 834.17 L 297.73 833.01 L 303.30 833.01 L 303.30 824.13 Q 304.75 824.08 306.09 823.90 Q 307.42 823.73 308.52 823.32 M 342.39 863.23 L 342.39 863.23 Q 340.02 863.23 338.28 862.33 Q 336.54 861.43 335.64 859.80 Q 334.74 858.18 334.74 856.03 L 334.74 856.03 Q 334.74 853.48 335.93 851.86 Q 337.12 850.23 338.97 849.25 Q 340.83 848.26 342.89 847.59 Q 344.95 846.93 346.80 846.32 Q 348.66 845.71 349.85 844.90 Q 351.04 844.09 351.04 842.75 L 351.04 842.75 L 351.04 839.16 Q 351.04 836.72 350.31 835.44 Q 349.59 834.17 348.37 833.73 Q 347.15 833.30 345.64 833.30 L 345.64 833.30 Q 344.19 833.30 342.54 833.70 Q 340.89 834.11 339.90 835.39 L 339.90 835.39 Q 341.00 835.62 341.81 836.55 Q 342.63 837.47 342.63 838.92 L 342.63 838.92 Q 342.63 840.37 341.70 841.21 Q 340.77 842.06 339.32 842.06 L 339.32 842.06 Q 337.64 842.06 336.85 840.98 Q 336.07 839.91 336.07 838.58 L 336.07 838.58 Q 336.07 837.07 336.83 836.14 Q 337.58 835.21 338.74 834.40 L 338.74 834.40 Q 340.07 833.47 342.19 832.80 Q 344.31 832.14 346.98 832.14 L 346.98 832.14 Q 349.35 832.14 351.04 832.69 Q 352.72 833.24 353.82 834.28 L 353.82 834.28 Q 355.33 835.68 355.79 837.68 Q 356.26 839.68 356.26 842.46 L 356.26 842.46 L 356.26 858.59 Q 356.26 860.04 356.69 860.67 Q 357.13 861.31 358.05 861.31 L 358.05 861.31 Q 358.69 861.31 359.27 861.02 Q 359.85 860.73 360.66 860.09 L 360.66 860.09 L 361.30 861.08 Q 360.08 862.01 358.98 862.62 Q 357.88 863.23 356.02 863.23 L 356.02 863.23 Q 354.34 863.23 353.24 862.65 Q 352.14 862.07 351.59 860.93 Q 351.04 859.80 351.04 858.06 L 351.04 858.06 Q 349.47 860.67 347.29 861.95 Q 345.12 863.23 342.39 863.23 M 344.48 860.91 L 344.48 860.91 Q 346.40 860.91 348.05 859.80 Q 349.70 858.70 351.04 856.50 L 351.04 856.50 L 351.04 845.13 Q 350.34 846.12 349.01 846.78 Q 347.67 847.45 346.11 848.12 Q 344.54 848.78 343.12 849.68 Q 341.70 850.58 340.77 852.03 Q 339.84 853.48 339.84 855.80 L 339.84 855.80 Q 339.84 858.12 341.09 859.51 Q 342.34 860.91 344.48 860.91 M 380.27 832.14 L 380.27 832.14 Q 385.02 832.14 388.16 836.05 Q 391.29 839.97 391.29 847.91 L 391.29 847.91 Q 391.29 853.13 389.52 856.64 Q 387.75 860.15 384.79 861.89 Q 381.83 863.63 378.35 863.63 L 378.35 863.63 Q 375.45 863.63 372.76 861.98 Q 370.06 860.33 368.73 857.08 L 368.73 857.08 L 369.89 857.72 Q 371.34 860.04 373.48 861.17 Q 375.63 862.30 377.89 862.30 L 377.89 862.30 Q 381.78 862.30 383.72 858.79 Q 385.66 855.28 385.66 847.91 L 385.66 847.91 Q 385.66 843.22 384.91 840.08 Q 384.15 836.95 382.59 835.41 Q 381.02 833.88 378.59 833.88 L 378.59 833.88 Q 375.92 833.88 373.63 836.28 Q 371.34 838.69 370.81 843.33 L 370.81 843.33 L 370.12 842.52 Q 370.76 837.59 373.57 834.86 Q 376.38 832.14 380.27 832.14 M 371.22 817.41 L 371.22 817.41 L 371.22 859.80 Q 370.47 860.44 369.68 861.11 Q 368.90 861.78 368.15 862.41 Q 367.39 863.05 366.58 863.75 L 366.58 863.75 L 365.59 863.34 Q 365.83 862.53 365.91 861.69 Q 366.00 860.85 366.00 859.98 L 366.00 859.98 L 366.00 824.37 Q 366.00 821.76 365.07 820.51 Q 364.14 819.26 361.59 819.26 L 361.59 819.26 L 361.59 818.04 Q 363.45 818.22 365.19 818.22 L 365.19 818.22 Q 366.87 818.22 368.41 818.01 Q 369.94 817.81 371.22 817.41 M 409.91 832.14 L 409.91 832.14 Q 413.62 832.14 416.58 833.76 Q 419.53 835.39 421.30 838.87 Q 423.07 842.35 423.07 847.91 L 423.07 847.91 Q 423.07 853.48 421.30 856.93 Q 419.53 860.38 416.58 862.01 Q 413.62 863.63 409.91 863.63 L 409.91 863.63 Q 406.25 863.63 403.26 862.01 Q 400.28 860.38 398.51 856.93 Q 396.74 853.48 396.74 847.91 L 396.74 847.91 Q 396.74 842.35 398.51 838.87 Q 400.28 835.39 403.26 833.76 Q 406.25 832.14 409.91 832.14 M 409.91 833.30 L 409.91 833.30 Q 406.60 833.30 404.48 836.72 Q 402.37 840.14 402.37 847.91 L 402.37 847.91 Q 402.37 855.69 404.48 859.08 Q 406.60 862.47 409.91 862.47 L 409.91 862.47 Q 413.21 862.47 415.33 859.08 Q 417.45 855.69 417.45 847.91 L 417.45 847.91 Q 417.45 840.14 415.33 836.72 Q 413.21 833.30 409.91 833.30 M 453.81 832.31 L 453.81 832.31 L 453.81 856.56 Q 453.81 859.17 454.77 860.41 Q 455.73 861.66 458.22 861.66 L 458.22 861.66 L 458.22 862.88 Q 456.42 862.70 454.62 862.70 L 454.62 862.70 Q 452.94 862.70 451.40 862.88 Q 449.87 863.05 448.59 863.52 L 448.59 863.52 L 448.59 856.67 Q 447.14 860.44 444.50 862.04 Q 441.86 863.63 439.08 863.63 L 439.08 863.63 Q 437.05 863.63 435.54 863.05 Q 434.03 862.47 433.05 861.43 L 433.05 861.43 Q 431.95 860.27 431.54 858.41 Q 431.13 856.56 431.13 853.83 L 431.13 853.83 L 431.13 839.27 Q 431.13 836.66 430.21 835.41 Q 429.28 834.17 426.73 834.17 L 426.73 834.17 L 426.73 832.95 Q 428.58 833.12 430.32 833.12 L 430.32 833.12 Q 432.00 833.12 433.54 832.92 Q 435.08 832.72 436.35 832.31 L 436.35 832.31 L 436.35 855.11 Q 436.35 856.90 436.59 858.41 Q 436.82 859.92 437.75 860.85 Q 438.67 861.78 440.76 861.78 L 440.76 861.78 Q 443.02 861.78 444.79 860.38 Q 446.56 858.99 447.58 856.61 Q 448.59 854.24 448.59 851.28 L 448.59 851.28 L 448.59 839.27 Q 448.59 836.66 447.66 835.41 Q 446.74 834.17 444.18 834.17 L 444.18 834.17 L 444.18 832.95 Q 446.04 833.12 447.78 833.12 L 447.78 833.12 Q 449.46 833.12 451.00 832.92 Q 452.54 832.72 453.81 832.31 M 470.52 823.32 L 470.52 823.32 L 470.52 833.01 L 479.10 833.01 L 479.10 834.17 L 470.52 834.17 L 470.52 856.61 Q 470.52 859.34 471.50 860.44 Q 472.49 861.54 474.23 861.54 L 474.23 861.54 Q 475.97 861.54 477.24 860.12 Q 478.52 858.70 479.45 855.34 L 479.45 855.34 L 480.61 855.63 Q 480.03 858.99 478.32 861.31 Q 476.61 863.63 473.07 863.63 L 473.07 863.63 Q 471.10 863.63 469.82 863.14 Q 468.54 862.65 467.56 861.72 L 467.56 861.72 Q 466.28 860.38 465.79 858.53 Q 465.30 856.67 465.30 853.60 L 465.30 853.60 L 465.30 834.17 L 459.73 834.17 L 459.73 833.01 L 465.30 833.01 L 465.30 824.13 Q 466.75 824.08 468.08 823.90 Q 469.41 823.73 470.52 823.32 M 515.29 832.14 L 515.29 832.14 Q 517.32 832.14 518.83 832.72 Q 520.34 833.30 521.32 834.34 L 521.32 834.34 Q 522.43 835.50 522.83 837.36 Q 523.24 839.21 523.24 841.94 L 523.24 841.94 L 523.24 857.43 Q 523.24 859.86 524.25 860.73 Q 525.27 861.60 527.65 861.60 L 527.65 861.60 L 527.65 862.82 Q 526.66 862.76 524.63 862.67 Q 522.60 862.59 520.69 862.59 L 520.69 862.59 Q 518.77 862.59 516.94 862.67 Q 515.12 862.76 514.19 862.82 L 514.19 862.82 L 514.19 861.60 Q 516.28 861.60 517.15 860.73 Q 518.02 859.86 518.02 857.43 L 518.02 857.43 L 518.02 840.66 Q 518.02 838.87 517.79 837.36 Q 517.55 835.85 516.63 834.92 Q 515.70 833.99 513.61 833.99 L 513.61 833.99 Q 511.35 833.99 509.58 835.39 Q 507.81 836.78 506.79 839.18 Q 505.78 841.59 505.78 844.55 L 505.78 844.55 L 505.78 857.43 Q 505.78 859.86 506.65 860.73 Q 507.52 861.60 509.61 861.60 L 509.61 861.60 L 509.61 862.82 Q 508.68 862.76 506.85 862.67 Q 505.03 862.59 503.11 862.59 L 503.11 862.59 Q 501.20 862.59 499.17 862.67 Q 497.14 862.76 496.15 862.82 L 496.15 862.82 L 496.15 861.60 Q 498.53 861.60 499.54 860.73 Q 500.56 859.86 500.56 857.43 L 500.56 857.43 L 500.56 839.27 Q 500.56 836.66 499.63 835.41 Q 498.70 834.17 496.15 834.17 L 496.15 834.17 L 496.15 832.95 Q 498.01 833.12 499.75 833.12 L 499.75 833.12 Q 501.43 833.12 502.97 832.92 Q 504.50 832.72 505.78 832.31 L 505.78 832.31 L 505.78 839.16 Q 507.29 835.39 509.90 833.76 Q 512.51 832.14 515.29 832.14 M 532.75 832.14 L 532.75 832.14 Q 534.78 832.14 536.29 832.72 Q 537.80 833.30 538.78 834.34 L 538.78 834.34 Q 539.88 835.50 540.29 837.36 Q 540.70 839.21 540.70 841.94 L 540.70 841.94 L 540.70 857.43 Q 540.70 859.86 541.71 860.73 Q 542.73 861.60 545.10 861.60 L 545.10 861.60 L 545.10 862.82 Q 544.12 862.76 542.09 862.67 Q 540.06 862.59 538.14 862.59 L 538.14 862.59 Q 536.23 862.59 534.40 862.67 Q 532.58 862.76 531.65 862.82 L 531.65 862.82 L 531.65 861.60 Q 533.74 861.60 534.61 860.73 Q 535.48 859.86 535.48 857.43 L 535.48 857.43 L 535.48 840.66 Q 535.48 838.87 535.24 837.36 Q 535.01 835.85 534.08 834.92 Q 533.16 833.99 531.07 833.99 L 531.07 833.99 Q 528.81 833.99 527.04 835.39 Q 525.27 836.78 524.25 839.16 Q 523.24 841.53 523.24 844.49 L 523.24 844.49 L 523.06 839.10 Q 524.63 835.10 527.30 833.62 Q 529.97 832.14 532.75 832.14 M 561.87 832.14 L 561.87 832.14 Q 565.58 832.14 568.54 833.76 Q 571.49 835.39 573.26 838.87 Q 575.03 842.35 575.03 847.91 L 575.03 847.91 Q 575.03 853.48 573.26 856.93 Q 571.49 860.38 568.54 862.01 Q 565.58 863.63 561.87 863.63 L 561.87 863.63 Q 558.21 863.63 555.22 862.01 Q 552.24 860.38 550.47 856.93 Q 548.70 853.48 548.70 847.91 L 548.70 847.91 Q 548.70 842.35 550.47 838.87 Q 552.24 835.39 555.22 833.76 Q 558.21 832.14 561.87 832.14 M 561.87 833.30 L 561.87 833.30 Q 558.56 833.30 556.44 836.72 Q 554.33 840.14 554.33 847.91 L 554.33 847.91 Q 554.33 855.69 556.44 859.08 Q 558.56 862.47 561.87 862.47 L 561.87 862.47 Q 565.17 862.47 567.29 859.08 Q 569.41 855.69 569.41 847.91 L 569.41 847.91 Q 569.41 840.14 567.29 836.72 Q 565.17 833.30 561.87 833.30 M 598.93 832.14 L 598.93 832.14 Q 601.13 832.14 602.61 832.72 Q 604.09 833.30 605.08 834.34 L 605.08 834.34 Q 606.18 835.50 606.64 837.24 Q 607.11 838.98 607.11 841.94 L 607.11 841.94 L 607.11 857.43 Q 607.11 859.86 608.12 860.73 Q 609.14 861.60 611.51 861.60 L 611.51 861.60 L 611.51 862.82 Q 610.53 862.76 608.50 862.67 Q 606.47 862.59 604.55 862.59 L 604.55 862.59 Q 602.64 862.59 600.81 862.67 Q 598.99 862.76 598.06 862.82 L 598.06 862.82 L 598.06 861.60 Q 600.15 861.60 601.02 860.73 Q 601.89 859.86 601.89 857.43 L 601.89 857.43 L 601.89 840.66 Q 601.89 838.87 601.60 837.36 Q 601.31 835.85 600.29 834.92 Q 599.28 833.99 597.19 833.99 L 597.19 833.99 Q 594.75 833.99 592.92 835.39 Q 591.10 836.78 590.08 839.18 Q 589.07 841.59 589.07 844.55 L 589.07 844.55 L 589.07 857.43 Q 589.07 859.86 589.94 860.73 Q 590.81 861.60 592.90 861.60 L 592.90 861.60 L 592.90 862.82 Q 591.97 862.76 590.14 862.67 Q 588.31 862.59 586.40 862.59 L 586.40 862.59 Q 584.49 862.59 582.46 862.67 Q 580.43 862.76 579.44 862.82 L 579.44 862.82 L 579.44 861.60 Q 581.82 861.60 582.83 860.73 Q 583.85 859.86 583.85 857.43 L 583.85 857.43 L 583.85 839.27 Q 583.85 836.66 582.92 835.41 Q 581.99 834.17 579.44 834.17 L 579.44 834.17 L 579.44 832.95 Q 581.30 833.12 583.04 833.12 L 583.04 833.12 Q 584.72 833.12 586.25 832.92 Q 587.79 832.72 589.07 832.31 L 589.07 832.31 L 589.07 839.16 Q 590.58 835.21 593.27 833.67 Q 595.97 832.14 598.93 832.14 M 628.16 832.14 L 628.16 832.14 Q 633.26 832.14 636.13 835.24 Q 639.01 838.34 639.01 844.90 L 639.01 844.90 L 618.53 844.90 L 618.47 843.80 L 633.44 843.80 Q 633.55 840.95 632.97 838.55 Q 632.39 836.14 631.15 834.69 Q 629.90 833.24 627.93 833.24 L 627.93 833.24 Q 625.26 833.24 623.20 835.91 Q 621.14 838.58 620.74 844.38 L 620.74 844.38 L 620.91 844.61 Q 620.79 845.48 620.74 846.52 Q 620.68 847.57 620.68 848.61 L 620.68 848.61 Q 620.68 852.55 621.95 855.40 Q 623.23 858.24 625.29 859.72 Q 627.35 861.20 629.55 861.20 L 629.55 861.20 Q 631.29 861.20 632.86 860.64 Q 634.42 860.09 635.76 858.82 Q 637.09 857.54 638.08 855.40 L 638.08 855.40 L 639.24 855.86 Q 638.60 857.77 637.15 859.57 Q 635.70 861.37 633.50 862.50 Q 631.29 863.63 628.39 863.63 L 628.39 863.63 Q 624.22 863.63 621.23 861.72 Q 618.24 859.80 616.65 856.41 Q 615.05 853.02 615.05 848.61 L 615.05 848.61 Q 615.05 843.51 616.68 839.82 Q 618.30 836.14 621.26 834.14 Q 624.22 832.14 628.16 832.14 M 670.38 832.95 L 670.38 832.95 L 670.38 834.11 Q 669.28 834.23 668.35 835.10 Q 667.43 835.97 666.61 838.17 L 666.61 838.17 L 657.10 863.11 L 656.12 863.11 L 645.44 837.42 Q 644.34 835.15 643.27 834.66 Q 642.20 834.17 641.50 834.17 L 641.50 834.17 L 641.50 832.95 Q 642.78 833.12 644.17 833.21 Q 645.56 833.30 647.18 833.30 L 647.18 833.30 Q 648.98 833.30 650.98 833.18 Q 652.98 833.07 654.72 832.95 L 654.72 832.95 L 654.72 834.17 Q 653.27 834.17 652.14 834.37 Q 651.01 834.57 650.72 835.59 Q 650.43 836.60 651.42 839.04 L 651.42 839.04 L 658.55 856.73 L 658.20 856.85 L 664.82 839.56 Q 665.57 837.65 665.42 836.52 Q 665.28 835.39 664.24 834.81 Q 663.19 834.23 661.10 834.11 L 661.10 834.11 L 661.10 832.95 Q 662.15 833.01 662.90 833.04 Q 663.66 833.07 664.38 833.09 Q 665.11 833.12 665.98 833.12 L 665.98 833.12 Q 667.31 833.12 668.38 833.07 Q 669.46 833.01 670.38 832.95 M 656.00 862.65 L 657.10 863.11 L 655.13 868.16 Q 654.55 869.61 653.94 870.59 Q 653.33 871.58 652.64 872.22 L 652.64 872.22 Q 651.71 873.09 650.43 873.40 Q 649.16 873.72 648.11 873.72 L 648.11 873.72 Q 647.01 873.72 646.11 873.32 Q 645.21 872.91 644.69 872.13 Q 644.17 871.35 644.17 870.24 L 644.17 870.24 Q 644.17 868.85 644.98 868.01 Q 645.79 867.17 647.24 867.17 L 647.24 867.17 Q 648.46 867.17 649.33 867.87 Q 650.20 868.56 650.20 869.90 L 650.20 869.90 Q 650.20 870.88 649.74 871.52 Q 649.27 872.16 648.63 872.51 L 648.63 872.51 Q 648.75 872.56 648.84 872.56 Q 648.92 872.56 648.98 872.56 L 648.98 872.56 Q 650.55 872.56 651.77 871.49 Q 652.98 870.42 653.91 868.04 L 653.91 868.04 L 656.00 862.65 M 678.27 856.21 L 678.27 856.21 Q 679.78 856.21 680.88 857.31 Q 681.98 858.41 681.98 859.92 L 681.98 859.92 Q 681.98 861.43 680.88 862.53 Q 679.78 863.63 678.27 863.63 L 678.27 863.63 Q 676.76 863.63 675.66 862.53 Q 674.56 861.43 674.56 859.92 L 674.56 859.92 Q 674.56 858.41 675.66 857.31 Q 676.76 856.21 678.27 856.21 M 718.76 821.47 L 718.76 821.47 L 732.91 857.95 Q 733.78 860.15 734.88 860.88 Q 735.98 861.60 736.91 861.66 L 736.91 861.66 L 736.91 862.82 Q 735.75 862.70 734.07 862.67 Q 732.39 862.65 730.70 862.65 L 730.70 862.65 Q 728.44 862.65 726.47 862.67 Q 724.50 862.70 723.28 862.82 L 723.28 862.82 L 723.28 861.66 Q 726.24 861.54 727.05 860.64 Q 727.86 859.75 726.70 856.79 L 726.70 856.79 L 715.91 827.96 L 716.84 827.21 L 706.75 853.42 Q 705.82 855.74 705.65 857.34 Q 705.47 858.93 705.97 859.86 Q 706.46 860.79 707.65 861.20 Q 708.84 861.60 710.64 861.66 L 710.64 861.66 L 710.64 862.82 Q 709.01 862.70 707.24 862.67 Q 705.47 862.65 703.97 862.65 L 703.97 862.65 Q 702.52 862.65 701.50 862.67 Q 700.49 862.70 699.62 862.82 L 699.62 862.82 L 699.62 861.66 Q 700.78 861.37 701.99 860.30 Q 703.21 859.22 704.20 856.61 L 704.20 856.61 L 717.83 821.47 Q 718.06 821.47 718.29 821.47 Q 718.52 821.47 718.76 821.47 M 709.13 846.12 L 725.83 846.12 L 725.83 847.28 L 708.55 847.28 L 709.13 846.12 M 755.47 832.14 L 755.47 832.14 Q 760.23 832.14 763.36 836.05 Q 766.49 839.97 766.49 847.91 L 766.49 847.91 Q 766.49 853.13 764.72 856.64 Q 762.95 860.15 759.99 861.89 Q 757.04 863.63 753.56 863.63 L 753.56 863.63 Q 750.66 863.63 747.96 861.98 Q 745.26 860.33 743.93 857.08 L 743.93 857.08 L 745.09 857.72 Q 746.54 860.04 748.68 861.17 Q 750.83 862.30 753.09 862.30 L 753.09 862.30 Q 756.98 862.30 758.92 858.79 Q 760.86 855.28 760.86 847.91 L 760.86 847.91 Q 760.86 843.22 760.11 840.08 Q 759.36 836.95 757.79 835.41 Q 756.22 833.88 753.79 833.88 L 753.79 833.88 Q 751.12 833.88 748.83 836.28 Q 746.54 838.69 746.02 843.33 L 746.02 843.33 L 745.32 842.52 Q 745.96 837.59 748.77 834.86 Q 751.58 832.14 755.47 832.14 M 746.42 817.41 L 746.42 817.41 L 746.42 859.80 Q 745.67 860.44 744.88 861.11 Q 744.10 861.78 743.35 862.41 Q 742.59 863.05 741.78 863.75 L 741.78 863.75 L 740.80 863.34 Q 741.03 862.53 741.11 861.69 Q 741.20 860.85 741.20 859.98 L 741.20 859.98 L 741.20 824.37 Q 741.20 821.76 740.27 820.51 Q 739.35 819.26 736.79 819.26 L 736.79 819.26 L 736.79 818.04 Q 738.65 818.22 740.39 818.22 L 740.39 818.22 Q 742.07 818.22 743.61 818.01 Q 745.15 817.81 746.42 817.41 M 785.11 832.14 L 785.11 832.14 Q 788.82 832.14 791.78 833.76 Q 794.74 835.39 796.50 838.87 Q 798.27 842.35 798.27 847.91 L 798.27 847.91 Q 798.27 853.48 796.50 856.93 Q 794.74 860.38 791.78 862.01 Q 788.82 863.63 785.11 863.63 L 785.11 863.63 Q 781.45 863.63 778.47 862.01 Q 775.48 860.38 773.71 856.93 Q 771.94 853.48 771.94 847.91 L 771.94 847.91 Q 771.94 842.35 773.71 838.87 Q 775.48 835.39 778.47 833.76 Q 781.45 832.14 785.11 832.14 M 785.11 833.30 L 785.11 833.30 Q 781.80 833.30 779.68 836.72 Q 777.57 840.14 777.57 847.91 L 777.57 847.91 Q 777.57 855.69 779.68 859.08 Q 781.80 862.47 785.11 862.47 L 785.11 862.47 Q 788.41 862.47 790.53 859.08 Q 792.65 855.69 792.65 847.91 L 792.65 847.91 Q 792.65 840.14 790.53 836.72 Q 788.41 833.30 785.11 833.30 M 829.01 832.31 L 829.01 832.31 L 829.01 856.56 Q 829.01 859.17 829.97 860.41 Q 830.93 861.66 833.42 861.66 L 833.42 861.66 L 833.42 862.88 Q 831.62 862.70 829.83 862.70 L 829.83 862.70 Q 828.14 862.70 826.61 862.88 Q 825.07 863.05 823.79 863.52 L 823.79 863.52 L 823.79 856.67 Q 822.34 860.44 819.70 862.04 Q 817.07 863.63 814.28 863.63 L 814.28 863.63 Q 812.25 863.63 810.74 863.05 Q 809.24 862.47 808.25 861.43 L 808.25 861.43 Q 807.15 860.27 806.74 858.41 Q 806.34 856.56 806.34 853.83 L 806.34 853.83 L 806.34 839.27 Q 806.34 836.66 805.41 835.41 Q 804.48 834.17 801.93 834.17 L 801.93 834.17 L 801.93 832.95 Q 803.78 833.12 805.52 833.12 L 805.52 833.12 Q 807.21 833.12 808.74 832.92 Q 810.28 832.72 811.56 832.31 L 811.56 832.31 L 811.56 855.11 Q 811.56 856.90 811.79 858.41 Q 812.02 859.92 812.95 860.85 Q 813.88 861.78 815.96 861.78 L 815.96 861.78 Q 818.23 861.78 819.99 860.38 Q 821.76 858.99 822.78 856.61 Q 823.79 854.24 823.79 851.28 L 823.79 851.28 L 823.79 839.27 Q 823.79 836.66 822.87 835.41 Q 821.94 834.17 819.39 834.17 L 819.39 834.17 L 819.39 832.95 Q 821.24 833.12 822.98 833.12 L 822.98 833.12 Q 824.66 833.12 826.20 832.92 Q 827.74 832.72 829.01 832.31 M 845.72 823.32 L 845.72 823.32 L 845.72 833.01 L 854.30 833.01 L 854.30 834.17 L 845.72 834.17 L 845.72 856.61 Q 845.72 859.34 846.70 860.44 Q 847.69 861.54 849.43 861.54 L 849.43 861.54 Q 851.17 861.54 852.45 860.12 Q 853.72 858.70 854.65 855.34 L 854.65 855.34 L 855.81 855.63 Q 855.23 858.99 853.52 861.31 Q 851.81 863.63 848.27 863.63 L 848.27 863.63 Q 846.30 863.63 845.02 863.14 Q 843.75 862.65 842.76 861.72 L 842.76 861.72 Q 841.48 860.38 840.99 858.53 Q 840.50 856.67 840.50 853.60 L 840.50 853.60 L 840.50 834.17 L 834.93 834.17 L 834.93 833.01 L 840.50 833.01 L 840.50 824.13 Q 841.95 824.08 843.28 823.90 Q 844.62 823.73 845.72 823.32" fill="#1c1917"/><path d="M 423.68 929.35 L 423.68 929.35 Q 421.30 929.35 419.56 928.45 Q 417.82 927.55 416.92 925.92 Q 416.02 924.30 416.02 922.15 L 416.02 922.15 Q 416.02 919.60 417.21 917.98 Q 418.40 916.35 420.26 915.37 Q 422.11 914.38 424.17 913.71 Q 426.23 913.05 428.09 912.44 Q 429.94 911.83 431.13 911.02 Q 432.32 910.21 432.32 908.87 L 432.32 908.87 L 432.32 905.28 Q 432.32 902.84 431.60 901.56 Q 430.87 900.29 429.65 899.85 Q 428.44 899.42 426.93 899.42 L 426.93 899.42 Q 425.48 899.42 423.83 899.82 Q 422.17 900.23 421.19 901.51 L 421.19 901.51 Q 422.29 901.74 423.10 902.67 Q 423.91 903.59 423.91 905.04 L 423.91 905.04 Q 423.91 906.49 422.98 907.33 Q 422.06 908.18 420.61 908.18 L 420.61 908.18 Q 418.92 908.18 418.14 907.10 Q 417.36 906.03 417.36 904.70 L 417.36 904.70 Q 417.36 903.19 418.11 902.26 Q 418.87 901.33 420.03 900.52 L 420.03 900.52 Q 421.36 899.59 423.48 898.92 Q 425.59 898.26 428.26 898.26 L 428.26 898.26 Q 430.64 898.26 432.32 898.81 Q 434.00 899.36 435.11 900.40 L 435.11 900.40 Q 436.61 901.80 437.08 903.80 Q 437.54 905.80 437.54 908.58 L 437.54 908.58 L 437.54 924.71 Q 437.54 926.16 437.98 926.79 Q 438.41 927.43 439.34 927.43 L 439.34 927.43 Q 439.98 927.43 440.56 927.14 Q 441.14 926.85 441.95 926.21 L 441.95 926.21 L 442.59 927.20 Q 441.37 928.13 440.27 928.74 Q 439.17 929.35 437.31 929.35 L 437.31 929.35 Q 435.63 929.35 434.53 928.77 Q 433.42 928.19 432.87 927.05 Q 432.32 925.92 432.32 924.18 L 432.32 924.18 Q 430.76 926.79 428.58 928.07 Q 426.41 929.35 423.68 929.35 M 425.77 927.03 L 425.77 927.03 Q 427.68 927.03 429.34 925.92 Q 430.99 924.82 432.32 922.62 L 432.32 922.62 L 432.32 911.25 Q 431.63 912.24 430.29 912.90 Q 428.96 913.57 427.39 914.24 Q 425.83 914.90 424.41 915.80 Q 422.98 916.70 422.06 918.15 Q 421.13 919.60 421.13 921.92 L 421.13 921.92 Q 421.13 924.24 422.38 925.63 Q 423.62 927.03 425.77 927.03 M 453.67 889.44 L 453.67 889.44 L 453.67 899.13 L 462.25 899.13 L 462.25 900.29 L 453.67 900.29 L 453.67 922.73 Q 453.67 925.46 454.65 926.56 Q 455.64 927.66 457.38 927.66 L 457.38 927.66 Q 459.12 927.66 460.39 926.24 Q 461.67 924.82 462.60 921.46 L 462.60 921.46 L 463.76 921.75 Q 463.18 925.11 461.47 927.43 Q 459.76 929.75 456.22 929.75 L 456.22 929.75 Q 454.25 929.75 452.97 929.26 Q 451.69 928.77 450.71 927.84 L 450.71 927.84 Q 449.43 926.50 448.94 924.65 Q 448.45 922.79 448.45 919.72 L 448.45 919.72 L 448.45 900.29 L 442.88 900.29 L 442.88 899.13 L 448.45 899.13 L 448.45 890.25 Q 449.90 890.20 451.23 890.02 Q 452.56 889.85 453.67 889.44 M 474.20 889.44 L 474.20 889.44 L 474.20 899.13 L 482.78 899.13 L 482.78 900.29 L 474.20 900.29 L 474.20 922.73 Q 474.20 925.46 475.18 926.56 Q 476.17 927.66 477.91 927.66 L 477.91 927.66 Q 479.65 927.66 480.93 926.24 Q 482.20 924.82 483.13 921.46 L 483.13 921.46 L 484.29 921.75 Q 483.71 925.11 482.00 927.43 Q 480.29 929.75 476.75 929.75 L 476.75 929.75 Q 474.78 929.75 473.50 929.26 Q 472.23 928.77 471.24 927.84 L 471.24 927.84 Q 469.96 926.50 469.47 924.65 Q 468.98 922.79 468.98 919.72 L 468.98 919.72 L 468.98 900.29 L 463.41 900.29 L 463.41 899.13 L 468.98 899.13 L 468.98 890.25 Q 470.43 890.20 471.76 890.02 Q 473.10 889.85 474.20 889.44 M 499.49 898.26 L 499.49 898.26 Q 504.59 898.26 507.46 901.36 Q 510.33 904.46 510.33 911.02 L 510.33 911.02 L 489.86 911.02 L 489.80 909.92 L 504.76 909.92 Q 504.88 907.07 504.30 904.67 Q 503.72 902.26 502.47 900.81 Q 501.23 899.36 499.25 899.36 L 499.25 899.36 Q 496.59 899.36 494.53 902.03 Q 492.47 904.70 492.06 910.50 L 492.06 910.50 L 492.24 910.73 Q 492.12 911.60 492.06 912.64 Q 492.00 913.69 492.00 914.73 L 492.00 914.73 Q 492.00 918.67 493.28 921.52 Q 494.56 924.36 496.62 925.84 Q 498.67 927.32 500.88 927.32 L 500.88 927.32 Q 502.62 927.32 504.18 926.76 Q 505.75 926.21 507.08 924.94 Q 508.42 923.66 509.40 921.52 L 509.40 921.52 L 510.56 921.98 Q 509.93 923.89 508.48 925.69 Q 507.03 927.49 504.82 928.62 Q 502.62 929.75 499.72 929.75 L 499.72 929.75 Q 495.54 929.75 492.56 927.84 Q 489.57 925.92 487.97 922.53 Q 486.38 919.14 486.38 914.73 L 486.38 914.73 Q 486.38 909.63 488.00 905.94 Q 489.63 902.26 492.58 900.26 Q 495.54 898.26 499.49 898.26 M 534.23 898.26 L 534.23 898.26 Q 536.43 898.26 537.91 898.84 Q 539.39 899.42 540.38 900.46 L 540.38 900.46 Q 541.48 901.62 541.94 903.36 Q 542.41 905.10 542.41 908.06 L 542.41 908.06 L 542.41 923.55 Q 542.41 925.98 543.42 926.85 Q 544.44 927.72 546.81 927.72 L 546.81 927.72 L 546.81 928.94 Q 545.83 928.88 543.80 928.79 Q 541.77 928.71 539.86 928.71 L 539.86 928.71 Q 537.94 928.71 536.11 928.79 Q 534.29 928.88 533.36 928.94 L 533.36 928.94 L 533.36 927.72 Q 535.45 927.72 536.32 926.85 Q 537.19 925.98 537.19 923.55 L 537.19 923.55 L 537.19 906.78 Q 537.19 904.99 536.90 903.48 Q 536.61 901.97 535.59 901.04 Q 534.58 900.11 532.49 900.11 L 532.49 900.11 Q 530.05 900.11 528.23 901.51 Q 526.40 902.90 525.38 905.30 Q 524.37 907.71 524.37 910.67 L 524.37 910.67 L 524.37 923.55 Q 524.37 925.98 525.24 926.85 Q 526.11 927.72 528.20 927.72 L 528.20 927.72 L 528.20 928.94 Q 527.27 928.88 525.44 928.79 Q 523.62 928.71 521.70 928.71 L 521.70 928.71 Q 519.79 928.71 517.76 928.79 Q 515.73 928.88 514.74 928.94 L 514.74 928.94 L 514.74 927.72 Q 517.12 927.72 518.13 926.85 Q 519.15 925.98 519.15 923.55 L 519.15 923.55 L 519.15 905.39 Q 519.15 902.78 518.22 901.53 Q 517.29 900.29 514.74 900.29 L 514.74 900.29 L 514.74 899.07 Q 516.60 899.24 518.34 899.24 L 518.34 899.24 Q 520.02 899.24 521.56 899.04 Q 523.09 898.84 524.37 898.43 L 524.37 898.43 L 524.37 905.28 Q 525.88 901.33 528.57 899.79 Q 531.27 898.26 534.23 898.26 M 558.70 889.44 L 558.70 889.44 L 558.70 899.13 L 567.29 899.13 L 567.29 900.29 L 558.70 900.29 L 558.70 922.73 Q 558.70 925.46 559.69 926.56 Q 560.68 927.66 562.42 927.66 L 562.42 927.66 Q 564.16 927.66 565.43 926.24 Q 566.71 924.82 567.64 921.46 L 567.64 921.46 L 568.80 921.75 Q 568.22 925.11 566.51 927.43 Q 564.79 929.75 561.26 929.75 L 561.26 929.75 Q 559.28 929.75 558.01 929.26 Q 556.73 928.77 555.75 927.84 L 555.75 927.84 Q 554.47 926.50 553.98 924.65 Q 553.48 922.79 553.48 919.72 L 553.48 919.72 L 553.48 900.29 L 547.92 900.29 L 547.92 899.13 L 553.48 899.13 L 553.48 890.25 Q 554.93 890.20 556.27 890.02 Q 557.60 889.85 558.70 889.44 M 576.51 884.57 L 576.51 884.57 Q 578.02 884.57 579.12 885.67 Q 580.22 886.77 580.22 888.28 L 580.22 888.28 Q 580.22 889.79 579.12 890.89 Q 578.02 891.99 576.51 891.99 L 576.51 891.99 Q 575.00 891.99 573.90 890.89 Q 572.80 889.79 572.80 888.28 L 572.80 888.28 Q 572.80 886.77 573.90 885.67 Q 575.00 884.57 576.51 884.57 M 579.53 898.43 L 579.53 898.43 L 579.53 923.55 Q 579.53 925.98 580.54 926.85 Q 581.56 927.72 583.93 927.72 L 583.93 927.72 L 583.93 928.94 Q 582.95 928.88 580.95 928.79 Q 578.95 928.71 576.92 928.71 L 576.92 928.71 Q 574.94 928.71 572.91 928.79 Q 570.88 928.88 569.90 928.94 L 569.90 928.94 L 569.90 927.72 Q 572.28 927.72 573.29 926.85 Q 574.31 925.98 574.31 923.55 L 574.31 923.55 L 574.31 905.39 Q 574.31 902.78 573.38 901.53 Q 572.45 900.29 569.90 900.29 L 569.90 900.29 L 569.90 899.07 Q 571.75 899.24 573.50 899.24 L 573.50 899.24 Q 575.18 899.24 576.71 899.04 Q 578.25 898.84 579.53 898.43 M 601.10 898.26 L 601.10 898.26 Q 604.82 898.26 607.77 899.88 Q 610.73 901.51 612.50 904.99 Q 614.27 908.47 614.27 914.03 L 614.27 914.03 Q 614.27 919.60 612.50 923.05 Q 610.73 926.50 607.77 928.13 Q 604.82 929.75 601.10 929.75 L 601.10 929.75 Q 597.45 929.75 594.46 928.13 Q 591.48 926.50 589.71 923.05 Q 587.94 919.60 587.94 914.03 L 587.94 914.03 Q 587.94 908.47 589.71 904.99 Q 591.48 901.51 594.46 899.88 Q 597.45 898.26 601.10 898.26 M 601.10 899.42 L 601.10 899.42 Q 597.80 899.42 595.68 902.84 Q 593.56 906.26 593.56 914.03 L 593.56 914.03 Q 593.56 921.81 595.68 925.20 Q 597.80 928.59 601.10 928.59 L 601.10 928.59 Q 604.41 928.59 606.53 925.20 Q 608.64 921.81 608.64 914.03 L 608.64 914.03 Q 608.64 906.26 606.53 902.84 Q 604.41 899.42 601.10 899.42 M 638.16 898.26 L 638.16 898.26 Q 640.37 898.26 641.85 898.84 Q 643.33 899.42 644.31 900.46 L 644.31 900.46 Q 645.41 901.62 645.88 903.36 Q 646.34 905.10 646.34 908.06 L 646.34 908.06 L 646.34 923.55 Q 646.34 925.98 647.36 926.85 Q 648.37 927.72 650.75 927.72 L 650.75 927.72 L 650.75 928.94 Q 649.76 928.88 647.74 928.79 Q 645.71 928.71 643.79 928.71 L 643.79 928.71 Q 641.88 928.71 640.05 928.79 Q 638.22 928.88 637.29 928.94 L 637.29 928.94 L 637.29 927.72 Q 639.38 927.72 640.25 926.85 Q 641.12 925.98 641.12 923.55 L 641.12 923.55 L 641.12 906.78 Q 641.12 904.99 640.83 903.48 Q 640.54 901.97 639.53 901.04 Q 638.51 900.11 636.42 900.11 L 636.42 900.11 Q 633.99 900.11 632.16 901.51 Q 630.34 902.90 629.32 905.30 Q 628.30 907.71 628.30 910.67 L 628.30 910.67 L 628.30 923.55 Q 628.30 925.98 629.17 926.85 Q 630.04 927.72 632.13 927.72 L 632.13 927.72 L 632.13 928.94 Q 631.21 928.88 629.38 928.79 Q 627.55 928.71 625.64 928.71 L 625.64 928.71 Q 623.72 928.71 621.69 928.79 Q 619.66 928.88 618.68 928.94 L 618.68 928.94 L 618.68 927.72 Q 621.05 927.72 622.07 926.85 Q 623.09 925.98 623.09 923.55 L 623.09 923.55 L 623.09 905.39 Q 623.09 902.78 622.16 901.53 Q 621.23 900.29 618.68 900.29 L 618.68 900.29 L 618.68 899.07 Q 620.53 899.24 622.27 899.24 L 622.27 899.24 Q 623.96 899.24 625.49 899.04 Q 627.03 898.84 628.30 898.43 L 628.30 898.43 L 628.30 905.28 Q 629.81 901.33 632.51 899.79 Q 635.21 898.26 638.16 898.26 M 658.93 922.33 L 658.93 922.33 Q 660.44 922.33 661.54 923.43 Q 662.64 924.53 662.64 926.04 L 662.64 926.04 Q 662.64 927.55 661.54 928.65 Q 660.44 929.75 658.93 929.75 L 658.93 929.75 Q 657.42 929.75 656.32 928.65 Q 655.22 927.55 655.22 926.04 L 655.22 926.04 Q 655.22 924.53 656.32 923.43 Q 657.42 922.33 658.93 922.33" fill="#1c1917"/><text x="540" y="1010" text-anchor="middle" fill="#D4B378" font-family="'Helvetica Neue', Arial, sans-serif" font-size="20" letter-spacing="7" style="text-transform:uppercase">Atelier</text></svg>