<svg xmlns="http://www.w3.org/2000/svg" width="1080" height="1080" viewBox="0 0 1080 1080"><rect width="1080" height="1080" fill="#F7F5F2"/><rect x="34" y="34" width="1012" height="1012" fill="none" stroke="#D4B378" stroke-width="1.5" opacity="0.5"/><text x="540" y="175" text-anchor="middle" fill="#D4B378" font-family="'Helvetica Neue', Arial, sans-serif" font-size="27" letter-spacing="8" style="text-transform:uppercase">On the inventory of a life</text><line x1="496" y1="240" x2="584" y2="240" stroke="#D4B378" stroke-width="1.4" opacity="0.85"/><path d="M 225.45 461.61 L 225.45 461.61 L 225.45 463.69 Q 223.48 464.10 221.08 466.03 Q 218.69 467.95 217.24 472.74 L 217.24 472.74 L 197.58 535.76 Q 197.37 535.76 197.16 535.76 Q 196.96 535.76 196.75 535.76 L 196.75 535.76 Q 196.54 535.76 196.33 535.76 Q 196.12 535.76 195.92 535.76 L 195.92 535.76 L 173.87 470.34 Q 172.52 466.29 170.85 465.04 Q 169.19 463.79 167.73 463.69 L 167.73 463.69 L 167.73 461.61 Q 169.60 461.71 172.41 461.82 Q 175.22 461.92 177.82 461.92 L 177.82 461.92 Q 181.88 461.92 185.41 461.82 Q 188.95 461.71 191.13 461.61 L 191.13 461.61 L 191.13 463.69 Q 188.01 463.79 186.19 464.31 Q 184.37 464.83 184.11 466.60 Q 183.85 468.37 185.10 472.42 L 185.10 472.42 L 200.60 520.37 L 199.14 521.62 L 212.87 478.46 Q 214.74 472.74 214.58 469.56 Q 214.43 466.39 212.24 465.09 Q 210.06 463.79 205.69 463.69 L 205.69 463.69 L 205.69 461.61 Q 208.71 461.71 211.83 461.82 Q 214.95 461.92 217.65 461.92 L 217.65 461.92 Q 220.36 461.92 222.12 461.82 Q 223.89 461.71 225.45 461.61 M 152.76 461.61 L 152.76 461.61 L 152.76 463.69 Q 150.05 463.90 148.86 464.73 Q 147.66 465.56 147.71 467.38 Q 147.76 469.20 148.80 472.42 L 148.80 472.42 L 164.92 521.62 L 162.32 524.22 L 176.88 477.73 L 178.44 480.22 L 161.28 535.76 Q 161.08 535.76 160.87 535.76 Q 160.66 535.76 160.45 535.76 L 160.45 535.76 Q 160.24 535.76 160.04 535.76 Q 159.83 535.76 159.62 535.76 L 159.62 535.76 L 137.57 470.34 Q 136.22 466.29 134.14 465.04 Q 132.06 463.79 130.40 463.69 L 130.40 463.69 L 130.40 461.61 Q 132.48 461.71 135.54 461.82 Q 138.61 461.92 141.52 461.92 L 141.52 461.92 Q 144.96 461.92 147.92 461.82 Q 150.88 461.71 152.76 461.61 M 253.53 480.22 L 253.53 480.22 Q 262.68 480.22 267.83 485.79 Q 272.98 491.35 272.98 503.10 L 272.98 503.10 L 236.27 503.10 L 236.16 501.13 L 263.00 501.13 Q 263.20 496.03 262.16 491.72 Q 261.12 487.40 258.89 484.80 Q 256.65 482.20 253.12 482.20 L 253.12 482.20 Q 248.33 482.20 244.64 486.98 Q 240.95 491.77 240.22 502.17 L 240.22 502.17 L 240.53 502.58 Q 240.32 504.14 240.22 506.02 Q 240.12 507.89 240.12 509.76 L 240.12 509.76 Q 240.12 516.83 242.40 521.93 Q 244.69 527.02 248.38 529.68 Q 252.08 532.33 256.03 532.33 L 256.03 532.33 Q 259.15 532.33 261.96 531.34 Q 264.76 530.35 267.16 528.06 Q 269.55 525.78 271.32 521.93 L 271.32 521.93 L 273.40 522.76 Q 272.25 526.19 269.65 529.42 Q 267.05 532.64 263.10 534.67 Q 259.15 536.70 253.95 536.70 L 253.95 536.70 Q 246.46 536.70 241.10 533.26 Q 235.75 529.83 232.89 523.75 Q 230.03 517.66 230.03 509.76 L 230.03 509.76 Q 230.03 500.61 232.94 494.00 Q 235.85 487.40 241.16 483.81 Q 246.46 480.22 253.53 480.22 M 321.55 535.97 L 321.55 535.97 Q 317.28 535.97 314.16 534.36 Q 311.04 532.74 309.43 529.83 Q 307.82 526.92 307.82 523.07 L 307.82 523.07 Q 307.82 518.50 309.95 515.58 Q 312.08 512.67 315.41 510.90 Q 318.74 509.14 322.43 507.94 Q 326.12 506.74 329.45 505.65 Q 332.78 504.56 334.91 503.10 Q 337.04 501.65 337.04 499.26 L 337.04 499.26 L 337.04 492.81 Q 337.04 488.44 335.74 486.15 Q 334.44 483.86 332.26 483.08 Q 330.08 482.30 327.37 482.30 L 327.37 482.30 Q 324.77 482.30 321.81 483.03 Q 318.84 483.76 317.08 486.05 L 317.08 486.05 Q 319.05 486.46 320.51 488.13 Q 321.96 489.79 321.96 492.39 L 321.96 492.39 Q 321.96 494.99 320.30 496.50 Q 318.64 498.01 316.04 498.01 L 316.04 498.01 Q 313.02 498.01 311.62 496.08 Q 310.21 494.16 310.21 491.77 L 310.21 491.77 Q 310.21 489.06 311.56 487.40 Q 312.92 485.74 315.00 484.28 L 315.00 484.28 Q 317.39 482.62 321.18 481.42 Q 324.98 480.22 329.76 480.22 L 329.76 480.22 Q 334.03 480.22 337.04 481.21 Q 340.06 482.20 342.04 484.07 L 342.04 484.07 Q 344.74 486.57 345.57 490.16 Q 346.40 493.74 346.40 498.74 L 346.40 498.74 L 346.40 527.65 Q 346.40 530.25 347.18 531.39 Q 347.96 532.54 349.63 532.54 L 349.63 532.54 Q 350.77 532.54 351.81 532.02 Q 352.85 531.50 354.31 530.35 L 354.31 530.35 L 355.45 532.12 Q 353.27 533.78 351.29 534.88 Q 349.32 535.97 345.99 535.97 L 345.99 535.97 Q 342.97 535.97 341.00 534.93 Q 339.02 533.89 338.03 531.86 Q 337.04 529.83 337.04 526.71 L 337.04 526.71 Q 334.24 531.39 330.34 533.68 Q 326.44 535.97 321.55 535.97 M 325.29 531.81 L 325.29 531.81 Q 328.72 531.81 331.69 529.83 Q 334.65 527.86 337.04 523.90 L 337.04 523.90 L 337.04 503.52 Q 335.80 505.29 333.40 506.48 Q 331.01 507.68 328.20 508.88 Q 325.40 510.07 322.85 511.68 Q 320.30 513.30 318.64 515.90 Q 316.97 518.50 316.97 522.66 L 316.97 522.66 Q 316.97 526.82 319.21 529.31 Q 321.44 531.81 325.29 531.81 M 384.57 480.22 L 384.57 480.22 Q 387.90 480.22 391.02 481.06 Q 394.14 481.89 396.64 483.55 L 396.64 483.55 Q 399.03 485.11 400.28 487.14 Q 401.52 489.17 401.52 491.56 L 401.52 491.56 Q 401.52 494.37 399.96 495.88 Q 398.40 497.38 396.01 497.38 L 396.01 497.38 Q 393.72 497.38 392.01 496.03 Q 390.29 494.68 390.29 492.18 L 390.29 492.18 Q 390.29 489.79 391.59 488.34 Q 392.89 486.88 394.66 486.46 L 394.66 486.46 Q 393.62 484.59 390.97 483.34 Q 388.32 482.10 385.30 482.10 L 385.30 482.10 Q 382.70 482.10 380.10 483.34 Q 377.50 484.59 375.32 487.45 Q 373.13 490.31 371.78 495.25 Q 370.43 500.19 370.43 507.58 L 370.43 507.58 Q 370.43 516.73 372.51 522.14 Q 374.59 527.54 377.97 529.88 Q 381.35 532.22 385.40 532.22 L 385.40 532.22 Q 388.11 532.22 390.92 531.18 Q 393.72 530.14 396.22 527.80 Q 398.72 525.46 400.48 521.51 L 400.48 521.51 L 402.46 522.24 Q 401.42 525.57 399.03 528.95 Q 396.64 532.33 392.79 534.51 Q 388.94 536.70 383.32 536.70 L 383.32 536.70 Q 376.88 536.70 371.68 533.37 Q 366.48 530.04 363.41 523.85 Q 360.34 517.66 360.34 509.14 L 360.34 509.14 Q 360.34 500.61 363.41 494.11 Q 366.48 487.61 371.99 483.92 Q 377.50 480.22 384.57 480.22 M 433.24 480.22 L 433.24 480.22 Q 439.69 480.22 443.64 482.98 Q 447.60 485.74 449.78 492.08 L 449.78 492.08 L 447.70 490.94 Q 445.72 486.67 442.19 484.64 Q 438.65 482.62 434.08 482.62 L 434.08 482.62 Q 427.94 482.62 424.51 488.96 Q 421.08 495.30 421.08 508.51 L 421.08 508.51 Q 421.08 516.83 422.74 522.45 Q 424.40 528.06 427.63 530.82 Q 430.85 533.58 435.43 533.58 L 435.43 533.58 Q 439.80 533.58 443.44 529.31 Q 447.08 525.05 447.70 516.73 L 447.70 516.73 L 448.95 518.18 Q 448.22 527.02 443.59 531.86 Q 438.96 536.70 432.41 536.70 L 432.41 536.70 Q 426.48 536.70 421.60 533.63 Q 416.71 530.56 413.85 524.27 Q 410.99 517.98 410.99 508.51 L 410.99 508.51 Q 410.99 499.05 413.95 492.76 Q 416.92 486.46 421.96 483.34 Q 427.00 480.22 433.24 480.22 M 455.29 480.02 L 455.29 480.02 L 457.06 480.74 Q 456.64 482.10 456.49 483.66 Q 456.33 485.22 456.33 486.78 L 456.33 486.78 L 456.33 545.43 Q 456.33 549.18 457.89 550.53 Q 459.45 551.88 463.20 551.88 L 463.20 551.88 L 463.20 554.06 Q 461.53 553.96 458.41 553.80 Q 455.29 553.65 451.96 553.65 L 451.96 553.65 Q 447.49 553.65 443.38 553.80 Q 439.28 553.96 436.99 554.06 L 436.99 554.06 L 436.99 551.88 Q 441.67 551.88 444.32 550.37 Q 446.97 548.86 446.97 544.39 L 446.97 544.39 L 446.97 488.75 Q 448.43 487.30 449.78 485.84 Q 451.13 484.38 452.54 482.93 Q 453.94 481.47 455.29 480.02 M 514.88 480.54 L 514.88 480.54 L 514.88 524.01 Q 514.88 528.69 516.60 530.92 Q 518.32 533.16 522.79 533.16 L 522.79 533.16 L 522.79 535.34 Q 519.56 535.03 516.34 535.03 L 516.34 535.03 Q 513.32 535.03 510.57 535.34 Q 507.81 535.66 505.52 536.49 L 505.52 536.49 L 505.52 524.22 Q 502.92 530.98 498.19 533.84 Q 493.46 536.70 488.47 536.70 L 488.47 536.70 Q 484.83 536.70 482.12 535.66 Q 479.42 534.62 477.65 532.74 L 477.65 532.74 Q 475.68 530.66 474.95 527.34 Q 474.22 524.01 474.22 519.12 L 474.22 519.12 L 474.22 493.02 Q 474.22 488.34 472.56 486.10 Q 470.89 483.86 466.32 483.86 L 466.32 483.86 L 466.32 481.68 Q 469.64 481.99 472.76 481.99 L 472.76 481.99 Q 475.78 481.99 478.54 481.63 Q 481.29 481.26 483.58 480.54 L 483.58 480.54 L 483.58 521.41 Q 483.58 524.63 484.00 527.34 Q 484.41 530.04 486.08 531.70 Q 487.74 533.37 491.48 533.37 L 491.48 533.37 Q 495.54 533.37 498.71 530.87 Q 501.88 528.38 503.70 524.11 Q 505.52 519.85 505.52 514.54 L 505.52 514.54 L 505.52 493.02 Q 505.52 488.34 503.86 486.10 Q 502.20 483.86 497.62 483.86 L 497.62 483.86 L 497.62 481.68 Q 500.95 481.99 504.07 481.99 L 504.07 481.99 Q 507.08 481.99 509.84 481.63 Q 512.60 481.26 514.88 480.54 M 539.95 455.68 L 539.95 455.68 Q 542.65 455.68 544.63 457.66 Q 546.60 459.63 546.60 462.34 L 546.60 462.34 Q 546.60 465.04 544.63 467.02 Q 542.65 468.99 539.95 468.99 L 539.95 468.99 Q 537.24 468.99 535.27 467.02 Q 533.29 465.04 533.29 462.34 L 533.29 462.34 Q 533.29 459.63 535.27 457.66 Q 537.24 455.68 539.95 455.68 M 545.36 480.54 L 545.36 480.54 L 545.36 525.57 Q 545.36 529.94 547.18 531.50 Q 549.00 533.06 553.26 533.06 L 553.26 533.06 L 553.26 535.24 Q 551.49 535.14 547.90 534.98 Q 544.32 534.82 540.68 534.82 L 540.68 534.82 Q 537.14 534.82 533.50 534.98 Q 529.86 535.14 528.09 535.24 L 528.09 535.24 L 528.09 533.06 Q 532.36 533.06 534.18 531.50 Q 536.00 529.94 536.00 525.57 L 536.00 525.57 L 536.00 493.02 Q 536.00 488.34 534.33 486.10 Q 532.67 483.86 528.09 483.86 L 528.09 483.86 L 528.09 481.68 Q 531.42 481.99 534.54 481.99 L 534.54 481.99 Q 537.56 481.99 540.31 481.63 Q 543.07 481.26 545.36 480.54 M 590.91 480.22 L 590.91 480.22 Q 593.72 480.22 595.85 481.37 Q 597.98 482.51 599.18 484.33 Q 600.37 486.15 600.37 488.44 L 600.37 488.44 Q 600.37 491.04 598.76 493.02 Q 597.15 494.99 594.44 494.99 L 594.44 494.99 Q 592.26 494.99 590.60 493.59 Q 588.93 492.18 588.93 489.58 L 588.93 489.58 Q 588.93 487.61 590.02 486.20 Q 591.12 484.80 592.47 483.97 L 592.47 483.97 Q 591.74 482.93 590.28 482.93 L 590.28 482.93 Q 587.06 482.93 584.36 484.85 Q 581.65 486.78 579.78 489.79 Q 577.91 492.81 576.87 496.19 Q 575.83 499.57 575.83 502.48 L 575.83 502.48 L 575.83 524.53 Q 575.83 529.62 578.79 531.34 Q 581.76 533.06 586.85 533.06 L 586.85 533.06 L 586.85 535.24 Q 584.46 535.14 580.09 534.98 Q 575.72 534.82 570.84 534.82 L 570.84 534.82 Q 567.30 534.82 563.82 534.98 Q 560.33 535.14 558.56 535.24 L 558.56 535.24 L 558.56 533.06 Q 562.83 533.06 564.65 531.50 Q 566.47 529.94 566.47 525.57 L 566.47 525.57 L 566.47 493.02 Q 566.47 488.34 564.80 486.10 Q 563.14 483.86 558.56 483.86 L 558.56 483.86 L 558.56 481.68 Q 561.89 481.99 565.01 481.99 L 565.01 481.99 Q 568.03 481.99 570.78 481.63 Q 573.54 481.26 575.83 480.54 L 575.83 480.54 L 575.83 493.54 Q 576.97 490.52 579.10 487.45 Q 581.24 484.38 584.25 482.30 Q 587.27 480.22 590.91 480.22 M 630.12 480.22 L 630.12 480.22 Q 639.27 480.22 644.42 485.79 Q 649.56 491.35 649.56 503.10 L 649.56 503.10 L 612.85 503.10 L 612.75 501.13 L 639.58 501.13 Q 639.79 496.03 638.75 491.72 Q 637.71 487.40 635.47 484.80 Q 633.24 482.20 629.70 482.20 L 629.70 482.20 Q 624.92 482.20 621.22 486.98 Q 617.53 491.77 616.80 502.17 L 616.80 502.17 L 617.12 502.58 Q 616.91 504.14 616.80 506.02 Q 616.70 507.89 616.70 509.76 L 616.70 509.76 Q 616.70 516.83 618.99 521.93 Q 621.28 527.02 624.97 529.68 Q 628.66 532.33 632.61 532.33 L 632.61 532.33 Q 635.73 532.33 638.54 531.34 Q 641.35 530.35 643.74 528.06 Q 646.13 525.78 647.90 521.93 L 647.90 521.93 L 649.98 522.76 Q 648.84 526.19 646.24 529.42 Q 643.64 532.64 639.68 534.67 Q 635.73 536.70 630.53 536.70 L 630.53 536.70 Q 623.04 536.70 617.69 533.26 Q 612.33 529.83 609.47 523.75 Q 606.61 517.66 606.61 509.76 L 606.61 509.76 Q 606.61 500.61 609.52 494.00 Q 612.44 487.40 617.74 483.81 Q 623.04 480.22 630.12 480.22 M 709.05 453.91 L 709.05 453.91 Q 711.96 453.91 714.20 454.69 Q 716.44 455.47 718.10 456.72 L 718.10 456.72 Q 719.66 457.97 720.49 459.63 Q 721.32 461.30 721.32 463.17 L 721.32 463.17 Q 721.32 465.56 719.76 467.12 Q 718.20 468.68 715.81 468.68 L 715.81 468.68 Q 713.52 468.68 711.81 467.17 Q 710.09 465.66 710.09 463.06 L 710.09 463.06 Q 710.09 460.88 711.29 459.53 Q 712.48 458.18 714.46 457.76 L 714.46 457.76 Q 714.15 456.82 712.85 456.15 Q 711.55 455.47 709.36 455.47 L 709.36 455.47 Q 706.97 455.47 705.26 456.51 Q 703.54 457.55 702.60 459.32 L 702.60 459.32 Q 701.36 461.50 701.04 465.82 Q 700.73 470.14 700.73 479.08 L 700.73 479.08 L 700.73 481.78 L 711.86 481.78 L 711.86 483.86 L 700.73 483.86 L 700.73 524.53 Q 700.73 529.62 703.70 531.34 Q 706.66 533.06 711.76 533.06 L 711.76 533.06 L 711.76 535.24 Q 709.36 535.14 705.00 534.98 Q 700.63 534.82 695.74 534.82 L 695.74 534.82 Q 692.20 534.82 688.72 534.98 Q 685.24 535.14 683.47 535.24 L 683.47 535.24 L 683.47 533.06 Q 687.73 533.06 689.55 531.50 Q 691.37 529.94 691.37 525.57 L 691.37 525.57 L 691.37 483.86 L 683.05 483.86 L 683.05 481.78 L 691.37 481.78 Q 691.37 475.65 691.89 471.49 Q 692.41 467.33 693.56 464.36 Q 694.70 461.40 696.68 459.11 L 696.68 459.11 Q 698.76 456.72 701.98 455.32 Q 705.20 453.91 709.05 453.91 M 732.66 535.97 L 732.66 535.97 Q 728.40 535.97 725.28 534.36 Q 722.16 532.74 720.54 529.83 Q 718.93 526.92 718.93 523.07 L 718.93 523.07 Q 718.93 518.50 721.06 515.58 Q 723.20 512.67 726.52 510.90 Q 729.85 509.14 733.54 507.94 Q 737.24 506.74 740.56 505.65 Q 743.89 504.56 746.02 503.10 Q 748.16 501.65 748.16 499.26 L 748.16 499.26 L 748.16 492.81 Q 748.16 488.44 746.86 486.15 Q 745.56 483.86 743.37 483.08 Q 741.19 482.30 738.48 482.30 L 738.48 482.30 Q 735.88 482.30 732.92 483.03 Q 729.96 483.76 728.19 486.05 L 728.19 486.05 Q 730.16 486.46 731.62 488.13 Q 733.08 489.79 733.08 492.39 L 733.08 492.39 Q 733.08 494.99 731.41 496.50 Q 729.75 498.01 727.15 498.01 L 727.15 498.01 Q 724.13 498.01 722.73 496.08 Q 721.32 494.16 721.32 491.77 L 721.32 491.77 Q 721.32 489.06 722.68 487.40 Q 724.03 485.74 726.11 484.28 L 726.11 484.28 Q 728.50 482.62 732.30 481.42 Q 736.09 480.22 740.88 480.22 L 740.88 480.22 Q 745.14 480.22 748.16 481.21 Q 751.17 482.20 753.15 484.07 L 753.15 484.07 Q 755.85 486.57 756.68 490.16 Q 757.52 493.74 757.52 498.74 L 757.52 498.74 L 757.52 527.65 Q 757.52 530.25 758.30 531.39 Q 759.08 532.54 760.74 532.54 L 760.74 532.54 Q 761.88 532.54 762.92 532.02 Q 763.96 531.50 765.42 530.35 L 765.42 530.35 L 766.56 532.12 Q 764.38 533.78 762.40 534.88 Q 760.43 535.97 757.10 535.97 L 757.10 535.97 Q 754.08 535.97 752.11 534.93 Q 750.13 533.89 749.14 531.86 Q 748.16 529.83 748.16 526.71 L 748.16 526.71 Q 745.35 531.39 741.45 533.68 Q 737.55 535.97 732.66 535.97 M 736.40 531.81 L 736.40 531.81 Q 739.84 531.81 742.80 529.83 Q 745.76 527.86 748.16 523.90 L 748.16 523.90 L 748.16 503.52 Q 746.91 505.29 744.52 506.48 Q 742.12 507.68 739.32 508.88 Q 736.51 510.07 733.96 511.68 Q 731.41 513.30 729.75 515.90 Q 728.08 518.50 728.08 522.66 L 728.08 522.66 Q 728.08 526.82 730.32 529.31 Q 732.56 531.81 736.40 531.81 M 788.30 480.22 L 788.30 480.22 Q 792.46 480.22 795.37 481.58 Q 798.28 482.93 799.64 484.07 L 799.64 484.07 Q 803.07 486.88 803.80 480.33 L 803.80 480.33 L 806.19 480.33 Q 805.98 483.24 805.88 487.24 Q 805.77 491.25 805.77 498.01 L 805.77 498.01 L 803.38 498.01 Q 802.76 494.16 801.25 490.52 Q 799.74 486.88 796.83 484.54 Q 793.92 482.20 789.24 482.20 L 789.24 482.20 Q 785.60 482.20 783.15 484.23 Q 780.71 486.26 780.71 490.21 L 780.71 490.21 Q 780.71 493.33 782.58 495.56 Q 784.45 497.80 787.47 499.72 Q 790.48 501.65 794.02 503.94 L 794.02 503.94 Q 797.97 506.43 801.20 509.03 Q 804.42 511.63 806.34 514.75 Q 808.27 517.87 808.27 522.14 L 808.27 522.14 Q 808.27 526.92 805.77 530.14 Q 803.28 533.37 799.27 535.03 Q 795.27 536.70 790.48 536.70 L 790.48 536.70 Q 788.20 536.70 786.17 536.33 Q 784.14 535.97 782.27 535.24 L 782.27 535.24 Q 781.23 534.72 780.14 533.99 Q 779.04 533.26 778.00 532.43 L 778.00 532.43 Q 776.96 531.60 776.13 532.48 Q 775.30 533.37 774.88 535.97 L 774.88 535.97 L 772.49 535.97 Q 772.70 532.64 772.80 527.86 Q 772.91 523.07 772.91 515.17 L 772.91 515.17 L 775.30 515.17 Q 776.03 520.99 777.38 525.36 Q 778.73 529.73 781.64 532.17 Q 784.56 534.62 789.76 534.62 L 789.76 534.62 Q 791.84 534.62 793.97 533.68 Q 796.10 532.74 797.56 530.56 Q 799.01 528.38 799.01 524.74 L 799.01 524.74 Q 799.01 520.16 795.68 517.25 Q 792.36 514.34 787.26 511.11 L 787.26 511.11 Q 783.52 508.72 780.24 506.33 Q 776.96 503.94 774.94 500.92 Q 772.91 497.90 772.91 493.64 L 772.91 493.64 Q 772.91 488.96 775.04 486.00 Q 777.17 483.03 780.71 481.63 Q 784.24 480.22 788.30 480.22 M 832.92 464.42 L 832.92 464.42 L 832.92 481.78 L 848.31 481.78 L 848.31 483.86 L 832.92 483.86 L 832.92 524.11 Q 832.92 529.00 834.68 530.98 Q 836.45 532.95 839.57 532.95 L 839.57 532.95 Q 842.69 532.95 844.98 530.40 Q 847.27 527.86 848.93 521.82 L 848.93 521.82 L 851.01 522.34 Q 849.97 528.38 846.90 532.54 Q 843.84 536.70 837.49 536.70 L 837.49 536.70 Q 833.96 536.70 831.67 535.81 Q 829.38 534.93 827.61 533.26 L 827.61 533.26 Q 825.32 530.87 824.44 527.54 Q 823.56 524.22 823.56 518.70 L 823.56 518.70 L 823.56 483.86 L 813.57 483.86 L 813.57 481.78 L 823.56 481.78 L 823.56 465.87 Q 826.16 465.77 828.55 465.46 Q 830.94 465.14 832.92 464.42 M 878.26 480.22 L 878.26 480.22 Q 887.41 480.22 892.56 485.79 Q 897.71 491.35 897.71 503.10 L 897.71 503.10 L 861.00 503.10 L 860.89 501.13 L 887.72 501.13 Q 887.93 496.03 886.89 491.72 Q 885.85 487.40 883.62 484.80 Q 881.38 482.20 877.84 482.20 L 877.84 482.20 Q 873.06 482.20 869.37 486.98 Q 865.68 491.77 864.95 502.17 L 864.95 502.17 L 865.26 502.58 Q 865.05 504.14 864.95 506.02 Q 864.84 507.89 864.84 509.76 L 864.84 509.76 Q 864.84 516.83 867.13 521.93 Q 869.42 527.02 873.11 529.68 Q 876.80 532.33 880.76 532.33 L 880.76 532.33 Q 883.88 532.33 886.68 531.34 Q 889.49 530.35 891.88 528.06 Q 894.28 525.78 896.04 521.93 L 896.04 521.93 L 898.12 522.76 Q 896.98 526.19 894.38 529.42 Q 891.78 532.64 887.83 534.67 Q 883.88 536.70 878.68 536.70 L 878.68 536.70 Q 871.19 536.70 865.83 533.26 Q 860.48 529.83 857.62 523.75 Q 854.76 517.66 854.76 509.76 L 854.76 509.76 Q 854.76 500.61 857.67 494.00 Q 860.58 487.40 865.88 483.81 Q 871.19 480.22 878.26 480.22 M 937.96 480.22 L 937.96 480.22 Q 940.76 480.22 942.90 481.37 Q 945.03 482.51 946.22 484.33 Q 947.42 486.15 947.42 488.44 L 947.42 488.44 Q 947.42 491.04 945.81 493.02 Q 944.20 494.99 941.49 494.99 L 941.49 494.99 Q 939.31 494.99 937.64 493.59 Q 935.98 492.18 935.98 489.58 L 935.98 489.58 Q 935.98 487.61 937.07 486.20 Q 938.16 484.80 939.52 483.97 L 939.52 483.97 Q 938.79 482.93 937.33 482.93 L 937.33 482.93 Q 934.11 482.93 931.40 484.85 Q 928.70 486.78 926.83 489.79 Q 924.96 492.81 923.92 496.19 Q 922.88 499.57 922.88 502.48 L 922.88 502.48 L 922.88 524.53 Q 922.88 529.62 925.84 531.34 Q 928.80 533.06 933.90 533.06 L 933.90 533.06 L 933.90 535.24 Q 931.51 535.14 927.14 534.98 Q 922.77 534.82 917.88 534.82 L 917.88 534.82 Q 914.35 534.82 910.86 534.98 Q 907.38 535.14 905.61 535.24 L 905.61 535.24 L 905.61 533.06 Q 909.88 533.06 911.70 531.50 Q 913.52 529.94 913.52 525.57 L 913.52 525.57 L 913.52 493.02 Q 913.52 488.34 911.85 486.10 Q 910.19 483.86 905.61 483.86 L 905.61 483.86 L 905.61 481.68 Q 908.94 481.99 912.06 481.99 L 912.06 481.99 Q 915.08 481.99 917.83 481.63 Q 920.59 481.26 922.88 480.54 L 922.88 480.54 L 922.88 493.54 Q 924.02 490.52 926.15 487.45 Q 928.28 484.38 931.30 482.30 Q 934.32 480.22 937.96 480.22" fill="#1c1917"/><path d="M 198.20 578.82 L 198.20 578.82 L 198.20 596.18 L 213.60 596.18 L 213.60 598.26 L 198.20 598.26 L 198.20 638.51 Q 198.20 643.40 199.97 645.38 Q 201.74 647.35 204.86 647.35 L 204.86 647.35 Q 207.98 647.35 210.27 644.80 Q 212.56 642.26 214.22 636.22 L 214.22 636.22 L 216.30 636.74 Q 215.26 642.78 212.19 646.94 Q 209.12 651.10 202.78 651.10 L 202.78 651.10 Q 199.24 651.10 196.96 650.21 Q 194.67 649.33 192.90 647.66 L 192.90 647.66 Q 190.61 645.27 189.73 641.94 Q 188.84 638.62 188.84 633.10 L 188.84 633.10 L 188.84 598.26 L 178.86 598.26 L 178.86 596.18 L 188.84 596.18 L 188.84 580.27 Q 191.44 580.17 193.84 579.86 Q 196.23 579.54 198.20 578.82 M 234.60 568.21 L 234.60 568.21 L 234.60 607.10 Q 237.31 600.03 242.14 597.33 Q 246.98 594.62 252.28 594.62 L 252.28 594.62 Q 256.24 594.62 258.89 595.66 Q 261.54 596.70 263.31 598.58 L 263.31 598.58 Q 265.28 600.66 266.12 603.78 Q 266.95 606.90 266.95 612.20 L 266.95 612.20 L 266.95 639.97 Q 266.95 644.34 268.77 645.90 Q 270.59 647.46 274.85 647.46 L 274.85 647.46 L 274.85 649.64 Q 273.08 649.54 269.44 649.38 Q 265.80 649.22 262.37 649.22 L 262.37 649.22 Q 258.94 649.22 255.66 649.38 Q 252.39 649.54 250.72 649.64 L 250.72 649.64 L 250.72 647.46 Q 254.47 647.46 256.03 645.90 Q 257.59 644.34 257.59 639.97 L 257.59 639.97 L 257.59 609.91 Q 257.59 606.69 257.07 603.98 Q 256.55 601.28 254.73 599.62 Q 252.91 597.95 249.16 597.95 L 249.16 597.95 Q 244.90 597.95 241.62 600.34 Q 238.35 602.74 236.48 607.00 Q 234.60 611.26 234.60 616.78 L 234.60 616.78 L 234.60 639.97 Q 234.60 644.34 236.16 645.90 Q 237.72 647.46 241.47 647.46 L 241.47 647.46 L 241.47 649.64 Q 239.80 649.54 236.53 649.38 Q 233.25 649.22 229.82 649.22 L 229.82 649.22 Q 226.39 649.22 222.75 649.38 Q 219.11 649.54 217.34 649.64 L 217.34 649.64 L 217.34 647.46 Q 221.60 647.46 223.42 645.90 Q 225.24 644.34 225.24 639.97 L 225.24 639.97 L 225.24 580.69 Q 225.24 576.01 223.58 573.77 Q 221.92 571.54 217.34 571.54 L 217.34 571.54 L 217.34 569.35 Q 220.67 569.66 223.79 569.66 L 223.79 569.66 Q 226.80 569.66 229.56 569.30 Q 232.32 568.94 234.60 568.21 M 294.20 650.37 L 294.20 650.37 Q 289.93 650.37 286.81 648.76 Q 283.69 647.14 282.08 644.23 Q 280.47 641.32 280.47 637.47 L 280.47 637.47 Q 280.47 632.90 282.60 629.98 Q 284.73 627.07 288.06 625.30 Q 291.39 623.54 295.08 622.34 Q 298.77 621.14 302.10 620.05 Q 305.43 618.96 307.56 617.50 Q 309.69 616.05 309.69 613.66 L 309.69 613.66 L 309.69 607.21 Q 309.69 602.84 308.39 600.55 Q 307.09 598.26 304.91 597.48 Q 302.72 596.70 300.02 596.70 L 300.02 596.70 Q 297.42 596.70 294.46 597.43 Q 291.49 598.16 289.72 600.45 L 289.72 600.45 Q 291.70 600.86 293.16 602.53 Q 294.61 604.19 294.61 606.79 L 294.61 606.79 Q 294.61 609.39 292.95 610.90 Q 291.28 612.41 288.68 612.41 L 288.68 612.41 Q 285.67 612.41 284.26 610.48 Q 282.86 608.56 282.86 606.17 L 282.86 606.17 Q 282.86 603.46 284.21 601.80 Q 285.56 600.14 287.64 598.68 L 287.64 598.68 Q 290.04 597.02 293.83 595.82 Q 297.63 594.62 302.41 594.62 L 302.41 594.62 Q 306.68 594.62 309.69 595.61 Q 312.71 596.60 314.68 598.47 L 314.68 598.47 Q 317.39 600.97 318.22 604.56 Q 319.05 608.14 319.05 613.14 L 319.05 613.14 L 319.05 642.05 Q 319.05 644.65 319.83 645.79 Q 320.61 646.94 322.28 646.94 L 322.28 646.94 Q 323.42 646.94 324.46 646.42 Q 325.50 645.90 326.96 644.75 L 326.96 644.75 L 328.10 646.52 Q 325.92 648.18 323.94 649.28 Q 321.96 650.37 318.64 650.37 L 318.64 650.37 Q 315.62 650.37 313.64 649.33 Q 311.67 648.29 310.68 646.26 Q 309.69 644.23 309.69 641.11 L 309.69 641.11 Q 306.88 645.79 302.98 648.08 Q 299.08 650.37 294.20 650.37 M 297.94 646.21 L 297.94 646.21 Q 301.37 646.21 304.34 644.23 Q 307.30 642.26 309.69 638.30 L 309.69 638.30 L 309.69 617.92 Q 308.44 619.69 306.05 620.88 Q 303.66 622.08 300.85 623.28 Q 298.04 624.47 295.50 626.08 Q 292.95 627.70 291.28 630.30 Q 289.62 632.90 289.62 637.06 L 289.62 637.06 Q 289.62 641.22 291.86 643.71 Q 294.09 646.21 297.94 646.21 M 366.16 594.62 L 366.16 594.62 Q 370.12 594.62 372.77 595.66 Q 375.42 596.70 377.19 598.58 L 377.19 598.58 Q 379.16 600.66 380.00 603.78 Q 380.83 606.90 380.83 612.20 L 380.83 612.20 L 380.83 639.97 Q 380.83 644.34 382.65 645.90 Q 384.47 647.46 388.73 647.46 L 388.73 647.46 L 388.73 649.64 Q 386.96 649.54 383.32 649.38 Q 379.68 649.22 376.25 649.22 L 376.25 649.22 Q 372.82 649.22 369.54 649.38 Q 366.27 649.54 364.60 649.64 L 364.60 649.64 L 364.60 647.46 Q 368.35 647.46 369.91 645.90 Q 371.47 644.34 371.47 639.97 L 371.47 639.97 L 371.47 609.91 Q 371.47 606.69 370.95 603.98 Q 370.43 601.28 368.61 599.62 Q 366.79 597.95 363.04 597.95 L 363.04 597.95 Q 358.68 597.95 355.40 600.45 Q 352.12 602.94 350.30 607.26 Q 348.48 611.58 348.48 616.88 L 348.48 616.88 L 348.48 639.97 Q 348.48 644.34 350.04 645.90 Q 351.60 647.46 355.35 647.46 L 355.35 647.46 L 355.35 649.64 Q 353.68 649.54 350.41 649.38 Q 347.13 649.22 343.70 649.22 L 343.70 649.22 Q 340.27 649.22 336.63 649.38 Q 332.99 649.54 331.22 649.64 L 331.22 649.64 L 331.22 647.46 Q 335.48 647.46 337.30 645.90 Q 339.12 644.34 339.12 639.97 L 339.12 639.97 L 339.12 607.42 Q 339.12 602.74 337.46 600.50 Q 335.80 598.26 331.22 598.26 L 331.22 598.26 L 331.22 596.08 Q 334.55 596.39 337.67 596.39 L 337.67 596.39 Q 340.68 596.39 343.44 596.03 Q 346.20 595.66 348.48 594.94 L 348.48 594.94 L 348.48 607.21 Q 351.19 600.14 356.02 597.38 Q 360.86 594.62 366.16 594.62 M 438.86 596.08 L 438.86 596.08 L 438.86 598.26 Q 436.26 598.26 434.28 598.63 Q 432.31 598.99 431.68 600.76 Q 431.06 602.53 432.62 607.00 L 432.62 607.00 L 443.44 637.99 L 442.71 637.89 L 458.00 595.66 L 460.08 596.50 L 441.04 650.16 Q 440.63 650.16 440.21 650.16 Q 439.80 650.16 439.28 650.16 L 439.28 650.16 L 422.22 604.09 Q 420.56 599.93 418.94 599.10 Q 417.33 598.26 416.19 598.26 L 416.19 598.26 L 416.19 596.08 Q 418.27 596.39 420.50 596.55 Q 422.74 596.70 425.34 596.70 L 425.34 596.70 Q 428.56 596.70 432.15 596.50 Q 435.74 596.29 438.86 596.08 M 495.96 596.08 L 495.96 596.08 L 495.96 598.16 Q 493.98 598.37 492.26 599.88 Q 490.55 601.38 489.20 605.44 L 489.20 605.44 L 474.12 650.16 Q 473.70 650.16 473.28 650.16 Q 472.87 650.16 472.35 650.16 L 472.35 650.16 L 455.60 607.62 L 458.00 595.66 Q 458.62 595.66 459.19 595.66 Q 459.76 595.66 460.39 595.66 L 460.39 595.66 L 476.61 638.62 L 475.78 639.24 L 486.08 607.94 Q 487.22 604.40 486.96 602.37 Q 486.70 600.34 484.88 599.36 Q 483.06 598.37 479.32 598.16 L 479.32 598.16 L 479.32 596.08 Q 481.19 596.18 482.54 596.24 Q 483.89 596.29 485.19 596.34 Q 486.49 596.39 488.05 596.39 L 488.05 596.39 Q 490.44 596.39 492.37 596.29 Q 494.29 596.18 495.96 596.08 M 524.56 594.62 L 524.56 594.62 Q 533.71 594.62 538.86 600.19 Q 544.00 605.75 544.00 617.50 L 544.00 617.50 L 507.29 617.50 L 507.19 615.53 L 534.02 615.53 Q 534.23 610.43 533.19 606.12 Q 532.15 601.80 529.91 599.20 Q 527.68 596.60 524.14 596.60 L 524.14 596.60 Q 519.36 596.60 515.66 601.38 Q 511.97 606.17 511.24 616.57 L 511.24 616.57 L 511.56 616.98 Q 511.35 618.54 511.24 620.42 Q 511.14 622.29 511.14 624.16 L 511.14 624.16 Q 511.14 631.23 513.43 636.33 Q 515.72 641.42 519.41 644.08 Q 523.10 646.73 527.05 646.73 L 527.05 646.73 Q 530.17 646.73 532.98 645.74 Q 535.79 644.75 538.18 642.46 Q 540.57 640.18 542.34 636.33 L 542.34 636.33 L 544.42 637.16 Q 543.28 640.59 540.68 643.82 Q 538.08 647.04 534.12 649.07 Q 530.17 651.10 524.97 651.10 L 524.97 651.10 Q 517.48 651.10 512.13 647.66 Q 506.77 644.23 503.91 638.15 Q 501.05 632.06 501.05 624.16 L 501.05 624.16 Q 501.05 615.01 503.96 608.40 Q 506.88 601.80 512.18 598.21 Q 517.48 594.62 524.56 594.62 M 592.57 650.37 L 592.57 650.37 Q 588.31 650.37 585.19 648.76 Q 582.07 647.14 580.46 644.23 Q 578.84 641.32 578.84 637.47 L 578.84 637.47 Q 578.84 632.90 580.98 629.98 Q 583.11 627.07 586.44 625.30 Q 589.76 623.54 593.46 622.34 Q 597.15 621.14 600.48 620.05 Q 603.80 618.96 605.94 617.50 Q 608.07 616.05 608.07 613.66 L 608.07 613.66 L 608.07 607.21 Q 608.07 602.84 606.77 600.55 Q 605.47 598.26 603.28 597.48 Q 601.10 596.70 598.40 596.70 L 598.40 596.70 Q 595.80 596.70 592.83 597.43 Q 589.87 598.16 588.10 600.45 L 588.10 600.45 Q 590.08 600.86 591.53 602.53 Q 592.99 604.19 592.99 606.79 L 592.99 606.79 Q 592.99 609.39 591.32 610.90 Q 589.66 612.41 587.06 612.41 L 587.06 612.41 Q 584.04 612.41 582.64 610.48 Q 581.24 608.56 581.24 606.17 L 581.24 606.17 Q 581.24 603.46 582.59 601.80 Q 583.94 600.14 586.02 598.68 L 586.02 598.68 Q 588.41 597.02 592.21 595.82 Q 596.00 594.62 600.79 594.62 L 600.79 594.62 Q 605.05 594.62 608.07 595.61 Q 611.08 596.60 613.06 598.47 L 613.06 598.47 Q 615.76 600.97 616.60 604.56 Q 617.43 608.14 617.43 613.14 L 617.43 613.14 L 617.43 642.05 Q 617.43 644.65 618.21 645.79 Q 618.99 646.94 620.65 646.94 L 620.65 646.94 Q 621.80 646.94 622.84 646.42 Q 623.88 645.90 625.33 644.75 L 625.33 644.75 L 626.48 646.52 Q 624.29 648.18 622.32 649.28 Q 620.34 650.37 617.01 650.37 L 617.01 650.37 Q 614.00 650.37 612.02 649.33 Q 610.04 648.29 609.06 646.26 Q 608.07 644.23 608.07 641.11 L 608.07 641.11 Q 605.26 645.79 601.36 648.08 Q 597.46 650.37 592.57 650.37 M 596.32 646.21 L 596.32 646.21 Q 599.75 646.21 602.71 644.23 Q 605.68 642.26 608.07 638.30 L 608.07 638.30 L 608.07 617.92 Q 606.82 619.69 604.43 620.88 Q 602.04 622.08 599.23 623.28 Q 596.42 624.47 593.87 626.08 Q 591.32 627.70 589.66 630.30 Q 588.00 632.90 588.00 637.06 L 588.00 637.06 Q 588.00 641.22 590.23 643.71 Q 592.47 646.21 596.32 646.21 M 646.34 578.82 L 646.34 578.82 L 646.34 596.18 L 661.73 596.18 L 661.73 598.26 L 646.34 598.26 L 646.34 638.51 Q 646.34 643.40 648.11 645.38 Q 649.88 647.35 653.00 647.35 L 653.00 647.35 Q 656.12 647.35 658.40 644.80 Q 660.69 642.26 662.36 636.22 L 662.36 636.22 L 664.44 636.74 Q 663.40 642.78 660.33 646.94 Q 657.26 651.10 650.92 651.10 L 650.92 651.10 Q 647.38 651.10 645.09 650.21 Q 642.80 649.33 641.04 647.66 L 641.04 647.66 Q 638.75 645.27 637.86 641.94 Q 636.98 638.62 636.98 633.10 L 636.98 633.10 L 636.98 598.26 L 627.00 598.26 L 627.00 596.18 L 636.98 596.18 L 636.98 580.27 Q 639.58 580.17 641.97 579.86 Q 644.36 579.54 646.34 578.82 M 683.16 578.82 L 683.16 578.82 L 683.16 596.18 L 698.55 596.18 L 698.55 598.26 L 683.16 598.26 L 683.16 638.51 Q 683.16 643.40 684.92 645.38 Q 686.69 647.35 689.81 647.35 L 689.81 647.35 Q 692.93 647.35 695.22 644.80 Q 697.51 642.26 699.17 636.22 L 699.17 636.22 L 701.25 636.74 Q 700.21 642.78 697.14 646.94 Q 694.08 651.10 687.73 651.10 L 687.73 651.10 Q 684.20 651.10 681.91 650.21 Q 679.62 649.33 677.85 647.66 L 677.85 647.66 Q 675.56 645.27 674.68 641.94 Q 673.80 638.62 673.80 633.10 L 673.80 633.10 L 673.80 598.26 L 663.81 598.26 L 663.81 596.18 L 673.80 596.18 L 673.80 580.27 Q 676.40 580.17 678.79 579.86 Q 681.18 579.54 683.16 578.82 M 728.50 594.62 L 728.50 594.62 Q 737.65 594.62 742.80 600.19 Q 747.95 605.75 747.95 617.50 L 747.95 617.50 L 711.24 617.50 L 711.13 615.53 L 737.96 615.53 Q 738.17 610.43 737.13 606.12 Q 736.09 601.80 733.86 599.20 Q 731.62 596.60 728.08 596.60 L 728.08 596.60 Q 723.30 596.60 719.61 601.38 Q 715.92 606.17 715.19 616.57 L 715.19 616.57 L 715.50 616.98 Q 715.29 618.54 715.19 620.42 Q 715.08 622.29 715.08 624.16 L 715.08 624.16 Q 715.08 631.23 717.37 636.33 Q 719.66 641.42 723.35 644.08 Q 727.04 646.73 731.00 646.73 L 731.00 646.73 Q 734.12 646.73 736.92 645.74 Q 739.73 644.75 742.12 642.46 Q 744.52 640.18 746.28 636.33 L 746.28 636.33 L 748.36 637.16 Q 747.22 640.59 744.62 643.82 Q 742.02 647.04 738.07 649.07 Q 734.12 651.10 728.92 651.10 L 728.92 651.10 Q 721.43 651.10 716.07 647.66 Q 710.72 644.23 707.86 638.15 Q 705.00 632.06 705.00 624.16 L 705.00 624.16 Q 705.00 615.01 707.91 608.40 Q 710.82 601.80 716.12 598.21 Q 721.43 594.62 728.50 594.62 M 790.80 594.62 L 790.80 594.62 Q 794.75 594.62 797.40 595.66 Q 800.05 596.70 801.82 598.58 L 801.82 598.58 Q 803.80 600.66 804.63 603.78 Q 805.46 606.90 805.46 612.20 L 805.46 612.20 L 805.46 639.97 Q 805.46 644.34 807.28 645.90 Q 809.10 647.46 813.36 647.46 L 813.36 647.46 L 813.36 649.64 Q 811.60 649.54 807.96 649.38 Q 804.32 649.22 800.88 649.22 L 800.88 649.22 Q 797.45 649.22 794.18 649.38 Q 790.90 649.54 789.24 649.64 L 789.24 649.64 L 789.24 647.46 Q 792.98 647.46 794.54 645.90 Q 796.10 644.34 796.10 639.97 L 796.10 639.97 L 796.10 609.91 Q 796.10 606.69 795.58 603.98 Q 795.06 601.28 793.24 599.62 Q 791.42 597.95 787.68 597.95 L 787.68 597.95 Q 783.31 597.95 780.03 600.45 Q 776.76 602.94 774.94 607.26 Q 773.12 611.58 773.12 616.88 L 773.12 616.88 L 773.12 639.97 Q 773.12 644.34 774.68 645.90 Q 776.24 647.46 779.98 647.46 L 779.98 647.46 L 779.98 649.64 Q 778.32 649.54 775.04 649.38 Q 771.76 649.22 768.33 649.22 L 768.33 649.22 Q 764.90 649.22 761.26 649.38 Q 757.62 649.54 755.85 649.64 L 755.85 649.64 L 755.85 647.46 Q 760.12 647.46 761.94 645.90 Q 763.76 644.34 763.76 639.97 L 763.76 639.97 L 763.76 607.42 Q 763.76 602.74 762.09 600.50 Q 760.43 598.26 755.85 598.26 L 755.85 598.26 L 755.85 596.08 Q 759.18 596.39 762.30 596.39 L 762.30 596.39 Q 765.32 596.39 768.07 596.03 Q 770.83 595.66 773.12 594.94 L 773.12 594.94 L 773.12 607.21 Q 775.82 600.14 780.66 597.38 Q 785.49 594.62 790.80 594.62 M 865.26 568.10 L 865.26 568.10 L 865.26 638.30 Q 865.26 642.98 866.98 645.22 Q 868.69 647.46 873.16 647.46 L 873.16 647.46 L 873.16 649.64 Q 869.94 649.33 866.72 649.33 L 866.72 649.33 Q 863.70 649.33 860.94 649.64 Q 858.19 649.95 855.90 650.78 L 855.90 650.78 L 855.90 580.58 Q 855.90 575.90 854.24 573.67 Q 852.57 571.43 848.00 571.43 L 848.00 571.43 L 848.00 569.25 Q 851.32 569.56 854.44 569.56 L 854.44 569.56 Q 857.46 569.56 860.22 569.20 Q 862.97 568.83 865.26 568.10 M 843.42 594.62 L 843.42 594.62 Q 848.00 594.62 852.00 596.81 Q 856.00 598.99 857.36 604.30 L 857.36 604.30 L 856.00 605.34 Q 854.55 600.97 851.48 598.99 Q 848.41 597.02 844.25 597.02 L 844.25 597.02 Q 838.12 597.02 834.01 603.36 Q 829.90 609.70 830.00 622.91 L 830.00 622.91 Q 830.00 631.34 831.62 636.90 Q 833.23 642.46 836.40 645.22 Q 839.57 647.98 844.15 647.98 L 844.15 647.98 Q 848.52 647.98 852.05 644.23 Q 855.59 640.49 856.32 633.21 L 856.32 633.21 L 857.56 634.66 Q 856.73 642.57 852.52 646.83 Q 848.31 651.10 841.13 651.10 L 841.13 651.10 Q 834.68 651.10 829.85 647.98 Q 825.01 644.86 822.46 638.62 Q 819.92 632.38 819.92 622.91 L 819.92 622.91 Q 819.92 613.45 823.19 607.16 Q 826.47 600.86 831.82 597.74 Q 837.18 594.62 843.42 594.62 M 888.45 637.78 L 888.45 637.78 Q 891.16 637.78 893.13 639.76 Q 895.11 641.74 895.11 644.44 L 895.11 644.44 Q 895.11 647.14 893.13 649.12 Q 891.16 651.10 888.45 651.10 L 888.45 651.10 Q 885.75 651.10 883.77 649.12 Q 881.80 647.14 881.80 644.44 L 881.80 644.44 Q 881.80 641.74 883.77 639.76 Q 885.75 637.78 888.45 637.78" fill="#1c1917"/><text x="540" y="905" text-anchor="middle" fill="#78716c" font-family="'Helvetica Neue', Arial, sans-serif" font-size="27" letter-spacing="0.5">The unnamed garment is not quite owned. It is stored.</text><text x="540" y="1010" text-anchor="middle" fill="#D4B378" font-family="'Helvetica Neue', Arial, sans-serif" font-size="20" letter-spacing="7" style="text-transform:uppercase">Atelier</text></svg>