<svg xmlns="http://www.w3.org/2000/svg" width="1080" height="1080" viewBox="0 0 1080 1080"><rect width="1080" height="1080" fill="#1c1917"/><rect x="34" y="34" width="1012" height="1012" fill="none" stroke="#D4B378" stroke-width="1.5" opacity="0.5"/><text x="540" y="165" text-anchor="middle" fill="#D4B378" font-family="'Helvetica Neue', Arial, sans-serif" font-size="27" letter-spacing="8" style="text-transform:uppercase">Your Style DNA</text><circle cx="540.0" cy="250.0" r="27" fill="#E9D3A6"/><circle cx="615.0" cy="270.1" r="27" fill="#D4B378"/><circle cx="669.9" cy="325.0" r="27" fill="#A8884C"/><circle cx="690.0" cy="400.0" r="27" fill="#8C7040"/><circle cx="669.9" cy="475.0" r="27" fill="#78716c"/><circle cx="615.0" cy="529.9" r="27" fill="#44403c"/><circle cx="540.0" cy="550.0" r="27" fill="#b97a72"/><circle cx="465.0" cy="529.9" r="27" fill="#7d3a32"/><circle cx="410.1" cy="475.0" r="27" fill="#d6d3d1"/><circle cx="390.0" cy="400.0" r="27" fill="#a8a29e"/><circle cx="410.1" cy="325.0" r="27" fill="#F5EAD1"/><circle cx="465.0" cy="270.1" r="27" fill="#6E5833"/><circle cx="540" cy="400" r="6" fill="#F7F5F2"/><path d="M 204.53 694.82 L 204.53 694.82 L 204.53 695.98 Q 203.43 696.21 202.32 697.40 Q 201.22 698.59 199.89 701.14 L 199.89 701.14 L 188.17 724.34 L 187.19 724.34 L 173.61 699.28 Q 172.45 697.14 171.67 696.59 Q 170.89 696.03 170.25 696.03 L 170.25 696.03 L 170.25 694.82 Q 171.41 694.87 172.66 694.93 Q 173.90 694.99 175.35 694.99 L 175.35 694.99 Q 177.27 694.99 179.44 694.96 Q 181.62 694.93 183.47 694.82 L 183.47 694.82 L 183.47 696.03 Q 182.02 696.03 180.92 696.38 Q 179.82 696.73 179.47 697.66 Q 179.12 698.59 179.99 700.27 L 179.99 700.27 L 189.80 719.06 L 189.33 719.41 L 197.05 704.04 Q 198.67 700.85 198.64 699.11 Q 198.61 697.37 197.28 696.70 Q 195.94 696.03 193.51 695.98 L 193.51 695.98 L 193.51 694.82 Q 195.19 694.87 196.93 694.93 Q 198.67 694.99 200.18 694.99 L 200.18 694.99 Q 201.69 694.99 202.67 694.93 Q 203.66 694.87 204.53 694.82 M 188.52 721.44 L 190.78 718.25 L 190.78 729.73 Q 190.78 731.82 191.13 732.86 Q 191.48 733.91 192.49 734.26 Q 193.51 734.60 195.48 734.72 L 195.48 734.72 L 195.48 735.88 Q 194.15 735.76 192.15 735.74 Q 190.14 735.71 188.11 735.71 L 188.11 735.71 Q 185.85 735.71 183.88 735.74 Q 181.91 735.76 180.69 735.88 L 180.69 735.88 L 180.69 734.72 Q 182.66 734.60 183.68 734.26 Q 184.69 733.91 185.04 732.86 Q 185.39 731.82 185.39 729.73 L 185.39 729.73 L 185.39 717.84 L 188.52 721.44 M 220.59 705.20 L 220.59 705.20 Q 224.31 705.20 227.26 706.82 Q 230.22 708.45 231.99 711.93 Q 233.76 715.41 233.76 720.97 L 233.76 720.97 Q 233.76 726.54 231.99 729.99 Q 230.22 733.44 227.26 735.07 Q 224.31 736.69 220.59 736.69 L 220.59 736.69 Q 216.94 736.69 213.95 735.07 Q 210.97 733.44 209.20 729.99 Q 207.43 726.54 207.43 720.97 L 207.43 720.97 Q 207.43 715.41 209.20 711.93 Q 210.97 708.45 213.95 706.82 Q 216.94 705.20 220.59 705.20 M 220.59 706.36 L 220.59 706.36 Q 217.29 706.36 215.17 709.78 Q 213.05 713.20 213.05 720.97 L 213.05 720.97 Q 213.05 728.75 215.17 732.14 Q 217.29 735.53 220.59 735.53 L 220.59 735.53 Q 223.90 735.53 226.02 732.14 Q 228.13 728.75 228.13 720.97 L 228.13 720.97 Q 228.13 713.20 226.02 709.78 Q 223.90 706.36 220.59 706.36 M 264.50 705.37 L 264.50 705.37 L 264.50 729.62 Q 264.50 732.23 265.46 733.47 Q 266.41 734.72 268.91 734.72 L 268.91 734.72 L 268.91 735.94 Q 267.11 735.76 265.31 735.76 L 265.31 735.76 Q 263.63 735.76 262.09 735.94 Q 260.56 736.11 259.28 736.58 L 259.28 736.58 L 259.28 729.73 Q 257.83 733.50 255.19 735.10 Q 252.55 736.69 249.77 736.69 L 249.77 736.69 Q 247.74 736.69 246.23 736.11 Q 244.72 735.53 243.74 734.49 L 243.74 734.49 Q 242.63 733.33 242.23 731.47 Q 241.82 729.62 241.82 726.89 L 241.82 726.89 L 241.82 712.33 Q 241.82 709.72 240.89 708.48 Q 239.97 707.23 237.41 707.23 L 237.41 707.23 L 237.41 706.01 Q 239.27 706.18 241.01 706.18 L 241.01 706.18 Q 242.69 706.18 244.23 705.98 Q 245.77 705.78 247.04 705.37 L 247.04 705.37 L 247.04 728.17 Q 247.04 729.96 247.27 731.47 Q 247.51 732.98 248.43 733.91 Q 249.36 734.84 251.45 734.84 L 251.45 734.84 Q 253.71 734.84 255.48 733.44 Q 257.25 732.05 258.27 729.67 Q 259.28 727.30 259.28 724.34 L 259.28 724.34 L 259.28 712.33 Q 259.28 709.72 258.35 708.48 Q 257.42 707.23 254.87 707.23 L 254.87 707.23 L 254.87 706.01 Q 256.73 706.18 258.47 706.18 L 258.47 706.18 Q 260.15 706.18 261.69 705.98 Q 263.22 705.78 264.50 705.37 M 289.90 705.20 L 289.90 705.20 Q 291.47 705.20 292.66 705.84 Q 293.85 706.47 294.52 707.49 Q 295.18 708.50 295.18 709.78 L 295.18 709.78 Q 295.18 711.23 294.28 712.33 Q 293.38 713.43 291.88 713.43 L 291.88 713.43 Q 290.66 713.43 289.73 712.65 Q 288.80 711.87 288.80 710.42 L 288.80 710.42 Q 288.80 709.32 289.41 708.53 Q 290.02 707.75 290.77 707.29 L 290.77 707.29 Q 290.37 706.71 289.56 706.71 L 289.56 706.71 Q 287.76 706.71 286.25 707.78 Q 284.74 708.85 283.70 710.53 Q 282.65 712.22 282.07 714.10 Q 281.49 715.99 281.49 717.61 L 281.49 717.61 L 281.49 729.91 Q 281.49 732.75 283.15 733.71 Q 284.80 734.66 287.64 734.66 L 287.64 734.66 L 287.64 735.88 Q 286.31 735.82 283.87 735.74 Q 281.44 735.65 278.71 735.65 L 278.71 735.65 Q 276.74 735.65 274.80 735.74 Q 272.85 735.82 271.87 735.88 L 271.87 735.88 L 271.87 734.66 Q 274.24 734.66 275.26 733.79 Q 276.27 732.92 276.27 730.49 L 276.27 730.49 L 276.27 712.33 Q 276.27 709.72 275.35 708.48 Q 274.42 707.23 271.87 707.23 L 271.87 707.23 L 271.87 706.01 Q 273.72 706.18 275.46 706.18 L 275.46 706.18 Q 277.14 706.18 278.68 705.98 Q 280.22 705.78 281.49 705.37 L 281.49 705.37 L 281.49 712.62 Q 282.13 710.94 283.32 709.23 Q 284.51 707.52 286.19 706.36 Q 287.87 705.20 289.90 705.20 M 321.46 696.38 L 321.46 696.38 L 321.46 706.07 L 330.04 706.07 L 330.04 707.23 L 321.46 707.23 L 321.46 729.67 Q 321.46 732.40 322.44 733.50 Q 323.43 734.60 325.17 734.60 L 325.17 734.60 Q 326.91 734.60 328.18 733.18 Q 329.46 731.76 330.39 728.40 L 330.39 728.40 L 331.55 728.69 Q 330.97 732.05 329.26 734.37 Q 327.55 736.69 324.01 736.69 L 324.01 736.69 Q 322.04 736.69 320.76 736.20 Q 319.48 735.71 318.50 734.78 L 318.50 734.78 Q 317.22 733.44 316.73 731.59 Q 316.24 729.73 316.24 726.66 L 316.24 726.66 L 316.24 707.23 L 310.67 707.23 L 310.67 706.07 L 316.24 706.07 L 316.24 697.19 Q 317.69 697.14 319.02 696.96 Q 320.35 696.79 321.46 696.38 M 340.89 736.29 L 340.89 736.29 Q 338.51 736.29 336.77 735.39 Q 335.03 734.49 334.13 732.86 Q 333.23 731.24 333.23 729.09 L 333.23 729.09 Q 333.23 726.54 334.42 724.92 Q 335.61 723.29 337.46 722.31 Q 339.32 721.32 341.38 720.65 Q 343.44 719.99 345.29 719.38 Q 347.15 718.77 348.34 717.96 Q 349.53 717.15 349.53 715.81 L 349.53 715.81 L 349.53 712.22 Q 349.53 709.78 348.80 708.50 Q 348.08 707.23 346.86 706.79 Q 345.64 706.36 344.13 706.36 L 344.13 706.36 Q 342.68 706.36 341.03 706.76 Q 339.38 707.17 338.39 708.45 L 338.39 708.45 Q 339.49 708.68 340.31 709.61 Q 341.12 710.53 341.12 711.98 L 341.12 711.98 Q 341.12 713.43 340.19 714.27 Q 339.26 715.12 337.81 715.12 L 337.81 715.12 Q 336.13 715.12 335.35 714.04 Q 334.56 712.97 334.56 711.64 L 334.56 711.64 Q 334.56 710.13 335.32 709.20 Q 336.07 708.27 337.23 707.46 L 337.23 707.46 Q 338.57 706.53 340.68 705.87 Q 342.80 705.20 345.47 705.20 L 345.47 705.20 Q 347.85 705.20 349.53 705.75 Q 351.21 706.30 352.31 707.34 L 352.31 707.34 Q 353.82 708.74 354.28 710.74 Q 354.75 712.74 354.75 715.52 L 354.75 715.52 L 354.75 731.65 Q 354.75 733.10 355.18 733.73 Q 355.62 734.37 356.55 734.37 L 356.55 734.37 Q 357.18 734.37 357.76 734.08 Q 358.34 733.79 359.16 733.15 L 359.16 733.15 L 359.79 734.14 Q 358.58 735.07 357.47 735.68 Q 356.37 736.29 354.52 736.29 L 354.52 736.29 Q 352.83 736.29 351.73 735.71 Q 350.63 735.13 350.08 734.00 Q 349.53 732.86 349.53 731.12 L 349.53 731.12 Q 347.96 733.73 345.79 735.01 Q 343.61 736.29 340.89 736.29 M 342.97 733.97 L 342.97 733.97 Q 344.89 733.97 346.54 732.86 Q 348.19 731.76 349.53 729.56 L 349.53 729.56 L 349.53 718.19 Q 348.83 719.18 347.50 719.84 Q 346.16 720.51 344.60 721.18 Q 343.03 721.84 341.61 722.74 Q 340.19 723.64 339.26 725.09 Q 338.33 726.54 338.33 728.86 L 338.33 728.86 Q 338.33 731.18 339.58 732.57 Q 340.83 733.97 342.97 733.97 M 371.92 705.20 L 371.92 705.20 Q 374.24 705.20 375.86 705.95 Q 377.48 706.71 378.24 707.34 L 378.24 707.34 Q 380.15 708.91 380.56 705.26 L 380.56 705.26 L 381.89 705.26 Q 381.78 706.88 381.72 709.11 Q 381.66 711.35 381.66 715.12 L 381.66 715.12 L 380.33 715.12 Q 379.98 712.97 379.14 710.94 Q 378.30 708.91 376.67 707.61 Q 375.05 706.30 372.44 706.30 L 372.44 706.30 Q 370.41 706.30 369.05 707.43 Q 367.68 708.56 367.68 710.77 L 367.68 710.77 Q 367.68 712.51 368.73 713.75 Q 369.77 715.00 371.45 716.07 Q 373.13 717.15 375.11 718.42 L 375.11 718.42 Q 377.31 719.81 379.11 721.26 Q 380.91 722.71 381.98 724.45 Q 383.05 726.19 383.05 728.57 L 383.05 728.57 Q 383.05 731.24 381.66 733.04 Q 380.27 734.84 378.04 735.76 Q 375.80 736.69 373.13 736.69 L 373.13 736.69 Q 371.86 736.69 370.73 736.49 Q 369.60 736.29 368.55 735.88 L 368.55 735.88 Q 367.97 735.59 367.36 735.18 Q 366.75 734.78 366.17 734.31 L 366.17 734.31 Q 365.59 733.85 365.13 734.34 Q 364.67 734.84 364.43 736.29 L 364.43 736.29 L 363.10 736.29 Q 363.22 734.43 363.27 731.76 Q 363.33 729.09 363.33 724.69 L 363.33 724.69 L 364.67 724.69 Q 365.07 727.93 365.83 730.37 Q 366.58 732.81 368.20 734.17 Q 369.83 735.53 372.73 735.53 L 372.73 735.53 Q 373.89 735.53 375.08 735.01 Q 376.27 734.49 377.08 733.27 Q 377.89 732.05 377.89 730.02 L 377.89 730.02 Q 377.89 727.47 376.03 725.85 Q 374.18 724.22 371.34 722.42 L 371.34 722.42 Q 369.25 721.09 367.42 719.76 Q 365.59 718.42 364.46 716.74 Q 363.33 715.06 363.33 712.68 L 363.33 712.68 Q 363.33 710.07 364.52 708.42 Q 365.71 706.76 367.68 705.98 Q 369.65 705.20 371.92 705.20 M 396.80 696.38 L 396.80 696.38 L 396.80 706.07 L 405.38 706.07 L 405.38 707.23 L 396.80 707.23 L 396.80 729.67 Q 396.80 732.40 397.78 733.50 Q 398.77 734.60 400.51 734.60 L 400.51 734.60 Q 402.25 734.60 403.53 733.18 Q 404.80 731.76 405.73 728.40 L 405.73 728.40 L 406.89 728.69 Q 406.31 732.05 404.60 734.37 Q 402.89 736.69 399.35 736.69 L 399.35 736.69 Q 397.38 736.69 396.10 736.20 Q 394.83 735.71 393.84 734.78 L 393.84 734.78 Q 392.56 733.44 392.07 731.59 Q 391.58 729.73 391.58 726.66 L 391.58 726.66 L 391.58 707.23 L 386.01 707.23 L 386.01 706.07 L 391.58 706.07 L 391.58 697.19 Q 393.03 697.14 394.36 696.96 Q 395.70 696.79 396.80 696.38 M 422.09 705.20 L 422.09 705.20 Q 427.19 705.20 430.06 708.30 Q 432.93 711.40 432.93 717.96 L 432.93 717.96 L 412.46 717.96 L 412.40 716.86 L 427.36 716.86 Q 427.48 714.01 426.90 711.61 Q 426.32 709.20 425.07 707.75 Q 423.83 706.30 421.85 706.30 L 421.85 706.30 Q 419.19 706.30 417.13 708.97 Q 415.07 711.64 414.66 717.44 L 414.66 717.44 L 414.84 717.67 Q 414.72 718.54 414.66 719.58 Q 414.60 720.63 414.60 721.67 L 414.60 721.67 Q 414.60 725.61 415.88 728.46 Q 417.16 731.30 419.22 732.78 Q 421.27 734.26 423.48 734.26 L 423.48 734.26 Q 425.22 734.26 426.78 733.71 Q 428.35 733.15 429.68 731.88 Q 431.02 730.60 432.00 728.46 L 432.00 728.46 L 433.16 728.92 Q 432.53 730.83 431.08 732.63 Q 429.63 734.43 427.42 735.56 Q 425.22 736.69 422.32 736.69 L 422.32 736.69 Q 418.14 736.69 415.16 734.78 Q 412.17 732.86 410.57 729.47 Q 408.98 726.08 408.98 721.67 L 408.98 721.67 Q 408.98 716.57 410.60 712.88 Q 412.23 709.20 415.18 707.20 Q 418.14 705.20 422.09 705.20 M 442.97 729.27 L 442.97 729.27 Q 444.24 729.27 445.05 729.79 Q 445.87 730.31 446.39 731.12 L 446.39 731.12 Q 447.03 732.05 447.20 733.15 Q 447.37 734.26 447.37 734.95 L 447.37 734.95 Q 447.37 737.79 445.92 740.11 Q 444.47 742.43 441.40 743.88 L 441.40 743.88 L 440.88 742.84 Q 442.68 742.09 443.98 740.46 Q 445.29 738.84 445.29 737.16 L 445.29 737.16 Q 445.29 736.46 445.11 735.94 L 445.11 735.94 Q 444.18 736.69 442.97 736.69 L 442.97 736.69 Q 441.46 736.69 440.36 735.71 Q 439.25 734.72 439.25 732.98 L 439.25 732.98 Q 439.25 731.36 440.36 730.31 Q 441.46 729.27 442.97 729.27 M 484.96 705.20 L 484.96 705.20 Q 486.52 705.20 487.71 705.84 Q 488.90 706.47 489.57 707.49 Q 490.24 708.50 490.24 709.78 L 490.24 709.78 Q 490.24 711.23 489.34 712.33 Q 488.44 713.43 486.93 713.43 L 486.93 713.43 Q 485.71 713.43 484.78 712.65 Q 483.86 711.87 483.86 710.42 L 483.86 710.42 Q 483.86 709.32 484.46 708.53 Q 485.07 707.75 485.83 707.29 L 485.83 707.29 Q 485.42 706.71 484.61 706.71 L 484.61 706.71 Q 482.81 706.71 481.30 707.78 Q 479.80 708.85 478.75 710.53 Q 477.71 712.22 477.13 714.10 Q 476.55 715.99 476.55 717.61 L 476.55 717.61 L 476.55 729.91 Q 476.55 732.75 478.20 733.71 Q 479.85 734.66 482.70 734.66 L 482.70 734.66 L 482.70 735.88 Q 481.36 735.82 478.93 735.74 Q 476.49 735.65 473.76 735.65 L 473.76 735.65 Q 471.79 735.65 469.85 735.74 Q 467.91 735.82 466.92 735.88 L 466.92 735.88 L 466.92 734.66 Q 469.30 734.66 470.31 733.79 Q 471.33 732.92 471.33 730.49 L 471.33 730.49 L 471.33 712.33 Q 471.33 709.72 470.40 708.48 Q 469.47 707.23 466.92 707.23 L 466.92 707.23 L 466.92 706.01 Q 468.78 706.18 470.52 706.18 L 470.52 706.18 Q 472.20 706.18 473.74 705.98 Q 475.27 705.78 476.55 705.37 L 476.55 705.37 L 476.55 712.62 Q 477.19 710.94 478.38 709.23 Q 479.56 707.52 481.25 706.36 Q 482.93 705.20 484.96 705.20 M 506.82 705.20 L 506.82 705.20 Q 511.93 705.20 514.80 708.30 Q 517.67 711.40 517.67 717.96 L 517.67 717.96 L 497.20 717.96 L 497.14 716.86 L 512.10 716.86 Q 512.22 714.01 511.64 711.61 Q 511.06 709.20 509.81 707.75 Q 508.56 706.30 506.59 706.30 L 506.59 706.30 Q 503.92 706.30 501.87 708.97 Q 499.81 711.64 499.40 717.44 L 499.40 717.44 L 499.57 717.67 Q 499.46 718.54 499.40 719.58 Q 499.34 720.63 499.34 721.67 L 499.34 721.67 Q 499.34 725.61 500.62 728.46 Q 501.89 731.30 503.95 732.78 Q 506.01 734.26 508.22 734.26 L 508.22 734.26 Q 509.96 734.26 511.52 733.71 Q 513.09 733.15 514.42 731.88 Q 515.76 730.60 516.74 728.46 L 516.74 728.46 L 517.90 728.92 Q 517.26 730.83 515.81 732.63 Q 514.36 734.43 512.16 735.56 Q 509.96 736.69 507.06 736.69 L 507.06 736.69 Q 502.88 736.69 499.89 734.78 Q 496.91 732.86 495.31 729.47 Q 493.72 726.08 493.72 721.67 L 493.72 721.67 Q 493.72 716.57 495.34 712.88 Q 496.96 709.20 499.92 707.20 Q 502.88 705.20 506.82 705.20 M 530.31 736.29 L 530.31 736.29 Q 527.94 736.29 526.20 735.39 Q 524.46 734.49 523.56 732.86 Q 522.66 731.24 522.66 729.09 L 522.66 729.09 Q 522.66 726.54 523.85 724.92 Q 525.04 723.29 526.89 722.31 Q 528.75 721.32 530.81 720.65 Q 532.87 719.99 534.72 719.38 Q 536.58 718.77 537.77 717.96 Q 538.96 717.15 538.96 715.81 L 538.96 715.81 L 538.96 712.22 Q 538.96 709.78 538.23 708.50 Q 537.51 707.23 536.29 706.79 Q 535.07 706.36 533.56 706.36 L 533.56 706.36 Q 532.11 706.36 530.46 706.76 Q 528.81 707.17 527.82 708.45 L 527.82 708.45 Q 528.92 708.68 529.73 709.61 Q 530.55 710.53 530.55 711.98 L 530.55 711.98 Q 530.55 713.43 529.62 714.27 Q 528.69 715.12 527.24 715.12 L 527.24 715.12 Q 525.56 715.12 524.77 714.04 Q 523.99 712.97 523.99 711.64 L 523.99 711.64 Q 523.99 710.13 524.75 709.20 Q 525.50 708.27 526.66 707.46 L 526.66 707.46 Q 527.99 706.53 530.11 705.87 Q 532.23 705.20 534.90 705.20 L 534.90 705.20 Q 537.27 705.20 538.96 705.75 Q 540.64 706.30 541.74 707.34 L 541.74 707.34 Q 543.25 708.74 543.71 710.74 Q 544.18 712.74 544.18 715.52 L 544.18 715.52 L 544.18 731.65 Q 544.18 733.10 544.61 733.73 Q 545.05 734.37 545.97 734.37 L 545.97 734.37 Q 546.61 734.37 547.19 734.08 Q 547.77 733.79 548.58 733.15 L 548.58 733.15 L 549.22 734.14 Q 548.00 735.07 546.90 735.68 Q 545.80 736.29 543.94 736.29 L 543.94 736.29 Q 542.26 736.29 541.16 735.71 Q 540.06 735.13 539.51 734.00 Q 538.96 732.86 538.96 731.12 L 538.96 731.12 Q 537.39 733.73 535.21 735.01 Q 533.04 736.29 530.31 736.29 M 532.40 733.97 L 532.40 733.97 Q 534.32 733.97 535.97 732.86 Q 537.62 731.76 538.96 729.56 L 538.96 729.56 L 538.96 718.19 Q 538.26 719.18 536.93 719.84 Q 535.59 720.51 534.03 721.18 Q 532.46 721.84 531.04 722.74 Q 529.62 723.64 528.69 725.09 Q 527.76 726.54 527.76 728.86 L 527.76 728.86 Q 527.76 731.18 529.01 732.57 Q 530.26 733.97 532.40 733.97 M 577.35 690.41 L 577.35 690.41 L 577.35 729.56 Q 577.35 732.17 578.31 733.41 Q 579.27 734.66 581.76 734.66 L 581.76 734.66 L 581.76 735.88 Q 579.96 735.71 578.16 735.71 L 578.16 735.71 Q 576.48 735.71 574.94 735.88 Q 573.41 736.05 572.13 736.52 L 572.13 736.52 L 572.13 697.37 Q 572.13 694.76 571.20 693.51 Q 570.28 692.26 567.72 692.26 L 567.72 692.26 L 567.72 691.05 Q 569.58 691.22 571.32 691.22 L 571.32 691.22 Q 573.00 691.22 574.54 691.02 Q 576.08 690.81 577.35 690.41 M 565.17 705.20 L 565.17 705.20 Q 567.72 705.20 569.96 706.42 Q 572.19 707.63 572.94 710.59 L 572.94 710.59 L 572.19 711.17 Q 571.38 708.74 569.67 707.63 Q 567.96 706.53 565.64 706.53 L 565.64 706.53 Q 562.21 706.53 559.92 710.07 Q 557.63 713.61 557.69 720.97 L 557.69 720.97 Q 557.69 725.67 558.59 728.77 Q 559.49 731.88 561.26 733.41 Q 563.03 734.95 565.58 734.95 L 565.58 734.95 Q 568.01 734.95 569.99 732.86 Q 571.96 730.78 572.36 726.72 L 572.36 726.72 L 573.06 727.53 Q 572.60 731.94 570.25 734.31 Q 567.90 736.69 563.90 736.69 L 563.90 736.69 Q 560.30 736.69 557.60 734.95 Q 554.91 733.21 553.49 729.73 Q 552.06 726.25 552.06 720.97 L 552.06 720.97 Q 552.06 715.70 553.89 712.19 Q 555.72 708.68 558.70 706.94 Q 561.69 705.20 565.17 705.20 M 616.33 705.20 L 616.33 705.20 Q 621.08 705.20 624.22 709.11 Q 627.35 713.03 627.35 720.97 L 627.35 720.97 Q 627.35 726.19 625.58 729.70 Q 623.81 733.21 620.85 734.95 Q 617.89 736.69 614.41 736.69 L 614.41 736.69 Q 611.51 736.69 608.82 735.04 Q 606.12 733.39 604.79 730.14 L 604.79 730.14 L 605.95 730.78 Q 607.40 733.10 609.54 734.23 Q 611.69 735.36 613.95 735.36 L 613.95 735.36 Q 617.84 735.36 619.78 731.85 Q 621.72 728.34 621.72 720.97 L 621.72 720.97 Q 621.72 716.28 620.97 713.14 Q 620.21 710.01 618.65 708.48 Q 617.08 706.94 614.65 706.94 L 614.65 706.94 Q 611.98 706.94 609.69 709.35 Q 607.40 711.75 606.87 716.39 L 606.87 716.39 L 606.18 715.58 Q 606.82 710.65 609.63 707.92 Q 612.44 705.20 616.33 705.20 M 607.28 690.47 L 607.28 690.47 L 607.28 732.86 Q 606.53 733.50 605.74 734.17 Q 604.96 734.84 604.21 735.47 Q 603.45 736.11 602.64 736.81 L 602.64 736.81 L 601.65 736.40 Q 601.89 735.59 601.97 734.75 Q 602.06 733.91 602.06 733.04 L 602.06 733.04 L 602.06 697.43 Q 602.06 694.82 601.13 693.57 Q 600.20 692.32 597.65 692.32 L 597.65 692.32 L 597.65 691.10 Q 599.51 691.28 601.25 691.28 L 601.25 691.28 Q 602.93 691.28 604.47 691.08 Q 606.00 690.87 607.28 690.47 M 639.99 736.29 L 639.99 736.29 Q 637.61 736.29 635.87 735.39 Q 634.13 734.49 633.23 732.86 Q 632.34 731.24 632.34 729.09 L 632.34 729.09 Q 632.34 726.54 633.52 724.92 Q 634.71 723.29 636.57 722.31 Q 638.43 721.32 640.48 720.65 Q 642.54 719.99 644.40 719.38 Q 646.26 718.77 647.44 717.96 Q 648.63 717.15 648.63 715.81 L 648.63 715.81 L 648.63 712.22 Q 648.63 709.78 647.91 708.50 Q 647.18 707.23 645.97 706.79 Q 644.75 706.36 643.24 706.36 L 643.24 706.36 Q 641.79 706.36 640.14 706.76 Q 638.48 707.17 637.50 708.45 L 637.50 708.45 Q 638.60 708.68 639.41 709.61 Q 640.22 710.53 640.22 711.98 L 640.22 711.98 Q 640.22 713.43 639.30 714.27 Q 638.37 715.12 636.92 715.12 L 636.92 715.12 Q 635.24 715.12 634.45 714.04 Q 633.67 712.97 633.67 711.64 L 633.67 711.64 Q 633.67 710.13 634.42 709.20 Q 635.18 708.27 636.34 707.46 L 636.34 707.46 Q 637.67 706.53 639.79 705.87 Q 641.91 705.20 644.57 705.20 L 644.57 705.20 Q 646.95 705.20 648.63 705.75 Q 650.32 706.30 651.42 707.34 L 651.42 707.34 Q 652.93 708.74 653.39 710.74 Q 653.85 712.74 653.85 715.52 L 653.85 715.52 L 653.85 731.65 Q 653.85 733.10 654.29 733.73 Q 654.72 734.37 655.65 734.37 L 655.65 734.37 Q 656.29 734.37 656.87 734.08 Q 657.45 733.79 658.26 733.15 L 658.26 733.15 L 658.90 734.14 Q 657.68 735.07 656.58 735.68 Q 655.48 736.29 653.62 736.29 L 653.62 736.29 Q 651.94 736.29 650.84 735.71 Q 649.74 735.13 649.18 734.00 Q 648.63 732.86 648.63 731.12 L 648.63 731.12 Q 647.07 733.73 644.89 735.01 Q 642.72 736.29 639.99 736.29 M 642.08 733.97 L 642.08 733.97 Q 643.99 733.97 645.65 732.86 Q 647.30 731.76 648.63 729.56 L 648.63 729.56 L 648.63 718.19 Q 647.94 719.18 646.60 719.84 Q 645.27 720.51 643.70 721.18 Q 642.14 721.84 640.72 722.74 Q 639.30 723.64 638.37 725.09 Q 637.44 726.54 637.44 728.86 L 637.44 728.86 Q 637.44 731.18 638.69 732.57 Q 639.93 733.97 642.08 733.97 M 675.14 705.20 L 675.14 705.20 Q 677.00 705.20 678.74 705.66 Q 680.48 706.13 681.87 707.05 L 681.87 707.05 Q 683.20 707.92 683.90 709.05 Q 684.59 710.19 684.59 711.52 L 684.59 711.52 Q 684.59 713.09 683.72 713.93 Q 682.85 714.77 681.52 714.77 L 681.52 714.77 Q 680.24 714.77 679.29 714.01 Q 678.33 713.26 678.33 711.87 L 678.33 711.87 Q 678.33 710.53 679.05 709.72 Q 679.78 708.91 680.77 708.68 L 680.77 708.68 Q 680.19 707.63 678.71 706.94 Q 677.23 706.24 675.55 706.24 L 675.55 706.24 Q 674.10 706.24 672.65 706.94 Q 671.20 707.63 669.98 709.23 Q 668.76 710.82 668.01 713.58 Q 667.25 716.33 667.25 720.45 L 667.25 720.45 Q 667.25 725.56 668.41 728.57 Q 669.57 731.59 671.46 732.89 Q 673.34 734.20 675.60 734.20 L 675.60 734.20 Q 677.11 734.20 678.68 733.62 Q 680.24 733.04 681.64 731.73 Q 683.03 730.43 684.01 728.22 L 684.01 728.22 L 685.12 728.63 Q 684.54 730.49 683.20 732.37 Q 681.87 734.26 679.72 735.47 Q 677.58 736.69 674.44 736.69 L 674.44 736.69 Q 670.85 736.69 667.95 734.84 Q 665.05 732.98 663.34 729.53 Q 661.63 726.08 661.63 721.32 L 661.63 721.32 Q 661.63 716.57 663.34 712.94 Q 665.05 709.32 668.12 707.26 Q 671.20 705.20 675.14 705.20 M 697.93 690.41 L 697.93 690.41 L 697.93 730.49 Q 697.93 732.92 698.80 733.79 Q 699.67 734.66 701.76 734.66 L 701.76 734.66 L 701.76 735.88 Q 700.83 735.82 699.01 735.74 Q 697.18 735.65 695.32 735.65 L 695.32 735.65 Q 693.35 735.65 691.32 735.74 Q 689.29 735.82 688.31 735.88 L 688.31 735.88 L 688.31 734.66 Q 690.68 734.66 691.70 733.79 Q 692.71 732.92 692.71 730.49 L 692.71 730.49 L 692.71 697.37 Q 692.71 694.76 691.79 693.51 Q 690.86 692.26 688.31 692.26 L 688.31 692.26 L 688.31 691.05 Q 690.16 691.22 691.90 691.22 L 691.90 691.22 Q 693.58 691.22 695.12 691.02 Q 696.66 690.81 697.93 690.41 M 716.38 706.01 L 716.38 706.01 L 716.38 707.17 Q 714.93 707.29 713.65 707.95 Q 712.38 708.62 711.16 709.90 L 711.16 709.90 L 702.98 718.48 L 703.79 716.86 L 714.58 731.65 Q 715.57 732.98 716.46 733.73 Q 717.36 734.49 718.64 734.66 L 718.64 734.66 L 718.64 735.88 Q 718.00 735.82 716.64 735.74 Q 715.28 735.65 713.94 735.65 L 713.94 735.65 Q 712.14 735.65 710.29 735.74 Q 708.43 735.82 707.50 735.88 L 707.50 735.88 L 707.50 734.66 Q 708.66 734.66 709.13 734.08 Q 709.59 733.50 708.95 732.69 L 708.95 732.69 L 702.28 722.95 Q 701.18 721.38 700.28 720.92 Q 699.38 720.45 697.70 720.39 L 697.70 720.39 L 697.70 719.23 Q 699.56 719.00 700.72 718.45 Q 701.88 717.90 702.92 716.80 L 702.92 716.80 L 707.21 712.33 Q 709.07 710.42 709.07 709.29 Q 709.07 708.16 707.88 707.66 Q 706.69 707.17 704.78 707.17 L 704.78 707.17 L 704.78 706.01 Q 706.29 706.07 708.17 706.15 Q 710.06 706.24 711.33 706.24 L 711.33 706.24 Q 712.32 706.24 713.25 706.21 Q 714.17 706.18 714.99 706.13 Q 715.80 706.07 716.38 706.01 M 744.51 696.38 L 744.51 696.38 L 744.51 706.07 L 753.09 706.07 L 753.09 707.23 L 744.51 707.23 L 744.51 729.67 Q 744.51 732.40 745.49 733.50 Q 746.48 734.60 748.22 734.60 L 748.22 734.60 Q 749.96 734.60 751.24 733.18 Q 752.51 731.76 753.44 728.40 L 753.44 728.40 L 754.60 728.69 Q 754.02 732.05 752.31 734.37 Q 750.60 736.69 747.06 736.69 L 747.06 736.69 Q 745.09 736.69 743.81 736.20 Q 742.54 735.71 741.55 734.78 L 741.55 734.78 Q 740.27 733.44 739.78 731.59 Q 739.29 729.73 739.29 726.66 L 739.29 726.66 L 739.29 707.23 L 733.72 707.23 L 733.72 706.07 L 739.29 706.07 L 739.29 697.19 Q 740.74 697.14 742.07 696.96 Q 743.41 696.79 744.51 696.38 M 769.91 705.20 L 769.91 705.20 Q 773.62 705.20 776.58 706.82 Q 779.54 708.45 781.31 711.93 Q 783.08 715.41 783.08 720.97 L 783.08 720.97 Q 783.08 726.54 781.31 729.99 Q 779.54 733.44 776.58 735.07 Q 773.62 736.69 769.91 736.69 L 769.91 736.69 Q 766.26 736.69 763.27 735.07 Q 760.28 733.44 758.51 729.99 Q 756.75 726.54 756.75 720.97 L 756.75 720.97 Q 756.75 715.41 758.51 711.93 Q 760.28 708.45 763.27 706.82 Q 766.26 705.20 769.91 705.20 M 769.91 706.36 L 769.91 706.36 Q 766.61 706.36 764.49 709.78 Q 762.37 713.20 762.37 720.97 L 762.37 720.97 Q 762.37 728.75 764.49 732.14 Q 766.61 735.53 769.91 735.53 L 769.91 735.53 Q 773.22 735.53 775.34 732.14 Q 777.45 728.75 777.45 720.97 L 777.45 720.97 Q 777.45 713.20 775.34 709.78 Q 773.22 706.36 769.91 706.36 M 828.90 706.01 L 828.90 706.01 L 828.90 707.17 Q 827.80 707.29 826.87 708.16 Q 825.94 709.03 825.13 711.23 L 825.13 711.23 L 815.62 736.17 L 814.63 736.17 L 803.96 710.48 Q 802.86 708.21 801.78 707.72 Q 800.71 707.23 800.01 707.23 L 800.01 707.23 L 800.01 706.01 Q 801.29 706.18 802.68 706.27 Q 804.07 706.36 805.70 706.36 L 805.70 706.36 Q 807.50 706.36 809.50 706.24 Q 811.50 706.13 813.24 706.01 L 813.24 706.01 L 813.24 707.23 Q 811.79 707.23 810.66 707.43 Q 809.53 707.63 809.24 708.65 Q 808.95 709.66 809.93 712.10 L 809.93 712.10 L 817.07 729.79 L 816.72 729.91 L 823.33 712.62 Q 824.08 710.71 823.94 709.58 Q 823.79 708.45 822.75 707.87 Q 821.71 707.29 819.62 707.17 L 819.62 707.17 L 819.62 706.01 Q 820.66 706.07 821.42 706.10 Q 822.17 706.13 822.89 706.15 Q 823.62 706.18 824.49 706.18 L 824.49 706.18 Q 825.82 706.18 826.90 706.13 Q 827.97 706.07 828.90 706.01 M 814.51 735.71 L 815.62 736.17 L 813.64 741.22 Q 813.06 742.67 812.45 743.65 Q 811.85 744.64 811.15 745.28 L 811.15 745.28 Q 810.22 746.15 808.95 746.47 Q 807.67 746.78 806.63 746.78 L 806.63 746.78 Q 805.52 746.78 804.63 746.38 Q 803.73 745.97 803.20 745.19 Q 802.68 744.41 802.68 743.30 L 802.68 743.30 Q 802.68 741.91 803.49 741.07 Q 804.31 740.23 805.76 740.23 L 805.76 740.23 Q 806.97 740.23 807.84 740.93 Q 808.71 741.62 808.71 742.96 L 808.71 742.96 Q 808.71 743.94 808.25 744.58 Q 807.79 745.22 807.15 745.57 L 807.15 745.57 Q 807.26 745.62 807.35 745.62 Q 807.44 745.62 807.50 745.62 L 807.50 745.62 Q 809.06 745.62 810.28 744.55 Q 811.50 743.48 812.43 741.10 L 812.43 741.10 L 814.51 735.71 M 845.37 705.20 L 845.37 705.20 Q 849.08 705.20 852.04 706.82 Q 855.00 708.45 856.77 711.93 Q 858.54 715.41 858.54 720.97 L 858.54 720.97 Q 858.54 726.54 856.77 729.99 Q 855.00 733.44 852.04 735.07 Q 849.08 736.69 845.37 736.69 L 845.37 736.69 Q 841.72 736.69 838.73 735.07 Q 835.74 733.44 833.97 729.99 Q 832.20 726.54 832.20 720.97 L 832.20 720.97 Q 832.20 715.41 833.97 711.93 Q 835.74 708.45 838.73 706.82 Q 841.72 705.20 845.37 705.20 M 845.37 706.36 L 845.37 706.36 Q 842.06 706.36 839.95 709.78 Q 837.83 713.20 837.83 720.97 L 837.83 720.97 Q 837.83 728.75 839.95 732.14 Q 842.06 735.53 845.37 735.53 L 845.37 735.53 Q 848.68 735.53 850.79 732.14 Q 852.91 728.75 852.91 720.97 L 852.91 720.97 Q 852.91 713.20 850.79 709.78 Q 848.68 706.36 845.37 706.36 M 889.28 705.37 L 889.28 705.37 L 889.28 729.62 Q 889.28 732.23 890.23 733.47 Q 891.19 734.72 893.68 734.72 L 893.68 734.72 L 893.68 735.94 Q 891.89 735.76 890.09 735.76 L 890.09 735.76 Q 888.41 735.76 886.87 735.94 Q 885.33 736.11 884.06 736.58 L 884.06 736.58 L 884.06 729.73 Q 882.61 733.50 879.97 735.10 Q 877.33 736.69 874.54 736.69 L 874.54 736.69 Q 872.51 736.69 871.01 736.11 Q 869.50 735.53 868.51 734.49 L 868.51 734.49 Q 867.41 733.33 867.00 731.47 Q 866.60 729.62 866.60 726.89 L 866.60 726.89 L 866.60 712.33 Q 866.60 709.72 865.67 708.48 Q 864.74 707.23 862.19 707.23 L 862.19 707.23 L 862.19 706.01 Q 864.05 706.18 865.79 706.18 L 865.79 706.18 Q 867.47 706.18 869.00 705.98 Q 870.54 705.78 871.82 705.37 L 871.82 705.37 L 871.82 728.17 Q 871.82 729.96 872.05 731.47 Q 872.28 732.98 873.21 733.91 Q 874.14 734.84 876.23 734.84 L 876.23 734.84 Q 878.49 734.84 880.26 733.44 Q 882.03 732.05 883.04 729.67 Q 884.06 727.30 884.06 724.34 L 884.06 724.34 L 884.06 712.33 Q 884.06 709.72 883.13 708.48 Q 882.20 707.23 879.65 707.23 L 879.65 707.23 L 879.65 706.01 Q 881.50 706.18 883.24 706.18 L 883.24 706.18 Q 884.93 706.18 886.46 705.98 Q 888.00 705.78 889.28 705.37 M 902.27 729.27 L 902.27 729.27 Q 903.78 729.27 904.88 730.37 Q 905.98 731.47 905.98 732.98 L 905.98 732.98 Q 905.98 734.49 904.88 735.59 Q 903.78 736.69 902.27 736.69 L 902.27 736.69 Q 900.76 736.69 899.66 735.59 Q 898.56 734.49 898.56 732.98 L 898.56 732.98 Q 898.56 731.47 899.66 730.37 Q 900.76 729.27 902.27 729.27" fill="#F7F5F2"/><line x1="470" y1="795" x2="610" y2="795" stroke="#D4B378" stroke-width="1.4" opacity="0.85"/><text x="540" y="875" text-anchor="middle" fill="#a8a29e" font-family="'Helvetica Neue', Arial, sans-serif" font-size="30" letter-spacing="2">See your own. A 14-day free trial.</text><text x="540" y="950" text-anchor="middle" fill="#D4B378" font-family="'Helvetica Neue', Arial, sans-serif" font-size="38" letter-spacing="6" style="text-transform:uppercase">myatelier.style</text></svg>