<svg xmlns="http://www.w3.org/2000/svg" width="1080" height="1080" viewBox="0 0 1080 1080"><rect width="1080" height="1080" fill="#1c1917"/><rect x="34" y="34" width="1012" height="1012" fill="none" stroke="#D4B378" stroke-width="1.5" opacity="0.5"/><g transform="translate(431.2 191.2) scale(0.85)"><g fill="none" stroke="#F7F5F2" stroke-width="7" stroke-linecap="round" stroke-linejoin="round"><path d="M 160 60 Q 160 44 144 44 Q 128 44 128 58 L 128 110"/><path d="M 128 110 L 62 184 L 194 184 Z"/></g><line x1="128" y1="184" x2="128" y2="206" stroke="#D4B378" stroke-width="1.5" stroke-linecap="round" opacity="0.85"/><circle cx="128" cy="212" r="5" fill="#D4B378"/></g><text x="540" y="515" text-anchor="middle" fill="#D4B378" font-family="'Helvetica Neue', Arial, sans-serif" font-size="27" letter-spacing="8" style="text-transform:uppercase">Come in</text><path d="M 188.63 624.84 L 188.63 624.84 Q 192.83 624.84 195.01 625.81 Q 197.20 626.78 198.88 627.95 L 198.88 627.95 Q 199.88 628.54 200.51 628.83 Q 201.14 629.13 201.73 629.13 L 201.73 629.13 Q 202.57 629.13 202.95 628.20 Q 203.33 627.28 203.58 625.43 L 203.58 625.43 L 205.51 625.43 Q 205.43 626.86 205.30 628.83 Q 205.18 630.81 205.13 634.04 Q 205.09 637.28 205.09 642.57 L 205.09 642.57 L 203.16 642.57 Q 202.91 638.54 201.40 634.84 Q 199.88 631.14 196.99 628.79 Q 194.09 626.44 189.38 626.44 L 189.38 626.44 Q 184.93 626.44 182.03 629.13 Q 179.14 631.82 179.14 636.18 L 179.14 636.18 Q 179.14 639.96 181.07 642.53 Q 183.00 645.09 186.23 647.15 Q 189.47 649.20 193.25 651.56 L 193.25 651.56 Q 197.62 654.24 201.02 656.89 Q 204.42 659.54 206.39 662.73 Q 208.37 665.92 208.37 670.46 L 208.37 670.46 Q 208.37 675.83 205.93 679.36 Q 203.50 682.89 199.46 684.65 Q 195.43 686.42 190.56 686.42 L 190.56 686.42 Q 186.11 686.42 183.50 685.41 Q 180.90 684.40 179.05 683.31 L 179.05 683.31 Q 177.20 682.13 176.20 682.13 L 176.20 682.13 Q 175.36 682.13 174.98 683.06 Q 174.60 683.98 174.35 685.83 L 174.35 685.83 L 172.42 685.83 Q 172.58 684.06 172.63 681.67 Q 172.67 679.28 172.71 675.41 Q 172.75 671.55 172.75 665.67 L 172.75 665.67 L 174.68 665.67 Q 175.02 670.71 176.57 675.08 Q 178.13 679.44 181.36 682.09 Q 184.60 684.74 189.97 684.74 L 189.97 684.74 Q 192.74 684.74 195.22 683.60 Q 197.70 682.47 199.30 679.99 Q 200.89 677.51 200.89 673.56 L 200.89 673.56 Q 200.89 670.12 199.25 667.56 Q 197.62 665.00 194.68 662.77 Q 191.74 660.54 187.79 658.19 L 187.79 658.19 Q 183.84 655.76 180.40 653.24 Q 176.95 650.72 174.89 647.40 Q 172.84 644.08 172.84 639.38 L 172.84 639.38 Q 172.84 634.42 175.06 631.19 Q 177.29 627.95 180.90 626.40 Q 184.51 624.84 188.63 624.84 M 235.33 640.80 L 235.33 640.80 Q 242.72 640.80 246.88 645.30 Q 251.04 649.79 251.04 659.28 L 251.04 659.28 L 221.39 659.28 L 221.30 657.69 L 242.98 657.69 Q 243.14 653.57 242.30 650.09 Q 241.46 646.60 239.66 644.50 Q 237.85 642.40 235.00 642.40 L 235.00 642.40 Q 231.13 642.40 228.15 646.26 Q 225.17 650.13 224.58 658.53 L 224.58 658.53 L 224.83 658.86 Q 224.66 660.12 224.58 661.64 Q 224.50 663.15 224.50 664.66 L 224.50 664.66 Q 224.50 670.37 226.34 674.49 Q 228.19 678.60 231.17 680.75 Q 234.16 682.89 237.35 682.89 L 237.35 682.89 Q 239.87 682.89 242.14 682.09 Q 244.40 681.29 246.34 679.44 Q 248.27 677.60 249.70 674.49 L 249.70 674.49 L 251.38 675.16 Q 250.45 677.93 248.35 680.54 Q 246.25 683.14 243.06 684.78 Q 239.87 686.42 235.67 686.42 L 235.67 686.42 Q 229.62 686.42 225.29 683.64 Q 220.97 680.87 218.66 675.96 Q 216.35 671.04 216.35 664.66 L 216.35 664.66 Q 216.35 657.27 218.70 651.93 Q 221.05 646.60 225.34 643.70 Q 229.62 640.80 235.33 640.80 M 277.84 640.80 L 277.84 640.80 Q 285.23 640.80 289.39 645.30 Q 293.54 649.79 293.54 659.28 L 293.54 659.28 L 263.89 659.28 L 263.81 657.69 L 285.48 657.69 Q 285.65 653.57 284.81 650.09 Q 283.97 646.60 282.16 644.50 Q 280.36 642.40 277.50 642.40 L 277.50 642.40 Q 273.64 642.40 270.65 646.26 Q 267.67 650.13 267.08 658.53 L 267.08 658.53 L 267.34 658.86 Q 267.17 660.12 267.08 661.64 Q 267.00 663.15 267.00 664.66 L 267.00 664.66 Q 267.00 670.37 268.85 674.49 Q 270.70 678.60 273.68 680.75 Q 276.66 682.89 279.85 682.89 L 279.85 682.89 Q 282.37 682.89 284.64 682.09 Q 286.91 681.29 288.84 679.44 Q 290.77 677.60 292.20 674.49 L 292.20 674.49 L 293.88 675.16 Q 292.96 677.93 290.86 680.54 Q 288.76 683.14 285.56 684.78 Q 282.37 686.42 278.17 686.42 L 278.17 686.42 Q 272.12 686.42 267.80 683.64 Q 263.47 680.87 261.16 675.96 Q 258.85 671.04 258.85 664.66 L 258.85 664.66 Q 258.85 657.27 261.20 651.93 Q 263.56 646.60 267.84 643.70 Q 272.12 640.80 277.84 640.80 M 359.90 641.98 L 359.90 641.98 L 359.90 643.66 Q 358.31 643.83 356.96 645.09 Q 355.62 646.35 354.44 649.54 L 354.44 649.54 L 340.67 685.66 L 339.24 685.66 L 323.78 648.45 Q 322.19 645.17 320.63 644.46 Q 319.08 643.74 318.07 643.74 L 318.07 643.74 L 318.07 641.98 Q 319.92 642.23 321.94 642.36 Q 323.95 642.48 326.30 642.48 L 326.30 642.48 Q 328.91 642.48 331.81 642.32 Q 334.70 642.15 337.22 641.98 L 337.22 641.98 L 337.22 643.74 Q 335.12 643.74 333.49 644.04 Q 331.85 644.33 331.43 645.80 Q 331.01 647.27 332.44 650.80 L 332.44 650.80 L 342.77 676.42 L 342.26 676.59 L 351.84 651.56 Q 352.93 648.78 352.72 647.15 Q 352.51 645.51 351.00 644.67 Q 349.49 643.83 346.46 643.66 L 346.46 643.66 L 346.46 641.98 Q 347.98 642.06 349.07 642.11 Q 350.16 642.15 351.21 642.19 Q 352.26 642.23 353.52 642.23 L 353.52 642.23 Q 355.45 642.23 357.01 642.15 Q 358.56 642.06 359.90 641.98 M 339.07 684.99 L 340.67 685.66 L 337.81 692.97 Q 336.97 695.07 336.09 696.50 Q 335.21 697.92 334.20 698.85 L 334.20 698.85 Q 332.86 700.11 331.01 700.57 Q 329.16 701.03 327.65 701.03 L 327.65 701.03 Q 326.05 701.03 324.75 700.44 Q 323.45 699.86 322.69 698.72 Q 321.94 697.59 321.94 695.99 L 321.94 695.99 Q 321.94 693.98 323.11 692.76 Q 324.29 691.54 326.39 691.54 L 326.39 691.54 Q 328.15 691.54 329.41 692.55 Q 330.67 693.56 330.67 695.49 L 330.67 695.49 Q 330.67 696.92 330.00 697.84 Q 329.33 698.76 328.40 699.27 L 328.40 699.27 Q 328.57 699.35 328.70 699.35 Q 328.82 699.35 328.91 699.35 L 328.91 699.35 Q 331.18 699.35 332.94 697.80 Q 334.70 696.24 336.05 692.80 L 336.05 692.80 L 339.07 684.99 M 383.76 640.80 L 383.76 640.80 Q 389.14 640.80 393.42 643.16 Q 397.70 645.51 400.27 650.55 Q 402.83 655.59 402.83 663.65 L 402.83 663.65 Q 402.83 671.72 400.27 676.71 Q 397.70 681.71 393.42 684.06 Q 389.14 686.42 383.76 686.42 L 383.76 686.42 Q 378.47 686.42 374.14 684.06 Q 369.82 681.71 367.25 676.71 Q 364.69 671.72 364.69 663.65 L 364.69 663.65 Q 364.69 655.59 367.25 650.55 Q 369.82 645.51 374.14 643.16 Q 378.47 640.80 383.76 640.80 M 383.76 642.48 L 383.76 642.48 Q 378.97 642.48 375.91 647.44 Q 372.84 652.40 372.84 663.65 L 372.84 663.65 Q 372.84 674.91 375.91 679.82 Q 378.97 684.74 383.76 684.74 L 383.76 684.74 Q 388.55 684.74 391.61 679.82 Q 394.68 674.91 394.68 663.65 L 394.68 663.65 Q 394.68 652.40 391.61 647.44 Q 388.55 642.48 383.76 642.48 M 447.35 641.06 L 447.35 641.06 L 447.35 676.17 Q 447.35 679.95 448.73 681.75 Q 450.12 683.56 453.73 683.56 L 453.73 683.56 L 453.73 685.32 Q 451.13 685.07 448.52 685.07 L 448.52 685.07 Q 446.09 685.07 443.86 685.32 Q 441.64 685.58 439.79 686.25 L 439.79 686.25 L 439.79 676.34 Q 437.69 681.80 433.87 684.11 Q 430.04 686.42 426.01 686.42 L 426.01 686.42 Q 423.07 686.42 420.89 685.58 Q 418.70 684.74 417.28 683.22 L 417.28 683.22 Q 415.68 681.54 415.09 678.86 Q 414.50 676.17 414.50 672.22 L 414.50 672.22 L 414.50 651.14 Q 414.50 647.36 413.16 645.55 Q 411.82 643.74 408.12 643.74 L 408.12 643.74 L 408.12 641.98 Q 410.81 642.23 413.33 642.23 L 413.33 642.23 Q 415.76 642.23 417.99 641.94 Q 420.22 641.64 422.06 641.06 L 422.06 641.06 L 422.06 674.07 Q 422.06 676.67 422.40 678.86 Q 422.74 681.04 424.08 682.38 Q 425.42 683.73 428.45 683.73 L 428.45 683.73 Q 431.72 683.73 434.29 681.71 Q 436.85 679.70 438.32 676.25 Q 439.79 672.81 439.79 668.52 L 439.79 668.52 L 439.79 651.14 Q 439.79 647.36 438.44 645.55 Q 437.10 643.74 433.40 643.74 L 433.40 643.74 L 433.40 641.98 Q 436.09 642.23 438.61 642.23 L 438.61 642.23 Q 441.05 642.23 443.27 641.94 Q 445.50 641.64 447.35 641.06 M 484.14 640.80 L 484.14 640.80 Q 486.41 640.80 488.13 641.73 Q 489.85 642.65 490.82 644.12 Q 491.78 645.59 491.78 647.44 L 491.78 647.44 Q 491.78 649.54 490.48 651.14 Q 489.18 652.73 487.00 652.73 L 487.00 652.73 Q 485.23 652.73 483.89 651.60 Q 482.54 650.46 482.54 648.36 L 482.54 648.36 Q 482.54 646.77 483.43 645.63 Q 484.31 644.50 485.40 643.83 L 485.40 643.83 Q 484.81 642.99 483.64 642.99 L 483.64 642.99 Q 481.03 642.99 478.85 644.54 Q 476.66 646.10 475.15 648.53 Q 473.64 650.97 472.80 653.70 Q 471.96 656.43 471.96 658.78 L 471.96 658.78 L 471.96 676.59 Q 471.96 680.70 474.35 682.09 Q 476.75 683.48 480.86 683.48 L 480.86 683.48 L 480.86 685.24 Q 478.93 685.16 475.40 685.03 Q 471.88 684.90 467.93 684.90 L 467.93 684.90 Q 465.07 684.90 462.26 685.03 Q 459.44 685.16 458.02 685.24 L 458.02 685.24 L 458.02 683.48 Q 461.46 683.48 462.93 682.22 Q 464.40 680.96 464.40 677.43 L 464.40 677.43 L 464.40 651.14 Q 464.40 647.36 463.06 645.55 Q 461.71 643.74 458.02 643.74 L 458.02 643.74 L 458.02 641.98 Q 460.70 642.23 463.22 642.23 L 463.22 642.23 Q 465.66 642.23 467.89 641.94 Q 470.11 641.64 471.96 641.06 L 471.96 641.06 L 471.96 651.56 Q 472.88 649.12 474.61 646.64 Q 476.33 644.16 478.76 642.48 Q 481.20 640.80 484.14 640.80 M 535.38 624.84 L 535.38 624.84 Q 539.58 624.84 541.76 625.81 Q 543.95 626.78 545.63 627.95 L 545.63 627.95 Q 546.64 628.54 547.27 628.83 Q 547.90 629.13 548.48 629.13 L 548.48 629.13 Q 549.32 629.13 549.70 628.20 Q 550.08 627.28 550.33 625.43 L 550.33 625.43 L 552.26 625.43 Q 552.18 626.86 552.05 628.83 Q 551.93 630.81 551.89 634.04 Q 551.84 637.28 551.84 642.57 L 551.84 642.57 L 549.91 642.57 Q 549.66 638.54 548.15 634.84 Q 546.64 631.14 543.74 628.79 Q 540.84 626.44 536.14 626.44 L 536.14 626.44 Q 531.68 626.44 528.79 629.13 Q 525.89 631.82 525.89 636.18 L 525.89 636.18 Q 525.89 639.96 527.82 642.53 Q 529.75 645.09 532.99 647.15 Q 536.22 649.20 540.00 651.56 L 540.00 651.56 Q 544.37 654.24 547.77 656.89 Q 551.17 659.54 553.15 662.73 Q 555.12 665.92 555.12 670.46 L 555.12 670.46 Q 555.12 675.83 552.68 679.36 Q 550.25 682.89 546.22 684.65 Q 542.18 686.42 537.31 686.42 L 537.31 686.42 Q 532.86 686.42 530.26 685.41 Q 527.65 684.40 525.80 683.31 L 525.80 683.31 Q 523.96 682.13 522.95 682.13 L 522.95 682.13 Q 522.11 682.13 521.73 683.06 Q 521.35 683.98 521.10 685.83 L 521.10 685.83 L 519.17 685.83 Q 519.34 684.06 519.38 681.67 Q 519.42 679.28 519.46 675.41 Q 519.50 671.55 519.50 665.67 L 519.50 665.67 L 521.44 665.67 Q 521.77 670.71 523.33 675.08 Q 524.88 679.44 528.11 682.09 Q 531.35 684.74 536.72 684.74 L 536.72 684.74 Q 539.50 684.74 541.97 683.60 Q 544.45 682.47 546.05 679.99 Q 547.64 677.51 547.64 673.56 L 547.64 673.56 Q 547.64 670.12 546.01 667.56 Q 544.37 665.00 541.43 662.77 Q 538.49 660.54 534.54 658.19 L 534.54 658.19 Q 530.59 655.76 527.15 653.24 Q 523.70 650.72 521.65 647.40 Q 519.59 644.08 519.59 639.38 L 519.59 639.38 Q 519.59 634.42 521.81 631.19 Q 524.04 627.95 527.65 626.40 Q 531.26 624.84 535.38 624.84 M 575.20 628.04 L 575.20 628.04 L 575.20 642.06 L 587.63 642.06 L 587.63 643.74 L 575.20 643.74 L 575.20 676.25 Q 575.20 680.20 576.62 681.80 Q 578.05 683.39 580.57 683.39 L 580.57 683.39 Q 583.09 683.39 584.94 681.33 Q 586.79 679.28 588.13 674.40 L 588.13 674.40 L 589.81 674.82 Q 588.97 679.70 586.49 683.06 Q 584.02 686.42 578.89 686.42 L 578.89 686.42 Q 576.04 686.42 574.19 685.70 Q 572.34 684.99 570.91 683.64 L 570.91 683.64 Q 569.06 681.71 568.35 679.02 Q 567.64 676.34 567.64 671.88 L 567.64 671.88 L 567.64 643.74 L 559.57 643.74 L 559.57 642.06 L 567.64 642.06 L 567.64 629.21 Q 569.74 629.13 571.67 628.88 Q 573.60 628.62 575.20 628.04 M 630.47 641.98 L 630.47 641.98 L 630.47 643.66 Q 628.87 643.83 627.53 645.09 Q 626.18 646.35 625.01 649.54 L 625.01 649.54 L 611.23 685.66 L 609.80 685.66 L 594.35 648.45 Q 592.75 645.17 591.20 644.46 Q 589.64 643.74 588.64 643.74 L 588.64 643.74 L 588.64 641.98 Q 590.48 642.23 592.50 642.36 Q 594.52 642.48 596.87 642.48 L 596.87 642.48 Q 599.47 642.48 602.37 642.32 Q 605.27 642.15 607.79 641.98 L 607.79 641.98 L 607.79 643.74 Q 605.69 643.74 604.05 644.04 Q 602.41 644.33 601.99 645.80 Q 601.57 647.27 603.00 650.80 L 603.00 650.80 L 613.33 676.42 L 612.83 676.59 L 622.40 651.56 Q 623.50 648.78 623.29 647.15 Q 623.08 645.51 621.56 644.67 Q 620.05 643.83 617.03 643.66 L 617.03 643.66 L 617.03 641.98 Q 618.54 642.06 619.63 642.11 Q 620.72 642.15 621.77 642.19 Q 622.82 642.23 624.08 642.23 L 624.08 642.23 Q 626.02 642.23 627.57 642.15 Q 629.12 642.06 630.47 641.98 M 609.64 684.99 L 611.23 685.66 L 608.38 692.97 Q 607.54 695.07 606.65 696.50 Q 605.77 697.92 604.76 698.85 L 604.76 698.85 Q 603.42 700.11 601.57 700.57 Q 599.72 701.03 598.21 701.03 L 598.21 701.03 Q 596.62 701.03 595.31 700.44 Q 594.01 699.86 593.26 698.72 Q 592.50 697.59 592.50 695.99 L 592.50 695.99 Q 592.50 693.98 593.68 692.76 Q 594.85 691.54 596.95 691.54 L 596.95 691.54 Q 598.72 691.54 599.98 692.55 Q 601.24 693.56 601.24 695.49 L 601.24 695.49 Q 601.24 696.92 600.56 697.84 Q 599.89 698.76 598.97 699.27 L 598.97 699.27 Q 599.14 699.35 599.26 699.35 Q 599.39 699.35 599.47 699.35 L 599.47 699.35 Q 601.74 699.35 603.50 697.80 Q 605.27 696.24 606.61 692.80 L 606.61 692.80 L 609.64 684.99 M 647.10 619.38 L 647.10 619.38 L 647.10 677.43 Q 647.10 680.96 648.57 682.22 Q 650.04 683.48 653.48 683.48 L 653.48 683.48 L 653.48 685.24 Q 652.06 685.16 649.16 685.03 Q 646.26 684.90 643.32 684.90 L 643.32 684.90 Q 640.46 684.90 637.52 685.03 Q 634.58 685.16 633.16 685.24 L 633.16 685.24 L 633.16 683.48 Q 636.60 683.48 638.07 682.22 Q 639.54 680.96 639.54 677.43 L 639.54 677.43 L 639.54 629.46 Q 639.54 625.68 638.20 623.88 Q 636.85 622.07 633.16 622.07 L 633.16 622.07 L 633.16 620.31 Q 635.84 620.56 638.36 620.56 L 638.36 620.56 Q 640.80 620.56 643.03 620.27 Q 645.25 619.97 647.10 619.38 M 678.18 640.80 L 678.18 640.80 Q 685.57 640.80 689.73 645.30 Q 693.89 649.79 693.89 659.28 L 693.89 659.28 L 664.24 659.28 L 664.15 657.69 L 685.82 657.69 Q 685.99 653.57 685.15 650.09 Q 684.31 646.60 682.51 644.50 Q 680.70 642.40 677.84 642.40 L 677.84 642.40 Q 673.98 642.40 671.00 646.26 Q 668.02 650.13 667.43 658.53 L 667.43 658.53 L 667.68 658.86 Q 667.51 660.12 667.43 661.64 Q 667.34 663.15 667.34 664.66 L 667.34 664.66 Q 667.34 670.37 669.19 674.49 Q 671.04 678.60 674.02 680.75 Q 677.00 682.89 680.20 682.89 L 680.20 682.89 Q 682.72 682.89 684.98 682.09 Q 687.25 681.29 689.18 679.44 Q 691.12 677.60 692.54 674.49 L 692.54 674.49 L 694.22 675.16 Q 693.30 677.93 691.20 680.54 Q 689.10 683.14 685.91 684.78 Q 682.72 686.42 678.52 686.42 L 678.52 686.42 Q 672.47 686.42 668.14 683.64 Q 663.82 680.87 661.51 675.96 Q 659.20 671.04 659.20 664.66 L 659.20 664.66 Q 659.20 657.27 661.55 651.93 Q 663.90 646.60 668.18 643.70 Q 672.47 640.80 678.18 640.80 M 745.21 625.77 L 745.21 625.77 Q 760.25 625.77 767.56 633.29 Q 774.86 640.80 774.86 654.83 L 774.86 654.83 Q 774.86 663.99 771.29 670.83 Q 767.72 677.68 760.92 681.46 Q 754.12 685.24 744.46 685.24 L 744.46 685.24 Q 743.20 685.24 741.10 685.16 Q 739.00 685.07 736.77 685.03 Q 734.54 684.99 732.70 684.99 L 732.70 684.99 Q 729.76 684.99 726.90 685.03 Q 724.04 685.07 722.28 685.24 L 722.28 685.24 L 722.28 683.56 Q 725.14 683.39 726.61 682.89 Q 728.08 682.38 728.58 680.87 Q 729.08 679.36 729.08 676.34 L 729.08 676.34 L 729.08 634.67 Q 729.08 631.56 728.58 630.09 Q 728.08 628.62 726.61 628.08 Q 725.14 627.53 722.28 627.45 L 722.28 627.45 L 722.28 625.77 Q 724.04 625.85 726.90 625.98 Q 729.76 626.10 732.53 626.02 L 732.53 626.02 Q 735.47 625.94 739.16 625.85 Q 742.86 625.77 745.21 625.77 M 743.11 627.28 L 743.11 627.28 Q 739.25 627.28 738.07 628.71 Q 736.90 630.14 736.90 634.50 L 736.90 634.50 L 736.90 676.50 Q 736.90 680.87 738.11 682.30 Q 739.33 683.73 743.20 683.73 L 743.20 683.73 Q 752.35 683.73 757.39 680.41 Q 762.43 677.09 764.45 670.71 Q 766.46 664.32 766.46 655.17 L 766.46 655.17 Q 766.46 645.76 764.24 639.59 Q 762.01 633.41 756.93 630.35 Q 751.85 627.28 743.11 627.28 M 835.76 625.77 L 835.76 625.77 L 835.76 627.45 Q 832.91 627.53 831.44 628.29 Q 829.97 629.04 829.46 630.72 Q 828.96 632.40 828.96 635.51 L 828.96 635.51 L 828.96 685.66 Q 828.46 685.66 827.99 685.66 Q 827.53 685.66 827.03 685.66 L 827.03 685.66 L 791.75 631.14 L 791.75 675.50 Q 791.75 678.52 792.29 680.24 Q 792.84 681.96 794.48 682.68 Q 796.12 683.39 799.39 683.56 L 799.39 683.56 L 799.39 685.24 Q 797.88 685.07 795.44 685.03 Q 793.01 684.99 790.82 684.99 L 790.82 684.99 Q 788.72 684.99 786.58 685.03 Q 784.44 685.07 783.01 685.24 L 783.01 685.24 L 783.01 683.56 Q 785.87 683.39 787.34 682.68 Q 788.81 681.96 789.31 680.24 Q 789.82 678.52 789.82 675.50 L 789.82 675.50 L 789.82 634.67 Q 789.82 631.56 789.31 630.09 Q 788.81 628.62 787.34 628.08 Q 785.87 627.53 783.01 627.45 L 783.01 627.45 L 783.01 625.77 Q 784.44 625.85 786.58 625.94 Q 788.72 626.02 790.82 626.02 L 790.82 626.02 Q 792.67 626.02 794.35 625.94 Q 796.03 625.85 797.38 625.77 L 797.38 625.77 L 827.03 671.46 L 827.03 635.51 Q 827.03 632.40 826.48 630.72 Q 825.94 629.04 824.30 628.29 Q 822.66 627.53 819.38 627.45 L 819.38 627.45 L 819.38 625.77 Q 820.90 625.85 823.37 625.94 Q 825.85 626.02 827.95 626.02 L 827.95 626.02 Q 830.14 626.02 832.28 625.94 Q 834.42 625.85 835.76 625.77 M 865.92 625.35 L 865.92 625.35 L 886.42 678.18 Q 887.68 681.38 889.27 682.43 Q 890.87 683.48 892.21 683.56 L 892.21 683.56 L 892.21 685.24 Q 890.53 685.07 888.10 685.03 Q 885.66 684.99 883.22 684.99 L 883.22 684.99 Q 879.95 684.99 877.09 685.03 Q 874.24 685.07 872.47 685.24 L 872.47 685.24 L 872.47 683.56 Q 876.76 683.39 877.93 682.09 Q 879.11 680.79 877.43 676.50 L 877.43 676.50 L 861.80 634.76 L 863.15 633.66 L 848.53 671.63 Q 847.19 674.99 846.94 677.30 Q 846.68 679.61 847.40 680.96 Q 848.11 682.30 849.83 682.89 Q 851.56 683.48 854.16 683.56 L 854.16 683.56 L 854.16 685.24 Q 851.81 685.07 849.25 685.03 Q 846.68 684.99 844.50 684.99 L 844.50 684.99 Q 842.40 684.99 840.93 685.03 Q 839.46 685.07 838.20 685.24 L 838.20 685.24 L 838.20 683.56 Q 839.88 683.14 841.64 681.59 Q 843.41 680.03 844.84 676.25 L 844.84 676.25 L 864.58 625.35 Q 864.91 625.35 865.25 625.35 Q 865.58 625.35 865.92 625.35 M 851.98 661.05 L 876.17 661.05 L 876.17 662.73 L 851.14 662.73 L 851.98 661.05 M 902.29 675.66 L 902.29 675.66 Q 904.48 675.66 906.07 677.26 Q 907.67 678.86 907.67 681.04 L 907.67 681.04 Q 907.67 683.22 906.07 684.82 Q 904.48 686.42 902.29 686.42 L 902.29 686.42 Q 900.11 686.42 898.51 684.82 Q 896.92 683.22 896.92 681.04 L 896.92 681.04 Q 896.92 678.86 898.51 677.26 Q 900.11 675.66 902.29 675.66" fill="#F7F5F2"/><line x1="470" y1="755" x2="610" y2="755" stroke="#D4B378" stroke-width="1.4" opacity="0.85"/><text x="540" y="840" text-anchor="middle" fill="#F7F5F2" font-family="'Helvetica Neue', Arial, sans-serif" font-size="34" letter-spacing="3">14-day free trial</text><text x="540" y="930" text-anchor="middle" fill="#D4B378" font-family="'Helvetica Neue', Arial, sans-serif" font-size="40" letter-spacing="6" style="text-transform:uppercase">myatelier.style</text></svg>