<svg xmlns="http://www.w3.org/2000/svg" width="1080" height="1080" viewBox="0 0 1080 1080"><rect width="1080" height="1080" fill="#F7F5F2"/><rect x="34" y="34" width="1012" height="1012" fill="none" stroke="#D4B378" stroke-width="1.5" opacity="0.5"/><text x="540" y="175" text-anchor="middle" fill="#D4B378" font-family="'Helvetica Neue', Arial, sans-serif" font-size="27" letter-spacing="8" style="text-transform:uppercase">The Atelier Journal</text><line x1="496" y1="240" x2="584" y2="240" stroke="#D4B378" stroke-width="1.4" opacity="0.85"/><path d="M 236.40 413.59 L 236.40 413.59 L 259.82 473.98 Q 261.26 477.62 263.09 478.82 Q 264.91 480.02 266.45 480.12 L 266.45 480.12 L 266.45 482.04 Q 264.53 481.85 261.74 481.80 Q 258.96 481.75 256.18 481.75 L 256.18 481.75 Q 252.43 481.75 249.17 481.80 Q 245.90 481.85 243.89 482.04 L 243.89 482.04 L 243.89 480.12 Q 248.78 479.93 250.13 478.44 Q 251.47 476.95 249.55 472.06 L 249.55 472.06 L 231.70 424.34 L 233.23 423.10 L 216.53 466.49 Q 214.99 470.33 214.70 472.97 Q 214.42 475.61 215.23 477.14 Q 216.05 478.68 218.02 479.35 Q 219.98 480.02 222.96 480.12 L 222.96 480.12 L 222.96 482.04 Q 220.27 481.85 217.34 481.80 Q 214.42 481.75 211.92 481.75 L 211.92 481.75 Q 209.52 481.75 207.84 481.80 Q 206.16 481.85 204.72 482.04 L 204.72 482.04 L 204.72 480.12 Q 206.64 479.64 208.66 477.86 Q 210.67 476.09 212.30 471.77 L 212.30 471.77 L 234.86 413.59 Q 235.25 413.59 235.63 413.59 Q 236.02 413.59 236.40 413.59 M 220.46 454.39 L 248.11 454.39 L 248.11 456.31 L 219.50 456.31 L 220.46 454.39 M 310.70 432.60 L 310.70 432.60 L 310.70 434.62 Q 308.30 434.62 306.48 434.95 Q 304.66 435.29 304.08 436.92 Q 303.50 438.55 304.94 442.68 L 304.94 442.68 L 314.93 471.29 L 314.26 471.19 L 328.37 432.22 L 330.29 432.98 L 312.72 482.52 Q 312.34 482.52 311.95 482.52 Q 311.57 482.52 311.09 482.52 L 311.09 482.52 L 295.34 439.99 Q 293.81 436.15 292.32 435.38 Q 290.83 434.62 289.78 434.62 L 289.78 434.62 L 289.78 432.60 Q 291.70 432.89 293.76 433.03 Q 295.82 433.18 298.22 433.18 L 298.22 433.18 Q 301.20 433.18 304.51 432.98 Q 307.82 432.79 310.70 432.60 M 363.41 432.60 L 363.41 432.60 L 363.41 434.52 Q 361.58 434.71 360.00 436.10 Q 358.42 437.50 357.17 441.24 L 357.17 441.24 L 343.25 482.52 Q 342.86 482.52 342.48 482.52 Q 342.10 482.52 341.62 482.52 L 341.62 482.52 L 326.16 443.26 L 328.37 432.22 Q 328.94 432.22 329.47 432.22 Q 330.00 432.22 330.58 432.22 L 330.58 432.22 L 345.55 471.86 L 344.78 472.44 L 354.29 443.54 Q 355.34 440.28 355.10 438.41 Q 354.86 436.54 353.18 435.62 Q 351.50 434.71 348.05 434.52 L 348.05 434.52 L 348.05 432.60 Q 349.78 432.70 351.02 432.74 Q 352.27 432.79 353.47 432.84 Q 354.67 432.89 356.11 432.89 L 356.11 432.89 Q 358.32 432.89 360.10 432.79 Q 361.87 432.70 363.41 432.60 M 380.11 482.71 L 380.11 482.71 Q 376.18 482.71 373.30 481.22 Q 370.42 479.74 368.93 477.05 Q 367.44 474.36 367.44 470.81 L 367.44 470.81 Q 367.44 466.58 369.41 463.90 Q 371.38 461.21 374.45 459.58 Q 377.52 457.94 380.93 456.84 Q 384.34 455.74 387.41 454.73 Q 390.48 453.72 392.45 452.38 Q 394.42 451.03 394.42 448.82 L 394.42 448.82 L 394.42 442.87 Q 394.42 438.84 393.22 436.73 Q 392.02 434.62 390.00 433.90 Q 387.98 433.18 385.49 433.18 L 385.49 433.18 Q 383.09 433.18 380.35 433.85 Q 377.62 434.52 375.98 436.63 L 375.98 436.63 Q 377.81 437.02 379.15 438.55 Q 380.50 440.09 380.50 442.49 L 380.50 442.49 Q 380.50 444.89 378.96 446.28 Q 377.42 447.67 375.02 447.67 L 375.02 447.67 Q 372.24 447.67 370.94 445.90 Q 369.65 444.12 369.65 441.91 L 369.65 441.91 Q 369.65 439.42 370.90 437.88 Q 372.14 436.34 374.06 435.00 L 374.06 435.00 Q 376.27 433.46 379.78 432.36 Q 383.28 431.26 387.70 431.26 L 387.70 431.26 Q 391.63 431.26 394.42 432.17 Q 397.20 433.08 399.02 434.81 L 399.02 434.81 Q 401.52 437.11 402.29 440.42 Q 403.06 443.74 403.06 448.34 L 403.06 448.34 L 403.06 475.03 Q 403.06 477.43 403.78 478.49 Q 404.50 479.54 406.03 479.54 L 406.03 479.54 Q 407.09 479.54 408.05 479.06 Q 409.01 478.58 410.35 477.53 L 410.35 477.53 L 411.41 479.16 Q 409.39 480.70 407.57 481.70 Q 405.74 482.71 402.67 482.71 L 402.67 482.71 Q 399.89 482.71 398.06 481.75 Q 396.24 480.79 395.33 478.92 Q 394.42 477.05 394.42 474.17 L 394.42 474.17 Q 391.82 478.49 388.22 480.60 Q 384.62 482.71 380.11 482.71 M 383.57 478.87 L 383.57 478.87 Q 386.74 478.87 389.47 477.05 Q 392.21 475.22 394.42 471.58 L 394.42 471.58 L 394.42 452.76 Q 393.26 454.39 391.06 455.50 Q 388.85 456.60 386.26 457.70 Q 383.66 458.81 381.31 460.30 Q 378.96 461.78 377.42 464.18 Q 375.89 466.58 375.89 470.42 L 375.89 470.42 Q 375.89 474.26 377.95 476.57 Q 380.02 478.87 383.57 478.87 M 444.14 431.26 L 444.14 431.26 Q 446.74 431.26 448.70 432.31 Q 450.67 433.37 451.78 435.05 Q 452.88 436.73 452.88 438.84 L 452.88 438.84 Q 452.88 441.24 451.39 443.06 Q 449.90 444.89 447.41 444.89 L 447.41 444.89 Q 445.39 444.89 443.86 443.59 Q 442.32 442.30 442.32 439.90 L 442.32 439.90 Q 442.32 438.07 443.33 436.78 Q 444.34 435.48 445.58 434.71 L 445.58 434.71 Q 444.91 433.75 443.57 433.75 L 443.57 433.75 Q 440.59 433.75 438.10 435.53 Q 435.60 437.30 433.87 440.09 Q 432.14 442.87 431.18 445.99 Q 430.22 449.11 430.22 451.80 L 430.22 451.80 L 430.22 472.15 Q 430.22 476.86 432.96 478.44 Q 435.70 480.02 440.40 480.02 L 440.40 480.02 L 440.40 482.04 Q 438.19 481.94 434.16 481.80 Q 430.13 481.66 425.62 481.66 L 425.62 481.66 Q 422.35 481.66 419.14 481.80 Q 415.92 481.94 414.29 482.04 L 414.29 482.04 L 414.29 480.02 Q 418.22 480.02 419.90 478.58 Q 421.58 477.14 421.58 473.11 L 421.58 473.11 L 421.58 443.06 Q 421.58 438.74 420.05 436.68 Q 418.51 434.62 414.29 434.62 L 414.29 434.62 L 414.29 432.60 Q 417.36 432.89 420.24 432.89 L 420.24 432.89 Q 423.02 432.89 425.57 432.55 Q 428.11 432.22 430.22 431.54 L 430.22 431.54 L 430.22 443.54 Q 431.28 440.76 433.25 437.93 Q 435.22 435.10 438.00 433.18 Q 440.78 431.26 444.14 431.26 M 500.69 406.78 L 500.69 406.78 L 500.69 471.58 Q 500.69 475.90 502.27 477.96 Q 503.86 480.02 507.98 480.02 L 507.98 480.02 L 507.98 482.04 Q 505.01 481.75 502.03 481.75 L 502.03 481.75 Q 499.25 481.75 496.70 482.04 Q 494.16 482.33 492.05 483.10 L 492.05 483.10 L 492.05 418.30 Q 492.05 413.98 490.51 411.91 Q 488.98 409.85 484.75 409.85 L 484.75 409.85 L 484.75 407.83 Q 487.82 408.12 490.70 408.12 L 490.70 408.12 Q 493.49 408.12 496.03 407.78 Q 498.58 407.45 500.69 406.78 M 480.53 431.26 L 480.53 431.26 Q 484.75 431.26 488.45 433.27 Q 492.14 435.29 493.39 440.18 L 493.39 440.18 L 492.14 441.14 Q 490.80 437.11 487.97 435.29 Q 485.14 433.46 481.30 433.46 L 481.30 433.46 Q 475.63 433.46 471.84 439.32 Q 468.05 445.18 468.14 457.37 L 468.14 457.37 Q 468.14 465.14 469.63 470.28 Q 471.12 475.42 474.05 477.96 Q 476.98 480.50 481.20 480.50 L 481.20 480.50 Q 485.23 480.50 488.50 477.05 Q 491.76 473.59 492.43 466.87 L 492.43 466.87 L 493.58 468.22 Q 492.82 475.51 488.93 479.45 Q 485.04 483.38 478.42 483.38 L 478.42 483.38 Q 472.46 483.38 468.00 480.50 Q 463.54 477.62 461.18 471.86 Q 458.83 466.10 458.83 457.37 L 458.83 457.37 Q 458.83 448.63 461.86 442.82 Q 464.88 437.02 469.82 434.14 Q 474.77 431.26 480.53 431.26 M 542.64 431.26 L 542.64 431.26 Q 545.23 431.26 547.20 432.31 Q 549.17 433.37 550.27 435.05 Q 551.38 436.73 551.38 438.84 L 551.38 438.84 Q 551.38 441.24 549.89 443.06 Q 548.40 444.89 545.90 444.89 L 545.90 444.89 Q 543.89 444.89 542.35 443.59 Q 540.82 442.30 540.82 439.90 L 540.82 439.90 Q 540.82 438.07 541.82 436.78 Q 542.83 435.48 544.08 434.71 L 544.08 434.71 Q 543.41 433.75 542.06 433.75 L 542.06 433.75 Q 539.09 433.75 536.59 435.53 Q 534.10 437.30 532.37 440.09 Q 530.64 442.87 529.68 445.99 Q 528.72 449.11 528.72 451.80 L 528.72 451.80 L 528.72 472.15 Q 528.72 476.86 531.46 478.44 Q 534.19 480.02 538.90 480.02 L 538.90 480.02 L 538.90 482.04 Q 536.69 481.94 532.66 481.80 Q 528.62 481.66 524.11 481.66 L 524.11 481.66 Q 520.85 481.66 517.63 481.80 Q 514.42 481.94 512.78 482.04 L 512.78 482.04 L 512.78 480.02 Q 516.72 480.02 518.40 478.58 Q 520.08 477.14 520.08 473.11 L 520.08 473.11 L 520.08 443.06 Q 520.08 438.74 518.54 436.68 Q 517.01 434.62 512.78 434.62 L 512.78 434.62 L 512.78 432.60 Q 515.86 432.89 518.74 432.89 L 518.74 432.89 Q 521.52 432.89 524.06 432.55 Q 526.61 432.22 528.72 431.54 L 528.72 431.54 L 528.72 443.54 Q 529.78 440.76 531.74 437.93 Q 533.71 435.10 536.50 433.18 Q 539.28 431.26 542.64 431.26 M 579.02 431.26 L 579.02 431.26 Q 585.17 431.26 590.06 433.94 Q 594.96 436.63 597.89 442.39 Q 600.82 448.15 600.82 457.37 L 600.82 457.37 Q 600.82 466.58 597.89 472.30 Q 594.96 478.01 590.06 480.70 Q 585.17 483.38 579.02 483.38 L 579.02 483.38 Q 572.98 483.38 568.03 480.70 Q 563.09 478.01 560.16 472.30 Q 557.23 466.58 557.23 457.37 L 557.23 457.37 Q 557.23 448.15 560.16 442.39 Q 563.09 436.63 568.03 433.94 Q 572.98 431.26 579.02 431.26 M 579.02 433.18 L 579.02 433.18 Q 573.55 433.18 570.05 438.84 Q 566.54 444.50 566.54 457.37 L 566.54 457.37 Q 566.54 470.23 570.05 475.85 Q 573.55 481.46 579.02 481.46 L 579.02 481.46 Q 584.50 481.46 588.00 475.85 Q 591.50 470.23 591.50 457.37 L 591.50 457.37 Q 591.50 444.50 588.00 438.84 Q 584.50 433.18 579.02 433.18 M 636.62 431.26 L 636.62 431.26 Q 644.50 431.26 649.68 437.74 Q 654.86 444.22 654.86 457.37 L 654.86 457.37 Q 654.86 466.01 651.94 471.82 Q 649.01 477.62 644.11 480.50 Q 639.22 483.38 633.46 483.38 L 633.46 483.38 Q 628.66 483.38 624.19 480.65 Q 619.73 477.91 617.52 472.54 L 617.52 472.54 L 619.44 473.59 Q 621.84 477.43 625.39 479.30 Q 628.94 481.18 632.69 481.18 L 632.69 481.18 Q 639.12 481.18 642.34 475.37 Q 645.55 469.56 645.55 457.37 L 645.55 457.37 Q 645.55 449.59 644.30 444.41 Q 643.06 439.22 640.46 436.68 Q 637.87 434.14 633.84 434.14 L 633.84 434.14 Q 629.42 434.14 625.63 438.12 Q 621.84 442.10 620.98 449.78 L 620.98 449.78 L 619.82 448.44 Q 620.88 440.28 625.54 435.77 Q 630.19 431.26 636.62 431.26 M 621.65 406.87 L 621.65 406.87 L 621.65 477.05 Q 620.40 478.10 619.10 479.21 Q 617.81 480.31 616.56 481.37 Q 615.31 482.42 613.97 483.58 L 613.97 483.58 L 612.34 482.90 Q 612.72 481.56 612.86 480.17 Q 613.01 478.78 613.01 477.34 L 613.01 477.34 L 613.01 418.39 Q 613.01 414.07 611.47 412.01 Q 609.94 409.94 605.71 409.94 L 605.71 409.94 L 605.71 407.93 Q 608.78 408.22 611.66 408.22 L 611.66 408.22 Q 614.45 408.22 616.99 407.88 Q 619.54 407.54 621.65 406.87 M 685.49 431.26 L 685.49 431.26 Q 693.94 431.26 698.69 436.39 Q 703.44 441.53 703.44 452.38 L 703.44 452.38 L 669.55 452.38 L 669.46 450.55 L 694.22 450.55 Q 694.42 445.85 693.46 441.86 Q 692.50 437.88 690.43 435.48 Q 688.37 433.08 685.10 433.08 L 685.10 433.08 Q 680.69 433.08 677.28 437.50 Q 673.87 441.91 673.20 451.51 L 673.20 451.51 L 673.49 451.90 Q 673.30 453.34 673.20 455.06 Q 673.10 456.79 673.10 458.52 L 673.10 458.52 Q 673.10 465.05 675.22 469.75 Q 677.33 474.46 680.74 476.90 Q 684.14 479.35 687.79 479.35 L 687.79 479.35 Q 690.67 479.35 693.26 478.44 Q 695.86 477.53 698.06 475.42 Q 700.27 473.30 701.90 469.75 L 701.90 469.75 L 703.82 470.52 Q 702.77 473.69 700.37 476.66 Q 697.97 479.64 694.32 481.51 Q 690.67 483.38 685.87 483.38 L 685.87 483.38 Q 678.96 483.38 674.02 480.22 Q 669.07 477.05 666.43 471.43 Q 663.79 465.82 663.79 458.52 L 663.79 458.52 Q 663.79 450.07 666.48 443.98 Q 669.17 437.88 674.06 434.57 Q 678.96 431.26 685.49 431.26 M 745.58 408.60 L 745.58 408.60 Q 748.08 408.60 749.90 410.42 Q 751.73 412.25 751.73 414.74 L 751.73 414.74 Q 751.73 417.24 749.90 419.06 Q 748.08 420.89 745.58 420.89 L 745.58 420.89 Q 743.09 420.89 741.26 419.06 Q 739.44 417.24 739.44 414.74 L 739.44 414.74 Q 739.44 412.25 741.26 410.42 Q 743.09 408.60 745.58 408.60 M 750.58 431.54 L 750.58 431.54 L 750.58 473.11 Q 750.58 477.14 752.26 478.58 Q 753.94 480.02 757.87 480.02 L 757.87 480.02 L 757.87 482.04 Q 756.24 481.94 752.93 481.80 Q 749.62 481.66 746.26 481.66 L 746.26 481.66 Q 742.99 481.66 739.63 481.80 Q 736.27 481.94 734.64 482.04 L 734.64 482.04 L 734.64 480.02 Q 738.58 480.02 740.26 478.58 Q 741.94 477.14 741.94 473.11 L 741.94 473.11 L 741.94 443.06 Q 741.94 438.74 740.40 436.68 Q 738.86 434.62 734.64 434.62 L 734.64 434.62 L 734.64 432.60 Q 737.71 432.89 740.59 432.89 L 740.59 432.89 Q 743.38 432.89 745.92 432.55 Q 748.46 432.22 750.58 431.54 M 779.95 431.26 L 779.95 431.26 Q 783.79 431.26 786.48 432.50 Q 789.17 433.75 790.42 434.81 L 790.42 434.81 Q 793.58 437.40 794.26 431.35 L 794.26 431.35 L 796.46 431.35 Q 796.27 434.04 796.18 437.74 Q 796.08 441.43 796.08 447.67 L 796.08 447.67 L 793.87 447.67 Q 793.30 444.12 791.90 440.76 Q 790.51 437.40 787.82 435.24 Q 785.14 433.08 780.82 433.08 L 780.82 433.08 Q 777.46 433.08 775.20 434.95 Q 772.94 436.82 772.94 440.47 L 772.94 440.47 Q 772.94 443.35 774.67 445.42 Q 776.40 447.48 779.18 449.26 Q 781.97 451.03 785.23 453.14 L 785.23 453.14 Q 788.88 455.45 791.86 457.85 Q 794.83 460.25 796.61 463.13 Q 798.38 466.01 798.38 469.94 L 798.38 469.94 Q 798.38 474.36 796.08 477.34 Q 793.78 480.31 790.08 481.85 Q 786.38 483.38 781.97 483.38 L 781.97 483.38 Q 779.86 483.38 777.98 483.05 Q 776.11 482.71 774.38 482.04 L 774.38 482.04 Q 773.42 481.56 772.42 480.89 Q 771.41 480.22 770.45 479.45 L 770.45 479.45 Q 769.49 478.68 768.72 479.50 Q 767.95 480.31 767.57 482.71 L 767.57 482.71 L 765.36 482.71 Q 765.55 479.64 765.65 475.22 Q 765.74 470.81 765.74 463.51 L 765.74 463.51 L 767.95 463.51 Q 768.62 468.89 769.87 472.92 Q 771.12 476.95 773.81 479.21 Q 776.50 481.46 781.30 481.46 L 781.30 481.46 Q 783.22 481.46 785.18 480.60 Q 787.15 479.74 788.50 477.72 Q 789.84 475.70 789.84 472.34 L 789.84 472.34 Q 789.84 468.12 786.77 465.43 Q 783.70 462.74 778.99 459.77 L 778.99 459.77 Q 775.54 457.56 772.51 455.35 Q 769.49 453.14 767.62 450.36 Q 765.74 447.58 765.74 443.64 L 765.74 443.64 Q 765.74 439.32 767.71 436.58 Q 769.68 433.85 772.94 432.55 Q 776.21 431.26 779.95 431.26 M 843.22 482.71 L 843.22 482.71 Q 839.28 482.71 836.40 481.22 Q 833.52 479.74 832.03 477.05 Q 830.54 474.36 830.54 470.81 L 830.54 470.81 Q 830.54 466.58 832.51 463.90 Q 834.48 461.21 837.55 459.58 Q 840.62 457.94 844.03 456.84 Q 847.44 455.74 850.51 454.73 Q 853.58 453.72 855.55 452.38 Q 857.52 451.03 857.52 448.82 L 857.52 448.82 L 857.52 442.87 Q 857.52 438.84 856.32 436.73 Q 855.12 434.62 853.10 433.90 Q 851.09 433.18 848.59 433.18 L 848.59 433.18 Q 846.19 433.18 843.46 433.85 Q 840.72 434.52 839.09 436.63 L 839.09 436.63 Q 840.91 437.02 842.26 438.55 Q 843.60 440.09 843.60 442.49 L 843.60 442.49 Q 843.60 444.89 842.06 446.28 Q 840.53 447.67 838.13 447.67 L 838.13 447.67 Q 835.34 447.67 834.05 445.90 Q 832.75 444.12 832.75 441.91 L 832.75 441.91 Q 832.75 439.42 834.00 437.88 Q 835.25 436.34 837.17 435.00 L 837.17 435.00 Q 839.38 433.46 842.88 432.36 Q 846.38 431.26 850.80 431.26 L 850.80 431.26 Q 854.74 431.26 857.52 432.17 Q 860.30 433.08 862.13 434.81 L 862.13 434.81 Q 864.62 437.11 865.39 440.42 Q 866.16 443.74 866.16 448.34 L 866.16 448.34 L 866.16 475.03 Q 866.16 477.43 866.88 478.49 Q 867.60 479.54 869.14 479.54 L 869.14 479.54 Q 870.19 479.54 871.15 479.06 Q 872.11 478.58 873.46 477.53 L 873.46 477.53 L 874.51 479.16 Q 872.50 480.70 870.67 481.70 Q 868.85 482.71 865.78 482.71 L 865.78 482.71 Q 862.99 482.71 861.17 481.75 Q 859.34 480.79 858.43 478.92 Q 857.52 477.05 857.52 474.17 L 857.52 474.17 Q 854.93 478.49 851.33 480.60 Q 847.73 482.71 843.22 482.71 M 846.67 478.87 L 846.67 478.87 Q 849.84 478.87 852.58 477.05 Q 855.31 475.22 857.52 471.58 L 857.52 471.58 L 857.52 452.76 Q 856.37 454.39 854.16 455.50 Q 851.95 456.60 849.36 457.70 Q 846.77 458.81 844.42 460.30 Q 842.06 461.78 840.53 464.18 Q 838.99 466.58 838.99 470.42 L 838.99 470.42 Q 838.99 474.26 841.06 476.57 Q 843.12 478.87 846.67 478.87" fill="#1c1917"/><path d="M 406.08 539.06 L 406.08 539.06 L 406.08 598.01 Q 406.08 602.14 408.53 603.53 Q 410.98 604.92 415.30 604.92 L 415.30 604.92 L 415.30 606.94 Q 413.18 606.84 409.44 606.70 Q 405.70 606.55 401.47 606.55 L 401.47 606.55 Q 398.50 606.55 395.57 606.70 Q 392.64 606.84 391.10 606.94 L 391.10 606.94 L 391.10 604.92 Q 394.56 604.92 396.00 603.67 Q 397.44 602.42 397.44 598.97 L 397.44 598.97 L 397.44 550.58 Q 397.44 546.26 395.90 544.20 Q 394.37 542.14 390.14 542.14 L 390.14 542.14 L 390.14 540.12 Q 393.22 540.41 396.10 540.41 L 396.10 540.41 Q 398.88 540.41 401.42 540.07 Q 403.97 539.74 406.08 539.06 M 421.44 538.78 L 421.44 538.78 Q 426.53 538.78 430.56 541.51 Q 434.59 544.25 436.94 549.53 Q 439.30 554.81 439.30 562.58 L 439.30 562.58 Q 439.30 567.77 438.05 572.81 Q 436.80 577.85 434.16 581.93 Q 431.52 586.01 427.34 588.46 Q 423.17 590.90 417.31 590.90 L 417.31 590.90 Q 412.80 590.90 409.49 588.79 Q 406.18 586.68 405.02 583.70 L 405.02 583.70 L 405.98 582.36 Q 407.33 585.05 409.87 586.87 Q 412.42 588.70 416.26 588.70 L 416.26 588.70 Q 421.63 588.70 424.61 585.34 Q 427.58 581.98 428.78 576.36 Q 429.98 570.74 429.98 563.93 L 429.98 563.93 Q 429.98 556.25 428.74 551.35 Q 427.49 546.46 424.99 544.06 Q 422.50 541.66 418.85 541.66 L 418.85 541.66 Q 414.14 541.66 410.30 545.54 Q 406.46 549.43 405.41 557.30 L 405.41 557.30 L 404.26 555.96 Q 405.31 547.80 410.06 543.29 Q 414.82 538.78 421.44 538.78 M 476.45 538.78 L 476.45 538.78 Q 479.04 538.78 481.01 539.83 Q 482.98 540.89 484.08 542.57 Q 485.18 544.25 485.18 546.36 L 485.18 546.36 Q 485.18 548.76 483.70 550.58 Q 482.21 552.41 479.71 552.41 L 479.71 552.41 Q 477.70 552.41 476.16 551.11 Q 474.62 549.82 474.62 547.42 L 474.62 547.42 Q 474.62 545.59 475.63 544.30 Q 476.64 543.00 477.89 542.23 L 477.89 542.23 Q 477.22 541.27 475.87 541.27 L 475.87 541.27 Q 472.90 541.27 470.40 543.05 Q 467.90 544.82 466.18 547.61 Q 464.45 550.39 463.49 553.51 Q 462.53 556.63 462.53 559.32 L 462.53 559.32 L 462.53 579.67 Q 462.53 584.38 465.26 585.96 Q 468.00 587.54 472.70 587.54 L 472.70 587.54 L 472.70 589.56 Q 470.50 589.46 466.46 589.32 Q 462.43 589.18 457.92 589.18 L 457.92 589.18 Q 454.66 589.18 451.44 589.32 Q 448.22 589.46 446.59 589.56 L 446.59 589.56 L 446.59 587.54 Q 450.53 587.54 452.21 586.10 Q 453.89 584.66 453.89 580.63 L 453.89 580.63 L 453.89 550.58 Q 453.89 546.26 452.35 544.20 Q 450.82 542.14 446.59 542.14 L 446.59 542.14 L 446.59 540.12 Q 449.66 540.41 452.54 540.41 L 452.54 540.41 Q 455.33 540.41 457.87 540.07 Q 460.42 539.74 462.53 539.06 L 462.53 539.06 L 462.53 551.06 Q 463.58 548.28 465.55 545.45 Q 467.52 542.62 470.30 540.70 Q 473.09 538.78 476.45 538.78 M 500.26 516.12 L 500.26 516.12 Q 502.75 516.12 504.58 517.94 Q 506.40 519.77 506.40 522.26 L 506.40 522.26 Q 506.40 524.76 504.58 526.58 Q 502.75 528.41 500.26 528.41 L 500.26 528.41 Q 497.76 528.41 495.94 526.58 Q 494.11 524.76 494.11 522.26 L 494.11 522.26 Q 494.11 519.77 495.94 517.94 Q 497.76 516.12 500.26 516.12 M 505.25 539.06 L 505.25 539.06 L 505.25 580.63 Q 505.25 584.66 506.93 586.10 Q 508.61 587.54 512.54 587.54 L 512.54 587.54 L 512.54 589.56 Q 510.91 589.46 507.60 589.32 Q 504.29 589.18 500.93 589.18 L 500.93 589.18 Q 497.66 589.18 494.30 589.32 Q 490.94 589.46 489.31 589.56 L 489.31 589.56 L 489.31 587.54 Q 493.25 587.54 494.93 586.10 Q 496.61 584.66 496.61 580.63 L 496.61 580.63 L 496.61 550.58 Q 496.61 546.26 495.07 544.20 Q 493.54 542.14 489.31 542.14 L 489.31 542.14 L 489.31 540.12 Q 492.38 540.41 495.26 540.41 L 495.26 540.41 Q 498.05 540.41 500.59 540.07 Q 503.14 539.74 505.25 539.06 M 561.31 540.12 L 561.31 540.12 L 561.31 542.04 Q 559.49 542.23 557.95 543.67 Q 556.42 545.11 555.07 548.76 L 555.07 548.76 L 539.33 590.04 Q 538.94 590.04 538.56 590.04 Q 538.18 590.04 537.70 590.04 L 537.70 590.04 L 520.03 547.51 Q 518.50 543.77 517.01 542.95 Q 515.52 542.14 514.46 542.14 L 514.46 542.14 L 514.46 540.12 Q 516.38 540.22 518.45 540.36 Q 520.51 540.50 522.91 540.50 L 522.91 540.50 Q 525.89 540.50 529.20 540.41 Q 532.51 540.31 535.39 540.12 L 535.39 540.12 L 535.39 542.14 Q 532.99 542.14 531.12 542.47 Q 529.25 542.81 528.72 544.34 Q 528.19 545.88 529.63 549.62 L 529.63 549.62 L 541.63 579.29 L 541.06 579.77 L 552.00 551.06 Q 553.25 547.90 553.01 546.02 Q 552.77 544.15 551.09 543.19 Q 549.41 542.23 545.95 542.04 L 545.95 542.04 L 545.95 540.12 Q 547.68 540.22 548.93 540.26 Q 550.18 540.31 551.38 540.36 Q 552.58 540.41 554.02 540.41 L 554.02 540.41 Q 556.22 540.41 558.00 540.31 Q 559.78 540.22 561.31 540.12 M 578.02 590.23 L 578.02 590.23 Q 574.08 590.23 571.20 588.74 Q 568.32 587.26 566.83 584.57 Q 565.34 581.88 565.34 578.33 L 565.34 578.33 Q 565.34 574.10 567.31 571.42 Q 569.28 568.73 572.35 567.10 Q 575.42 565.46 578.83 564.36 Q 582.24 563.26 585.31 562.25 Q 588.38 561.24 590.35 559.90 Q 592.32 558.55 592.32 556.34 L 592.32 556.34 L 592.32 550.39 Q 592.32 546.36 591.12 544.25 Q 589.92 542.14 587.90 541.42 Q 585.89 540.70 583.39 540.70 L 583.39 540.70 Q 580.99 540.70 578.26 541.37 Q 575.52 542.04 573.89 544.15 L 573.89 544.15 Q 575.71 544.54 577.06 546.07 Q 578.40 547.61 578.40 550.01 L 578.40 550.01 Q 578.40 552.41 576.86 553.80 Q 575.33 555.19 572.93 555.19 L 572.93 555.19 Q 570.14 555.19 568.85 553.42 Q 567.55 551.64 567.55 549.43 L 567.55 549.43 Q 567.55 546.94 568.80 545.40 Q 570.05 543.86 571.97 542.52 L 571.97 542.52 Q 574.18 540.98 577.68 539.88 Q 581.18 538.78 585.60 538.78 L 585.60 538.78 Q 589.54 538.78 592.32 539.69 Q 595.10 540.60 596.93 542.33 L 596.93 542.33 Q 599.42 544.63 600.19 547.94 Q 600.96 551.26 600.96 555.86 L 600.96 555.86 L 600.96 582.55 Q 600.96 584.95 601.68 586.01 Q 602.40 587.06 603.94 587.06 L 603.94 587.06 Q 604.99 587.06 605.95 586.58 Q 606.91 586.10 608.26 585.05 L 608.26 585.05 L 609.31 586.68 Q 607.30 588.22 605.47 589.22 Q 603.65 590.23 600.58 590.23 L 600.58 590.23 Q 597.79 590.23 595.97 589.27 Q 594.14 588.31 593.23 586.44 Q 592.32 584.57 592.32 581.69 L 592.32 581.69 Q 589.73 586.01 586.13 588.12 Q 582.53 590.23 578.02 590.23 M 581.47 586.39 L 581.47 586.39 Q 584.64 586.39 587.38 584.57 Q 590.11 582.74 592.32 579.10 L 592.32 579.10 L 592.32 560.28 Q 591.17 561.91 588.96 563.02 Q 586.75 564.12 584.16 565.22 Q 581.57 566.33 579.22 567.82 Q 576.86 569.30 575.33 571.70 Q 573.79 574.10 573.79 577.94 L 573.79 577.94 Q 573.79 581.78 575.86 584.09 Q 577.92 586.39 581.47 586.39 M 627.65 524.18 L 627.65 524.18 L 627.65 540.22 L 641.86 540.22 L 641.86 542.14 L 627.65 542.14 L 627.65 579.29 Q 627.65 583.80 629.28 585.62 Q 630.91 587.45 633.79 587.45 L 633.79 587.45 Q 636.67 587.45 638.78 585.10 Q 640.90 582.74 642.43 577.18 L 642.43 577.18 L 644.35 577.66 Q 643.39 583.22 640.56 587.06 Q 637.73 590.90 631.87 590.90 L 631.87 590.90 Q 628.61 590.90 626.50 590.09 Q 624.38 589.27 622.75 587.74 L 622.75 587.74 Q 620.64 585.53 619.82 582.46 Q 619.01 579.38 619.01 574.30 L 619.01 574.30 L 619.01 542.14 L 609.79 542.14 L 609.79 540.22 L 619.01 540.22 L 619.01 525.53 Q 621.41 525.43 623.62 525.14 Q 625.82 524.86 627.65 524.18 M 669.50 538.78 L 669.50 538.78 Q 677.95 538.78 682.70 543.91 Q 687.46 549.05 687.46 559.90 L 687.46 559.90 L 653.57 559.90 L 653.47 558.07 L 678.24 558.07 Q 678.43 553.37 677.47 549.38 Q 676.51 545.40 674.45 543.00 Q 672.38 540.60 669.12 540.60 L 669.12 540.60 Q 664.70 540.60 661.30 545.02 Q 657.89 549.43 657.22 559.03 L 657.22 559.03 L 657.50 559.42 Q 657.31 560.86 657.22 562.58 Q 657.12 564.31 657.12 566.04 L 657.12 566.04 Q 657.12 572.57 659.23 577.27 Q 661.34 581.98 664.75 584.42 Q 668.16 586.87 671.81 586.87 L 671.81 586.87 Q 674.69 586.87 677.28 585.96 Q 679.87 585.05 682.08 582.94 Q 684.29 580.82 685.92 577.27 L 685.92 577.27 L 687.84 578.04 Q 686.78 581.21 684.38 584.18 Q 681.98 587.16 678.34 589.03 Q 674.69 590.90 669.89 590.90 L 669.89 590.90 Q 662.98 590.90 658.03 587.74 Q 653.09 584.57 650.45 578.95 Q 647.81 573.34 647.81 566.04 L 647.81 566.04 Q 647.81 557.59 650.50 551.50 Q 653.18 545.40 658.08 542.09 Q 662.98 538.78 669.50 538.78" fill="#1c1917"/><path d="M 230.93 697.75 L 230.93 697.75 Q 226.99 697.75 224.11 696.26 Q 221.23 694.78 219.74 692.09 Q 218.26 689.40 218.26 685.85 L 218.26 685.85 Q 218.26 681.62 220.22 678.94 Q 222.19 676.25 225.26 674.62 Q 228.34 672.98 231.74 671.88 Q 235.15 670.78 238.22 669.77 Q 241.30 668.76 243.26 667.42 Q 245.23 666.07 245.23 663.86 L 245.23 663.86 L 245.23 657.91 Q 245.23 653.88 244.03 651.77 Q 242.83 649.66 240.82 648.94 Q 238.80 648.22 236.30 648.22 L 236.30 648.22 Q 233.90 648.22 231.17 648.89 Q 228.43 649.56 226.80 651.67 L 226.80 651.67 Q 228.62 652.06 229.97 653.59 Q 231.31 655.13 231.31 657.53 L 231.31 657.53 Q 231.31 659.93 229.78 661.32 Q 228.24 662.71 225.84 662.71 L 225.84 662.71 Q 223.06 662.71 221.76 660.94 Q 220.46 659.16 220.46 656.95 L 220.46 656.95 Q 220.46 654.46 221.71 652.92 Q 222.96 651.38 224.88 650.04 L 224.88 650.04 Q 227.09 648.50 230.59 647.40 Q 234.10 646.30 238.51 646.30 L 238.51 646.30 Q 242.45 646.30 245.23 647.21 Q 248.02 648.12 249.84 649.85 L 249.84 649.85 Q 252.34 652.15 253.10 655.46 Q 253.87 658.78 253.87 663.38 L 253.87 663.38 L 253.87 690.07 Q 253.87 692.47 254.59 693.53 Q 255.31 694.58 256.85 694.58 L 256.85 694.58 Q 257.90 694.58 258.86 694.10 Q 259.82 693.62 261.17 692.57 L 261.17 692.57 L 262.22 694.20 Q 260.21 695.74 258.38 696.74 Q 256.56 697.75 253.49 697.75 L 253.49 697.75 Q 250.70 697.75 248.88 696.79 Q 247.06 695.83 246.14 693.96 Q 245.23 692.09 245.23 689.21 L 245.23 689.21 Q 242.64 693.53 239.04 695.64 Q 235.44 697.75 230.93 697.75 M 234.38 693.91 L 234.38 693.91 Q 237.55 693.91 240.29 692.09 Q 243.02 690.26 245.23 686.62 L 245.23 686.62 L 245.23 667.80 Q 244.08 669.43 241.87 670.54 Q 239.66 671.64 237.07 672.74 Q 234.48 673.85 232.13 675.34 Q 229.78 676.82 228.24 679.22 Q 226.70 681.62 226.70 685.46 L 226.70 685.46 Q 226.70 689.30 228.77 691.61 Q 230.83 693.91 234.38 693.91 M 308.69 646.58 L 308.69 646.58 L 308.69 686.71 Q 308.69 691.03 310.27 693.10 Q 311.86 695.16 315.98 695.16 L 315.98 695.16 L 315.98 697.18 Q 313.01 696.89 310.03 696.89 L 310.03 696.89 Q 307.25 696.89 304.70 697.18 Q 302.16 697.46 300.05 698.23 L 300.05 698.23 L 300.05 686.90 Q 297.65 693.14 293.28 695.78 Q 288.91 698.42 284.30 698.42 L 284.30 698.42 Q 280.94 698.42 278.45 697.46 Q 275.95 696.50 274.32 694.78 L 274.32 694.78 Q 272.50 692.86 271.82 689.78 Q 271.15 686.71 271.15 682.20 L 271.15 682.20 L 271.15 658.10 Q 271.15 653.78 269.62 651.72 Q 268.08 649.66 263.86 649.66 L 263.86 649.66 L 263.86 647.64 Q 266.93 647.93 269.81 647.93 L 269.81 647.93 Q 272.59 647.93 275.14 647.59 Q 277.68 647.26 279.79 646.58 L 279.79 646.58 L 279.79 684.31 Q 279.79 687.29 280.18 689.78 Q 280.56 692.28 282.10 693.82 Q 283.63 695.35 287.09 695.35 L 287.09 695.35 Q 290.83 695.35 293.76 693.05 Q 296.69 690.74 298.37 686.81 Q 300.05 682.87 300.05 677.98 L 300.05 677.98 L 300.05 658.10 Q 300.05 653.78 298.51 651.72 Q 296.98 649.66 292.75 649.66 L 292.75 649.66 L 292.75 647.64 Q 295.82 647.93 298.70 647.93 L 298.70 647.93 Q 301.49 647.93 304.03 647.59 Q 306.58 647.26 308.69 646.58 M 336.34 631.70 L 336.34 631.70 L 336.34 647.74 L 350.54 647.74 L 350.54 649.66 L 336.34 649.66 L 336.34 686.81 Q 336.34 691.32 337.97 693.14 Q 339.60 694.97 342.48 694.97 L 342.48 694.97 Q 345.36 694.97 347.47 692.62 Q 349.58 690.26 351.12 684.70 L 351.12 684.70 L 353.04 685.18 Q 352.08 690.74 349.25 694.58 Q 346.42 698.42 340.56 698.42 L 340.56 698.42 Q 337.30 698.42 335.18 697.61 Q 333.07 696.79 331.44 695.26 L 331.44 695.26 Q 329.33 693.05 328.51 689.98 Q 327.70 686.90 327.70 681.82 L 327.70 681.82 L 327.70 649.66 L 318.48 649.66 L 318.48 647.74 L 327.70 647.74 L 327.70 633.05 Q 330.10 632.95 332.30 632.66 Q 334.51 632.38 336.34 631.70 M 378.38 646.30 L 378.38 646.30 Q 384.53 646.30 389.42 648.98 Q 394.32 651.67 397.25 657.43 Q 400.18 663.19 400.18 672.41 L 400.18 672.41 Q 400.18 681.62 397.25 687.34 Q 394.32 693.05 389.42 695.74 Q 384.53 698.42 378.38 698.42 L 378.38 698.42 Q 372.34 698.42 367.39 695.74 Q 362.45 693.05 359.52 687.34 Q 356.59 681.62 356.59 672.41 L 356.59 672.41 Q 356.59 663.19 359.52 657.43 Q 362.45 651.67 367.39 648.98 Q 372.34 646.30 378.38 646.30 M 378.38 648.22 L 378.38 648.22 Q 372.91 648.22 369.41 653.88 Q 365.90 659.54 365.90 672.41 L 365.90 672.41 Q 365.90 685.27 369.41 690.89 Q 372.91 696.50 378.38 696.50 L 378.38 696.50 Q 383.86 696.50 387.36 690.89 Q 390.86 685.27 390.86 672.41 L 390.86 672.41 Q 390.86 659.54 387.36 653.88 Q 383.86 648.22 378.38 648.22 M 435.98 646.30 L 435.98 646.30 Q 443.86 646.30 449.04 652.78 Q 454.22 659.26 454.22 672.41 L 454.22 672.41 Q 454.22 681.05 451.30 686.86 Q 448.37 692.66 443.47 695.54 Q 438.58 698.42 432.82 698.42 L 432.82 698.42 Q 428.02 698.42 423.55 695.69 Q 419.09 692.95 416.88 687.58 L 416.88 687.58 L 418.80 688.63 Q 421.20 692.47 424.75 694.34 Q 428.30 696.22 432.05 696.22 L 432.05 696.22 Q 438.48 696.22 441.70 690.41 Q 444.91 684.60 444.91 672.41 L 444.91 672.41 Q 444.91 664.63 443.66 659.45 Q 442.42 654.26 439.82 651.72 Q 437.23 649.18 433.20 649.18 L 433.20 649.18 Q 428.78 649.18 424.99 653.16 Q 421.20 657.14 420.34 664.82 L 420.34 664.82 L 419.18 663.48 Q 420.24 655.32 424.90 650.81 Q 429.55 646.30 435.98 646.30 M 421.01 621.91 L 421.01 621.91 L 421.01 692.09 Q 419.76 693.14 418.46 694.25 Q 417.17 695.35 415.92 696.41 Q 414.67 697.46 413.33 698.62 L 413.33 698.62 L 411.70 697.94 Q 412.08 696.60 412.22 695.21 Q 412.37 693.82 412.37 692.38 L 412.37 692.38 L 412.37 633.43 Q 412.37 629.11 410.83 627.05 Q 409.30 624.98 405.07 624.98 L 405.07 624.98 L 405.07 622.97 Q 408.14 623.26 411.02 623.26 L 411.02 623.26 Q 413.81 623.26 416.35 622.92 Q 418.90 622.58 421.01 621.91 M 472.46 623.64 L 472.46 623.64 Q 474.96 623.64 476.78 625.46 Q 478.61 627.29 478.61 629.78 L 478.61 629.78 Q 478.61 632.28 476.78 634.10 Q 474.96 635.93 472.46 635.93 L 472.46 635.93 Q 469.97 635.93 468.14 634.10 Q 466.32 632.28 466.32 629.78 L 466.32 629.78 Q 466.32 627.29 468.14 625.46 Q 469.97 623.64 472.46 623.64 M 477.46 646.58 L 477.46 646.58 L 477.46 688.15 Q 477.46 692.18 479.14 693.62 Q 480.82 695.06 484.75 695.06 L 484.75 695.06 L 484.75 697.08 Q 483.12 696.98 479.81 696.84 Q 476.50 696.70 473.14 696.70 L 473.14 696.70 Q 469.87 696.70 466.51 696.84 Q 463.15 696.98 461.52 697.08 L 461.52 697.08 L 461.52 695.06 Q 465.46 695.06 467.14 693.62 Q 468.82 692.18 468.82 688.15 L 468.82 688.15 L 468.82 658.10 Q 468.82 653.78 467.28 651.72 Q 465.74 649.66 461.52 649.66 L 461.52 649.66 L 461.52 647.64 Q 464.59 647.93 467.47 647.93 L 467.47 647.93 Q 470.26 647.93 472.80 647.59 Q 475.34 647.26 477.46 646.58 M 513.17 646.30 L 513.17 646.30 Q 519.31 646.30 524.21 648.98 Q 529.10 651.67 532.03 657.43 Q 534.96 663.19 534.96 672.41 L 534.96 672.41 Q 534.96 681.62 532.03 687.34 Q 529.10 693.05 524.21 695.74 Q 519.31 698.42 513.17 698.42 L 513.17 698.42 Q 507.12 698.42 502.18 695.74 Q 497.23 693.05 494.30 687.34 Q 491.38 681.62 491.38 672.41 L 491.38 672.41 Q 491.38 663.19 494.30 657.43 Q 497.23 651.67 502.18 648.98 Q 507.12 646.30 513.17 646.30 M 513.17 648.22 L 513.17 648.22 Q 507.70 648.22 504.19 653.88 Q 500.69 659.54 500.69 672.41 L 500.69 672.41 Q 500.69 685.27 504.19 690.89 Q 507.70 696.50 513.17 696.50 L 513.17 696.50 Q 518.64 696.50 522.14 690.89 Q 525.65 685.27 525.65 672.41 L 525.65 672.41 Q 525.65 659.54 522.14 653.88 Q 518.64 648.22 513.17 648.22 M 559.92 715.13 L 559.92 715.13 Q 554.83 715.13 550.32 714.07 Q 545.81 713.02 543.07 710.76 Q 540.34 708.50 540.34 705.05 L 540.34 705.05 Q 540.34 701.69 543.02 699.29 Q 545.71 696.89 550.32 695.64 L 550.32 695.64 L 550.90 697.18 Q 548.78 697.85 547.54 699.86 Q 546.29 701.88 546.29 704.38 L 546.29 704.38 Q 546.29 708.79 550.37 711.14 Q 554.45 713.50 560.98 713.50 L 560.98 713.50 Q 565.30 713.50 569.42 712.39 Q 573.55 711.29 576.24 708.70 Q 578.93 706.10 578.93 701.88 L 578.93 701.88 Q 578.93 698.71 576.67 696.65 Q 574.42 694.58 567.79 694.58 L 567.79 694.58 L 560.69 694.58 Q 557.62 694.58 554.74 694.10 Q 551.86 693.62 550.03 692.09 Q 548.21 690.55 548.21 687.38 L 548.21 687.38 Q 548.21 684.12 550.90 681.10 Q 553.58 678.07 560.78 674.90 L 560.78 674.90 L 561.94 675.77 Q 558.67 677.50 556.27 679.27 Q 553.87 681.05 553.87 683.45 L 553.87 683.45 Q 553.87 686.52 558.48 686.52 L 558.48 686.52 L 570.48 686.52 Q 574.51 686.52 577.92 687.67 Q 581.33 688.82 583.44 691.32 Q 585.55 693.82 585.55 697.85 L 585.55 697.85 Q 585.55 702.36 582.67 706.30 Q 579.79 710.23 574.08 712.68 Q 568.37 715.13 559.92 715.13 M 560.40 676.63 L 560.40 676.63 Q 555.70 676.63 551.86 675.05 Q 548.02 673.46 545.81 670.10 Q 543.60 666.74 543.60 661.46 L 543.60 661.46 Q 543.60 656.18 545.81 652.82 Q 548.02 649.46 551.86 647.88 Q 555.70 646.30 560.40 646.30 L 560.40 646.30 Q 565.20 646.30 568.99 647.88 Q 572.78 649.46 574.99 652.82 Q 577.20 656.18 577.20 661.46 L 577.20 661.46 Q 577.20 666.74 574.99 670.10 Q 572.78 673.46 568.99 675.05 Q 565.20 676.63 560.40 676.63 M 560.40 674.90 L 560.40 674.90 Q 564.05 674.90 566.11 672.02 Q 568.18 669.14 568.18 661.46 L 568.18 661.46 Q 568.18 653.78 566.11 650.90 Q 564.05 648.02 560.40 648.02 L 560.40 648.02 Q 556.85 648.02 554.74 650.90 Q 552.62 653.78 552.62 661.46 L 552.62 661.46 Q 552.62 669.14 554.74 672.02 Q 556.85 674.90 560.40 674.90 M 574.22 654.26 L 574.22 654.26 L 572.50 653.59 Q 573.84 650.33 577.10 647.83 Q 580.37 645.34 583.92 645.34 L 583.92 645.34 Q 586.42 645.34 587.95 646.73 Q 589.49 648.12 589.49 650.90 L 589.49 650.90 Q 589.49 653.88 587.90 655.08 Q 586.32 656.28 584.69 656.28 L 584.69 656.28 Q 583.25 656.28 582.00 655.27 Q 580.75 654.26 580.56 652.06 Q 580.37 649.85 581.90 646.39 L 581.90 646.39 L 583.15 646.68 Q 579.12 648.22 577.39 649.90 Q 575.66 651.58 574.22 654.26 M 622.80 646.30 L 622.80 646.30 Q 625.39 646.30 627.36 647.35 Q 629.33 648.41 630.43 650.09 Q 631.54 651.77 631.54 653.88 L 631.54 653.88 Q 631.54 656.28 630.05 658.10 Q 628.56 659.93 626.06 659.93 L 626.06 659.93 Q 624.05 659.93 622.51 658.63 Q 620.98 657.34 620.98 654.94 L 620.98 654.94 Q 620.98 653.11 621.98 651.82 Q 622.99 650.52 624.24 649.75 L 624.24 649.75 Q 623.57 648.79 622.22 648.79 L 622.22 648.79 Q 619.25 648.79 616.75 650.57 Q 614.26 652.34 612.53 655.13 Q 610.80 657.91 609.84 661.03 Q 608.88 664.15 608.88 666.84 L 608.88 666.84 L 608.88 687.19 Q 608.88 691.90 611.62 693.48 Q 614.35 695.06 619.06 695.06 L 619.06 695.06 L 619.06 697.08 Q 616.85 696.98 612.82 696.84 Q 608.78 696.70 604.27 696.70 L 604.27 696.70 Q 601.01 696.70 597.79 696.84 Q 594.58 696.98 592.94 697.08 L 592.94 697.08 L 592.94 695.06 Q 596.88 695.06 598.56 693.62 Q 600.24 692.18 600.24 688.15 L 600.24 688.15 L 600.24 658.10 Q 600.24 653.78 598.70 651.72 Q 597.17 649.66 592.94 649.66 L 592.94 649.66 L 592.94 647.64 Q 596.02 647.93 598.90 647.93 L 598.90 647.93 Q 601.68 647.93 604.22 647.59 Q 606.77 647.26 608.88 646.58 L 608.88 646.58 L 608.88 658.58 Q 609.94 655.80 611.90 652.97 Q 613.87 650.14 616.66 648.22 Q 619.44 646.30 622.80 646.30 M 649.30 697.75 L 649.30 697.75 Q 645.36 697.75 642.48 696.26 Q 639.60 694.78 638.11 692.09 Q 636.62 689.40 636.62 685.85 L 636.62 685.85 Q 636.62 681.62 638.59 678.94 Q 640.56 676.25 643.63 674.62 Q 646.70 672.98 650.11 671.88 Q 653.52 670.78 656.59 669.77 Q 659.66 668.76 661.63 667.42 Q 663.60 666.07 663.60 663.86 L 663.60 663.86 L 663.60 657.91 Q 663.60 653.88 662.40 651.77 Q 661.20 649.66 659.18 648.94 Q 657.17 648.22 654.67 648.22 L 654.67 648.22 Q 652.27 648.22 649.54 648.89 Q 646.80 649.56 645.17 651.67 L 645.17 651.67 Q 646.99 652.06 648.34 653.59 Q 649.68 655.13 649.68 657.53 L 649.68 657.53 Q 649.68 659.93 648.14 661.32 Q 646.61 662.71 644.21 662.71 L 644.21 662.71 Q 641.42 662.71 640.13 660.94 Q 638.83 659.16 638.83 656.95 L 638.83 656.95 Q 638.83 654.46 640.08 652.92 Q 641.33 651.38 643.25 650.04 L 643.25 650.04 Q 645.46 648.50 648.96 647.40 Q 652.46 646.30 656.88 646.30 L 656.88 646.30 Q 660.82 646.30 663.60 647.21 Q 666.38 648.12 668.21 649.85 L 668.21 649.85 Q 670.70 652.15 671.47 655.46 Q 672.24 658.78 672.24 663.38 L 672.24 663.38 L 672.24 690.07 Q 672.24 692.47 672.96 693.53 Q 673.68 694.58 675.22 694.58 L 675.22 694.58 Q 676.27 694.58 677.23 694.10 Q 678.19 693.62 679.54 692.57 L 679.54 692.57 L 680.59 694.20 Q 678.58 695.74 676.75 696.74 Q 674.93 697.75 671.86 697.75 L 671.86 697.75 Q 669.07 697.75 667.25 696.79 Q 665.42 695.83 664.51 693.96 Q 663.60 692.09 663.60 689.21 L 663.60 689.21 Q 661.01 693.53 657.41 695.64 Q 653.81 697.75 649.30 697.75 M 652.75 693.91 L 652.75 693.91 Q 655.92 693.91 658.66 692.09 Q 661.39 690.26 663.60 686.62 L 663.60 686.62 L 663.60 667.80 Q 662.45 669.43 660.24 670.54 Q 658.03 671.64 655.44 672.74 Q 652.85 673.85 650.50 675.34 Q 648.14 676.82 646.61 679.22 Q 645.07 681.62 645.07 685.46 L 645.07 685.46 Q 645.07 689.30 647.14 691.61 Q 649.20 693.91 652.75 693.91 M 698.74 646.58 L 698.74 646.58 L 698.74 705.53 Q 698.74 709.66 701.18 711.05 Q 703.63 712.44 707.95 712.44 L 707.95 712.44 L 707.95 714.46 Q 705.84 714.36 702.10 714.22 Q 698.35 714.07 694.13 714.07 L 694.13 714.07 Q 691.15 714.07 688.22 714.22 Q 685.30 714.36 683.76 714.46 L 683.76 714.46 L 683.76 712.44 Q 687.22 712.44 688.66 711.19 Q 690.10 709.94 690.10 706.49 L 690.10 706.49 L 690.10 658.10 Q 690.10 653.78 688.56 651.72 Q 687.02 649.66 682.80 649.66 L 682.80 649.66 L 682.80 647.64 Q 685.87 647.93 688.75 647.93 L 688.75 647.93 Q 691.54 647.93 694.08 647.59 Q 696.62 647.26 698.74 646.58 M 714.10 646.30 L 714.10 646.30 Q 719.18 646.30 723.22 649.03 Q 727.25 651.77 729.60 657.05 Q 731.95 662.33 731.95 670.10 L 731.95 670.10 Q 731.95 675.29 730.70 680.33 Q 729.46 685.37 726.82 689.45 Q 724.18 693.53 720.00 695.98 Q 715.82 698.42 709.97 698.42 L 709.97 698.42 Q 705.46 698.42 702.14 696.31 Q 698.83 694.20 697.68 691.22 L 697.68 691.22 L 698.64 689.88 Q 699.98 692.57 702.53 694.39 Q 705.07 696.22 708.91 696.22 L 708.91 696.22 Q 714.29 696.22 717.26 692.86 Q 720.24 689.50 721.44 683.88 Q 722.64 678.26 722.64 671.45 L 722.64 671.45 Q 722.64 663.77 721.39 658.87 Q 720.14 653.98 717.65 651.58 Q 715.15 649.18 711.50 649.18 L 711.50 649.18 Q 706.80 649.18 702.96 653.06 Q 699.12 656.95 698.06 664.82 L 698.06 664.82 L 696.91 663.48 Q 697.97 655.32 702.72 650.81 Q 707.47 646.30 714.10 646.30 M 754.32 621.91 L 754.32 621.91 L 754.32 657.82 Q 756.82 651.29 761.28 648.79 Q 765.74 646.30 770.64 646.30 L 770.64 646.30 Q 774.29 646.30 776.74 647.26 Q 779.18 648.22 780.82 649.94 L 780.82 649.94 Q 782.64 651.86 783.41 654.74 Q 784.18 657.62 784.18 662.52 L 784.18 662.52 L 784.18 688.15 Q 784.18 692.18 785.86 693.62 Q 787.54 695.06 791.47 695.06 L 791.47 695.06 L 791.47 697.08 Q 789.84 696.98 786.48 696.84 Q 783.12 696.70 779.95 696.70 L 779.95 696.70 Q 776.78 696.70 773.76 696.84 Q 770.74 696.98 769.20 697.08 L 769.20 697.08 L 769.20 695.06 Q 772.66 695.06 774.10 693.62 Q 775.54 692.18 775.54 688.15 L 775.54 688.15 L 775.54 660.41 Q 775.54 657.43 775.06 654.94 Q 774.58 652.44 772.90 650.90 Q 771.22 649.37 767.76 649.37 L 767.76 649.37 Q 763.82 649.37 760.80 651.58 Q 757.78 653.78 756.05 657.72 Q 754.32 661.66 754.32 666.74 L 754.32 666.74 L 754.32 688.15 Q 754.32 692.18 755.76 693.62 Q 757.20 695.06 760.66 695.06 L 760.66 695.06 L 760.66 697.08 Q 759.12 696.98 756.10 696.84 Q 753.07 696.70 749.90 696.70 L 749.90 696.70 Q 746.74 696.70 743.38 696.84 Q 740.02 696.98 738.38 697.08 L 738.38 697.08 L 738.38 695.06 Q 742.32 695.06 744.00 693.62 Q 745.68 692.18 745.68 688.15 L 745.68 688.15 L 745.68 633.43 Q 745.68 629.11 744.14 627.05 Q 742.61 624.98 738.38 624.98 L 738.38 624.98 L 738.38 622.97 Q 741.46 623.26 744.34 623.26 L 744.34 623.26 Q 747.12 623.26 749.66 622.92 Q 752.21 622.58 754.32 621.91 M 840.34 647.64 L 840.34 647.64 L 840.34 649.56 Q 838.51 649.75 836.98 651.19 Q 835.44 652.63 834.10 656.28 L 834.10 656.28 L 818.35 697.56 L 816.72 697.56 L 799.06 655.03 Q 797.23 651.29 795.46 650.47 Q 793.68 649.66 792.53 649.66 L 792.53 649.66 L 792.53 647.64 Q 794.64 647.93 796.94 648.07 Q 799.25 648.22 801.94 648.22 L 801.94 648.22 Q 804.91 648.22 808.22 648.02 Q 811.54 647.83 814.42 647.64 L 814.42 647.64 L 814.42 649.66 Q 812.02 649.66 810.14 649.99 Q 808.27 650.33 807.79 652.01 Q 807.31 653.69 808.94 657.72 L 808.94 657.72 L 820.75 687.00 L 820.18 687.19 L 831.12 658.58 Q 832.37 655.42 832.13 653.54 Q 831.89 651.67 830.16 650.71 Q 828.43 649.75 824.98 649.56 L 824.98 649.56 L 824.98 647.64 Q 826.70 647.74 827.95 647.78 Q 829.20 647.83 830.40 647.88 Q 831.60 647.93 833.04 647.93 L 833.04 647.93 Q 835.25 647.93 837.02 647.83 Q 838.80 647.74 840.34 647.64 M 816.53 696.79 L 818.35 697.56 L 815.09 705.91 Q 814.13 708.31 813.12 709.94 Q 812.11 711.58 810.96 712.63 L 810.96 712.63 Q 809.42 714.07 807.31 714.60 Q 805.20 715.13 803.47 715.13 L 803.47 715.13 Q 801.65 715.13 800.16 714.46 Q 798.67 713.78 797.81 712.49 Q 796.94 711.19 796.94 709.37 L 796.94 709.37 Q 796.94 707.06 798.29 705.67 Q 799.63 704.28 802.03 704.28 L 802.03 704.28 Q 804.05 704.28 805.49 705.43 Q 806.93 706.58 806.93 708.79 L 806.93 708.79 Q 806.93 710.42 806.16 711.48 Q 805.39 712.54 804.34 713.11 L 804.34 713.11 Q 804.53 713.21 804.67 713.21 Q 804.82 713.21 804.91 713.21 L 804.91 713.21 Q 807.50 713.21 809.52 711.43 Q 811.54 709.66 813.07 705.72 L 813.07 705.72 L 816.53 696.79 M 853.39 686.14 L 853.39 686.14 Q 855.89 686.14 857.71 687.96 Q 859.54 689.78 859.54 692.28 L 859.54 692.28 Q 859.54 694.78 857.71 696.60 Q 855.89 698.42 853.39 698.42 L 853.39 698.42 Q 850.90 698.42 849.07 696.60 Q 847.25 694.78 847.25 692.28 L 847.25 692.28 Q 847.25 689.78 849.07 687.96 Q 850.90 686.14 853.39 686.14" fill="#1c1917"/><text x="540" y="905" text-anchor="middle" fill="#78716c" font-family="'Helvetica Neue', Arial, sans-serif" font-size="28" letter-spacing="1">Written involuntarily. Edited only by attrition.</text><text x="540" y="1010" text-anchor="middle" fill="#D4B378" font-family="'Helvetica Neue', Arial, sans-serif" font-size="20" letter-spacing="7" style="text-transform:uppercase">Atelier</text></svg>