<svg xmlns="http://www.w3.org/2000/svg" viewBox="0 0 1080 1080" width="1080" height="1080">
  <defs>
    <radialGradient id="bg" cx="50%" cy="45%" r="75%">
      <stop offset="0%" stop-color="#FBF8F3"/>
      <stop offset="60%" stop-color="#F4EFE6"/>
      <stop offset="100%" stop-color="#ECE5D6"/>
    </radialGradient>
    <linearGradient id="goldLine" x1="0" y1="0" x2="1" y2="0">
      <stop offset="0%" stop-color="#D4B378" stop-opacity="0"/>
      <stop offset="50%" stop-color="#D4B378" stop-opacity="1"/>
      <stop offset="100%" stop-color="#D4B378" stop-opacity="0"/>
    </linearGradient>
  </defs>

  <rect width="1080" height="1080" fill="url(#bg)"/>

  <rect x="50" y="50" width="980" height="980" fill="none" stroke="#1c1917" stroke-opacity="0.08" stroke-width="1"/>

  <g stroke="#D4B378" stroke-width="1.2" fill="none" opacity="0.9">
    <path d="M 50 110 L 110 110 L 110 50"/>
    <path d="M 1030 110 L 970 110 L 970 50"/>
    <path d="M 50 970 L 110 970 L 110 1030"/>
    <path d="M 1030 970 L 970 970 L 970 1030"/>
  </g>

  <g font-family="Georgia, 'Times New Roman', serif" fill="#1c1917" text-anchor="middle">
    <text x="540" y="150" font-size="20" letter-spacing="14" fill-opacity="0.55">E S T  2 0 2 6</text>
  </g>

  <!-- Mark -->
  <g transform="translate(412 230) scale(1.0)">
    <rect width="256" height="256" rx="56" fill="#1c1917"/>
    <g fill="none" stroke="#F7F5F2" stroke-width="7" stroke-linecap="round" stroke-linejoin="round">
      <path d="M 160 60 Q 160 44 144 44 Q 128 44 128 58 L 128 110"/>
      <path d="M 128 110 L 62 184 L 194 184 Z"/>
    </g>
    <line x1="128" y1="184" x2="128" y2="206" stroke="#D4B378" stroke-width="1.5" stroke-linecap="round" opacity="0.9"/>
    <circle cx="128" cy="212" r="5" fill="#D4B378"/>
  </g>

  <g font-family="Georgia, 'Times New Roman', serif" fill="#1c1917" text-anchor="middle">
    <text x="540" y="650" font-size="140" font-weight="400" letter-spacing="6">Atelier</text>
  </g>

  <rect x="290" y="690" width="500" height="1.5" fill="url(#goldLine)"/>
  <circle cx="540" cy="690.75" r="4" fill="#D4B378"/>

  <g font-family="Georgia, 'Times New Roman', serif" fill="#1c1917" text-anchor="middle">
    <text x="540" y="755" font-size="28" letter-spacing="20" fill-opacity="0.8">M E M B E R S H I P</text>
    <text x="540" y="830" font-size="26" font-style="italic" fill-opacity="0.65">Quiet luxury for your wardrobe.</text>
  </g>

  <g font-family="Georgia, 'Times New Roman', serif" fill="#1c1917" text-anchor="middle" font-size="18" letter-spacing="5" fill-opacity="0.6">
    <text x="540" y="940">U N L I M I T E D  ·  A I  S T Y L I N G  ·  C O S T - P E R - W E A R</text>
  </g>
</svg>
