<svg xmlns="http://www.w3.org/2000/svg" viewBox="0 0 1200 630" width="1200" height="630">
  <defs>
    <radialGradient id="bg" cx="35%" cy="50%" r="80%">
      <stop offset="0%" stop-color="#FBF8F3"/>
      <stop offset="60%" stop-color="#F4EFE6"/>
      <stop offset="100%" stop-color="#ECE5D6"/>
    </radialGradient>
    <linearGradient id="goldLine" x1="0" y1="0" x2="1" y2="0">
      <stop offset="0%" stop-color="#D4B378" stop-opacity="1"/>
      <stop offset="100%" stop-color="#D4B378" stop-opacity="0"/>
    </linearGradient>
  </defs>

  <rect width="1200" height="630" fill="url(#bg)"/>

  <rect x="40" y="40" width="1120" height="550" fill="none" stroke="#1c1917" stroke-opacity="0.08" stroke-width="1"/>

  <g stroke="#D4B378" stroke-width="1.2" fill="none" opacity="0.9">
    <path d="M 40 100 L 100 100 L 100 40"/>
    <path d="M 1160 100 L 1100 100 L 1100 40"/>
    <path d="M 40 530 L 100 530 L 100 590"/>
    <path d="M 1160 530 L 1100 530 L 1100 590"/>
  </g>

  <!-- Mark left -->
  <g transform="translate(120 195) scale(0.94)">
    <rect width="256" height="256" rx="56" fill="#1c1917"/>
    <g fill="none" stroke="#F7F5F2" stroke-width="7" stroke-linecap="round" stroke-linejoin="round">
      <path d="M 160 60 Q 160 44 144 44 Q 128 44 128 58 L 128 110"/>
      <path d="M 128 110 L 62 184 L 194 184 Z"/>
    </g>
    <line x1="128" y1="184" x2="128" y2="206" stroke="#D4B378" stroke-width="1.5" stroke-linecap="round" opacity="0.9"/>
    <circle cx="128" cy="212" r="5" fill="#D4B378"/>
  </g>

  <!-- Text right -->
  <g font-family="Georgia, 'Times New Roman', serif" fill="#1c1917">
    <text x="430" y="200" font-size="19" letter-spacing="12" fill-opacity="0.72">A T E L I E R  ·  E S T  2 0 2 6</text>
    <text x="430" y="320" font-size="92" font-weight="400" letter-spacing="3">Atelier</text>
  </g>

  <rect x="430" y="345" width="320" height="1.5" fill="url(#goldLine)"/>
  <circle cx="430" cy="345.75" r="4" fill="#D4B378"/>

  <g font-family="Georgia, 'Times New Roman', serif" fill="#1c1917">
    <text x="430" y="395" font-size="22" letter-spacing="16" fill-opacity="0.9">M E M B E R S H I P</text>
    <text x="430" y="450" font-size="24" font-style="italic" fill-opacity="0.82">Quiet luxury for your wardrobe.</text>
    <text x="430" y="495" font-size="17" letter-spacing="3" fill-opacity="0.75">Unlimited pieces · AI styling · Cost-per-wear</text>
  </g>
</svg>
