<svg xmlns="http://www.w3.org/2000/svg" viewBox="0 0 1600 1200" width="1600" height="1200">
  <defs>
    <radialGradient id="bg" cx="50%" cy="42%" r="75%">
      <stop offset="0%" stop-color="#FCFAF6"/>
      <stop offset="60%" stop-color="#F7F2E8"/>
      <stop offset="100%" stop-color="#EEE6D4"/>
    </radialGradient>
    <linearGradient id="goldLine" x1="0" y1="0" x2="1" y2="0">
      <stop offset="0%" stop-color="#D4B378" stop-opacity="0"/>
      <stop offset="50%" stop-color="#D4B378" stop-opacity="1"/>
      <stop offset="100%" stop-color="#D4B378" stop-opacity="0"/>
    </linearGradient>
  </defs>

  <rect width="1600" height="1200" fill="url(#bg)"/>

  <rect x="80" y="80" width="1440" height="1040" fill="none" stroke="#1c1917" stroke-opacity="0.08" stroke-width="1"/>

  <g stroke="#D4B378" stroke-width="1.2" fill="none" opacity="0.85">
    <path d="M 80 140 L 140 140 L 140 80"/>
    <path d="M 1520 140 L 1460 140 L 1460 80"/>
    <path d="M 80 1060 L 140 1060 L 140 1120"/>
    <path d="M 1520 1060 L 1460 1060 L 1460 1120"/>
  </g>

  <g font-family="Georgia, 'Times New Roman', serif" fill="#1c1917" text-anchor="middle">
    <text x="800" y="180" font-size="22" letter-spacing="16" fill-opacity="0.72">M O N T H L Y</text>
  </g>

  <g transform="translate(640 280) scale(1.25)">
    <rect width="256" height="256" rx="56" fill="#1c1917"/>
    <g fill="none" stroke="#F7F5F2" stroke-width="7" stroke-linecap="round" stroke-linejoin="round">
      <path d="M 160 60 Q 160 44 144 44 Q 128 44 128 58 L 128 110"/>
      <path d="M 128 110 L 62 184 L 194 184 Z"/>
    </g>
    <line x1="128" y1="184" x2="128" y2="206" stroke="#D4B378" stroke-width="1.5" stroke-linecap="round" opacity="0.9"/>
    <circle cx="128" cy="212" r="5" fill="#D4B378"/>
  </g>

  <g font-family="Georgia, 'Times New Roman', serif" fill="#1c1917" text-anchor="middle">
    <text x="800" y="780" font-size="180" font-weight="400" letter-spacing="6">Atelier</text>
  </g>

  <rect x="500" y="820" width="600" height="1.5" fill="url(#goldLine)"/>
  <circle cx="800" cy="820.75" r="4" fill="#D4B378"/>

  <g font-family="Georgia, 'Times New Roman', serif" fill="#1c1917" text-anchor="middle">
    <text x="800" y="890" font-size="34" letter-spacing="22" fill-opacity="0.9">M E M B E R S H I P</text>
    <text x="800" y="970" font-size="30" font-style="italic" fill-opacity="0.82">Quiet luxury for your wardrobe.</text>
  </g>

  <g transform="translate(800 1050)" text-anchor="middle" font-family="Georgia, 'Times New Roman', serif">
    <rect x="-160" y="-32" width="320" height="56" rx="28" fill="none" stroke="#1c1917" stroke-opacity="0.35" stroke-width="1"/>
    <text x="0" y="6" font-size="22" letter-spacing="10" fill="#1c1917" fill-opacity="0.85">£ 1 2  /  M O N T H</text>
  </g>
</svg>
