<svg xmlns="http://www.w3.org/2000/svg" viewBox="0 0 1600 1200" width="1600" height="1200">
  <defs>
    <radialGradient id="bg" cx="50%" cy="42%" r="75%">
      <stop offset="0%" stop-color="#1f1c18"/>
      <stop offset="60%" stop-color="#171411"/>
      <stop offset="100%" stop-color="#0f0d0a"/>
    </radialGradient>
    <linearGradient id="goldFoil" x1="0" y1="0" x2="1" y2="1">
      <stop offset="0%" stop-color="#E8C988"/>
      <stop offset="35%" stop-color="#D4B378"/>
      <stop offset="55%" stop-color="#B89456"/>
      <stop offset="75%" stop-color="#D4B378"/>
      <stop offset="100%" stop-color="#9C7B40"/>
    </linearGradient>
    <linearGradient id="goldLine" x1="0" y1="0" x2="1" y2="0">
      <stop offset="0%" stop-color="#D4B378" stop-opacity="0"/>
      <stop offset="50%" stop-color="#D4B378" stop-opacity="1"/>
      <stop offset="100%" stop-color="#D4B378" stop-opacity="0"/>
    </linearGradient>
    <filter id="goldGlow" x="-20%" y="-20%" width="140%" height="140%">
      <feGaussianBlur in="SourceGraphic" stdDeviation="6" result="blur"/>
      <feMerge><feMergeNode in="blur"/><feMergeNode in="SourceGraphic"/></feMerge>
    </filter>
  </defs>

  <rect width="1600" height="1200" fill="url(#bg)"/>

  <!-- Gold corners -->
  <g stroke="url(#goldFoil)" stroke-width="1.5" fill="none">
    <path d="M 80 140 L 140 140 L 140 80"/>
    <path d="M 1520 140 L 1460 140 L 1460 80"/>
    <path d="M 80 1060 L 140 1060 L 140 1120"/>
    <path d="M 1520 1060 L 1460 1060 L 1460 1120"/>
  </g>

  <!-- Faint inner border -->
  <rect x="80" y="80" width="1440" height="1040" fill="none" stroke="#D4B378" stroke-opacity="0.15" stroke-width="1"/>

  <!-- Eyebrow -->
  <g font-family="Georgia, 'Times New Roman', serif" text-anchor="middle">
    <text x="800" y="180" font-size="22" letter-spacing="16" fill="url(#goldFoil)" fill-opacity="0.9">A N N U A L</text>
  </g>

  <!-- Hanger mark with gold base ring -->
  <g transform="translate(640 280) scale(1.25)">
    <rect width="256" height="256" rx="56" fill="#0a0908" stroke="url(#goldFoil)" stroke-width="2"/>
    <g fill="none" stroke="#F7F5F2" stroke-width="7" stroke-linecap="round" stroke-linejoin="round">
      <path d="M 160 60 Q 160 44 144 44 Q 128 44 128 58 L 128 110"/>
      <path d="M 128 110 L 62 184 L 194 184 Z"/>
    </g>
    <line x1="128" y1="184" x2="128" y2="206" stroke="url(#goldFoil)" stroke-width="2" stroke-linecap="round"/>
    <circle cx="128" cy="212" r="6" fill="url(#goldFoil)" filter="url(#goldGlow)"/>
  </g>

  <!-- Wordmark in gold foil -->
  <g font-family="Georgia, 'Times New Roman', serif" text-anchor="middle">
    <text x="800" y="780" font-size="180" font-weight="400" letter-spacing="6" fill="url(#goldFoil)">Atelier</text>
  </g>

  <rect x="500" y="820" width="600" height="1.5" fill="url(#goldLine)"/>
  <circle cx="800" cy="820.75" r="4" fill="url(#goldFoil)"/>

  <g font-family="Georgia, 'Times New Roman', serif" text-anchor="middle" fill="#F7F5F2">
    <text x="800" y="890" font-size="34" letter-spacing="22" fill-opacity="0.85">M E M B E R S H I P</text>
    <text x="800" y="970" font-size="30" font-style="italic" fill-opacity="0.65">Quiet luxury for your wardrobe.</text>
  </g>

  <!-- Value tag -->
  <g transform="translate(800 1050)" text-anchor="middle" font-family="Georgia, 'Times New Roman', serif">
    <rect x="-180" y="-32" width="360" height="56" rx="28" fill="none" stroke="url(#goldFoil)" stroke-width="1.2"/>
    <text x="0" y="6" font-size="22" letter-spacing="10" fill="url(#goldFoil)">£ 1 0 8  ·  B E S T  V A L U E</text>
  </g>
</svg>
