<svg xmlns="http://www.w3.org/2000/svg" width="1080" height="1080" viewBox="0 0 1080 1080">
  <rect width="1080" height="1080" fill="#1c1917"/>
  <rect x="34" y="34" width="1012" height="1012" fill="none" stroke="#D4B378" stroke-width="1.5" opacity="0.5"/>
  <text x="540" y="170" text-anchor="middle" fill="#D4B378" font-family="'Helvetica Neue', Arial, sans-serif" font-size="27" letter-spacing="9" style="text-transform:uppercase">Your Style DNA</text>
  <circle cx="540.0" cy="250.0" r="27" fill="#E9D3A6"/><circle cx="615.0" cy="270.1" r="27" fill="#D4B378"/><circle cx="669.9" cy="325.0" r="27" fill="#A8884C"/><circle cx="690.0" cy="400.0" r="27" fill="#8C7040"/><circle cx="669.9" cy="475.0" r="27" fill="#78716c"/><circle cx="615.0" cy="529.9" r="27" fill="#44403c"/><circle cx="540.0" cy="550.0" r="27" fill="#b97a72"/><circle cx="465.0" cy="529.9" r="27" fill="#7d3a32"/><circle cx="410.1" cy="475.0" r="27" fill="#d6d3d1"/><circle cx="390.0" cy="400.0" r="27" fill="#a8a29e"/><circle cx="410.1" cy="325.0" r="27" fill="#F5EAD1"/><circle cx="465.0" cy="270.1" r="27" fill="#6E5833"/>
  <circle cx="540" cy="400" r="6" fill="#F7F5F2"/>
  <path d="M 192.96 677.52 L 192.96 677.52 L 192.96 678.72 Q 191.82 678.96 190.68 680.19 Q 189.54 681.42 188.16 684.06 L 188.16 684.06 L 176.04 708.06 L 175.02 708.06 L 160.98 682.14 Q 159.78 679.92 158.97 679.35 Q 158.16 678.78 157.50 678.78 L 157.50 678.78 L 157.50 677.52 Q 158.70 677.58 159.99 677.64 Q 161.28 677.70 162.78 677.70 L 162.78 677.70 Q 164.76 677.70 167.01 677.67 Q 169.26 677.64 171.18 677.52 L 171.18 677.52 L 171.18 678.78 Q 169.68 678.78 168.54 679.14 Q 167.40 679.50 167.04 680.46 Q 166.68 681.42 167.58 683.16 L 167.58 683.16 L 177.72 702.60 L 177.24 702.96 L 185.22 687.06 Q 186.90 683.76 186.87 681.96 Q 186.84 680.16 185.46 679.47 Q 184.08 678.78 181.56 678.72 L 181.56 678.72 L 181.56 677.52 Q 183.30 677.58 185.10 677.64 Q 186.90 677.70 188.46 677.70 L 188.46 677.70 Q 190.02 677.70 191.04 677.64 Q 192.06 677.58 192.96 677.52 M 176.40 705.06 L 178.74 701.76 L 178.74 713.64 Q 178.74 715.80 179.10 716.88 Q 179.46 717.96 180.51 718.32 Q 181.56 718.68 183.60 718.80 L 183.60 718.80 L 183.60 720.00 Q 182.22 719.88 180.15 719.85 Q 178.08 719.82 175.98 719.82 L 175.98 719.82 Q 173.64 719.82 171.60 719.85 Q 169.56 719.88 168.30 720.00 L 168.30 720.00 L 168.30 718.80 Q 170.34 718.68 171.39 718.32 Q 172.44 717.96 172.80 716.88 Q 173.16 715.80 173.16 713.64 L 173.16 713.64 L 173.16 701.34 L 176.40 705.06 M 209.58 688.26 L 209.58 688.26 Q 213.42 688.26 216.48 689.94 Q 219.54 691.62 221.37 695.22 Q 223.20 698.82 223.20 704.58 L 223.20 704.58 Q 223.20 710.34 221.37 713.91 Q 219.54 717.48 216.48 719.16 Q 213.42 720.84 209.58 720.84 L 209.58 720.84 Q 205.80 720.84 202.71 719.16 Q 199.62 717.48 197.79 713.91 Q 195.96 710.34 195.96 704.58 L 195.96 704.58 Q 195.96 698.82 197.79 695.22 Q 199.62 691.62 202.71 689.94 Q 205.80 688.26 209.58 688.26 M 209.58 689.46 L 209.58 689.46 Q 206.16 689.46 203.97 693.00 Q 201.78 696.54 201.78 704.58 L 201.78 704.58 Q 201.78 712.62 203.97 716.13 Q 206.16 719.64 209.58 719.64 L 209.58 719.64 Q 213.00 719.64 215.19 716.13 Q 217.38 712.62 217.38 704.58 L 217.38 704.58 Q 217.38 696.54 215.19 693.00 Q 213.00 689.46 209.58 689.46 M 255.00 688.44 L 255.00 688.44 L 255.00 713.52 Q 255.00 716.22 255.99 717.51 Q 256.98 718.80 259.56 718.80 L 259.56 718.80 L 259.56 720.06 Q 257.70 719.88 255.84 719.88 L 255.84 719.88 Q 254.10 719.88 252.51 720.06 Q 250.92 720.24 249.60 720.72 L 249.60 720.72 L 249.60 713.64 Q 248.10 717.54 245.37 719.19 Q 242.64 720.84 239.76 720.84 L 239.76 720.84 Q 237.66 720.84 236.10 720.24 Q 234.54 719.64 233.52 718.56 L 233.52 718.56 Q 232.38 717.36 231.96 715.44 Q 231.54 713.52 231.54 710.70 L 231.54 710.70 L 231.54 695.64 Q 231.54 692.94 230.58 691.65 Q 229.62 690.36 226.98 690.36 L 226.98 690.36 L 226.98 689.10 Q 228.90 689.28 230.70 689.28 L 230.70 689.28 Q 232.44 689.28 234.03 689.07 Q 235.62 688.86 236.94 688.44 L 236.94 688.44 L 236.94 712.02 Q 236.94 713.88 237.18 715.44 Q 237.42 717.00 238.38 717.96 Q 239.34 718.92 241.50 718.92 L 241.50 718.92 Q 243.84 718.92 245.67 717.48 Q 247.50 716.04 248.55 713.58 Q 249.60 711.12 249.60 708.06 L 249.60 708.06 L 249.60 695.64 Q 249.60 692.94 248.64 691.65 Q 247.68 690.36 245.04 690.36 L 245.04 690.36 L 245.04 689.10 Q 246.96 689.28 248.76 689.28 L 248.76 689.28 Q 250.50 689.28 252.09 689.07 Q 253.68 688.86 255.00 688.44 M 281.28 688.26 L 281.28 688.26 Q 282.90 688.26 284.13 688.92 Q 285.36 689.58 286.05 690.63 Q 286.74 691.68 286.74 693.00 L 286.74 693.00 Q 286.74 694.50 285.81 695.64 Q 284.88 696.78 283.32 696.78 L 283.32 696.78 Q 282.06 696.78 281.10 695.97 Q 280.14 695.16 280.14 693.66 L 280.14 693.66 Q 280.14 692.52 280.77 691.71 Q 281.40 690.90 282.18 690.42 L 282.18 690.42 Q 281.76 689.82 280.92 689.82 L 280.92 689.82 Q 279.06 689.82 277.50 690.93 Q 275.94 692.04 274.86 693.78 Q 273.78 695.52 273.18 697.47 Q 272.58 699.42 272.58 701.10 L 272.58 701.10 L 272.58 713.82 Q 272.58 716.76 274.29 717.75 Q 276.00 718.74 278.94 718.74 L 278.94 718.74 L 278.94 720.00 Q 277.56 719.94 275.04 719.85 Q 272.52 719.76 269.70 719.76 L 269.70 719.76 Q 267.66 719.76 265.65 719.85 Q 263.64 719.94 262.62 720.00 L 262.62 720.00 L 262.62 718.74 Q 265.08 718.74 266.13 717.84 Q 267.18 716.94 267.18 714.42 L 267.18 714.42 L 267.18 695.64 Q 267.18 692.94 266.22 691.65 Q 265.26 690.36 262.62 690.36 L 262.62 690.36 L 262.62 689.10 Q 264.54 689.28 266.34 689.28 L 266.34 689.28 Q 268.08 689.28 269.67 689.07 Q 271.26 688.86 272.58 688.44 L 272.58 688.44 L 272.58 695.94 Q 273.24 694.20 274.47 692.43 Q 275.70 690.66 277.44 689.46 Q 279.18 688.26 281.28 688.26 M 313.92 679.14 L 313.92 679.14 L 313.92 689.16 L 322.80 689.16 L 322.80 690.36 L 313.92 690.36 L 313.92 713.58 Q 313.92 716.40 314.94 717.54 Q 315.96 718.68 317.76 718.68 L 317.76 718.68 Q 319.56 718.68 320.88 717.21 Q 322.20 715.74 323.16 712.26 L 323.16 712.26 L 324.36 712.56 Q 323.76 716.04 321.99 718.44 Q 320.22 720.84 316.56 720.84 L 316.56 720.84 Q 314.52 720.84 313.20 720.33 Q 311.88 719.82 310.86 718.86 L 310.86 718.86 Q 309.54 717.48 309.03 715.56 Q 308.52 713.64 308.52 710.46 L 308.52 710.46 L 308.52 690.36 L 302.76 690.36 L 302.76 689.16 L 308.52 689.16 L 308.52 679.98 Q 310.02 679.92 311.40 679.74 Q 312.78 679.56 313.92 679.14 M 334.02 720.42 L 334.02 720.42 Q 331.56 720.42 329.76 719.49 Q 327.96 718.56 327.03 716.88 Q 326.10 715.20 326.10 712.98 L 326.10 712.98 Q 326.10 710.34 327.33 708.66 Q 328.56 706.98 330.48 705.96 Q 332.40 704.94 334.53 704.25 Q 336.66 703.56 338.58 702.93 Q 340.50 702.30 341.73 701.46 Q 342.96 700.62 342.96 699.24 L 342.96 699.24 L 342.96 695.52 Q 342.96 693.00 342.21 691.68 Q 341.46 690.36 340.20 689.91 Q 338.94 689.46 337.38 689.46 L 337.38 689.46 Q 335.88 689.46 334.17 689.88 Q 332.46 690.30 331.44 691.62 L 331.44 691.62 Q 332.58 691.86 333.42 692.82 Q 334.26 693.78 334.26 695.28 L 334.26 695.28 Q 334.26 696.78 333.30 697.65 Q 332.34 698.52 330.84 698.52 L 330.84 698.52 Q 329.10 698.52 328.29 697.41 Q 327.48 696.30 327.48 694.92 L 327.48 694.92 Q 327.48 693.36 328.26 692.40 Q 329.04 691.44 330.24 690.60 L 330.24 690.60 Q 331.62 689.64 333.81 688.95 Q 336.00 688.26 338.76 688.26 L 338.76 688.26 Q 341.22 688.26 342.96 688.83 Q 344.70 689.40 345.84 690.48 L 345.84 690.48 Q 347.40 691.92 347.88 693.99 Q 348.36 696.06 348.36 698.94 L 348.36 698.94 L 348.36 715.62 Q 348.36 717.12 348.81 717.78 Q 349.26 718.44 350.22 718.44 L 350.22 718.44 Q 350.88 718.44 351.48 718.14 Q 352.08 717.84 352.92 717.18 L 352.92 717.18 L 353.58 718.20 Q 352.32 719.16 351.18 719.79 Q 350.04 720.42 348.12 720.42 L 348.12 720.42 Q 346.38 720.42 345.24 719.82 Q 344.10 719.22 343.53 718.05 Q 342.96 716.88 342.96 715.08 L 342.96 715.08 Q 341.34 717.78 339.09 719.10 Q 336.84 720.42 334.02 720.42 M 336.18 718.02 L 336.18 718.02 Q 338.16 718.02 339.87 716.88 Q 341.58 715.74 342.96 713.46 L 342.96 713.46 L 342.96 701.70 Q 342.24 702.72 340.86 703.41 Q 339.48 704.10 337.86 704.79 Q 336.24 705.48 334.77 706.41 Q 333.30 707.34 332.34 708.84 Q 331.38 710.34 331.38 712.74 L 331.38 712.74 Q 331.38 715.14 332.67 716.58 Q 333.96 718.02 336.18 718.02 M 366.12 688.26 L 366.12 688.26 Q 368.52 688.26 370.20 689.04 Q 371.88 689.82 372.66 690.48 L 372.66 690.48 Q 374.64 692.10 375.06 688.32 L 375.06 688.32 L 376.44 688.32 Q 376.32 690.00 376.26 692.31 Q 376.20 694.62 376.20 698.52 L 376.20 698.52 L 374.82 698.52 Q 374.46 696.30 373.59 694.20 Q 372.72 692.10 371.04 690.75 Q 369.36 689.40 366.66 689.40 L 366.66 689.40 Q 364.56 689.40 363.15 690.57 Q 361.74 691.74 361.74 694.02 L 361.74 694.02 Q 361.74 695.82 362.82 697.11 Q 363.90 698.40 365.64 699.51 Q 367.38 700.62 369.42 701.94 L 369.42 701.94 Q 371.70 703.38 373.56 704.88 Q 375.42 706.38 376.53 708.18 Q 377.64 709.98 377.64 712.44 L 377.64 712.44 Q 377.64 715.20 376.20 717.06 Q 374.76 718.92 372.45 719.88 Q 370.14 720.84 367.38 720.84 L 367.38 720.84 Q 366.06 720.84 364.89 720.63 Q 363.72 720.42 362.64 720.00 L 362.64 720.00 Q 362.04 719.70 361.41 719.28 Q 360.78 718.86 360.18 718.38 L 360.18 718.38 Q 359.58 717.90 359.10 718.41 Q 358.62 718.92 358.38 720.42 L 358.38 720.42 L 357.00 720.42 Q 357.12 718.50 357.18 715.74 Q 357.24 712.98 357.24 708.42 L 357.24 708.42 L 358.62 708.42 Q 359.04 711.78 359.82 714.30 Q 360.60 716.82 362.28 718.23 Q 363.96 719.64 366.96 719.64 L 366.96 719.64 Q 368.16 719.64 369.39 719.10 Q 370.62 718.56 371.46 717.30 Q 372.30 716.04 372.30 713.94 L 372.30 713.94 Q 372.30 711.30 370.38 709.62 Q 368.46 707.94 365.52 706.08 L 365.52 706.08 Q 363.36 704.70 361.47 703.32 Q 359.58 701.94 358.41 700.20 Q 357.24 698.46 357.24 696.00 L 357.24 696.00 Q 357.24 693.30 358.47 691.59 Q 359.70 689.88 361.74 689.07 Q 363.78 688.26 366.12 688.26 M 391.86 679.14 L 391.86 679.14 L 391.86 689.16 L 400.74 689.16 L 400.74 690.36 L 391.86 690.36 L 391.86 713.58 Q 391.86 716.40 392.88 717.54 Q 393.90 718.68 395.70 718.68 L 395.70 718.68 Q 397.50 718.68 398.82 717.21 Q 400.14 715.74 401.10 712.26 L 401.10 712.26 L 402.30 712.56 Q 401.70 716.04 399.93 718.44 Q 398.16 720.84 394.50 720.84 L 394.50 720.84 Q 392.46 720.84 391.14 720.33 Q 389.82 719.82 388.80 718.86 L 388.80 718.86 Q 387.48 717.48 386.97 715.56 Q 386.46 713.64 386.46 710.46 L 386.46 710.46 L 386.46 690.36 L 380.70 690.36 L 380.70 689.16 L 386.46 689.16 L 386.46 679.98 Q 387.96 679.92 389.34 679.74 Q 390.72 679.56 391.86 679.14 M 418.02 688.26 L 418.02 688.26 Q 423.30 688.26 426.27 691.47 Q 429.24 694.68 429.24 701.46 L 429.24 701.46 L 408.06 701.46 L 408.00 700.32 L 423.48 700.32 Q 423.60 697.38 423.00 694.89 Q 422.40 692.40 421.11 690.90 Q 419.82 689.40 417.78 689.40 L 417.78 689.40 Q 415.02 689.40 412.89 692.16 Q 410.76 694.92 410.34 700.92 L 410.34 700.92 L 410.52 701.16 Q 410.40 702.06 410.34 703.14 Q 410.28 704.22 410.28 705.30 L 410.28 705.30 Q 410.28 709.38 411.60 712.32 Q 412.92 715.26 415.05 716.79 Q 417.18 718.32 419.46 718.32 L 419.46 718.32 Q 421.26 718.32 422.88 717.75 Q 424.50 717.18 425.88 715.86 Q 427.26 714.54 428.28 712.32 L 428.28 712.32 L 429.48 712.80 Q 428.82 714.78 427.32 716.64 Q 425.82 718.50 423.54 719.67 Q 421.26 720.84 418.26 720.84 L 418.26 720.84 Q 413.94 720.84 410.85 718.86 Q 407.76 716.88 406.11 713.37 Q 404.46 709.86 404.46 705.30 L 404.46 705.30 Q 404.46 700.02 406.14 696.21 Q 407.82 692.40 410.88 690.33 Q 413.94 688.26 418.02 688.26 M 439.62 713.16 L 439.62 713.16 Q 440.94 713.16 441.78 713.70 Q 442.62 714.24 443.16 715.08 L 443.16 715.08 Q 443.82 716.04 444.00 717.18 Q 444.18 718.32 444.18 719.04 L 444.18 719.04 Q 444.18 721.98 442.68 724.38 Q 441.18 726.78 438.00 728.28 L 438.00 728.28 L 437.46 727.20 Q 439.32 726.42 440.67 724.74 Q 442.02 723.06 442.02 721.32 L 442.02 721.32 Q 442.02 720.60 441.84 720.06 L 441.84 720.06 Q 440.88 720.84 439.62 720.84 L 439.62 720.84 Q 438.06 720.84 436.92 719.82 Q 435.78 718.80 435.78 717.00 L 435.78 717.00 Q 435.78 715.32 436.92 714.24 Q 438.06 713.16 439.62 713.16 M 483.06 688.26 L 483.06 688.26 Q 484.68 688.26 485.91 688.92 Q 487.14 689.58 487.83 690.63 Q 488.52 691.68 488.52 693.00 L 488.52 693.00 Q 488.52 694.50 487.59 695.64 Q 486.66 696.78 485.10 696.78 L 485.10 696.78 Q 483.84 696.78 482.88 695.97 Q 481.92 695.16 481.92 693.66 L 481.92 693.66 Q 481.92 692.52 482.55 691.71 Q 483.18 690.90 483.96 690.42 L 483.96 690.42 Q 483.54 689.82 482.70 689.82 L 482.70 689.82 Q 480.84 689.82 479.28 690.93 Q 477.72 692.04 476.64 693.78 Q 475.56 695.52 474.96 697.47 Q 474.36 699.42 474.36 701.10 L 474.36 701.10 L 474.36 713.82 Q 474.36 716.76 476.07 717.75 Q 477.78 718.74 480.72 718.74 L 480.72 718.74 L 480.72 720.00 Q 479.34 719.94 476.82 719.85 Q 474.30 719.76 471.48 719.76 L 471.48 719.76 Q 469.44 719.76 467.43 719.85 Q 465.42 719.94 464.40 720.00 L 464.40 720.00 L 464.40 718.74 Q 466.86 718.74 467.91 717.84 Q 468.96 716.94 468.96 714.42 L 468.96 714.42 L 468.96 695.64 Q 468.96 692.94 468.00 691.65 Q 467.04 690.36 464.40 690.36 L 464.40 690.36 L 464.40 689.10 Q 466.32 689.28 468.12 689.28 L 468.12 689.28 Q 469.86 689.28 471.45 689.07 Q 473.04 688.86 474.36 688.44 L 474.36 688.44 L 474.36 695.94 Q 475.02 694.20 476.25 692.43 Q 477.48 690.66 479.22 689.46 Q 480.96 688.26 483.06 688.26 M 505.68 688.26 L 505.68 688.26 Q 510.96 688.26 513.93 691.47 Q 516.90 694.68 516.90 701.46 L 516.90 701.46 L 495.72 701.46 L 495.66 700.32 L 511.14 700.32 Q 511.26 697.38 510.66 694.89 Q 510.06 692.40 508.77 690.90 Q 507.48 689.40 505.44 689.40 L 505.44 689.40 Q 502.68 689.40 500.55 692.16 Q 498.42 694.92 498.00 700.92 L 498.00 700.92 L 498.18 701.16 Q 498.06 702.06 498.00 703.14 Q 497.94 704.22 497.94 705.30 L 497.94 705.30 Q 497.94 709.38 499.26 712.32 Q 500.58 715.26 502.71 716.79 Q 504.84 718.32 507.12 718.32 L 507.12 718.32 Q 508.92 718.32 510.54 717.75 Q 512.16 717.18 513.54 715.86 Q 514.92 714.54 515.94 712.32 L 515.94 712.32 L 517.14 712.80 Q 516.48 714.78 514.98 716.64 Q 513.48 718.50 511.20 719.67 Q 508.92 720.84 505.92 720.84 L 505.92 720.84 Q 501.60 720.84 498.51 718.86 Q 495.42 716.88 493.77 713.37 Q 492.12 709.86 492.12 705.30 L 492.12 705.30 Q 492.12 700.02 493.80 696.21 Q 495.48 692.40 498.54 690.33 Q 501.60 688.26 505.68 688.26 M 529.98 720.42 L 529.98 720.42 Q 527.52 720.42 525.72 719.49 Q 523.92 718.56 522.99 716.88 Q 522.06 715.20 522.06 712.98 L 522.06 712.98 Q 522.06 710.34 523.29 708.66 Q 524.52 706.98 526.44 705.96 Q 528.36 704.94 530.49 704.25 Q 532.62 703.56 534.54 702.93 Q 536.46 702.30 537.69 701.46 Q 538.92 700.62 538.92 699.24 L 538.92 699.24 L 538.92 695.52 Q 538.92 693.00 538.17 691.68 Q 537.42 690.36 536.16 689.91 Q 534.90 689.46 533.34 689.46 L 533.34 689.46 Q 531.84 689.46 530.13 689.88 Q 528.42 690.30 527.40 691.62 L 527.40 691.62 Q 528.54 691.86 529.38 692.82 Q 530.22 693.78 530.22 695.28 L 530.22 695.28 Q 530.22 696.78 529.26 697.65 Q 528.30 698.52 526.80 698.52 L 526.80 698.52 Q 525.06 698.52 524.25 697.41 Q 523.44 696.30 523.44 694.92 L 523.44 694.92 Q 523.44 693.36 524.22 692.40 Q 525.00 691.44 526.20 690.60 L 526.20 690.60 Q 527.58 689.64 529.77 688.95 Q 531.96 688.26 534.72 688.26 L 534.72 688.26 Q 537.18 688.26 538.92 688.83 Q 540.66 689.40 541.80 690.48 L 541.80 690.48 Q 543.36 691.92 543.84 693.99 Q 544.32 696.06 544.32 698.94 L 544.32 698.94 L 544.32 715.62 Q 544.32 717.12 544.77 717.78 Q 545.22 718.44 546.18 718.44 L 546.18 718.44 Q 546.84 718.44 547.44 718.14 Q 548.04 717.84 548.88 717.18 L 548.88 717.18 L 549.54 718.20 Q 548.28 719.16 547.14 719.79 Q 546.00 720.42 544.08 720.42 L 544.08 720.42 Q 542.34 720.42 541.20 719.82 Q 540.06 719.22 539.49 718.05 Q 538.92 716.88 538.92 715.08 L 538.92 715.08 Q 537.30 717.78 535.05 719.10 Q 532.80 720.42 529.98 720.42 M 532.14 718.02 L 532.14 718.02 Q 534.12 718.02 535.83 716.88 Q 537.54 715.74 538.92 713.46 L 538.92 713.46 L 538.92 701.70 Q 538.20 702.72 536.82 703.41 Q 535.44 704.10 533.82 704.79 Q 532.20 705.48 530.73 706.41 Q 529.26 707.34 528.30 708.84 Q 527.34 710.34 527.34 712.74 L 527.34 712.74 Q 527.34 715.14 528.63 716.58 Q 529.92 718.02 532.14 718.02 M 578.64 672.96 L 578.64 672.96 L 578.64 713.46 Q 578.64 716.16 579.63 717.45 Q 580.62 718.74 583.20 718.74 L 583.20 718.74 L 583.20 720.00 Q 581.34 719.82 579.48 719.82 L 579.48 719.82 Q 577.74 719.82 576.15 720.00 Q 574.56 720.18 573.24 720.66 L 573.24 720.66 L 573.24 680.16 Q 573.24 677.46 572.28 676.17 Q 571.32 674.88 568.68 674.88 L 568.68 674.88 L 568.68 673.62 Q 570.60 673.80 572.40 673.80 L 572.40 673.80 Q 574.14 673.80 575.73 673.59 Q 577.32 673.38 578.64 672.96 M 566.04 688.26 L 566.04 688.26 Q 568.68 688.26 570.99 689.52 Q 573.30 690.78 574.08 693.84 L 574.08 693.84 L 573.30 694.44 Q 572.46 691.92 570.69 690.78 Q 568.92 689.64 566.52 689.64 L 566.52 689.64 Q 562.98 689.64 560.61 693.30 Q 558.24 696.96 558.30 704.58 L 558.30 704.58 Q 558.30 709.44 559.23 712.65 Q 560.16 715.86 561.99 717.45 Q 563.82 719.04 566.46 719.04 L 566.46 719.04 Q 568.98 719.04 571.02 716.88 Q 573.06 714.72 573.48 710.52 L 573.48 710.52 L 574.20 711.36 Q 573.72 715.92 571.29 718.38 Q 568.86 720.84 564.72 720.84 L 564.72 720.84 Q 561.00 720.84 558.21 719.04 Q 555.42 717.24 553.95 713.64 Q 552.48 710.04 552.48 704.58 L 552.48 704.58 Q 552.48 699.12 554.37 695.49 Q 556.26 691.86 559.35 690.06 Q 562.44 688.26 566.04 688.26 M 618.96 688.26 L 618.96 688.26 Q 623.88 688.26 627.12 692.31 Q 630.36 696.36 630.36 704.58 L 630.36 704.58 Q 630.36 709.98 628.53 713.61 Q 626.70 717.24 623.64 719.04 Q 620.58 720.84 616.98 720.84 L 616.98 720.84 Q 613.98 720.84 611.19 719.13 Q 608.40 717.42 607.02 714.06 L 607.02 714.06 L 608.22 714.72 Q 609.72 717.12 611.94 718.29 Q 614.16 719.46 616.50 719.46 L 616.50 719.46 Q 620.52 719.46 622.53 715.83 Q 624.54 712.20 624.54 704.58 L 624.54 704.58 Q 624.54 699.72 623.76 696.48 Q 622.98 693.24 621.36 691.65 Q 619.74 690.06 617.22 690.06 L 617.22 690.06 Q 614.46 690.06 612.09 692.55 Q 609.72 695.04 609.18 699.84 L 609.18 699.84 L 608.46 699.00 Q 609.12 693.90 612.03 691.08 Q 614.94 688.26 618.96 688.26 M 609.60 673.02 L 609.60 673.02 L 609.60 716.88 Q 608.82 717.54 608.01 718.23 Q 607.20 718.92 606.42 719.58 Q 605.64 720.24 604.80 720.96 L 604.80 720.96 L 603.78 720.54 Q 604.02 719.70 604.11 718.83 Q 604.20 717.96 604.20 717.06 L 604.20 717.06 L 604.20 680.22 Q 604.20 677.52 603.24 676.23 Q 602.28 674.94 599.64 674.94 L 599.64 674.94 L 599.64 673.68 Q 601.56 673.86 603.36 673.86 L 603.36 673.86 Q 605.10 673.86 606.69 673.65 Q 608.28 673.44 609.60 673.02 M 643.44 720.42 L 643.44 720.42 Q 640.98 720.42 639.18 719.49 Q 637.38 718.56 636.45 716.88 Q 635.52 715.20 635.52 712.98 L 635.52 712.98 Q 635.52 710.34 636.75 708.66 Q 637.98 706.98 639.90 705.96 Q 641.82 704.94 643.95 704.25 Q 646.08 703.56 648.00 702.93 Q 649.92 702.30 651.15 701.46 Q 652.38 700.62 652.38 699.24 L 652.38 699.24 L 652.38 695.52 Q 652.38 693.00 651.63 691.68 Q 650.88 690.36 649.62 689.91 Q 648.36 689.46 646.80 689.46 L 646.80 689.46 Q 645.30 689.46 643.59 689.88 Q 641.88 690.30 640.86 691.62 L 640.86 691.62 Q 642.00 691.86 642.84 692.82 Q 643.68 693.78 643.68 695.28 L 643.68 695.28 Q 643.68 696.78 642.72 697.65 Q 641.76 698.52 640.26 698.52 L 640.26 698.52 Q 638.52 698.52 637.71 697.41 Q 636.90 696.30 636.90 694.92 L 636.90 694.92 Q 636.90 693.36 637.68 692.40 Q 638.46 691.44 639.66 690.60 L 639.66 690.60 Q 641.04 689.64 643.23 688.95 Q 645.42 688.26 648.18 688.26 L 648.18 688.26 Q 650.64 688.26 652.38 688.83 Q 654.12 689.40 655.26 690.48 L 655.26 690.48 Q 656.82 691.92 657.30 693.99 Q 657.78 696.06 657.78 698.94 L 657.78 698.94 L 657.78 715.62 Q 657.78 717.12 658.23 717.78 Q 658.68 718.44 659.64 718.44 L 659.64 718.44 Q 660.30 718.44 660.90 718.14 Q 661.50 717.84 662.34 717.18 L 662.34 717.18 L 663.00 718.20 Q 661.74 719.16 660.60 719.79 Q 659.46 720.42 657.54 720.42 L 657.54 720.42 Q 655.80 720.42 654.66 719.82 Q 653.52 719.22 652.95 718.05 Q 652.38 716.88 652.38 715.08 L 652.38 715.08 Q 650.76 717.78 648.51 719.10 Q 646.26 720.42 643.44 720.42 M 645.60 718.02 L 645.60 718.02 Q 647.58 718.02 649.29 716.88 Q 651.00 715.74 652.38 713.46 L 652.38 713.46 L 652.38 701.70 Q 651.66 702.72 650.28 703.41 Q 648.90 704.10 647.28 704.79 Q 645.66 705.48 644.19 706.41 Q 642.72 707.34 641.76 708.84 Q 640.80 710.34 640.80 712.74 L 640.80 712.74 Q 640.80 715.14 642.09 716.58 Q 643.38 718.02 645.60 718.02 M 679.80 688.26 L 679.80 688.26 Q 681.72 688.26 683.52 688.74 Q 685.32 689.22 686.76 690.18 L 686.76 690.18 Q 688.14 691.08 688.86 692.25 Q 689.58 693.42 689.58 694.80 L 689.58 694.80 Q 689.58 696.42 688.68 697.29 Q 687.78 698.16 686.40 698.16 L 686.40 698.16 Q 685.08 698.16 684.09 697.38 Q 683.10 696.60 683.10 695.16 L 683.10 695.16 Q 683.10 693.78 683.85 692.94 Q 684.60 692.10 685.62 691.86 L 685.62 691.86 Q 685.02 690.78 683.49 690.06 Q 681.96 689.34 680.22 689.34 L 680.22 689.34 Q 678.72 689.34 677.22 690.06 Q 675.72 690.78 674.46 692.43 Q 673.20 694.08 672.42 696.93 Q 671.64 699.78 671.64 704.04 L 671.64 704.04 Q 671.64 709.32 672.84 712.44 Q 674.04 715.56 675.99 716.91 Q 677.94 718.26 680.28 718.26 L 680.28 718.26 Q 681.84 718.26 683.46 717.66 Q 685.08 717.06 686.52 715.71 Q 687.96 714.36 688.98 712.08 L 688.98 712.08 L 690.12 712.50 Q 689.52 714.42 688.14 716.37 Q 686.76 718.32 684.54 719.58 Q 682.32 720.84 679.08 720.84 L 679.08 720.84 Q 675.36 720.84 672.36 718.92 Q 669.36 717.00 667.59 713.43 Q 665.82 709.86 665.82 704.94 L 665.82 704.94 Q 665.82 700.02 667.59 696.27 Q 669.36 692.52 672.54 690.39 Q 675.72 688.26 679.80 688.26 M 703.38 672.96 L 703.38 672.96 L 703.38 714.42 Q 703.38 716.94 704.28 717.84 Q 705.18 718.74 707.34 718.74 L 707.34 718.74 L 707.34 720.00 Q 706.38 719.94 704.49 719.85 Q 702.60 719.76 700.68 719.76 L 700.68 719.76 Q 698.64 719.76 696.54 719.85 Q 694.44 719.94 693.42 720.00 L 693.42 720.00 L 693.42 718.74 Q 695.88 718.74 696.93 717.84 Q 697.98 716.94 697.98 714.42 L 697.98 714.42 L 697.98 680.16 Q 697.98 677.46 697.02 676.17 Q 696.06 674.88 693.42 674.88 L 693.42 674.88 L 693.42 673.62 Q 695.34 673.80 697.14 673.80 L 697.14 673.80 Q 698.88 673.80 700.47 673.59 Q 702.06 673.38 703.38 672.96 M 722.46 689.10 L 722.46 689.10 L 722.46 690.30 Q 720.96 690.42 719.64 691.11 Q 718.32 691.80 717.06 693.12 L 717.06 693.12 L 708.60 702.00 L 709.44 700.32 L 720.60 715.62 Q 721.62 717.00 722.55 717.78 Q 723.48 718.56 724.80 718.74 L 724.80 718.74 L 724.80 720.00 Q 724.14 719.94 722.73 719.85 Q 721.32 719.76 719.94 719.76 L 719.94 719.76 Q 718.08 719.76 716.16 719.85 Q 714.24 719.94 713.28 720.00 L 713.28 720.00 L 713.28 718.74 Q 714.48 718.74 714.96 718.14 Q 715.44 717.54 714.78 716.70 L 714.78 716.70 L 707.88 706.62 Q 706.74 705.00 705.81 704.52 Q 704.88 704.04 703.14 703.98 L 703.14 703.98 L 703.14 702.78 Q 705.06 702.54 706.26 701.97 Q 707.46 701.40 708.54 700.26 L 708.54 700.26 L 712.98 695.64 Q 714.90 693.66 714.90 692.49 Q 714.90 691.32 713.67 690.81 Q 712.44 690.30 710.46 690.30 L 710.46 690.30 L 710.46 689.10 Q 712.02 689.16 713.97 689.25 Q 715.92 689.34 717.24 689.34 L 717.24 689.34 Q 718.26 689.34 719.22 689.31 Q 720.18 689.28 721.02 689.22 Q 721.86 689.16 722.46 689.10 M 751.56 679.14 L 751.56 679.14 L 751.56 689.16 L 760.44 689.16 L 760.44 690.36 L 751.56 690.36 L 751.56 713.58 Q 751.56 716.40 752.58 717.54 Q 753.60 718.68 755.40 718.68 L 755.40 718.68 Q 757.20 718.68 758.52 717.21 Q 759.84 715.74 760.80 712.26 L 760.80 712.26 L 762.00 712.56 Q 761.40 716.04 759.63 718.44 Q 757.86 720.84 754.20 720.84 L 754.20 720.84 Q 752.16 720.84 750.84 720.33 Q 749.52 719.82 748.50 718.86 L 748.50 718.86 Q 747.18 717.48 746.67 715.56 Q 746.16 713.64 746.16 710.46 L 746.16 710.46 L 746.16 690.36 L 740.40 690.36 L 740.40 689.16 L 746.16 689.16 L 746.16 679.98 Q 747.66 679.92 749.04 679.74 Q 750.42 679.56 751.56 679.14 M 777.84 688.26 L 777.84 688.26 Q 781.68 688.26 784.74 689.94 Q 787.80 691.62 789.63 695.22 Q 791.46 698.82 791.46 704.58 L 791.46 704.58 Q 791.46 710.34 789.63 713.91 Q 787.80 717.48 784.74 719.16 Q 781.68 720.84 777.84 720.84 L 777.84 720.84 Q 774.06 720.84 770.97 719.16 Q 767.88 717.48 766.05 713.91 Q 764.22 710.34 764.22 704.58 L 764.22 704.58 Q 764.22 698.82 766.05 695.22 Q 767.88 691.62 770.97 689.94 Q 774.06 688.26 777.84 688.26 M 777.84 689.46 L 777.84 689.46 Q 774.42 689.46 772.23 693.00 Q 770.04 696.54 770.04 704.58 L 770.04 704.58 Q 770.04 712.62 772.23 716.13 Q 774.42 719.64 777.84 719.64 L 777.84 719.64 Q 781.26 719.64 783.45 716.13 Q 785.64 712.62 785.64 704.58 L 785.64 704.58 Q 785.64 696.54 783.45 693.00 Q 781.26 689.46 777.84 689.46 M 838.86 689.10 L 838.86 689.10 L 838.86 690.30 Q 837.72 690.42 836.76 691.32 Q 835.80 692.22 834.96 694.50 L 834.96 694.50 L 825.12 720.30 L 824.10 720.30 L 813.06 693.72 Q 811.92 691.38 810.81 690.87 Q 809.70 690.36 808.98 690.36 L 808.98 690.36 L 808.98 689.10 Q 810.30 689.28 811.74 689.37 Q 813.18 689.46 814.86 689.46 L 814.86 689.46 Q 816.72 689.46 818.79 689.34 Q 820.86 689.22 822.66 689.10 L 822.66 689.10 L 822.66 690.36 Q 821.16 690.36 819.99 690.57 Q 818.82 690.78 818.52 691.83 Q 818.22 692.88 819.24 695.40 L 819.24 695.40 L 826.62 713.70 L 826.26 713.82 L 833.10 695.94 Q 833.88 693.96 833.73 692.79 Q 833.58 691.62 832.50 691.02 Q 831.42 690.42 829.26 690.30 L 829.26 690.30 L 829.26 689.10 Q 830.34 689.16 831.12 689.19 Q 831.90 689.22 832.65 689.25 Q 833.40 689.28 834.30 689.28 L 834.30 689.28 Q 835.68 689.28 836.79 689.22 Q 837.90 689.16 838.86 689.10 M 823.98 719.82 L 825.12 720.30 L 823.08 725.52 Q 822.48 727.02 821.85 728.04 Q 821.22 729.06 820.50 729.72 L 820.50 729.72 Q 819.54 730.62 818.22 730.95 Q 816.90 731.28 815.82 731.28 L 815.82 731.28 Q 814.68 731.28 813.75 730.86 Q 812.82 730.44 812.28 729.63 Q 811.74 728.82 811.74 727.68 L 811.74 727.68 Q 811.74 726.24 812.58 725.37 Q 813.42 724.50 814.92 724.50 L 814.92 724.50 Q 816.18 724.50 817.08 725.22 Q 817.98 725.94 817.98 727.32 L 817.98 727.32 Q 817.98 728.34 817.50 729.00 Q 817.02 729.66 816.36 730.02 L 816.36 730.02 Q 816.48 730.08 816.57 730.08 Q 816.66 730.08 816.72 730.08 L 816.72 730.08 Q 818.34 730.08 819.60 728.97 Q 820.86 727.86 821.82 725.40 L 821.82 725.40 L 823.98 719.82 M 855.90 688.26 L 855.90 688.26 Q 859.74 688.26 862.80 689.94 Q 865.86 691.62 867.69 695.22 Q 869.52 698.82 869.52 704.58 L 869.52 704.58 Q 869.52 710.34 867.69 713.91 Q 865.86 717.48 862.80 719.16 Q 859.74 720.84 855.90 720.84 L 855.90 720.84 Q 852.12 720.84 849.03 719.16 Q 845.94 717.48 844.11 713.91 Q 842.28 710.34 842.28 704.58 L 842.28 704.58 Q 842.28 698.82 844.11 695.22 Q 845.94 691.62 849.03 689.94 Q 852.12 688.26 855.90 688.26 M 855.90 689.46 L 855.90 689.46 Q 852.48 689.46 850.29 693.00 Q 848.10 696.54 848.10 704.58 L 848.10 704.58 Q 848.10 712.62 850.29 716.13 Q 852.48 719.64 855.90 719.64 L 855.90 719.64 Q 859.32 719.64 861.51 716.13 Q 863.70 712.62 863.70 704.58 L 863.70 704.58 Q 863.70 696.54 861.51 693.00 Q 859.32 689.46 855.90 689.46 M 901.32 688.44 L 901.32 688.44 L 901.32 713.52 Q 901.32 716.22 902.31 717.51 Q 903.30 718.80 905.88 718.80 L 905.88 718.80 L 905.88 720.06 Q 904.02 719.88 902.16 719.88 L 902.16 719.88 Q 900.42 719.88 898.83 720.06 Q 897.24 720.24 895.92 720.72 L 895.92 720.72 L 895.92 713.64 Q 894.42 717.54 891.69 719.19 Q 888.96 720.84 886.08 720.84 L 886.08 720.84 Q 883.98 720.84 882.42 720.24 Q 880.86 719.64 879.84 718.56 L 879.84 718.56 Q 878.70 717.36 878.28 715.44 Q 877.86 713.52 877.86 710.70 L 877.86 710.70 L 877.86 695.64 Q 877.86 692.94 876.90 691.65 Q 875.94 690.36 873.30 690.36 L 873.30 690.36 L 873.30 689.10 Q 875.22 689.28 877.02 689.28 L 877.02 689.28 Q 878.76 689.28 880.35 689.07 Q 881.94 688.86 883.26 688.44 L 883.26 688.44 L 883.26 712.02 Q 883.26 713.88 883.50 715.44 Q 883.74 717.00 884.70 717.96 Q 885.66 718.92 887.82 718.92 L 887.82 718.92 Q 890.16 718.92 891.99 717.48 Q 893.82 716.04 894.87 713.58 Q 895.92 711.12 895.92 708.06 L 895.92 708.06 L 895.92 695.64 Q 895.92 692.94 894.96 691.65 Q 894.00 690.36 891.36 690.36 L 891.36 690.36 L 891.36 689.10 Q 893.28 689.28 895.08 689.28 L 895.08 689.28 Q 896.82 689.28 898.41 689.07 Q 900.00 688.86 901.32 688.44 M 914.76 713.16 L 914.76 713.16 Q 916.32 713.16 917.46 714.30 Q 918.60 715.44 918.60 717.00 L 918.60 717.00 Q 918.60 718.56 917.46 719.70 Q 916.32 720.84 914.76 720.84 L 914.76 720.84 Q 913.20 720.84 912.06 719.70 Q 910.92 718.56 910.92 717.00 L 910.92 717.00 Q 910.92 715.44 912.06 714.30 Q 913.20 713.16 914.76 713.16" fill="#F7F5F2"/>
  <line x1="470" y1="790" x2="610" y2="790" stroke="#D4B378" stroke-width="1.4" opacity="0.85"/>
  <text x="540" y="875" text-anchor="middle" fill="#a8a29e" font-family="'Helvetica Neue', Arial, sans-serif" font-size="30" letter-spacing="2">See your own. A 14-day free trial.</text>
  <text x="540" y="955" text-anchor="middle" fill="#D4B378" font-family="'Helvetica Neue', Arial, sans-serif" font-size="38" letter-spacing="6">myatelier.style</text>
</svg>